<svg xmlns="http://www.w3.org/2000/svg" viewBox="0 0 880.99 27.06"><defs><style>.cls-1{fill:#222222;}</style></defs><g id="Layer_2" data-name="Layer 2"><g id="Graphic_Elements" data-name="Graphic Elements"><path class="cls-1" d="M21.13,1.55c-.06-.4-1.8.46-1.85.48A7.76,7.76,0,0,0,17,3.7a26.39,26.39,0,0,0-5.44,9.94,15.8,15.8,0,0,0-7.4-5.09c-.69-.22-2,.73-2.56,1.06S-.06,10.54,0,11.19A14,14,0,0,0,5.23,20.9a2.47,2.47,0,0,0,2.42.68,8.62,8.62,0,0,0,2.16-1A15.77,15.77,0,0,1,10.53,23a1.94,1.94,0,0,0,0,.24l-.88.85c-.67.6-.39.91.4.67.21-.06.41-.15.62-.23q.06.51.15,1c.06.34,4.33-1.4,4.29-2.56a14.6,14.6,0,0,0-.19-1.88A24.43,24.43,0,0,0,21.13,1.55ZM14.81,17.12a25.66,25.66,0,0,1,2.21-9A23.73,23.73,0,0,1,14.81,17.12Z"/><path class="cls-1" d="M71.07,1.28a6.8,6.8,0,0,0-4.61,1.57C63.79,5,62.79,8.63,61.63,11.7c-.44,1.15-.85,2.31-1.25,3.48a28,28,0,0,0-4.73-7.25c-1.06-1.17-3.87-.55-4.51.86-1.71,3.75-1.42,8.65,1.41,11.83a5.64,5.64,0,0,0,4.87,1.52c.13.58.23,1.17.32,1.77l-.05.08c-.61,1,.55,1.72,1.42,1.8a3.46,3.46,0,0,0,3.15-1.44l6.09-10.14c1-1.69,2-3.38,3.05-5.06.87-1.45,2.38-3.23,2.45-5A2.81,2.81,0,0,0,71.07,1.28Z"/><path class="cls-1" d="M117.89,2.8a5.29,5.29,0,0,0-5.31,1,12.84,12.84,0,0,0-3.1,4.06A21.92,21.92,0,0,0,108,11a22.21,22.21,0,0,0-7.37-7c-1.35-.78-3.75.4-3.82,2a24,24,0,0,0,4,14.59,6.22,6.22,0,0,0,2.7,2.53,4,4,0,0,0,1.75.26,1.91,1.91,0,0,0,.59.23,2.44,2.44,0,0,0,1.14,0,2.23,2.23,0,0,0,2.52.87,2.68,2.68,0,0,0,2.06-2.69,21.47,21.47,0,0,0-.24-2.28,20.62,20.62,0,0,1,0-2.08c.67-1.14,1.39-2.25,2.17-3.32a43.57,43.57,0,0,1,2.92-3.59c.43-.47.9-1,1.38-1.43.69-.67,1.71-1.34,2.08-2.24A3.29,3.29,0,0,0,117.89,2.8Zm-15.73,8.73a19,19,0,0,1,3.48,5.85,3.37,3.37,0,0,0-.83.27A22.62,22.62,0,0,1,103,14.2,18.85,18.85,0,0,1,102.16,11.53Z"/><path class="cls-1" d="M158,.85c-3.35.79-5.13,3.76-6.1,6.83-.2.65-.4,1.31-.59,2a15.26,15.26,0,0,0-4.59-5.18c-1.26-.88-3.71-.72-4.18,1.08a14.68,14.68,0,0,0,4.93,15.19,2.44,2.44,0,0,0,.65.36,2,2,0,0,0,1.56,1.81c-.09.12-.17.25-.25.37-1.76,2.64,2.65,4.31,4.17,2q3.18-4.76,6.19-9.6c1-1.56,1.92-3.13,2.86-4.71s2.07-3.29,2.23-5.22C165.19,2,161.3.08,158,.85Zm1.91,5.2a6,6,0,0,1-.83,1.9c-1,1.69-2,3.38-3.05,5.05-.42.69-.86,1.36-1.29,2,.56-1.92,1.12-3.84,1.7-5.76a9.73,9.73,0,0,1,1.62-3.71,5.66,5.66,0,0,1,.44-.4l.11-.06a.58.58,0,0,0,.13-.11.42.42,0,0,0,.19,0l.11,0h.34s0,0,.17,0l.14.06c-.12,0,.09,0,.16.19A1.34,1.34,0,0,1,159.92,6.05Z"/><path class="cls-1" d="M210.09,3.39a3.14,3.14,0,0,0-2.76.31,17.6,17.6,0,0,0-7.82,9.47,77.18,77.18,0,0,0-7.38-10c-1.25-1.45-4.81-.35-4.42,1.76a35.06,35.06,0,0,0,8.2,16.86l.2.18a1.76,1.76,0,0,0,.8,2.25,3,3,0,0,0,3.49-.59l.28-.3c1.49.11,3.25-.85,3-2.39,0-.28-.08-.55-.11-.83a43.42,43.42,0,0,0,7.77-14.84C211.57,4.44,210.77,3.65,210.09,3.39Z"/><path class="cls-1" d="M256.37,2.54a17.07,17.07,0,0,0-7.1,11.11A28.25,28.25,0,0,0,244.21,9c-1-.69-3.25-1.22-3.16.66a18,18,0,0,0,4.65,11.06,3.66,3.66,0,0,0,2,1.11c-.16.82.78,1.92,1.3,2.3.86.63,2.12,1,3,.2A28.3,28.3,0,0,0,260.28,5C260.32,3.49,257.68,1.65,256.37,2.54Zm-7.1,17.37-.06.06a3.34,3.34,0,0,0-.62-1,12.36,12.36,0,0,1-2.15-3.57A21.91,21.91,0,0,1,249.27,19.91Z"/><path class="cls-1" d="M307.5.87a25.72,25.72,0,0,0-9.89,9.69,16.7,16.7,0,0,0-8.05-7.72c-1.55-.7-3.29,1.08-3.56,2.44a18.24,18.24,0,0,0,4.61,16,2.33,2.33,0,0,0,3.08.07,3.53,3.53,0,0,0,.85-.87,22,22,0,0,0-.05,2.3,1.52,1.52,0,0,0,.68,1.32,1.55,1.55,0,0,0,.83,2.23,3.13,3.13,0,0,0,3.19-1.4A64.59,64.59,0,0,0,310.11,2.73C310.55,1.11,309,.07,307.5.87Zm-3.44,7.06a61,61,0,0,1-4.61,9.73c0-.09,0-.18,0-.27A19.75,19.75,0,0,1,304.06,7.93ZM294.74,18.5A15.9,15.9,0,0,1,290.35,9a14.63,14.63,0,0,1,4.51,8.87c0,.21-.06.43-.1.64Z"/><path class="cls-1" d="M355.69,3.58c-.14-1.08-1.57-3.91-2.95-2.67A22.34,22.34,0,0,0,346,12.77a65.09,65.09,0,0,0-5.51-11.09C340,1,338.93,0,338.19.81c-6,6.73-2.72,18.89,4.95,23,.13.32.26.63.4.94.24.57,1.43,2.3,2.28,1.69A24.54,24.54,0,0,0,355.69,3.58Zm-15.77,2.6A55.52,55.52,0,0,1,344,15.42l-.32.07a6.58,6.58,0,0,1-1.09.06l-3-7.14a3.64,3.64,0,0,0-.44-.67A9.63,9.63,0,0,1,339.92,6.18Zm4.89,14.62-.25-.59a7,7,0,0,0,.8-.09l.09.36c-.18.16-.35.32-.54.47Z"/><path class="cls-1" d="M404.82,1.73A2.12,2.12,0,0,0,403,0a2.78,2.78,0,0,0-2.56,1.09,54.31,54.31,0,0,0-7.33,13.13A16.57,16.57,0,0,0,391,11.06a20.12,20.12,0,0,0-7.33-6.16,2.68,2.68,0,0,0-3.71,1.36,15.57,15.57,0,0,0-.65,9.49c.79,3.13,2.59,6.66,5.52,8.29a5.68,5.68,0,0,0,3.12.74,1.91,1.91,0,0,0,.52,1.59,2.48,2.48,0,0,0,2.89.39c.37-.22.72-.46,1.08-.7a2.75,2.75,0,0,0,2.7-2A27.76,27.76,0,0,0,404.82,1.73Zm-18.58,17.1a11.17,11.17,0,0,1-2.47-8.09,17.28,17.28,0,0,1,5.37,7.16,2.74,2.74,0,0,1-.12,1.3,2.49,2.49,0,0,1-.46.79c-.15.15-.48.25-.32.26C387.4,20.21,386.75,19.43,386.24,18.83Z"/><path class="cls-1" d="M451.3,2.47a17.22,17.22,0,0,0-8.64,7.6,25.05,25.05,0,0,0-2.34-3c0-.45,0-.9.05-1.35.07-.78-1-.55-1.69-.31a27.42,27.42,0,0,0-2.28-1.88c-.6-.43-2,.41-2.43.72a3.13,3.13,0,0,0-1.55,2,9.79,9.79,0,0,0,4.41,8.87,19.41,19.41,0,0,0,3.71,7c.29.35.81.29,1.27.15.15.34.32.68.5,1a.66.66,0,0,0,.66.28l.71.94c.4.52,1.38.13,1.82-.07a4.67,4.67,0,0,0,2.13-1.72,39.61,39.61,0,0,0,5.3-19.9C452.93,2,451.7,2.32,451.3,2.47Zm-3.72,5,.47-.54.12-.12.43-.38c0,.13,0,.26,0,.39a2.83,2.83,0,0,0-.6.76l-2.58,4.81-.1,0a12.18,12.18,0,0,1,.3-1.19A12,12,0,0,1,447.58,7.43Zm-1.41,11.13c-.07-.32-.16-.63-.24-.95L447.32,15A35.48,35.48,0,0,1,446.17,18.56Z"/><path class="cls-1" d="M606.42.85c-3.35.79-5.13,3.76-6.09,6.83-.21.65-.4,1.31-.6,2a15.16,15.16,0,0,0-4.59-5.18c-1.25-.88-3.71-.72-4.18,1.08a14.7,14.7,0,0,0,4.93,15.19,2.44,2.44,0,0,0,.65.36,2,2,0,0,0,1.56,1.81c-.08.12-.16.25-.25.37-1.76,2.64,2.65,4.31,4.18,2q3.16-4.76,6.18-9.6,1.45-2.34,2.86-4.71c1-1.62,2.07-3.29,2.23-5.22C613.61,2,609.71.08,606.42.85Zm1.91,5.2a6.15,6.15,0,0,1-.82,1.9c-1,1.69-2,3.38-3.06,5.05-.42.69-.86,1.36-1.29,2q.84-2.88,1.7-5.76a9.73,9.73,0,0,1,1.62-3.71c.14-.14.29-.27.44-.4l.11-.06.14-.11s.06,0,.18,0l.11,0h.34A.52.52,0,0,0,608,5l.14.06c-.12,0,.09,0,.16.19A1.19,1.19,0,0,1,608.33,6.05Z"/><path class="cls-1" d="M658.5,3.39a3.14,3.14,0,0,0-2.76.31,17.65,17.65,0,0,0-7.82,9.47,78,78,0,0,0-7.37-10c-1.26-1.45-4.81-.35-4.43,1.76a35,35,0,0,0,8.21,16.86,1.71,1.71,0,0,0,.2.18,1.75,1.75,0,0,0,.79,2.25,3,3,0,0,0,3.49-.59c.1-.09.18-.2.28-.3,1.5.11,3.26-.85,3-2.39,0-.28-.08-.55-.11-.83a43.25,43.25,0,0,0,7.77-14.84C660,4.44,659.18,3.65,658.5,3.39Z"/><path class="cls-1" d="M704.78,2.54a17,17,0,0,0-7.09,11.11A28.66,28.66,0,0,0,692.62,9c-1-.69-3.25-1.22-3.16.66a18.09,18.09,0,0,0,4.65,11.06,3.66,3.66,0,0,0,2,1.11c-.16.82.78,1.92,1.31,2.3.86.63,2.11,1,3,.2A28.29,28.29,0,0,0,708.69,5C708.73,3.49,706.1,1.65,704.78,2.54Zm-7.1,17.37,0,.06a3.81,3.81,0,0,0-.62-1,11.94,11.94,0,0,1-2.15-3.57A21.87,21.87,0,0,1,697.68,19.91Z"/><path class="cls-1" d="M766.68.87a25.75,25.75,0,0,0-9.9,9.69,16.68,16.68,0,0,0-8-7.72c-1.55-.7-3.29,1.08-3.56,2.44a18.24,18.24,0,0,0,4.61,16,2.33,2.33,0,0,0,3.08.07,3.53,3.53,0,0,0,.85-.87,22,22,0,0,0-.05,2.3,1.53,1.53,0,0,0,.67,1.32,1.56,1.56,0,0,0,.84,2.23,3.13,3.13,0,0,0,3.19-1.4A64.59,64.59,0,0,0,769.29,2.73C769.73,1.11,768.15.07,766.68.87Zm-3.44,7.06a61,61,0,0,1-4.61,9.73c0-.09,0-.18,0-.27A19.75,19.75,0,0,1,763.24,7.93ZM753.92,18.5A15.92,15.92,0,0,1,749.52,9,14.59,14.59,0,0,1,754,17.89c0,.21-.06.43-.1.64Z"/><path class="cls-1" d="M820.59,3.58C820.46,2.5,819-.33,817.65.91a22.34,22.34,0,0,0-6.79,11.86,66.6,66.6,0,0,0-5.51-11.09C805,1,803.84,0,803.1.81c-6,6.73-2.73,18.89,4.94,23l.4.94c.24.57,1.44,2.3,2.29,1.69A24.53,24.53,0,0,0,820.59,3.58Zm-15.76,2.6a55.52,55.52,0,0,1,4.07,9.24l-.33.07a6.52,6.52,0,0,1-1.09.06l-3-7.14a3.46,3.46,0,0,0-.43-.67A9.63,9.63,0,0,1,804.83,6.18Zm4.88,14.62-.25-.59a7.43,7.43,0,0,0,.81-.09l.09.36-.54.47Z"/><path class="cls-1" d="M881,1.73A2.12,2.12,0,0,0,879.1,0a2.78,2.78,0,0,0-2.56,1.09,54.65,54.65,0,0,0-7.33,13.13,16.57,16.57,0,0,0-2.11-3.18,20.12,20.12,0,0,0-7.33-6.16,2.68,2.68,0,0,0-3.71,1.36,15.57,15.57,0,0,0-.65,9.49c.79,3.13,2.6,6.66,5.52,8.29a5.68,5.68,0,0,0,3.12.74,1.91,1.91,0,0,0,.52,1.59,2.48,2.48,0,0,0,2.89.39c.37-.22.72-.46,1.08-.7a2.75,2.75,0,0,0,2.7-2A27.76,27.76,0,0,0,881,1.73Zm-18.58,17.1a11.22,11.22,0,0,1-2.47-8.09,17.28,17.28,0,0,1,5.37,7.16,2.74,2.74,0,0,1-.12,1.3,2.49,2.49,0,0,1-.46.79c-.15.15-.48.25-.31.26C863.54,20.21,862.89,19.43,862.38,18.83Z"/><path class="cls-1" d="M508.3.59c0-.48-1.84.1-1.94.13a6.91,6.91,0,0,0-2.48,1.39A33.55,33.55,0,0,0,498.82,8a1.76,1.76,0,0,0-1,1.53A34.23,34.23,0,0,0,495,15.31a26.6,26.6,0,0,0-5.83-8.07c-.84-.79-4.22.81-4.59,1.76a13.07,13.07,0,0,0,4.34,15c.37.28,1.44-.14,1.78-.26a8.29,8.29,0,0,0,1.57-.73,3,3,0,0,0,.11.32,26.47,26.47,0,0,1,.44,3.2c0,.3,1.33.08,2.55-.39a2.7,2.7,0,0,0,3.06-.22,16.76,16.76,0,0,0,5-7.79A29.34,29.34,0,0,0,508.3.59Z"/><path class="cls-1" d="M557.46,4.69c-.48-1.58-3.43-2.92-4.27-.91a99.46,99.46,0,0,0-3.48,9.91,40.59,40.59,0,0,0-6.89-10.92c-1.11-1.26-3.36-1-3.74.72a18.4,18.4,0,0,0-.4,4.18,4,4,0,0,0-1.92,3.64c0,2.2,1.83,4.74,4.08,5.11a20.57,20.57,0,0,0,7.4,8.27,2.24,2.24,0,0,0,2.72-.14,1.64,1.64,0,0,0,.19-.25,1.79,1.79,0,0,0,1.18-1.38c.06-.33.15-.65.22-1A16.55,16.55,0,0,0,557.46,4.69Z"/></g></g></svg>
