<svg xmlns="http://www.w3.org/2000/svg" viewBox="0 0 870.73 33.97"><defs><style>.cls-1{fill:#222221;}</style></defs><g id="Layer_2" data-name="Layer 2"><g id="Graphic_Elements" data-name="Graphic Elements"><path class="cls-1" d="M5.55,8.88c-.22-1-2.08-.73-2.73-.54S.49,9.16.72,10.17A22.78,22.78,0,0,1,0,22.5c-.35,1,1.52,1.1,2.08,1,1-.14,2.39-.57,2.75-1.62A24.28,24.28,0,0,0,5.55,8.88Z"/><path class="cls-1" d="M13.57,8.87c-.67-.38-2.17-.64-2.17.6V23.22a3.5,3.5,0,0,0,1.72,3c.68.38,2.18.64,2.18-.6V11.87A3.51,3.51,0,0,0,13.57,8.87Z"/><path class="cls-1" d="M28.18,7.23a12.08,12.08,0,0,0-1.46,1c-.18.14-.49.34-.51.58l-1.36,18a13.78,13.78,0,0,0,2.31-1,13.57,13.57,0,0,0,1.47-1c.17-.14.48-.34.5-.58q.69-9,1.36-18A13.45,13.45,0,0,0,28.18,7.23Z"/><path class="cls-1" d="M47.47,12.12A3.58,3.58,0,0,0,44.77,10a1.87,1.87,0,0,0-1.43.18A1,1,0,0,0,43,11.22a19.05,19.05,0,0,1,1,4.39,19.37,19.37,0,0,1-.21,4.75,1.87,1.87,0,0,0,.56,1.32,4,4,0,0,0,1.59,1.1c.81.28,2.21.47,2.41-.67A20.19,20.19,0,0,0,47.47,12.12Z"/><path class="cls-1" d="M60.22,8.79c-.06-.22-.56-.32-.7-.35a10.29,10.29,0,0,0-1.75-.28c-.18,0-2.61-.11-2.53.18A22.51,22.51,0,0,1,55.05,22c-.12.37,2.24.62,2.46.63a10.45,10.45,0,0,0,1.77,0c.18,0,.68,0,.75-.22A22.51,22.51,0,0,0,60.22,8.79Z"/><path class="cls-1" d="M75.15,6.2a4.7,4.7,0,0,0-1.81.69c-.33.23-.84.58-.88,1L71.11,20.58c-.11,1,1.42,1,2.11.91A4.71,4.71,0,0,0,75,20.8c.34-.23.84-.58.89-1L77.25,7.11C77.37,6.07,75.84,6.07,75.15,6.2Z"/><path class="cls-1" d="M82.17,5.05c-.18,0-2.51-.55-2.51-.26V21.72c0,.46,2,.83,2.35.92s2.51.54,2.51.25V6C84.52,5.51,82.51,5.13,82.17,5.05Z"/><path class="cls-1" d="M103,5.14c-.25-2.65-5.21-2.49-4.94.39A69.21,69.21,0,0,1,97.29,24c-.47,2.71,4.47,3.46,4.94.74A73.46,73.46,0,0,0,103,5.14Z"/><path class="cls-1" d="M116.37,9.1c0-.43-2.08-.83-2.37-.89s-2.47-.55-2.52-.18a41.62,41.62,0,0,0,.64,13.81c0,.21.54.36.66.41a11.44,11.44,0,0,0,1.71.48c.17,0,2.57.4,2.52.18A41.09,41.09,0,0,1,116.37,9.1Z"/><path class="cls-1" d="M127.3,9.29V22c0,.89,4.77.05,4.77-1.47V7.82C132.07,6.93,127.3,7.77,127.3,9.29Z"/><path class="cls-1" d="M150.13,6.11c-.07-1.18-1.78-1.55-2.7-1.4a3.67,3.67,0,0,0-1.17.39c-.42-.47-1-1-1-.67V6.17a1.33,1.33,0,0,0-.09.6c0,.63.07,1.27.09,1.9v3A56.19,56.19,0,0,1,144,22.13c-.24,1.12.65,1.73,1.73,1.86a14.23,14.23,0,0,0,.78,1.25c.11.16,1.43,1.73,1.43,1.19V23.59a1.82,1.82,0,0,0,1-1.18A58.7,58.7,0,0,0,150.13,6.11Z"/><path class="cls-1" d="M163.78,4a9.67,9.67,0,0,0-1.46-1c-.07,0-.75-.38-.75-.23v18c0,.68,1.23,1.48,1.71,1.86a10.47,10.47,0,0,0,1.46,1c.07,0,.75.37.75.23v-18C165.49,5.19,164.26,4.38,163.78,4Z"/><path class="cls-1" d="M175.6,7.29c-.46-.3-2.08-1.17-2.28-.1q-1,5.29-2,10.6c-.19,1,.93,2.18,1.71,2.69.46.3,2.08,1.17,2.28.1q1-5.29,2-10.6C177.5,8.94,176.38,7.8,175.6,7.29Z"/><path class="cls-1" d="M190.44,5.35a2.82,2.82,0,0,0-2.75,2.16l-1.29,8.43a1.94,1.94,0,0,0,2,2.16,2.82,2.82,0,0,0,2.75-2.16c.43-2.81.86-5.61,1.28-8.42A1.94,1.94,0,0,0,190.44,5.35Z"/><path class="cls-1" d="M208.17,4.63c-.13-1.15-1.57-1.89-2.61-2-.87-.08-2.39.18-2.25,1.39a41.74,41.74,0,0,1-.58,13.38c-.24,1.13.94,2,1.92,2.27.8.22,2.62.35,2.86-.81A44.3,44.3,0,0,0,208.17,4.63Z"/><path class="cls-1" d="M225.85,7.49a1.83,1.83,0,0,0-2.27,1.74V20.86A2.85,2.85,0,0,0,226,23.37a1.83,1.83,0,0,0,2.27-1.74V10A2.85,2.85,0,0,0,225.85,7.49Z"/><path class="cls-1" d="M236.37,5.94a8.11,8.11,0,0,0-1.66.63c-.21.1-.61.27-.61.55V19.81c0,.48,2.32-.11,2.55-.18a9,9,0,0,0,1.66-.62c.2-.11.6-.28.6-.56V5.76C238.91,5.28,236.59,5.88,236.37,5.94Z"/><path class="cls-1" d="M252.59,1a6,6,0,0,0-1.73.86c-.28.22-.81.63-.81,1V18.79c0,1,1.54.64,2.11.45a5.78,5.78,0,0,0,1.72-.86c.29-.22.81-.62.81-1V1.49C254.69.52,253.16.85,252.59,1Z"/><path class="cls-1" d="M266.5,6.1a1.55,1.55,0,0,0-2-1.58,3.51,3.51,0,0,0-2.41,1.69,4,4,0,0,0-.48-.32c-.09,0-.44-.26-.35,0a17.19,17.19,0,0,1,.54,1.82q-.62,5.36-1.22,10.71c-.14,1.16.95,1.77,2,1.58A3.47,3.47,0,0,0,265,18.26l.11.08c.06,0,.67.43.69.32a19.54,19.54,0,0,0,0-6.43C266,10.19,266.26,8.14,266.5,6.1Z"/><path class="cls-1" d="M276.45,4.92a8,8,0,0,0-1.49,1c-.21.17-.48.37-.48.67V19.23c0,.42,2.3-.6,2.46-.69a9,9,0,0,0,1.5-.95c.2-.18.47-.38.47-.67V4.23C278.91,3.81,276.62,4.83,276.45,4.92Z"/><path class="cls-1" d="M293.31,1.7C293-.54,288,.33,288.39,2.59A66.23,66.23,0,0,1,289,19.11c-.11,1.19,1.05,1.73,2.09,1.73s2.71-.53,2.82-1.71A70.14,70.14,0,0,0,293.31,1.7Z"/><path class="cls-1" d="M303.38,2.38c-1,.22-2.53,1.17-2.53,2.38V18.51a1.54,1.54,0,0,0,2,1.51c1-.22,2.54-1.17,2.54-2.38V3.89A1.55,1.55,0,0,0,303.38,2.38Z"/><path class="cls-1" d="M316.12,5.48a4.48,4.48,0,0,0-1.78-.23c-.24,0-.9.11-.9.46v8.46c0,.95,1.33,1.47,2.1,1.69a4.46,4.46,0,0,0,1.77.23c.25,0,.91-.11.91-.46V7.17C318.22,6.22,316.89,5.7,316.12,5.48Z"/><path class="cls-1" d="M333.87,5.08a5,5,0,0,0-.37-1.44V3.13A3.72,3.72,0,0,0,331.56.18c-1-.49-1.68.06-1.68,1.1v19a3.72,3.72,0,0,0,1.95,2.95c1,.5,1.67-.06,1.67-1.1V19.68c.16.28.33.56.5.81s1.24,1.51,1.15.44Z"/><path class="cls-1" d="M345.29,2c0-.51-2.3.62-2.48.72-.55.34-1.89,1-1.85,1.79l.85,14.82c0,.51,2.3-.62,2.47-.72.56-.33,1.9-1,1.86-1.79Q345.71,9.43,345.29,2Z"/><path class="cls-1" d="M365.23,6.27a5.14,5.14,0,0,0-1-1.49l-.39-.41,0-.36a2.59,2.59,0,0,0-2.62-2.15c-1.37.18-1.67,1.54-1.53,2.67l1.8,14.84a2.61,2.61,0,0,0,2.63,2.16c1.36-.18,1.66-1.54,1.52-2.67-.08-.72-.17-1.44-.26-2.16.37.19.71.25.78-.14A20.58,20.58,0,0,0,365.23,6.27Z"/><path class="cls-1" d="M373.68,6.1V18.79c0,2.24,4.87,3.24,4.87.68V6.78C378.55,4.54,373.68,3.54,373.68,6.1Z"/><path class="cls-1" d="M389.06,4.81a5,5,0,0,0-1.62-3c-.38-.35-1.66-1.16-1.58,0q.61,9,1.24,18a5,5,0,0,0,1.63,3c.38.35,1.65,1.16,1.57,0Q389.68,13.79,389.06,4.81Z"/><path class="cls-1" d="M402.9,8.5a4.7,4.7,0,0,0-2.2-2.64c-.47-.27-1.86-.78-1.58.34a21.94,21.94,0,0,1-.24,11.54c-.4,1.35,3.41,4.38,3.82,3A23.49,23.49,0,0,0,402.9,8.5Z"/><path class="cls-1" d="M416.56,18.63a16.85,16.85,0,0,1-1.2-5.87,16.45,16.45,0,0,1,.16-2.32,1,1,0,0,0-.48-.85,5.92,5.92,0,0,0-3.34-1.17c-.24,0-.85,0-.9.37a17.14,17.14,0,0,0,1.05,8.71,2.11,2.11,0,0,0,.91.89,6,6,0,0,0,1.78.73C414.85,19.19,416.92,19.52,416.56,18.63Z"/><path class="cls-1" d="M428.91,4.81a1.76,1.76,0,0,0-1.3-.46.79.79,0,0,0-.62.79q-.15,3.69-.29,7.39a3.85,3.85,0,0,0,1.7,3c.34.24.85.58,1.29.46a.8.8,0,0,0,.63-.79c.1-2.46.19-4.93.29-7.39A3.85,3.85,0,0,0,428.91,4.81Z"/><path class="cls-1" d="M449.08,6.32c-.21-1-1.46-1.76-2.36-2.1-.35-.13-2.35-.72-2.14.29a17.25,17.25,0,0,1-.65,9.28c-.32.88,1.07,1.77,1.7,2.09a4.35,4.35,0,0,0,1.7.58c.29,0,.87.06,1-.29A18.37,18.37,0,0,0,449.08,6.32Z"/><path class="cls-1" d="M458,3.06c-.12-.58-2.27.5-2.5.62-.48.27-2.05,1-1.89,1.76a42.39,42.39,0,0,1,.62,13.62c-.09.77,1.66,0,1.91-.13a10,10,0,0,0,1.67-1c.25-.19.78-.54.82-.89A43.32,43.32,0,0,0,458,3.06Z"/><path class="cls-1" d="M477.87,1.47c-.85-.25-2.72-.3-2.95.93a52,52,0,0,0-.68,15.35,2.74,2.74,0,0,0,2.51,2.19c.93.08,2.51-.3,2.37-1.56A49.17,49.17,0,0,1,479.65,4,2.32,2.32,0,0,0,477.87,1.47Z"/><path class="cls-1" d="M489.44,7.64c-.4-.06-2.62-.34-2.62.49V19.76c0,.89,1.65,1.24,2.3,1.34.4.06,2.62.35,2.62-.49V9C491.74,8.09,490.09,7.75,489.44,7.64Z"/><path class="cls-1" d="M505.37,9.79c-.2-.22-.58-.16-.84-.13a6.76,6.76,0,0,0-1.71.46,6.81,6.81,0,0,0-1.6.79c-.1.07-.69.47-.53.65a8.79,8.79,0,0,1,2.14,7c0,.07,0,.13,0,.2-.05.28.12.32.4.34a4.68,4.68,0,0,0,1.49-.27,9.28,9.28,0,0,0,1.78-.74l.45-.27a1.6,1.6,0,0,0,.5-.47A8.83,8.83,0,0,0,505.37,9.79Z"/><path class="cls-1" d="M521.8,6.39C521.63,5.3,520.24,5,519.31,5c-.63,0-2.67.29-2.51,1.35a68,68,0,0,1,.56,17c-.1,1.07,1.77,1.38,2.49,1.38s2.41-.26,2.51-1.35A68,68,0,0,0,521.8,6.39Z"/><path class="cls-1" d="M541.26,19.05q-1.37-6.41-2.71-12.79a2.64,2.64,0,0,0-2.79-1.93c-1.08.1-2.42.89-2.15,2.18q1.36,6.4,2.71,12.79a2.63,2.63,0,0,0,2.79,1.92C540.18,21.13,541.53,20.33,541.26,19.05Z"/><path class="cls-1" d="M550.12,8c-.06-.18-.73-.1-.77-.1a11.55,11.55,0,0,0-1.75.26c-.21,0-2.49.53-2.38.86a19.25,19.25,0,0,1,.76,9.58c0,.27,2.34-.12,2.52-.16a12.34,12.34,0,0,0,1.71-.47c.18-.07.63-.17.67-.39A19.24,19.24,0,0,0,550.12,8Z"/><path class="cls-1" d="M565.65,9.2c0-.19-.57-.36-.66-.4a12.27,12.27,0,0,0-1.69-.53,12.65,12.65,0,0,0-1.73-.36c-.08,0-.79-.09-.76,0,.44,2.46.87,4.91,1.31,7.36,0,.19.57.36.66.4a12.27,12.27,0,0,0,1.69.53,12.62,12.62,0,0,0,1.73.35c.08,0,.79.1.76,0C566.52,14.1,566.09,11.65,565.65,9.2Z"/><path class="cls-1" d="M576.89,4.63a64.41,64.41,0,0,0-1.12,17.19c0,.36.67.79.91.94a5.79,5.79,0,0,0,1.8.69c.62.12,2.12.32,2-.67a62.14,62.14,0,0,1,1.12-16.61C582,4.66,577.16,3.31,576.89,4.63Z"/><path class="cls-1" d="M592.34,8.42A11.35,11.35,0,0,0,591,7.24a13.51,13.51,0,0,0-1.44-1c-.05,0-.71-.38-.71-.27V19.68c0,.24.28.5.42.64a13.39,13.39,0,0,0,1.31,1.19,15.78,15.78,0,0,0,1.44,1c.06,0,.72.38.72.27V9.06C592.76,8.83,592.48,8.57,592.34,8.42Z"/><path class="cls-1" d="M604,10a3.49,3.49,0,0,0-2.62-2.26c-.83-.16-2.14.07-1.83,1.24a24.88,24.88,0,0,1,.56,10.23c-.16,1.11,1.15,2.16,2.06,2.51s2.28.54,2.45-.62A27.7,27.7,0,0,0,604,10Z"/><path class="cls-1" d="M617.61,23.21a48.5,48.5,0,0,1-1-14.81c.11-1.24-1.63-1.94-2.62-1.84a2.38,2.38,0,0,0-2.37,2.16,48.41,48.41,0,0,0,1,14.8,2.36,2.36,0,0,0,2.62,1.84C616.19,25.27,617.9,24.48,617.61,23.21Z"/><path class="cls-1" d="M628.74,9.61c-.08-.92-1.63-1.73-2.35-2.06-.33-.15-2.11-.9-2,0q.66,6.87,1.3,13.73c.09.92,1.63,1.73,2.36,2.06.32.14,2.1.89,2,0Q629.4,16.48,628.74,9.61Z"/><path class="cls-1" d="M643.89,19.78q-1.25-5.25-2.5-10.49c-.27-1.11-1.5-2.31-2.73-2A2.14,2.14,0,0,0,637.2,10q1.26,5.25,2.5,10.49c.27,1.11,1.5,2.31,2.73,2A2.14,2.14,0,0,0,643.89,19.78Z"/><path class="cls-1" d="M654.69,9.34c-.16-.35-.83-.56-1.13-.65a5.64,5.64,0,0,0-1.92-.15c-.57.07-2.2.32-1.78,1.23A12.72,12.72,0,0,1,650,20c-.38.9,1.1,1.24,1.72,1.31a5.44,5.44,0,0,0,1.93-.05c.35-.09,1-.22,1.16-.59A13.76,13.76,0,0,0,654.69,9.34Z"/><path class="cls-1" d="M669.73,10c-.21-1-2-.95-2.74-.75s-2.35.83-2.12,1.91a41.78,41.78,0,0,1,.63,13.43c-.13,1.09,1.26,1.32,2.09,1.24s2.64-.56,2.77-1.65A44.15,44.15,0,0,0,669.73,10Z"/><path class="cls-1" d="M683.17,9.92c-.17-.38-.92-.58-1.25-.63a4.15,4.15,0,0,0-1.92.13c-.84.28-2,.86-1.5,1.89a23.09,23.09,0,0,1,1.83,11.34c0,.4.59.74.86.84a3.7,3.7,0,0,0,1.81.15c1-.16,2.19-.57,2.28-1.69A24.3,24.3,0,0,0,683.17,9.92Z"/><path class="cls-1" d="M695.09,7.59c-.22-1.11-1.6-1-2.42-.69s-2.36,1.32-2.14,2.44a41.2,41.2,0,0,1,.55,12.34c-.28,2.55,4.28.95,4.48-.89A43.62,43.62,0,0,0,695.09,7.59Z"/><path class="cls-1" d="M707,9.86c-1.12.11-2.36.76-2.36,2v9.52c0,1.22,1.62,1.8,2.62,1.7s2.37-.77,2.37-2.05V11.56C709.65,10.34,708,9.75,707,9.86Z"/><path class="cls-1" d="M723.24,12.74c0-.21-.66-.28-.74-.3a9.5,9.5,0,0,0-1.77-.08c-.24,0-2.54.05-2.48.51q.63,5.26,1.28,10.55c0,.21.66.28.74.29a8.72,8.72,0,0,0,1.77.09c.24,0,2.54-.05,2.49-.51Z"/><path class="cls-1" d="M744.81,9.8a3.21,3.21,0,0,0-1.51-1.21,1.75,1.75,0,0,0-2.47,1.24,37.43,37.43,0,0,0-.89,13.25,3,3,0,0,0,2.52,2.47,2,2,0,0,0,.83-.09l.07.09c.1.11.34.38.41.09s.06-.35.09-.53a1.7,1.7,0,0,0,.49-1.49c0-.37-.06-.75-.09-1.13a23.36,23.36,0,0,0,0-4.58,36.08,36.08,0,0,1,1-6.44A2.44,2.44,0,0,0,744.81,9.8Z"/><path class="cls-1" d="M732.07,6.93c-.59-.46-1.66-.91-1.75.19q-.78,9-1.55,18c-.09,1.09.94,2.35,1.73,3,.59.46,1.66.91,1.75-.2q.78-9,1.55-18C733.9,8.82,732.86,7.55,732.07,6.93Z"/><path class="cls-1" d="M753.61,12c-1-.1-2.35.23-2.35,1.48V24.07c0,1.19,1.46,2.06,2.5,2.17s2.36-.23,2.36-1.48V14.19C756.12,13,754.65,12.13,753.61,12Z"/><path class="cls-1" d="M767.61,11.54a3.65,3.65,0,0,0-1.8.13c-.33.12-.85.36-.85.78V23c0,1,1.48,1.49,2.31,1.58a3.79,3.79,0,0,0,1.8-.13c.32-.13.85-.36.85-.78V13.12C769.92,12.08,768.44,11.63,767.61,11.54Z"/><path class="cls-1" d="M779,13.65A13,13,0,0,0,778,12a6.77,6.77,0,0,0-1-1.15c-.09-.08-.38-.34-.38-.05V22.47a2.93,2.93,0,0,0,.44,1.08,13.15,13.15,0,0,0,1,1.63,6.34,6.34,0,0,0,1,1.15c.09.07.38.33.38,0V14.74A3,3,0,0,0,779,13.65Z"/><path class="cls-1" d="M794,10.08c-.1-.63-5,.34-4.84,1.24a103.69,103.69,0,0,1,1.29,18c0,.49,2.33-.05,2.56-.11.44-.11,2.28-.47,2.29-1.13A104.77,104.77,0,0,0,794,10.08Z"/><path class="cls-1" d="M805.91,16.65c-.12-.36-.58-.68-.87-.88a6.63,6.63,0,0,0-1.74-.83c-.25-.09-2.25-.63-2,.17a18.85,18.85,0,0,1,.75,9.36c-.05.33.24.6.46.79a5.79,5.79,0,0,0,1.53.91,5.68,5.68,0,0,0,1.71.49c.2,0,.84.1.89-.2A19.81,19.81,0,0,0,805.91,16.65Z"/><path class="cls-1" d="M821.55,24.17l-1.73-8.54a2.76,2.76,0,0,0-2.91-2,2,2,0,0,0-1.74,2.52c.58,2.85,1.15,5.7,1.73,8.54a2.76,2.76,0,0,0,2.91,2A2,2,0,0,0,821.55,24.17Z"/><path class="cls-1" d="M831.36,11.29c-.14-.09-2.39-1.22-2.4-.86q-.3,10-.59,20.1c0,.72,1.35,1.44,1.86,1.75.15.09,2.4,1.23,2.41.87q.29-10,.58-20.11C833.24,12.32,831.88,11.61,831.36,11.29Z"/><path class="cls-1" d="M842.89,17.58a2,2,0,0,0-1.19-.46,6,6,0,0,0-1.93.05c-.4.08-2.23.51-1.65,1.26a10.71,10.71,0,0,1,1.8,9.32c-.08.3.65.55.78.59a5.08,5.08,0,0,0,1.78.14c.78-.08,2.18-.2,2.42-1.11A11.28,11.28,0,0,0,842.89,17.58Z"/><path class="cls-1" d="M856.85,17.89A2.78,2.78,0,0,0,854,16.26c-.93.08-2.36.66-2,1.87a27,27,0,0,1,.7,11.21c-.17,1.18,1.25,2,2.24,2.07s2.54-.15,2.71-1.37A30.19,30.19,0,0,0,856.85,17.89Z"/><path class="cls-1" d="M870.72,11.11c.08-1.07-.9-2.34-1.65-3-.5-.45-1.55-1-1.63,0l-1.62,22.25a4.44,4.44,0,0,0,1.65,3c.5.45,1.55,1.06,1.63,0l.11-1.51c.29.24.58.31.62-.26,0-.24,0-.47,0-.7.18.05.31,0,.31-.43V24.72c.07-2.33.08-4.66.06-7Z"/></g></g></svg>
