<svg xmlns="http://www.w3.org/2000/svg" viewBox="0 0 870.42 18.21"><defs><style>.cls-1{fill:#222221;}</style></defs><g id="Layer_2" data-name="Layer 2"><g id="Graphic_Elements" data-name="Graphic Elements"><path class="cls-1" d="M8,8.13v.46s0,0,0,.06Z"/><path class="cls-1" d="M7.32,5.22A5.18,5.18,0,0,0,6.26,3.83a6.56,6.56,0,0,0-3.1-2,1.53,1.53,0,0,0-1.39.23A6.35,6.35,0,0,0,0,6.12,8,8,0,0,0,.34,8.88c.41,1.38,1.32,2.91,2.84,3.19a3.66,3.66,0,0,0,2.07-.13A3.69,3.69,0,0,0,6.59,11c.12-.15.24-.3.35-.46a2.85,2.85,0,0,0,.71-.75A2.51,2.51,0,0,0,8,8.59a6.23,6.23,0,0,0-.16-1.67A5.25,5.25,0,0,0,7.32,5.22Z"/><path class="cls-1" d="M32.82,5.57a3.54,3.54,0,0,0-1-2.47,4.58,4.58,0,0,0-1.26-.89A5.51,5.51,0,0,0,29,1.75a6.35,6.35,0,0,0-2.9.29,5.84,5.84,0,0,0-1.34.62,5.18,5.18,0,0,0-1.12.92,4.81,4.81,0,0,0-1.29,3.09,5,5,0,0,0,.93,2.88,5.21,5.21,0,0,0,2,1.73,6.39,6.39,0,0,0,2,.64,3.59,3.59,0,0,0,3.1-.93,3.87,3.87,0,0,0,1.1-2.25A4.63,4.63,0,0,0,32.82,5.57Z"/><path class="cls-1" d="M68.34,7.41a3,3,0,0,0-.18-.71,3.43,3.43,0,0,0-.66-1,2,2,0,0,0,0-.6,1.23,1.23,0,0,0-.48-.6c-.3-.26-.62-.48-.94-.71a2,2,0,0,1,.25-.14c.13-.06-.57-.68-.48-.6A12.3,12.3,0,0,0,64.39,2a12.21,12.21,0,0,0-1.53-.89c-.19-.09-.52-.3-.74-.2a3.38,3.38,0,0,0-1.88,2.64,2.51,2.51,0,0,0-.46,1.13,3.53,3.53,0,0,0-.46.15.75.75,0,0,0-.46.41.67.67,0,0,0-.17.56l-.28,3.76a1.2,1.2,0,0,0,.25.63,1.88,1.88,0,0,0,.53.6,4,4,0,0,0,1.75.8,2.56,2.56,0,0,0,1.64-.12h0a3.64,3.64,0,0,0,.57,0,2.54,2.54,0,0,0,1.74-.88A2.73,2.73,0,0,0,65.46,9a2.8,2.8,0,0,0,1.88-.24A2.28,2.28,0,0,0,68.22,8a1.16,1.16,0,0,0,.14-.24A.81.81,0,0,0,68.34,7.41Z"/><path class="cls-1" d="M104.87,7.58A5.68,5.68,0,0,0,101.39,4a7.23,7.23,0,0,0-2.32-.49l-.43-.2A2.59,2.59,0,0,0,97,3.16c-.39.13-.83.4-.84.87,0,.09,0,.18,0,.27a3.67,3.67,0,0,0-.81.69,3.15,3.15,0,0,0-.74,1.56,1.88,1.88,0,0,0,.43,1.29,4.28,4.28,0,0,0,.12.54,4.82,4.82,0,0,0,1.49,2.22A6,6,0,0,0,101.41,12a4.64,4.64,0,0,0,2.8-1.46A3.08,3.08,0,0,0,104.87,7.58Z"/><path class="cls-1" d="M130.69,3.69l0,0h0l.05,0h0Z"/><path class="cls-1" d="M135.81,4.55a3.48,3.48,0,0,0-2.4-1.73A8,8,0,0,0,131,2.67a13.68,13.68,0,0,0-3.75.72,4.15,4.15,0,0,0-2.62,2.25,4.16,4.16,0,0,0,.22,3.48,5,5,0,0,0,3,2.51,4.26,4.26,0,0,0,1.51,0,9.34,9.34,0,0,0,1.9-.34c.32-.1.88-.2,1.09-.49s-.12-.32-.31-.39h0l-.11,0-.29-.13a4.71,4.71,0,0,1-.48-.29,5.32,5.32,0,0,1-.46-.37c.35,0,.69-.12,1-.19a5.92,5.92,0,0,0,3.75-2.08A2.74,2.74,0,0,0,135.81,4.55Z"/><path class="cls-1" d="M176.17,3.71A5.61,5.61,0,0,0,173,1a5.67,5.67,0,0,0-3-.24,4.82,4.82,0,0,0-2.64,1.34c-.16.18-.31.37-.46.56h-.05a1.19,1.19,0,0,0-.89.4,2.63,2.63,0,0,0-.4,2.47c.07.22.15.44.23.65a9.27,9.27,0,0,0,.46,2.75,2.89,2.89,0,0,0,1.27,1.34,2.78,2.78,0,0,0,1.79.43,5.73,5.73,0,0,0,1.17-.39,3.11,3.11,0,0,0,.85.16,1.91,1.91,0,0,0,1.52-.59,3,3,0,0,0,.25-.34.64.64,0,0,0,.09-.36,3.29,3.29,0,0,0,1.15-.32,3.88,3.88,0,0,0,1.89-2,4,4,0,0,0,.32-1.56A3.4,3.4,0,0,0,176.17,3.71Z"/><path class="cls-1" d="M205.06,3.78a5.61,5.61,0,0,0-1.71-1.58,4.82,4.82,0,0,0-1.68-.67,5,5,0,0,0-2.27,0,4.4,4.4,0,0,0-1.49.69,3.55,3.55,0,0,0-.76.79,3.19,3.19,0,0,0-.51,1.16A3.72,3.72,0,0,0,196,7.45a3.81,3.81,0,0,0,1.82,2.09,5.86,5.86,0,0,0,2.35.72,3.2,3.2,0,0,0,.62,0,5.94,5.94,0,0,0,1.19-.13,5.82,5.82,0,0,0,2.09-.94,4,4,0,0,0,1.67-3.36A4.21,4.21,0,0,0,205.06,3.78Z"/><path class="cls-1" d="M253.2,6.61a6.27,6.27,0,0,0-2-2.75l-.27-.18a3.42,3.42,0,0,0-.77-1.24,3.17,3.17,0,0,0-1.56-.95c-.43-.08-1-.12-1.34.26-.57.7-1.14,1.39-1.7,2.09l0,0a3.8,3.8,0,0,0-1.16,2.31A2.67,2.67,0,0,0,245,8a3.37,3.37,0,0,0,1.77,1.22l.48.1a8.23,8.23,0,0,0,1.08.74,6,6,0,0,0,2.65.77,4.13,4.13,0,0,0,1.11-.09,2.2,2.2,0,0,0,.43-.09,1.31,1.31,0,0,0,.66-.65,3,3,0,0,0,.15-.42,4.21,4.21,0,0,0,.17-1.45A5.63,5.63,0,0,0,253.2,6.61Z"/><path class="cls-1" d="M283.66,7.47a2.61,2.61,0,0,0-.17-.28c.11-.18.21-.36.31-.55a2.39,2.39,0,0,0-.35-2.39,2.92,2.92,0,0,0-2.21-1.41,3.87,3.87,0,0,0-1.34.24L279.78,3a1.94,1.94,0,0,0-1.53-.24,1.32,1.32,0,0,0-.88,1,16.3,16.3,0,0,0,.63,7,3.43,3.43,0,0,0,1.34,1.77,2,2,0,0,0,1.79.41,5,5,0,0,0,2.41-1.8A3.66,3.66,0,0,0,283.66,7.47Z"/><path class="cls-1" d="M325.24,5.34a1.59,1.59,0,0,0-.13-.22,5.06,5.06,0,0,0-.69-.84,4.75,4.75,0,0,0-1.83-1.12,5.51,5.51,0,0,0-3.52,0,5.35,5.35,0,0,0-1.53.86,1.66,1.66,0,0,0-.93.37A1.72,1.72,0,0,0,316,5.89a1.52,1.52,0,0,0,0,.21.59.59,0,0,1,0,.08,2.09,2.09,0,0,0-.11.43,4.1,4.1,0,0,0-.08,1,4.52,4.52,0,0,0,.2,1,5.3,5.3,0,0,0,.34.77,3,3,0,0,0,2.19,1.45,5.35,5.35,0,0,0,2.54-.25,4.81,4.81,0,0,0,.94-.46,3.91,3.91,0,0,0,3.55-3A2.43,2.43,0,0,0,325.24,5.34Z"/><path class="cls-1" d="M366,4.77a2.75,2.75,0,0,0-.84-.79s0-.06,0-.09a2,2,0,0,0-1.38-1.1,4.12,4.12,0,0,0-2.23-.07,5.11,5.11,0,0,0-.7.22,3.5,3.5,0,0,0-1.4-.12,2.46,2.46,0,0,0-1.54.62,3.93,3.93,0,0,0-.7,1.05,4.57,4.57,0,0,0-.3,1.21A4.51,4.51,0,0,0,357,6.91a3,3,0,0,0,.27.83,4.61,4.61,0,0,0,2.14,2.11,5.37,5.37,0,0,0,2,.51,5.56,5.56,0,0,0,2-.21,5.33,5.33,0,0,0,1.65-.87,4.11,4.11,0,0,0,.89-1,3,3,0,0,0,0-3.54Z"/><path class="cls-1" d="M397.17,6a5.55,5.55,0,0,0-.3-1A5.06,5.06,0,0,0,396,3.65a4.51,4.51,0,0,0-1.24-1.06,5.47,5.47,0,0,0-2.18-.8,3.3,3.3,0,0,0-1.56.12,1.74,1.74,0,0,0-1.05.78l-.16.37a5.63,5.63,0,0,0-1.08.63,5.16,5.16,0,0,0-.89.92,2.9,2.9,0,0,0-.44.71,3.4,3.4,0,0,0-.29,2.38A3.64,3.64,0,0,0,388,9.22a5.29,5.29,0,0,0,1.69,1.19,6.31,6.31,0,0,0,3.69.42A5,5,0,0,0,396,9.57,3.79,3.79,0,0,0,397.21,7,5.58,5.58,0,0,0,397.17,6Z"/><path class="cls-1" d="M428.9,5.33a6.62,6.62,0,0,0-1.51-1,1.66,1.66,0,0,0-.26-.66,3.12,3.12,0,0,0-3.3-1.26,5.08,5.08,0,0,0-3.58,6.11,4.82,4.82,0,0,0,1.22,2.06,5.18,5.18,0,0,0,2,1.26,6.25,6.25,0,0,0,2.39.31,6.41,6.41,0,0,0,2.18-.62,4.14,4.14,0,0,0,1.36-1.06,3.62,3.62,0,0,0-.53-5.19Z"/><path class="cls-1" d="M467.29,5.23a4.32,4.32,0,0,0-1.89-2.68,5.66,5.66,0,0,0-2.09-.83,5.32,5.32,0,0,0-2.28.15,5.12,5.12,0,0,0-2.13,1.22,4.89,4.89,0,0,0-1.18,1.67,4.36,4.36,0,0,0-.08,3.7,1.17,1.17,0,0,0,.2.42,3.53,3.53,0,0,0,.67,1.5,3.64,3.64,0,0,0,4,1,7.5,7.5,0,0,0,3.17-2,7,7,0,0,0,1.09-1.49,8.86,8.86,0,0,0,.46-1c0-.1.08-.2.11-.3A2.36,2.36,0,0,0,467.29,5.23Z"/><path class="cls-1" d="M502.41,3.76c-.08-.35-.17-.71-.28-1.06A3.86,3.86,0,0,0,500.22.26,3.05,3.05,0,0,0,499,0a3.41,3.41,0,0,0-1.25.27.83.83,0,0,0-.38,0A2.8,2.8,0,0,0,496,1.79a3.85,3.85,0,0,0-.46,1.93A4.57,4.57,0,0,0,496,5.46a.83.83,0,0,1,.07.13,7.75,7.75,0,0,0,.49,1.2,6.25,6.25,0,0,0,2,2.4,3.7,3.7,0,0,0,1.34.57,2.09,2.09,0,0,0,.35,0h.2a.77.77,0,0,0,.59-.29l.12-.14A5.71,5.71,0,0,0,502.36,7,7.38,7.38,0,0,0,502.41,3.76Z"/><path class="cls-1" d="M541.17,6.8a4.63,4.63,0,0,0-1.76-2,6.66,6.66,0,0,0-4.65-.49,11,11,0,0,0-2.18.59,4.29,4.29,0,0,0-.57.27,1.08,1.08,0,0,0-.45.5A4.77,4.77,0,0,0,531,7.33a3.1,3.1,0,0,0,1.12,2.84,2.64,2.64,0,0,0,.74.35l.06,0,.13,0h0a4.45,4.45,0,0,0,.8.13,8.6,8.6,0,0,0,2.26-.11h1.27a8.46,8.46,0,0,0,3-.6,1.14,1.14,0,0,0,.72-.6A3,3,0,0,0,541.17,6.8Z"/><path class="cls-1" d="M581.79,3.77A4.65,4.65,0,0,0,579.07,3a13.65,13.65,0,0,0-5.38,1.42c-1.92.91-3.75,2.39-4.14,4.58a3.84,3.84,0,0,0,0,1.31c.06.34.51.5.87.57a5.39,5.39,0,0,0,.56,1.8c.11.22.18.31.43.34s.51,0,.76,0a12.59,12.59,0,0,0,2.37-.29,13,13,0,0,0,4.41-1.53,4.5,4.5,0,0,0,1.7-1.79,3.43,3.43,0,0,0-.13-3.19,2.13,2.13,0,0,0,.13-.43l-.11-.07a3.24,3.24,0,0,0-.52-.19l0,0a2.9,2.9,0,0,0-.38-.33c.25-.09.51-.17.75-.27a5,5,0,0,0,1.33-.71C581.85,4.1,582,3.94,581.79,3.77Z"/><path class="cls-1" d="M615,6.18a6,6,0,0,0-2.1-.33,12.43,12.43,0,0,0-3.92.64,4.71,4.71,0,0,0-2.61,2,2.71,2.71,0,0,0-.16,2.59,3.55,3.55,0,0,0,2.07,1.65,6.23,6.23,0,0,0,1.92.26,10.38,10.38,0,0,0,3.78-.62,5.51,5.51,0,0,0,.65-.31c.45,0,.91-.11,1.35-.19a5.4,5.4,0,0,0,1.26-.38c.2-.1.44-.2.49-.44A4.4,4.4,0,0,0,615,6.18Z"/><path class="cls-1" d="M645.61,8.27h0l0,0S645.61,8.25,645.61,8.27Z"/><path class="cls-1" d="M649.28,10.17a10,10,0,0,0-3.36-2.92,6.23,6.23,0,0,0-2-.81,4.5,4.5,0,0,0-3.15.53,2.71,2.71,0,0,0-1.35,2.38,2.83,2.83,0,0,0,.49,1.46,5.57,5.57,0,0,0,.52.68c0,.13,0,.27,0,.4a1.47,1.47,0,0,0,.16.77,4.08,4.08,0,0,0,.81.9,10.35,10.35,0,0,0,1.29,1,8.32,8.32,0,0,0,2,1,3.78,3.78,0,0,0,1.89.1,4.47,4.47,0,0,0,2.87-2.05A3.22,3.22,0,0,0,649.28,10.17Z"/><path class="cls-1" d="M685.34,4.72a5.94,5.94,0,0,0-3.93-2.32,5.71,5.71,0,0,0-1.93.14,1.84,1.84,0,0,0-1.42,0,6.67,6.67,0,0,0-2.9,2.95,7.85,7.85,0,0,0-.79,4,7.13,7.13,0,0,0,.47,2.09,7,7,0,0,0,.57,1.21,3.88,3.88,0,0,0,1,1.15,5.56,5.56,0,0,0,.9.49,7.36,7.36,0,0,0,4.24.62,6.38,6.38,0,0,0,3.8-1.88,6,6,0,0,0,1.58-4.09A7.16,7.16,0,0,0,685.34,4.72Zm-5.71,5.85a1.75,1.75,0,0,0,.35-.8l0,.1a2.94,2.94,0,0,0,.39.6h0A4.78,4.78,0,0,1,679.63,10.57Z"/><path class="cls-1" d="M734.06,7.28a4.43,4.43,0,0,0-1.61-1.52,4.73,4.73,0,0,0-5.29.8,5,5,0,0,0-1.4,2,1,1,0,0,0,0,.14,4.26,4.26,0,0,0-.48,4.16,3.91,3.91,0,0,0,.53.75,2.47,2.47,0,0,0,1.32.75,5,5,0,0,0,1.73.16A6.71,6.71,0,0,0,732.68,13a6.4,6.4,0,0,0,1.42-1.81,3.46,3.46,0,0,0,.5-1.68A3.77,3.77,0,0,0,734.06,7.28Z"/><path class="cls-1" d="M774.84,12.26a4.22,4.22,0,0,0-1.73-2,5.1,5.1,0,0,0-.87-.45l-.37-.14a4.75,4.75,0,0,0-.64-.69,4.07,4.07,0,0,0-1.58-.89,1.18,1.18,0,0,0-1.13.19l-2.24,2.16a4.11,4.11,0,0,0-.3.29.88.88,0,0,0-.24.65,3.21,3.21,0,0,0,0,.69,5.29,5.29,0,0,0,.73,1.79A7.18,7.18,0,0,0,768,15.48a8,8,0,0,0,.88.65,2.86,2.86,0,0,0,.3.22l.53.3a2.36,2.36,0,0,0,.89.24,3.32,3.32,0,0,0,4.2-2A3.7,3.7,0,0,0,774.84,12.26Z"/><path class="cls-1" d="M809.33,10.84a3.15,3.15,0,0,0-1.73-1.69,6.64,6.64,0,0,0-1.38-.41,8.28,8.28,0,0,0-1.86-.36,5,5,0,0,0-3.12.62,3.18,3.18,0,0,0-1.09,1.36,3.77,3.77,0,0,0,.06,3.31,3.73,3.73,0,0,0,2.08,1.55,7.85,7.85,0,0,0,4.74.32,3.61,3.61,0,0,0,2.39-2.69A3.52,3.52,0,0,0,809.33,10.84Z"/><path class="cls-1" d="M840.61,13.06a2.73,2.73,0,0,0-.37-.64,1.6,1.6,0,0,0-.46-1.14,4.65,4.65,0,0,0-1.64-1.12,5,5,0,0,0-2-.37,5.65,5.65,0,0,0-1.91.43,5.53,5.53,0,0,0-1.17.69,3.9,3.9,0,0,0-.63.59,5.21,5.21,0,0,0-.8,1.08,4,4,0,0,0-.48,2.49,3.83,3.83,0,0,0,.73,1.63,2.08,2.08,0,0,0,.27.32,3.07,3.07,0,0,0,1.15.77,7.25,7.25,0,0,0,.87.27,5.94,5.94,0,0,0,3.87-.45,5.06,5.06,0,0,0,2.31-2.17,5.26,5.26,0,0,0,.36-.93l.06-.26A2,2,0,0,0,840.61,13.06Z"/><path class="cls-1" d="M869.35,10.19l-.05-.06a2.12,2.12,0,0,0-.4-.45A4.53,4.53,0,0,0,866,8.27a4.24,4.24,0,0,0-1.33.13,5.48,5.48,0,0,0-1.23.5,5.71,5.71,0,0,0-1.74,1.5,5.06,5.06,0,0,0-1,2.5,4.76,4.76,0,0,0,.92,3.24,4.87,4.87,0,0,0,2.8,2,4.38,4.38,0,0,0,2.63-.21,6,6,0,0,0,1.22-.66,7,7,0,0,0,1-.95,4.92,4.92,0,0,0,1.15-2.66A4.63,4.63,0,0,0,869.35,10.19Z"/></g></g></svg>