<svg xmlns="http://www.w3.org/2000/svg" viewBox="0 0 875.13 13.14"><defs><style>.cls-1{fill:#222221;}</style></defs><g id="Layer_2" data-name="Layer 2"><g id="Graphic_Elements" data-name="Graphic Elements"><path class="cls-1" d="M38.92,8.49c.1-1.3-1.23-1.72-2.24-1.73A213.23,213.23,0,0,0,3.67,9l-2.56.11c-.34,0-.33.32-.22.68A1.94,1.94,0,0,0,0,11.2c-.08,1.18,1.23,1.89,2.25,1.74l.71-.1a1.08,1.08,0,0,0,.7.3L37.8,11.79c.61,0,.14-1-.18-1.56A2.28,2.28,0,0,0,38.92,8.49Z"/><path class="cls-1" d="M102.68,5.07a2.92,2.92,0,0,0-2.78-2L66.76,4.8a1.37,1.37,0,0,0-1.23,1c-.75.13-1.67.5-1.42,1.38s1.25,1.09,2.11,1.2a2.77,2.77,0,0,0,2.1.89l26-1.37c1,0,2.11,0,3.17.09a3.8,3.8,0,0,0,2.13-.37l1.88-.1C102.65,7.44,103,6.06,102.68,5.07Z"/><path class="cls-1" d="M170.09.9l-13.62,1a213,213,0,0,0-22.42,1.56l-5.37.37c-2.1.15,0,4.62,1.89,4.49L172,5.38C174.08,5.24,172,.76,170.09.9Z"/><path class="cls-1" d="M236.49,5C237,3.9,236,3.43,235,3.31a194.93,194.93,0,0,0-39-1.05c-.95.07-2.46.85-2.55,2,0,0,0,.07,0,.11l-.42,0c-.56,0,.9,1.42,1,1.51l.58.55c0,.59.61.93,1.24,1a1.4,1.4,0,0,0,.69.21q19.66-1,39.35-.35c.37,0-.15-.62-.56-1.07A2.47,2.47,0,0,0,236.49,5Z"/><path class="cls-1" d="M299.64,1.4a171.27,171.27,0,0,0-46.71,1.83c-2,.35-.11,4.91,1.48,4.63A171.27,171.27,0,0,1,301.12,6C302.89,6.21,301.35,1.57,299.64,1.4Z"/><path class="cls-1" d="M370.05,4.67l-.23-.19a2.94,2.94,0,0,0-1.67-2.8c-6.34-2.22-13-1.68-19.58-1.3l-21,1.2c-.86,0-1.17.91-1.18,1.72-1.39.15-2.78.29-4.17.47-.77.1.93,1.53,1,1.61.72.53,1.85,1.33,2.8,1.21l3.15-.36L349.15,5.1,350.39,5q7.83,0,15.66.55c.54.14,1.09.3,1.63.49a1.49,1.49,0,0,0,1.66-.22l1,.08C371.37,6,370.33,4.92,370.05,4.67Z"/><path class="cls-1" d="M445.3,2.62a351.4,351.4,0,0,0-46.57-1.08,3.15,3.15,0,0,0-1,.22h-1c-.64,0-.27.3.13.53a2,2,0,0,0-.65,1.46A2.37,2.37,0,0,0,398.65,6a349.71,349.71,0,0,1,46.57,1.07A2.36,2.36,0,0,0,447.7,4.9,2.39,2.39,0,0,0,445.3,2.62Z"/><path class="cls-1" d="M524.89,1.94A417,417,0,0,0,475.65.81a1.61,1.61,0,0,0-1.63,2,3,3,0,0,0,3,1.74,409.31,409.31,0,0,1,48,1.07c1,.09,2.31-.24,2.33-1.5S525.91,2,524.89,1.94Z"/><path class="cls-1" d="M604.88.28q-25.7-.72-51.39.41a2.18,2.18,0,0,0-2,2.48A2.55,2.55,0,0,0,554.36,5q25-1.1,50.08-.4a2.37,2.37,0,0,0,2.65-1.9A2.35,2.35,0,0,0,604.88.28Z"/><path class="cls-1" d="M683.79,1.17l-4,.11h0c.71-.49.66-.95-.28-1q-3.36,0-6.74,0-9.51,0-19,0-5.64,0-11.28.1l-4.3,0a6.2,6.2,0,0,0-3.32,1c-.36.25-.53.49-.48.68-.66.19-1.15.74-.76,1.48a2.08,2.08,0,0,0,.24.34c0,.19.14.32.45.37a5.19,5.19,0,0,0,2.49.64l44.41,1.27c.91,0,1.85-.61,1.35-1.56a2.22,2.22,0,0,0-1.19-1c.85-.07,1.91-.34,2.16-1a.63.63,0,0,0,0-.32c.14-.08.29-.14.42-.23C684.75,1.66,684.75,1.15,683.79,1.17Z"/><path class="cls-1" d="M755.82,6c-.4-1-2-1.63-2.9-1.75A257.06,257.06,0,0,0,709,2.32l-2.24-.1c-1-.05-.44,1.08-.08,1.54a4.76,4.76,0,0,0,2.82,1.87l43.47,2c.56,0,.65-.28.55-.64l.89.11C755.15,7.19,756.24,7,755.82,6Z"/><path class="cls-1" d="M804.63,4a2.8,2.8,0,0,0-2.91-1.84l-31,1.44A1.86,1.86,0,0,0,769,5.91a2.81,2.81,0,0,0,2.91,1.84l31-1.44A1.87,1.87,0,0,0,804.63,4Z"/><path class="cls-1" d="M873,5.22,825.42,2.74a2.55,2.55,0,0,0-2.73,2,2.23,2.23,0,0,0,2.11,2.44l47.58,2.47a2.55,2.55,0,0,0,2.74-2A2.23,2.23,0,0,0,873,5.22Z"/></g></g></svg>