<?xml version="1.0" encoding="iso-8859-1"?>
<!-- Generator: Adobe Illustrator 19.0.0, SVG Export Plug-In . SVG Version: 6.00 Build 0)  -->
<svg version="1.1" id="Layer_1" xmlns="http://www.w3.org/2000/svg" xmlns:xlink="http://www.w3.org/1999/xlink" x="0px" y="0px"
	 viewBox="0 0 511.844 511.844" style="enable-background:new 0 0 511.844 511.844;" xml:space="preserve">
<path style="fill:#7F4545;" d="M255.927,0c-5.889,0-10.669,4.772-10.669,10.661v44.877h21.321V10.661
	C266.579,4.773,261.816,0,255.927,0z"/>
<path style="fill:#F4BE8E;" d="M255.927,511.844c110.146-32.1,191.465-144.205,191.465-277.587H64.454
	C64.454,367.639,145.773,479.744,255.927,511.844z"/>
<g style="opacity:0.2;">
	<path style="fill:#FFFFFF;" d="M426.054,234.257c0,129.038-74.414,236.381-170.127,277.587
		c110.146-32.1,191.465-144.205,191.465-277.587L426.054,234.257L426.054,234.257z"/>
</g>
<path style="fill:#965353;" d="M469.197,213.263c0,46.471-95.627,84.975-213.271,84.975c-117.651,0-213.278-38.504-213.278-84.975
	c0-72.579,95.627-170.611,213.278-170.611C373.57,42.651,469.197,140.684,469.197,213.263z"/>
<path style="fill:#7F4545;" d="M440.05,136.81l-63.48,63.496l-45.236-45.235l63.762-63.778c-5.654-4.342-11.59-8.481-17.775-12.387
	l-61.075,61.083l-45.244-45.244l43.87-43.861c-8.061-2.265-16.309-4.093-24.712-5.451l-34.231,34.231l-34.241-34.232
	c-8.404,1.358-16.651,3.187-24.712,5.459l43.862,43.854l-45.236,45.244l-61.075-61.083c-6.17,3.905-12.105,8.045-17.775,12.387
	l63.762,63.778l-45.236,45.235l-63.496-63.488c-4.405,6.021-8.373,12.137-11.856,18.3l60.278,60.271L76.56,259.033
	c5.92,3.662,12.543,7.13,19.775,10.387l38.941-38.949l45.236,45.244l-14.527,14.527c8.42,1.577,17.12,2.951,26.086,4.076l3.53-3.529
	l4.467,4.467c10.575,1.156,21.479,1.984,32.631,2.468l-22.024-22.009l45.252-45.244l45.229,45.244l-22.027,22.007
	c11.185-0.483,22.088-1.312,32.646-2.468l4.468-4.467l3.53,3.529c8.966-1.125,17.682-2.499,26.086-4.076l-14.527-14.527
	l45.236-45.244l38.957,38.949c7.217-3.257,13.84-6.725,19.744-10.387l-43.611-43.644l60.262-60.271
	C448.423,148.954,444.486,142.839,440.05,136.81z M195.602,260.632l-45.236-45.244l45.236-45.236l45.236,45.236L195.602,260.632z
	 M210.675,155.07l45.252-45.244l45.229,45.236l-45.229,45.243L210.675,155.07z M316.244,260.632L271,215.388l45.244-45.244
	l45.236,45.244L316.244,260.632z"/>
<g>
</g>
<g>
</g>
<g>
</g>
<g>
</g>
<g>
</g>
<g>
</g>
<g>
</g>
<g>
</g>
<g>
</g>
<g>
</g>
<g>
</g>
<g>
</g>
<g>
</g>
<g>
</g>
<g>
</g>
</svg>
