<?xml version="1.0" encoding="iso-8859-1"?>
<!-- Generator: Adobe Illustrator 19.0.0, SVG Export Plug-In . SVG Version: 6.00 Build 0)  -->
<svg version="1.1" id="Layer_1" xmlns="http://www.w3.org/2000/svg" xmlns:xlink="http://www.w3.org/1999/xlink" x="0px" y="0px"
	 viewBox="0 0 512 512" style="enable-background:new 0 0 512 512;" xml:space="preserve">
<polygon style="fill:#564531;" points="244.443,60.123 234.519,0 277.834,0 266.888,60.006 "/>
<path style="fill:#FFC477;" d="M114.705,230.432v77.47c0,29.953,6.258,58.493,17.462,84.504
	c11.591,27.007,28.528,51.371,49.638,71.721c21.124,20.329,46.353,36.691,74.365,47.873h0.012
	c28.013-11.181,53.218-27.545,74.365-47.873c21.088-20.351,38.049-44.714,49.616-71.721c11.239-26.012,17.485-54.551,17.485-84.504
	v-77.446L114.705,230.432z"/>
<path style="fill:#FFDAAA;" d="M211.454,452.826c-1.965,0-3.932-0.731-5.458-2.204c-22.1-21.306-39.396-46.298-51.408-74.283
	c-12.009-27.879-18.1-57.358-18.1-87.606c0-4.346,3.521-7.867,7.867-7.867s7.867,3.521,7.867,7.867
	c0,28.097,5.66,55.481,16.819,81.392c11.185,26.059,27.292,49.327,47.875,69.17c3.128,3.016,3.219,7.996,0.203,11.122
	C215.575,452.021,213.516,452.826,211.454,452.826z"/>
<path style="fill:#836948;" d="M99.409,230.464v-23.493c0-86.144,70.482-156.624,156.624-156.624l0,0
	c86.144,0,156.624,70.48,156.624,156.624v23.493H99.409z"/>
<g>
	<path style="opacity:0.26;fill:#564531;enable-background:new    ;" d="M347.154,79.774c18.499,25.712,29.427,57.191,29.427,91.101
		v59.556h-15.01v41.375c0,29.953-6.246,58.493-17.485,84.504c-11.567,27.007-28.528,51.371-49.616,71.721
		c-21.147,20.329-46.352,36.691-74.365,47.873h-0.012c-21.158-8.446-40.726-19.852-58.14-33.686
		c6.123,7.721,12.755,15.049,19.871,21.91c21.124,20.329,46.353,36.691,74.365,47.873h0.012
		c28.013-11.181,53.218-27.544,74.365-47.873c21.088-20.351,38.049-44.714,49.616-71.721c11.239-26.012,17.485-54.551,17.485-84.504
		v-77.438h15.01v-23.493C412.677,154.738,386.759,108.269,347.154,79.774z"/>
	<path style="fill:#564531;" d="M100.147,188.514l1.35-0.008c1.151-0.005,2.836-0.009,4.981-0.014
		c4.276-0.007,10.383-0.012,17.714-0.015c14.651-0.003,34.186-0.001,53.718,0.005c39.065,0.014,78.129,0.04,78.129,0.04
		c4.346,0.003,7.865,3.527,7.861,7.872c-0.003,4.343-3.524,7.861-7.867,7.861c-0.002,0-0.003,0-0.005,0
		c-52.058-0.035-151.003-0.082-155.877-0.008c-0.122,0.005-0.244,0.008-0.368,0.008c-0.153,0-0.306-0.004-0.459-0.014
		L100.147,188.514z"/>
</g>
<g>
</g>
<g>
</g>
<g>
</g>
<g>
</g>
<g>
</g>
<g>
</g>
<g>
</g>
<g>
</g>
<g>
</g>
<g>
</g>
<g>
</g>
<g>
</g>
<g>
</g>
<g>
</g>
<g>
</g>
</svg>
