<?xml version="1.0" encoding="iso-8859-1"?>
<!-- Generator: Adobe Illustrator 19.0.0, SVG Export Plug-In . SVG Version: 6.00 Build 0)  -->
<svg version="1.1" id="Layer_1" xmlns="http://www.w3.org/2000/svg" xmlns:xlink="http://www.w3.org/1999/xlink" x="0px" y="0px"
	 viewBox="0 0 512 512" style="enable-background:new 0 0 512 512;" xml:space="preserve">
<path style="fill:#FFA22B;" d="M68.957,239.985c0-103.3,83.741-126.73,187.041-126.73s187.041,23.43,187.041,126.73H68.957z"/>
<path style="fill:#FFCC85;" d="M426.597,239.985c0,187.061-170.598,261.816-170.598,261.816S85.401,427.046,85.401,239.985H426.597z
	"/>
<g>
	<path style="fill:#570029;" d="M265.781,103.126c-0.695-14.966,0.208-61.773,36.032-84.291c4.769-2.998,6.204-9.293,3.208-14.063
		c-2.998-4.769-9.295-6.204-14.063-3.208c-44.365,27.887-46.431,82.011-45.613,101.574c-83.15,1.282-186.586,19.193-186.586,136.847
		c0,5.633,4.566,10.199,10.199,10.199h6.431c1.326,40.442,10.539,78.763,27.475,114.04c14.66,30.535,35.074,58.824,60.675,84.078
		c43.491,42.902,86.556,62.047,88.368,62.84c1.304,0.572,2.699,0.858,4.094,0.858s2.788-0.286,4.094-0.858
		c1.811-0.794,44.876-19.938,88.368-62.84c25.601-25.254,46.015-53.542,60.675-84.078c16.936-35.277,26.149-73.598,27.475-114.04
		h6.431c5.633,0,10.199-4.566,10.199-10.199C453.239,121.92,349.078,104.297,265.781,103.126z M79.46,229.786
		c2.357-38.752,18.526-65.958,49.228-82.984c28.33-15.711,69.975-23.348,127.311-23.348s98.981,7.637,127.311,23.348
		c30.703,17.025,46.871,44.233,49.228,82.984H79.46z M334.66,433.261c-33.365,33.068-67.184,51.501-78.661,57.235
		c-11.487-5.739-45.303-24.171-78.662-57.235c-51.748-51.288-79.156-112.835-81.563-183.076h282.144
		c-1.201,32.497-9.092,62.326-24.061,90.91c-2.613,4.99-0.686,11.154,4.304,13.767c1.51,0.79,3.128,1.166,4.723,1.166
		c3.673,0,7.222-1.99,9.044-5.47c16.535-31.573,25.195-64.497,26.407-100.373h17.889
		C413.816,320.426,386.408,381.974,334.66,433.261z"/>
	<path style="fill:#570029;" d="M143.892,209.702c5.633,0,10.199-4.566,10.199-10.199v-1.296c0-5.633-4.566-10.199-10.199-10.199
		c-5.633,0-10.199,4.566-10.199,10.199v1.296C133.693,205.136,138.259,209.702,143.892,209.702z"/>
	<path style="fill:#570029;" d="M201.814,172.101c5.633,0,10.199-4.566,10.199-10.199v-1.296c0-5.633-4.566-10.199-10.199-10.199
		c-5.633,0-10.199,4.566-10.199,10.199v1.296C191.615,167.535,196.181,172.101,201.814,172.101z"/>
	<path style="fill:#570029;" d="M252.261,209.702c5.633,0,10.199-4.566,10.199-10.199v-1.296c0-5.633-4.566-10.199-10.199-10.199
		s-10.199,4.566-10.199,10.199v1.296C242.062,205.136,246.628,209.702,252.261,209.702z"/>
	<path style="fill:#570029;" d="M317.657,172.101c5.633,0,10.199-4.566,10.199-10.199v-1.296c0-5.633-4.566-10.199-10.199-10.199
		c-5.633,0-10.199,4.566-10.199,10.199v1.296C307.458,167.535,312.024,172.101,317.657,172.101z"/>
	<path style="fill:#570029;" d="M368.106,209.702c5.633,0,10.199-4.566,10.199-10.199v-1.296c0-5.633-4.566-10.199-10.199-10.199
		c-5.633,0-10.199,4.566-10.199,10.199v1.296C357.906,205.136,362.474,209.702,368.106,209.702z"/>
	<path style="fill:#570029;" d="M346.669,372.602c-4.441-3.465-10.85-2.675-14.316,1.763c-1.558,1.997-3.174,3.998-4.803,5.948
		c-3.611,4.323-3.032,10.755,1.291,14.366c1.908,1.594,4.227,2.371,6.532,2.371c2.919,0,5.817-1.247,7.834-3.663
		c1.772-2.121,3.529-4.298,5.226-6.47C351.899,382.477,351.109,376.068,346.669,372.602z"/>
</g>
<g>
</g>
<g>
</g>
<g>
</g>
<g>
</g>
<g>
</g>
<g>
</g>
<g>
</g>
<g>
</g>
<g>
</g>
<g>
</g>
<g>
</g>
<g>
</g>
<g>
</g>
<g>
</g>
<g>
</g>
</svg>
