<?xml version="1.0" encoding="iso-8859-1"?>
<!-- Generator: Adobe Illustrator 19.0.0, SVG Export Plug-In . SVG Version: 6.00 Build 0)  -->
<svg version="1.1" id="Layer_1" xmlns="http://www.w3.org/2000/svg" xmlns:xlink="http://www.w3.org/1999/xlink" x="0px" y="0px"
	 viewBox="0 0 512.001 512.001" style="enable-background:new 0 0 512.001 512.001;" xml:space="preserve">
<path style="fill:#FF9477;" d="M475.216,229.062c-25.403-69.043-91.917-118.175-169.79-118.175c-17.147,0-33.736,2.385-49.455,6.84
	c-15.719-4.455-32.308-6.84-49.455-6.84c-77.331,0-143.746,48.344-169.245,116.742c-11.702,31.391-11.692,68.919-11.692,68.927
	c0.435,119.056,103.425,215.445,230.417,215.445c127.262,0,230.427-96.796,230.427-216.2
	C486.422,295.168,486.422,259.52,475.216,229.062z"/>
<g>
	<path style="fill:#FF6243;" d="M398.331,187.414c-8.358-21.989-23.15-47.38-49.208-71.217c-13.998-3.465-28.633-5.31-43.695-5.31
		c-17.136,0-33.715,2.383-49.426,6.833v0.008c0,0,76.374,4.556,126.996,78.074c0,0,5.119,7.645,12.559,3.46
		C401.731,195.788,398.331,187.414,398.331,187.414z"/>
	<path style="fill:#FF6243;" d="M110.844,296.555c0-0.008-0.01-37.536,11.692-68.927c20.654-55.403,68.156-97.643,126.557-111.696
		c-13.647-3.289-27.892-5.045-42.549-5.045c-77.331,0-143.746,48.344-169.245,116.742c-11.702,31.391-11.692,68.919-11.692,68.927
		c0.435,119.056,103.425,215.445,230.417,215.445c14.563,0,28.806-1.281,42.62-3.706
		C192.003,489.581,111.229,401.958,110.844,296.555z"/>
	<path style="fill:#FF6243;" d="M396.142,434.824c-2.114,0-4.222-0.85-5.768-2.528c-2.934-3.185-2.729-8.144,0.456-11.076
		c6.66-6.134,12.881-12.77,18.492-19.723c2.719-3.37,7.651-3.896,11.023-1.178c3.37,2.718,3.896,7.654,1.178,11.023
		c-6.094,7.552-12.847,14.755-20.072,21.409C399.943,434.139,398.04,434.824,396.142,434.824z"/>
	<path style="fill:#FF6243;" d="M279.118,487.248c-3.953,0-7.35-2.981-7.784-6.999c-0.463-4.304,2.649-8.169,6.953-8.634
		c30.348-3.271,59.781-13.446,85.119-29.423c3.66-2.309,8.502-1.212,10.811,2.45c2.31,3.662,1.212,8.502-2.45,10.812
		c-27.347,17.245-59.091,28.223-91.801,31.749C279.682,487.232,279.398,487.248,279.118,487.248z"/>
</g>
<path style="fill:#6DC82A;" d="M245.072,2.244c-7.125-4.242-16.314-2.31-21.125,4.443c-17.267,24.226-23.291,47.893-17.905,70.343
	c8.165,34.036,40.092,51.028,41.447,51.736c3.947,2.058,8.432,2.318,12.43,0.98c2.681-0.898,5.143-2.515,7.077-4.789
	c17.611-20.719,24.721-42.168,21.135-63.75C282.055,24.645,246.579,3.142,245.072,2.244z"/>
<path style="fill:#5EAC24;" d="M288.129,61.206c-2.861-17.213-12.237-31.086-21.517-41.044c-10.866,5.992-20.42,13.755-28.15,22.984
	c-12.859,15.351-20.533,34.064-22.958,55.802c12.494,19.448,30.959,29.283,31.982,29.817c3.947,2.058,8.432,2.318,12.43,0.98
	c2.681-0.898,5.143-2.515,7.077-4.789C284.605,104.237,291.715,82.788,288.129,61.206z"/>
<path style="fill:#91DC5A;" d="M337.679,37.638c-2.205-0.292-22.158-2.642-43.203,4.401c-18.879,6.32-50.27,24.707-48.388,76.849
	c0.264,7.3,5.544,13.448,12.721,14.81c2.116,0.401,21.278,3.724,42.069-3.235c0.001,0,0.003-0.001,0.004-0.001
	c13.822-4.627,25.113-12.67,33.557-23.908c10.105-13.446,15.765-31.156,16.82-52.635C351.661,45.786,345.754,38.704,337.679,37.638z
	"/>
<path style="fill:#6DC82A;" d="M316.755,66.991c13.028-4.36,25.632-5.12,33.871-4.997c0.286-2.629,0.501-5.319,0.635-8.073
	c0.4-8.135-5.507-15.216-13.582-16.283c-2.205-0.292-22.158-2.643-43.203,4.401c-18.879,6.32-50.27,24.707-48.388,76.849
	c0.264,7.3,5.543,13.448,12.72,14.81c0.838,0.159,4.354,0.774,9.577,1.029C270.249,89.517,299.02,72.926,316.755,66.991z"/>
<g>
</g>
<g>
</g>
<g>
</g>
<g>
</g>
<g>
</g>
<g>
</g>
<g>
</g>
<g>
</g>
<g>
</g>
<g>
</g>
<g>
</g>
<g>
</g>
<g>
</g>
<g>
</g>
<g>
</g>
</svg>
