<?xml version="1.0" ?><svg width="64px" height="64px" viewBox="0 0 64 64" xmlns="http://www.w3.org/2000/svg"><defs><style>.cls-1{fill:#b9f6d3;}.cls-2{fill:#93d3a2;}.cls-3{fill:#eaafa5;}.cls-4{fill:#f1cbc6;}.cls-5{fill:#665e66;}.cls-6{fill:#544f57;}.cls-7{fill:#756e78;}.cls-8{fill:#f6e266;}.cls-9{fill:#f6f9f9;fill-opacity:0.99;}</style></defs><g data-name="Winter Avatar" id="Winter_Avatar-21"><path class="cls-1" d="M42.8,48a5.54,5.54,0,0,1,5.55,5.56v1A1.46,1.46,0,0,1,46.89,56H17.11a1.47,1.47,0,0,1-1.47-1.46v-1A5.55,5.55,0,0,1,21.2,48Z" id="path37815-0-0-2"/><path class="cls-2" d="M39.68,48a5.54,5.54,0,0,1,5.55,5.56v1A1.46,1.46,0,0,1,43.77,56h3.12a1.46,1.46,0,0,0,1.46-1.46v-1A5.54,5.54,0,0,0,42.8,48Z" id="path161541-8"/><path class="cls-1" d="M21.59,17.42A19.62,19.62,0,0,0,15.05,32.2c0,4.71,4.81,14.59,7.93,18.52H41C44.13,46.79,49,36.91,49,32.2a19.63,19.63,0,0,0-6.56-14.8Z" id="path31776-9-4"/><path class="cls-3" d="M25.79,44.82c1,2.79,3.15,4.86,6.21,4.86s5.23-2.07,6.2-4.86l-2-3.67Z" id="path34031-3-7"/><path class="cls-4" d="M32,16.21A11.94,11.94,0,0,1,44,27.15l.47,5.78a12.51,12.51,0,1,1-24.93,0L20,27.15A11.94,11.94,0,0,1,32,16.21Z" id="path22985-3-8-4-2"/><path class="cls-3" d="M39.66,24.5a12.09,12.09,0,0,1,.53,2.65l.3,3.59.17,2.19A12.51,12.51,0,0,1,30.1,46.32a13.17,13.17,0,0,0,1.9.14A12.51,12.51,0,0,0,44.46,32.93l-.18-2.19Z" id="path101009-9-3-9-4-4"/><path class="cls-5" d="M39.11,18.5A11.87,11.87,0,0,1,44,27.15l.29,3.59c-6,1.77-11.2-4.46-11.2-4.46l-.63-3.94Z" id="path66719-4-0"/><path class="cls-6" d="M32,16.21a11.88,11.88,0,0,0-1.9.15A11.93,11.93,0,0,1,40.19,27.15l.3,3.59v.16a7.88,7.88,0,0,0,3.78-.16L44,27.15A12,12,0,0,0,32,16.21Z" id="path101011-3-6-2-4-6"/><path class="cls-7" d="M32,16.21A11.94,11.94,0,0,0,20,27.15l-.38,4.55h0A23.39,23.39,0,0,0,39.11,18.5,12.09,12.09,0,0,0,32,16.21Z" id="path22989-5-31-7-2"/><path class="cls-5" d="M32,16.21a11.88,11.88,0,0,0-1.9.15,11.95,11.95,0,0,1,7.69,4.56,17.53,17.53,0,0,0,1.32-2.42A12.09,12.09,0,0,0,32,16.21Z" id="path186167-9-0-6-9"/><path class="cls-1" d="M18.2,28.57s5.68-6.81,13.8-6.81,13.8,6.81,13.8,6.81a11.25,11.25,0,0,0-1.57-5.22c-2.19-3.43-6.84-7.41-12.39-7.41a13.67,13.67,0,0,0-10.53,5.54A17.66,17.66,0,0,0,18.2,28.57Z" id="path31119-4-9"/><path class="cls-8" d="M32,13.4a15.75,15.75,0,0,0-10.41,4l.45.66a11.23,11.23,0,0,0,4.6,4.66,15.15,15.15,0,0,1,10.72,0A11.17,11.17,0,0,0,42,18.08l.43-.68A15.75,15.75,0,0,0,32,13.4Z" id="path31969-8"/><path class="cls-9" d="M42.06,8a5,5,0,1,0,5,5A5,5,0,0,0,42.06,8Z" id="path23838-0"/><path class="cls-9" d="M21.94,8a5,5,0,1,0,5,5A5,5,0,0,0,21.94,8Z" id="path23637-4"/><path d="M28.91,36.32V35.1a1,1,0,0,0-2,0v1.22a1,1,0,0,0,2,0Z"/><path d="M36.09,34.1a1,1,0,0,0-1,1v1.22a1,1,0,0,0,2,0V35.1A1,1,0,0,0,36.09,34.1Z"/><path d="M35,39.54a5.69,5.69,0,0,1-3,.79,5.6,5.6,0,0,1-3-.8,1,1,0,0,0-1.39.25,1,1,0,0,0,.24,1.39,7.93,7.93,0,0,0,8.26,0A1,1,0,0,0,35,39.54Z"/><path d="M44.79,18.39A6,6,0,1,0,36,12.93a15.84,15.84,0,0,0-8.06,0,6,6,0,1,0-8.76,5.47A22.85,22.85,0,0,0,14.05,32.2c0,3.77,2.75,10.31,5.48,15.07a6.53,6.53,0,0,0-4.88,6.31v1A2.46,2.46,0,0,0,17.11,57H46.89a2.46,2.46,0,0,0,2.46-2.46v-1a6.53,6.53,0,0,0-4.87-6.31C47.2,42.51,50,36,50,32.2A22.85,22.85,0,0,0,44.79,18.39ZM42.06,9a4,4,0,1,1-4,4A4.05,4.05,0,0,1,42.06,9Zm-5.64,6.13a6,6,0,0,0,3.92,3.67,10.19,10.19,0,0,1-3.11,2.84,16,16,0,0,0-10.46,0,10.19,10.19,0,0,1-3.11-2.84,6,6,0,0,0,3.93-3.67A13.9,13.9,0,0,1,36.42,15.13Zm7,17.88a11.51,11.51,0,1,1-22.94,0l0-.43a25.17,25.17,0,0,0,12.35-5c1.36,1.39,4.87,4.48,9.15,4.48a8.35,8.35,0,0,0,1.31-.1ZM35.9,46.87a5.11,5.11,0,0,1-7.8,0,13.18,13.18,0,0,0,7.8,0ZM32,22.76a13.91,13.91,0,0,1,2.85.3,23.06,23.06,0,0,1-14.11,7.48l.27-3.3C23.25,25.34,27.19,22.76,32,22.76Zm11,4.48L43.22,30c-3.88.65-7.36-2.28-8.74-3.65a21.25,21.25,0,0,0,2.46-2.63A20.25,20.25,0,0,1,43,27.24ZM17.91,13a4,4,0,1,1,4,4A4,4,0,0,1,17.91,13ZM47.35,53.58v1a.46.46,0,0,1-.46.46H17.11a.46.46,0,0,1-.46-.46v-1a4.55,4.55,0,0,1,4-4.5c.55.86,1.09,1.64,1.58,2.26a1,1,0,0,0,1.41.16,1,1,0,0,0,.16-1.41c-2.92-3.67-7.72-13.4-7.72-17.89A20.5,20.5,0,0,1,21.36,19h.09a12.28,12.28,0,0,0,3.08,3.53,23.08,23.08,0,0,0-7.1,5.38,1,1,0,0,0,.13,1.41,1,1,0,0,0,.64.23,1,1,0,0,0,.63-.26l-.29,3.53A13.4,13.4,0,0,0,25,45.48c1.26,3.25,3.85,5.2,7,5.2s5.75-2,7-5.2a13.4,13.4,0,0,0,6.45-12.64l-.29-3.52a1,1,0,0,0,1.4-1.39,23.08,23.08,0,0,0-7.1-5.38A12.13,12.13,0,0,0,42.55,19h.1A20.49,20.49,0,0,1,48,32.2c0,4.52-4.84,14.26-7.72,17.89a1,1,0,0,0,.17,1.41,1,1,0,0,0,.62.22,1,1,0,0,0,.78-.38c.49-.62,1-1.4,1.58-2.26A4.55,4.55,0,0,1,47.35,53.58Z"/><path d="M23.2,13.58l-.1-.86a1,1,0,0,0-2,.25l.11.86a1,1,0,1,0,2-.25Z"/><path d="M41.67,14.7a1,1,0,0,0,1.11-.87l.11-.86A1,1,0,0,0,42,11.85a1,1,0,0,0-1.11.87l-.11.86A1,1,0,0,0,41.67,14.7Z"/></g></svg>