<?xml version="1.0" ?><svg width="64px" height="64px" viewBox="0 0 64 64" xmlns="http://www.w3.org/2000/svg"><defs><style>.cls-1{fill:#e7ecf1;}.cls-2{fill:#dae4ea;}.cls-3{fill:#f6f9f9;}.cls-4{fill:#e7aa90;}.cls-5{fill:#665e66;}.cls-6{fill:#756e78;}.cls-7{fill:#544f57;}</style></defs><g data-name="Winter Avatar" id="Winter_Avatar-11"><path class="cls-1" d="M26.32,38.91a18,18,0,0,0-12.1,14.17A2.6,2.6,0,0,0,16.92,56H47.08a2.6,2.6,0,0,0,2.7-2.92,18,18,0,0,0-12.1-14.17Z" id="path13088-1-9"/><path class="cls-2" d="M34.1,38.91A18,18,0,0,1,46.2,53.08,2.59,2.59,0,0,1,43.51,56h3.58a2.6,2.6,0,0,0,2.69-2.92,18,18,0,0,0-12.1-14.17Z" id="path175371-1"/><path class="cls-3" d="M32,16.55A11.92,11.92,0,1,0,43.92,28.47,11.92,11.92,0,0,0,32,16.55Z" id="circle13086-4-2"/><path class="cls-4" d="M33.82,28c0,1.11-.9,3.1-2,3.1s-2-2-2-3.1a2,2,0,0,1,4,0Z" id="path13094-9-70"/><path class="cls-1" d="M32,16.55c-.34,0-.68,0-1,.05a11.92,11.92,0,0,1,0,23.75c.34,0,.68,0,1,0a11.92,11.92,0,0,0,0-23.84Z" id="path175373-9"/><path class="cls-4" d="M41.76,21.68l1.64-1.61,3.52.94a1.32,1.32,0,0,0,.68-2.56l-2-.54,1.76-1.73,3.12-.35a1.34,1.34,0,0,0,1-.62L53,12.85a1.4,1.4,0,0,0,.16-1.16L52.31,9a1.39,1.39,0,0,0-1.37-1l-.36.06a1.38,1.38,0,0,0-.9,1.73l.66,2.11-.82,1.26-2.07.23L46,11l.19-.83a1.38,1.38,0,1,0-2.68-.62l-.32,1.37a1.4,1.4,0,0,0,.16,1L45,14.64l-5,5Z" id="path163593-9-7"/><path class="cls-4" d="M22.24,21.68,20.6,20.07,17.08,21a1.32,1.32,0,1,1-.68-2.56l2-.54-1.76-1.73-3.12-.35a1.34,1.34,0,0,1-1-.62L11,12.85a1.4,1.4,0,0,1-.16-1.16L11.69,9a1.39,1.39,0,0,1,1.37-1,2.25,2.25,0,0,1,.36.06,1.38,1.38,0,0,1,.9,1.73l-.66,2.11.82,1.26,2.07.23L18,11l-.19-.83a1.38,1.38,0,0,1,2.68-.62l.32,1.37a1.4,1.4,0,0,1-.16,1L19,14.64l5.05,5Z" id="path171675-2-3"/><path class="cls-4" d="M33.82,28c0,1.11-.9,3.1-2,3.1s-2-2-2-3.1a2,2,0,0,1,4,0Z" id="path14395-0-6"/><path class="cls-5" d="M36.5,14.44l.39-5.21A1.1,1.1,0,0,0,35.81,8H28.19a1.11,1.11,0,0,0-1.08,1.23l.39,5.21,4.61,1.72Z" id="rect13409-8-8-1"/><path class="cls-6" d="M26.71,14.44H37.3a1.7,1.7,0,0,1,0,3.4H26.71a1.7,1.7,0,0,1,0-3.4Z" id="rect13142-1-2-3"/><path class="cls-5" d="M34.92,14.44a1.7,1.7,0,0,1,0,3.4H37.3a1.7,1.7,0,0,0,0-3.4Z" id="path24169"/><path class="cls-7" d="M36.5,14.44l.39-5.21A1.1,1.1,0,0,0,35.81,8H33.12A1.09,1.09,0,0,1,34.2,9.23l-.39,5.21Z" id="path24174"/><path d="M53.26,8.67A2.38,2.38,0,0,0,50.89,7a2.52,2.52,0,0,0-.61.11,2.38,2.38,0,0,0-1.56,3l.52,1.66-.3.47-1,.11-.89-1.5.1-.43a2.42,2.42,0,0,0-.3-1.8A2.39,2.39,0,0,0,45.4,7.54a2.42,2.42,0,0,0-1.8.3,2.39,2.39,0,0,0-1.06,1.48l-.31,1.37a2.34,2.34,0,0,0,.27,1.77l1.22,2-3.87,3.81c-.17-.13-.33-.28-.51-.4A2.65,2.65,0,0,0,40,16.14a2.69,2.69,0,0,0-2.43-2.67l.31-4.12a2.13,2.13,0,0,0-.5-1.64A2.1,2.1,0,0,0,35.81,7H28.19a2,2,0,0,0-1.51.66,2.16,2.16,0,0,0-.56,1.64l.31,4.17a2.68,2.68,0,0,0-1.77,4.42c-.18.12-.34.27-.51.4l-3.87-3.81,1.22-2a2.34,2.34,0,0,0,.27-1.77l-.31-1.37A2.39,2.39,0,0,0,20.4,7.84a2.42,2.42,0,0,0-1.8-.3A2.39,2.39,0,0,0,17.12,8.6a2.42,2.42,0,0,0-.3,1.8l.1.43L16,12.33l-1-.11-.3-.47.52-1.67a2.37,2.37,0,0,0-1.56-3A2.52,2.52,0,0,0,13.11,7a2.31,2.31,0,0,0-2.37,1.67l-.85,2.72a2.39,2.39,0,0,0,.27,2l1.52,2.36a2.39,2.39,0,0,0,1.74,1.08l2.78.3.26.27-.32.08a2.34,2.34,0,0,0-1.65,2.85,2.39,2.39,0,0,0,1.09,1.42,2.35,2.35,0,0,0,1.76.23l3-.8.65.64a13,13,0,0,0-1.88,6.71,12.92,12.92,0,0,0,5.08,10.18A18.92,18.92,0,0,0,13.24,52.92,3.35,3.35,0,0,0,14,55.68,3.79,3.79,0,0,0,16.92,57H47.08A3.79,3.79,0,0,0,50,55.68a3.35,3.35,0,0,0,.77-2.76A18.92,18.92,0,0,0,39.84,38.71a12.9,12.9,0,0,0,5.08-10.17v-.07a12.88,12.88,0,0,0-1.87-6.65l.64-.64,3,.8a2.36,2.36,0,0,0,1.76-.23,2.39,2.39,0,0,0,1.09-1.42,2.34,2.34,0,0,0-1.65-2.85l-.32-.08.26-.27,2.78-.3a2.39,2.39,0,0,0,1.74-1.08l1.52-2.36a2.39,2.39,0,0,0,.27-2ZM28.19,9l7.68,0,0,.12-.32,4.29H28.43l-.32-4.29A.14.14,0,0,1,28.19,9Zm-1.48,6.44H37.3a.7.7,0,1,1,0,1.4H26.71a.7.7,0,1,1,0-1.4ZM21.3,19.36a1,1,0,0,0-1-.26l-3.51.95a.3.3,0,0,1-.25,0,.28.28,0,0,1-.15-.19.31.31,0,0,1,.23-.4l2-.54a1,1,0,0,0,.71-.71,1,1,0,0,0-.27-1l-1.76-1.74a1.09,1.09,0,0,0-.59-.28l-3.12-.34a.41.41,0,0,1-.28-.17l-1.52-2.36a.36.36,0,0,1,0-.32l.85-2.72A.4.4,0,0,1,13,9l.1,0a.38.38,0,0,1,.25.47l-.66,2.11a1,1,0,0,0,.11.84l.82,1.27a1,1,0,0,0,.73.45l2.07.23a1,1,0,0,0,1-.48l1.44-2.4a1,1,0,0,0,.11-.74L18.77,10a.39.39,0,0,1,.05-.29.36.36,0,0,1,.23-.17.39.39,0,0,1,.29,0,.36.36,0,0,1,.17.24l.32,1.36a.42.42,0,0,1,0,.29l-1.62,2.69a1,1,0,0,0,.16,1.23l4.34,4.28c-.17.18-.36.35-.52.55ZM48.79,53.25a1.35,1.35,0,0,1-.32,1.13,1.83,1.83,0,0,1-1.39.62H16.92a1.86,1.86,0,0,1-1.39-.61,1.39,1.39,0,0,1-.32-1.14A16.94,16.94,0,0,1,26.24,40a12.79,12.79,0,0,0,11.52,0A16.94,16.94,0,0,1,48.79,53.25ZM42.92,28.52a10.92,10.92,0,0,1-21.84.06v-.1A10.88,10.88,0,0,1,27,18.84H37a10.89,10.89,0,0,1,5.89,9.6Zm9.24-16.21-1.52,2.35a.39.39,0,0,1-.28.18l-3.12.34a1.09,1.09,0,0,0-.59.28L44.89,17.2a1,1,0,0,0-.27,1,1,1,0,0,0,.71.71l2,.54a.31.31,0,0,1,.23.4.28.28,0,0,1-.15.19.3.3,0,0,1-.25,0l-3.51-.95a1,1,0,0,0-1,.26l-.83.81c-.17-.19-.35-.36-.53-.54l4.34-4.28a1,1,0,0,0,.16-1.23l-1.62-2.7a.39.39,0,0,1,0-.28l.32-1.37a.36.36,0,0,1,.17-.23.39.39,0,0,1,.29,0,.36.36,0,0,1,.23.17.39.39,0,0,1,0,.29l-.19.82a1,1,0,0,0,.11.74l1.44,2.4a1,1,0,0,0,1,.48l2.07-.23a1,1,0,0,0,.73-.45l.82-1.27a1,1,0,0,0,.11-.84l-.66-2.11A.38.38,0,0,1,50.88,9L51,9a.41.41,0,0,1,.37.26L52.2,12A.36.36,0,0,1,52.16,12.31Z"/><path d="M32,49.33a1.32,1.32,0,1,0,1.31,1.31A1.3,1.3,0,0,0,32,49.33Z"/><path d="M35.51,32.32a7,7,0,0,1-7,0,1,1,0,0,0-1.39.25A1,1,0,0,0,27.34,34a9,9,0,0,0,9.32,0,1,1,0,0,0-1.15-1.64Z"/><path d="M31.81,32.13c1.86,0,3-2.65,3-4.1a3,3,0,0,0-6,0C28.8,29.48,29.94,32.13,31.81,32.13Zm0-5.1a1,1,0,0,1,1,1,3,3,0,0,1-1,2.1,2.93,2.93,0,0,1-1-2.1A1,1,0,0,1,31.81,27Z"/><path d="M30.69,44.66A1.31,1.31,0,1,0,32,43.35,1.31,1.31,0,0,0,30.69,44.66Z"/><path d="M27.68,26.08a1,1,0,0,0,1-1v-1a1,1,0,1,0-2,0v1A1,1,0,0,0,27.68,26.08Z"/><path d="M36.32,23.09a1,1,0,0,0-1,1v1a1,1,0,0,0,2,0v-1A1,1,0,0,0,36.32,23.09Z"/></g></svg>