<?xml version="1.0" ?><svg width="64px" height="64px" viewBox="0 0 64 64" xmlns="http://www.w3.org/2000/svg"><defs><style>.cls-1{fill:#e7ecf1;}.cls-2{fill:#dae4ea;}.cls-3{fill:#f6f9f9;}.cls-4{fill:#e7aa90;}.cls-5{fill:#cb5769;}.cls-6{fill:#d57080;}</style></defs><g data-name="Winter Avatar" id="Winter_Avatar-25"><path class="cls-1" d="M26.64,39.88a17,17,0,0,0-11.4,13.37A2.44,2.44,0,0,0,17.78,56H46.22a2.44,2.44,0,0,0,2.54-2.75,17,17,0,0,0-11.4-13.37Z" id="path13088-1-8-4"/><path class="cls-2" d="M34,39.88A17,17,0,0,1,45.39,53.25,2.45,2.45,0,0,1,42.85,56h3.37a2.44,2.44,0,0,0,2.54-2.75,17,17,0,0,0-11.4-13.37Z" id="path175371-8-3"/><path class="cls-3" d="M32,18.81A11.24,11.24,0,1,0,43.24,30,11.23,11.23,0,0,0,32,18.81Z" id="circle13086-4-9-0"/><path class="cls-4" d="M33.71,29.63c0,1.05-.85,2.92-1.89,2.92s-1.89-1.87-1.89-2.92a1.89,1.89,0,0,1,3.78,0Z" id="path13094-9-7-3"/><path class="cls-1" d="M32,18.81c-.32,0-.64,0-1,0a11.23,11.23,0,0,1,0,22.39c.32,0,.64,0,1,0a11.24,11.24,0,1,0,0-22.47Z" id="path175373-7-0"/><path class="cls-5" d="M33.75,43.71l4.79,2.16a1.14,1.14,0,0,0,1.61-1V39.31A1.14,1.14,0,0,0,39,38.17a1.34,1.34,0,0,0-.43.1l-4.79,2.17h-3.5l-4.79-2.17a1.34,1.34,0,0,0-.43-.1,1.14,1.14,0,0,0-1.18,1.14v5.53a1.14,1.14,0,0,0,1.61,1l4.79-2.16Z" id="path9745-9"/><path class="cls-6" d="M32,38.69a1.74,1.74,0,0,1,1.75,1.74v3.28a1.75,1.75,0,1,1-3.5,0V40.43A1.74,1.74,0,0,1,32,38.69Z" id="rect4471-2"/><path class="cls-3" d="M31.93,15.56l-11-5.38-1.48.92-.06,12.26Z" id="path205766-62-4"/><path class="cls-1" d="M20.89,10.18l-1,.65,8.26,7.1,3.82-2.37Z" id="path12282-0"/><path class="cls-6" d="M33.1,15.28a25.15,25.15,0,0,0-14.51,9,2.5,2.5,0,1,0,4.08,2.88,19.7,19.7,0,0,1,11.45-7,2.5,2.5,0,1,0-1-4.89Z" id="path192449-53-59"/><path class="cls-6" d="M21,9.56A1.56,1.56,0,1,1,19.47,8,1.55,1.55,0,0,1,21,9.56Z" id="path205066-9-4"/><path class="cls-5" d="M33.75,15.23a2.35,2.35,0,0,0-.65,0c-.63.13-1.24.28-1.82.46a3.53,3.53,0,0,1,1.94,4.65l.9-.22a2.5,2.5,0,0,0-.37-4.94Z" id="path12480-6"/><path d="M22.85,40.54a18.13,18.13,0,0,0-8.6,12.55A3.24,3.24,0,0,0,15,55.74,3.65,3.65,0,0,0,17.78,57H46.22A3.65,3.65,0,0,0,49,55.74a3.24,3.24,0,0,0,.74-2.65,18.13,18.13,0,0,0-8.6-12.55V39.31a2.18,2.18,0,0,0-.22-.91,12.19,12.19,0,0,0-4-19.52A3.43,3.43,0,0,0,37.07,17a3.51,3.51,0,0,0-4.15-2.71h0c-.29.06-.56.14-.84.21L22,9.62s0,0,0-.06a2.56,2.56,0,1,0-5.11,0,2.53,2.53,0,0,0,1.49,2.31L18.35,23c-.35.42-.55.7-.58.75a3.51,3.51,0,0,0,.85,4.88,3.32,3.32,0,0,0,1.21.52c0,.29-.07.59-.07.88a12.27,12.27,0,0,0,3.31,8.36,2.18,2.18,0,0,0-.22.91Zm6.4,2.53L25.05,45a.14.14,0,0,1-.14,0,.14.14,0,0,1-.06-.12V39.31a.14.14,0,0,1,0-.09.16.16,0,0,1,.16,0l4.2,1.9ZM47.77,53.41a1.25,1.25,0,0,1-.28,1,1.68,1.68,0,0,1-1.27.56H17.78a1.64,1.64,0,0,1-1.26-.56,1.22,1.22,0,0,1-.29-1A16.06,16.06,0,0,1,22.85,42.9v1.93a2.14,2.14,0,0,0,1,1.8A2.1,2.1,0,0,0,25,47a2.25,2.25,0,0,0,.88-.19l3.77-1.7a2.72,2.72,0,0,0,4.72,0l3.77,1.7A2.25,2.25,0,0,0,39,47a2.1,2.1,0,0,0,1.16-.35,2.14,2.14,0,0,0,1-1.8V42.9A16.06,16.06,0,0,1,47.77,53.41Zm-15-9.7a.75.75,0,1,1-1.5,0V40.43a.75.75,0,0,1,1.5,0ZM39,39.19a.14.14,0,0,1,.17,0,.11.11,0,0,1,0,.1v5.52a.14.14,0,0,1-.06.12A.14.14,0,0,1,39,45l-4.2-1.89v-2ZM21.19,11.44l8.07,3.93a26.74,26.74,0,0,0-8.9,5.52l.05-9A2.45,2.45,0,0,0,21.19,11.44ZM19.47,9a.56.56,0,1,1-.55.56A.56.56,0,0,1,19.47,9ZM19.4,24.91a24.49,24.49,0,0,1,13.93-8.64h0a1.5,1.5,0,0,1,1.78,1.16,1.5,1.5,0,0,1-1.17,1.78,20.71,20.71,0,0,0-12.08,7.43,1.5,1.5,0,1,1-2.46-1.73ZM21.84,29A3.48,3.48,0,0,0,23.5,27.8a18.92,18.92,0,0,1,10.86-6.63,3.51,3.51,0,0,0,1.37-.63,10.19,10.19,0,0,1,3.54,16.69c-.11,0-.22-.06-.33-.06a2.28,2.28,0,0,0-.81.19l-3.76,1.7A2.74,2.74,0,0,0,32,37.69a2.72,2.72,0,0,0-2.36,1.37l-3.77-1.7a2.28,2.28,0,0,0-.81-.19c-.11,0-.22,0-.33.06a10.23,10.23,0,0,1-3-7.19C21.76,29.71,21.81,29.37,21.84,29Z"/><path d="M32,49.64a1.26,1.26,0,0,0,0,2.51h0a1.25,1.25,0,0,0,1.25-1.26h0A1.25,1.25,0,0,0,32,49.64Z"/><path d="M32,36.51a8.08,8.08,0,0,0,4.43-1.25,1,1,0,0,0,.24-1.39,1,1,0,0,0-1.4-.24,6.17,6.17,0,0,1-3.27.88,6.29,6.29,0,0,1-3.28-.88,1,1,0,0,0-1.15,1.63A8,8,0,0,0,32,36.51Z"/><path d="M31.82,33.55c1.87,0,2.89-2.59,2.89-3.92a2.89,2.89,0,0,0-5.78,0C28.93,31,30,33.55,31.82,33.55Zm0-4.81a.89.89,0,0,1,.89.89,3,3,0,0,1-.87,1.92,2.78,2.78,0,0,1-.91-1.92A.89.89,0,0,1,31.82,28.74Z"/></g></svg>