<?xml version="1.0" ?><svg width="64px" height="64px" viewBox="0 0 64 64" xmlns="http://www.w3.org/2000/svg"><defs><style>.cls-1{fill:#75cef9;}.cls-2{fill:#b1e4f9;}.cls-3{fill:#756e78;}.cls-4{fill:#f6f9f9;}.cls-5{fill:#f6e266;fill-opacity:0.99;}.cls-6{fill:#e7ecf1;}</style></defs><g data-name="Winter Avatar" id="Winter_Avatar-6"><path class="cls-1" d="M45.7,18.67a14.13,14.13,0,0,0-27.4,0l16.77,4.92Z" id="path43207-2"/><path class="cls-2" d="M21.52,27.48h-3.3a2.14,2.14,0,0,1-2-2l-.52-4.11a2.56,2.56,0,0,1,2.67-2.66H45.67a2.56,2.56,0,0,1,2.67,2.66l-.52,4.11a2.14,2.14,0,0,1-2,2H21.52Z" id="rect49272-0-9-1-5"/><path class="cls-3" d="M49,52.44a35.9,35.9,0,0,0-6.62-15.37c-2.08-2.68-1.8-5.78-.28-8.78a11.33,11.33,0,1,0-20.18,0c1.52,3,1.8,6.1-.28,8.78A35.9,35.9,0,0,0,15,52.44Z" id="path60800"/><path class="cls-4" d="M28.25,16.6a2.11,2.11,0,0,0-1.25.52,7.84,7.84,0,0,0-2,9.57c1.89,3.72,2.34,8.69-.63,12.53-2.83,3.65-8.34,7.72-9.39,13.22,0,.21-.07.41-.09.61a2.65,2.65,0,0,0,2.74,3H46.34a2.65,2.65,0,0,0,2.74-3c0-.2-.06-.4-.09-.61-1-5.5-6.56-9.57-9.39-13.22-3-3.84-2.52-8.81-.63-12.53a7.84,7.84,0,0,0-2-9.57c-1.65-1.36-3.51.11-3.51,2.28v2h-3v-2C30.52,17.77,29.47,16.54,28.25,16.6Z" id="path60802"/><path class="cls-5" d="M28.52,23.84A5.17,5.17,0,0,0,32,25.79a5.17,5.17,0,0,0,3.48-1.95.65.65,0,0,0,0-.83,5.17,5.17,0,0,0-3.48-2,5.17,5.17,0,0,0-3.48,2A.65.65,0,0,0,28.52,23.84Z" id="path60804"/><path class="cls-6" d="M35.75,16.6a1.8,1.8,0,0,0-1.16.36l.22.16a7.77,7.77,0,0,1,2.83,6,7.85,7.85,0,0,1-.85,3.53c-1.89,3.72-2.35,8.69.62,12.53,2.83,3.65,8.35,7.72,9.39,13.22,0,.21.07.41.1.61a2.66,2.66,0,0,1-2.74,3h2.18a2.65,2.65,0,0,0,2.74-3c0-.2-.06-.4-.09-.61-1-5.5-6.56-9.57-9.39-13.22-3-3.84-2.52-8.81-.63-12.53a7.84,7.84,0,0,0-2-9.57A2.11,2.11,0,0,0,35.75,16.6Z" id="path60806"/><path d="M43.16,36.46c-1.64-2.12-1.7-4.72-.17-7.72,0-.09.07-.18.11-.26h2.68a3.12,3.12,0,0,0,3-2.92l.52-4.1a3.16,3.16,0,0,0-.8-2.51,3.85,3.85,0,0,0-2.06-1.19,15.11,15.11,0,0,0-28.94,0A3.85,3.85,0,0,0,15.47,19a3.16,3.16,0,0,0-.8,2.51l.52,4.1a3.12,3.12,0,0,0,3,2.92H20.9c0,.08.07.17.11.26,1.53,3,1.47,5.6-.17,7.72a37.08,37.08,0,0,0-6.91,16.46,3.41,3.41,0,0,0,.83,2.78,3.81,3.81,0,0,0,2.9,1.3H46.34a3.81,3.81,0,0,0,2.9-1.3,3.4,3.4,0,0,0,.83-2.78A37.25,37.25,0,0,0,43.16,36.46Zm4.18-15.25-.51,4.1c-.08.58-.43,1.17-1,1.17H43.85a12.45,12.45,0,0,0,.48-3.32,12.58,12.58,0,0,0-.51-3.49h1.85a1.87,1.87,0,0,1,1.36.6A1.18,1.18,0,0,1,47.34,21.21ZM32,9a13.07,13.07,0,0,1,12.3,8.67H43a12.3,12.3,0,0,0-22,0H19.7A13.07,13.07,0,0,1,32,9ZM18.22,26.48c-.62,0-1-.59-1-1.17l-.51-4.1a1.18,1.18,0,0,1,.31-.94,1.87,1.87,0,0,1,1.36-.6h1.85a12.58,12.58,0,0,0-.51,3.49,12.45,12.45,0,0,0,.48,3.32Zm4.2,11.2c2.13-2.74,2.26-6.15.37-9.85a10.33,10.33,0,1,1,19.54-4.67,10.25,10.25,0,0,1-1.13,4.67c-1.88,3.7-1.75,7.11.38,9.85a32.71,32.71,0,0,1,3.77,6.38c-.71-.81-1.44-1.57-2.15-2.32-1.05-1.1-2-2.15-2.81-3.14-2.83-3.65-2.13-8.31-.53-11.45a8.83,8.83,0,0,0-2.23-10.8,2.88,2.88,0,0,0-3.14-.49,3.82,3.82,0,0,0-2,3.54v.72a4.07,4.07,0,0,0-.49-.05,4.07,4.07,0,0,0-.49.05V19.4a3.82,3.82,0,0,0-2-3.54,2.88,2.88,0,0,0-3.14.49,8.77,8.77,0,0,0-3.19,6.81,8.91,8.91,0,0,0,.95,4c1.6,3.14,2.31,7.8-.52,11.45-.77,1-1.76,2-2.81,3.14-.71.75-1.44,1.51-2.15,2.32A32.71,32.71,0,0,1,22.42,37.68ZM32,22.07a3.93,3.93,0,0,1,2.5,1.36A4,4,0,0,1,32,24.79a4,4,0,0,1-2.5-1.36A4,4,0,0,1,32,22.07ZM47.73,54.39a1.81,1.81,0,0,1-1.39.61H17.66a1.81,1.81,0,0,1-1.39-.61,1.46,1.46,0,0,1-.36-1.2c.54-3.95,3.52-7.11,6.34-10.07a44,44,0,0,0,2.94-3.29c3.4-4.39,2.6-9.9.73-13.59a6.84,6.84,0,0,1,1.72-8.35.92.92,0,0,1,1-.22,1.88,1.88,0,0,1,.85,1.73v1.46a8.52,8.52,0,0,0-2.14,2,1,1,0,0,0,0,1.17c.08.12,2,2.78,4.63,2.78s4.55-2.66,4.63-2.78a1,1,0,0,0,0-1.17,8.52,8.52,0,0,0-2.14-2V19.4a1.88,1.88,0,0,1,.85-1.73.92.92,0,0,1,1,.22,6.84,6.84,0,0,1,1.72,8.35c-1.87,3.69-2.67,9.2.73,13.59a44,44,0,0,0,2.94,3.29c2.8,2.94,5.8,6.11,6.34,10.07A1.46,1.46,0,0,1,47.73,54.39Z"/></g></svg>