<?xml version="1.0" ?><svg width="64px" height="64px" viewBox="0 0 64 64" data-name="Winter Avatar" id="Winter_Avatar" xmlns="http://www.w3.org/2000/svg"><defs><style>.cls-1{fill:#e7ecf1;}.cls-2{fill:#dae4ea;}.cls-3{fill:#f6f9f9;}.cls-4{fill:#756e78;}.cls-4,.cls-5,.cls-6,.cls-7{fill-opacity:0.99;}.cls-5{fill:#d57080;}.cls-6{fill:#665e66;}.cls-7{fill:#cb5769;}.cls-8{fill:#f6e266;}.cls-9{fill:#f4dd45;}</style></defs><path class="cls-1" d="M26.76,40.19A16.64,16.64,0,0,0,15.59,53.28,2.4,2.4,0,0,0,18.08,56H45.92a2.39,2.39,0,0,0,2.48-2.69A16.61,16.61,0,0,0,37.24,40.19Z" id="path13088-1-8-1"/><path class="cls-2" d="M33.94,40.19A16.61,16.61,0,0,1,45.1,53.27,2.4,2.4,0,0,1,42.62,56h3.3a2.4,2.4,0,0,0,2.49-2.7A16.64,16.64,0,0,0,37.24,40.19Z" id="path175371-8-7"/><path class="cls-3" d="M32,19.56a11,11,0,1,0,11,11A11,11,0,0,0,32,19.56Z" id="circle13086-4-9-2"/><path class="cls-1" d="M32,19.56c-.32,0-.63,0-.94,0a11,11,0,0,1,0,21.92c.31,0,.62,0,.94,0a11,11,0,0,0,0-22Z" id="path175373-7-2"/><path class="cls-4" d="M23.83,8A1.74,1.74,0,0,0,22.15,10l.38,7,9.59,1.82,9.35-1.82.38-7A1.7,1.7,0,0,0,40.17,8Z" id="path178524-2"/><path class="cls-5" d="M41.47,16.93H22.53l.23,4.3,9,1.79,9.5-1.79Z" id="rect13409-6-6"/><path class="cls-4" d="M22.76,21.23H41.24a1.69,1.69,0,1,1,0,3.37H22.76a1.69,1.69,0,0,1,0-3.37Z" id="rect13142-8-1"/><path class="cls-6" d="M38.05,21.23a1.69,1.69,0,1,1,0,3.37h3.19a1.69,1.69,0,1,0,0-3.37Z" id="path178218-0"/><path class="cls-6" d="M41.47,16.93l.38-7A1.7,1.7,0,0,0,40.17,8H37A1.7,1.7,0,0,1,38.66,10l-.37,7Z" id="path178796-6"/><path class="cls-7" d="M41.24,21.23l.23-4.3H38.29l-.24,4.3Z" id="path178798-1"/><path class="cls-8" d="M21.93,36.62a2.1,2.1,0,0,0-1.07,2,15.76,15.76,0,0,1-1.14,3.59,1.48,1.48,0,0,0,.62,2A29.79,29.79,0,0,0,32,46.64a29.79,29.79,0,0,0,11.66-2.53,1.48,1.48,0,0,0,.62-2,15.76,15.76,0,0,1-1.14-3.59,2.1,2.1,0,0,0-1.07-2C40,35.69,35.6,34.09,32,34.09S24,35.69,21.93,36.62Z" id="path152977-7-4-5"/><path class="cls-9" d="M32,34.09a16.23,16.23,0,0,0-2.05.15,32.34,32.34,0,0,1,8,2.38,2.12,2.12,0,0,1,1.07,2,15.76,15.76,0,0,0,1.14,3.59,1.48,1.48,0,0,1-.63,2A29.92,29.92,0,0,1,30,46.55c.67.06,1.35.09,2.05.09a29.79,29.79,0,0,0,11.66-2.53,1.48,1.48,0,0,0,.62-2,15.76,15.76,0,0,1-1.14-3.59,2.1,2.1,0,0,0-1.07-2C40,35.69,35.6,34.09,32,34.09Z" id="path149642-8-9"/><path class="cls-9" d="M42.59,44.56v6.13a1.41,1.41,0,0,1-1.42,1.42H37a1.41,1.41,0,0,1-1.41-1.42v-4.3Z" id="path155504-71-7-4"/><path d="M45,44.12a2.68,2.68,0,0,0,.2-2.26c-.13-.42-.3-.84-.47-1.26a6.83,6.83,0,0,1-.62-2.1,3,3,0,0,0-1.4-2.64A12,12,0,0,0,44,30.56a11.85,11.85,0,0,0-1.31-5.39,2.68,2.68,0,0,0-.4-4.72l.55-10.37a2.69,2.69,0,0,0-2.67-3H23.83a2.6,2.6,0,0,0-1.91.82A2.92,2.92,0,0,0,21.15,10l.56,10.44a2.67,2.67,0,0,0-.4,4.72A11.85,11.85,0,0,0,20,30.56a12,12,0,0,0,1.26,5.3,3,3,0,0,0-1.4,2.64,6.83,6.83,0,0,1-.62,2.1c-.17.42-.34.83-.48,1.26A2.72,2.72,0,0,0,19,44.12a17.43,17.43,0,0,0-4.36,9,3.16,3.16,0,0,0,.72,2.6A3.62,3.62,0,0,0,18.08,57H45.92a3.58,3.58,0,0,0,2.74-1.25,3.14,3.14,0,0,0,.73-2.61A17.43,17.43,0,0,0,45,44.12ZM20.75,43.2c-.27-.12-.09-.71-.08-.73.07-.22.16-.44.25-.65a17.53,17.53,0,0,1,4.67-1.36,1,1,0,0,0-.34-2,25.14,25.14,0,0,0-3.49.85,5.28,5.28,0,0,0,.1-.71c0-.61.2-1,.47-1.1.92-.41,5.73-2.44,9.67-2.44s8.75,2,9.67,2.44c.27.12.43.49.47,1.1a5.28,5.28,0,0,0,.1.71,25.52,25.52,0,0,0-3.49-.85,1,1,0,1,0-.34,2,17.66,17.66,0,0,1,4.67,1.36c.09.21.18.43.25.64,0,0,.19.62-.08.74A28.71,28.71,0,0,1,32,45.64,28.71,28.71,0,0,1,20.75,43.2ZM22,30.56a9.93,9.93,0,0,1,1.35-5h17.3a9.81,9.81,0,0,1,.26,9.46,27.49,27.49,0,0,0-8.91-2,27.49,27.49,0,0,0-8.91,2A10,10,0,0,1,22,30.56Zm1.7-10.33-.12-2.3H40.42l-.13,2.3Zm-.94,2H41.24a.69.69,0,0,1,0,1.37H22.76a.69.69,0,1,1,0-1.37Zm13.87,25a32.2,32.2,0,0,0,5-1.25v4.71a.41.41,0,0,1-.42.42H37a.41.41,0,0,1-.41-.42Zm-13.26-38A.6.6,0,0,1,23.83,9H40.17a.69.69,0,0,1,.52.23.77.77,0,0,1,.16.63l-.32,6H23.47l-.32-6A.87.87,0,0,1,23.37,9.23Zm23.77,45.2a1.64,1.64,0,0,1-1.22.54H18.08a1.64,1.64,0,0,1-1.22-.54,1.21,1.21,0,0,1-.28-1,15.44,15.44,0,0,1,4-8.12A30.73,30.73,0,0,0,32,47.64c.91,0,1.78-.06,2.63-.14v3.19A2.41,2.41,0,0,0,37,53.11h4.13a2.42,2.42,0,0,0,2.42-2.42V45.55a15.56,15.56,0,0,1,3.83,7.89A1.21,1.21,0,0,1,47.14,54.43Z"/><path d="M27.47,27.63a1,1,0,0,0-1,1V30a1,1,0,0,0,2,0V28.63A1,1,0,0,0,27.47,27.63Z"/><path d="M36.54,31a1,1,0,0,0,1-1V28.63a1,1,0,0,0-2,0V30A1,1,0,0,0,36.54,31Z"/></svg>