<?xml version="1.0" ?><svg width="64px" height="64px" viewBox="0 0 64 64" xmlns="http://www.w3.org/2000/svg"><defs><style>.cls-1{fill:#b1e4f9;}.cls-2{fill:#75cef9;}.cls-3{fill:#eaafa5;}.cls-4{fill:#f1cbc6;}.cls-5{fill:#665e66;}.cls-6{fill:#544f57;}.cls-7{fill:#756e78;}.cls-8{fill:#d57080;}.cls-9{fill:#f6e266;}.cls-10{fill:#f4dd45;}</style></defs><g data-name="Winter Avatar" id="Winter_Avatar-26"><path class="cls-1" d="M28.48,47.66h-6.3l-5.76,3a5.4,5.4,0,0,0-.59,2.48v1.4A1.45,1.45,0,0,0,17.28,56H46.72a1.45,1.45,0,0,0,1.45-1.45v-1.4a5.4,5.4,0,0,0-.59-2.48l-5.76-3H28.48Z" id="path46655-1"/><path class="cls-2" d="M38.21,47.66l5.76,3a5.56,5.56,0,0,1,.59,2.48v1.4A1.45,1.45,0,0,1,43.11,56h3.61a1.45,1.45,0,0,0,1.45-1.45v-1.4a5.43,5.43,0,0,0-.59-2.48l-5.76-3Z" id="path164162"/><path class="cls-3" d="M27.37,42.8c.35,1.59.71,3.18,1.07,4.77.3,2,1.59,3.56,3.56,3.56s3.26-1.61,3.56-3.56l.9-4Z" id="path22987-6-4-1"/><path class="cls-4" d="M32,15.18A11.94,11.94,0,0,1,44,26.12l.48,5.77a12.5,12.5,0,1,1-24.92,0L20,26.12A11.94,11.94,0,0,1,32,15.18Z" id="path22985-3-8-7"/><path class="cls-3" d="M39.66,23.47a12.09,12.09,0,0,1,.53,2.65l.29,3.59.18,2.18A12.51,12.51,0,0,1,30.1,45.28a13.17,13.17,0,0,0,1.9.14A12.5,12.5,0,0,0,44.46,31.89l-.18-2.18Z" id="path101009-9-3-9-5"/><path class="cls-5" d="M39.11,17.48A11.79,11.79,0,0,1,44,26.12l.3,3.59c-6,1.77-11.2-4.46-11.2-4.46l-.63-3.94Z" id="path66719-9"/><path class="cls-6" d="M32,15.18a11.88,11.88,0,0,0-1.9.15A11.93,11.93,0,0,1,40.19,26.12l.29,3.59,0,.16a7.88,7.88,0,0,0,3.78-.16L44,26.12A11.94,11.94,0,0,0,32,15.18Z" id="path101011-3-6-2-6"/><path class="cls-7" d="M32,15.18A11.94,11.94,0,0,0,20,26.12l-.38,4.55h0A23.41,23.41,0,0,0,39.11,17.48,12,12,0,0,0,32,15.18Z" id="path22989-5-31-2"/><path class="cls-5" d="M32,15.18a11.88,11.88,0,0,0-1.9.15,11.89,11.89,0,0,1,5.21,2.15,12.05,12.05,0,0,1,2.48,2.41,17.85,17.85,0,0,0,1.32-2.41A12,12,0,0,0,32,15.18Z" id="path186167-9-0-1"/><path class="cls-8" d="M20.75,33.18S24.39,29,32,29s11.25,4.12,11.25,4.12l1.62-4-2.38-6.75s-15.67-.21-16.35-.3-8.64,3.41-8.64,3.41Z" id="path47909-0"/><path class="cls-9" d="M48.09,46.07V10.42A2.42,2.42,0,0,0,45.67,8c-1.34,0-2,.77-2.71,2.43-.33.77-.78,1.79-1.43,3.26a12.86,12.86,0,0,0-19.08,0c-.64-1.45-1.09-2.45-1.42-3.21C20.31,8.77,19.67,8,18.33,8a2.42,2.42,0,0,0-2.42,2.42V46.07h4.84v-17S24.39,25.26,32,25.26,43.25,29,43.25,29V46.07Z" id="path42529-2"/><path class="cls-10" d="M45.67,8a2.24,2.24,0,0,0-1.19.3,2.42,2.42,0,0,1,1.27,2.12V46.07h2.34V10.42A2.42,2.42,0,0,0,45.67,8Z" id="path162824"/><path class="cls-8" d="M49.54,47.3a3.87,3.87,0,1,1-3.87-3.87A3.87,3.87,0,0,1,49.54,47.3Z" id="path42520-7"/><path class="cls-8" d="M14.46,47.3a3.87,3.87,0,1,0,3.87-3.87A3.87,3.87,0,0,0,14.46,47.3Z" id="path43695-2"/><path class="cls-10" d="M20.75,22.38v6.71a11.86,11.86,0,0,1,3.51-2.27Z" id="path162997"/><path d="M27.91,35.32a1,1,0,0,0,1-1V33.1a1,1,0,0,0-2,0v1.22A1,1,0,0,0,27.91,35.32Z"/><path d="M36.09,35.32a1,1,0,0,0,1-1V33.1a1,1,0,1,0-2,0v1.22A1,1,0,0,0,36.09,35.32Z"/><path d="M27.67,38.87a1,1,0,0,0,.24,1.39,7.85,7.85,0,0,0,8.18,0,1,1,0,0,0-1.15-1.63,5.9,5.9,0,0,1-5.88,0A1,1,0,0,0,27.67,38.87Z"/><path d="M12,21a1,1,0,0,0,.45-.11,9.6,9.6,0,0,1,2.51-.81v2.6a14.28,14.28,0,0,0-3.07,1.55,1,1,0,0,0-.27,1.39,1,1,0,0,0,.83.44,1,1,0,0,0,.56-.17,11.86,11.86,0,0,1,1.95-1.05v19A4.83,4.83,0,0,0,15.23,51a6.38,6.38,0,0,0-.4,2.12v1.4A2.45,2.45,0,0,0,17.28,57H46.72a2.45,2.45,0,0,0,2.45-2.45v-1.4a6.33,6.33,0,0,0-.4-2.12,4.84,4.84,0,0,0,.35-7.17l0,0v-19A12.72,12.72,0,0,1,51,25.86a1,1,0,0,0,.56.17,1,1,0,0,0,.83-.44,1,1,0,0,0-.27-1.39,14.28,14.28,0,0,0-3.07-1.55v-2.6a9.6,9.6,0,0,1,2.51.81,1,1,0,0,0,.45.11,1,1,0,0,0,.46-1.89A12,12,0,0,0,49.09,18v-7.6A3.42,3.42,0,0,0,45.67,7c-2.13,0-3,1.56-3.62,3-.22.51-.5,1.13-.85,1.93a13.85,13.85,0,0,0-18.42-.05h0L22,10c-.64-1.47-1.5-3-3.62-3a3.42,3.42,0,0,0-3.42,3.42V18a12,12,0,0,0-3.42,1.06A1,1,0,0,0,12,21ZM47.7,45.27a2.87,2.87,0,0,1,.84,2h0a2.87,2.87,0,1,1-.84-2Zm-6.83,1.39H36.76l.27-1.2a13.31,13.31,0,0,0,5.22-3.8v2.18A4.87,4.87,0,0,0,40.87,46.66ZM21.75,33.59C22.61,32.76,26,30,32,30s9.38,2.73,10.25,3.55V38a11.35,11.35,0,0,1-20.5,0ZM32,46.48a13.28,13.28,0,0,0,2.83-.34l-.29,1.32c-.19,1.23-1,2.67-2.54,2.67s-2.35-1.44-2.55-2.74l-.28-1.25A13.28,13.28,0,0,0,32,46.48ZM42.25,31A17.71,17.71,0,0,0,32,28a17.44,17.44,0,0,0-10.25,3V29.53c.95-.8,4.33-3.27,10.25-3.27s9.3,2.4,10.25,3.2ZM21.75,41.66A13.31,13.31,0,0,0,27,45.46l.27,1.2H23.13a4.87,4.87,0,0,0-1.38-2.82ZM21.2,47.3a2.87,2.87,0,1,1-2.87-2.87A2.88,2.88,0,0,1,21.2,47.3Zm26,5.85v1.4a.45.45,0,0,1-.45.45H17.28a.45.45,0,0,1-.45-.45v-1.4A4.75,4.75,0,0,1,17,52a4.51,4.51,0,0,0,1.33.21A4.86,4.86,0,0,0,23,48.66h4.71a4.41,4.41,0,0,0,8.62,0H41a4.86,4.86,0,0,0,4.65,3.51A4.51,4.51,0,0,0,47,52,4.75,4.75,0,0,1,47.17,53.15ZM16.91,10.42A1.42,1.42,0,0,1,18.33,9c.62,0,1,.12,1.79,1.83.21.5.48,1.1.82,1.87L21.53,14a1,1,0,0,0,.76.59,1,1,0,0,0,.9-.32,11.87,11.87,0,0,1,17.6,0,1,1,0,0,0,1.65-.27l.45-1c.42-1,.74-1.66,1-2.24C44.62,9.12,45.05,9,45.67,9a1.42,1.42,0,0,1,1.42,1.42v7.37a30.92,30.92,0,0,0-5.92.21,1,1,0,1,0,.29,2,29.35,29.35,0,0,1,5.63-.18V22a22.57,22.57,0,0,0-5.81-.71,1,1,0,1,0,.06,2,21.63,21.63,0,0,1,5.75.79V42.67a4.8,4.8,0,0,0-1.42-.24,4.86,4.86,0,0,0-1.42.24V25.83a1,1,0,0,0-2,0V27A18.9,18.9,0,0,0,32,24.26a18.56,18.56,0,0,0-10.25,2.79V25.92a1,1,0,0,0-2,0V42.67a4.86,4.86,0,0,0-1.42-.24,4.75,4.75,0,0,0-1.42.24V24.09a21.67,21.67,0,0,1,5.75-.79,1,1,0,0,0,1-1,1,1,0,0,0-1-1,22.57,22.57,0,0,0-5.81.71V19.8a29.35,29.35,0,0,1,5.63.18,1,1,0,1,0,.29-2,30.92,30.92,0,0,0-5.92-.21Z"/><path d="M30.07,22.7A2.93,2.93,0,0,0,32,22a2.93,2.93,0,0,0,4.86-2.21,1,1,0,1,0-2,0,.93.93,0,1,1-1.86,0,1,1,0,1,0-2,0,.93.93,0,1,1-1.86,0,1,1,0,1,0-2,0A2.93,2.93,0,0,0,30.07,22.7Z"/><path d="M29.61,14.72a1,1,0,0,0,0,2,1,1,0,1,0,0-2Z" id="path47347"/><path d="M34.39,14.72a1,1,0,1,0,1,1A1,1,0,0,0,34.39,14.72Z" id="path47355"/></g></svg>