<?xml version="1.0" ?><svg width="64px" height="64px" viewBox="0 0 64 64" xmlns="http://www.w3.org/2000/svg"><defs><style>.cls-1{fill:#756e78;}.cls-2{fill:#f6f9f9;}.cls-3,.cls-6{fill:#f6e266;}.cls-3{fill-opacity:0.99;}.cls-4{fill:#e7ecf1;}.cls-5{fill:#f4dd45;}.cls-7{fill:#ecc32e;}</style></defs><g data-name="Winter Avatar" id="Winter_Avatar-7"><path class="cls-1" d="M47.15,52.83a32.19,32.19,0,0,0-5.9-13.71C39.39,36.73,39.64,34,41,31.29a10.1,10.1,0,1,0-18,0c1.36,2.68,1.61,5.44-.25,7.83a32.19,32.19,0,0,0-5.9,13.71Z" id="path29408-3"/><path class="cls-2" d="M28.65,20.87a1.93,1.93,0,0,0-1.11.46,7,7,0,0,0-1.76,8.54c1.69,3.32,2.09,7.75-.56,11.17-2.52,3.25-7.44,6.88-8.37,11.79,0,.18-.06.36-.08.54A2.37,2.37,0,0,0,19.21,56H44.79a2.37,2.37,0,0,0,2.44-2.63c0-.18,0-.36-.08-.54-.93-4.91-5.85-8.54-8.37-11.79-2.65-3.42-2.25-7.85-.56-11.17a7,7,0,0,0-1.76-8.54c-1.48-1.21-3.14.11-3.14,2v1.82H30.68V23.36A2.24,2.24,0,0,0,28.65,20.87Z" id="path30386-60"/><path class="cls-3" d="M28.9,27.33A4.62,4.62,0,0,0,32,29.06a4.62,4.62,0,0,0,3.1-1.73.57.57,0,0,0,0-.74A4.59,4.59,0,0,0,32,24.85a4.59,4.59,0,0,0-3.1,1.74A.57.57,0,0,0,28.9,27.33Z" id="path41054"/><path class="cls-4" d="M35.35,20.87a1.63,1.63,0,0,0-1,.32l.2.14a7,7,0,0,1,1.76,8.54c-1.69,3.32-2.09,7.75.56,11.17,2.52,3.25,7.44,6.88,8.37,11.79,0,.18.06.36.08.54A2.37,2.37,0,0,1,42.84,56h1.95a2.37,2.37,0,0,0,2.44-2.63c0-.18,0-.36-.08-.54-.93-4.91-5.85-8.54-8.37-11.79-2.65-3.42-2.25-7.85-.56-11.17a7,7,0,0,0-1.76-8.54A1.93,1.93,0,0,0,35.35,20.87Z" id="path47202"/><path class="cls-5" d="M22.36,18.4,18.82,13a1,1,0,0,1,.29-1.43L25,8.13a1,1,0,0,1,1.39.47l2.93,5.77-3,2.47Z" id="path4530-6"/><path class="cls-6" d="M21.74,18.75,30,14a1.52,1.52,0,1,1,1.52,2.64l-8.21,4.74a1.52,1.52,0,1,1-1.52-2.64Z" id="path4532-9"/><path class="cls-7" d="M29.33,14.37,26.4,8.6a1,1,0,0,0-.89-.6,1,1,0,0,0-.5.13L23.17,9.2a1,1,0,0,1,1.38.46l2.93,5.78Z" id="path4534-3"/><path class="cls-5" d="M30.67,13.81A1.48,1.48,0,0,0,30,14l-1.8,1a1.52,1.52,0,0,1,1.55,2.62l1.77-1a1.52,1.52,0,0,0-.8-2.84Z" id="path4536-7"/><path d="M16.55,55.81A3.51,3.51,0,0,0,19.21,57H44.79a3.51,3.51,0,0,0,2.66-1.19,3.18,3.18,0,0,0,.77-2.57A33.41,33.41,0,0,0,42,38.51c-1.44-1.86-1.49-4.13-.15-6.77a11.08,11.08,0,0,0-8.72-16.06,2.44,2.44,0,0,0-.27-1.61,2.48,2.48,0,0,0-1.53-1.18,2.42,2.42,0,0,0-1.59.14L27.33,8.21a2,2,0,0,0-2.81-1l-5.9,3.41a1.94,1.94,0,0,0-.92,1.23A2.13,2.13,0,0,0,18,13.52l3,4.56a2.49,2.49,0,0,0,.8,4.38,10.95,10.95,0,0,0,.34,9.28c1.34,2.64,1.29,4.91-.15,6.77a33.3,33.3,0,0,0-6.18,14.73A3.18,3.18,0,0,0,16.55,55.81ZM46,54.49a1.51,1.51,0,0,1-1.16.51H19.21a1.51,1.51,0,0,1-1.16-.51,1.21,1.21,0,0,1-.29-1c.48-3.5,3.15-6.32,5.63-8.92,1-1,1.88-2,2.63-2.94,3.06-4,2.34-8.91.65-12.23a5.9,5.9,0,0,1-.64-2.7,6,6,0,0,1,2.15-4.62c.43-.35.7-.22.79-.18a1.57,1.57,0,0,1,.7,1.45V24.6a7.58,7.58,0,0,0-1.89,1.77,1,1,0,0,0,0,1.18c.19.25,1.89,2.52,4.22,2.52s4-2.27,4.22-2.52a1,1,0,0,0,0-1.18,7.58,7.58,0,0,0-1.89-1.77V23.37a1.57,1.57,0,0,1,.7-1.45c.09,0,.36-.17.79.18A6,6,0,0,1,38,26.72a6,6,0,0,1-.64,2.7c-1.69,3.32-2.41,8.27.65,12.23.75,1,1.66,1.92,2.63,2.94,2.46,2.58,5.15,5.42,5.63,8.92A1.21,1.21,0,0,1,46,54.49ZM34.08,27A3.37,3.37,0,0,1,32,28.07,3.32,3.32,0,0,1,29.92,27,3.37,3.37,0,0,1,32,25.85,3.32,3.32,0,0,1,34.08,27ZM30.46,14.87a.52.52,0,0,1,.71.2.53.53,0,0,1-.19.71l-8,4.63h0l-.19.11a.52.52,0,0,1-.71-.19.5.5,0,0,1,.19-.71ZM25.51,9.05,28,14l-5.33,3.07L19.62,12.4Zm-2,30.68c1.93-2.48,2.05-5.56.35-8.89A9,9,0,0,1,24.25,22l7.52-4.34a9.09,9.09,0,0,1,8.34,13.21c-1.7,3.33-1.58,6.41.35,8.89a28.52,28.52,0,0,1,3.06,5l-1.46-1.56c-.93-1-1.81-1.91-2.49-2.79-2.49-3.21-1.87-7.32-.46-10.09A8.09,8.09,0,0,0,40,26.72a8,8,0,0,0-2.88-6.16,2.65,2.65,0,0,0-2.92-.44,3.51,3.51,0,0,0-1.84,3.25v.52c-.11,0-.22,0-.33,0s-.22,0-.33,0v-.52a3.51,3.51,0,0,0-1.84-3.25,2.65,2.65,0,0,0-2.92.44A8,8,0,0,0,24,26.72a8.09,8.09,0,0,0,.86,3.61c1.41,2.77,2,6.88-.46,10.09-.68.88-1.56,1.81-2.49,2.79l-1.46,1.56A28.52,28.52,0,0,1,23.54,39.73Z"/></g></svg>