<?xml version="1.0" ?><svg width="64px" height="64px" viewBox="0 0 64 64" xmlns="http://www.w3.org/2000/svg"><defs><style>.cls-1{fill:#756e78;}.cls-2{fill:#f6f9f9;}.cls-3,.cls-5{fill:#f6e266;}.cls-3{fill-opacity:0.99;}.cls-4{fill:#e7ecf1;}.cls-6{fill:#f4dd45;}</style></defs><g data-name="Winter Avatar" id="Winter_Avatar-2"><path class="cls-1" d="M50.42,52.14a38.9,38.9,0,0,0-7.19-16.71c-2.26-2.92-2-6.29-.3-9.55a12.31,12.31,0,1,0-21.94,0c1.66,3.26,2,6.63-.3,9.55A39,39,0,0,0,13.5,52.14Z" id="path29408-3-5-4"/><path class="cls-2" d="M27.89,13.18a2.34,2.34,0,0,0-1.36.56,8.51,8.51,0,0,0-2.14,10.41c2.05,4,2.54,9.44-.68,13.61-3.08,4-9.07,8.39-10.21,14.38,0,.22-.07.44-.1.66a2.88,2.88,0,0,0,3,3.2H47.55a2.89,2.89,0,0,0,3-3.2c0-.22-.07-.44-.11-.66-1.13-6-7.13-10.41-10.2-14.38-3.23-4.17-2.73-9.57-.68-13.61A8.55,8.55,0,0,0,37.4,13.74c-1.8-1.47-3.82.13-3.82,2.48v2.21H30.35V16.22C30.35,14.46,29.21,13.12,27.89,13.18Z" id="path30386-60-4-9"/><path class="cls-3" d="M28.18,21.05c.66.74,2.1,2.12,3.78,2.12s3.13-1.38,3.79-2.12a.72.72,0,0,0,0-.9C35.09,19.41,33.64,18,32,18a5.61,5.61,0,0,0-3.78,2.11A.72.72,0,0,0,28.18,21.05Z" id="path41054-7-5"/><path class="cls-4" d="M36,13.18a2,2,0,0,0-1.26.39l.24.17a8.53,8.53,0,0,1,2.15,10.41c-2.06,4-2.55,9.44.68,13.61,3.07,4,9.07,8.39,10.2,14.38,0,.22.07.44.1.66a2.88,2.88,0,0,1-3,3.2h2.38a2.89,2.89,0,0,0,3-3.2c0-.22-.07-.44-.11-.66-1.13-6-7.13-10.41-10.2-14.38-3.23-4.17-2.73-9.57-.68-13.61A8.55,8.55,0,0,0,37.4,13.74,2.37,2.37,0,0,0,36,13.18Z" id="path47202-4-0"/><path class="cls-5" d="M22.08,28.73A2.1,2.1,0,0,0,21,30.68a15.76,15.76,0,0,1-1.14,3.59,1.5,1.5,0,0,0,.62,2,30,30,0,0,0,11.66,2.52,30,30,0,0,0,11.66-2.52,1.5,1.5,0,0,0,.62-2,15.76,15.76,0,0,1-1.14-3.59,2.1,2.1,0,0,0-1.07-1.95c-2.1-.93-6.47-2.53-10.07-2.53S24.18,27.8,22.08,28.73Z" id="path152977-7-4"/><path class="cls-6" d="M32.15,26.2a16.23,16.23,0,0,0-2,.15,32.34,32.34,0,0,1,8,2.38,2.1,2.1,0,0,1,1.07,1.95,15.76,15.76,0,0,0,1.14,3.59,1.47,1.47,0,0,1-.63,1.95,30.07,30.07,0,0,1-9.6,2.45c.67,0,1.35.08,2,.08a29.79,29.79,0,0,0,11.66-2.53,1.48,1.48,0,0,0,.62-1.95,15.76,15.76,0,0,1-1.14-3.59,2.1,2.1,0,0,0-1.07-1.95C40.12,27.8,35.75,26.2,32.15,26.2Z" id="path149642-8"/><path class="cls-6" d="M42.56,36.69v9.67a1.41,1.41,0,0,1-1.41,1.41H37a1.41,1.41,0,0,1-1.41-1.41V38.52Z" id="path155504-71-7"/><path d="M45.08,36.19a2.74,2.74,0,0,0,.13-2.14c-.13-.43-.3-.85-.47-1.26a7.33,7.33,0,0,1-.63-2.1,3.23,3.23,0,0,0-1-2.41,12.78,12.78,0,0,1,.78-2,13.31,13.31,0,1,0-23.73,0,11.49,11.49,0,0,1,.78,2,3.3,3.3,0,0,0-1.05,2.41,7.29,7.29,0,0,1-.62,2.1c-.17.41-.34.83-.48,1.26a2.74,2.74,0,0,0,.16,2.18,41.25,41.25,0,0,0-6.48,16.43,3.68,3.68,0,0,0,.88,3A4.08,4.08,0,0,0,16.39,57H47.62a4.08,4.08,0,0,0,3.09-1.38,3.68,3.68,0,0,0,.88-3A40.38,40.38,0,0,0,45.08,36.19Zm-21,.43h0a31.2,31.2,0,0,1-3.34-1.22h0c-.26-.12-.08-.7-.07-.73.07-.22.16-.43.24-.64a17.4,17.4,0,0,1,4.68-1.36,1,1,0,0,0,.81-1.16,1,1,0,0,0-1.16-.81,25.32,25.32,0,0,0-3.48.85,5.52,5.52,0,0,0,.1-.71c0-.61.2-1,.46-1.1a34.48,34.48,0,0,1,3.54-1.32h0l0,0A21.64,21.64,0,0,1,32,27.28a21.57,21.57,0,0,1,6.08,1.1l0,0h0a34.48,34.48,0,0,1,3.54,1.32c.27.12.43.49.47,1.1a5.51,5.51,0,0,0,.09.71,26.64,26.64,0,0,0-3.48-.86,1,1,0,0,0-.35,2A17.73,17.73,0,0,1,43.06,34c.08.22.18.43.24.65,0,0,.2.62-.07.74A28.71,28.71,0,0,1,32,37.83,27.65,27.65,0,0,1,24.1,36.62ZM25.29,23.7a7.56,7.56,0,0,1-.82-3.39,7.45,7.45,0,0,1,2.71-5.79,1.07,1.07,0,0,1,1.2-.25,2.09,2.09,0,0,1,1,1.95v1.64A9.67,9.67,0,0,0,27,20a1,1,0,0,0,0,1.18c.09.12,2.19,3,5,3s4.87-2.86,5-3a1,1,0,0,0,0-1.18,9.67,9.67,0,0,0-2.35-2.15V16.22a2.09,2.09,0,0,1,1-1.95,1.07,1.07,0,0,1,1.2.25,7.5,7.5,0,0,1,1.89,9.18,17.21,17.21,0,0,0-1,2.49A21.82,21.82,0,0,0,32,25.28a21.89,21.89,0,0,0-5.7.91A16.14,16.14,0,0,0,25.29,23.7Zm9.53-3.1A4.48,4.48,0,0,1,32,22.17a4.52,4.52,0,0,1-2.85-1.57A4.52,4.52,0,0,1,32,19,4.5,4.5,0,0,1,34.82,20.6Zm1.79,18.82a32,32,0,0,0,5-1.25v8.19a.41.41,0,0,1-.41.41H37a.41.41,0,0,1-.41-.41Zm7-1.9a37.26,37.26,0,0,1,3.36,6.14c-.93-1.08-1.9-2.11-2.83-3.09L43.56,40ZM32,9A11.3,11.3,0,0,1,42.06,25.43a14.1,14.1,0,0,0-.82,2c-.46-.19-1-.39-1.66-.61a13.47,13.47,0,0,1,.87-2.17,9.59,9.59,0,0,0,1-4.3A9.44,9.44,0,0,0,38,13a3,3,0,0,0-3.32-.51,4.07,4.07,0,0,0-2.13,3.76v.89A4.07,4.07,0,0,0,32,17a4,4,0,0,0-.62.08v-.89a4.07,4.07,0,0,0-2.12-3.76,3,3,0,0,0-3.33.51,9.5,9.5,0,0,0-2.4,11.64,15.6,15.6,0,0,1,.87,2.17c-.65.22-1.2.42-1.67.61a15.34,15.34,0,0,0-.81-2A11.3,11.3,0,0,1,32,9ZM20.49,37.46c.48.2,1,.41,1.64.62-.69.8-1.44,1.62-2.26,2.49s-1.82,1.92-2.71,3A36.67,36.67,0,0,1,20.49,37.46ZM49.2,54.31a2.08,2.08,0,0,1-1.58.69H16.39a2.09,2.09,0,0,1-1.58-.69,1.74,1.74,0,0,1-.41-1.38c.6-4.32,3.86-7.77,6.92-11,1.06-1.12,2.05-2.18,2.89-3.22A29.37,29.37,0,0,0,32,39.83a25.12,25.12,0,0,0,2.63-.15v6.68A2.41,2.41,0,0,0,37,48.77h4.13a2.41,2.41,0,0,0,2.41-2.41V42.92c6.06,6.45,5.49,8.56,6,9.67A1.78,1.78,0,0,1,49.2,54.31Z"/></g></svg>