<?xml version="1.0" ?><svg width="64px" height="64px" viewBox="0 0 64 64" xmlns="http://www.w3.org/2000/svg"><defs><style>.cls-1{fill:#e7ecf1;}.cls-2{fill:#dae4ea;}.cls-3{fill:#f6f9f9;}.cls-4{fill:#e7aa90;}.cls-5{fill:#665e66;}.cls-5,.cls-6,.cls-7{fill-opacity:0.99;}.cls-6{fill:#756e78;}.cls-7{fill:#544f57;}.cls-8{fill:#f6e266;}.cls-9{fill:#f4dd45;}.cls-10{fill:#ecc32e;}</style></defs><g data-name="Winter Avatar" id="Winter_Avatar-22"><path class="cls-1" d="M26.75,40.2A16.66,16.66,0,0,0,15.57,53.31,2.39,2.39,0,0,0,18.06,56H45.94a2.4,2.4,0,0,0,2.49-2.69A16.66,16.66,0,0,0,37.25,40.2Z" id="path13088-1-10"/><path class="cls-2" d="M33.94,40.2A16.66,16.66,0,0,1,45.12,53.3,2.4,2.4,0,0,1,42.64,56h3.3a2.4,2.4,0,0,0,2.49-2.7A16.66,16.66,0,0,0,37.25,40.2Z" id="path175371-5"/><path class="cls-3" d="M32,19.54a11,11,0,1,0,11,11A11,11,0,0,0,32,19.54Z" id="circle13086-4-1"/><path class="cls-4" d="M33.68,30.15c0,1-.83,2.86-1.86,2.86S30,31.18,30,30.15a1.86,1.86,0,0,1,3.71,0Z" id="path13094-9-1"/><path class="cls-1" d="M32,19.54c-.32,0-.63,0-.94.05a11,11,0,0,1,0,21.94c.31,0,.62,0,.94,0a11,11,0,0,0,0-22Z" id="path175373-0"/><path class="cls-5" d="M23.82,8a1.75,1.75,0,0,0-1.69,1.92l1.46,11.28L31.73,23l8.68-1.79L41.84,9.94A1.7,1.7,0,0,0,40.15,8Z" id="path178524-4"/><path class="cls-6" d="M22.74,21.22H41.23a1.68,1.68,0,0,1,0,3.36H22.74a1.68,1.68,0,0,1,0-3.36Z" id="rect13142-8-2"/><path class="cls-5" d="M38,21.22a1.68,1.68,0,0,1,0,3.36h3.19a1.68,1.68,0,0,0,0-3.36Z" id="path178218-5"/><path class="cls-7" d="M37,8a1.7,1.7,0,0,1,1.69,1.92L37.22,21.22h3.19L41.84,9.94A1.7,1.7,0,0,0,40.15,8Z" id="path178796-8"/><path class="cls-8" d="M40.84,46.65a31.81,31.81,0,0,0,3.86-1.41,1.62,1.62,0,0,0,.68-2.13l-1.25-3.92a1.67,1.67,0,0,0-2.25-.74c-.44.18-1,.39-1.57.6l-7.06,1.42c-.41,0-.83,0-1.25,0a26.59,26.59,0,0,1-9.88-2.06,1.69,1.69,0,0,0-2.26.74c-.41,1.31-.83,2.62-1.24,3.92a1.62,1.62,0,0,0,.68,2.13A32.44,32.44,0,0,0,32,48c.42,0,.84,0,1.25,0Z" id="path145977-50-6-8"/><path class="cls-9" d="M42.54,38.3a1.87,1.87,0,0,0-.66.15c-.44.18-1,.39-1.57.59l-.38.08a1.48,1.48,0,0,1,1.56.9l1.24,3.91a1.61,1.61,0,0,1-.68,2.13c-.45.2-1,.43-1.63.66l.42-.07a33.61,33.61,0,0,0,3.86-1.41,1.62,1.62,0,0,0,.68-2.13l-1.24-3.92A1.5,1.5,0,0,0,42.54,38.3Z" id="path152926-3-5"/><path class="cls-9" d="M34.79,38.66h4.5a1.54,1.54,0,0,1,1.54,1.54V51.86a1.54,1.54,0,0,1-1.54,1.54h-4.5a1.54,1.54,0,0,1-1.54-1.54V40.2A1.54,1.54,0,0,1,34.79,38.66Z" id="rect145868-48-2-0"/><path class="cls-10" d="M37.18,38.66a1.54,1.54,0,0,1,1.54,1.54V51.86a1.54,1.54,0,0,1-1.54,1.54h2.11a1.54,1.54,0,0,0,1.54-1.54V40.2a1.54,1.54,0,0,0-1.54-1.54Z" id="path152688-0-6"/><path d="M49.42,53.14A17.77,17.77,0,0,0,46,45.36a2.82,2.82,0,0,0,.3-2.55l-1.24-3.92a2.2,2.2,0,0,0-1.21-1.33,3,3,0,0,0-2-.14,11.89,11.89,0,0,0,.85-12.26,2.67,2.67,0,0,0-1.17-4.91l1.32-10.2A2.7,2.7,0,0,0,40.18,7H23.82a2.7,2.7,0,0,0-2.68,3.05l1.32,10.2a2.67,2.67,0,0,0-1.17,4.91,11.92,11.92,0,0,0,.84,12.26,3,3,0,0,0-2,.14,2.2,2.2,0,0,0-1.21,1.33l-1.24,3.92a2.82,2.82,0,0,0,.3,2.55,17.77,17.77,0,0,0-3.39,7.78,3.21,3.21,0,0,0,.73,2.61A3.59,3.59,0,0,0,18.06,57H45.94a3.59,3.59,0,0,0,2.75-1.25A3.21,3.21,0,0,0,49.42,53.14ZM43,39.37c.12.06.14.11.14.13l1.25,3.91c0,.13.22.76-.13.91-.58.26-1.43.61-2.47,1V40.2a2.16,2.16,0,0,0-.09-.62l.53-.21A1,1,0,0,1,43,39.37Zm-3.75.29a.54.54,0,0,1,.54.54V51.86a.54.54,0,0,1-.54.54h-4.5a.54.54,0,0,1-.54-.54V40.2a.54.54,0,0,1,.54-.54Zm-16-30.42A.71.71,0,0,1,23.82,9H40.18a.69.69,0,0,1,.69.79L39.53,20.22H24.47L23.13,9.79A.71.71,0,0,1,23.29,9.24Zm-.55,13H41.26a.69.69,0,0,1,0,1.37H22.74a.69.69,0,0,1,0-1.37Zm.59,3.37H40.67a9.94,9.94,0,0,1,1.35,5,10,10,0,0,1-3,7.1H34.79a2.53,2.53,0,0,0-2.43,1.84H32a24,24,0,0,1-5.72-.74,9.93,9.93,0,0,1-3-13.18ZM19.57,43.42l1.25-3.92s0-.07.14-.13a1,1,0,0,1,.77,0A27.77,27.77,0,0,0,32,41.51h.25V47H32a31.35,31.35,0,0,1-12.3-2.67C19.35,44.17,19.53,43.54,19.57,43.42Zm27.59,11a1.59,1.59,0,0,1-1.22.54H18.06a1.59,1.59,0,0,1-1.22-.54,1.17,1.17,0,0,1-.28-1,15.69,15.69,0,0,1,3.07-7A33.1,33.1,0,0,0,32,49h.25v2.88a2.54,2.54,0,0,0,2.54,2.54h4.5a2.54,2.54,0,0,0,2.54-2.54V47.39c1-.32,1.86-.65,2.54-.92a15.61,15.61,0,0,1,3.07,7A1.17,1.17,0,0,1,47.16,54.46Z"/><path d="M32,36.91a8,8,0,0,0,4.35-1.22,1,1,0,0,0-1.15-1.63,6.12,6.12,0,0,1-3.2.85,6.05,6.05,0,0,1-3.2-.86,1,1,0,0,0-1.39.25,1,1,0,0,0,.24,1.39A8,8,0,0,0,32,36.91Z"/><path d="M31.82,34c1.85,0,2.86-2.55,2.86-3.86a2.86,2.86,0,0,0-5.71,0C29,31.46,30,34,31.82,34Zm0-4.71a.86.86,0,0,1,.86.85A3,3,0,0,1,31.85,32,2.74,2.74,0,0,1,31,30.15.85.85,0,0,1,31.82,29.3Z"/></g></svg>