<?xml version="1.0" encoding="iso-8859-1"?>
<!-- Generator: Adobe Illustrator 19.0.0, SVG Export Plug-In . SVG Version: 6.00 Build 0)  -->
<svg version="1.1" id="Layer_1" xmlns="http://www.w3.org/2000/svg" xmlns:xlink="http://www.w3.org/1999/xlink" x="0px" y="0px"
	 viewBox="0 0 472.016 472.016" style="enable-background:new 0 0 472.016 472.016;" xml:space="preserve">
<g transform="translate(0 -1020.36)">
	<g shape-rendering="auto" image-rendering="auto" color-rendering="auto" color-interpolation="sRGB">
		<path style="fill:#464C63;" d="M235.993,1020.361c-27.614,0-52.803,9.564-70.469,27.688c-4.33,4.443-8.15,9.403-11.469,14.813
			c-13.758-6.752-29.376-10.501-46.062-10.501c-27.614,0-52.802,9.53-70.469,27.655c-17.669,18.125-27.416,44.658-25.219,76.813
			c2.014,29.486,11.269,62.385,27.094,88.688c15.827,26.305,39.109,46.688,68.594,46.688c18.843,0,35.451-8.51,48.75-21.344
			c10.416-10.051,19.006-22.811,25.968-36.813c14.294,15.607,32.16,26.188,53.282,26.188s39.008-10.578,53.312-26.188
			c6.962,14.002,15.555,26.762,25.97,36.813c13.299,12.836,29.874,21.344,48.718,21.344c29.483,0,52.797-20.383,68.624-46.688
			c15.827-26.303,25.078-59.201,27.094-88.688c2.197-32.154-7.552-58.688-25.219-76.813s-42.886-27.656-70.499-27.656
			c-16.688,0-32.282,3.749-46.032,10.5c-3.318-5.409-7.139-10.369-11.469-14.813C288.825,1029.925,263.605,1020.36,235.993,1020.361
			L235.993,1020.361z M235.993,1036.298L235.993,1036.298c23.954,0,44.699,8.141,59.03,22.846c4.83,4.955,8.915,10.756,12.219,17.25
			c0.089,0.191,0.185,0.377,0.288,0.561c3.038,6.139,5.333,12.986,6.781,20.469c0.16,0.623,0.208,1.248,0.32,1.875
			c0.512,3.021,0.864,6.166,1.088,9.406c0,0.881,0.16,1.754,0.192,2.656c0.176,3.963,0.176,8.029-0.16,12.313
			c-0.496,7.332-1.613,15.012-3.126,22.719c-0.32,1.646-0.816,3.289-1.184,4.938c-1.36,6.082-2.912,12.164-4.843,18.156
			c-1.619,5.043-3.37,10.014-5.374,14.844c-0.672,1.6-1.392,3.154-2.094,4.719c-2.306,5.121-4.774,10.1-7.501,14.75
			c-2.168,3.711-4.429,7.277-6.843,10.594c-0.066,0.094-0.13,0.189-0.192,0.287c-13.238,18.119-29.635,29.5-48.594,29.5
			c-19.016,0-35.437-11.443-48.688-29.656c-0.053-0.055-0.106-0.107-0.16-0.16c-2.205-3.031-4.314-6.234-6.312-9.594
			c-0.016,0,0,0.006,0-0.16c-3.016-5.061-5.677-10.563-8.187-16.189c-0.56-1.279-1.184-2.518-1.718-3.811
			c-2.106-5.047-3.942-10.252-5.626-15.531c-1.754-5.482-3.163-11.035-4.437-16.596c-0.496-2.158-1.152-4.316-1.568-6.469
			c-1.488-7.611-2.568-15.195-3.062-22.438c-0.288-4.285-0.304-8.348-0.16-12.313c0-0.896,0.16-1.77,0.192-2.656
			c0.224-3.24,0.576-6.385,1.088-9.406c0.16-0.623,0.192-1.264,0.32-1.875c1.456-7.482,3.742-14.33,6.781-20.469
			c0.117-0.213,0.223-0.434,0.32-0.656c3.293-6.441,7.358-12.172,12.157-17.094c14.331-14.704,35.046-22.843,59-22.843
			L235.993,1036.298z"/>
		<g>
			<path style="fill:#FFB900;" d="M108.007,1068.326c14.536,0,27.25,4.096,38.656,9.875c-5.141,13.639-7.53,29.27-6.344,46.625
				c2.014,29.486,11.269,62.414,27.093,88.719c1.232,2.057,2.611,3.992,3.938,5.969c-6.878,15.59-15.434,29.918-25.718,39.846
				c-11.131,10.742-23.518,16.875-37.626,16.875c-22.082,0-40.699-15.41-54.874-38.969c-14.176-23.557-23.005-54.615-24.845-81.531
				c-1.942-28.424,6.387-49.859,20.72-64.563C63.338,1076.468,84.053,1068.326,108.007,1068.326L108.007,1068.326z"/>
			<path style="fill:#FFB900;" d="M364.007,1068.326c23.954,0,44.698,8.141,59.03,22.846c14.333,14.703,22.661,36.137,20.718,64.563
				c-1.838,26.916-10.669,57.975-24.843,81.531c-14.176,23.561-32.824,38.969-54.906,38.969c-14.107,0-26.462-6.133-37.595-16.875
				c-10.28-9.924-18.808-24.26-25.686-39.846c1.328-1.971,2.672-3.918,3.906-5.969c15.826-26.305,25.078-59.232,27.094-88.719
				c1.184-17.355-1.2-32.986-6.344-46.625C336.785,1072.422,349.469,1068.326,364.007,1068.326z"/>
		</g>
		<g>
			<path style="fill:#464C63;" d="M371.722,1276.238c-4.415,0.17-7.858,3.883-7.688,8.297c0.03,0.791,0.178,1.574,0.439,2.322
				l4.438,13.338H348.13c-4.418-0.072-8.058,3.449-8.13,7.865c-0.072,4.414,3.451,8.053,7.869,8.125
				c0.087,0.002,0.174,0.002,0.262,0h31.904c4.419,0.002,8.002-3.576,8.004-7.992c0-0.861-0.138-1.717-0.411-2.533l-7.968-23.863
				c-1.093-3.428-4.342-5.703-7.938-5.561V1276.238z"/>
			<path style="fill:#464C63;" d="M363.597,1301.287c-4.413,0.219-7.812,3.973-7.593,8.385c0.04,0.795,0.198,1.58,0.47,2.328
				c0,0,2.176,6.326,4.218,14.271c2.042,7.943,3.691,17.793,3.282,22.301c-0.432,4.723-3.414,10.15-7.187,16.615
				c-3.773,6.463-8.373,14.051-8.656,23.768c-0.128,4.416,3.349,8.1,7.767,8.229s8.104-3.348,8.233-7.764
				c0.16-4.604,2.766-9.838,6.467-16.18c3.702-6.34,8.445-13.693,9.312-23.236c0.816-9-1.504-19.104-3.718-27.734
				c-2.218-8.631-4.594-15.49-4.594-15.49c-1.122-3.426-4.398-5.678-8-5.498L363.597,1301.287z"/>
			<path style="fill:#464C63;" d="M356.098,1427.996c-4.418-0.068-8.056,3.455-8.125,7.869c0,0.002,0,0.002,0,0.002
				c-0.32,11.129,4.141,23.217,8.312,33.48c4.173,10.262,8.406,18.332,8.406,18.332c2.045,3.916,6.879,5.434,10.797,3.389
				s5.436-6.875,3.39-10.791l0,0c0,0-3.928-7.453-7.781-16.928c-3.853-9.475-7.291-21.328-7.125-27.014
				c0.19-4.412-3.234-8.143-7.648-8.334C356.25,1428,356.174,1427.998,356.098,1427.996L356.098,1427.996z"/>
		</g>
	</g>
	<g>
		<path style="fill:#464C63;" d="M363.957,1412.117c0,4.414-3.572,7.992-7.977,7.992c0,0,0,0,0,0c-4.405,0-7.976-3.578-7.976-7.992
			c-0.001-4.414,3.57-7.994,7.975-7.994c0,0,0,0,0.001,0c4.406,0,7.977,3.578,7.978,7.992V1412.117z"/>
		<g shape-rendering="auto" image-rendering="auto" color-rendering="auto" color-interpolation="sRGB">
			<path style="fill:#464C63;" d="M100.109,1276.207c-3.513-0.025-6.631,2.242-7.688,5.59l-7.968,23.863
				c-1.398,4.189,0.867,8.719,5.059,10.115c0.808,0.27,1.653,0.408,2.504,0.41h31.936c4.418,0.072,8.058-3.449,8.13-7.865
				c0.072-4.414-3.451-8.053-7.869-8.125c-0.087-0.002-0.174-0.002-0.262,0h-20.843l4.469-13.338
				c1.467-4.166-0.723-8.73-4.891-10.197C101.859,1276.369,100.988,1276.214,100.109,1276.207z"/>
			<path style="fill:#464C63;" d="M108.202,1300.664c-3.499-0.051-6.626,2.176-7.718,5.498c0,0-2.406,6.859-4.624,15.49
				c-2.218,8.633-4.506,18.734-3.688,27.734c0.864,9.545,5.579,16.895,9.282,23.236c3.701,6.34,6.334,11.574,6.469,16.18
				c0.078,4.416,3.724,7.934,8.144,7.855c4.419-0.078,7.938-3.723,7.86-8.139c-0.001-0.061-0.003-0.121-0.005-0.182
				c-0.288-9.721-4.883-17.305-8.656-23.77c-3.773-6.463-6.726-11.889-7.155-16.615c-0.416-4.508,1.2-14.357,3.25-22.301
				c2.042-7.943,4.219-14.27,4.219-14.27c1.503-4.152-0.647-8.736-4.802-10.24c-0.826-0.297-1.696-0.459-2.574-0.475
				L108.202,1300.664z"/>
			<path style="fill:#464C63;" d="M115.733,1427.996c-4.415,0.186-7.843,3.914-7.657,8.326c0,0.004,0,0.01,0.001,0.014
				c0.16,5.686-3.272,17.508-7.125,26.984c-3.853,9.473-7.749,16.959-7.749,16.959c-2.265,3.791-1.025,8.701,2.768,10.965
				s8.706,1.025,10.97-2.768c0.154-0.256,0.293-0.521,0.416-0.795c0,0,4.234-8.07,8.406-18.332
				c4.173-10.262,8.635-22.35,8.312-33.48c-0.065-4.416-3.699-7.943-8.117-7.877c-0.076,0-0.151,0.002-0.227,0.006L115.733,1427.996
				z"/>
		</g>
		<path style="fill:#464C63;" d="M108.106,1412.113c-0.001,4.414,3.57,7.994,7.976,7.994c0,0,0,0,0,0
			c4.406,0,7.977-3.578,7.978-7.992v-0.002c0-4.414-3.572-7.992-7.978-7.992C111.677,1404.121,108.107,1407.699,108.106,1412.113z"
			/>
		<g shape-rendering="auto" image-rendering="auto" color-rendering="auto" color-interpolation="sRGB">
			<path style="fill:#464C63;" d="M228.073,1244.226c-3.501-0.012-6.603,2.254-7.656,5.59l-8,23.891
				c-1.398,4.189,0.867,8.719,5.059,10.115c0.817,0.271,1.673,0.41,2.534,0.41h31.906c4.418,0.072,8.058-3.449,8.13-7.865
				c0.072-4.414-3.451-8.053-7.869-8.125c-0.087-0.002-0.174-0.002-0.261,0h-20.813l4.469-13.367
				c1.467-4.166-0.723-8.73-4.891-10.197c-0.838-0.295-1.72-0.447-2.608-0.453L228.073,1244.226z"/>
			<path style="fill:#464C63;" d="M235.604,1268.461c-4.413,0.225-7.807,3.982-7.582,8.393c0.04,0.781,0.194,1.551,0.457,2.287
				c0,0,2.178,6.324,4.218,14.273c2.042,7.949,3.691,17.818,3.282,22.332c-0.432,4.73-3.413,10.18-7.187,16.646
				c-3.773,6.469-8.373,14.049-8.656,23.768c-0.128,4.416,3.349,8.1,7.767,8.229c4.418,0.129,8.104-3.348,8.233-7.764
				c0.16-4.607,2.766-9.834,6.469-16.18c3.701-6.344,8.445-13.721,9.312-23.266c0.816-9.004-1.504-19.1-3.718-27.734
				c-2.218-8.635-4.594-15.523-4.594-15.523c-1.134-3.412-4.407-5.648-8-5.465L235.604,1268.461z"/>
			<path style="fill:#464C63;" d="M228.167,1371.996c-4.418-0.068-8.056,3.455-8.125,7.869c0,0.002,0,0.002,0,0.002
				c-0.32,11.133,4.139,23.244,8.312,33.512c4.173,10.268,8.437,18.332,8.437,18.332c1.826,4.021,6.567,5.803,10.591,3.979
				c4.024-1.824,5.806-6.564,3.98-10.586c-0.124-0.271-0.263-0.537-0.416-0.795c0,0-3.896-7.477-7.749-16.959
				c-3.854-9.482-7.322-21.322-7.157-27.016c0.189-4.412-3.236-8.143-7.65-8.332C228.316,1372,228.241,1371.998,228.167,1371.996z"
				/>
		</g>
	</g>
</g>
<g>
</g>
<g>
</g>
<g>
</g>
<g>
</g>
<g>
</g>
<g>
</g>
<g>
</g>
<g>
</g>
<g>
</g>
<g>
</g>
<g>
</g>
<g>
</g>
<g>
</g>
<g>
</g>
<g>
</g>
</svg>
