<?xml version="1.0" encoding="iso-8859-1"?>
<!-- Generator: Adobe Illustrator 19.0.0, SVG Export Plug-In . SVG Version: 6.00 Build 0)  -->
<svg version="1.1" id="Layer_1" xmlns="http://www.w3.org/2000/svg" xmlns:xlink="http://www.w3.org/1999/xlink" x="0px" y="0px"
	 viewBox="0 0 512 512" style="enable-background:new 0 0 512 512;" xml:space="preserve">
<path style="fill:#57565C;" d="M83.29,398.3c-6.404,0-11.992-4.717-12.908-11.241c-1.001-7.137,3.974-13.736,11.111-14.737
	l309.302-43.396c7.123-0.997,13.735,3.974,14.737,11.111c1.001,7.138-3.974,13.737-11.112,14.738L85.12,398.172
	C84.506,398.257,83.894,398.3,83.29,398.3z"/>
<g>
	<path style="fill:#3E3D42;" d="M405.533,340.036c-1.002-7.137-7.615-12.108-14.737-11.111l-49.131,6.893L352.4,360.67l42.021-5.896
		C401.559,353.773,406.534,347.175,405.533,340.036z"/>
	<path style="fill:#3E3D42;" d="M81.493,372.322c-7.137,1.001-12.113,7.6-11.111,14.737c0.916,6.523,6.504,11.241,12.908,11.241
		c0.603,0,1.215-0.043,1.829-0.128l39.995-5.612l12.221-28.073L81.493,372.322z"/>
</g>
<g>
	<path style="fill:#C6C5CA;" d="M120.912,58.373h-51.1c-4.954,0-9.006-4.053-9.006-9.006V34.86c0-4.954,4.053-9.006,9.006-9.006
		h51.099c4.954,0,9.006,4.053,9.006,9.006v14.507C129.919,54.32,125.865,58.373,120.912,58.373z"/>
	<path style="fill:#C6C5CA;" d="M425.387,58.373h-51.099c-4.954,0-9.006-4.053-9.006-9.006V34.86c0-4.954,4.053-9.006,9.006-9.006
		h51.099c4.954,0,9.006,4.053,9.006,9.006v14.507C434.393,54.32,430.34,58.373,425.387,58.373z"/>
</g>
<g>
	<path style="fill:#ACABB1;" d="M129.919,49.367V34.86c0-4.954-4.053-9.006-9.006-9.006H74.196
		c0.578,11.149,2.224,22.019,4.816,32.52h41.9C125.865,58.373,129.919,54.32,129.919,49.367z"/>
	<path style="fill:#ACABB1;" d="M374.287,25.853c-4.954,0-9.006,4.053-9.006,9.006v14.507c0,4.954,4.053,9.006,9.006,9.006h41.9
		c2.592-10.5,4.238-21.371,4.816-32.52h-46.716V25.853z"/>
</g>
<rect x="185.657" y="261.908" transform="matrix(-0.3966 -0.918 0.918 -0.3966 255.5736 717.9072)" style="fill:#C6C5CA;" width="356.144" height="26.102"/>
<path style="fill:#ACABB1;" d="M305.073,106.307l-23.961,10.351l31.274,72.397c8.196-3.092,16.117-6.749,23.711-10.931
	L305.073,106.307z"/>
<path style="fill:#C6C5CA;" d="M30.401,512c-1.739,0-3.506-0.349-5.203-1.088c-6.609-2.876-9.635-10.566-6.757-17.175
	L192.856,93.078c2.876-6.609,10.568-9.636,17.175-6.757c6.609,2.876,9.635,10.566,6.757,17.175L42.373,504.156
	C40.235,509.068,35.436,512,30.401,512z"/>
<path style="fill:#ACABB1;" d="M210.031,86.321c-6.607-2.879-14.299,0.148-17.175,6.757l-36.382,83.575
	c7.53,4.308,15.391,8.102,23.536,11.329l36.778-84.486C219.666,96.887,216.64,89.197,210.031,86.321z"/>
<circle style="fill:#3E3D42;" cx="434.331" cy="450.684" r="60.316"/>
<g>
	<path style="fill:#57565C;" d="M434.326,490.115c-21.744,0-39.436-17.69-39.436-39.436s17.69-39.436,39.436-39.436
		s39.436,17.69,39.436,39.436S456.07,490.115,434.326,490.115z"/>
	<path style="fill:#57565C;" d="M271.647,257.15h-48.096c-8.614,0-15.661-7.048-15.661-15.661V108.119
		c0-8.614,7.048-15.661,15.661-15.661h48.096c8.614,0,15.661,7.048,15.661,15.661v133.368
		C287.309,250.102,280.261,257.15,271.647,257.15z"/>
</g>
<path style="fill:#3E3D42;" d="M271.647,92.458h-48.096c-8.614,0-15.661,7.048-15.661,15.661v88.39
	c12.794,2.824,26.079,4.327,39.71,4.327c13.631,0,26.915-1.502,39.709-4.327v-88.39C287.309,99.506,280.261,92.458,271.647,92.458z"
	/>
<path style="fill:#FF3F62;" d="M383.605,0H111.594c-9.253,0-16.755,7.501-16.755,16.755c0,84.231,68.527,152.759,152.76,152.759
	c84.231,0,152.759-68.527,152.759-152.759C400.358,7.501,392.858,0,383.605,0z"/>
<g>
	<path style="fill:#D80027;" d="M168.242,16.755C168.242,7.501,175.743,0,184.996,0h-73.402c-9.253,0-16.755,7.501-16.755,16.755
		c0,84.231,68.528,152.759,152.76,152.759c12.649,0,24.939-1.556,36.701-4.468C217.738,148.568,168.242,88.337,168.242,16.755z"/>
	<path style="fill:#D80027;" d="M341.687,101.274c-1.742,0-3.494-0.578-4.948-1.765c-3.349-2.736-3.848-7.669-1.112-11.019
		c8.061-9.872,14.356-20.909,18.71-32.808c1.486-4.06,5.982-6.15,10.044-4.663c4.062,1.486,6.15,5.983,4.663,10.044
		c-4.955,13.543-12.117,26.103-21.286,37.333C346.21,100.292,343.957,101.274,341.687,101.274z"/>
	<path style="fill:#D80027;" d="M289.632,138.524c-3.183,0-6.176-1.956-7.345-5.115c-1.501-4.056,0.571-8.561,4.627-10.062
		c8.579-3.174,16.783-7.404,24.385-12.571c3.578-2.43,8.447-1.501,10.878,2.075c2.431,3.577,1.501,8.447-2.075,10.878
		c-8.649,5.878-17.988,10.692-27.754,14.306C291.453,138.368,290.534,138.524,289.632,138.524z"/>
</g>
<g>
</g>
<g>
</g>
<g>
</g>
<g>
</g>
<g>
</g>
<g>
</g>
<g>
</g>
<g>
</g>
<g>
</g>
<g>
</g>
<g>
</g>
<g>
</g>
<g>
</g>
<g>
</g>
<g>
</g>
</svg>
