<?xml version="1.0" encoding="iso-8859-1"?>
<!-- Generator: Adobe Illustrator 19.0.0, SVG Export Plug-In . SVG Version: 6.00 Build 0)  -->
<svg version="1.1" id="Layer_1" xmlns="http://www.w3.org/2000/svg" xmlns:xlink="http://www.w3.org/1999/xlink" x="0px" y="0px"
	 viewBox="0 0 512 512" style="enable-background:new 0 0 512 512;" xml:space="preserve">
<path style="fill:#4E901E;" d="M489.823,0.322c0,0-377.535,47.925-489.81,493.639C0.011,493.991,399.481,280.723,489.823,0.322z"/>
<g>
	<circle style="fill:#D7FC7E;" cx="229.062" cy="224.381" r="93.671"/>
	<path style="fill:#D7FC7E;" d="M424.523,50.711c-36.789-32.467-92.963-31.133-128.135,4.039
		c-36.579,36.579-36.579,95.886,0,132.465c16.055,16.055,36.489,25.059,57.457,27.021C372.342,171.641,404.292,97.96,424.523,50.711
		z"/>
	<path style="fill:#D7FC7E;" d="M218.916,353.345c-1.156-22.322-10.251-44.309-27.3-61.358c-36.579-36.579-95.886-36.579-132.465,0
		s-36.579,95.886,0,132.465c1.318,1.318,2.676,2.576,4.051,3.8L218.916,353.345z"/>
</g>
<g>
	<path style="fill:#B2FA09;" d="M209.219,277.074c-36.579-36.579-36.579-95.886,0-132.465c5.419-5.419,11.345-10.014,17.614-13.827
		c-23.222,0.55-46.279,9.659-64.002,27.381c-36.579,36.579-36.579,95.886,0,132.465c31.16,31.16,78.804,35.756,114.851,13.827
		C252.973,305.04,228.076,295.931,209.219,277.074z"/>
	<path style="fill:#B2FA09;" d="M342.777,41.196c5.416-5.416,11.333-10.023,17.596-13.833c-23.216,0.548-46.266,9.669-63.985,27.387
		c-36.579,36.579-36.579,95.886,0,132.465c16.055,16.055,36.489,25.059,57.457,27.021c3.176-7.315,6.756-15.562,10.599-24.419
		c-7.777-4.21-15.094-9.582-21.667-16.155C306.197,137.082,306.197,77.776,342.777,41.196z"/>
	<path style="fill:#B2FA09;" d="M105.541,278.434c5.419-5.419,11.345-10.014,17.614-13.827c-23.222,0.55-46.28,9.659-64.002,27.381
		c-36.579,36.579-36.579,95.886,0,132.465c1.318,1.318,2.676,2.576,4.051,3.8l40.372-19.421
		C68.999,372.118,69.638,314.336,105.541,278.434z"/>
</g>
<path style="fill:#A4E276;" d="M505.476,3.895c-6.449-5.137-16.312-5.197-25.238-0.149c-5.279,2.984-130.871,74.691-269.95,213.77
	C128.52,299.283,59.159,387.452,4.131,479.575c-5.109,8.553-5.508,18.161-1.033,24.815c4.477,6.655,13.059,9.212,22.168,6.606
	c6.147-1.759,152.173-44.704,293.994-186.512c0.01-0.01,0.016-0.016,0.026-0.026C402.39,241.354,466.628,141.48,510.208,27.623
	C513.775,18.305,511.926,9.032,505.476,3.895z"/>
<path style="fill:#6DC82A;" d="M261.025,237.81C364.895,133.94,461.232,67.656,505.557,39.505c1.574-3.945,3.128-7.903,4.652-11.882
	c3.566-9.317,1.717-18.591-4.732-23.728c-6.449-5.137-16.312-5.197-25.238-0.15c-5.279,2.984-130.871,74.691-269.95,213.77
	C128.52,299.283,59.159,387.452,4.131,479.575c-5.109,8.553-5.508,18.161-1.033,24.815c4.477,6.655,13.059,9.212,22.168,6.606
	c1.55-0.444,12.007-3.512,29.04-10.12c0.184-0.336,0.363-0.673,0.562-1.006C109.896,407.747,179.257,319.577,261.025,237.81z"/>
<g>
</g>
<g>
</g>
<g>
</g>
<g>
</g>
<g>
</g>
<g>
</g>
<g>
</g>
<g>
</g>
<g>
</g>
<g>
</g>
<g>
</g>
<g>
</g>
<g>
</g>
<g>
</g>
<g>
</g>
</svg>
