<?xml version="1.0" encoding="iso-8859-1"?>
<!-- Generator: Adobe Illustrator 19.0.0, SVG Export Plug-In . SVG Version: 6.00 Build 0)  -->
<svg version="1.1" id="Layer_1" xmlns="http://www.w3.org/2000/svg" xmlns:xlink="http://www.w3.org/1999/xlink" x="0px" y="0px"
	 viewBox="0 0 511.999 511.999" style="enable-background:new 0 0 511.999 511.999;" xml:space="preserve">
<g>
	<path style="fill:#754F1E;" d="M290.209,72.46c-1.092,0-2.2-0.21-3.27-0.653c-4.364-1.807-6.437-6.81-4.628-11.175l16.366-39.51
		c7.219-17.429,27.273-25.739,44.701-18.515c17.428,7.22,25.733,27.273,18.514,44.702c-1.806,4.363-6.808,6.437-11.175,4.628
		c-4.364-1.807-6.437-6.81-4.628-11.175c3.609-8.715-0.544-18.741-9.258-22.352c-8.718-3.607-18.741,0.545-22.35,9.259
		l-16.366,39.51C296.75,70.471,293.565,72.46,290.209,72.46z"/>
	<path style="fill:#754F1E;" d="M221.79,72.46c-3.356,0-6.541-1.988-7.905-5.282l-16.365-39.51
		c-3.609-8.715-13.639-12.866-22.35-9.259c-8.714,3.61-12.867,13.638-9.258,22.352c1.808,4.364-0.265,9.368-4.629,11.175
		c-4.362,1.809-9.367-0.263-11.176-4.628c-7.219-17.428,1.086-37.482,18.514-44.702c17.431-7.22,37.482,1.088,44.702,18.515
		l16.365,39.51c1.808,4.364-0.265,9.368-4.629,11.175C223.991,72.249,222.882,72.46,221.79,72.46z"/>
</g>
<circle style="fill:#F9C900;" cx="255.995" cy="123.773" r="76.978"/>
<g>
	<circle style="fill:#754F1E;" cx="230.336" cy="81.008" r="8.553"/>
	<circle style="fill:#754F1E;" cx="281.655" cy="81.008" r="8.553"/>
</g>
<path style="fill:#F9AA0C;" d="M290.212,175.095c-42.514,0-76.978-34.465-76.978-76.978c0-17.399,5.779-33.446,15.514-46.339
	c-29.059,11.006-49.727,39.081-49.727,71.998c0,42.513,34.464,76.978,76.978,76.978c25.114,0,47.413-12.031,61.464-30.64
	C308.991,173.324,299.81,175.095,290.212,175.095z"/>
<path style="fill:#836134;" d="M136.256,303.393c0-66.133,53.611-119.744,119.744-119.744s119.744,53.611,119.744,119.744
	c0,56.605-87.726,172.965-113.004,205.317c-3.427,4.386-10.053,4.386-13.48,0C223.982,476.357,136.256,359.997,136.256,303.393z"/>
<path style="fill:#754F1E;" d="M187.574,334.274c0-66.133,53.611-119.744,119.744-119.744c11.838,0,23.271,1.727,34.07,4.926
	c-21.724-22.098-51.954-35.808-85.389-35.808c-66.133,0-119.744,53.611-119.744,119.744c0,56.605,87.726,172.965,113.004,205.317
	c3.427,4.386,10.053,4.386,13.48,0c2.094-2.681,4.627-5.951,7.495-9.705C235.068,449.921,187.574,375.923,187.574,334.274z"/>
<g>
	<path style="fill:#F9CE19;" d="M375.744,303.393c0-15.069-2.792-29.484-7.872-42.766H144.128
		c-5.081,13.282-7.872,27.697-7.872,42.766c0,2.718,0.206,5.576,0.594,8.553h238.3C375.537,308.968,375.744,306.11,375.744,303.393z
		"/>
	<path style="fill:#F9CE19;" d="M154.277,363.265c8.022,16.728,18.043,34.285,28.653,51.319h146.139
		c10.609-17.034,20.631-34.591,28.653-51.319H154.277z"/>
</g>
<g>
	<path style="fill:#FAB224;" d="M144.128,260.627c-5.081,13.282-7.872,27.697-7.872,42.766c0,2.718,0.206,5.576,0.594,8.553h52.811
		c3.602-19.094,11.731-36.588,23.237-51.319H144.128L144.128,260.627z"/>
	<path style="fill:#FAB224;" d="M154.277,363.265c8.022,16.728,18.043,34.285,28.653,51.319h33.191
		c-9.819-17.94-18.065-35.561-23.132-51.319H154.277z"/>
</g>
<g>
	<path style="fill:#F1EDE8;" d="M247.446,183.649c0,0,137.103-76.978,179.616-76.978s76.978,34.465,76.978,76.978
		s-34.465,76.978-76.978,76.978S247.446,183.649,247.446,183.649z"/>
	<path style="fill:#F1EDE8;" d="M264.553,183.649c0,0-137.103-76.978-179.616-76.978S7.958,141.135,7.958,183.649
		s34.464,76.978,76.978,76.978S264.553,183.649,264.553,183.649z"/>
</g>
<g>
	<path style="fill:#E3DCD2;" d="M232.35,166.263c-36.813,19.881-130.661,68.703-164.519,68.703
		c-21.146,0-40.295-8.531-54.208-22.333c11.451,28.143,39.057,47.993,71.314,47.993c42.514,0,179.616-76.978,179.616-76.978
		S251.562,176.355,232.35,166.263z"/>
	<path style="fill:#E3DCD2;" d="M279.65,166.263c36.813,19.881,130.661,68.703,164.519,68.703c21.146,0,40.295-8.531,54.208-22.333
		c-11.451,28.143-39.057,47.993-71.314,47.993c-42.514,0-179.616-76.978-179.616-76.978S260.438,176.355,279.65,166.263z"/>
</g>
<g>
</g>
<g>
</g>
<g>
</g>
<g>
</g>
<g>
</g>
<g>
</g>
<g>
</g>
<g>
</g>
<g>
</g>
<g>
</g>
<g>
</g>
<g>
</g>
<g>
</g>
<g>
</g>
<g>
</g>
</svg>
