<?xml version="1.0" encoding="iso-8859-1"?>
<!-- Generator: Adobe Illustrator 19.0.0, SVG Export Plug-In . SVG Version: 6.00 Build 0)  -->
<svg version="1.1" id="Layer_1" xmlns="http://www.w3.org/2000/svg" xmlns:xlink="http://www.w3.org/1999/xlink" x="0px" y="0px"
	 viewBox="0 0 511.999 511.999" style="enable-background:new 0 0 511.999 511.999;" xml:space="preserve">
<path style="fill:#957856;" d="M401.833,502.684c-8.144,0-13.887-4.586-20.322-11.88L170.084,239.512
	c-6.303-11.212,46.078-64.068,57.29-70.373c11.213-6.304,25.41-2.323,31.715,8.887l163.024,289.95
	c6.303,11.212,2.325,25.41-8.887,31.714C409.616,501.719,405.696,502.684,401.833,502.684z"/>
<path style="fill:#A78966;" d="M451.904,511.999c-8.144,0-13.663-4.426-20.322-11.88L220.156,248.828
	c-6.303-11.212,46.078-64.068,57.29-70.373c11.213-6.304,42.273,24.4,48.578,35.611l53.152,95.644l92.887,164.952
	c5.822,13.202,2.446,28.04-8.765,34.344C459.688,511.035,455.768,511.999,451.904,511.999z"/>
<path style="fill:#3E3D42;" d="M81.449,46.988c-1.304-1.175-3.14-1.577-4.816-1.054L40.549,57.191
	c-1.676,0.522-2.937,1.891-3.31,3.589c-0.372,1.698,0.203,3.469,1.506,4.644L66.825,90.73c0.652,0.588,1.437,0.982,2.268,1.164
	c0.831,0.182,1.709,0.152,2.548-0.11c1.676-0.522,2.937-1.891,3.31-3.589l8.005-36.562C83.328,49.934,82.754,48.164,81.449,46.988z"
	/>
<path style="fill:#B39A7C;" d="M310.711,189.656c25.133,64.75-6.983,137.614-71.731,162.747
	c-64.75,25.133-137.614-6.983-162.747-71.731S38.55,27.989,103.299,2.857S285.578,124.907,310.711,189.656z"/>
<path style="fill:#A0815C;" d="M103.43,263.564c-19.712-36.493-40.38-114.42-43.277-182.062
	c-10.769,67.235,0.115,158.045,16.078,199.169c25.133,64.75,97.997,96.864,162.746,71.731c21.309-8.271,39.082-21.713,52.444-38.333
	c-2.098,1.285-4.237,2.525-6.428,3.708C219.886,352.943,138.597,328.672,103.43,263.564z"/>
<path style="fill:#957856;" d="M380.472,333.267c0,0,7.535-7.789-1.298-23.556c-24.368-43.497-82.368-148.447-82.368-148.447
	c-16.21-28.096-32.051-48.354-32.051-48.354c-11.75-9.944-26.933-15.955-43.53-15.955c-71.325,0-65.816,82.151-65.816,82.151
	s-0.098,114.361,127.627,102.215c0,0.041,5.679,10.218,16.119,22.012c13.793,15.581,35.903,33.98,64.241,35.567
	C366.406,339.022,375.499,338.888,380.472,333.267z"/>
<g>
	<path style="fill:#806749;" d="M257.408,260.863c-88.409-12.239-88.351-101.72-88.351-101.72s-1.611-24.111,8.249-46.209
		c-24.728,23.897-21.897,66.171-21.897,66.171s-0.083,100.335,104.877,103.058L257.408,260.863z"/>
	<path style="fill:#806749;" d="M243.687,216.614c0,0-2.626-4.834-6.356-3.768c-4.497,1.285-2.707,8.001-2.707,8.001l16.712,60.822
		c9.582,0.802,20.108,0.754,31.699-0.349L243.687,216.614z"/>
	<path style="fill:#806749;" d="M329.713,295.846c-2.635,0-5.207-1.326-6.691-3.733l-55.477-90.019
		c-2.275-3.691-1.126-8.527,2.564-10.801c3.689-2.273,8.527-1.126,10.801,2.564l55.477,90.019c2.275,3.691,1.126,8.527-2.565,10.801
		C332.541,295.469,331.119,295.846,329.713,295.846z"/>
	<path style="fill:#806749;" d="M161.929,382.44c-1.835,0-3.677-0.638-5.167-1.942c-3.263-2.855-3.594-7.815-0.739-11.078
		c0.517-0.59,12.87-14.475,31.071-15.081c11.606-0.398,22.649,4.559,32.79,14.699c3.066,3.067,3.066,8.037,0,11.103
		c-3.067,3.065-8.037,3.065-11.103,0c-6.944-6.945-14.053-10.343-21.165-10.11c-11.287,0.376-19.694,9.635-19.777,9.728
		C166.288,381.534,164.115,382.44,161.929,382.44z"/>
</g>
<path style="fill:#554431;" d="M126.291,55.498c-2.009,0-4.018-0.766-5.551-2.299c-2.671-2.671-5.274-3.969-7.957-3.969
	c-0.015,0-0.028,0-0.044,0c-4.659,0.024-8.714,3.871-8.752,3.91c-3.032,3.096-8.002,3.151-11.102,0.117
	c-3.098-3.032-3.151-8.003-0.117-11.102c0.858-0.876,8.708-8.567,19.888-8.626c0.041,0,0.083,0,0.124,0
	c4.818,0,11.994,1.501,19.062,8.567c3.067,3.066,3.067,8.037,0.001,11.102C130.31,54.732,128.3,55.498,126.291,55.498z"/>
<circle style="fill:#FF3F62;" cx="149.179" cy="70.933" r="14.51"/>
<g>
</g>
<g>
</g>
<g>
</g>
<g>
</g>
<g>
</g>
<g>
</g>
<g>
</g>
<g>
</g>
<g>
</g>
<g>
</g>
<g>
</g>
<g>
</g>
<g>
</g>
<g>
</g>
<g>
</g>
</svg>
