<?xml version="1.0" encoding="iso-8859-1"?>
<!-- Generator: Adobe Illustrator 19.0.0, SVG Export Plug-In . SVG Version: 6.00 Build 0)  -->
<svg version="1.1" id="Layer_1" xmlns="http://www.w3.org/2000/svg" xmlns:xlink="http://www.w3.org/1999/xlink" x="0px" y="0px"
	 viewBox="0 0 512 512" style="enable-background:new 0 0 512 512;" xml:space="preserve">
<path style="fill:#91DC5A;" d="M459.663,284.845c0.294,61.966-22.021,114.655-59.073,156.451
	c-36.944,41.044-88.625,71.194-144.59,70.699c-55.965,0.495-107.645-29.655-144.59-70.698
	C74.359,399.5,52.042,346.811,52.337,284.845c0.343-35.679,7.164-73.362,19.844-109.747c9.156-26.272,357.997-27.285,367.09-1.561
	C452.303,210.403,459.316,248.656,459.663,284.845z"/>
<g>
	<path style="fill:#6DC82A;" d="M155.406,441.296c-37.051-41.796-59.368-94.485-59.073-156.452
		c0.589-61.441,20.392-128.83,56.245-185.286c31.229-48.785,74.763-89.187,125.42-97.842c-7.194-1.23-14.531-1.819-21.997-1.701
		c-60.041-0.953-111.755,43.829-147.418,99.543c-35.853,56.458-55.655,123.845-56.245,185.286
		c-0.295,61.967,22.021,114.655,59.073,156.452c36.944,41.044,88.625,71.193,144.59,70.698c7.417,0.066,14.755-0.422,21.997-1.387
		C230.594,504.292,187.454,476.9,155.406,441.296z"/>
	<path style="fill:#6DC82A;" d="M72.743,173.523c-5.796,16.401-10.401,33.076-13.759,49.723
		c14.986,28.799,36.27,54.351,62.189,74.207c38.985,29.866,85.608,45.652,134.827,45.652s95.843-15.786,134.827-45.652
		c25.919-19.855,47.204-45.407,62.19-74.207c-3.376-16.73-8.01-33.49-13.847-49.971C430.092,147.642,81.831,147.803,72.743,173.523z
		"/>
	<path style="fill:#6DC82A;" d="M257.361,488.49c-4.329,0-7.837-3.509-7.837-7.837s3.508-7.837,7.837-7.837
		c32.053,0,65.935-13.99,95.403-39.395c3.28-2.825,8.228-2.46,11.053,0.819c2.825,3.279,2.46,8.226-0.818,11.053
		C330.684,473.149,293.168,488.49,257.361,488.49z"/>
	<path style="fill:#6DC82A;" d="M149.867,212.354c0,1.36-78.275-35.512-78.275-35.512c-12.295,35.845-18.917,72.896-19.253,108.008
		c-0.295,61.967,22.021,114.655,59.073,156.452c2.503,2.779,5.077,5.505,7.712,8.178
		C119.23,450.634,172.976,350.553,149.867,212.354z"/>
</g>
<g>
	<path style="fill:#5EAC24;" d="M110.54,192.704c-18.449-9.626-36.442-19.166-36.442-19.166s-0.933,1.14-2.507,3.304
		c-12.295,35.845-18.917,72.896-19.253,108.008c-0.295,61.967,22.021,114.656,59.073,156.452c2.503,2.779,5.077,5.505,7.712,8.178
		c0.039,0.419,7.151-12.52,15.087-35.775c-24.177-36.613-38.111-79.829-37.878-128.859
		C96.62,254.893,101.486,223.528,110.54,192.704z"/>
	<path style="fill:#5EAC24;" d="M149.867,212.358c0,0.91-43.63-30.352-72.526-51.157c-8.002,20.326-14.159,41.201-18.364,62.03
		c14.986,28.806,36.275,54.363,62.198,74.221c10.44,7.998,21.432,14.975,32.87,20.921
		C156.785,286.973,156.356,251.169,149.867,212.358z"/>
</g>
<path style="fill:#6DC82A;" d="M362.133,212.354l78.275-35.512c12.295,35.845,18.917,72.896,19.253,108.008
	c0.295,61.967-22.021,114.655-59.073,156.452c-2.503,2.779-5.077,5.505-7.712,8.178C392.77,450.634,339.025,350.553,362.133,212.354
	z"/>
<path style="fill:#5EAC24;" d="M453.008,223.263c-4.509-22.334-11.244-44.721-20.107-66.427l-70.767,55.523
	c-6.49,38.811-6.918,74.615-4.176,106.014c11.439-5.945,22.431-12.923,32.87-20.921
	C416.741,277.601,438.022,252.056,453.008,223.263z"/>
<path style="fill:#FFEB99;" d="M72.737,173.534C95.471,253.328,168.911,311.758,256,311.758s160.53-58.43,183.263-138.224
	c-9.093-25.723-21.11-50.773-35.844-73.975C367.755,43.845,316.042-0.937,256,0.015c-60.041-0.953-111.755,43.829-147.418,99.543
	C93.848,122.76,81.83,147.811,72.737,173.534z"/>
<g>
	<path style="fill:#FFDE55;" d="M382.947,225.041c-1.647,0-3.306-0.517-4.722-1.587c-3.452-2.611-4.134-7.526-1.522-10.978
		c9.449-12.493,16.864-26.218,22.036-40.794c1.449-4.079,5.927-6.211,10.007-4.765c4.078,1.447,6.211,5.928,4.765,10.006
		c-5.711,16.089-13.889,31.232-24.307,45.007C387.662,223.969,385.319,225.041,382.947,225.041z"/>
	<path style="fill:#FFDE55;" d="M256,288.248c-4.329,0-7.837-3.509-7.837-7.837s3.508-7.837,7.837-7.837
		c33.577,0,65.368-10.758,91.936-31.111c3.437-2.633,8.356-1.98,10.987,1.456c2.632,3.436,1.981,8.355-1.457,10.987
		C328.14,276.373,293.053,288.248,256,288.248z"/>
	<path style="fill:#FFDE55;" d="M277.997,1.716c-7.194-1.23-14.53-1.819-21.997-1.701c-60.041-0.953-111.755,43.829-147.418,99.543
		c-14.734,23.202-26.751,48.252-35.845,73.976c6.095,21.394,15.84,41.25,28.511,58.858c7.978-45.742,25.48-92.129,51.329-132.834
		C183.806,50.773,227.342,10.371,277.997,1.716z"/>
</g>
<path style="fill:#FF6243;" d="M298.008,143.155c0,0-40.648-53.268-84.016,0C214.009,143.713,252.667,192.508,298.008,143.155z"/>
<path style="fill:#FF9478;" d="M213.992,143.155h84.016C298.008,143.155,257.361,89.888,213.992,143.155z"/>
<g>
	<circle style="fill:#3E3D42;" cx="212.01" cy="89.893" r="14.06"/>
	<circle style="fill:#3E3D42;" cx="300.001" cy="89.893" r="14.06"/>
</g>
<g>
	<circle style="fill:#FF3F62;" cx="155.314" cy="131.386" r="27.439"/>
	<circle style="fill:#FF3F62;" cx="356.686" cy="131.386" r="27.439"/>
</g>
<g>
</g>
<g>
</g>
<g>
</g>
<g>
</g>
<g>
</g>
<g>
</g>
<g>
</g>
<g>
</g>
<g>
</g>
<g>
</g>
<g>
</g>
<g>
</g>
<g>
</g>
<g>
</g>
<g>
</g>
</svg>
