<?xml version="1.0" encoding="iso-8859-1"?>
<!-- Generator: Adobe Illustrator 19.0.0, SVG Export Plug-In . SVG Version: 6.00 Build 0)  -->
<svg version="1.1" id="Layer_1" xmlns="http://www.w3.org/2000/svg" xmlns:xlink="http://www.w3.org/1999/xlink" x="0px" y="0px"
	 viewBox="0 0 512 512" style="enable-background:new 0 0 512 512;" xml:space="preserve">
<path style="fill:#6DC82A;" d="M163.22,71.452c-0.569,2.54-5.382,25.551,0.641,50.811c5.403,22.662,23.571,61.159,84.541,64.384
	c8.536,0.451,16.249-5.064,18.583-13.287c0.689-2.425,6.551-24.413,0.602-49.368c0-0.002-0.001-0.003-0.001-0.003
	c-3.957-16.592-12.158-30.588-24.377-41.599c-14.622-13.175-34.674-21.612-59.599-25.074
	C174.169,56.002,165.301,62.151,163.22,71.452z"/>
<path style="fill:#5EAC24;" d="M197.409,100.001c-3.812-15.987-3.283-31.065-2.236-40.631c-3.734-0.807-7.579-1.502-11.564-2.056
	c-9.44-1.312-18.307,4.837-20.389,14.137c-0.569,2.54-5.382,25.551,0.641,50.811c5.403,22.662,23.571,61.159,84.541,64.384
	c8.536,0.451,16.249-5.064,18.583-13.287c0.261-0.918,1.261-4.64,2.083-10.26C218.358,155.525,202.411,120.979,197.409,100.001z"/>
<path style="fill:#6DC82A;" d="M48.623,247.777c-0.09,2.602-0.566,26.105,10.023,49.817c9.5,21.272,34.473,55.747,94.987,47.644
	c8.473-1.135,15.033-7.981,15.806-16.494c0.228-2.511,1.925-25.203-8.536-48.629c-0.001-0.002-0.001-0.003-0.001-0.003
	c-6.956-15.574-17.604-27.812-31.648-36.375c-16.805-10.244-38.072-14.829-63.207-13.623
	C56.527,230.569,48.95,238.251,48.623,247.777z"/>
<path style="fill:#5EAC24;" d="M92.197,275.332c-8.218-18.402-9.77-36.671-10.012-45.151c-5.188-0.301-10.562-0.335-16.136-0.068
	c-9.52,0.456-17.097,8.138-17.424,17.664c-0.09,2.602-0.566,26.105,10.023,49.817c9.5,21.272,34.473,55.747,94.987,47.644
	c8.473-1.135,15.033-7.981,15.806-16.494c0.051-0.566,0.177-2.168,0.221-4.565C121.714,324.136,100.721,294.421,92.197,275.332z"/>
<path style="fill:#6DC82A;" d="M334.482,375.768c-1.224-2.298-12.563-22.891-33.59-38.13
	c-18.863-13.671-57.728-31.041-106.083,6.234c-6.77,5.22-9.028,14.428-5.441,22.188c1.058,2.288,10.935,22.789,31.707,37.846
	c0.001,0.001,0.003,0.002,0.003,0.002c13.812,10.01,29.151,15.283,45.596,15.677c19.676,0.469,40.385-6.195,61.551-19.806
	C336.241,394.621,338.962,384.18,334.482,375.768z"/>
<path style="fill:#5EAC24;" d="M279.933,384.692c-16.444-0.393-31.784-5.666-45.596-15.677c0,0-0.001-0.001-0.003-0.002
	c-15.222-11.034-24.587-24.982-28.924-32.553c-3.479,2.188-7.013,4.645-10.6,7.412c-6.77,5.22-9.028,14.428-5.441,22.188
	c1.058,2.288,10.935,22.788,31.708,37.846c0.001,0.001,0.003,0.002,0.003,0.002c13.812,10.01,29.151,15.283,45.596,15.677
	c19.676,0.469,40.385-6.195,61.551-19.806c8.016-5.155,10.737-15.597,6.257-24.009c-0.314-0.59-1.301-2.394-2.943-4.998
	C313.834,380.396,296.515,385.088,279.933,384.692z"/>
<path style="fill:#6DC82A;" d="M408.709,275.005c-2.358,1.103-23.789,10.768-49.753,10.335
	c-23.293-0.388-64.804-9.825-81.104-68.662c-2.282-8.239,1.439-16.959,8.966-21.012c2.22-1.195,22.425-11.663,48.076-11.237
	c0.002,0,0.003,0,0.003,0c17.055,0.284,32.489,5.274,45.877,14.83c16.019,11.436,28.582,29.195,37.34,52.788
	C421.432,260.981,417.342,270.966,408.709,275.005z"/>
<path style="fill:#5EAC24;" d="M379.891,250.449c-22.205-0.371-60.966-8.963-78.659-60.737c-8.059,2.633-13.341,5.376-14.413,5.953
	c-7.526,4.053-11.248,12.773-8.966,21.012c16.301,58.838,57.811,68.275,81.104,68.662c25.965,0.432,47.396-9.231,49.753-10.334
	c8.632-4.039,12.724-14.024,9.407-22.959c-0.853-2.3-1.754-4.526-2.68-6.714C406.367,248.023,393.779,250.68,379.891,250.449z"/>
<path style="fill:#A0815C;" d="M123.472,512c-1.225,0-2.468-0.146-3.712-0.446c-8.428-2.044-13.602-10.532-11.56-18.958
	c15.59-64.294,39.918-127.827,72.311-188.833c25.873-48.73,56.923-95.969,92.287-140.407
	C333.111,87.566,384.57,46.573,386.731,44.865c6.802-5.376,16.677-4.219,22.054,2.583c5.375,6.801,4.221,16.67-2.576,22.048
	c-0.525,0.415-51.308,40.963-109.429,114.155c-53.429,67.282-124.222,176.78-158.062,316.343
	C136.976,507.178,130.551,511.999,123.472,512z"/>
<path style="fill:#6DC82A;" d="M447.473,0.7c-2.581-0.339-25.932-3.067-50.549,5.199c-22.085,7.416-58.796,28.967-56.534,89.98
	c0.317,8.542,6.502,15.729,14.902,17.315c2.478,0.468,24.903,4.333,49.224-3.832c0.002-0.001,0.003-0.001,0.003-0.001
	c16.17-5.43,29.372-14.855,39.242-28.014c11.809-15.745,18.412-36.474,19.623-61.61C463.843,10.218,456.923,1.938,447.473,0.7z"/>
<path style="fill:#5EAC24;" d="M427.628,33.331c13.055-4.384,25.753-5.675,35.186-5.871c0.244-2.528,0.443-5.092,0.569-7.718
	c0.46-9.52-6.46-17.8-15.91-19.038c-2.581-0.338-25.932-3.067-50.549,5.199c-22.085,7.416-58.796,28.967-56.534,89.98
	c0.317,8.542,6.502,15.729,14.902,17.315c1.208,0.228,7.169,1.261,15.773,1.316C372.478,60.214,406.643,40.377,427.628,33.331z"/>
<g>
</g>
<g>
</g>
<g>
</g>
<g>
</g>
<g>
</g>
<g>
</g>
<g>
</g>
<g>
</g>
<g>
</g>
<g>
</g>
<g>
</g>
<g>
</g>
<g>
</g>
<g>
</g>
<g>
</g>
</svg>
