<?xml version="1.0" encoding="iso-8859-1"?>
<!-- Generator: Adobe Illustrator 19.0.0, SVG Export Plug-In . SVG Version: 6.00 Build 0)  -->
<svg version="1.1" id="Layer_1" xmlns="http://www.w3.org/2000/svg" xmlns:xlink="http://www.w3.org/1999/xlink" x="0px" y="0px"
	 viewBox="0 0 512 512" style="enable-background:new 0 0 512 512;" xml:space="preserve">
<path style="fill:#806749;" d="M435.827,512c-6.446,0-12.487-4.003-14.776-10.423c-43.413-121.766-125.382-231.311-186.5-301.765
	C167.976,123.067,110.981,74.744,110.413,74.265c-6.621-5.586-7.463-15.482-1.878-22.104c5.586-6.623,15.481-7.464,22.102-1.882
	c2.381,2.008,59.105,50.065,127.227,128.527c40.025,46.101,75.586,93.101,105.695,139.695
	c37.793,58.486,67.079,116.536,87.044,172.538c2.909,8.16-1.347,17.134-9.508,20.044C439.356,511.705,437.576,512,435.827,512z"/>
<path style="fill:#5F4D37;" d="M130.636,50.279c-6.621-5.581-16.516-4.741-22.102,1.882c-5.585,6.622-4.743,16.518,1.878,22.104
	c0.295,0.249,15.87,13.455,40.116,36.87c8.704-5.99,16.128-13.699,21.802-22.63C147.782,64.799,131.873,51.322,130.636,50.279z"/>
<path style="fill:#806749;" d="M144.947,256.108c-25.299,0-50.422-5.108-73.818-15.116c-7.965-3.407-11.661-12.626-8.253-20.592
	c3.407-7.966,12.628-11.661,20.592-8.253c54.373,23.258,116.275,14.124,161.546-23.844c45.272-37.966,65.053-97.328,51.621-154.923
	c-1.967-8.436,3.277-16.872,11.715-18.84c8.433-1.966,16.872,3.279,18.84,11.715c7.74,33.193,6.285,67.906-4.21,100.383
	c-10.795,33.407-30.785,63.042-57.805,85.702c-27.021,22.661-59.685,37.182-94.462,41.992
	C162.143,255.519,153.535,256.108,144.947,256.108z"/>
<g>
	<path style="fill:#5F4D37;" d="M308.359,14.542c-8.437,1.968-13.682,10.402-11.715,18.84c6.943,29.773,4.991,60.009-4.75,87.527
		c7.714,2.556,15.948,3.96,24.509,3.96c2.439,0,4.848-0.128,7.231-0.347c9.885-31.867,11.138-65.789,3.565-98.264
		C325.231,17.82,316.794,12.576,308.359,14.542z"/>
	<path style="fill:#5F4D37;" d="M83.468,212.147c-7.964-3.408-17.185,0.287-20.592,8.253c-3.408,7.966,0.288,17.185,8.253,20.592
		c23.396,10.008,48.519,15.116,73.818,15.116c6.97,0,13.952-0.409,20.917-1.188c2.706-7.915,4.197-16.387,4.197-25.207
		c0-2.317-0.121-4.606-0.32-6.872C141.171,227.458,111.333,224.067,83.468,212.147z"/>
</g>
<path style="fill:#806749;" d="M248.61,402.97c-25.301,0-50.421-5.108-73.819-15.116c-7.965-3.407-11.661-12.626-8.253-20.592
	c3.407-7.966,12.626-11.661,20.592-8.253c54.373,23.258,116.276,14.123,161.547-23.843c45.272-37.967,65.052-97.329,51.621-154.924
	c-1.967-8.436,3.277-16.872,11.715-18.84c8.433-1.964,16.873,3.279,18.84,11.715c7.74,33.193,6.285,67.906-4.21,100.383
	c-10.795,33.407-30.784,63.042-57.805,85.703c-27.021,22.66-59.685,37.181-94.462,41.99
	C265.808,402.38,257.196,402.97,248.61,402.97z"/>
<g>
	<path style="fill:#5F4D37;" d="M412.023,161.403c-8.437,1.968-13.682,10.402-11.715,18.84c6.943,29.773,4.989,60.009-4.75,87.527
		c7.714,2.556,15.948,3.96,24.509,3.96c2.439,0,4.848-0.128,7.231-0.347c9.885-31.867,11.138-65.789,3.565-98.264
		C428.896,164.681,420.457,159.44,412.023,161.403z"/>
	<path style="fill:#5F4D37;" d="M187.131,359.01c-7.966-3.408-17.185,0.287-20.592,8.253c-3.408,7.966,0.288,17.185,8.253,20.592
		c23.398,10.008,48.518,15.116,73.819,15.116c6.968,0,13.952-0.409,20.917-1.188c2.707-7.915,4.197-16.388,4.197-25.207
		c0-2.317-0.121-4.606-0.32-6.873C244.835,374.319,214.996,370.928,187.131,359.01z"/>
</g>
<circle style="fill:#D80027;" cx="106.355" cy="46.747" r="46.747"/>
<path style="fill:#A5001E;" d="M102.108,57.204c0-21.887,15.044-40.256,35.355-45.342C129.199,4.487,118.304,0,106.358,0
	C80.541,0,59.611,20.929,59.611,46.747s20.929,46.747,46.747,46.747c3.93,0,7.745-0.492,11.393-1.405
	C108.155,83.528,102.108,71.075,102.108,57.204z"/>
<circle style="fill:#D80027;" cx="316.391" cy="46.747" r="46.747"/>
<path style="fill:#A5001E;" d="M312.144,57.204c0-21.887,15.044-40.256,35.355-45.342C339.235,4.487,328.34,0,316.394,0
	c-25.817,0-46.747,20.929-46.747,46.747s20.929,46.747,46.747,46.747c3.93,0,7.745-0.492,11.393-1.405
	C318.191,83.528,312.144,71.075,312.144,57.204z"/>
<circle style="fill:#D80027;" cx="91.944" cy="229.718" r="46.747"/>
<path style="fill:#A5001E;" d="M87.69,240.169c0-21.887,15.044-40.256,35.355-45.342c-8.264-7.374-19.159-11.861-31.105-11.861
	c-25.817,0-46.747,20.929-46.747,46.747s20.929,46.747,46.747,46.747c3.93,0,7.745-0.492,11.393-1.404
	C93.737,266.495,87.69,254.041,87.69,240.169z"/>
<circle style="fill:#D80027;" cx="420.06" cy="193.607" r="46.747"/>
<path style="fill:#A5001E;" d="M415.808,204.066c0-21.887,15.044-40.256,35.355-45.342c-8.264-7.374-19.159-11.861-31.105-11.861
	c-25.817,0-46.747,20.929-46.747,46.747s20.929,46.747,46.747,46.747c3.93,0,7.745-0.492,11.393-1.404
	C421.855,230.39,415.808,217.936,415.808,204.066z"/>
<circle style="fill:#D80027;" cx="195.603" cy="376.578" r="46.747"/>
<path style="fill:#A5001E;" d="M191.354,387.031c0-21.887,15.044-40.256,35.355-45.342c-8.264-7.374-19.159-11.861-31.105-11.861
	c-25.817,0-46.747,20.929-46.747,46.747s20.929,46.747,46.747,46.747c3.93,0,7.745-0.492,11.393-1.404
	C197.4,413.356,191.354,400.903,191.354,387.031z"/>
<g>
</g>
<g>
</g>
<g>
</g>
<g>
</g>
<g>
</g>
<g>
</g>
<g>
</g>
<g>
</g>
<g>
</g>
<g>
</g>
<g>
</g>
<g>
</g>
<g>
</g>
<g>
</g>
<g>
</g>
</svg>
