<?xml version="1.0" encoding="iso-8859-1"?>
<!-- Generator: Adobe Illustrator 19.0.0, SVG Export Plug-In . SVG Version: 6.00 Build 0)  -->
<svg version="1.1" id="Layer_1" xmlns="http://www.w3.org/2000/svg" xmlns:xlink="http://www.w3.org/1999/xlink" x="0px" y="0px"
	 viewBox="0 0 512 512" style="enable-background:new 0 0 512 512;" xml:space="preserve">
<path style="fill:#C9801F;" d="M512,285.41C512,396.766,397.383,428.2,256.006,428.2C114.617,428.199,0,396.766,0,285.41
	c0-67.323,41.908-126.941,106.303-163.565c7.316-4.157,14.93-8.028,22.797-11.565c37.406-16.86,80.726-26.484,126.906-26.484
	s89.5,9.636,126.906,26.484c7.867,3.537,15.481,7.408,22.797,11.565c0,0,0,0,0.011,0C470.092,158.481,512,218.087,512,285.41z"/>
<g>
	<path style="fill:#B76F18;" d="M314.571,402.363c-141.385,0-256-31.442-256-142.791c0-66.107,40.399-124.784,102.812-161.552
		C66.835,127.658,0.002,200.385,0.002,285.412c0,111.35,114.615,142.792,256,142.792c82.793,0,156.392-10.792,203.186-42.088
		C418.039,397.826,368.239,402.363,314.571,402.363z"/>
	<path style="fill:#B76F18;" d="M414.782,388.221c-1.103,0.459-2.24,0.678-3.365,0.678c-3.354,0-6.535-1.964-7.936-5.249
		c-38.393-90.511-92.647-150.955-147.475-191.312c-4.95-3.652-9.911-7.132-14.873-10.463
		c-49.35-33.145-98.034-50.728-134.831-60.031c7.316-4.157,14.93-8.028,22.797-11.565c36.786,11.002,81.737,29.573,126.906,60.846
		c4.961,3.434,9.911,7.017,14.861,10.75c55.356,41.873,109.748,103.718,148.474,195.045
		C421.202,381.307,419.158,386.361,414.782,388.221z"/>
	<path style="fill:#B76F18;" d="M405.709,121.845c-36.809,9.303-85.481,26.886-134.842,60.031c-4.95,3.319-9.9,6.81-14.861,10.463
		c-54.817,40.346-109.093,100.79-147.487,191.312c-1.39,3.285-4.582,5.249-7.936,5.249c-1.114,0-2.262-0.218-3.354-0.678
		c-4.387-1.861-6.431-6.914-4.571-11.301c38.738-91.326,93.118-153.172,148.474-195.045c4.961-3.744,9.923-7.327,14.873-10.75
		c45.169-31.284,90.121-49.844,126.906-60.846C390.779,113.817,398.393,117.687,405.709,121.845z"/>
</g>
<g>
</g>
<g>
</g>
<g>
</g>
<g>
</g>
<g>
</g>
<g>
</g>
<g>
</g>
<g>
</g>
<g>
</g>
<g>
</g>
<g>
</g>
<g>
</g>
<g>
</g>
<g>
</g>
<g>
</g>
</svg>
