<?xml version="1.0" encoding="iso-8859-1"?>
<!-- Generator: Adobe Illustrator 19.0.0, SVG Export Plug-In . SVG Version: 6.00 Build 0)  -->
<svg version="1.1" id="Layer_1" xmlns="http://www.w3.org/2000/svg" xmlns:xlink="http://www.w3.org/1999/xlink" x="0px" y="0px"
	 viewBox="0 0 512 512" style="enable-background:new 0 0 512 512;" xml:space="preserve">
<path style="fill:#FCC447;" d="M512,294.348c0,89.905-114.614,86.088-255.994,86.088C114.614,380.436,0,384.253,0,294.348
	c0-48.93,33.936-92.819,87.658-122.664c10-5.553,20.678-10.618,31.962-15.137c19.227-7.717,40.179-13.853,62.414-18.109
	c11.201-2.14,22.723-3.817,34.507-4.97c12.866-1.272,26.041-1.926,39.465-1.926c10.939,0,21.724,0.44,32.307,1.284
	c16.041,1.284,31.605,3.508,46.576,6.587C437.673,160.566,512,221.933,512,294.348z"/>
<g>
	<path style="fill:#F2B844;" d="M54.697,294.345c0-84.036,100.129-153.192,228.654-161.874c-8.987-0.606-18.108-0.926-27.349-0.926
		C114.616,131.547,0,204.434,0,294.345s114.616,86.088,256.002,86.088c2.498,0,4.985,0.001,7.466,0.004
		C144.648,380.084,54.697,373.994,54.697,294.345z"/>
	<path style="fill:#F2B844;" d="M283.351,380.455c6.709,0.004,13.339,0.001,19.882-0.018
		C296.539,380.442,289.909,380.451,283.351,380.455z"/>
</g>
<g>
	<path style="fill:#DDA137;" d="M158.494,241.86c0.933,3.479-3.901,5.379-5.602,2.203c-27.17-50.71-65.221-72.368-65.221-72.368
		s0,0-0.012-0.012c10-5.553,20.678-10.618,31.962-15.137C140.651,185.725,152.363,219.024,158.494,241.86z"/>
	<path style="fill:#DDA137;" d="M268.792,229.9c1.054,3.527-3.914,5.51-5.603,2.24c-33.589-65.034-82.26-92.74-82.26-92.74
		l1.106-0.963c11.201-2.14,22.723-3.817,34.507-4.97C246.253,168.107,261.345,204.963,268.792,229.9z"/>
	<path style="fill:#DDA137;" d="M374.986,222.705c1.018,3.527-3.906,5.485-5.606,2.232c-33.573-64.277-81.708-91.684-81.708-91.684
		l0.642-0.428c16.04,1.284,31.605,3.508,46.576,6.587C355.52,165.144,368.033,198.622,374.986,222.705z"/>
</g>
<g>
</g>
<g>
</g>
<g>
</g>
<g>
</g>
<g>
</g>
<g>
</g>
<g>
</g>
<g>
</g>
<g>
</g>
<g>
</g>
<g>
</g>
<g>
</g>
<g>
</g>
<g>
</g>
<g>
</g>
</svg>
