<?xml version="1.0" encoding="iso-8859-1"?>
<!-- Generator: Adobe Illustrator 19.0.0, SVG Export Plug-In . SVG Version: 6.00 Build 0)  -->
<svg version="1.1" id="Layer_1" xmlns="http://www.w3.org/2000/svg" xmlns:xlink="http://www.w3.org/1999/xlink" x="0px" y="0px"
	 viewBox="0 0 512.006 512.006" style="enable-background:new 0 0 512.006 512.006;" xml:space="preserve">
<ellipse style="fill:#96C8EF;" cx="432.643" cy="266.998" rx="79.363" ry="179.106"/>
<path style="fill:#5AAAE7;" d="M470.114,248.685c0,57.727-22.667,106.004-65.549,139.608c-7.266,5.694-15.004,10.876-23.173,15.541
	c-17.195-32.854-28.115-81.921-28.115-136.749c0-78.911,22.612-145.9,54.009-169.773
	C446.083,136.086,470.114,189.632,470.114,248.685z"/>
<ellipse style="fill:#96C8EF;" cx="79.363" cy="266.998" rx="79.363" ry="179.106"/>
<path style="fill:#5AAAE7;" d="M41.886,248.686c0,57.727,22.667,106.004,65.549,139.608c7.266,5.694,15.004,10.876,23.173,15.541
	c17.195-32.854,28.115-81.921,28.115-136.749c0-78.911-22.612-145.9-54.009-169.773C65.918,136.087,41.886,189.633,41.886,248.686z"
	/>
<path style="fill:#D1E7F8;" d="M438.695,248.597c0,100.899-81.796,154.08-182.695,154.08S73.305,349.497,73.305,248.597
	S155.101,65.902,256,65.902S438.695,147.698,438.695,248.597z"/>
<path style="fill:#96C8EF;" d="M131.952,240.444c0-81.988,54.006-151.362,128.385-174.487c-1.442-0.034-2.887-0.054-4.338-0.054
	c-100.899,0-182.695,81.796-182.695,182.695S155.101,402.679,256,402.679c23.009,0,45.017-2.774,65.296-8.24
	c-2.208,0.052-4.422,0.087-6.648,0.087C213.748,394.525,131.952,341.344,131.952,240.444z"/>
<g>
	<circle style="fill:#3E3D42;" cx="201.518" cy="220.876" r="20.727"/>
	<circle style="fill:#3E3D42;" cx="310.478" cy="220.876" r="20.727"/>
	<path style="fill:#3E3D42;" d="M240.982,329.271c-1.531,0-3.078-0.447-4.436-1.378c-3.578-2.455-4.488-7.344-2.033-10.921
		l21.15-30.828l21.759,30.733c2.507,3.541,1.668,8.443-1.871,10.949c-3.54,2.505-8.443,1.668-10.949-1.871l-8.735-12.337
		l-8.399,12.242C245.944,328.078,243.484,329.271,240.982,329.271z"/>
	<path style="fill:#3E3D42;" d="M235.009,280.633l15.051,16.612c1.521,1.679,3.68,2.636,5.944,2.636s4.424-0.957,5.944-2.636
		l15.254-16.837c2.13-2.351,2.675-5.737,1.389-8.637c-1.286-2.9-4.16-4.77-7.333-4.77H240.75c-0.002,0-0.004,0-0.008,0
		c-4.43,0-8.021,3.591-8.021,8.021C232.721,277.206,233.593,279.186,235.009,280.633z"/>
</g>
<g>
	<path style="fill:#FF3F62;" d="M79.009,227.536c-1.521,0-3.021,0.078-4.512,0.197c-0.779,6.848-1.193,13.807-1.193,20.865
		c0,34.762,9.711,63.86,26.565,87.071c20.637-8.279,35.217-28.457,35.217-52.053C135.088,252.644,109.98,227.536,79.009,227.536z"/>
	<path style="fill:#FF3F62;" d="M432.991,227.361c1.521,0,3.021,0.077,4.512,0.197c0.779,6.848,1.193,13.807,1.193,20.865
		c0,34.762-9.711,63.86-26.565,87.071c-20.637-8.279-35.217-28.457-35.217-52.053C376.912,252.469,402.02,227.361,432.991,227.361z"
		/>
</g>
<g>
	<path style="fill:#96C8EF;" d="M351.612,139.307c-1.749,0-3.508-0.581-4.967-1.774c-19.762-16.16-43.458-26.76-68.528-30.655
		c-4.287-0.666-7.221-4.681-6.555-8.968c0.666-4.287,4.677-7.222,8.968-6.556c27.833,4.325,54.134,16.088,76.06,34.018
		c3.359,2.746,3.855,7.694,1.109,11.053C356.143,138.323,353.887,139.307,351.612,139.307z"/>
	<path style="fill:#96C8EF;" d="M390.726,187.676c-2.853,0-5.605-1.559-6.996-4.273c-3.943-7.692-8.618-15.079-13.897-21.956
		c-2.641-3.441-1.993-8.372,1.448-11.013c3.44-2.64,8.372-1.994,11.013,1.448c5.854,7.627,11.04,15.82,15.415,24.354
		c1.979,3.861,0.453,8.594-3.407,10.573C393.156,187.397,391.931,187.676,390.726,187.676z"/>
</g>
<g>
	<path style="fill:#806749;" d="M310.152,282.947c-3.361,0-6.471-2.173-7.507-5.555c-1.271-4.147,1.06-8.541,5.207-9.812
		l26.249-8.047c4.148-1.275,8.541,1.061,9.812,5.208s-1.06,8.541-5.207,9.812l-26.249,8.047
		C311.69,282.835,310.913,282.947,310.152,282.947z"/>
	<path style="fill:#806749;" d="M336.403,310.418h-26.249c-4.338,0-7.855-3.516-7.855-7.855s3.517-7.855,7.855-7.855h26.249
		c4.338,0,7.855,3.516,7.855,7.855S340.741,310.418,336.403,310.418z"/>
	<path style="fill:#806749;" d="M201.848,282.947c-0.762,0-1.537-0.111-2.305-0.347l-26.249-8.047
		c-4.147-1.271-6.48-5.665-5.207-9.812c1.271-4.147,5.664-6.481,9.812-5.208l26.249,8.047c4.147,1.271,6.48,5.665,5.207,9.812
		C208.319,280.773,205.209,282.947,201.848,282.947z"/>
	<path style="fill:#806749;" d="M201.846,310.418h-26.249c-4.338,0-7.855-3.516-7.855-7.855s3.517-7.855,7.855-7.855h26.249
		c4.338,0,7.855,3.516,7.855,7.855S206.184,310.418,201.846,310.418z"/>
</g>
<g>
</g>
<g>
</g>
<g>
</g>
<g>
</g>
<g>
</g>
<g>
</g>
<g>
</g>
<g>
</g>
<g>
</g>
<g>
</g>
<g>
</g>
<g>
</g>
<g>
</g>
<g>
</g>
<g>
</g>
</svg>
