<?xml version="1.0" encoding="iso-8859-1"?>
<!-- Generator: Adobe Illustrator 19.0.0, SVG Export Plug-In . SVG Version: 6.00 Build 0)  -->
<svg version="1.1" id="Layer_1" xmlns="http://www.w3.org/2000/svg" xmlns:xlink="http://www.w3.org/1999/xlink" x="0px" y="0px"
	 viewBox="0 0 512 512" style="enable-background:new 0 0 512 512;" xml:space="preserve">
<path style="fill:#FFDA44;" d="M419.136,346.193c-10.29-20.1-24.889-36.401-43.394-48.45
	c-32.173-20.949-67.485-23.211-81.175-23.211c-3.733,0-6.013,0.162-6.432,0.194c-8.466,0.656-15.152,7.453-15.668,15.928
	c-2.692,44.213-6.761,110.829-7.063,115.106c-0.023,0.267-0.041,0.536-0.051,0.805c-0.028,0.683-0.015,1.364,0.039,2.038
	c0.408,5.2,3.171,9.829,7.326,12.687c33.471,24.248,68.049,36.543,102.776,36.543c31.139,0,50.716-10.131,52.846-11.285
	c5.486-2.975,8.903-8.715,8.903-14.956C437.242,398.396,431.15,369.663,419.136,346.193z"/>
<path style="fill:#EEBF00;" d="M288.134,274.727c-8.466,0.656-15.152,7.453-15.668,15.928
	c-2.692,44.213-6.761,110.829-7.063,115.106c-0.023,0.267-0.041,0.536-0.051,0.805c-0.028,0.683-0.015,1.364,0.039,2.038
	c0.408,5.2,3.171,9.829,7.326,12.687c9.594,6.95,19.279,12.913,29.032,17.891c4.98-8.746,9.349-19.47,13.021-32.015
	c8.456-28.88,13.113-66.708,13.113-106.515c0-7.605-0.172-15.136-0.507-22.548c-14.186-3.022-26.099-3.572-32.81-3.572
	C290.834,274.533,288.554,274.695,288.134,274.727z"/>
<path style="fill:#FFDA44;" d="M92.863,346.193c10.29-20.1,24.889-36.401,43.394-48.45c32.173-20.949,67.485-23.211,81.175-23.211
	c3.733,0,6.013,0.162,6.432,0.194c8.466,0.656,15.152,7.453,15.668,15.928c2.692,44.213,6.761,110.829,7.063,115.106
	c0.023,0.267,0.041,0.536,0.051,0.805c0.028,0.683,0.015,1.364-0.039,2.038c-0.408,5.2-3.171,9.829-7.326,12.687
	c-33.471,24.248-68.049,36.543-102.776,36.543c-31.139,0-50.716-10.131-52.846-11.285c-5.486-2.975-8.903-8.715-8.903-14.956
	C74.758,398.396,80.85,369.663,92.863,346.193z"/>
<path style="fill:#EEBF00;" d="M246.596,405.761c-0.302-4.276-4.371-70.893-7.063-115.106c-0.516-8.475-7.202-15.272-15.668-15.928
	c-0.419-0.032-2.7-0.194-6.432-0.194c-6.682,0-18.524,0.546-32.63,3.535c-0.335,7.425-0.509,14.968-0.509,22.586
	c0,39.807,4.657,77.635,13.113,106.515c3.663,12.511,8.019,23.212,12.983,31.945c9.707-4.964,19.345-10.904,28.894-17.822
	c4.155-2.858,6.918-7.487,7.326-12.687c0.053-0.675,0.067-1.355,0.039-2.038C246.637,406.297,246.619,406.028,246.596,405.761z"/>
<path style="fill:#FFEB99;" d="M502.198,67.07c-2.292-7.594-9.249-12.82-17.182-12.904c0,0-58.24,0-111.895,18.847
	c-26.009,9.136-48.034,24.497-66.657,42.472c-32.186,31.066-41.954,62.762-42.354,64.096l7.929,134.061
	c0.646,9.525,8.561,16.921,18.108,16.921c87.751,0,150.778-24.951,187.327-74.159C535.025,178.921,503.565,71.601,502.198,67.07z"/>
<path style="fill:#FFDA44;" d="M327.08,328.945c0.527-9.253,0.803-18.712,0.803-28.291c0-39.807-4.657-77.635-13.113-106.515
	c-4.661-15.918-10.437-28.919-17.169-38.644c-4.274-6.175-8.8-10.811-13.297-14.292c-14.786,20.8-19.907,37.42-20.195,38.378
	l7.929,134.061c0.646,9.525,8.561,16.921,18.108,16.921C302.996,330.563,315.297,330.012,327.08,328.945z"/>
<path style="fill:#FFEB99;" d="M9.802,67.07c2.292-7.594,9.249-12.82,17.182-12.904c0,0,58.24,0,111.895,18.847
	c26.009,9.136,48.034,24.497,66.657,42.472c32.186,31.066,41.954,62.762,42.354,64.096l-7.929,134.061
	c-0.646,9.525-8.561,16.921-18.108,16.921c-87.751,0-150.778-24.951-187.327-74.159C-23.025,178.921,8.435,71.601,9.802,67.07z"/>
<path style="fill:#FFDA44;" d="M214.575,155.494c-6.732,9.725-12.508,22.726-17.169,38.644
	c-8.456,28.88-13.113,66.708-13.113,106.515c0,9.585,0.277,19.049,0.804,28.307c11.728,1.057,23.97,1.602,36.754,1.602
	c9.547,0,17.463-7.396,18.108-16.921l7.929-134.061c-0.287-0.957-5.395-17.533-20.133-38.29
	C223.298,144.762,218.814,149.372,214.575,155.494z"/>
<g style="opacity:0.9;">
	<path style="fill:#FFDA44;" d="M141.193,295.285c-0.738,0-1.488-0.106-2.232-0.326c-35.923-10.661-63.78-28.51-82.797-53.053
		c-2.65-3.42-2.025-8.341,1.394-10.991c3.421-2.65,8.341-2.025,10.991,1.394c16.966,21.897,42.155,37.921,74.869,47.63
		c4.148,1.23,6.513,5.591,5.281,9.739C147.69,293.081,144.571,295.285,141.193,295.285z"/>
</g>
<g style="opacity:0.9;">
	<path style="fill:#FFDA44;" d="M41.622,206.299c-3.237,0-6.265-2.021-7.394-5.249c-3.673-10.498-6.421-21.881-8.169-33.834
		c-0.627-4.282,2.337-8.259,6.617-8.885c4.277-0.628,8.259,2.337,8.885,6.617c1.604,10.967,4.112,21.371,7.455,30.928
		c1.429,4.084-0.724,8.553-4.808,9.982C43.352,206.157,42.479,206.299,41.622,206.299z"/>
</g>
<g>
	<circle style="fill:#96C8EF;" cx="436.793" cy="146.236" r="16.713"/>
	<circle style="fill:#96C8EF;" cx="365.243" cy="393.268" r="20.368"/>
	<circle style="fill:#96C8EF;" cx="75.384" cy="146.236" r="16.713"/>
	<circle style="fill:#96C8EF;" cx="146.935" cy="393.268" r="20.368"/>
</g>
<g>
	<circle style="fill:#91DC5A;" cx="378.822" cy="210.474" r="33.947"/>
	<circle style="fill:#91DC5A;" cx="133.356" cy="210.474" r="33.947"/>
</g>
<g>
	<path style="fill:#CD2A00;" d="M248.771,195.854c-3.552,0-6.77-2.433-7.619-6.042L216.083,83.27
		c-0.991-4.212,1.62-8.429,5.832-9.421c4.213-0.986,8.429,1.62,9.421,5.832l25.069,106.543c0.991,4.212-1.62,8.429-5.832,9.421
		C249.968,195.786,249.364,195.854,248.771,195.854z"/>
	<path style="fill:#CD2A00;" d="M263.407,195.854c-0.594,0-1.197-0.068-1.801-0.21c-4.212-0.991-6.823-5.208-5.832-9.421
		l25.069-106.543c0.991-4.212,5.207-6.821,9.421-5.832c4.212,0.991,6.823,5.208,5.832,9.421l-25.069,106.543
		C270.177,193.42,266.96,195.854,263.407,195.854z"/>
</g>
<ellipse style="fill:#FF6243;" cx="256.089" cy="300.649" rx="40.459" ry="138.182"/>
<path style="fill:#FF5023;" d="M271.096,172.295c-4.641-6.334-9.704-9.824-15.007-9.824c-22.345,0-40.459,61.867-40.459,138.183
	s18.114,138.183,40.459,138.183c5.303,0,10.366-3.49,15.007-9.824c-14.915-20.358-25.452-70.153-25.452-128.358
	S256.181,192.654,271.096,172.295z"/>
<g>
</g>
<g>
</g>
<g>
</g>
<g>
</g>
<g>
</g>
<g>
</g>
<g>
</g>
<g>
</g>
<g>
</g>
<g>
</g>
<g>
</g>
<g>
</g>
<g>
</g>
<g>
</g>
<g>
</g>
</svg>
