<?xml version="1.0" encoding="iso-8859-1"?>
<!-- Generator: Adobe Illustrator 19.0.0, SVG Export Plug-In . SVG Version: 6.00 Build 0)  -->
<svg version="1.1" id="Layer_1" xmlns="http://www.w3.org/2000/svg" xmlns:xlink="http://www.w3.org/1999/xlink" x="0px" y="0px"
	 viewBox="0 0 511.999 511.999" style="enable-background:new 0 0 511.999 511.999;" xml:space="preserve">
<path style="fill:#6DC82A;" d="M247.938,85.028c-1.929,0.255-19.383,2.311-37.792-3.851c-16.515-5.528-43.973-21.612-42.327-67.223
	C168.05,7.567,172.668,2.191,178.946,1c1.852-0.351,18.613-3.258,36.799,2.829c0.001,0,0.002,0.001,0.004,0.001
	c12.09,4.047,21.967,11.083,29.354,20.913c8.839,11.762,13.79,27.252,14.713,46.042C260.168,77.901,255.001,84.095,247.938,85.028z"
	/>
<path style="fill:#5EAC24;" d="M245.105,24.745c-1.623-2.16-3.374-4.176-5.233-6.063c-7.99,12.956-13.387,30.365-12.545,53.683
	c0.165,4.561,1.196,8.903,2.946,12.856c9.478,0.794,16.485-0.036,17.665-0.191c7.063-0.933,12.23-7.127,11.88-14.244
	C258.894,51.997,253.944,36.506,245.105,24.745z"/>
<path style="fill:#91DC5A;" d="M328.345,0.532c-1.929-0.255-19.383-2.311-37.791,3.851c-16.515,5.528-43.973,21.612-42.327,67.223
	c0.231,6.387,4.849,11.763,11.127,12.954c1.852,0.351,18.613,3.258,36.799-2.829c0.001,0,0.002-0.001,0.004-0.001
	c12.09-4.047,21.967-11.083,29.354-20.913c8.839-11.762,13.79-27.252,14.713-46.042C340.575,7.659,335.409,1.465,328.345,0.532z"/>
<g>
	<path style="fill:#6DC82A;" d="M309.03,14.575c11.943-3.998,23.478-4.536,30.638-4.35c-1.494-5.051-5.828-8.967-11.324-9.692
		c-1.929-0.255-19.383-2.311-37.791,3.851c-16.515,5.528-43.973,21.612-42.327,67.223c0.231,6.387,4.849,11.763,11.127,12.955
		c0.712,0.135,3.633,0.646,7.985,0.881c-0.368-1.16-0.591-2.38-0.637-3.642C265.056,36.187,292.515,20.103,309.03,14.575z"/>
	<polygon style="fill:#6DC82A;" points="248.157,67.137 248.157,128.898 259.834,128.898 259.834,64.757 	"/>
</g>
<path style="fill:#FF9477;" d="M256,102.361c-51.074,0-91.081,28.986-91.081,65.989c0,3.008,0,7.127,27.294,161.623
	c13.346,75.544,26.866,151.004,26.991,151.693c3.09,17.577,18.566,30.333,36.797,30.333c18.233,0,33.709-12.758,36.791-30.293
	c54.291-305.097,54.291-311.097,54.291-313.355C347.081,131.348,307.073,102.361,256,102.361z"/>
<g>
	<path style="fill:#FF6243;" d="M245.896,329.973c-27.294-154.495-27.294-158.614-27.294-161.623
		c0-30.205,26.664-55.062,64.239-63.177c-8.456-1.826-17.459-2.812-26.842-2.812c-51.074,0-91.081,28.986-91.081,65.989
		c0,3.008,0,7.127,27.294,161.623c13.346,75.544,26.866,151.004,26.991,151.693c3.09,17.577,18.566,30.333,36.797,30.333
		c10.466,0,20.018-4.209,26.845-11.107c-5.07-5.125-8.642-11.735-9.959-19.226C272.762,480.977,259.242,405.517,245.896,329.973z"/>
	<path style="fill:#FF6243;" d="M294.2,247.943c-4.332,0-7.843,3.512-7.843,7.843c0,4.332,3.512,7.843,7.843,7.843h37.099
		c0.966-5.551,1.874-10.773,2.725-15.687H294.2z"/>
	<path style="fill:#FF6243;" d="M268.898,263.63h-17.43c-4.332,0-7.843-3.512-7.843-7.843c0-4.332,3.512-7.843,7.843-7.843h17.43
		c4.332,0,7.843,3.512,7.843,7.843C276.742,260.118,273.23,263.63,268.898,263.63z"/>
	<path style="fill:#FF6243;" d="M317.665,341.367h-43.887c-4.332,0-7.843,3.512-7.843,7.843s3.512,7.843,7.843,7.843h41.119
		C315.848,351.671,316.77,346.443,317.665,341.367z"/>
	<path style="fill:#FF6243;" d="M322.572,186.243c-3.942,0-7.336-2.963-7.785-6.972c-4.174-37.292-45.677-42.533-46.095-42.581
		c-4.303-0.5-7.386-4.392-6.888-8.695c0.5-4.302,4.394-7.384,8.695-6.888c0.552,0.065,13.689,1.657,27.499,9.184
		c18.874,10.286,30.07,26.62,32.377,47.236c0.481,4.304-2.618,8.185-6.923,8.667C323.158,186.227,322.863,186.243,322.572,186.243z"
		/>
</g>
<g>
</g>
<g>
</g>
<g>
</g>
<g>
</g>
<g>
</g>
<g>
</g>
<g>
</g>
<g>
</g>
<g>
</g>
<g>
</g>
<g>
</g>
<g>
</g>
<g>
</g>
<g>
</g>
<g>
</g>
</svg>
