<?xml version="1.0" encoding="iso-8859-1"?>
<!-- Generator: Adobe Illustrator 19.0.0, SVG Export Plug-In . SVG Version: 6.00 Build 0)  -->
<svg xmlns="http://www.w3.org/2000/svg" xmlns:xlink="http://www.w3.org/1999/xlink" version="1.1" id="Layer_1" x="0px" y="0px" viewBox="0 0 430.4 430.4" style="enable-background:new 0 0 430.4 430.4;" xml:space="preserve" width="512" height="512">
<g id="_x30_2._Discussion_1_">
	<g id="XMLID_3_">
		<g>
			<g>
				<path style="fill:#8ECAC1;" d="M420.4,126.7v49.06c0,17.18-6.96,32.74-18.22,44c-11.26,11.26-26.82,18.22-44,18.22v48.01      l-64.39-48.01h-30.57v-31.35c0-34.36-27.86-62.22-62.22-62.22h-33.82V126.7c0-34.36,27.86-62.22,62.22-62.22h128.78      C392.54,64.48,420.4,92.34,420.4,126.7z"/>
			</g>
			<g>
				<path style="fill:#FF7124;" d="M263.22,237.98v17.71c0,34.36-27.86,62.22-62.22,62.22h-64.39l-64.39,48.01v-48.01      c-17.18,0-32.74-6.97-44-18.23C16.96,288.42,10,272.87,10,255.69v-49.06c0-34.36,27.86-62.22,62.22-62.22h94.96v31.35      c0,34.36,27.86,62.22,62.22,62.22H263.22z"/>
			</g>
			<g>
				<path style="fill:#F2D59F;" d="M263.22,206.63v31.35H229.4c-34.36,0-62.22-27.86-62.22-62.22v-31.35H201      C235.36,144.41,263.22,172.27,263.22,206.63z"/>
			</g>
		</g>
		<g>
			<g>
				<path style="fill:#5E2A41;" d="M358.182,295.99c-2.115,0-4.218-0.671-5.979-1.983l-61.73-46.026H229.4      c-39.822,0-72.22-32.398-72.22-72.221V126.7c0-39.822,32.397-72.22,72.22-72.22h128.78c39.822,0,72.22,32.397,72.22,72.22v49.06      c0,19.296-7.511,37.434-21.148,51.071c-11.253,11.253-25.57,18.334-41.071,20.468v38.691c0,3.782-2.135,7.241-5.516,8.938      C361.247,295.64,359.711,295.99,358.182,295.99z M229.4,74.48c-28.794,0-52.22,23.426-52.22,52.22v49.06      c0,28.795,23.426,52.221,52.22,52.221h64.39c2.154,0,4.251,0.695,5.978,1.983l48.413,36.097v-28.08c0-5.523,4.478-10,10-10      c13.953,0,27.068-5.431,36.929-15.292c9.86-9.86,15.291-22.976,15.291-36.929V126.7c0-28.794-23.426-52.22-52.22-52.22H229.4z"/>
			</g>
			<g>
				<path style="fill:#5E2A41;" d="M72.219,375.92c-1.529,0-3.066-0.351-4.483-1.063c-3.381-1.696-5.516-5.155-5.516-8.938v-38.692      c-15.498-2.134-29.813-9.218-41.07-20.475C7.511,293.112,0,274.978,0,255.69V206.63c0-39.822,32.397-72.22,72.22-72.22H201      c39.822,0,72.22,32.397,72.22,72.22v49.061c0,39.822-32.397,72.22-72.22,72.22h-61.072l-61.73,46.026      C76.437,375.249,74.334,375.92,72.219,375.92z M72.22,154.41c-28.794,0-52.22,23.426-52.22,52.22v49.061      c0,13.946,5.431,27.058,15.291,36.92c9.867,9.866,22.982,15.3,36.929,15.3c5.522,0,10,4.478,10,10v28.08l48.413-36.097      c1.727-1.288,3.823-1.983,5.978-1.983H201c28.794,0,52.22-23.426,52.22-52.22V206.63c0-28.794-23.426-52.22-52.22-52.22H72.22z"/>
			</g>
		</g>
	</g>
</g>















</svg>
