<?xml version="1.0" encoding="iso-8859-1"?>
<!-- Generator: Adobe Illustrator 19.0.0, SVG Export Plug-In . SVG Version: 6.00 Build 0)  -->
<svg version="1.1" id="Layer_1" xmlns="http://www.w3.org/2000/svg" xmlns:xlink="http://www.w3.org/1999/xlink" x="0px" y="0px"
	 viewBox="0 0 508 508" style="enable-background:new 0 0 508 508;" xml:space="preserve">
<path style="fill:#73BADD;" d="M448.4,38H59.6C30,38,6,64.4,6,93.6V316c0,29.6,24,54,53.6,54h240.8c0.4,0,0.8,0,1.2,0.4l96.8,96.8
	v-95.6c0-1.2,1.6-1.6,2.8-1.6h47.6c29.6,0,53.6-24.4,53.6-54V93.6C502,64.4,478,38,448.4,38z M64,143.6c-12,0-22-10-22-22V78
	c0-1.2,0.8-2,2-2s2,0.8,2,2v41.6l16.4-16.8c-0.4-0.4-0.8-0.8-0.8-1.6c0-1.2,0.8-2,2-2c12,0,22,10,22,22S76,143.6,64,143.6z
	 M123.6,143.6c-12,0-21.6-10-21.6-22V78c0-1.2,0.8-2,2-2s2,0.8,2,2v41.6l16.4-16.8c-0.4-0.4-0.8-0.8-0.8-1.6c0-1.2,0.8-2,2-2
	c12,0,22.4,10,22.4,22S136,143.6,123.6,143.6z M402,332c0,1.2-0.8,2-2,2s-2-0.8-2-2v-41.6l-16,16.8c0.4,0.4,0.8,0.8,0.8,1.6
	c0,1.2-0.8,2-2,2c-12,0-22-10-22-22s9.2-22,21.6-22s21.6,10,21.6,22L402,332L402,332z M462,332c0,1.2-0.8,2-2,2s-2-0.8-2-2v-41.6
	l-16.4,16.8c0.4,0.4,0.8,0.8,0.8,1.6c0,1.2-0.8,2-2,2c-12,0-22-10-22-22s9.6-22,21.6-22s21.6,10,21.6,22V332H462z"/>
<g>
	<path style="fill:#F4EFEF;" d="M64,139.6c10,0,18-8,18-18s-8-18-18-18c-0.4,0-0.8-0.4-1.2-0.4l-16.4-0.4V122
		C46,131.6,54,139.6,64,139.6z"/>
	<path style="fill:#F4EFEF;" d="M123.6,139.6c10,0,18-8,18-18s-8.4-18-18.4-18c-0.4,0-0.8-0.4-1.2-0.4l-16.4-0.4V122
		C106,131.6,113.6,139.6,123.6,139.6z"/>
	<path style="fill:#F4EFEF;" d="M440.4,270c-10,0-18,8-18,18s8.4,18,18,18c0.4,0,0.8,0.4,1.2,0.4H458v-18.8
		C458,278.4,450.4,270,440.4,270z"/>
	<path style="fill:#F4EFEF;" d="M380.4,270c-10,0-17.6,8-17.6,18s8.4,18,18.4,18c0.4,0,0.4,0.4,0.8,0.4h16v-18.8
		C398,278.4,390.4,270,380.4,270z"/>
</g>
<path d="M400,476c-1.2,0-2-0.4-2.8-1.2L298.8,376H59.6C26.8,376,0,349.2,0,316V93.6C0,60,27.2,32,59.6,32h388.8
	c32.4,0,59.6,28.4,59.6,61.6V316c0,33.2-26.8,60-59.6,60H404v96c0,1.6-0.8,3.2-2.4,3.6C401.2,476,400.4,476,400,476z M59.6,40
	C31.6,40,8,64.8,8,93.6V316c0,28.8,23.2,52,51.6,52h240.8c1.2,0,2,0.4,2.8,1.2l92.8,93.2V372c0-2.4,1.6-4,4-4h48.4
	c28.4,0,51.6-23.2,51.6-52V93.6c0-29.2-23.6-53.6-51.6-53.6L59.6,40L59.6,40z"/>
<path d="M64,145.6c-13.2,0-24-10.8-24-24c0-2.4,1.6-4,4-4s4,1.6,4,4c0,8.8,7.2,16,16,16s16-7.2,16-16s-7.2-16-16-16
	c-2.4,0-4-1.6-4-4s1.6-4,4-4c13.2,0,24,10.8,24,24C88,134.8,77.2,145.6,64,145.6z"/>
<path d="M43.6,126.4c-2.4,0-4-1.6-4-4v-44c0-2.4,1.6-4,4-4s4,1.6,4,4v44C47.6,124.4,46,126.4,43.6,126.4z"/>
<path d="M123.2,145.6c-13.2,0-24-10.8-24-24c0-2.4,1.6-4,4-4s4,1.6,4,4c0,8.8,7.2,16,16,16s16-7.2,16-16s-7.2-16-16-16
	c-2.4,0-4-1.6-4-4s1.6-4,4-4c13.2,0,24,10.8,24,24C147.2,134.8,136.4,145.6,123.2,145.6z"/>
<path d="M103.2,126c-2.4,0-4-1.6-4-4V78c0-2.4,1.6-4,4-4s4,1.6,4,4v44C107.2,124.4,105.2,126,103.2,126z"/>
<path d="M440.8,312.4c-13.2,0-24-10.8-24-24s10.8-24,24-24s24,10.8,24,24c0,2.4-1.6,4-4,4s-4-1.6-4-4c0-8.8-7.2-16-16-16
	s-16,7.2-16,16s7.2,16,16,16c2.4,0,4,1.6,4,4S442.8,312.4,440.8,312.4z"/>
<path d="M460.8,338c-2.4,0-4-1.6-4-4v-44.8c0-2.4,1.6-4,4-4s4,1.6,4,4V334C464.8,336.4,462.8,338,460.8,338z"/>
<path d="M381.2,312.4c-13.2,0-24-10.8-24-24s10.8-24,24-24s24,10.8,24,24c0,2.4-1.6,4-4,4s-4-1.6-4-4c0-8.8-7.2-16-16-16
	s-16,7.2-16,16s7.2,16,16,16c2.4,0,4,1.6,4,4S383.6,312.4,381.2,312.4z"/>
<path d="M401.2,338c-2.4,0-4-1.6-4-4v-44.8c0-2.4,1.6-4,4-4s4,1.6,4,4V334C405.2,336.4,403.6,338,401.2,338z"/>
<g>
</g>
<g>
</g>
<g>
</g>
<g>
</g>
<g>
</g>
<g>
</g>
<g>
</g>
<g>
</g>
<g>
</g>
<g>
</g>
<g>
</g>
<g>
</g>
<g>
</g>
<g>
</g>
<g>
</g>
</svg>
