<?xml version="1.0" encoding="iso-8859-1"?>
<!-- Generator: Adobe Illustrator 19.0.0, SVG Export Plug-In . SVG Version: 6.00 Build 0)  -->
<svg version="1.1" id="Layer_1" xmlns="http://www.w3.org/2000/svg" xmlns:xlink="http://www.w3.org/1999/xlink" x="0px" y="0px"
	 viewBox="0 0 508 508" style="enable-background:new 0 0 508 508;" xml:space="preserve">
<path style="fill:#DF5C4E;" d="M448.4,38H59.6C30,38,6,64.4,6,93.6V316c0,29.6,24,54,53.6,54h240.8c0.4,0,0.8,0,1.2,0.4l96.8,96.8
	v-95.6c0-1.2,1.6-1.6,2.8-1.6h47.6c29.6,0,53.6-24.4,53.6-54V93.6C502,64.4,478,38,448.4,38z M254.4,312.8c-0.4,0-0.4,0.4-0.8,0.4
	s-0.4,0-0.8-0.4c-5.2-2.4-124-62.4-124-144.8c0-37.6,30.4-68.4,68.4-68.4c23.2,0,44,11.2,56.8,30.4c12.8-19.2,33.6-30.4,56.8-30.4
	c37.6,0,68.4,30.4,68.4,68.4C378.8,250,259.6,310,254.4,312.8z"/>
<path style="fill:#F4EFEF;" d="M310.4,103.6c-22.8,0-43.2,11.6-55.2,31.2c-0.4,0.4-1.2,0.8-1.6,0.8s-1.2-0.4-1.6-0.8
	c-11.6-19.6-32.4-31.2-55.2-31.2c-35.6,0-64.4,28.8-64.4,64.4c0,76.4,110,135.2,121.2,140.8c11.2-5.6,121.2-64.8,121.2-140.8
	C374.8,132.4,346,103.6,310.4,103.6z"/>
<path d="M400,476c-1.2,0-2-0.4-2.8-1.2L298.8,376H59.6C26.8,376,0,349.2,0,316V93.6C0,60,27.2,32,59.6,32h388.8
	c32.4,0,59.6,28.4,59.6,61.6V316c0,33.2-26.8,60-59.6,60H404v96c0,1.6-0.8,3.2-2.4,3.6C401.2,476,400.4,476,400,476z M59.6,40
	C31.6,40,8,64.8,8,93.6V316c0,28.8,23.2,52,51.6,52h240.8c1.2,0,2,0.4,2.8,1.2l92.8,93.2V372c0-2.4,1.6-4,4-4h48.4
	c28.4,0,51.6-23.2,51.6-52V93.6c0-29.2-23.6-53.6-51.6-53.6L59.6,40L59.6,40z"/>
<path d="M253.6,314.8c-0.8,0-1.2,0-1.6-0.4c-5.2-2.4-125.2-63.2-125.2-146.8c0-38.8,31.6-70.4,70.4-70.4c22.8,0,43.6,10.8,56.8,28.8
	c13.2-18.4,34-28.8,56.8-28.8c38.8,0,70.4,31.6,70.4,70.4c0,83.6-120,144-125.2,146.8C254.8,314.8,254.4,314.8,253.6,314.8z
	 M196.8,105.6c-34.4,0-62.4,28-62.4,62.4c0,73.2,104,130.8,119.2,138.4c14.8-8,119.2-65.2,119.2-138.4c0-34.4-28-62.4-62.4-62.4
	c-22,0-42,11.2-53.2,30.4c-0.8,1.2-2,2-3.6,2l0,0c-1.6,0-2.8-0.8-3.6-2C238.8,116.8,218.8,105.6,196.8,105.6z"/>
<path d="M338.4,144.4c-1.2,0-2-0.4-2.8-1.2c-6.8-6.4-15.6-10-24.8-10c-2.4,0-4-1.6-4-4s1.6-4,4-4c11.6,0,22.4,4.4,30.4,12.4
	c1.6,1.6,1.6,4,0,5.6C340.4,144,339.6,144.4,338.4,144.4z"/>
<g>
</g>
<g>
</g>
<g>
</g>
<g>
</g>
<g>
</g>
<g>
</g>
<g>
</g>
<g>
</g>
<g>
</g>
<g>
</g>
<g>
</g>
<g>
</g>
<g>
</g>
<g>
</g>
<g>
</g>
</svg>
