<?xml version="1.0" encoding="iso-8859-1"?>
<!-- Generator: Adobe Illustrator 19.0.0, SVG Export Plug-In . SVG Version: 6.00 Build 0)  -->
<svg version="1.1" id="Layer_1" xmlns="http://www.w3.org/2000/svg" xmlns:xlink="http://www.w3.org/1999/xlink" x="0px" y="0px"
	 viewBox="0 0 508.016 508.016" style="enable-background:new 0 0 508.016 508.016;" xml:space="preserve">
<path style="fill:#54B265;" d="M470.016,147.608v-67.6c0-29.6-24-52-53.6-52h-356.8c-29.6,0-53.6,22.8-53.6,52v99.2
	c0,29.6,24,56.8,53.6,56.8h356.8c29.6,0,53.6-24.4,53.6-53.6c0-1.2,0.8-2.4,2-2.4h26.8l-28.4-29.6
	C470.416,150.008,470.016,148.008,470.016,147.608z M75.616,96.008h189.6c1.2,0,2,0.8,2,2s-0.8,2-2,2h-189.6c-1.2,0-2-0.8-2-2
	S74.416,96.008,75.616,96.008z M400.816,164.008h-325.2c-1.2,0-2-0.8-2-2s0.8-2,2-2h325.2c1.2,0,2,0.8,2,2
	S402.016,164.008,400.816,164.008z M400.816,100.008h-83.2c-1.2,0-2-0.8-2-2s0.8-2,2-2h83.2c1.2,0,2,0.8,2,2
	S402.016,100.008,400.816,100.008z"/>
<g>
	<path style="fill:#F4EFEF;" d="M400.816,160.008h-325.2c-1.2,0-2,0.8-2,2s0.8,2,2,2h325.2c1.2,0,2-0.8,2-2
		S402.016,160.008,400.816,160.008z"/>
	<path style="fill:#F4EFEF;" d="M75.616,100.008h189.6c1.2,0,2-0.8,2-2s-0.8-2-2-2h-189.6c-1.2,0-2,0.8-2,2
		S74.416,100.008,75.616,100.008z"/>
	<path style="fill:#F4EFEF;" d="M400.816,96.008h-83.2c-1.2,0-2,0.8-2,2s0.8,2,2,2h83.2c1.2,0,2-0.8,2-2
		S402.016,96.008,400.816,96.008z"/>
</g>
<path style="fill:#F4AEA8;" d="M448.416,272.008h-356.8c-29.6,0-53.6,20.4-53.6,50v67.2c0,0.4-0.4,3.6-0.8,4l-28.4,30.8h26.8
	c1.2,0,2,1.2,2,2.4c0,29.6,24,53.6,53.6,53.6h356.8c29.6,0,53.6-29.2,53.6-58.8v-99.2
	C502.016,292.408,478.016,272.008,448.416,272.008z M107.216,340.008h83.2c1.2,0,2,0.8,2,2s-0.8,2-2,2h-83.2c-1.2,0-2-0.8-2-2
	S106.016,340.008,107.216,340.008z M432.416,408.008h-325.2c-1.2,0-2-0.8-2-2s0.8-2,2-2h325.2c1.2,0,2,0.8,2,2
	S433.616,408.008,432.416,408.008z M432.416,344.008h-189.6c-1.2,0-2-0.8-2-2s0.8-2,2-2h189.6c1.2,0,2,0.8,2,2
	S433.616,344.008,432.416,344.008z"/>
<g>
	<path style="fill:#F4EFEF;" d="M432.416,404.008h-325.2c-1.2,0-2,0.8-2,2s0.8,2,2,2h325.2c1.2,0,2-0.8,2-2
		S433.616,404.008,432.416,404.008z"/>
	<path style="fill:#F4EFEF;" d="M432.416,340.008h-189.6c-1.2,0-2,0.8-2,2s0.8,2,2,2h189.6c1.2,0,2-0.8,2-2
		S433.616,340.008,432.416,340.008z"/>
	<path style="fill:#F4EFEF;" d="M107.216,344.008h83.2c1.2,0,2-0.8,2-2s-0.8-2-2-2h-83.2c-1.2,0-2,0.8-2,2
		S106.016,344.008,107.216,344.008z"/>
</g>
<path d="M400.816,166.008h-324c-2.4,0-4-1.6-4-4s1.6-4,4-4h324c2.4,0,4,1.6,4,4S402.816,166.008,400.816,166.008z"/>
<path d="M264.816,102.008h-190c-2.4,0-4-1.6-4-4s1.6-4,4-4h190c2.4,0,4,1.6,4,4S267.216,102.008,264.816,102.008z"/>
<path d="M400.816,102.008h-84c-2.4,0-4-1.6-4-4s1.6-4,4-4h84c2.4,0,4,1.6,4,4S402.816,102.008,400.816,102.008z"/>
<path d="M416.416,242.008h-356.8c-31.6,0-59.6-29.2-59.6-62.8v-99.2c0-32.8,26.4-58,59.6-58h356.8c33.2,0,59.6,25.6,59.6,58v65.6
	l30.8,33.2c1.2,1.2,1.2,2.8,0.8,4.4s-2,2.4-3.6,2.4h-28C474.016,217.608,448.816,242.008,416.416,242.008z M59.616,30.008
	c-28.8,0-51.6,22-51.6,50v99.2c0,29.2,24,54.8,51.6,54.8h356.8c28.8,0,51.6-22.8,51.6-52c0-2.4,1.6-4,4-4h22.8l-25.6-28
	c-0.8-0.8-1.2-1.6-1.2-2.8v-67.2c0-28-22.4-50-51.6-50H59.616z"/>
<path d="M432.416,410.008h-324.8c-2.4,0-4-1.6-4-4s1.6-4,4-4h324.8c2.4,0,4,1.6,4,4S434.816,410.008,432.416,410.008z"/>
<path d="M432.416,346.008h-190c-2.4,0-4-1.6-4-4s1.6-4,4-4h190c2.4,0,4,1.6,4,4S434.816,346.008,432.416,346.008z"/>
<path d="M194.016,346.008h-86.4c-2.4,0-4-1.6-4-4s1.6-4,4-4h86.4c2.4,0,4,1.6,4,4S196.416,346.008,194.016,346.008z"/>
<path d="M448.416,486.008h-356.8c-32,0-57.6-24.4-59.6-56h-28c-1.6,0-2.8-0.8-3.6-2.4s-0.4-3.2,0.8-4.4l30.8-35.6v-65.6
	c0-32,25.6-56,59.6-56h356.8c34,0,59.6,24,59.6,56v99.2C508.016,455.208,479.616,486.008,448.416,486.008z M12.816,422.008h22.8
	c2.4,0,4,1.6,4,4c0,29.2,22.8,52,51.6,52h356.8c27.2,0,51.6-27.2,51.6-56.8v-99.2c0-27.6-22.4-48-51.6-48h-356.8
	c-29.2,0-51.6,20.8-51.6,48v67.2c0,0.8-0.4,2-0.8,2.8L12.816,422.008z"/>
<g>
</g>
<g>
</g>
<g>
</g>
<g>
</g>
<g>
</g>
<g>
</g>
<g>
</g>
<g>
</g>
<g>
</g>
<g>
</g>
<g>
</g>
<g>
</g>
<g>
</g>
<g>
</g>
<g>
</g>
</svg>
