<?xml version="1.0" encoding="iso-8859-1"?>
<!-- Generator: Adobe Illustrator 19.0.0, SVG Export Plug-In . SVG Version: 6.00 Build 0)  -->
<svg version="1.1" id="Layer_1" xmlns="http://www.w3.org/2000/svg" xmlns:xlink="http://www.w3.org/1999/xlink" x="0px" y="0px"
	 viewBox="0 0 508.016 508.016" style="enable-background:new 0 0 508.016 508.016;" xml:space="preserve">
<path style="fill:#73BADD;" d="M470.016,147.608v-67.6c0-29.6-24-52-53.6-52h-356.8c-29.6,0-53.6,22.8-53.6,52v99.2
	c0,29.6,24,56.8,53.6,56.8h356.8c29.6,0,53.6-24.4,53.6-53.6c0-1.2,0.8-2.4,2-2.4h26.8l-28.4-29.6
	C470.416,150.008,470.016,148.008,470.016,147.608z M112.816,169.608c-22,0-39.6-18-39.6-39.6c0-22,18-39.6,39.6-39.6
	c6.4,0,12.8,1.6,18.4,4.4c0.8,0.4,1.2,1.6,0.8,2.8l-0.4,0.4l14.4,15.2l0.4-0.4c1.2-0.4,2,0,2.8,0.8c2.4,5.2,3.6,10.8,3.6,16.4
	C152.816,151.608,134.816,169.608,112.816,169.608z M240.016,169.608c-22,0-39.6-18-39.6-39.6c0-22,18-39.6,39.6-39.6
	c6.4,0,12.8,1.6,18.4,4.4c0.8,0.4,1.2,1.6,0.8,2.8l-0.4,0.4l14.4,15.2l0.4-0.4c0.8-0.4,2,0,2.8,0.8c2.4,5.2,3.6,10.8,3.6,16.4
	C279.616,151.608,262.016,169.608,240.016,169.608z M366.816,169.608c-22,0-39.6-18-39.6-39.6c0-22,18-39.6,39.6-39.6
	c6.4,0,12.8,1.6,18.4,4.4c0.8,0.4,1.2,1.6,0.8,2.8l-0.4,0.4l14.4,15.2l0.4-0.4c1.2-0.4,2,0,2.8,0.8c2.4,5.2,3.6,10.8,3.6,16.4
	C406.816,151.608,388.816,169.608,366.816,169.608z"/>
<path style="fill:#EFDC81;" d="M38.016,426.408c0,29.6,24,53.6,53.6,53.6h356.8c29.6,0,53.6-29.2,53.6-58.8v-99.2
	c0-29.6-24-50-53.6-50h-356.8c-29.6,0-53.6,20.4-53.6,50v67.2c0,0.4-0.4,3.6-0.8,4l-28.4,30.8h26.8
	C36.816,424.008,38.016,425.208,38.016,426.408z M398.416,332.008c6.4,0,12.8,1.6,18.4,4.4c0.8,0.4,1.2,1.6,0.8,2.8
	c0,0.4-0.4,0.4-0.4,0.4l14.4,15.2l0.4-0.4c1.2-0.4,2,0,2.8,0.8c2.4,5.2,3.6,10.8,3.6,16.4c0,22-18,39.6-39.6,39.6
	c-22,0-39.6-18-39.6-39.6C358.816,349.608,376.816,332.008,398.416,332.008z M271.616,332.008c6.4,0,12.8,1.6,18.4,4.4
	c0.8,0.4,1.2,1.6,0.8,2.8c0,0.4-0.4,0.4-0.4,0.4l14.4,15.2l0.4-0.4c0.8-0.4,2,0,2.8,0.8c2.4,5.2,3.6,10.8,3.6,16.4
	c0,22-18,39.6-39.6,39.6c-22,0-39.6-18-39.6-39.6C232.016,349.608,249.616,332.008,271.616,332.008z M144.816,332.008
	c6.4,0,12.8,1.6,18.4,4.4c0.8,0.4,1.2,1.6,0.8,2.8c0,0.4-0.4,0.4-0.4,0.4l14.4,15.2l0.4-0.4c1.2-0.4,2,0,2.8,0.8
	c2.4,5.2,3.6,10.8,3.6,16.4c0,22-18,39.6-39.6,39.6c-22,0-39.6-18-39.6-39.6C104.816,349.608,122.816,332.008,144.816,332.008z"/>
<g>
	<path style="fill:#F4EFEF;" d="M129.616,98.008c-5.2-2.8-10.8-4-16.4-4c-19.6,0-36,16-36,35.6s16,35.6,36,35.6
		c19.6,0,35.6-16,35.6-35.6c0-5.2-1.2-10-3.2-14.8c-0.4-0.8,0-1.6,0.4-2.4l-14.4-15.2C131.216,98.008,130.416,98.408,129.616,98.008
		z"/>
	<path style="fill:#F4EFEF;" d="M256.416,98.008c-5.2-2.8-10.8-4-16.4-4c-19.6,0-35.6,16-35.6,35.6s16,35.6,35.6,35.6
		s35.6-16,35.6-35.6c0-5.2-1.2-10-3.2-14.8c-0.4-0.8,0-1.6,0.4-2.4l-14.4-15.2C258.016,98.008,257.216,98.408,256.416,98.008z"/>
	<path style="fill:#F4EFEF;" d="M383.616,98.008c-5.2-2.8-10.8-4-16.4-4c-19.6,0-36,16-36,35.6s16,35.6,36,35.6
		c19.6,0,35.6-16,35.6-35.6c0-5.2-1.2-10-3.2-14.8c-0.4-0.8,0-1.6,0.4-2.4l-14.4-15.2C385.216,98.008,384.016,98.408,383.616,98.008
		z"/>
	<path style="fill:#F4EFEF;" d="M161.216,340.008c-5.2-2.8-10.8-4-16.4-4c-19.6,0-36,16-36,35.6s16,35.6,36,35.6
		c19.6,0,35.6-16,35.6-35.6c0-5.2-1.2-10-3.2-14.8c-0.4-0.8,0-1.6,0.4-2.4l-14.4-15.2
		C162.816,340.008,162.016,340.408,161.216,340.008z"/>
	<path style="fill:#F4EFEF;" d="M288.016,340.008c-5.2-2.8-10.8-4-16.4-4c-19.6,0-35.6,16-35.6,35.6s16,35.6,35.6,35.6
		s35.6-16,35.6-35.6c0-5.2-1.2-10-3.2-14.8c-0.4-0.8,0-1.6,0.4-2.4l-14.4-15.2C290.016,340.008,288.816,340.408,288.016,340.008z"/>
	<path style="fill:#F4EFEF;" d="M415.216,340.008c-5.2-2.8-10.8-4-16.4-4c-19.6,0-36,16-36,35.6s16,35.6,36,35.6
		c19.6,0,35.6-16,35.6-35.6c0-5.2-1.2-10-3.2-14.8c-0.4-0.8,0-1.6,0.4-2.4l-14.4-15.2
		C416.816,340.008,416.016,340.408,415.216,340.008z"/>
</g>
<path d="M416.416,242.008h-356.8c-31.6,0-59.6-29.2-59.6-62.8v-99.2c0-32.8,26.4-58,59.6-58h356.8c33.2,0,59.6,25.6,59.6,58v65.6
	l30.8,33.2c1.2,1.2,1.2,2.8,0.8,4.4s-2,2.4-3.6,2.4h-28C474.016,217.608,448.816,242.008,416.416,242.008z M59.616,30.008
	c-28.8,0-51.6,22-51.6,50v99.2c0,29.2,24,54.8,51.6,54.8h356.8c28.8,0,51.6-22.8,51.6-52c0-2.4,1.6-4,4-4h22.8l-25.6-28
	c-0.8-0.8-1.2-1.6-1.2-2.8v-67.2c0-28-22.4-50-51.6-50H59.616z"/>
<path d="M448.416,486.008h-356.8c-32,0-57.6-24.4-59.6-56h-28c-1.6,0-2.8-0.8-3.6-2.4s-0.4-3.2,0.8-4.4l30.8-35.6v-65.6
	c0-32,25.6-56,59.6-56h356.8c34,0,59.6,24,59.6,56v99.2C508.016,455.208,479.616,486.008,448.416,486.008z M12.816,422.008h22.8
	c2.4,0,4,1.6,4,4c0,29.2,22.8,52,51.6,52h356.8c27.2,0,51.6-27.2,51.6-56.8v-99.2c0-27.6-22.4-48-51.6-48h-356.8
	c-29.2,0-51.6,20.8-51.6,48v67.2c0,0.8-0.4,2-0.8,2.8L12.816,422.008z"/>
<path d="M112.816,171.608c-23.2,0-41.6-18.8-41.6-41.6c0-23.2,18.8-41.6,41.6-41.6c6.8,0,13.6,1.6,19.2,4.8c2,1.2,2.8,3.6,1.6,5.2
	c-1.2,2-3.6,2.8-5.2,1.6c-4.8-2.4-10-4-15.6-4c-18.8,0-33.6,15.2-33.6,33.6c0,18.8,15.2,33.6,33.6,33.6c18.8,0,33.6-15.2,33.6-33.6
	c0-4.8-1.2-9.6-2.8-14c-0.8-2,0-4.4,2-5.2c2-0.8,4.4,0,5.2,2c2.4,5.6,3.6,11.2,3.6,17.2
	C154.816,152.808,136.016,171.608,112.816,171.608z"/>
<path d="M240.016,171.608c-23.2,0-41.6-18.8-41.6-41.6c0-23.2,18.8-41.6,41.6-41.6c6.8,0,13.6,1.6,19.2,4.8c2,1.2,2.8,3.6,1.6,5.2
	c-1.2,2-3.6,2.8-5.2,1.6c-4.8-2.4-10-4-15.6-4c-18.8,0-33.6,15.2-33.6,33.6c0,18.8,15.2,33.6,33.6,33.6c18.8,0,33.6-15.2,33.6-33.6
	c0-4.8-1.2-9.6-2.8-14c-0.8-2,0-4.4,2-5.2s4.4,0,5.2,2c2.4,5.6,3.6,11.2,3.6,17.2C281.616,152.808,262.816,171.608,240.016,171.608z
	"/>
<path d="M366.816,171.608c-23.2,0-41.6-18.8-41.6-41.6c0-23.2,18.8-41.6,41.6-41.6c6.8,0,13.6,1.6,19.2,4.8c2,1.2,2.8,3.6,1.6,5.2
	c-1.2,2-3.6,2.8-5.2,1.6c-4.8-2.4-10-4-15.6-4c-18.8,0-33.6,15.2-33.6,33.6c0,18.8,15.2,33.6,33.6,33.6c18.8,0,33.6-15.2,33.6-33.6
	c0-4.8-1.2-9.6-2.8-14c-0.8-2,0-4.4,2-5.2c2-0.8,4.4,0,5.2,2c2.4,5.6,3.6,11.2,3.6,17.2
	C408.816,152.808,390.016,171.608,366.816,171.608z"/>
<path d="M144.816,413.208c-23.2,0-41.6-18.8-41.6-41.6s18.8-41.6,41.6-41.6c6.8,0,13.6,1.6,19.2,4.8c2,1.2,2.8,3.6,1.6,5.2
	c-1.2,2-3.6,2.8-5.2,1.6c-4.8-2.4-10-4-15.6-4c-18.8,0-33.6,15.2-33.6,33.6s15.2,33.6,33.6,33.6c18.8,0,33.6-15.2,33.6-33.6
	c0-4.8-1.2-9.6-2.8-14c-0.8-2,0-4.4,2-5.2c2-0.8,4.4,0,5.2,2c2.4,5.6,3.6,11.2,3.6,17.2
	C186.416,394.808,167.616,413.208,144.816,413.208z"/>
<path d="M271.616,413.208c-23.2,0-41.6-18.8-41.6-41.6s18.8-41.6,41.6-41.6c6.8,0,13.6,1.6,19.2,4.8c2,1.2,2.8,3.6,1.6,5.2
	c-1.2,2-3.6,2.8-5.2,1.6c-4.8-2.4-10-4-15.6-4c-18.8,0-33.6,15.2-33.6,33.6s15.2,33.6,33.6,33.6c18.8,0,33.6-15.2,33.6-33.6
	c0-4.8-1.2-9.6-2.8-14c-0.8-2,0-4.4,2-5.2s4.4,0,5.2,2c2.4,5.6,3.6,11.2,3.6,17.2C313.616,394.808,294.816,413.208,271.616,413.208z
	"/>
<path d="M398.816,413.208c-23.2,0-41.6-18.8-41.6-41.6s18.8-41.6,41.6-41.6c6.8,0,13.6,1.6,19.2,4.8c2,1.2,2.8,3.6,1.6,5.2
	s-3.6,2.8-5.2,1.6c-4.8-2.4-10-4-15.6-4c-18.8,0-33.6,15.2-33.6,33.6s15.2,33.6,33.6,33.6c18.8,0,33.6-15.2,33.6-33.6
	c0-4.8-1.2-9.6-2.8-14c-0.8-2,0-4.4,2-5.2c2-0.8,4.4,0,5.2,2c2.4,5.6,3.6,11.2,3.6,17.2
	C440.416,394.808,421.616,413.208,398.816,413.208z"/>
<g>
</g>
<g>
</g>
<g>
</g>
<g>
</g>
<g>
</g>
<g>
</g>
<g>
</g>
<g>
</g>
<g>
</g>
<g>
</g>
<g>
</g>
<g>
</g>
<g>
</g>
<g>
</g>
<g>
</g>
</svg>
