<?xml version="1.0" encoding="iso-8859-1"?>
<!-- Generator: Adobe Illustrator 19.0.0, SVG Export Plug-In . SVG Version: 6.00 Build 0)  -->
<svg version="1.1" id="Layer_1" xmlns="http://www.w3.org/2000/svg" xmlns:xlink="http://www.w3.org/1999/xlink" x="0px" y="0px"
	 viewBox="0 0 512.001 512.001" style="enable-background:new 0 0 512.001 512.001;" xml:space="preserve">
<g>
	<circle style="fill:#FF728B;" cx="372.402" cy="418.085" r="93.915"/>
	<circle style="fill:#FF728B;" cx="139.599" cy="418.085" r="93.915"/>
</g>
<g>
	<path style="fill:#FF3F62;" d="M156.551,481.889c-51.871,0-93.92-42.049-93.92-93.92c0-10.551,1.741-20.696,4.95-30.164
		c-13.666,16.312-21.898,37.331-21.898,60.275c0,51.871,42.05,93.92,93.92,93.92c41.319,0,76.405-26.683,88.971-63.755
		C211.344,468.809,185.476,481.889,156.551,481.889z"/>
	<path style="fill:#FF3F62;" d="M389.349,481.889c-51.871,0-93.92-42.049-93.92-93.92c0-10.551,1.741-20.696,4.95-30.164
		c-13.666,16.312-21.898,37.331-21.898,60.275c0,51.871,42.05,93.92,93.92,93.92c41.319,0,76.405-26.683,88.971-63.755
		C444.142,468.809,418.275,481.889,389.349,481.889z"/>
</g>
<path style="fill:#957856;" d="M378.28,390.622c-2.068,0-4.13-0.813-5.671-2.426c-49.579-51.954-80.763-124.058-98.193-175.396
	c-12.1-35.641-19.353-65.983-23.067-83.58c-48.337,58.972-73.809,119.837-86.824,161.688
	c-15.049,48.393-17.082,82.105-17.101,82.439c-0.242,4.322-3.948,7.617-8.263,7.385c-4.322-0.242-7.628-3.941-7.385-8.263
	c0.081-1.446,2.166-35.995,17.783-86.216c14.377-46.235,43.483-114.946,100.503-179.726c2.002-2.274,5.134-3.188,8.045-2.354
	c2.911,0.836,5.08,3.275,5.571,6.263c0.07,0.427,7.23,43.348,25.671,97.596c16.915,49.756,47.057,119.524,94.598,169.342
	c2.987,3.132,2.872,8.092-0.259,11.08C382.172,389.903,380.225,390.622,378.28,390.622z"/>
<g>
	<path style="fill:#FF3F62;" d="M434.972,425.918c-4.329,0-7.837-3.509-7.837-7.837c0-7.647-1.552-15.045-4.613-21.992
		c-1.745-3.96,0.05-8.586,4.011-10.332c3.96-1.745,8.586,0.051,10.332,4.011c3.943,8.95,5.943,18.476,5.943,28.313
		C442.809,422.409,439.301,425.918,434.972,425.918z"/>
	<path style="fill:#FF3F62;" d="M189.597,463.499c-1.642,0-3.298-0.514-4.709-1.578c-3.457-2.605-4.147-7.518-1.543-10.975
		c7.193-9.546,10.994-20.91,10.994-32.865c0-4.328,3.509-7.837,7.837-7.837c4.328,0,7.837,3.509,7.837,7.837
		c0,15.385-4.893,30.012-14.15,42.296C194.322,462.422,191.974,463.499,189.597,463.499z"/>
	<path style="fill:#FF3F62;" d="M139.601,390.991c-15.333,0-29.825-5.891-40.805-16.589c-3.1-3.021-3.165-7.982-0.144-11.082
		s7.982-3.164,11.082-0.144c8.036,7.83,18.644,12.143,29.867,12.143c11.433,0,22.183-4.452,30.269-12.538
		c3.061-3.06,8.023-3.062,11.082,0c3.061,3.06,3.061,8.023,0,11.082C169.906,384.909,155.221,390.991,139.601,390.991z"/>
	<path style="fill:#FF3F62;" d="M372.163,390.991c-15.333,0-29.823-5.891-40.805-16.589c-3.1-3.02-3.165-7.982-0.145-11.081
		c3.02-3.1,7.982-3.165,11.081-0.145c8.037,7.83,18.645,12.143,29.868,12.143c11.433,0,22.182-4.452,30.268-12.538
		c3.062-3.06,8.023-3.06,11.083,0s3.06,8.023,0,11.082C402.468,384.909,387.783,390.991,372.163,390.991z"/>
</g>
<path style="fill:#6DC82A;" d="M277.685,5.5c-5.372-6.24-14.633-7.317-21.293-2.475c-23.894,17.369-37.026,37.755-39.031,60.593
	c-3.04,34.622,21.668,60.685,22.721,61.778c3.068,3.183,7.209,4.841,11.396,4.841c2.808,0,5.636-0.746,8.173-2.279
	c23.112-13.959,36.568-31.914,39.993-53.366C305.449,38.249,278.82,6.821,277.685,5.5z"/>
<path style="fill:#5EAC24;" d="M294.315,33.855c-10.071,2.425-19.593,6.326-28.22,11.621c-19.258,11.821-33.597,29.818-42.75,53.575
	c6.582,15.63,16.092,25.674,16.738,26.344c3.068,3.183,7.209,4.841,11.396,4.841c2.808,0,5.635-0.746,8.173-2.279
	c23.112-13.959,36.568-31.914,39.993-53.366C302.042,59.58,298.902,45.414,294.315,33.855z"/>
<path style="fill:#91DC5A;" d="M361.368,71.743c-1.985-0.97-20.032-9.472-42.068-9.472c-19.77,0-55.123,7.42-69.785,57.111
	c-2.052,6.958,0.982,14.41,7.31,17.954c1.866,1.046,18.862,10.213,40.632,10.214c0.001,0,0.003,0,0.004,0
	c14.473,0,27.64-4.016,39.134-11.935c13.753-9.476,24.664-24.367,32.428-44.26C371.966,83.821,368.636,75.292,361.368,71.743z"/>
<path style="fill:#6DC82A;" d="M361.368,71.743c-1.985-0.97-20.032-9.472-42.068-9.472c-19.77,0-55.123,7.42-69.785,57.111
	c-2.052,6.958,0.982,14.41,7.31,17.954c0.923,0.516,5.541,3.015,12.598,5.41c23.492-55.616,68.464-56.54,98.829-49.494
	c0.257-0.632,0.521-1.256,0.772-1.899C371.966,83.821,368.636,75.292,361.368,71.743z"/>
<g>
</g>
<g>
</g>
<g>
</g>
<g>
</g>
<g>
</g>
<g>
</g>
<g>
</g>
<g>
</g>
<g>
</g>
<g>
</g>
<g>
</g>
<g>
</g>
<g>
</g>
<g>
</g>
<g>
</g>
</svg>
