<?xml version="1.0" encoding="iso-8859-1"?>
<!-- Generator: Adobe Illustrator 19.0.0, SVG Export Plug-In . SVG Version: 6.00 Build 0)  -->
<svg version="1.1" id="Layer_1" xmlns="http://www.w3.org/2000/svg" xmlns:xlink="http://www.w3.org/1999/xlink" x="0px" y="0px"
	 viewBox="0 0 471.838 471.838" style="enable-background:new 0 0 471.838 471.838;" xml:space="preserve">
<g transform="translate(0 -1020.36)" shape-rendering="auto" image-rendering="auto" color-rendering="auto" color-interpolation="sRGB">
	<g>
		<path style="fill:#464C63;" d="M152.391,1020.36c-2.438,0-4.712,0.56-7.099,1.072l-3.094,1.024
			c2.843-1.056,0.876-0.448-0.691,0.352c-12.955,6.797-19.875,21.469-16.845,35.78l1.75,8.219c6.643,31.371,19.122,61.234,36.781,88
			l37.501,56.844c-18.76,5.85-37.107,14.314-52.282,27.313c-27.389,23.459-47.867,56.092-57.938,90.469
			c-7.758,26.49-9.637,56.891,0.16,83.75l0,0l0,0c18.301,47.809,69.144,67.289,116.97,75.906l0,0h0.16
			c24.232,3.91,49.562,4.375,74,0c23.928-4.359,45.493-11.877,63.094-25.313c17.602-13.434,30.885-32.783,38.25-59.156l0,0
			c6.491-24.301,6.24-50.721,0-74.938c-8.416-32.816-23.434-67.207-50-90.656c-18.304-16.154-41.627-24.111-64.499-29.438
			l38.374-55.344c18.28-26.365,31.28-56.027,38.25-87.344l1.845-8.344c3.181-14.294-3.805-29.021-16.907-35.562l-0.432-0.256
			l-3.157-0.624h1.216c-6.197-2.158-12.762-2.288-18.781-0.464c-6.645,1.995-12.614,6.233-16.656,12.344l-7,9.312
			c-19.867,26.447-33.901,56.793-41.189,89.063l-9.624,42.625l-10.187-42.75c-7.658-32.141-21.475-62.496-40.688-89.376
			l-6.282-8.781C170.148,1024.281,160.076,1020.838,152.391,1020.36L152.391,1020.36z M236.767,1220.296L236.767,1220.296
			c3.475,0.004,6.99,0.385,10.406,1.023l0,0c27.635,5.291,56.186,12.633,75.438,29.625c22.928,20.234,37.157,51.715,45.093,82.656
			c5.533,21.57,5.702,45.445,0,66.813c-6.594,23.537-17.685,39.324-32.531,50.656c-14.861,11.344-33.842,18.203-56.218,22.281
			c-22.286,4.018-45.824,3.639-68.469,0c-45.608-8.217-89.587-26.055-104.845-65.844l0,0c-8.152-22.492-6.808-49.771,0.192-73.658
			c9.184-31.355,28.211-61.58,53-82.811c18.147-15.545,43.04-24.533,67.75-29.75c3.272-0.688,6.71-1.039,10.187-1.023
			L236.767,1220.296z"/>
		<g>
			<path style="fill:#FFB900;" d="M318.403,1036.428v0.16c1.636,0,3.279,0.432,4.875,1.056c6.401,3.365,9.921,10.379,8.344,17.469
				l-1.875,8.345c-6.52,29.293-18.651,57.057-35.75,81.719l-42.188,60.875c-0.512-0.16-1.053-0.256-1.563-0.367h-0.032
				c-1.935-0.367-3.96-0.367-5.937-0.592l15.625-69.189c6.79-30.061,19.866-58.359,38.375-83l7.437-9.874l0.128-0.224
				c2.859-4.321,7.654-6.542,12.563-6.312L318.403,1036.428z"/>
			<path style="fill:#FFB900;" d="M153.122,1036.653c4.413,0,8.632,2.02,10.969,6.125l0.187,0.352l6.5,9.095
				c9.005,12.599,16.734,26.009,23.125,40.03c6.391,14.021,11.442,28.656,15.031,43.721l16.563,69.531
				c-0.726,0.16-1.464-0.006-2.188,0.225c-2.091,0.447-4.21,1.072-6.312,1.568l-40.406-61.281
				c-16.556-25.096-28.271-53.057-34.5-82.469l-1.75-8.25c-1.518-7.17,2.058-14.2,8.375-17.813c1.456-0.512,2.935-0.784,4.406-0.816
				L153.122,1036.653z"/>
		</g>
		<path style="fill:#464C63;" d="M327.934,1022.147c0.643,0.224,1.304,0.352,1.937,0.624l-1.25-0.624H327.934z"/>
	</g>
	<path style="fill:#464C63;" d="M175.993,1313.317c-10.951,0-20,9.049-20,20s9.049,20,20,20c10.951,0,20-9.049,20-20
		S186.944,1313.317,175.993,1313.317z"/>
	<path style="fill:#FFB900;" d="M175.993,1329.317c2.304,0,4,1.695,4,4s-1.696,4-4,4c-2.304,0-4-1.695-4-4
		S173.689,1329.317,175.993,1329.317z"/>
	<path style="fill:#464C63;" d="M295.993,1313.317c-10.951,0-20,9.049-20,20s9.049,20,20,20c10.951,0,20-9.049,20-20
		S306.944,1313.317,295.993,1313.317z"/>
	<path style="fill:#FFB900;" d="M295.993,1329.317c2.304,0,4,1.695,4,4s-1.696,4-4,4c-2.304,0-4-1.695-4-4
		S293.689,1329.317,295.993,1329.317z"/>
	<g>
		<path style="fill:#464C63;" d="M235.84,1369.301c-0.964,0.016-1.916,0.207-2.812,0.561l-40,16
			c-4.109,1.643-6.108,6.307-4.465,10.416c0.311,0.777,0.742,1.502,1.278,2.146l40,48c2.833,3.4,7.886,3.859,11.286,1.027
			c0.372-0.311,0.716-0.654,1.026-1.027l39.969-48c2.834-3.398,2.376-8.453-1.024-11.287c-0.64-0.533-1.36-0.963-2.133-1.275l-40-16
			C237.971,1369.469,236.909,1369.278,235.84,1369.301L235.84,1369.301z"/>
		<path style="fill:#FFB900;" d="M236,1385.928l26.75,10.719L236,1428.772l-26.781-32.125L236,1385.928z"/>
	</g>
</g>
<g>
</g>
<g>
</g>
<g>
</g>
<g>
</g>
<g>
</g>
<g>
</g>
<g>
</g>
<g>
</g>
<g>
</g>
<g>
</g>
<g>
</g>
<g>
</g>
<g>
</g>
<g>
</g>
<g>
</g>
</svg>
