<?xml version="1.0" encoding="iso-8859-1"?>
<!-- Generator: Adobe Illustrator 19.0.0, SVG Export Plug-In . SVG Version: 6.00 Build 0)  -->
<svg version="1.1" id="Layer_1" xmlns="http://www.w3.org/2000/svg" xmlns:xlink="http://www.w3.org/1999/xlink" x="0px" y="0px"
	 viewBox="0 0 511.998 511.998" style="enable-background:new 0 0 511.998 511.998;" xml:space="preserve">
<path style="fill:#FFD77A;" d="M496.713,287.611c-11.812-25.345-21.32-51.65-28.737-78.61
	C447.069,132.992,386.37,73.471,309.687,54.224l0,0c28.892-28.559,33.75-53.806,33.75-53.806s-87.438-8.12-87.438,47.193
	c0-55.312-87.438-47.193-87.438-47.193s4.858,25.247,33.75,53.806l0,0C125.63,73.471,64.931,132.992,44.022,209
	c-7.417,26.961-16.925,53.267-28.737,78.61C-12,346.16-0.371,511.998,255.999,511.998S523.998,346.16,496.713,287.611z"/>
<g style="opacity:0.1;">
	<path d="M202.313,54.224C125.63,73.473,64.931,132.992,44.022,209c-7.415,26.961-16.925,53.267-28.737,78.61
		C-12,346.16-0.371,511.998,255.997,511.998c8.944,0,17.557-0.221,25.914-0.613C50.724,500.539,40.781,344.118,67.115,287.611
		c11.812-25.344,21.32-51.65,28.737-78.61C116.759,132.992,125.63,73.473,202.313,54.224L202.313,54.224z"/>
</g>
<g>
	<circle style="fill:#43434D;" cx="161.305" cy="247.097" r="23.151"/>
	<circle style="fill:#43434D;" cx="350.683" cy="247.097" r="23.151"/>
</g>
<path style="fill:#ED9472;" d="M320.02,328.928l-64.021-21.408l-64.021,21.415c0,0.074-0.007,0.149-0.007,0.223
	c0,28.882,28.666,52.296,64.028,52.296s64.028-23.414,64.028-52.296C320.029,329.081,320.022,329.005,320.02,328.928z"/>
<path style="fill:#FF9E78;" d="M255.999,338.177c24.058,0,46.23-3.447,63.954-9.246l0.067-0.002
	c-0.152-28.776-28.754-52.066-64.021-52.066c-35.27,0-63.874,23.293-64.021,52.073l0.066-0.005
	C209.767,334.731,231.941,338.177,255.999,338.177z"/>
<g>
</g>
<g>
</g>
<g>
</g>
<g>
</g>
<g>
</g>
<g>
</g>
<g>
</g>
<g>
</g>
<g>
</g>
<g>
</g>
<g>
</g>
<g>
</g>
<g>
</g>
<g>
</g>
<g>
</g>
</svg>
