<?xml version="1.0" encoding="iso-8859-1"?>
<!-- Generator: Adobe Illustrator 19.0.0, SVG Export Plug-In . SVG Version: 6.00 Build 0)  -->
<svg version="1.1" id="Layer_1" xmlns="http://www.w3.org/2000/svg" xmlns:xlink="http://www.w3.org/1999/xlink" x="0px" y="0px"
	 viewBox="0 0 512.002 512.002" style="enable-background:new 0 0 512.002 512.002;" xml:space="preserve">
<path style="fill:#A0815C;" d="M509.641,245.042c-1.143-1.747-2.794-3.272-4.824-4.458c-13.181-7.701-30.941-11.606-52.786-11.606
	c-46.992,0-99.903,18.067-102.132,18.836c-7.109,2.452-11.076,8.318-9.582,14.167c1.495,5.848,8.058,10.143,15.851,10.374
	c67.508,1.989,128.299,31.879,129.22,32.336c2.788,1.396,5.997,2.102,9.217,2.102c2.677,0,5.361-0.488,7.815-1.473
	c5.41-2.171,8.851-6.413,8.99-11.079C512.734,249.769,511.7,248.189,509.641,245.042z"/>
<path style="fill:#806749;" d="M418.945,256.01c10.059-9.51,18.78-18.42,26.293-26.901c-45.155,1.572-93.217,17.982-95.34,18.714
	c-7.109,2.452-11.076,8.318-9.582,14.167c1.495,5.848,8.058,10.143,15.851,10.374c37.034,1.091,72.043,10.579,96.26,18.998
	C443.456,280.378,432.401,268.73,418.945,256.01z"/>
<path style="fill:#9CDD05;" d="M372.072,256.001c57.68,49.766,79.336,79.747,81.139,108.951c1.769,28.262-16.314,55.75-38.846,78.77
	c-23.018,22.53-50.492,40.6-78.749,38.824c-29.2-1.808-59.182-23.461-108.948-81.142c-49.766,57.68-79.747,79.335-108.952,81.138
	c-28.263,1.769-55.75-16.313-78.769-38.845c-22.53-23.018-40.6-50.493-38.825-78.749c1.808-29.2,23.463-59.181,81.143-108.947
	c-57.68-49.764-79.336-79.746-81.139-108.95c-1.769-28.263,16.314-55.752,38.846-78.771c23.019-22.531,50.493-40.601,78.75-38.825
	c29.2,1.808,59.182,23.462,108.948,81.142c49.766-57.68,79.747-79.335,108.952-81.138c28.263-1.768,55.75,16.313,78.769,38.846
	c22.53,23.017,40.6,50.492,38.825,78.748C451.406,176.252,429.753,206.236,372.072,256.001z"/>
<g>
	<path style="fill:#85BB04;" d="M78.642,109.163c23.018-22.53,50.492-40.6,78.749-38.824c18.865,1.167,38.066,10.64,62.709,32.74
		c-45.876-52.038-74.494-71.898-102.384-73.624C89.459,27.679,61.985,45.75,38.967,68.279C16.436,91.299-1.648,118.786,0.122,147.05
		c1.613,26.127,19.137,52.886,64.103,93.863c-16.212-20.108-23.422-36.667-24.429-52.979
		C38.027,159.67,56.109,132.182,78.642,109.163z"/>
	<path style="fill:#85BB04;" d="M79.829,404.027c-22.53-23.018-40.6-50.492-38.824-78.749c1.167-18.865,10.64-38.066,32.74-62.709
		C21.707,308.446,1.848,337.063,0.122,364.953c-1.776,28.257,16.295,55.731,38.824,78.749c23.02,22.532,50.507,40.615,78.771,38.846
		c26.127-1.613,52.886-19.137,93.863-64.103c-20.108,16.212-36.667,23.422-52.979,24.429
		C130.338,444.643,102.849,426.559,79.829,404.027z"/>
	<path style="fill:#85BB04;" d="M374.695,402.839c-23.018,22.53-50.492,40.6-78.749,38.824c-18.865-1.167-38.066-10.64-62.709-32.74
		c45.877,52.038,74.494,71.898,102.384,73.624c28.257,1.776,55.731-16.295,78.749-38.824c22.532-23.02,40.615-50.507,38.846-78.771
		c-1.613-26.127-19.137-52.886-64.103-93.863c16.212,20.108,23.422,36.667,24.429,52.979
		C415.31,352.33,397.226,379.819,374.695,402.839z"/>
	<path style="fill:#85BB04;" d="M373.507,107.975c22.53,23.018,40.6,50.492,38.824,78.749c-1.167,18.865-10.64,38.066-32.74,62.709
		c52.038-45.876,71.898-74.494,73.624-102.384c1.776-28.257-16.295-55.731-38.824-78.749c-23.02-22.532-50.507-40.615-78.771-38.846
		c-26.127,1.613-52.886,19.137-93.863,64.103c20.108-16.212,36.667-23.422,52.979-24.429
		C322.999,67.359,350.488,85.443,373.507,107.975z"/>
</g>
<path style="fill:#CCFC5C;" d="M271.541,256.001c17.989,15.521,24.742,24.871,25.304,33.979c0.552,8.815-5.088,17.387-12.115,24.566
	c-7.179,7.026-15.747,12.662-24.559,12.109c-9.106-0.563-18.457-7.317-33.978-25.305c-15.521,17.989-24.871,24.742-33.979,25.304
	c-8.815,0.552-17.387-5.088-24.565-12.115c-7.026-7.179-12.662-15.747-12.109-24.559c0.564-9.106,7.317-18.457,25.306-33.978
	c-17.989-15.52-24.742-24.871-25.304-33.979c-0.552-8.815,5.088-17.388,12.115-24.567c7.179-7.026,15.747-12.662,24.559-12.109
	c9.106,0.563,18.457,7.317,33.978,25.305c15.521-17.989,24.871-24.742,33.979-25.304c8.815-0.552,17.387,5.088,24.565,12.115
	c7.026,7.178,12.662,15.747,12.109,24.559C296.283,231.129,289.529,240.48,271.541,256.001z"/>
<g>
	<path style="fill:#85BB04;" d="M104.789,385.714c-2.034,0-4.067-0.787-5.602-2.356c-18.854-19.263-31.387-38.248-37.25-56.429
		c-1.328-4.12,0.934-8.538,5.054-9.865c4.121-1.334,8.537,0.934,9.866,5.054c5.111,15.849,16.393,32.764,33.533,50.274
		c3.028,3.094,2.975,8.057-0.119,11.083C108.747,384.97,106.767,385.714,104.789,385.714z"/>
	<path style="fill:#85BB04;" d="M155.198,420.106c-0.889,0-1.793-0.153-2.679-0.473c-9.406-3.421-19.101-8.646-28.814-15.533
		c-3.531-2.504-4.364-7.396-1.86-10.928c2.503-3.531,7.395-4.365,10.928-1.86c8.569,6.075,17.016,10.647,25.104,13.588
		c4.069,1.48,6.167,5.977,4.687,10.046C161.407,418.129,158.4,420.106,155.198,420.106z"/>
</g>
<g>
</g>
<g>
</g>
<g>
</g>
<g>
</g>
<g>
</g>
<g>
</g>
<g>
</g>
<g>
</g>
<g>
</g>
<g>
</g>
<g>
</g>
<g>
</g>
<g>
</g>
<g>
</g>
<g>
</g>
</svg>
