<svg width="64px" height="64px" viewBox="0 0 64 64" xmlns="http://www.w3.org/2000/svg">
  <g fill="none" fill-rule="evenodd">
    <path fill="#80D25B" d="M32,58 C40.3020695,58 51.4243786,55.7276439 56.6432969,52.0010695 C62.5342023,47.794662 60,41.7354368 60,35 C60,22.2974508 40.0076218,8.05909804 32,8.05909804 C23.9923782,8.05909804 4,22.2974508 4,35 C4,41.7354368 0.465797682,47.794662 6.35670307,52.0010695 C11.5756214,55.7276439 23.6979305,58 32,58 Z"/>
    <circle cx="20.5" cy="38.5" r="7.5" fill="#FFF"/>
    <circle cx="42.5" cy="38.5" r="7.5" fill="#FFF"/>
    <polygon fill="#22BA8E" points="25.11 11.406 23.388 8.465 26.738 8.522 28.628 7.159 31.365 8.017 34.237 6.994 36.553 7.788 40.113 8.69 41.319 7.37 40.471 10.627 37.2 11.657 31.207 12.302"/>
    <circle cx="20.5" cy="38.5" r="4.5" fill="#0A3586"/>
    <path fill="#ED9111" d="M15,55 L48,55 L44,60 C44,60 37.75,58 31.5,58 C25.25,58 19,60 19,60 L15,55 Z"/>
    <circle cx="42.5" cy="38.5" r="4.5" fill="#0A3586"/>
    <path fill="#FFAF40" stroke="#ED9111" stroke-linecap="round" stroke-width="2" d="M12.081896,49.8418621 C11.5587237,48.272345 12.3787181,47.4809782 13.9760886,47.9355886 C13.9760886,47.9355886 14.7955033,48.7669553 20.1346087,48.5 C25.473714,48.2330447 31.1346087,46 31.1346087,46 C31.1346087,46 37.473714,48.2669553 42.1346087,48.5 C46.7955033,48.7330447 48.2642523,47.8657532 48.2642523,47.8657532 C49.8495063,47.3876109 50.7104601,48.2724457 50.1873213,49.8418621 L49.1346087,53 L50.6582479,55.6663687 C52.0259042,58.0597672 51.0429118,59.1966635 48.4334203,58.2932682 C48.4334203,58.2932682 41.1346087,55 31.1346087,55 C21.1346087,55 13.835797,58.2932682 13.835797,58.2932682 C11.2394024,59.2358701 10.2488317,58.0501097 11.6109694,55.6663687 L13.1346087,53 L12.081896,49.8418621 Z"/>
    <path stroke="#22BA8E" stroke-linecap="round" stroke-width="2" d="M17,26 C14.2385763,26 12,28.2385763 12,31"/>
    <path stroke="#22BA8E" stroke-linecap="round" stroke-width="2" d="M51,26 C48.2385763,26 46,28.2385763 46,31" transform="matrix(-1 0 0 1 97 0)"/>
  </g>
</svg>
