<?xml version="1.0" encoding="iso-8859-1"?>
<!-- Generator: Adobe Illustrator 18.0.0, SVG Export Plug-In . SVG Version: 6.00 Build 0)  -->
<!DOCTYPE svg PUBLIC "-//W3C//DTD SVG 1.1//EN" "http://www.w3.org/Graphics/SVG/1.1/DTD/svg11.dtd">
<svg version="1.1" id="Capa_1" xmlns="http://www.w3.org/2000/svg" xmlns:xlink="http://www.w3.org/1999/xlink" x="0px" y="0px"
	 viewBox="0 0 49 49" style="enable-background:new 0 0 49 49;" xml:space="preserve">
<g>
	<path style="fill:#F6C346;" d="M37.19,26.375c-0.999-1.983-2.486-3.818-4.687-5.119c-0.231-0.136-0.295-0.436-0.123-0.641
		c1.116-1.332,4.669-5.868,4.669-9.615c0-6.075-4.925-11-11-11s-11,4.925-11,11c0,6,5.008,9.048,5.873,9.88
		c0.086,0.082,0.13,0.186,0.128,0.305c-0.012,1.015-0.342,5.794-5.532,3.985c-1.398-0.487-2.64-1.341-3.686-2.387L5.888,16.84
		c-0.469-0.469-1.239-0.409-1.634,0.125C2.92,18.768,0.431,23.017,1.048,29c0,0,0.366,16.187,11.604,19.514
		C13.861,48.872,15.126,49,16.386,49h6.858c2.854,0,5.645-0.829,8.027-2.402c0.083-0.055,0.166-0.11,0.25-0.166
		C38.085,42.017,40.75,33.439,37.19,26.375z"/>
	<path style="fill:#D77328;" d="M47.538,10h-8.206h-2.335c0.03,0.33,0.05,0.662,0.05,1c0,2.351-1.398,5.011-2.716,6.997V18h5.871
		c0.926,0,1.854-0.218,2.632-0.721c2.568-1.658,4.434-5.064,5.161-6.554C48.161,10.389,47.912,10,47.538,10z"/>
	<circle style="fill:#FFFFFF;" cx="28.048" cy="9" r="4"/>
	<circle style="fill:#2C2F38;" cx="30.048" cy="10" r="2"/>
	<path style="fill:#D77328;" d="M20.515,29.887c6.723-3.413,7.533,4.125,7.533,4.125c0,8.75-7,8-7,8
		c-5.947,0-8.933-6.269-9.758-8.343c-0.138-0.346,0.071-0.727,0.434-0.808l0.377-0.084C15.006,32.132,17.863,31.233,20.515,29.887z"
		/>
</g>
<g>
</g>
<g>
</g>
<g>
</g>
<g>
</g>
<g>
</g>
<g>
</g>
<g>
</g>
<g>
</g>
<g>
</g>
<g>
</g>
<g>
</g>
<g>
</g>
<g>
</g>
<g>
</g>
<g>
</g>
</svg>
