<?xml version="1.0" encoding="iso-8859-1"?>
<!-- Generator: Adobe Illustrator 19.0.0, SVG Export Plug-In . SVG Version: 6.00 Build 0)  -->
<svg version="1.1" id="Layer_1" xmlns="http://www.w3.org/2000/svg" xmlns:xlink="http://www.w3.org/1999/xlink" x="0px" y="0px"
	 viewBox="0 0 511.985 511.985" style="enable-background:new 0 0 511.985 511.985;" xml:space="preserve">
<path style="fill:#FFCE54;" d="M134.601,290.992c0.891-0.141,1.781-0.297,2.672-0.453l-3.953-20.968
	c-50.514,9.562-115.263-42.641-115.903-43.156c-3.297-2.703-7.875-3.172-11.641-1.219c-3.781,1.938-6.047,5.953-5.75,10.188
	c0.109,1.578,2.812,39.141,18.719,83.827c9.39,26.405,21.499,49.843,35.952,69.623c18.297,25.078,40.437,44.344,65.796,57.266
	l9.688-19c-1.375-0.703-2.734-1.422-4.094-2.172L134.601,290.992z"/>
<path style="fill:#F6BB42;" d="M15.761,310.445c18.249,8.953,41.593,17.875,65.265,20.172l2.047-21.234
	c-28.797-2.781-58.172-17.469-75.327-27.483C9.839,290.695,12.464,300.336,15.761,310.445z"/>
<path style="fill:#DA4453;" d="M502.424,198.041l-12.531-31.328c-1.625-4.047-5.547-6.719-9.906-6.719h-44.796
	c-4.578,0-8.656,2.938-10.109,7.281l-9.266,27.546c-1.078,3.219-0.578,6.734,1.359,9.515s5.078,4.469,8.453,4.547l42,1.125
	l23.718,2.594c0.391,0.047,0.781,0.062,1.172,0.062c3.312,0,6.453-1.547,8.484-4.203
	C503.267,205.478,503.814,201.525,502.424,198.041z"/>
<path style="fill:#ED5564;" d="M509.924,128.026c-2.531-3.438-6.859-5.047-11.016-4.078l-31.968,7.406l-30.188,1.094
	c-5.453,0.203-9.875,4.468-10.25,9.906l-1.953,27.562c-0.203,2.953,0.812,5.859,2.828,8.031c2.031,2.156,4.844,3.391,7.812,3.391
	h44.796c3.781,0,7.281-2,9.203-5.266l21.328-36.328C512.673,136.057,512.438,131.448,509.924,128.026z"/>
<path style="fill:#F6BB42;" d="M413.159,269.055c-14.984-16.797-27.906-31.312-26.656-53.797c0.25-4.719-1.359-9.171-4.578-12.562
	c-5.266-5.578-14.202-8.046-28.998-8.046c-14.672,0-33.733,2.453-50.562,4.625c-13.75,1.766-26.734,3.437-34.531,3.437
	c-2.219,0-3.359-0.141-3.844-0.219c-0.844-0.156-1.688-0.219-2.531-0.219c-4.141,0-8.016,1.766-10.875,4.984
	c-4.765,5.359-6.749,14.89-6.437,30.906c0.047,2.578,0.156,5.078,0.297,7.375c-42.906,1.531-85.952,11.484-119.67,27.828
	c-18.047,8.75-32.469,18.765-42.874,29.78c-11.75,12.438-17.719,25.438-17.719,38.625v0.125c0,21.405,0,57.201,26.733,86.795
	c14.453,16.016,35.188,28.405,61.608,36.858c29.969,9.578,68.358,14.438,114.139,14.438c32.938,0,60.124-2.703,83.155-8.297
	c23.421-5.672,41.982-14.203,56.764-26.046c14.453-11.578,25.203-26.578,31.938-44.594c6.281-16.766,9.328-36.312,9.328-59.764
	C447.847,307.945,429.409,287.289,413.159,269.055z"/>
<path style="fill:#FFCE54;" d="M330.661,31.997c-64.702,0-117.342,52.64-117.342,117.341c0,64.686,52.64,117.327,117.342,117.327
	c64.686,0,117.326-52.641,117.326-117.327C447.987,84.637,395.347,31.997,330.661,31.997z"/>
<path d="M373.316,128.011c0,5.891-4.766,10.671-10.656,10.671s-10.671-4.781-10.671-10.671c0-5.89,4.781-10.672,10.671-10.672
	C368.551,117.339,373.316,122.12,373.316,128.011z"/>
<path style="fill:#FFCE54;" d="M346.911,335.43c-7.891-12.922-21.312-22.312-36.796-25.766c-2.938-0.641-6.766-0.969-11.703-0.969
	c-29.125,0-93.671,11.172-96.405,11.641c-4.296,0.75-7.718,4.031-8.608,8.297c-0.906,4.266,0.875,8.656,4.5,11.078l4.624,3.093
	c-5.093,1.391-10.64,2.922-16.171,4.531c-11.562,3.328-20.922,6.281-27.828,8.75c-13.188,4.734-17.812,7.75-19.781,12.938
	c-1.328,3.483-0.875,7.405,1.219,10.468c0.734,1.094,1.688,2.031,2.766,2.781c1.953,1.344,48.75,32.781,138.014,32.781
	c1.703,0,3.406,0,5.141-0.031c15.875-0.203,29.484-3.062,40.437-8.5c13.75-6.797,22.922-17.672,26.531-31.438
	C356.38,361.585,354.27,347.491,346.911,335.43z"/>
<g>
</g>
<g>
</g>
<g>
</g>
<g>
</g>
<g>
</g>
<g>
</g>
<g>
</g>
<g>
</g>
<g>
</g>
<g>
</g>
<g>
</g>
<g>
</g>
<g>
</g>
<g>
</g>
<g>
</g>
</svg>
