<?xml version="1.0" encoding="iso-8859-1"?>
<!-- Generator: Adobe Illustrator 19.0.0, SVG Export Plug-In . SVG Version: 6.00 Build 0)  -->
<svg version="1.1" id="Layer_1" xmlns="http://www.w3.org/2000/svg" xmlns:xlink="http://www.w3.org/1999/xlink" x="0px" y="0px"
	 viewBox="0 0 512 512" style="enable-background:new 0 0 512 512;" xml:space="preserve">
<g>
	<polygon style="fill:#C4BA39;" points="431.512,359.117 182.024,380.078 122.419,359.117 122.419,400.188 431.512,400.188 	"/>
	<path style="fill:#C4BA39;" d="M76.29,400.188C67.135,340.681,0,311.691,0,311.691s45.774-3.052,67.135,28.99l28.689,27.992
		L76.29,400.188z"/>
</g>
<path style="fill:#CEC73C;" d="M76.29,400.188c1.526-68.66-48.825-154.105-48.825-154.105
	c85.445,64.084,106.806,154.105,106.806,154.105"/>
<path style="fill:#C4BA39;" d="M122.419,400.188c0,0-19.835-164.786-86.971-288.375c0,0,97.651,97.651,154.105,288.375"/>
<path style="fill:#FCC447;" d="M450.579,212.535l-9.618,44.435l-27.315,126.161l-22.934-4.936l-34.32-7.398l-53.648-11.56
	l0.462-89.066l0.451-86.107c25.419-24.31,56.087-39.603,83.842-36.806h0.012c5.132,0.509,10.161,1.653,15.051,3.468
	c5.56,2.069,10.693,4.936,15.397,8.485c3.237,2.439,6.277,5.202,9.109,8.242c2.439,2.612,4.728,5.445,6.855,8.45
	C441.262,186.237,446.811,198.756,450.579,212.535z"/>
<path style="fill:#F2B844;" d="M387.495,147.26c-20.181,11.471-54.061,38.395-59.002,91.674
	c-2.441,26.273-12.763,33.323-25.289,31.237l0.45-86.105C329.073,159.75,359.742,144.463,387.495,147.26z"/>
<path style="fill:#C4BA39;" d="M472.567,400.188c-8.532-75.081,37.54-150.16,37.54-150.16c-28.915,10.271-60.86,56.31-60.86,56.31
	l-52.803,93.85"/>
<path style="fill:#FC675B;" d="M363.143,261.617l-40.747,120.566c-3.144,1.63-6.427,3.098-9.803,4.427
	c-0.624,0.266-1.272,0.509-1.907,0.74c-1.826,0.682-3.653,1.306-5.491,1.884c-0.243,0.081-0.474,0.15-0.717,0.22
	c-28.991,8.901-58.561,4.832-81.853-13.617L179.23,254.092c3.04-39.881,19.755-75.634,49.614-86.731
	c4.589-1.711,9.34-2.774,14.172-3.248c19.767-1.954,41.117,5.965,60.63,19.952c16.923,12.126,32.471,28.818,44.412,47.614
	c2.127,3.341,4.138,6.751,6.023,10.219C357.558,248.324,360.623,254.924,363.143,261.617z"/>
<g>
	<path style="fill:#E8564F;" d="M363.143,261.617l-40.747,120.566c-3.144,1.63-6.427,3.098-9.803,4.427
		c-0.624,0.266-1.272,0.509-1.907,0.74c-1.826,0.682-3.653,1.306-5.491,1.884c-0.243,0.081-0.474,0.15-0.717,0.22
		c5.641-63.855,23.755-116.948,43.58-157.777c2.127,3.341,4.138,6.751,6.023,10.219
		C357.558,248.324,360.623,254.924,363.143,261.617z"/>
	<path style="fill:#E8564F;" d="M246.892,377.966c0,0-3.555-23.289,13.628-65.95c0,0-5.332,62.807,4.741,85.322"/>
</g>
<path style="fill:#F2B844;" d="M450.579,212.535l-9.618,44.435l-50.249,121.225l-4.161,10.045h-25.026l-5.132-17.443l-2.208-7.491
	c0,0,5.78-18.495,5.78-84.385c0-45.498,35.823-94.026,57.994-119.711c3.237,2.439,6.277,5.202,9.109,8.242
	c2.439,2.612,4.728,5.445,6.855,8.45C441.262,186.237,446.811,198.756,450.579,212.535z"/>
<path style="fill:#E8564F;" d="M305.287,389.151l-0.091,0.08c-29.226,9.192-59.077,5.21-82.57-13.389l-43.4-121.75
	c3.048-39.874,19.761-75.63,49.613-86.733c4.596-1.706,9.34-2.775,14.176-3.242c-1.741,3.823-25.119,57.393-9.772,136.3
	C249.168,382.325,305.287,389.151,305.287,389.151z"/>
<path style="fill:#C4BA39;" d="M363.819,400.188c0,0-8.992-95.556,79.341-254.808c0,0-105.28,88.497-129.693,254.808"/>
<g>
	<path style="fill:#CEC73C;" d="M425.029,400.188c0,0,19.835-164.786,86.971-288.375c0,0-97.651,97.651-154.105,288.375"/>
	<path style="fill:#CEC73C;" d="M183.63,400.188c0,0-1.526-105.28-79.341-254.808c0,0,105.28,88.497,129.693,254.808"/>
</g>
<g>
	<path style="fill:#C4BA39;" d="M257.189,400.188c0,0-3.555-45.511,13.628-88.173c0,0-5.332,62.807,4.741,85.322"/>
	<path style="fill:#C4BA39;" d="M262.959,394.407c0,0-1.126-45.636-22.59-86.312c0,0,11.739,61.93,4.026,85.359"/>
</g>
<g>
</g>
<g>
</g>
<g>
</g>
<g>
</g>
<g>
</g>
<g>
</g>
<g>
</g>
<g>
</g>
<g>
</g>
<g>
</g>
<g>
</g>
<g>
</g>
<g>
</g>
<g>
</g>
<g>
</g>
</svg>
