<?xml version="1.0" encoding="iso-8859-1"?>
<!-- Generator: Adobe Illustrator 19.0.0, SVG Export Plug-In . SVG Version: 6.00 Build 0)  -->
<svg version="1.1" id="Layer_1" xmlns="http://www.w3.org/2000/svg" xmlns:xlink="http://www.w3.org/1999/xlink" x="0px" y="0px"
	 viewBox="0 0 512 512" style="enable-background:new 0 0 512 512;" xml:space="preserve">
<path style="fill:#73D8D0;" d="M458.901,296.772c0,7.105-0.24,14.033-0.708,20.81C449.621,444.059,362.375,512,256,512
	c-106.362,0-193.621-67.941-202.193-194.418c-0.468-6.776-0.708-13.705-0.708-20.81c0-16.246,1.226-32.706,3.565-49.142
	C74.49,122.621,156.958,0,256,0c99.055,0,181.51,122.621,199.336,247.631C457.675,264.066,458.901,280.527,458.901,296.772z"/>
<path style="fill:#69CCC2;" d="M256,0.005c-76.007,0-137.615,156.958-137.615,296.772c0,138.715,60.647,214.039,135.832,215.215
	c-111.23-0.796-201.118-76.159-201.118-215.215C53.099,156.963,143.949,0.005,256,0.005z"/>
<path style="fill:#E8564F;" d="M458.901,296.772c0,7.105-0.24,14.033-0.708,20.81H53.807c-0.468-6.776-0.708-13.705-0.708-20.81
	c0-16.246,1.226-32.706,3.565-49.142h398.672C457.675,264.066,458.901,280.527,458.901,296.772z"/>
<g>
	<path style="fill:#FC675B;" d="M225,322.841l-60.533,30.266c-22.39,11.189-48.737-5.095-48.737-30.127v-80.748
		c0-25.032,26.347-41.316,48.737-30.127L225,242.371"/>
	<path style="fill:#FC675B;" d="M287.012,322.854l60.533,30.254c22.39,11.189,48.737-5.095,48.737-30.127v-80.748
		c0-25.032-26.347-41.316-48.737-30.127l-60.533,30.254"/>
</g>
<g>
	<polygon style="fill:#E8564F;" points="296.136,260.387 362.035,263.084 299.192,279.103 290.184,282.777 286.428,259.769 	"/>
	<polygon style="fill:#E8564F;" points="298.58,288.601 351.198,302.698 295.885,307.373 286.113,308.711 289.58,284.568 	"/>
	<polygon style="fill:#E8564F;" points="212.814,279.103 149.972,263.084 215.87,260.387 225.578,259.769 221.822,282.777 	"/>
	<polygon style="fill:#E8564F;" points="216.121,307.373 160.809,302.698 213.426,288.601 222.426,284.568 225.893,308.711 	"/>
</g>
<path style="fill:#FC675B;" d="M298.144,282.611c0,32.808-18.863,59.42-42.138,59.42c-1.998,0-3.97-0.202-5.904-0.582
	c-20.481-4.046-36.246-28.85-36.246-58.839c0-30.001,15.765-54.806,36.259-58.839c1.922-0.379,3.894-0.582,5.891-0.582
	C279.281,223.191,298.144,249.791,298.144,282.611z"/>
<path style="fill:#E8564F;" d="M261.06,341.45c-20.481-4.046-36.246-28.85-36.246-58.839c0-30.001,15.765-54.806,36.259-58.839
	c0.131-0.027,0.264-0.044,0.396-0.068c-1.789-0.326-3.608-0.513-5.46-0.513c-1.998,0-3.97,0.202-5.891,0.582
	c-20.494,4.033-36.259,28.838-36.259,58.839c0,29.988,15.765,54.793,36.246,58.839c1.934,0.379,3.907,0.582,5.904,0.582
	c1.85,0,3.668-0.186,5.455-0.512C261.328,341.496,261.194,341.477,261.06,341.45z"/>
<g>
	<circle style="fill:#69CCC2;" cx="304.257" cy="163.001" r="7.797"/>
	<circle style="fill:#69CCC2;" cx="223.142" cy="97.045" r="7.797"/>
	<circle style="fill:#69CCC2;" cx="211.587" cy="197.579" r="7.797"/>
	<circle style="fill:#69CCC2;" cx="351.022" cy="86.754" r="7.797"/>
	<circle style="fill:#69CCC2;" cx="423.552" cy="214.153" r="7.797"/>
	<circle style="fill:#69CCC2;" cx="380.745" cy="378.216" r="7.797"/>
	<circle style="fill:#69CCC2;" cx="248.465" cy="447.422" r="7.797"/>
	<circle style="fill:#69CCC2;" cx="294.434" cy="363.93" r="7.797"/>
	<circle style="fill:#69CCC2;" cx="164.189" cy="395.17" r="7.797"/>
	<circle style="fill:#69CCC2;" cx="133.051" cy="184.291" r="7.797"/>
</g>
<g>
</g>
<g>
</g>
<g>
</g>
<g>
</g>
<g>
</g>
<g>
</g>
<g>
</g>
<g>
</g>
<g>
</g>
<g>
</g>
<g>
</g>
<g>
</g>
<g>
</g>
<g>
</g>
<g>
</g>
</svg>
