<?xml version="1.0" encoding="iso-8859-1"?>
<!-- Generator: Adobe Illustrator 19.0.0, SVG Export Plug-In . SVG Version: 6.00 Build 0)  -->
<svg version="1.1" id="Layer_1" xmlns="http://www.w3.org/2000/svg" xmlns:xlink="http://www.w3.org/1999/xlink" x="0px" y="0px"
	 viewBox="0 0 512 512" style="enable-background:new 0 0 512 512;" xml:space="preserve">
<path style="fill:#B27214;" d="M235.863,290.471c-19.118,5.271-37.376,4.988-49.694,0.247c-7.8-2.988-13.2-7.776-14.929-14.071
	c-4.471-16.235,17.212-36.364,48.435-44.953c26.212-7.223,50.8-4.012,60.658,6.8c1.894,2.071,3.247,4.412,3.965,7.023
	C288.769,261.754,267.086,281.87,235.863,290.471z"/>
<path style="fill:#C9801F;" d="M235.863,290.471c-19.118,5.271-37.376,4.988-49.694,0.247c-1.894-2.071-3.235-4.412-3.953-7.012
	c-4.471-16.235,17.223-36.364,48.435-44.953c19.106-5.259,37.364-4.988,49.682-0.259c1.894,2.071,3.247,4.412,3.965,7.023
	C288.769,261.754,267.086,281.87,235.863,290.471z"/>
<path style="fill:#B27214;" d="M400.027,470.493c-0.224,0.129-0.459,0.235-0.694,0.353c-10.259,4.823-25.717-4.553-34.941-21.4
	c-9.435-17.223-8.776-35.741,1.471-41.353c3.835-2.094,8.459-2.094,13.247-0.353c8.023,2.894,16.482,10.612,22.388,21.4
	C410.932,446.364,410.274,464.882,400.027,470.493z"/>
<path style="fill:#C9801F;" d="M400.027,470.493c-0.224,0.129-0.459,0.235-0.694,0.353c-8.023-2.894-16.482-10.612-22.388-21.4
	c-9.435-17.223-8.776-35.741,1.471-41.353c0.224-0.129,0.459-0.235,0.694-0.353c8.023,2.894,16.482,10.612,22.388,21.4
	C410.932,446.364,410.274,464.882,400.027,470.493z"/>
<g>
	<path style="fill:#CEC73C;" d="M185.102,156.498l8.673-4.192l-4.192-8.673C163.715,90.109,99.355,67.688,45.829,93.556
		l-8.673,4.192l4.192,8.673C67.216,159.945,131.577,182.366,185.102,156.498z"/>
	<path style="fill:#CEC73C;" d="M139.426,392.409l7.928,5.471l5.471-7.928c33.763-48.93,21.468-115.966-27.462-149.73l-7.928-5.471
		l-5.471,7.928C78.201,291.61,90.496,358.646,139.426,392.409z"/>
	<path style="fill:#CEC73C;" d="M276.649,480.376L276.649,480.376L276.649,480.376c30.715-44.513,19.53-105.497-24.982-136.213l0,0
		l0,0C220.951,388.676,232.136,449.66,276.649,480.376z"/>
</g>
<path style="fill:#A67C52;" d="M457.11,415.334c-78.535-15.51-150.49-44.954-213.868-87.511
	c-50.738-34.07-96.159-76.595-135-126.392c-25.303-32.442-44.503-63.823-58.593-90.282l144.126,41.157L38.853,89.878
	C23.846,58.776,17.42,38.375,17.261,37.861c-1.429-4.658-6.365-7.275-11.025-5.846c-4.659,1.431-7.275,6.367-5.846,11.025
	c1.005,3.273,25.392,81.157,93.491,168.674c4.941,6.351,9.988,12.585,15.136,18.703l38.336,167.462l-17.843-144.333
	c31.356,33.721,66.007,63.442,103.513,88.67c3.627,2.439,7.285,4.829,10.965,7.186l28.166,102.208l-9.855-90.965
	c58.02,34.162,122.24,58.343,191.392,72.001c0.576,0.114,1.152,0.169,1.719,0.169c4.129,0,7.818-2.912,8.647-7.115
	C465,420.92,461.89,416.278,457.11,415.334z"/>
<path style="fill:#CEC73C;" d="M427.096,333.704L427.096,333.704L427.096,333.704c-45.902-29.473-107.004-16.154-136.477,29.748l0,0
	l0,0C336.521,392.924,397.624,379.606,427.096,333.704z"/>
<polygon style="fill:#A67C52;" points="286.999,354.826 385.001,342.762 290.711,372.078 "/>
<path style="fill:#E6E6E6;" d="M235.864,290.469c2.478-42.957-27.17-55.136-27.17-55.136c3.494-1.361,7.172-2.586,10.991-3.638
	c31.215-8.594,60.143-2.413,64.614,13.825C288.765,261.745,267.081,281.875,235.864,290.469z"/>
<ellipse transform="matrix(0.866 0.5 -0.5 0.866 285.7336 -175.1648)" style="fill:#C9801F;" cx="469.72" cy="445.59" rx="24.87" ry="14.79"/>
<path style="fill:#B27214;" d="M489.344,429.082c-5.765,3.165-11.682,5.188-17.212,6.106c-10.976,1.812-20.412-0.765-24.141-7.576
	c-5.612-10.235,3.812-26.188,21.035-35.623c10.529-5.765,21.529-7.765,29.776-6.106c5.259,1.047,9.4,3.588,11.576,7.565
	C515.991,403.694,506.567,419.647,489.344,429.082z"/>
<path style="fill:#C9801F;" d="M489.344,429.082c-5.765,3.165-11.682,5.188-17.212,6.106c-5.259-1.047-9.4-3.588-11.588-7.576
	c-5.612-10.235,3.812-26.188,21.035-35.623c5.776-3.165,11.694-5.188,17.223-6.106c5.259,1.047,9.4,3.588,11.576,7.565
	C515.991,403.694,506.567,419.647,489.344,429.082z"/>
<g>
</g>
<g>
</g>
<g>
</g>
<g>
</g>
<g>
</g>
<g>
</g>
<g>
</g>
<g>
</g>
<g>
</g>
<g>
</g>
<g>
</g>
<g>
</g>
<g>
</g>
<g>
</g>
<g>
</g>
</svg>
