<?xml version="1.0" encoding="iso-8859-1"?>
<!-- Generator: Adobe Illustrator 19.0.0, SVG Export Plug-In . SVG Version: 6.00 Build 0)  -->
<svg version="1.1" id="Layer_1" xmlns="http://www.w3.org/2000/svg" xmlns:xlink="http://www.w3.org/1999/xlink" x="0px" y="0px"
	 viewBox="0 0 512 512" style="enable-background:new 0 0 512 512;" xml:space="preserve">
<path style="fill:#FFDA44;" d="M426.037,341.963C426.037,435.872,349.909,512,256,512S85.963,435.872,85.963,341.963
	S162.091,0,256,0S426.037,248.055,426.037,341.963z"/>
<g>
	<path style="fill:#FFCD00;" d="M158.061,341.963c0-81.54,57.394-279.287,133.988-329.967C280.43,4.308,268.37,0,256,0
		C162.092,0,85.963,248.055,85.963,341.963C85.963,435.872,162.092,512,256,512c12.371,0,24.429-1.333,36.049-3.842
		C215.458,491.622,158.061,423.501,158.061,341.963z"/>
	<path style="fill:#FFCD00;" d="M87.537,315.366c-1.032,9.783-1.575,18.737-1.575,26.597c0,5.138,0.241,10.217,0.688,15.239
		l75.114,28.064l94.23-35.205l94.235,35.204l75.121-28.064c0.446-5.021,0.688-10.1,0.688-15.237c0-7.86-0.542-16.813-1.575-26.597
		H87.537V315.366z"/>
	<path style="fill:#FFCD00;" d="M135.091,461.467c13.958,14.119,30.349,25.825,48.524,34.389
		c22.333-5.927,46.998-9.034,72.384-9.034c25.386,0,50.053,3.108,72.384,9.034c18.175-8.564,34.567-20.27,48.524-34.389H135.091z"/>
</g>
<path style="fill:#FFE477;" d="M424.468,315.366C413.162,208.252,342.046,0,256,0S98.838,208.252,87.532,315.366H424.468z"/>
<g>
	<path style="fill:#FFDA44;" d="M292.047,11.998C280.429,4.31,268.368,0,256,0C169.954,0,98.838,208.252,87.532,315.366h72.098
		C169.31,223.652,222.84,57.793,292.047,11.998z"/>
	<path style="fill:#FFDA44;" d="M161.654,82.169c-7.032,12.473-13.697,25.862-19.936,39.818l1.118,0.449
		c33.116,13.304,72.247,20.337,113.163,20.337s80.046-7.032,113.163-20.337l1.118-0.449c-6.239-13.957-12.903-27.345-19.936-39.818
		H161.654z"/>
</g>
<circle style="fill:#FF3F62;" cx="256" cy="211.216" r="40.226"/>
<path style="fill:#D80027;" d="M251.82,211.211c0-15.735,9.039-29.351,22.204-35.962c-5.423-2.723-11.542-4.266-18.024-4.266
	c-22.217,0-40.226,18.011-40.226,40.229s18.01,40.228,40.226,40.226c6.482,0,12.599-1.542,18.022-4.266
	C260.859,240.562,251.82,226.947,251.82,211.211z"/>
<path style="fill:#FF3F62;" d="M346.847,211.211c0,22.217,18.01,40.228,40.226,40.226c9.109,0,17.508-3.032,24.252-8.137
	c-5.718-23.386-12.972-47.996-21.528-72.216c-0.901-0.061-1.808-0.101-2.724-0.101C364.856,170.984,346.847,188.995,346.847,211.211
	z"/>
<g>
	<path style="fill:#D80027;" d="M379.086,211.211c0-12.207,5.444-23.136,14.029-30.513c-1.084-3.209-2.188-6.415-3.318-9.613
		c-0.901-0.061-1.808-0.101-2.724-0.101c-22.217,0-40.227,18.011-40.227,40.228s18.01,40.228,40.226,40.226
		c5.735,0,11.188-1.204,16.124-3.368C389.005,241.856,379.086,227.696,379.086,211.211z"/>
	<path style="fill:#D80027;" d="M165.153,211.21c0-22.217-18.01-40.226-40.226-40.226c-0.916,0-1.822,0.042-2.724,0.102
		c-8.556,24.22-15.81,48.83-21.528,72.217c6.744,5.104,15.143,8.136,24.252,8.136C147.144,251.438,165.153,233.427,165.153,211.21z"
		/>
</g>
<path style="fill:#00B6BD;" d="M256,413.611c-53.484,0-101.43,12.846-133.905,33.155c10.475,13.365,22.914,25.115,36.872,34.834
	c27.871-9.91,61.207-15.677,97.032-15.677s69.162,5.767,97.032,15.677c13.959-9.719,26.397-21.467,36.872-34.834
	C357.43,426.457,309.484,413.611,256,413.611z"/>
<path style="fill:#009698;" d="M178.703,423.218c-21.717,5.718-40.962,13.763-56.608,23.548
	c10.475,13.365,22.914,25.115,36.872,34.834c16.782-5.967,35.557-10.419,55.652-13.027
	C200.22,455.66,188.033,440.333,178.703,423.218z"/>
<path style="fill:#91CC04;" d="M425.895,334.688c-0.502-13.577-2.345-29.743-5.389-47.53l-70.278,26.254l-94.234-35.205
	l-94.23,35.205l-70.271-26.253c-3.044,17.787-4.887,33.953-5.389,47.53l75.659,28.268l94.23-35.205l94.234,35.205L425.895,334.688z"
	/>
<path style="fill:#85BB04;" d="M86.105,335.632l73.134,27.324c-0.773-6.577-1.179-13.266-1.179-20.049
	c0-8.562,0.641-18.418,1.862-29.238l-68.429-25.567C88.45,305.889,86.606,322.054,86.105,335.632z"/>
<path style="fill:#9BC9FF;" d="M175.777,59.173c-8.885,13.195-17.297,28.02-25.149,43.872c29.447,11.83,65.9,18.83,105.372,18.83
	s75.925-7,105.372-18.83c-7.851-15.852-16.264-30.677-25.149-43.872c-24.085,6.642-51.345,10.39-80.223,10.39
	S199.862,65.815,175.777,59.173z"/>
<path style="fill:#57A4FF;" d="M150.628,103.044c18.927,7.604,40.759,13.197,64.416,16.235
	c8.122-17.914,16.939-34.857,26.344-50.046c-23.461-1.039-45.632-4.549-65.612-10.059C166.892,72.368,158.48,87.193,150.628,103.044
	z"/>
<g>
</g>
<g>
</g>
<g>
</g>
<g>
</g>
<g>
</g>
<g>
</g>
<g>
</g>
<g>
</g>
<g>
</g>
<g>
</g>
<g>
</g>
<g>
</g>
<g>
</g>
<g>
</g>
<g>
</g>
</svg>
