<?xml version="1.0" encoding="iso-8859-1"?>
<!-- Generator: Adobe Illustrator 19.0.0, SVG Export Plug-In . SVG Version: 6.00 Build 0)  -->
<svg xmlns="http://www.w3.org/2000/svg" xmlns:xlink="http://www.w3.org/1999/xlink" version="1.1" id="Layer_1" x="0px" y="0px" viewBox="0 0 469 469" style="enable-background:new 0 0 469 469;" xml:space="preserve" width="512" height="512">
<g id="_x30_8._Open_book_1_">
	<g id="XMLID_9_">
		<g>
			<g>
				<path style="fill:#F2D59F;" d="M459,120.1v253.75H234.5v-10.68c0-15.58,12.62-28.2,28.2-28.2h157.57V120.1H459z"/>
			</g>
			<g>
				<path style="fill:#8ECAC1;" d="M420.27,120.1v214.87H262.7c-15.58,0-28.2,12.62-28.2,28.2V123.35c0-1.1,0.06-2.19,0.2-3.25      c1.6-14.05,13.52-24.95,28-24.95h157.57V120.1z M323.28,202.85V95.98h-46.52v106.87l23.26-21.01L323.28,202.85z"/>
			</g>
			<g>
				<polygon style="fill:#FF7124;" points="323.28,95.98 323.28,202.85 300.02,181.84 276.76,202.85 276.76,95.98     "/>
			</g>
			<g>
				<path style="fill:#F2D59F;" d="M234.5,363.17v10.68H10V120.1h38.73v214.87H206.3C221.88,334.97,234.5,347.59,234.5,363.17z"/>
			</g>
			<g>
				<path style="fill:#8ECAC1;" d="M234.5,123.35v239.82c0-15.58-12.62-28.2-28.2-28.2H48.73V120.1V95.15H206.3      c14.48,0,26.4,10.9,28,24.95C234.44,121.16,234.5,122.25,234.5,123.35z"/>
			</g>
		</g>
		<g>
			<g>
				<path style="fill:#5E2A41;" d="M459,383.85H10c-5.523,0-10-4.478-10-10V120.1c0-5.522,4.477-10,10-10h38.73      c5.522,0,10,4.478,10,10s-4.478,10-10,10H20v233.75h429V130.1h-28.73c-5.522,0-10-4.477-10-10s4.478-10,10-10H459      c5.522,0,10,4.478,10,10v253.75C469,379.372,464.522,383.85,459,383.85z"/>
			</g>
			<g>
				<path style="fill:#5E2A41;" d="M234.7,130.1h-0.4c-5.523,0-10-4.477-10-10s4.477-10,10-10h0.4c5.523,0,10,4.478,10,10      S240.223,130.1,234.7,130.1z"/>
			</g>
			<g>
				<path style="fill:#5E2A41;" d="M234.5,373.17c-5.523,0-10-4.477-10-10c0-21.063,17.137-38.2,38.2-38.2H410.27V105.15H262.7      c-9.255,0-17.02,6.913-18.064,16.08c-0.007,0.062-0.015,0.123-0.022,0.184c-0.075,0.567-0.113,1.219-0.113,1.936      c0,5.522-4.477,10-10,10s-10-4.477-10-10c0-1.56,0.093-3.063,0.275-4.474c2.236-19.234,18.523-33.726,37.925-33.726H420.27      c5.522,0,10,4.478,10,10V334.97c0,5.522-4.478,10-10,10H262.7c-10.035,0-18.2,8.164-18.2,18.2      C244.5,368.692,240.023,373.17,234.5,373.17z"/>
			</g>
			<g>
				<path style="fill:#5E2A41;" d="M234.5,383.85c-5.523,0-10-4.478-10-10v-10.68c0-5.522,4.477-10,10-10s10,4.478,10,10v10.68      C244.5,379.372,240.023,383.85,234.5,383.85z"/>
			</g>
			<g>
				<path style="fill:#5E2A41;" d="M234.5,373.17c-5.523,0-10-4.477-10-10c0-10.036-8.165-18.2-18.2-18.2H48.73      c-5.522,0-10-4.478-10-10V95.15c0-5.522,4.478-10,10-10H206.3c19.401,0,35.688,14.491,37.925,33.726      c0.183,1.41,0.275,2.914,0.275,4.474v239.82C244.5,368.692,240.023,373.17,234.5,373.17z M58.73,324.97H206.3      c6.585,0,12.786,1.675,18.2,4.621V123.35c0-0.717-0.038-1.368-0.113-1.936c-0.008-0.061-0.016-0.122-0.022-0.184      c-1.044-9.167-8.81-16.08-18.064-16.08H58.73V324.97z"/>
			</g>
			<g>
				<path style="fill:#5E2A41;" d="M192.24,147.4H90.99c-5.522,0-10-4.478-10-10c0-5.523,4.478-10,10-10h101.25      c5.522,0,10,4.478,10,10C202.24,142.923,197.763,147.4,192.24,147.4z"/>
			</g>
			<g>
				<path style="fill:#5E2A41;" d="M192.24,199.01H90.99c-5.522,0-10-4.478-10-10c0-5.522,4.478-10,10-10h101.25      c5.522,0,10,4.478,10,10C202.24,194.532,197.763,199.01,192.24,199.01z"/>
			</g>
			<g>
				<path style="fill:#5E2A41;" d="M192.24,250.62H90.99c-5.522,0-10-4.478-10-10c0-5.522,4.478-10,10-10h101.25      c5.522,0,10,4.478,10,10C202.24,246.143,197.763,250.62,192.24,250.62z"/>
			</g>
			<g>
				<path style="fill:#5E2A41;" d="M192.24,302.22H90.99c-5.522,0-10-4.478-10-10c0-5.522,4.478-10,10-10h101.25      c5.522,0,10,4.478,10,10C202.24,297.742,197.763,302.22,192.24,302.22z"/>
			</g>
			<g>
				<path style="fill:#5E2A41;" d="M378.01,147.4H357.28c-5.522,0-10-4.478-10-10c0-5.523,4.478-10,10-10h20.729      c5.522,0,10,4.478,10,10C388.01,142.923,383.532,147.4,378.01,147.4z"/>
			</g>
			<g>
				<path style="fill:#5E2A41;" d="M378.01,199.01H357.28c-5.522,0-10-4.478-10-10c0-5.522,4.478-10,10-10h20.729      c5.522,0,10,4.478,10,10C388.01,194.532,383.532,199.01,378.01,199.01z"/>
			</g>
			<g>
				<path style="fill:#5E2A41;" d="M378.01,250.62H276.76c-5.522,0-10-4.478-10-10c0-5.522,4.478-10,10-10h101.25      c5.522,0,10,4.478,10,10C388.01,246.143,383.532,250.62,378.01,250.62z"/>
			</g>
			<g>
				<path style="fill:#5E2A41;" d="M378.01,302.22H276.76c-5.522,0-10-4.478-10-10c0-5.522,4.478-10,10-10h101.25      c5.522,0,10,4.478,10,10C388.01,297.742,383.532,302.22,378.01,302.22z"/>
			</g>
			<g>
				<path style="fill:#5E2A41;" d="M323.282,212.35c-2.31,0-4.589-0.842-6.37-2.45l-16.893-15.258l-16.892,15.258      c-2.787,2.517-6.794,3.156-10.226,1.632c-3.431-1.524-5.643-4.927-5.643-8.682V95.98c0-5.247,4.253-9.5,9.5-9.5h46.521      c5.247,0,9.5,4.253,9.5,9.5V202.85c0,3.755-2.212,7.157-5.643,8.682C325.899,212.081,324.586,212.35,323.282,212.35z       M300.02,172.34c2.279,0,4.56,0.816,6.368,2.45l7.393,6.678V105.48H286.26v75.986l7.392-6.677      C295.46,173.156,297.74,172.34,300.02,172.34z"/>
			</g>
		</g>
	</g>
</g>















</svg>
