<?xml version="1.0" encoding="iso-8859-1"?>
<!-- Generator: Adobe Illustrator 19.0.0, SVG Export Plug-In . SVG Version: 6.00 Build 0)  -->
<svg xmlns="http://www.w3.org/2000/svg" xmlns:xlink="http://www.w3.org/1999/xlink" version="1.1" id="Layer_1" x="0px" y="0px" viewBox="0 0 411.765 411.765" style="enable-background:new 0 0 411.765 411.765;" xml:space="preserve" width="512" height="512">
<g id="_x33_9._Pencil_1_">
	<g id="XMLID_87_">
		<g>
			<g>
				<path style="fill:#F2D59F;" d="M397.37,52.855c5.86,5.86,5.86,15.36,0,21.21l-33.6,33.6l-29.84-29.83l-29.83-29.84l33.6-33.6      c5.85-5.86,15.35-5.86,21.21,0L397.37,52.855z"/>
			</g>
			<g>
				<polygon style="fill:#8ECAC1;" points="363.77,107.665 92.95,378.485 63.12,348.655 333.93,77.835     "/>
			</g>
			<g>
				<polygon style="fill:#FF7124;" points="304.1,47.995 333.93,77.835 63.12,348.655 63.11,348.655 33.28,318.815     "/>
			</g>
			<g>
				<polygon style="fill:#E6B263;" points="92.95,378.485 32.61,395.425 16.34,379.155 33.28,318.815 63.11,348.655 63.12,348.655           "/>
			</g>
			<g>
				<polygon points="32.61,395.425 10,401.765 16.34,379.155     "/>
			</g>
		</g>
		<g>
			<g>
				<path style="fill:#5E2A41;" d="M32.605,405.428c-4.37,0-8.383-2.886-9.623-7.299c-1.493-5.317,1.608-10.838,6.925-12.331      l60.34-16.94c5.317-1.494,10.838,1.607,12.331,6.925c1.493,5.317-1.608,10.838-6.925,12.331l-60.34,16.94      C34.41,405.307,33.499,405.428,32.605,405.428z"/>
			</g>
			<g>
				<path style="fill:#5E2A41;" d="M16.346,389.158c-0.895,0-1.805-0.121-2.708-0.375c-5.317-1.493-8.417-7.014-6.925-12.331      l16.94-60.34c1.493-5.317,7.017-8.414,12.331-6.925c5.317,1.493,8.417,7.014,6.925,12.331l-16.94,60.34      C24.729,386.271,20.715,389.158,16.346,389.158z"/>
			</g>
			<g>
				<path style="fill:#5E2A41;" d="M63.12,358.655c-2.559,0-5.118-0.976-7.071-2.929c-3.905-3.905-3.906-10.237,0-14.142      l270.81-270.82c3.906-3.905,10.236-3.906,14.143-0.001c3.905,3.905,3.905,10.237,0,14.142l-270.81,270.82      C68.239,357.679,65.68,358.655,63.12,358.655z"/>
			</g>
			<g>
				<path style="fill:#5E2A41;" d="M92.95,388.485c-2.652,0-5.196-1.054-7.071-2.929L56.313,355.99      c-0.093-0.086-0.185-0.174-0.275-0.265l-29.83-29.84c-3.904-3.905-3.904-10.236,0.001-14.141l270.82-270.82      c3.906-3.905,10.236-3.905,14.143,0c3.905,3.905,3.905,10.237,0,14.143l-263.75,263.75l22.498,22.505      c0.092,0.086,0.184,0.173,0.273,0.263l22.758,22.759l263.749-263.749c3.906-3.905,10.236-3.905,14.142,0      c3.905,3.905,3.905,10.237,0,14.143l-270.82,270.82C98.146,387.432,95.602,388.485,92.95,388.485z"/>
			</g>
			<g>
				<path style="fill:#5E2A41;" d="M363.77,117.665c-2.559,0-5.117-0.976-7.07-2.928l-59.672-59.672      c-3.904-3.905-3.903-10.236,0.001-14.141l33.601-33.6C335.342,2.604,341.62,0,348.301,0c6.679,0,12.957,2.601,17.68,7.324      l38.461,38.461c4.723,4.723,7.323,11.001,7.323,17.679c0,6.681-2.603,12.96-7.329,17.678l-33.595,33.594      C368.888,116.688,366.328,117.665,363.77,117.665z M318.241,47.997l45.528,45.528l26.53-26.53      c1.276-1.274,1.466-2.758,1.466-3.53c0-0.773-0.191-2.262-1.466-3.538l-38.46-38.46c-1.275-1.275-2.764-1.466-3.538-1.466      c-0.772,0-2.256,0.19-3.523,1.46L318.241,47.997z"/>
			</g>
			<g>
				<path style="fill:#5E2A41;" d="M10.001,411.765c-2.616,0-5.17-1.028-7.072-2.929c-2.555-2.556-3.533-6.292-2.557-9.771      l6.34-22.61c0.959-3.42,3.66-6.075,7.096-6.975c3.437-0.897,7.091,0.092,9.604,2.603l16.27,16.27      c2.511,2.512,3.502,6.167,2.603,9.604c-0.9,3.436-3.554,6.137-6.975,7.096l-22.61,6.34      C11.809,411.644,10.902,411.765,10.001,411.765z"/>
			</g>
		</g>
	</g>
</g>















</svg>
