<?xml version="1.0" encoding="iso-8859-1"?>
<!-- Generator: Adobe Illustrator 19.0.0, SVG Export Plug-In . SVG Version: 6.00 Build 0)  -->
<svg xmlns="http://www.w3.org/2000/svg" xmlns:xlink="http://www.w3.org/1999/xlink" version="1.1" id="Layer_1" x="0px" y="0px" viewBox="0 0 434.317 434.317" style="enable-background:new 0 0 434.317 434.317;" xml:space="preserve" width="512" height="512">
<g id="_x30_7._Feather_pen_1_">
	<g>
		<g id="XMLID_8_">
			<g>
				<g>
					<path style="fill:#E6B263;" d="M402.039,384.767c2.22,0,3.97,1.92,3.74,4.13c-2.07,19.9-18.89,35.42-39.33,35.42H68.069       c18.03,0,33.23-12.05,38.01-28.54c1.87-6.46,7.62-11.01,14.35-11.01h206.45H402.039z"/>
				</g>
				<g>
					<path style="fill:#FF7124;" d="M403.079,20.787l-0.03,0.07c-77.04-14.81-173.77,47.27-229.91,153.36       c-17.65,33.34-29.46,67.55-35.61,100.51c-0.01,0.1-0.03,0.19-0.05,0.28c-0.02-0.08-0.04-0.16-0.06-0.23       c-4.66-16.26-7.38-33.36-7.91-51.03c-1.88-62.57,24.14-119.51,66.81-158.84c35.44-32.69,82.37-53.25,134.35-54.81       C355.999,9.337,380.389,13.147,403.079,20.787z"/>
				</g>
				<g>
					<path style="fill:#8ECAC1;" d="M403.049,20.857c-12.35,24.13-26.82,48.18-43.39,71.72c-10.49,14.9-21.44,29.08-32.78,42.48       c-17.43,20.64-35.74,39.46-54.58,56.32l-58.27-6.33l15.29,40.75c-30.46,21.68-61.53,38.2-91.79,48.93       c6.15-32.96,17.96-67.17,35.61-100.51C229.279,68.127,326.009,6.047,403.049,20.857z"/>
				</g>
				<g>
					<path style="fill:#F2D59F;" d="M326.879,135.057v249.71h-206.45c-6.73,0-12.48,4.55-14.35,11.01       c-4.78,16.49-19.98,28.54-38.01,28.54c-21.84,0-39.55-17.71-39.55-39.55V79.907c0-8.28,6.72-15,15-15h151.32h1.48       c-42.67,39.33-68.69,96.27-66.81,158.84c0.53,17.67,3.25,34.77,7.91,51.03c0.02,0.07,0.04,0.15,0.06,0.23       c0.02-0.09,0.04-0.18,0.05-0.28c30.26-10.73,61.33-27.25,91.79-48.93l-15.29-40.75l58.27,6.33       C291.139,174.517,309.449,155.697,326.879,135.057z M132.609,336.287l4.87-61.27       C133.559,296.147,131.949,316.747,132.609,336.287z"/>
				</g>
				<g>
					<path style="fill:#FFFFFF;" d="M137.479,275.017l-4.87,61.27C131.949,316.747,133.559,296.147,137.479,275.017z"/>
				</g>
			</g>
			<g>
				<g>
					<path style="fill:#5E2A41;" d="M68.069,434.317c-27.322,0-49.55-22.229-49.55-49.551c0-5.522,4.477-10,10-10       c5.522,0,10,4.478,10,10c0,16.294,13.256,29.551,29.55,29.551c5.522,0,10,4.478,10,10       C78.069,429.84,73.591,434.317,68.069,434.317z"/>
				</g>
				<g>
					<path style="fill:#5E2A41;" d="M366.449,434.317H68.069c-5.523,0-10-4.478-10-10c0-5.522,4.478-10,10-10       c13.085,0,24.766-8.769,28.405-21.324c3.155-10.9,12.782-18.227,23.954-18.227h281.61c3.891,0,7.617,1.658,10.225,4.55       c2.601,2.885,3.863,6.754,3.462,10.613C413.092,415.235,391.909,434.317,366.449,434.317z M107.82,414.317h258.629       c12.76,0,23.719-8.033,27.822-19.551H120.428c-2.181,0-4.088,1.523-4.744,3.792C114.005,404.351,111.307,409.66,107.82,414.317       z"/>
				</g>
				<g>
					<path style="fill:#5E2A41;" d="M326.878,394.767c-5.522,0-10-4.478-10-10v-249.71c0-5.522,4.478-10,10-10       c5.522,0,10,4.478,10,10v249.71C336.878,390.289,332.401,394.767,326.878,394.767z"/>
				</g>
				<g>
					<path style="fill:#5E2A41;" d="M28.519,394.767c-5.523,0-10-4.478-10-10V79.907c0-13.785,11.215-25,25-25h152.8       c5.522,0,10,4.478,10,10c0,5.522-4.478,10-10,10h-152.8c-2.757,0-5,2.243-5,5v304.859       C38.519,390.289,34.042,394.767,28.519,394.767z"/>
				</g>
				<g>
					<path style="fill:#5E2A41;" d="M137.479,284.997c-4.559,0-8.553-3.078-9.688-7.51h0.001       c-4.957-17.337-7.735-35.289-8.279-53.44c-1.895-63.042,23.63-123.726,70.028-166.492       c38.46-35.477,88.474-55.882,140.827-57.453c25.885-0.783,51.341,2.968,75.672,11.131c4.078,1.263,7.043,5.063,7.043,9.555       c0,5.522-4.473,10-9.995,10c-1.085,0-2.173-0.177-3.201-0.523c-22.143-7.457-45.334-10.879-68.919-10.173       c-47.536,1.428-92.948,19.953-127.869,52.166c-42.137,38.838-65.315,93.943-63.596,151.188       c0.482,16.018,2.872,31.855,7.111,47.1c0.718,1.556,1.045,3.317,0.867,5.147c-0.059,0.604-0.153,1.079-0.229,1.426       c-0.988,4.528-4.959,7.794-9.593,7.877C137.6,284.997,137.539,284.997,137.479,284.997z M137.366,274.982l-9.6,2.406       l0.027,0.099l9.574-2.505H137.366z"/>
				</g>
				<g>
					<path style="fill:#5E2A41;" d="M132.603,346.287c-5.367,0-9.806-4.258-9.988-9.662c-0.688-20.38,1.004-41.722,5.032-63.433       c1.007-5.431,6.223-9.015,11.656-8.008c5.43,1.007,9.016,6.226,8.008,11.656c-3.764,20.288-5.348,40.175-4.708,59.108       c0.187,5.52-4.137,10.145-9.656,10.332C132.832,346.285,132.716,346.287,132.603,346.287z"/>
				</g>
				<g>
					<path style="fill:#5E2A41;" d="M137.53,284.727c-2.347,0-4.659-0.826-6.498-2.398c-2.719-2.323-3.989-5.921-3.333-9.436       c6.541-35.06,18.855-69.833,36.603-103.354c27.697-52.341,66.923-96.978,110.449-125.687       c43.788-28.882,90.025-40.534,130.186-32.815c3.09,0.594,5.72,2.607,7.1,5.436c1.38,2.827,1.348,6.14-0.085,8.94       c-12.754,24.921-27.597,49.455-44.115,72.921c-10.583,15.031-21.794,29.561-33.323,43.184       c-17.441,20.653-36.132,39.939-55.545,57.313c-2.112,1.89-4.922,2.796-7.749,2.489l-42.12-4.575l9.583,25.541       c1.593,4.245,0.131,9.03-3.564,11.66c-31.192,22.2-62.901,39.093-94.247,50.207       C139.781,284.538,138.652,284.727,137.53,284.727z M379.569,28.661c-69.636,0-149.658,59.652-197.591,150.232       c-13.767,26.003-24.072,52.763-30.741,79.771c21.947-9.297,44.056-21.563,65.994-36.619l-12.564-33.486       c-1.22-3.25-0.666-6.901,1.463-9.644c2.127-2.743,5.522-4.182,8.979-3.811l53.815,5.846       c17.544-15.974,34.455-33.566,50.314-52.347c11.155-13.181,22.002-27.236,32.244-41.784       c13.182-18.726,25.257-38.149,36.002-57.897C384.862,28.747,382.223,28.661,379.569,28.661z"/>
				</g>
			</g>
		</g>
	</g>
</g>















</svg>
