<?xml version="1.0" encoding="iso-8859-1"?>
<!-- Generator: Adobe Illustrator 19.0.0, SVG Export Plug-In . SVG Version: 6.00 Build 0)  -->
<svg xmlns="http://www.w3.org/2000/svg" xmlns:xlink="http://www.w3.org/1999/xlink" version="1.1" id="Layer_1" x="0px" y="0px" viewBox="0 0 436.9 436.9" style="enable-background:new 0 0 436.9 436.9;" xml:space="preserve" width="512" height="512">
<g id="_x31_6._Calendar_4_">
	<g id="_x31_6._Calendar_2_">
		<g>
			<g id="XMLID_1_">
				<g>
					<g>
						<path style="fill:#F2D59F;" d="M426.9,158.59v238.57c0,8.29-6.72,15-15,15H25c-8.28,0-15-6.71-15-15V158.59h0.44h416.02H426.9        z M352.71,352.51v-67.13v-67.13h-67.13h-67.13h-67.13H84.19v67.13v67.13h67.13h67.13h67.13H352.71z"/>
					</g>
					<g>
						<path style="fill:#FF7124;" d="M426.9,70.29v88.3h-0.44H10.44H10v-88.3c0-8.28,6.72-15,15-15h386.9        C420.18,55.29,426.9,62.01,426.9,70.29z M341.06,106.94c0-8.66-7.02-15.68-15.68-15.68c-8.66,0-15.68,7.02-15.68,15.68        s7.02,15.68,15.68,15.68C334.04,122.62,341.06,115.6,341.06,106.94z M234.13,106.94c0-8.66-7.02-15.68-15.68-15.68        c-8.66,0-15.67,7.02-15.67,15.68s7.01,15.68,15.67,15.68C227.11,122.62,234.13,115.6,234.13,106.94z M127.2,106.94        c0-8.66-7.02-15.68-15.68-15.68s-15.68,7.02-15.68,15.68s7.02,15.68,15.68,15.68S127.2,115.6,127.2,106.94z"/>
					</g>
					<g>
						<rect x="285.58" y="285.38" style="fill:#8ECAC1;" width="67.13" height="67.13"/>
					</g>
					<g>
						<rect x="285.58" y="218.25" style="fill:#8ECAC1;" width="67.13" height="67.13"/>
					</g>
					<g>
						<circle style="fill:#5E2A41;" cx="325.38" cy="106.94" r="15.68"/>
					</g>
					<g>
						<rect x="218.45" y="285.38" style="fill:#8ECAC1;" width="67.13" height="67.13"/>
					</g>
					<g>
						<rect x="218.45" y="218.25" style="fill:#8ECAC1;" width="67.13" height="67.13"/>
					</g>
					<g>
						<path style="fill:#5E2A41;" d="M218.45,91.26c8.66,0,15.68,7.02,15.68,15.68s-7.02,15.68-15.68,15.68        c-8.66,0-15.67-7.02-15.67-15.68S209.79,91.26,218.45,91.26z"/>
					</g>
					<g>
						<rect x="151.32" y="285.38" style="fill:#8ECAC1;" width="67.13" height="67.13"/>
					</g>
					<g>
						<rect x="151.32" y="218.25" style="fill:#8ECAC1;" width="67.13" height="67.13"/>
					</g>
					<g>
						<rect x="84.19" y="285.38" style="fill:#8ECAC1;" width="67.13" height="67.13"/>
					</g>
					<g>
						<rect x="84.19" y="218.25" style="fill:#8ECAC1;" width="67.13" height="67.13"/>
					</g>
					<g>
						<circle style="fill:#5E2A41;" cx="111.52" cy="106.94" r="15.68"/>
					</g>
				</g>
				<g>
					<g>
						<path style="fill:#5E2A41;" d="M426.46,168.59H10.44c-5.523,0-10-4.478-10-10c0-5.522,4.477-10,10-10h416.02        c5.523,0,10,4.478,10,10C436.46,164.112,431.983,168.59,426.46,168.59z"/>
					</g>
					<g>
						<path style="fill:#5E2A41;" d="M411.9,422.16H25c-13.785,0-25-11.215-25-25V70.29c0-13.785,11.215-25,25-25h386.9        c13.785,0,25,11.215,25,25v326.87C436.9,410.945,425.686,422.16,411.9,422.16z M25,65.29c-2.757,0-5,2.243-5,5v326.87        c0,2.757,2.243,5,5,5h386.9c2.757,0,5-2.243,5-5V70.29c0-2.757-2.243-5-5-5H25z"/>
					</g>
					<g>
						<path style="fill:#5E2A41;" d="M84.19,295.38c-5.523,0-10-4.478-10-10v-67.13c0-5.523,4.477-10,10-10h67.13        c5.523,0,10,4.477,10,10c0,5.522-4.477,10-10,10H94.19v57.13C94.19,290.902,89.713,295.38,84.19,295.38z"/>
					</g>
					<g>
						<path style="fill:#5E2A41;" d="M151.32,295.38c-5.523,0-10-4.478-10-10v-67.13c0-5.523,4.477-10,10-10h67.13        c5.523,0,10,4.477,10,10c0,5.522-4.477,10-10,10h-57.13v57.13C161.32,290.902,156.843,295.38,151.32,295.38z"/>
					</g>
					<g>
						<path style="fill:#5E2A41;" d="M218.45,295.38c-5.523,0-10-4.478-10-10v-67.13c0-5.523,4.477-10,10-10h67.13        c5.523,0,10,4.477,10,10c0,5.522-4.477,10-10,10h-57.13v57.13C228.45,290.902,223.973,295.38,218.45,295.38z"/>
					</g>
					<g>
						<path style="fill:#5E2A41;" d="M352.71,295.38c-5.523,0-10-4.478-10-10v-57.13h-47.13v57.13c0,5.522-4.477,10-10,10        c-5.523,0-10-4.478-10-10v-67.13c0-5.523,4.477-10,10-10h67.13c5.523,0,10,4.477,10,10v67.13        C362.71,290.902,358.233,295.38,352.71,295.38z"/>
					</g>
					<g>
						<path style="fill:#5E2A41;" d="M151.32,362.51H84.19c-5.523,0-10-4.478-10-10v-67.13c0-5.522,4.477-10,10-10h67.13        c5.523,0,10,4.478,10,10c0,5.522-4.477,10-10,10H94.19v47.13h57.13c5.523,0,10,4.478,10,10        C161.32,358.032,156.843,362.51,151.32,362.51z"/>
					</g>
					<g>
						<path style="fill:#5E2A41;" d="M218.45,362.51h-67.13c-5.523,0-10-4.478-10-10v-67.13c0-5.522,4.477-10,10-10h67.13        c5.523,0,10,4.478,10,10c0,5.522-4.477,10-10,10h-57.13v47.13h57.13c5.523,0,10,4.478,10,10        C228.45,358.032,223.973,362.51,218.45,362.51z"/>
					</g>
					<g>
						<path style="fill:#5E2A41;" d="M285.58,362.51h-67.13c-5.523,0-10-4.478-10-10v-67.13c0-5.522,4.477-10,10-10h67.13        c5.523,0,10,4.478,10,10c0,5.522-4.477,10-10,10h-57.13v47.13h57.13c5.523,0,10,4.478,10,10        C295.58,358.032,291.103,362.51,285.58,362.51z"/>
					</g>
					<g>
						<path style="fill:#5E2A41;" d="M352.71,362.51h-67.13c-5.523,0-10-4.478-10-10v-67.13c0-5.522,4.477-10,10-10h67.13        c5.523,0,10,4.478,10,10v67.13C362.71,358.032,358.233,362.51,352.71,362.51z M295.58,342.51h47.13v-47.13h-47.13V342.51z"/>
					</g>
				</g>
			</g>
		</g>
	</g>
	<g>
		<path style="fill:#5E2A41;" d="M325.38,117.062c-5.523,0-10-4.478-10-10V24.74c0-5.522,4.477-10,10-10c5.523,0,10,4.478,10,10    v82.322C335.38,112.585,330.903,117.062,325.38,117.062z"/>
	</g>
	<g>
		<path style="fill:#5E2A41;" d="M218.45,119.23c-5.523,0-10-4.478-10-10V24.74c0-5.522,4.477-10,10-10c5.523,0,10,4.478,10,10    v84.49C228.45,114.753,223.973,119.23,218.45,119.23z"/>
	</g>
	<g>
		<path style="fill:#5E2A41;" d="M111.52,119.23c-5.523,0-10-4.478-10-10V24.74c0-5.522,4.477-10,10-10c5.523,0,10,4.478,10,10    v84.49C121.52,114.753,117.043,119.23,111.52,119.23z"/>
	</g>
</g>















</svg>
