<?xml version="1.0" encoding="iso-8859-1"?>
<!-- Generator: Adobe Illustrator 19.0.0, SVG Export Plug-In . SVG Version: 6.00 Build 0)  -->
<svg xmlns="http://www.w3.org/2000/svg" xmlns:xlink="http://www.w3.org/1999/xlink" version="1.1" id="Layer_1" x="0px" y="0px" viewBox="0 0 472 472" style="enable-background:new 0 0 472 472;" xml:space="preserve" width="512" height="512">
<g id="_x30_9._Clock_1_">
	<g id="XMLID_10_">
		<g>
			<g>
				<path style="fill:#8ECAC1;" d="M248.8,249.35c0.06-0.06,0.11-0.11,0.17-0.17v-0.01c0.29-0.29,0.56-0.58,0.83-0.89      c0.05-0.05,0.1-0.11,0.14-0.17c0.27-0.3,0.52-0.62,0.76-0.94c0.55-0.74,1.05-1.52,1.49-2.34c0.12-0.22,0.23-0.45,0.34-0.68      c0.13-0.27,0.25-0.54,0.37-0.81c0.23-0.55,0.44-1.11,0.62-1.69c0.09-0.29,0.17-0.58,0.24-0.87c0.21-0.81,0.37-1.65,0.46-2.51      c0.02-0.14,0.04-0.29,0.05-0.44c0.05-0.53,0.07-1.08,0.07-1.63v-66c0-10.13-8.21-18.34-18.34-18.34      c-5.06,0-9.64,2.05-12.96,5.37c-3.32,3.32-5.37,7.91-5.37,12.97v47.67h-70c-10.13,0-18.34,8.21-18.34,18.34      c0,10.13,8.21,18.34,18.34,18.34H236C240.98,254.55,245.5,252.57,248.8,249.35z M58,236c0-98.31,79.69-178,178-178      s178,79.69,178,178s-79.69,178-178,178S58,334.31,58,236z"/>
			</g>
			<g>
				<path style="fill:#F2D59F;" d="M236,10c124.82,0,226,101.18,226,226S360.82,462,236,462S10,360.82,10,236S111.18,10,236,10z       M414,236c0-98.31-79.69-178-178-178S58,137.69,58,236s79.69,178,178,178S414,334.31,414,236z"/>
			</g>
			<g>
				<path style="fill:#FF7124;" d="M254.34,170.2v66c0,0.55-0.02,1.1-0.07,1.63c-0.01,0.15-0.03,0.29-0.05,0.44      c-0.09,0.86-0.25,1.7-0.46,2.51c-0.07,0.29-0.15,0.58-0.24,0.87c-0.18,0.58-0.39,1.14-0.62,1.69c-0.12,0.27-0.24,0.54-0.37,0.81      c-0.11,0.23-0.22,0.46-0.34,0.68c-0.44,0.82-0.94,1.6-1.49,2.34c-0.24,0.32-0.49,0.64-0.76,0.94c-0.04,0.06-0.09,0.12-0.14,0.17      c-0.27,0.31-0.54,0.6-0.83,0.89c-0.06,0.06-0.12,0.12-0.18,0.17c-3.3,3.22-7.82,5.2-12.79,5.2c-10.12,0-18.33-8.21-18.33-18.34      v-18.33V170.2c0-5.06,2.05-9.65,5.37-12.97c3.32-3.32,7.9-5.37,12.96-5.37C246.13,151.86,254.34,160.07,254.34,170.2z"/>
			</g>
			<g>
				<path style="fill:#FF7124;" d="M248.79,249.34l0.01,0.01c-3.3,3.22-7.82,5.2-12.8,5.2h-88.33c-10.13,0-18.34-8.21-18.34-18.34      c0-10.13,8.21-18.34,18.34-18.34h70v18.33c0,10.13,8.21,18.34,18.33,18.34C240.97,254.54,245.49,252.56,248.79,249.34z"/>
			</g>
		</g>
		<g>
			<g>
				<path style="fill:#5E2A41;" d="M236,472c-63.04,0-122.305-24.548-166.878-69.121C24.548,358.305,0,299.04,0,236      S24.548,113.695,69.122,69.121C113.695,24.548,172.96,0,236,0c63.04,0,122.305,24.548,166.879,69.121      C447.452,113.695,472,172.96,472,236s-24.548,122.305-69.121,166.879C358.305,447.452,299.04,472,236,472z M236,20      c-57.697,0-111.94,22.468-152.736,63.264C42.467,124.06,20,178.303,20,236s22.467,111.94,63.264,152.736      C124.06,429.532,178.303,452,236,452s111.94-22.468,152.736-63.264S452,293.697,452,236s-22.468-111.94-63.264-152.736      S293.697,20,236,20z"/>
			</g>
			<g>
				<path style="fill:#5E2A41;" d="M254.23,247.764c-0.43,0-0.864-0.029-1.302-0.09c-5.196-0.713-8.832-5.496-8.121-10.692      c0.439-4.912,4.564-8.651,9.452-8.651c0.208,0,0.416,0.007,0.625,0.02c5.236,0.341,9.205,4.86,8.865,10.096      c-0.025,0.378-0.065,0.73-0.116,1.103C262.979,244.308,258.904,247.764,254.23,247.764z"/>
			</g>
			<g>
				<path style="fill:#5E2A41;" d="M253.522,251.153c-0.94,0-1.896-0.142-2.842-0.437c-5.007-1.568-7.795-6.898-6.228-11.905      c0.025-0.08,0.048-0.16,0.067-0.24c1.219-5.104,6.34-8.252,11.448-7.03c5.103,1.22,8.251,6.345,7.03,11.448      c-0.119,0.5-0.257,1-0.413,1.5C261.313,248.552,257.565,251.153,253.522,251.153z"/>
			</g>
			<g>
				<path style="fill:#5E2A41;" d="M252.182,254.332c-1.529,0-3.08-0.37-4.52-1.15c-4.606-2.498-6.319-8.253-3.832-12.862      l0.128-0.263c0.097-0.203,0.178-0.388,0.26-0.572c2.13-4.795,7.744-6.956,12.538-4.827c4.795,2.13,6.956,7.743,4.827,12.538      c-0.158,0.357-0.317,0.711-0.488,1.067c-0.188,0.389-0.365,0.749-0.553,1.096C258.821,252.531,255.555,254.332,252.182,254.332z      "/>
			</g>
			<g>
				<path style="fill:#5E2A41;" d="M249.937,257.61c-2.258,0-4.523-0.8-6.337-2.425c-3.907-3.501-4.236-9.507-0.735-13.414      c0.084-0.097,0.159-0.2,0.235-0.302c3.148-4.198,9.105-5.048,13.3-1.899c4.197,3.148,5.048,9.103,1.899,13.3      c-0.289,0.386-0.737,0.97-1.284,1.58C255.14,256.544,252.543,257.61,249.937,257.61z"/>
			</g>
			<g>
				<path style="fill:#5E2A41;" d="M236,264.05h-88.33c-15.351,0-27.84-12.489-27.84-27.84c0-15.351,12.489-27.84,27.84-27.84h70      c5.247,0,9.5,4.253,9.5,9.5s-4.253,9.5-9.5,9.5h-70c-4.874,0-8.84,3.966-8.84,8.84c0,4.874,3.965,8.84,8.84,8.84H236      c2.272,0,4.415-0.848,6.052-2.391c0.066-0.07,0.133-0.139,0.2-0.207c0.134-0.134,0.259-0.268,0.383-0.41      c3.446-3.957,9.445-4.372,13.403-0.927c3.957,3.445,4.372,9.446,0.927,13.403c-0.319,0.366-0.639,0.715-0.973,1.059      c-0.081,0.09-0.165,0.179-0.251,0.266l-0.278,0.278C250.215,261.243,243.312,264.05,236,264.05z"/>
			</g>
			<g>
				<path style="fill:#5E2A41;" d="M236,95.68c-5.523,0-10-4.478-10-10V58c0-5.522,4.477-10,10-10c5.522,0,10,4.478,10,10v27.68      C246,91.202,241.522,95.68,236,95.68z"/>
			</g>
			<g>
				<path style="fill:#5E2A41;" d="M236,424c-5.523,0-10-4.478-10-10v-27.68c0-5.522,4.477-10,10-10c5.522,0,10,4.478,10,10V414      C246,419.522,241.522,424,236,424z"/>
			</g>
			<g>
				<path style="fill:#5E2A41;" d="M414,246h-27.68c-5.522,0-10-4.477-10-10s4.478-10,10-10H414c5.522,0,10,4.477,10,10      S419.522,246,414,246z"/>
			</g>
			<g>
				<path style="fill:#5E2A41;" d="M85.68,246H58c-5.523,0-10-4.477-10-10s4.477-10,10-10h27.68c5.523,0,10,4.477,10,10      S91.203,246,85.68,246z"/>
			</g>
			<g>
				<path style="fill:#5E2A41;" d="M311.15,115.822c-1.696,0-3.415-0.433-4.99-1.342c-4.783-2.762-6.422-8.877-3.66-13.66      l13.84-23.971c2.762-4.783,8.876-6.422,13.66-3.66c4.783,2.762,6.422,8.877,3.66,13.66l-13.84,23.971      C317.968,114.028,314.606,115.822,311.15,115.822z"/>
			</g>
			<g>
				<path style="fill:#5E2A41;" d="M146.991,400.152c-1.697,0-3.416-0.433-4.991-1.342c-4.783-2.762-6.422-8.877-3.66-13.66      l13.84-23.971c2.762-4.782,8.879-6.421,13.66-3.66c4.783,2.762,6.422,8.877,3.66,13.66l-13.84,23.971      C153.808,398.358,150.447,400.152,146.991,400.152z"/>
			</g>
			<g>
				<path style="fill:#5E2A41;" d="M390.141,335.002c-1.696,0-3.415-0.433-4.99-1.342l-23.971-13.84      c-4.783-2.762-6.422-8.877-3.66-13.66c2.762-4.783,8.875-6.422,13.66-3.66l23.971,13.84c4.783,2.762,6.422,8.877,3.66,13.66      C396.958,333.208,393.597,335.002,390.141,335.002z"/>
			</g>
			<g>
				<path style="fill:#5E2A41;" d="M105.81,170.842c-1.697,0-3.416-0.433-4.991-1.342l-23.97-13.84      c-4.783-2.762-6.421-8.878-3.66-13.66c2.762-4.782,8.878-6.42,13.661-3.66l23.97,13.84c4.783,2.762,6.421,8.878,3.66,13.66      C112.628,169.048,109.267,170.842,105.81,170.842z"/>
			</g>
			<g>
				<path style="fill:#5E2A41;" d="M366.19,170.842c-3.457,0-6.817-1.794-8.67-5.002c-2.762-4.783-1.123-10.898,3.66-13.66      l23.971-13.84c4.782-2.761,10.898-1.122,13.66,3.66c2.762,4.783,1.123,10.898-3.66,13.66L371.18,169.5      C369.605,170.409,367.886,170.842,366.19,170.842z"/>
			</g>
			<g>
				<path style="fill:#5E2A41;" d="M81.859,335.002c-3.456,0-6.817-1.794-8.67-5.002c-2.762-4.782-1.123-10.898,3.66-13.66      l23.97-13.84c4.782-2.763,10.899-1.123,13.661,3.66c2.762,4.782,1.123,10.898-3.66,13.66l-23.97,13.84      C85.276,334.569,83.556,335.002,81.859,335.002z"/>
			</g>
			<g>
				<path style="fill:#5E2A41;" d="M325.01,400.152c-3.457,0-6.817-1.794-8.67-5.002L302.5,371.18      c-2.762-4.783-1.123-10.898,3.66-13.66c4.783-2.761,10.899-1.122,13.66,3.66l13.84,23.971c2.762,4.783,1.123,10.898-3.66,13.66      C328.426,399.72,326.706,400.152,325.01,400.152z"/>
			</g>
			<g>
				<path style="fill:#5E2A41;" d="M160.849,115.822c-3.456,0-6.817-1.794-8.669-5.002L138.34,86.85      c-2.762-4.783-1.123-10.898,3.66-13.66c4.783-2.762,10.899-1.123,13.66,3.66l13.84,23.971c2.762,4.783,1.123,10.899-3.66,13.66      C164.265,115.39,162.545,115.822,160.849,115.822z"/>
			</g>
			<g>
				<path style="fill:#5E2A41;" d="M236,424c-103.664,0-188-84.337-188-188S132.336,48,236,48c103.663,0,188,84.337,188,188      S339.663,424,236,424z M236,68c-92.636,0-168,75.364-168,168s75.364,168,168,168s168-75.364,168-168S328.636,68,236,68z"/>
			</g>
			<g>
				<path style="fill:#5E2A41;" d="M307.05,317.1c-2.432,0-4.862-0.928-6.718-2.782l-58.25-58.25      c-3.71-3.71-3.715-9.731-0.005-13.44c3.711-3.709,9.72-3.714,13.431-0.005l58.26,58.26c3.71,3.71,3.71,9.726,0,13.436      C311.912,316.172,309.481,317.1,307.05,317.1z"/>
			</g>
			<g>
				<path style="fill:#5E2A41;" d="M236,264.04c-15.346,0-27.83-12.489-27.83-27.84v-66c0-7.439,2.896-14.431,8.153-19.688      c5.255-5.257,12.244-8.152,19.677-8.152c15.351,0,27.84,12.489,27.84,27.84v66c0,0.866-0.034,1.66-0.104,2.425      c-0.021,0.276-0.053,0.551-0.088,0.815c-0.135,1.2-0.359,2.423-0.671,3.639c-0.114,0.47-0.245,0.94-0.392,1.41      c-0.248,0.801-0.552,1.631-0.919,2.51c-0.027,0.066-0.056,0.131-0.084,0.196c-0.158,0.357-0.317,0.711-0.488,1.067      c-0.188,0.389-0.365,0.749-0.553,1.096c-0.629,1.17-1.38,2.352-2.215,3.476c-0.263,0.351-0.616,0.813-1.042,1.309      c-0.143,0.178-0.291,0.351-0.445,0.519c-0.374,0.423-0.751,0.825-1.152,1.227c-0.125,0.127-0.27,0.267-0.423,0.406      C250.062,261.291,243.23,264.04,236,264.04z M236,161.36c-2.357,0-4.574,0.919-6.242,2.587c-1.669,1.669-2.588,3.89-2.588,6.253      v66c0,4.874,3.961,8.84,8.83,8.84c2.317,0,4.504-0.888,6.155-2.5c0.054-0.052,0.107-0.102,0.161-0.153      c0.101-0.103,0.182-0.19,0.26-0.277c0.094-0.115,0.19-0.229,0.289-0.339c0.084-0.095,0.159-0.199,0.235-0.301      c0.258-0.349,0.51-0.741,0.72-1.134l0.138-0.279c0.077-0.162,0.144-0.313,0.21-0.461c0.116-0.282,0.207-0.531,0.277-0.756      c0.033-0.108,0.056-0.188,0.075-0.268c0.014-0.058,0.028-0.115,0.043-0.173c0.102-0.393,0.171-0.768,0.208-1.115      c0.01-0.102,0.022-0.202,0.036-0.304c0.002-0.019,0.004-0.036,0.005-0.055c0.013-0.129,0.027-0.359,0.027-0.725v-66      C244.84,165.326,240.874,161.36,236,161.36z"/>
			</g>
		</g>
	</g>
</g>















</svg>
