<?xml version="1.0" encoding="iso-8859-1"?>
<!-- Generator: Adobe Illustrator 19.0.0, SVG Export Plug-In . SVG Version: 6.00 Build 0)  -->
<svg xmlns="http://www.w3.org/2000/svg" xmlns:xlink="http://www.w3.org/1999/xlink" version="1.1" id="Layer_1" x="0px" y="0px" viewBox="0 0 436.539 436.539" style="enable-background:new 0 0 436.539 436.539;" xml:space="preserve" width="512" height="512">
<g id="_x33_5._Alarm_clock_1_">
	<g>
		<g>
			<g id="XMLID_83_">
				<g>
					<g>
						<path style="fill:#FF7124;" d="M363.349,21.638c29.06,20.35,36.12,60.41,15.77,89.47l-105.24-73.69        C294.229,8.348,334.289,1.288,363.349,21.638z"/>
					</g>
					<g>
						<path style="fill:#F2D59F;" d="M232.069,238.528h-0.01c-3.53-3.53-8.39-5.71-13.78-5.71c-10.77,0-19.5,8.73-19.5,19.5        s8.73,19.5,19.5,19.5c10.77,0,19.5-8.73,19.5-19.5C237.779,246.938,235.599,242.058,232.069,238.528z M218.279,84.098        c92.9,0,168.22,75.31,168.22,168.22s-75.32,168.22-168.22,168.22c-92.91,0-168.23-75.31-168.23-168.22        S125.369,84.098,218.279,84.098z"/>
					</g>
					<g>
						<path style="fill:#8ECAC1;" d="M232.069,238.528c3.53,3.53,5.71,8.41,5.71,13.79c0,10.77-8.73,19.5-19.5,19.5        c-10.77,0-19.5-8.73-19.5-19.5s8.73-19.5,19.5-19.5c5.39,0,10.25,2.18,13.78,5.71H232.069z"/>
					</g>
					<g>
						<path style="fill:#5E2A41;" d="M218.279,46.528c-9.67,0-17.5-7.84-17.5-17.5c0-9.67,7.83-17.5,17.5-17.5        c9.66,0,17.5,7.83,17.5,17.5C235.779,38.688,227.939,46.528,218.279,46.528z"/>
					</g>
					<g>
						<path style="fill:#FF7124;" d="M162.659,37.418l-105.24,73.69c-20.35-29.06-13.29-69.12,15.77-89.47        S142.309,8.348,162.659,37.418z"/>
					</g>
				</g>
				<g>
					<g>
						<path style="fill:#5E2A41;" d="M204.479,248.528c-2.559,0-5.119-0.976-7.071-2.929l-68.2-68.2        c-3.905-3.905-3.905-10.237,0-14.143c3.905-3.905,10.237-3.905,14.143,0l68.2,68.2c3.905,3.905,3.905,10.237,0,14.143        C209.598,247.552,207.038,248.528,204.479,248.528z"/>
					</g>
					<g>
						<path style="fill:#5E2A41;" d="M218.279,430.538c-98.276,0-178.23-79.949-178.23-178.22c0-98.271,79.954-178.22,178.23-178.22        c98.271,0,178.22,79.949,178.22,178.22C396.499,350.589,316.55,430.538,218.279,430.538z M218.279,94.098        c-87.248,0-158.23,70.977-158.23,158.22c0,87.243,70.982,158.22,158.23,158.22c87.243,0,158.22-70.977,158.22-158.22        C376.499,165.075,305.522,94.098,218.279,94.098z"/>
					</g>
					<g>
						<path style="fill:#5E2A41;" d="M218.279,92.198c-5.523,0-10-4.477-10-10v-36.07c0-5.523,4.477-10,10-10        c5.523,0,10,4.477,10,10v36.07C228.279,87.721,223.802,92.198,218.279,92.198z"/>
					</g>
					<g>
						<path style="fill:#5E2A41;" d="M57.428,121.109c-3.152,0-6.254-1.487-8.2-4.265c-11.375-16.243-15.743-35.944-12.301-55.474        c3.442-19.53,14.283-36.55,30.526-47.924C83.697,2.072,103.397-2.296,122.927,1.147c19.531,3.444,36.551,14.289,47.925,30.536        c3.167,4.524,2.067,10.759-2.456,13.926L63.155,119.3C61.41,120.522,59.409,121.109,57.428,121.109z M109.92,20.005        c-11.028,0-21.774,3.367-30.995,9.824c-11.867,8.31-19.787,20.745-22.302,35.013c-1.926,10.929-0.505,21.93,4,31.814        l87.361-61.171c-7.748-7.616-17.601-12.715-28.531-14.643C116.273,20.283,113.085,20.005,109.92,20.005z"/>
					</g>
					<g>
						<path style="fill:#5E2A41;" d="M133.428,112.349c-3.153,0-6.256-1.488-8.202-4.268l-19.91-28.45        c-3.167-4.524-2.066-10.76,2.459-13.926c4.525-3.166,10.76-2.065,13.927,2.46l19.91,28.45        c3.167,4.524,2.065,10.76-2.46,13.926C137.408,111.762,135.408,112.349,133.428,112.349z"/>
					</g>
					<g>
						<path style="fill:#5E2A41;" d="M379.111,121.109c-1.981,0-3.981-0.587-5.727-1.81l-105.24-73.69        c-4.523-3.167-5.624-9.402-2.457-13.926c11.374-16.248,28.394-27.092,47.925-30.536c19.528-3.443,39.23,0.924,55.474,12.299        c16.243,11.375,27.084,28.394,30.526,47.924c3.442,19.53-0.926,39.23-12.301,55.474        C385.366,119.622,382.263,121.109,379.111,121.109z M288.554,35.486l87.361,61.171c4.505-9.884,5.926-20.885,3.999-31.814        C377.4,50.574,369.48,38.139,357.613,29.83c-11.867-8.31-26.259-11.5-40.528-8.986        C306.155,22.771,296.302,27.87,288.554,35.486z"/>
					</g>
					<g>
						<path style="fill:#5E2A41;" d="M303.111,112.349c-1.98,0-3.979-0.586-5.725-1.808c-4.525-3.167-5.626-9.402-2.46-13.926        l19.91-28.45c3.166-4.525,9.401-5.626,13.927-2.46c4.524,3.167,5.625,9.402,2.459,13.926l-19.91,28.45        C309.368,110.861,306.264,112.349,303.111,112.349z"/>
					</g>
					<g>
						<path style="fill:#5E2A41;" d="M113.501,436.539c-1.98,0-3.98-0.587-5.726-1.809c-4.524-3.167-5.625-9.402-2.457-13.927        l19.91-28.44c3.167-4.524,9.404-5.624,13.927-2.457c4.524,3.167,5.624,9.402,2.457,13.927l-19.91,28.44        C119.757,435.052,116.653,436.539,113.501,436.539z"/>
					</g>
					<g>
						<path style="fill:#5E2A41;" d="M323.038,436.539c-3.153,0-6.255-1.487-8.201-4.266l-19.91-28.44        c-3.168-4.524-2.067-10.76,2.457-13.927c4.524-3.168,10.76-2.067,13.927,2.457l19.91,28.44        c3.167,4.524,2.067,10.76-2.457,13.927C327.019,435.952,325.019,436.539,323.038,436.539z"/>
					</g>
					<g>
						<path style="fill:#5E2A41;" d="M218.279,281.818c-16.266,0-29.5-13.234-29.5-29.5c0-16.266,13.234-29.5,29.5-29.5        c7.725,0,14.997,2.952,20.53,8.323c0.112,0.102,0.222,0.208,0.331,0.315c5.571,5.571,8.639,12.98,8.639,20.862        C247.779,268.584,234.545,281.818,218.279,281.818z M218.279,242.818c-5.238,0-9.5,4.262-9.5,9.5c0,5.238,4.262,9.5,9.5,9.5        c5.238,0,9.5-4.262,9.5-9.5c0-2.453-0.921-4.763-2.6-6.533c-0.064-0.061-0.127-0.122-0.19-0.185        C223.195,243.806,220.812,242.818,218.279,242.818z"/>
					</g>
					<g>
						<path style="fill:#5E2A41;" d="M136.289,180.328c-2.652,0-5.206-1.054-7.081-2.929l-14.11-14.11        c-3.905-3.905-3.905-10.237,0-14.143c3.905-3.904,10.237-3.904,14.143,0l13.978,13.979c1.889,1.819,3.065,4.374,3.065,7.203        C146.284,175.851,141.812,180.328,136.289,180.328z"/>
					</g>
					<g>
						<path style="fill:#5E2A41;" d="M232.069,248.528c-5.523,0-10.005-4.477-10.005-10c0-2.878,1.215-5.473,3.16-7.297        l67.963-67.974c3.905-3.905,10.236-3.905,14.143-0.001c3.905,3.905,3.906,10.237,0.001,14.143l-68.19,68.2        C237.266,247.475,234.722,248.528,232.069,248.528z"/>
					</g>
					<g>
						<path style="fill:#5E2A41;" d="M218.279,146.368c-5.523,0-10-4.477-10-10v-19.96c0-5.523,4.477-10,10-10        c5.523,0,10,4.477,10,10v19.96C228.279,141.891,223.802,146.368,218.279,146.368z"/>
					</g>
					<g>
						<path style="fill:#5E2A41;" d="M218.279,398.228c-5.523,0-10-4.477-10-10v-19.96c0-5.523,4.477-10,10-10        c5.523,0,10,4.477,10,10v19.96C228.279,393.751,223.802,398.228,218.279,398.228z"/>
					</g>
					<g>
						<path style="fill:#5E2A41;" d="M102.33,262.318H82.37c-5.523,0-10-4.477-10-10c0-5.523,4.477-10,10-10h19.96        c5.523,0,10,4.477,10,10C112.33,257.841,107.852,262.318,102.33,262.318z"/>
					</g>
					<g>
						<path style="fill:#5E2A41;" d="M354.18,262.318h-19.95c-5.523,0-10-4.477-10-10c0-5.523,4.477-10,10-10h19.95        c5.523,0,10,4.477,10,10C364.18,257.841,359.703,262.318,354.18,262.318z"/>
					</g>
				</g>
			</g>
		</g>
	</g>
</g>















</svg>
