<?xml version="1.0" encoding="iso-8859-1"?>
<!-- Generator: Adobe Illustrator 19.0.0, SVG Export Plug-In . SVG Version: 6.00 Build 0)  -->
<svg xmlns="http://www.w3.org/2000/svg" xmlns:xlink="http://www.w3.org/1999/xlink" version="1.1" id="Layer_1" x="0px" y="0px" viewBox="0 0 440.039 440.039" style="enable-background:new 0 0 440.039 440.039;" xml:space="preserve" width="512" height="512">
<g id="_x30_1._Hourglass_1_">
	<g id="XMLID_2_">
		<g>
			<g>
				<path style="fill:#FF7124;" d="M356.299,396.03v19.01c0,8.28-6.71,15-15,15H98.74c-8.29,0-15-6.72-15-15v-19.01      c0-8.28,6.71-15,15-15h18.61h205.34h18.61C349.59,381.03,356.299,387.75,356.299,396.03z"/>
			</g>
			<g>
				<path style="fill:#FF7124;" d="M356.299,25v19.01c0,8.28-6.71,15-15,15h-18.61H117.35H98.74c-8.29,0-15-6.72-15-15V25      c0-8.28,6.71-15,15-15h242.56C349.59,10,356.299,16.719,356.299,25z"/>
			</g>
			<g>
				<path style="fill:#8ECAC1;" d="M322.69,334.879v46.15l-91.69-47.18c-6.89-3.54-15.07-3.54-21.96,0l-91.69,47.18v-46.15v-0.01      c0-49.75,35.38-91.22,82.35-100.64v-28.42c6.57,1.33,13.36,2.02,20.32,2.02s13.75-0.69,20.32-2.02v28.42      c46.97,9.42,82.35,50.89,82.35,100.64V334.879z"/>
			</g>
			<g>
				<path style="fill:#8ECAC1;" d="M322.69,59.009v46.16c0,6.09-0.53,12.05-1.55,17.85h-202.24c-1.02-5.8-1.55-11.76-1.55-17.85      v-46.16H322.69z"/>
			</g>
			<g>
				<path style="fill:#F2D59F;" d="M322.69,381.03H117.35l91.69-47.18c6.89-3.54,15.07-3.54,21.96,0L322.69,381.03z"/>
			</g>
			<g>
				<path style="fill:#F2D59F;" d="M118.899,123.02h202.24c-7.29,41.56-39.58,74.52-80.8,82.79c-6.57,1.33-13.36,2.02-20.32,2.02      s-13.75-0.69-20.32-2.02C158.48,197.54,126.189,164.579,118.899,123.02z"/>
			</g>
		</g>
		<g>
			<g>
				<path style="fill:#5E2A41;" d="M199.71,215.811c-0.652,0-1.314-0.064-1.978-0.197c-22.223-4.459-42.386-15.431-58.31-31.727      c-15.947-16.322-26.45-36.773-30.373-59.14c-1.128-6.413-1.7-13.001-1.7-19.577c0-5.522,4.477-10,10-10c5.523,0,10,4.478,10,10      c0,5.418,0.471,10.841,1.398,16.117c6.535,37.253,35.838,67.278,72.919,74.718c5.415,1.087,8.924,6.357,7.837,11.771      C208.551,212.527,204.377,215.811,199.71,215.811z"/>
			</g>
			<g>
				<path style="fill:#5E2A41;" d="M240.329,215.811c-4.667,0-8.84-3.283-9.794-8.035c-1.086-5.414,2.422-10.685,7.837-11.771      c37.081-7.439,66.384-37.465,72.918-74.713c0.929-5.281,1.399-10.704,1.399-16.122c0-5.522,4.477-10,10-10s10,4.478,10,10      c0,6.576-0.572,13.164-1.701,19.582c-3.922,22.362-14.425,42.813-30.372,59.135c-15.923,16.297-36.086,27.268-58.31,31.727      C241.643,215.747,240.98,215.811,240.329,215.811z"/>
			</g>
			<g>
				<path style="fill:#5E2A41;" d="M117.35,115.17c-5.523,0-10-4.478-10-10V59.01c0-5.522,4.477-10,10-10c5.523,0,10,4.478,10,10      v46.16C127.35,110.692,122.872,115.17,117.35,115.17z"/>
			</g>
			<g>
				<path style="fill:#5E2A41;" d="M322.689,115.17c-5.523,0-10-4.478-10-10V59.01c0-5.522,4.477-10,10-10s10,4.478,10,10v46.16      C332.689,110.692,328.212,115.17,322.689,115.17z"/>
			</g>
			<g>
				<path style="fill:#5E2A41;" d="M341.299,69.01H98.74c-13.785,0-25-11.215-25-25V25c0-13.785,11.215-25,25-25h242.56      c13.785,0,25,11.215,25,25v19.01C366.299,57.795,355.084,69.01,341.299,69.01z M98.74,20c-2.757,0-5,2.243-5,5v19.01      c0,2.757,2.243,5,5,5h242.56c2.757,0,5-2.243,5-5V25c0-2.757-2.243-5-5-5H98.74z"/>
			</g>
			<g>
				<path style="fill:#5E2A41;" d="M117.35,344.869c-5.523,0-10-4.478-10-10c0-53.492,38.012-99.941,90.384-110.444      c5.41-1.083,10.686,2.424,11.771,7.838c1.086,5.415-2.423,10.686-7.838,11.771c-43.062,8.636-74.316,46.838-74.316,90.835      C127.35,340.392,122.872,344.869,117.35,344.869z"/>
			</g>
			<g>
				<path style="fill:#5E2A41;" d="M322.689,344.869c-5.523,0-10-4.478-10-10c0-43.997-31.254-82.199-74.316-90.835      c-5.415-1.086-8.924-6.356-7.838-11.771c1.086-5.414,6.358-8.921,11.771-7.838c52.372,10.503,90.384,56.952,90.384,110.444      C332.689,340.392,328.212,344.869,322.689,344.869z"/>
			</g>
			<g>
				<path style="fill:#5E2A41;" d="M117.35,391.029c-5.523,0-10-4.478-10-10V334.88c0-5.523,4.477-10.006,10-10.006      c5.523,0,10,4.473,10,9.995v46.16C127.35,386.552,122.872,391.029,117.35,391.029z"/>
			</g>
			<g>
				<path style="fill:#5E2A41;" d="M322.689,391.029c-5.523,0-10-4.478-10-10V334.88c0-5.523,4.477-10.006,10-10.006      s10,4.473,10,9.995v46.16C332.689,386.552,328.212,391.029,322.689,391.029z"/>
			</g>
			<g>
				<path style="fill:#5E2A41;" d="M341.299,440.039H98.74c-13.785,0-25-11.215-25-25v-19.01c0-13.785,11.215-25,25-25h242.56      c13.785,0,25,11.215,25,25v19.01C366.299,428.824,355.084,440.039,341.299,440.039z M98.74,391.029c-2.757,0-5,2.243-5,5v19.01      c0,2.757,2.243,5,5,5h242.56c2.757,0,5-2.243,5-5v-19.01c0-2.757-2.243-5-5-5H98.74z"/>
			</g>
			<g>
				<path style="fill:#5E2A41;" d="M199.7,244.23c-5.523,0-10-4.478-10-10v-28.42c0-5.522,4.477-10,10-10c5.523,0,10,4.478,10,10      v28.42C209.7,239.752,205.223,244.23,199.7,244.23z"/>
			</g>
			<g>
				<path style="fill:#5E2A41;" d="M240.339,244.23c-5.523,0-10-4.478-10-10v-28.42c0-5.522,4.477-10,10-10c5.523,0,10,4.478,10,10      v28.42C250.339,239.752,245.862,244.23,240.339,244.23z"/>
			</g>
			<g>
				<path style="fill:#5E2A41;" d="M321.14,133.02h-202.24c-5.523,0-10-4.477-10-10c0-5.522,4.477-10,10-10h202.24      c5.523,0,10,4.478,10,10C331.14,128.542,326.663,133.02,321.14,133.02z"/>
			</g>
			<g>
				<path style="fill:#5E2A41;" d="M322.681,391.031c-1.54,0-3.103-0.356-4.567-1.11l-91.69-47.18      c-4.008-2.059-8.8-2.058-12.815,0.003l-91.685,47.177c-4.91,2.525-10.94,0.595-13.467-4.316      c-2.527-4.911-0.594-10.94,4.317-13.467l91.69-47.18c9.743-5.005,21.369-5.006,31.105-0.003l91.695,47.183      c4.911,2.526,6.844,8.556,4.317,13.467C329.808,389.052,326.308,391.031,322.681,391.031z"/>
			</g>
			<g>
				<path style="fill:#5E2A41;" d="M220.02,298.42c-5.523,0-10-4.477-10-10v-12.601c0-5.522,4.477-10,10-10s10,4.478,10,10v12.601      C230.02,293.942,225.542,298.42,220.02,298.42z"/>
			</g>
			<g>
				<path style="fill:#5E2A41;" d="M220.02,217.829c-7.529,0-15.033-0.746-22.304-2.219c-5.413-1.096-8.913-6.372-7.817-11.785      c1.096-5.413,6.376-8.911,11.786-7.816c11.935,2.416,24.736,2.416,36.671,0c5.411-1.101,10.689,2.403,11.786,7.816      c1.096,5.413-2.404,10.689-7.817,11.785C235.053,217.083,227.549,217.829,220.02,217.829z"/>
			</g>
		</g>
	</g>
</g>















</svg>
