<?xml version="1.0" encoding="iso-8859-1"?>
<!-- Generator: Adobe Illustrator 19.0.0, SVG Export Plug-In . SVG Version: 6.00 Build 0)  -->
<svg version="1.1" id="Capa_1" xmlns="http://www.w3.org/2000/svg" xmlns:xlink="http://www.w3.org/1999/xlink" x="0px" y="0px"
	 viewBox="0 0 227.253 227.253" style="enable-background:new 0 0 227.253 227.253;" xml:space="preserve">
<g>
	<g>
		<path style="fill:#3E4543;" d="M24.298,81.887c-1.563-0.389-3.163-0.587-4.756-0.587C8.767,81.3,0,90.082,0,100.877v26.625
			c0,10.795,8.767,19.577,19.542,19.577c1.593,0,3.193-0.197,4.756-0.586l43.688-10.876V92.762L24.298,81.887z"/>
		<path style="fill:#FF9012;" d="M22.88,87.581c-8.645-2.152-17.012,4.388-17.012,13.296v26.625c0,8.909,8.367,15.448,17.012,13.296
			l39.238-9.769V97.349L22.88,87.581z"/>
	</g>
	<g>
		<circle style="fill:#3E4543;" cx="133.2" cy="76.727" r="25.295"/>
		<circle style="fill:#FF9012;" cx="133.2" cy="76.727" r="19.592"/>
	</g>
	<g>
		<circle style="fill:#3E4543;" cx="103.023" cy="150.526" r="25.295"/>
		<circle style="fill:#FF9012;" cx="103.023" cy="150.526" r="19.592"/>
	</g>
	<path style="fill:#FF9012;" d="M184.028,68.634H76.735c-16.822,0-30.459,13.637-30.459,30.46l0,0
		c0,33.115,26.845,59.959,59.959,59.959h73.824c26.063,0,47.193-21.129,47.193-47.194l0,0
		C227.253,87.986,207.9,68.634,184.028,68.634z"/>
	<g>
		<g>
			<path style="fill:#FFFFFF;" d="M154.307,68.634v73.368c0,6.332,5.133,11.466,11.466,11.466l0,0
				c6.332,0,11.466-5.134,11.466-11.466V68.634H154.307z"/>
		</g>
	</g>
	<path style="fill:#FFFFFF;" d="M118.111,73.183c-8.333,0-15.088,6.755-15.088,15.088v70.781H133.2V88.271
		C133.2,79.938,126.444,73.183,118.111,73.183z"/>
	<g>
		<path style="fill:#3E4543;" d="M163.291,147.734c-23.021,0-41.684-18.663-41.684-41.684h41.684V147.734z"/>
		<path style="fill:#FFB469;" d="M163.291,141.682c-19.679,0-35.632-15.953-35.632-35.632h35.632V141.682z"/>
	</g>
	<g>
		<circle style="fill:#FFFFFF;" cx="196.799" cy="104.748" r="15.273"/>
		<circle style="fill:#375D9D;" cx="196.799" cy="104.748" r="7.636"/>
	</g>
</g>
<g>
</g>
<g>
</g>
<g>
</g>
<g>
</g>
<g>
</g>
<g>
</g>
<g>
</g>
<g>
</g>
<g>
</g>
<g>
</g>
<g>
</g>
<g>
</g>
<g>
</g>
<g>
</g>
<g>
</g>
</svg>
