<?xml version="1.0" encoding="iso-8859-1"?>
<!-- Generator: Adobe Illustrator 19.0.0, SVG Export Plug-In . SVG Version: 6.00 Build 0)  -->
<svg version="1.1" id="Layer_1" xmlns="http://www.w3.org/2000/svg" xmlns:xlink="http://www.w3.org/1999/xlink" x="0px" y="0px"
	 viewBox="0 0 511.999 511.999" style="enable-background:new 0 0 511.999 511.999;" xml:space="preserve">
<path style="fill:#FF728B;" d="M195.406,360.866C79.064,562.377-97.824,255.999,134.86,255.999
	c-232.684,0-55.797-306.378,60.546-104.867c-116.342-201.51,237.432-201.51,121.09,0c116.342-201.511,293.23,104.867,60.546,104.867
	c232.684,0,55.796,306.378-60.546,104.867C432.838,562.377,79.064,562.377,195.406,360.866z"/>
<path style="fill:#FF3F62;" d="M377.042,255.852l-117.999-1.587l0.059-0.098l-0.095,0.002l57.49-103.036
	c116.342-201.51-237.432-201.51-121.09,0l57.499,103.051l-0.111-0.001l0.059,0.098l-117.991,2.122
	c-232.682,0.772-54.78,306.56,60.892,104.666l60.151-101.507l0.046,0.083l0.054-0.097l60.619,101.246
	C433.21,562.162,609.725,255.57,377.042,255.852z"/>
<g>
	<path style="fill:#FF0C38;" d="M255.952,414.824c-4.328,0-7.837,3.509-7.837,7.837v32.914c0,4.328,3.509,7.837,7.837,7.837
		s7.837-3.509,7.837-7.837V422.66C263.788,418.332,260.28,414.824,255.952,414.824z"/>
	<path style="fill:#FF0C38;" d="M131.527,162.764l20.179,16.748c1.463,1.215,3.237,1.807,5.001,1.807
		c2.251,0,4.485-0.964,6.034-2.832c2.765-3.331,2.306-8.271-1.025-11.035l-20.179-16.748c-3.331-2.765-8.271-2.306-11.035,1.025
		C127.738,155.059,128.197,160,131.527,162.764z"/>
	<path style="fill:#FF0C38;" d="M119.277,321.194L90.309,336.88c-3.807,2.061-5.22,6.817-3.16,10.623
		c1.419,2.62,4.115,4.106,6.898,4.106c1.26,0,2.538-0.305,3.724-0.947l28.968-15.686c3.806-2.061,5.22-6.817,3.16-10.623
		C127.839,320.548,123.083,319.132,119.277,321.194z"/>
	<path style="fill:#FF0C38;" d="M397.051,371.146l-20.883-18.62c-3.23-2.88-8.185-2.597-11.064,0.634
		c-2.88,3.231-2.597,8.185,0.634,11.064l20.883,18.62c1.494,1.332,3.356,1.987,5.213,1.987c2.156,0,4.304-0.885,5.852-2.622
		C400.565,378.981,400.282,374.027,397.051,371.146z"/>
	<path style="fill:#FF0C38;" d="M394.453,296.677l-120.48-42.674l122.047-77.06c3.659-2.31,4.753-7.15,2.443-10.811
		c-2.31-3.66-7.151-4.753-10.811-2.443L263.97,241.782V124.865c0-4.328-3.509-7.837-7.837-7.837c-4.328,0-7.837,3.509-7.837,7.837
		v114.447l-66.245-54.981c-3.331-2.765-8.272-2.306-11.035,1.025c-2.765,3.331-2.305,8.271,1.025,11.035l44.864,37.236
		l-106.29-38.07c-4.071-1.458-8.56,0.66-10.02,4.735c-1.46,4.074,0.66,8.561,4.735,10.02l131.645,47.151l-83.995,45.482
		c-3.807,2.061-5.22,6.817-3.16,10.623c1.419,2.62,4.115,4.106,6.898,4.106c1.26,0,2.539-0.305,3.724-0.947l87.628-47.45
		l0.043,120.473c0.001,4.327,3.51,7.834,7.837,7.834h0.002c4.329-0.001,7.836-3.511,7.835-7.839l-0.042-116.456l81.852,72.981
		c1.494,1.332,3.356,1.987,5.213,1.987c2.157,0,4.304-0.885,5.853-2.622c2.88-3.231,2.597-8.185-0.634-11.064l-64.889-57.857
		l98.08,34.74c0.865,0.306,1.748,0.451,2.616,0.451c3.226,0,6.249-2.007,7.387-5.222
		C400.669,302.602,398.533,298.122,394.453,296.677z"/>
	<path style="fill:#FF0C38;" d="M256.133,96.13c4.328,0,7.837-3.509,7.837-7.837V55.196c0-4.328-3.509-7.837-7.837-7.837
		c-4.328,0-7.837,3.509-7.837,7.837v33.097C248.297,92.621,251.805,96.13,256.133,96.13z"/>
</g>
<circle style="fill:#FFEB99;" cx="256.136" cy="255.999" r="61.127"/>
<path style="fill:#FFDA44;" d="M225.993,255.999c0-28.406,19.378-52.28,45.633-59.14c-4.949-1.294-10.14-1.986-15.494-1.986
	c-33.76,0-61.127,27.367-61.127,61.127s27.367,61.127,61.127,61.127c5.354,0,10.545-0.693,15.494-1.986
	C245.371,308.28,225.993,284.405,225.993,255.999z"/>
<g>
</g>
<g>
</g>
<g>
</g>
<g>
</g>
<g>
</g>
<g>
</g>
<g>
</g>
<g>
</g>
<g>
</g>
<g>
</g>
<g>
</g>
<g>
</g>
<g>
</g>
<g>
</g>
<g>
</g>
</svg>
