<?xml version="1.0" encoding="iso-8859-1"?>
<!-- Generator: Adobe Illustrator 19.0.0, SVG Export Plug-In . SVG Version: 6.00 Build 0)  -->
<svg version="1.1" id="Layer_1" xmlns="http://www.w3.org/2000/svg" xmlns:xlink="http://www.w3.org/1999/xlink" x="0px" y="0px"
	 viewBox="0 0 512.001 512.001" style="enable-background:new 0 0 512.001 512.001;" xml:space="preserve">
<path style="fill:#66BB00;" d="M335.683,305.239c-4.326,0-7.833-3.507-7.833-7.833V146.894c0-4.326,3.507-7.833,7.833-7.833
	c4.326,0,7.833,3.507,7.833,7.833v150.512C343.516,301.731,340.009,305.239,335.683,305.239z"/>
<path style="fill:#FF3F62;" d="M321.696,146.617c-23.83,57.529-77.31,4.049-19.78-19.78c-57.529,23.83-57.529-51.803,0-27.974
	c-57.529-23.83-4.049-77.31,19.78-19.78c-23.83-57.529,51.803-57.529,27.974,0c23.83-57.529,77.31-4.049,19.78,19.78
	c57.529-23.83,57.529,51.803,0,27.974c57.529,23.83,4.049,77.31-19.78,19.78C373.498,204.146,297.867,204.146,321.696,146.617z"/>
<path style="fill:#66BB00;" d="M176.317,305.239c-4.326,0-7.833-3.507-7.833-7.833V146.894c0-4.326,3.507-7.833,7.833-7.833
	s7.833,3.507,7.833,7.833v150.512C184.15,301.731,180.643,305.239,176.317,305.239z"/>
<path style="fill:#FF3F62;" d="M162.331,146.617c-23.83,57.529-77.31,4.049-19.78-19.78c-57.529,23.83-57.529-51.803,0-27.974
	c-57.529-23.83-4.049-77.31,19.78-19.78c-23.83-57.529,51.803-57.529,27.974,0c23.83-57.529,77.31-4.049,19.78,19.78
	c57.529-23.83,57.529,51.803,0,27.974c57.529,23.83,4.049,77.31-19.78,19.78C214.134,204.146,138.501,204.146,162.331,146.617z"/>
<g>
	<circle style="fill:#FFDA44;" cx="176.321" cy="112.852" r="19.582"/>
	<circle style="fill:#FFDA44;" cx="335.68" cy="112.852" r="19.582"/>
</g>
<path style="fill:#77DD00;" d="M256,269.304c-4.326,0-7.833-3.507-7.833-7.833V110.959c0-4.326,3.507-7.833,7.833-7.833
	s7.833,3.507,7.833,7.833v150.512C263.833,265.797,260.327,269.304,256,269.304z"/>
<path style="fill:#66BB00;" d="M256,103.126c-4.326,0-7.833,3.507-7.833,7.833v73.565c2.568,0.419,5.186,0.639,7.833,0.639
	s5.265-0.22,7.833-0.639v-73.565C263.833,106.633,260.327,103.126,256,103.126z"/>
<path style="fill:#F490C0;" d="M242.013,110.682c-23.83,57.529-77.31,4.049-19.78-19.78c-57.529,23.83-57.529-51.803,0-27.974
	c-57.529-23.83-4.049-77.31,19.78-19.78c-23.83-57.529,51.803-57.529,27.974,0c23.83-57.529,77.31-4.049,19.78,19.78
	c57.529-23.83,57.529,51.803,0,27.974c57.529,23.83,4.049,77.31-19.78,19.78C293.816,168.211,218.184,168.211,242.013,110.682z"/>
<circle style="fill:#FFE477;" cx="256.001" cy="76.913" r="19.582"/>
<path style="fill:#FF9478;" d="M133.241,278.285l25.512,218.25c1.02,8.815,8.485,15.466,17.358,15.466h159.745
	c8.875,0,16.339-6.651,17.358-15.466l25.543-218.25H133.241z"/>
<g>
	<path style="fill:#FF6243;" d="M378.758,278.285H133.241l25.512,218.25c1.02,8.815,8.485,15.466,17.358,15.466h62.666
		c-8.875,0-16.339-6.651-17.358-15.466l-18.656-159.601h169.131L378.758,278.285z"/>
	<path style="fill:#FF6243;" d="M334.975,390.751c-0.304,0-0.611-0.018-0.92-0.053c-4.297-0.502-7.373-4.394-6.869-8.691
		l1.887-16.121c0.502-4.297,4.392-7.373,8.691-6.869c4.297,0.502,7.373,4.394,6.869,8.691l-1.887,16.121
		C342.279,387.816,338.894,390.751,334.975,390.751z"/>
	<path style="fill:#FF6243;" d="M323.536,488.502c-0.304,0-0.611-0.018-0.92-0.053c-4.297-0.502-7.373-4.394-6.87-8.691
		l7.785-66.519c0.502-4.297,4.394-7.377,8.691-6.87c4.297,0.502,7.373,4.394,6.87,8.691l-7.785,66.519
		C330.84,485.566,327.454,488.502,323.536,488.502z"/>
</g>
<path style="fill:#FFEB99;" d="M390.188,305.601H121.812c-10.34,0-18.8-8.46-18.8-18.8V236.14c0-10.34,8.46-18.8,18.8-18.8h268.376
	c10.34,0,18.8,8.46,18.8,18.8v50.661C408.988,297.141,400.528,305.601,390.188,305.601z"/>
<g>
	<path style="fill:#FFDA44;" d="M161.995,286.801V236.14c0-10.34,8.46-18.8,18.8-18.8h-58.982c-10.34,0-18.8,8.46-18.8,18.8v50.661
		c0,10.34,8.46,18.8,18.8,18.8h58.982C170.455,305.601,161.995,297.141,161.995,286.801z"/>
	<path style="fill:#FFDA44;" d="M318.666,279.386H212.134c-4.326,0-7.833-3.507-7.833-7.833c0-4.326,3.507-7.833,7.833-7.833
		h106.532c4.326,0,7.833,3.507,7.833,7.833C326.499,275.879,322.992,279.386,318.666,279.386z"/>
	<path style="fill:#FFDA44;" d="M371.584,279.386h-24.37c-4.326,0-7.833-3.507-7.833-7.833c0-4.326,3.507-7.833,7.833-7.833h24.37
		c4.326,0,7.833,3.507,7.833,7.833C379.417,275.879,375.91,279.386,371.584,279.386z"/>
</g>
<g>
</g>
<g>
</g>
<g>
</g>
<g>
</g>
<g>
</g>
<g>
</g>
<g>
</g>
<g>
</g>
<g>
</g>
<g>
</g>
<g>
</g>
<g>
</g>
<g>
</g>
<g>
</g>
<g>
</g>
</svg>
