<?xml version="1.0" encoding="iso-8859-1"?>
<!-- Generator: Adobe Illustrator 19.0.0, SVG Export Plug-In . SVG Version: 6.00 Build 0)  -->
<svg version="1.1" id="Layer_1" xmlns="http://www.w3.org/2000/svg" xmlns:xlink="http://www.w3.org/1999/xlink" x="0px" y="0px"
	 viewBox="0 0 512.001 512.001" style="enable-background:new 0 0 512.001 512.001;" xml:space="preserve">
<path style="fill:#5EAC24;" d="M226.481,225.348c6.002,2.603,13.132,0.346,16.482-5.456l95.651-165.674l74.9-28.991
	c6.722-2.602,10.063-10.161,7.46-16.883c-2.601-6.723-10.161-10.064-16.883-7.46l-79.192,30.652
	c-2.777,1.074-5.104,3.067-6.592,5.646l-97.952,169.659c-3.604,6.243-1.465,14.224,4.777,17.829
	C225.574,224.924,226.025,225.15,226.481,225.348z"/>
<path style="fill:#4E901E;" d="M306.812,57.094l-86.456,149.747c-3.604,6.243-1.465,14.224,4.777,17.829
	c0.441,0.255,0.892,0.481,1.347,0.679c6.002,2.603,13.132,0.346,16.482-5.456l85.258-147.673
	C321.529,66.614,314.37,61.551,306.812,57.094z"/>
<path style="fill:#C2DFF6;" d="M115.404,205.383l29.344,291.521c0.866,8.557,8.58,15.096,17.81,15.096h127.401
	c9.23,0,16.945-6.54,17.81-15.096l29.169-290.65L115.404,205.383z"/>
<path style="fill:#96C8EF;" d="M144.747,496.903c0.866,8.557,8.58,15.096,17.81,15.096h50.254c-9.23,0-16.944-6.538-17.81-15.096
	L165.677,205.58l-50.275-0.197L144.747,496.903z"/>
<path style="fill:#B39A7C;" d="M135.417,199.888l28.578,279.885c0,0,1.381,11.345,14.753,11.345h95.018
	c13.581,0,14.755-11.356,14.755-11.356l28.578-279.872H135.417V199.888z"/>
<g>
	<path style="fill:#A78966;" d="M216.013,479.773l-28.578-279.885h-52.018l28.578,279.885c0,0,1.381,11.345,14.753,11.345h52.018
		C217.395,491.117,216.013,479.773,216.013,479.773z"/>
	<circle style="fill:#A78966;" cx="229.391" cy="295.912" r="12.449"/>
	<circle style="fill:#A78966;" cx="291.184" cy="246.315" r="12.449"/>
	<circle style="fill:#A78966;" cx="266.28" cy="378.014" r="12.449"/>
	<circle style="fill:#A78966;" cx="241.837" cy="452.504" r="12.449"/>
	<circle style="fill:#A78966;" cx="260.287" cy="298.45" r="5.997"/>
	<circle style="fill:#A78966;" cx="223.397" cy="261.236" r="5.997"/>
	<circle style="fill:#A78966;" cx="260.287" cy="422.871" r="5.997"/>
	<circle style="fill:#A78966;" cx="278.278" cy="341.051" r="5.997"/>
	<circle style="fill:#A78966;" cx="247.841" cy="329.659" r="5.997"/>
	<circle style="fill:#A78966;" cx="232.168" cy="370.695" r="5.997"/>
	<circle style="fill:#A78966;" cx="247.841" cy="239.862" r="5.997"/>
	<circle style="fill:#A78966;" cx="235.384" cy="404.88" r="5.997"/>
	<circle style="fill:#A78966;" cx="291.184" cy="283.466" r="5.997"/>
</g>
<path style="fill:#C2DFF6;" d="M226.258,64.37c-70.539,0-127.721,57.183-127.721,127.721h255.441
	C353.979,121.553,296.797,64.37,226.258,64.37z"/>
<path style="fill:#96C8EF;" d="M98.537,192.091h64.925c0-59.32,40.443-109.189,95.258-123.552
	c-10.366-2.717-21.244-4.168-32.463-4.168C155.719,64.37,98.537,121.553,98.537,192.091z"/>
<path style="fill:#FFFFFF;" d="M335.189,194.028c3.025-5.968,4.739-12.714,4.739-19.862c0-24.31-19.707-44.017-44.017-44.017
	c-6.942,0-13.504,1.612-19.344,4.473c-7.912-20.052-27.447-34.247-50.309-34.247c-22.863,0-42.399,14.195-50.309,34.247
	c-5.839-2.862-12.402-4.473-19.344-4.473c-24.31,0-44.018,19.707-44.018,44.017c0,7.149,1.716,13.893,4.739,19.862H335.189z"/>
<g>
	<path style="opacity:0.8;fill:#D9CCBC;enable-background:new    ;" d="M184.637,148.943c6.942,0,13.504,1.612,19.344,4.473
		c7.912-20.052,27.447-34.247,50.309-34.247c5.044,0,9.926,0.693,14.558,1.986c-9.894-12.646-25.286-20.781-42.59-20.781
		c-22.863,0-42.399,14.195-50.309,34.247c-5.839-2.862-12.402-4.473-19.344-4.473c-24.31,0-44.018,19.707-44.018,44.017
		c0,7.149,1.716,13.893,4.739,19.862h23.324c-0.008-0.356-0.032-0.709-0.032-1.067C140.619,168.65,160.326,148.943,184.637,148.943z
		"/>
	<circle style="fill:#D9CCBC;" cx="256.048" cy="155.411" r="8.208"/>
	<circle style="fill:#D9CCBC;" cx="286.391" cy="163.19" r="4.793"/>
</g>
<path style="fill:#96C8EF;" d="M345.786,216.474H106.73c-9.123,0-16.586-7.464-16.586-16.586l0,0
	c0-9.123,7.464-16.586,16.586-16.586h239.057c9.123,0,16.586,7.464,16.586,16.586l0,0
	C362.373,209.011,354.909,216.474,345.786,216.474z"/>
<path style="fill:#78B9EB;" d="M149.072,199.888L149.072,199.888c0-9.123,7.464-16.586,16.586-16.586H106.73
	c-9.123,0-16.586,7.464-16.586,16.586l0,0c0,9.123,7.464,16.586,16.586,16.586h58.929
	C156.536,216.474,149.072,209.011,149.072,199.888z"/>
<g>
</g>
<g>
</g>
<g>
</g>
<g>
</g>
<g>
</g>
<g>
</g>
<g>
</g>
<g>
</g>
<g>
</g>
<g>
</g>
<g>
</g>
<g>
</g>
<g>
</g>
<g>
</g>
<g>
</g>
</svg>
