<?xml version="1.0" encoding="iso-8859-1"?>
<!-- Generator: Adobe Illustrator 19.0.0, SVG Export Plug-In . SVG Version: 6.00 Build 0)  -->
<svg version="1.1" id="Layer_1" xmlns="http://www.w3.org/2000/svg" xmlns:xlink="http://www.w3.org/1999/xlink" x="0px" y="0px"
	 viewBox="0 0 512 512" style="enable-background:new 0 0 512 512;" xml:space="preserve">
<path style="fill:#FF9811;" d="M256,512c-8.646,0-15.655-7.009-15.655-15.655v-276.81c0-8.646,7.009-15.655,15.655-15.655
	s15.655,7.009,15.655,15.655v276.81C271.654,504.991,264.645,512,256,512z"/>
<path style="fill:#CC7400;" d="M271.654,358.499V219.535c0-8.646-7.009-15.655-15.655-15.655c-8.646,0-15.655,7.009-15.655,15.655
	v138.964H271.654z"/>
<path style="fill:#FFDA44;" d="M361.086,307.08l-25.15-290.168C335.108,7.345,327.099,0,317.495,0H194.504
	c-9.604,0-17.613,7.345-18.441,16.912L150.914,307.08c-0.449,5.168,1.292,10.287,4.799,14.11c3.506,3.823,8.456,6,13.642,6h173.289
	c5.187,0,10.137-2.176,13.642-6C359.793,317.367,361.534,312.249,361.086,307.08z"/>
<g>
	<path style="fill:#EEBF00;" d="M202.468,307.08l25.15-290.168C228.446,7.345,236.455,0,246.059,0h-51.555
		c-9.604,0-17.613,7.345-18.441,16.912L150.914,307.08c-0.448,5.168,1.293,10.287,4.799,14.11c3.506,3.823,8.456,6,13.642,6h51.555
		c-5.187,0-10.137-2.176-13.642-6C203.761,317.367,202.02,312.249,202.468,307.08z"/>
	<path style="fill:#EEBF00;" d="M355.117,238.217L335.936,16.912C335.108,7.345,327.099,0,317.495,0H194.504
		c-9.604,0-17.613,7.345-18.441,16.912l-19.181,221.305l0.68,0.015c8.101,0.173,11.789,3.276,17.371,7.972
		c6.821,5.738,15.31,12.88,31.505,12.88c16.198,0,24.683-7.148,31.501-12.891c5.706-4.806,9.475-7.982,18.054-7.982
		c8.581,0,12.35,3.175,18.057,7.982c6.818,5.743,15.304,12.891,31.505,12.891c16.196,0,24.685-7.141,31.508-12.879
		c5.583-4.696,9.272-7.799,17.374-7.972L355.117,238.217z"/>
</g>
<path style="fill:#8C4E03;" d="M335.936,16.912C335.108,7.345,327.099,0,317.495,0H194.504c-9.604,0-17.613,7.345-18.441,16.912
	l-18.277,210.887c23.863,0.509,24.186,20.849,48.654,20.849c24.777,0,24.777-20.873,49.555-20.873
	c24.781,0,24.781,20.873,49.561,20.873c24.47,0,24.794-20.34,48.659-20.849L335.936,16.912z"/>
<path style="fill:#663A00;" d="M246.059,0h-51.555c-9.604,0-17.613,7.345-18.441,16.912l-18.277,210.887
	c23.863,0.509,24.186,20.849,48.654,20.849c0.377,0,0.731-0.02,1.097-0.029l20.082-231.706C228.446,7.345,236.455,0,246.059,0z"/>
<g>
	<path style="fill:#EE8700;" d="M307.094,155.479c-4.018,0-7.436-3.075-7.789-7.152L289.223,31.984
		c-0.374-4.306,2.815-8.101,7.122-8.474c4.3-0.369,8.102,2.816,8.473,7.123l10.083,116.342c0.374,4.306-2.815,8.101-7.122,8.474
		C307.55,155.469,307.321,155.479,307.094,155.479z"/>
	<path style="fill:#EE8700;" d="M312.438,217.134c-4.018,0-7.436-3.075-7.789-7.152l-1.819-20.986
		c-0.374-4.307,2.815-8.101,7.122-8.474c4.304-0.366,8.102,2.816,8.473,7.122l1.819,20.986c0.374,4.307-2.815,8.101-7.122,8.474
		C312.894,217.123,312.664,217.134,312.438,217.134z"/>
</g>
<g>
	<circle style="fill:#96C8EF;" cx="263.081" cy="119.121" r="10.416"/>
	<circle style="fill:#96C8EF;" cx="253.156" cy="188.398" r="10.416"/>
	<circle style="fill:#96C8EF;" cx="255.994" cy="39.93" r="10.416"/>
</g>
<g>
	<circle style="fill:#F072AE;" cx="234.621" cy="156.056" r="7.094"/>
	<circle style="fill:#F072AE;" cx="246.059" cy="82.387" r="7.094"/>
</g>
<g>
</g>
<g>
</g>
<g>
</g>
<g>
</g>
<g>
</g>
<g>
</g>
<g>
</g>
<g>
</g>
<g>
</g>
<g>
</g>
<g>
</g>
<g>
</g>
<g>
</g>
<g>
</g>
<g>
</g>
</svg>
