<?xml version="1.0" encoding="iso-8859-1"?>
<!-- Generator: Adobe Illustrator 19.0.0, SVG Export Plug-In . SVG Version: 6.00 Build 0)  -->
<svg version="1.1" id="Layer_1" xmlns="http://www.w3.org/2000/svg" xmlns:xlink="http://www.w3.org/1999/xlink" x="0px" y="0px"
	 viewBox="0 0 512 512" style="enable-background:new 0 0 512 512;" xml:space="preserve">
<path style="fill:#FF9811;" d="M256.303,512c-8.647,0-15.656-7.01-15.656-15.656V219.502c0-8.647,7.01-15.656,15.656-15.656
	s15.656,7.01,15.656,15.656v276.842C271.959,504.99,264.949,512,256.303,512z"/>
<path style="fill:#CC7400;" d="M256.303,203.845c-8.647,0-15.656,7.01-15.656,15.656v193.829h31.313V219.502
	C271.959,210.855,264.949,203.845,256.303,203.845z"/>
<path style="fill:#F072AE;" d="M256,0c-35.879,0-65.235,29.356-65.235,65.235l2.088,28.987l-2.088,33.116v63.67l2.088,27.846
	l-2.088,35.824v63.67l2.088,24.821l-2.088,23.192c0,8.647,7.01,15.656,15.656,15.656h99.158c8.647,0,15.656-7.01,15.656-15.656
	v-48.013l-2.088-28.91l2.088-34.759v-63.67l-2.088-30.655l2.088-33.014V65.235c0-11.492-6.143-22.315-11.416-31.718
	c-4.564-8.139-7.691-15.216-15.159-20.742C283.823,4.754,270.439,0,256,0z"/>
<path style="fill:#EA3486;" d="M256,0c-35.879,0-65.235,29.356-65.235,65.235v301.126c0,8.647,7.01,15.656,15.656,15.656h31.31
	V65.235c0-27.61,17.39-51.339,41.752-60.819C272.186,1.576,264.27,0,256,0z"/>
<g>
	<path style="fill:#96C8EF;" d="M294.813,12.894L190.805,63.65c-0.013,0.528-0.041,63.689-0.041,63.689l130.431-63.651
		C320.706,42.949,310.43,24.522,294.813,12.894z"/>
	<polygon style="fill:#96C8EF;" points="190.765,254.679 321.235,191.009 321.235,127.339 190.765,191.009 	"/>
</g>
<g>
	<path style="fill:#3D9AE2;" d="M243.851,37.763L190.805,63.65c-0.013,0.528-0.041,63.689-0.041,63.689l46.966-22.919V65.235
		C237.731,55.433,239.934,46.126,243.851,37.763z"/>
	<polygon style="fill:#3D9AE2;" points="190.765,191.009 190.765,254.679 237.731,231.76 237.731,168.09 	"/>
</g>
<path style="fill:#96C8EF;" d="M190.765,318.348v48.013c0,5.152,2.5,9.709,6.341,12.563l124.13-60.576v-63.67L190.765,318.348z"/>
<path style="fill:#3D9AE2;" d="M190.765,318.348v48.013c0,5.152,2.5,9.709,6.341,12.563l40.625-19.825v-63.67L190.765,318.348z"/>
<g>
</g>
<g>
</g>
<g>
</g>
<g>
</g>
<g>
</g>
<g>
</g>
<g>
</g>
<g>
</g>
<g>
</g>
<g>
</g>
<g>
</g>
<g>
</g>
<g>
</g>
<g>
</g>
<g>
</g>
</svg>
