<?xml version="1.0" encoding="iso-8859-1"?>
<!-- Generator: Adobe Illustrator 19.0.0, SVG Export Plug-In . SVG Version: 6.00 Build 0)  -->
<svg version="1.1" id="Layer_1" xmlns="http://www.w3.org/2000/svg" xmlns:xlink="http://www.w3.org/1999/xlink" x="0px" y="0px"
	 viewBox="0 0 512.001 512.001" style="enable-background:new 0 0 512.001 512.001;" xml:space="preserve">
<path style="fill:#FFC477;" d="M148.372,261.16l93.774,239.507c2.695,6.863,9.015,11.334,16.025,11.334s13.33-4.471,16.025-11.334
	L368.2,261.16L148.372,261.16L148.372,261.16z"/>
<g>
	<path style="fill:#FFA733;" d="M148.372,261.16l93.774,239.507c2.694,6.863,9.015,11.334,16.025,11.334s13.33-4.471,16.025-11.334
		l5.203-13.256L190.816,261.16L148.372,261.16L148.372,261.16z"/>
	
		<rect x="299.147" y="310.889" transform="matrix(-0.7072 -0.7071 0.7071 -0.7072 303.1701 771.9285)" style="fill:#FFA733;" width="24.588" height="24.586"/>
	
		<rect x="281.75" y="352.286" transform="matrix(-0.7072 -0.7071 0.7071 -0.7072 244.2013 830.2991)" style="fill:#FFA733;" width="24.588" height="24.586"/>
	
		<rect x="267.099" y="391.7" transform="matrix(-0.7072 -0.7071 0.7071 -0.7072 191.3212 887.2256)" style="fill:#FFA733;" width="24.588" height="24.586"/>
	
		<rect x="255.268" y="323.478" transform="matrix(-0.7072 -0.7071 0.7071 -0.7072 219.3614 762.3944)" style="fill:#FFA733;" width="24.588" height="24.586"/>
</g>
<path style="fill:#E4187A;" d="M326.403,3.512c-32.173,29.034-93.1,27.932-93.1,27.932c-31.646-0.011-57.546,25.871-57.558,57.516
	l0,0c-0.011,31.646,25.871,57.546,57.516,57.557l51.919,0.019c13.993,0.005,26.857-5.059,36.862-13.439
	c33.612-23.171,29.73-81.222,23.734-116.941C341.164-10.059,326.403,3.512,326.403,3.512z"/>
<path style="fill:#C61469;" d="M284.067,139.768c-25.781-0.009-47.732-17.203-54.979-40.686h39.623c4.326,0,7.831-3.506,7.831-7.831
	c0-4.325-3.505-7.831-7.831-7.831h-42.13c-0.008-0.404-0.03-0.804-0.03-1.21l0,0c0.008-23.617,14.44-44.018,34.916-52.849
	c-16.16,2.296-28.163,2.081-28.163,2.081c-31.646-0.011-57.546,25.871-57.558,57.517l0,0c-0.011,31.646,25.871,57.546,57.516,57.557
	l51.919,0.019c9.729,0.003,18.91-2.448,26.967-6.758L284.067,139.768z"/>
<path style="fill:#EA3486;" d="M303.692,214.188l-91.084-0.032c-30.863-0.01-56.106-25.272-56.095-56.135l0.001-2.843
	c0.01-30.863,25.272-56.106,56.135-56.095l91.084,0.032c30.863,0.01,56.106,25.272,56.095,56.135l-0.001,2.843
	C359.816,188.957,334.556,214.199,303.692,214.188z"/>
<g>
	<path style="fill:#E4187A;" d="M312.885,173.287h-12.158c-4.435,0-8.029-3.595-8.029-8.029s3.594-8.029,8.029-8.029h12.158
		c4.435,0,8.029,3.595,8.029,8.029S317.32,173.287,312.885,173.287z"/>
	<path style="fill:#E4187A;" d="M269.679,157.625h-62.36l0.001-2.448c0.01-30.626,24.889-55.704,55.429-56.077l-50.098-0.018
		c-30.863-0.01-56.124,25.231-56.135,56.095l-0.001,2.843c-0.01,30.863,25.231,56.124,56.095,56.135h50.805
		c-25.575-0.009-47.274-17.363-53.96-40.868h60.224c4.326,0,7.831-3.506,7.831-7.831S274.004,157.625,269.679,157.625z"/>
</g>
<path style="fill:#F072AE;" d="M322.092,288.377l-132.224-0.047c-30.863-0.01-56.106-25.272-56.095-56.135l0.001-2.843
	c0.01-30.863,25.272-56.106,56.135-56.095l132.224,0.047c30.863,0.01,56.106,25.272,56.095,56.135l-0.001,2.843
	C378.216,263.144,352.955,288.387,322.092,288.377z"/>
<g>
	<path style="fill:#EA3486;" d="M337.21,259.747c-2.348,0-4.669-1.05-6.212-3.055c-2.637-3.427-1.998-8.344,1.429-10.982
		c4.22-3.248,6.642-8.148,6.644-13.443c0.002-4.324,3.507-7.828,7.831-7.828c0.001,0,0.002,0,0.003,0
		c4.325,0.001,7.83,3.509,7.828,7.834c-0.004,10.192-4.653,19.613-12.754,25.848C340.557,259.217,338.877,259.747,337.21,259.747z"
		/>
	<path style="fill:#EA3486;" d="M306.806,264.877c-0.001,0-0.002,0-0.003,0l-76.796-0.027c-4.326-0.001-7.83-3.508-7.829-7.833
		c0.001-4.324,3.507-7.829,7.831-7.829c0.001,0,0.001,0,0.002,0l76.797,0.027c4.325,0.001,7.83,3.508,7.828,7.833
		C314.636,261.373,311.13,264.877,306.806,264.877z"/>
	<path style="fill:#EA3486;" d="M184.579,232.148l0.001-2.843c0.01-30.016,23.904-54.707,53.607-56.031l-48.276-0.017
		c-30.863-0.01-56.124,25.231-56.135,56.095l-0.001,2.843c-0.01,30.863,25.231,56.124,56.095,56.135l50.805-0.046
		C209.81,288.272,184.567,263.012,184.579,232.148z"/>
</g>
<circle style="fill:#FFEB99;" cx="227.444" cy="214.151" r="13.561"/>
<g>
	<circle style="fill:#9CDD05;" cx="262.015" cy="126.716" r="9.604"/>
	<circle style="fill:#9CDD05;" cx="270.577" cy="223.434" r="9.604"/>
	<circle style="fill:#9CDD05;" cx="320.695" cy="66.519" r="9.604"/>
</g>
<g>
	<circle style="fill:#FFEB99;" cx="299.322" cy="130.673" r="13.561"/>
	<circle style="fill:#FFEB99;" cx="280.183" cy="66.519" r="13.561"/>
</g>
<g>
</g>
<g>
</g>
<g>
</g>
<g>
</g>
<g>
</g>
<g>
</g>
<g>
</g>
<g>
</g>
<g>
</g>
<g>
</g>
<g>
</g>
<g>
</g>
<g>
</g>
<g>
</g>
<g>
</g>
</svg>
