<?xml version="1.0" ?><!DOCTYPE svg  PUBLIC '-//W3C//DTD SVG 1.1//EN'  'http://www.w3.org/Graphics/SVG/1.1/DTD/svg11.dtd'><svg width="64px" height="64px" viewBox="0 0 64 64" style="fill-rule:evenodd;clip-rule:evenodd;stroke-linecap:round;stroke-linejoin:round;stroke-miterlimit:1.5;" version="1.1" xml:space="preserve" xmlns="http://www.w3.org/2000/svg" xmlns:serif="http://www.serif.com/" xmlns:xlink="http://www.w3.org/1999/xlink"><g transform="matrix(1,0,0,1,-168,0)"><g id="Dango" transform="matrix(1,0,0,1,-188.333,0)"><rect height="64" style="fill:none;" width="64" x="356.333" y="0"/><g transform="matrix(1.16665,0,0,1.16665,160.669,-0.666502)"><circle cx="178" cy="10" r="6" style="fill:rgb(255,169,182);stroke:rgb(34,32,77);stroke-width:1.71px;"/></g><g transform="matrix(1,0,0,1,334.333,-27)"><path d="M37,38C37,38 37,40 36,41" style="fill:none;stroke:rgb(255,215,221);stroke-width:2px;"/></g><g transform="matrix(1.16667,0,0,1.16667,160.665,13.3332)"><circle cx="178" cy="10" r="6" style="fill:white;stroke:rgb(34,32,77);stroke-width:1.71px;"/></g><g transform="matrix(1.16667,0,0,1.16667,160.665,27.3333)"><circle cx="178" cy="10" r="6" style="fill:rgb(158,162,88);stroke:rgb(34,32,77);stroke-width:1.71px;"/></g><g transform="matrix(1,0,0,0.7,191.333,18.0001)"><path d="M177,40L177,60" style="fill:none;stroke:rgb(34,32,77);stroke-width:2.32px;"/></g><g transform="matrix(1.16665,0,0,1.16665,180.669,-0.666502)"><circle cx="178" cy="10" r="6" style="fill:rgb(255,169,182);stroke:rgb(34,32,77);stroke-width:1.71px;"/></g><g transform="matrix(1,0,0,1,354.333,-27)"><path d="M37,38C37,38 37,40 36,41" style="fill:none;stroke:rgb(255,215,221);stroke-width:2px;"/></g><g transform="matrix(1.16667,0,0,1.16667,180.665,13.3332)"><circle cx="178" cy="10" r="6" style="fill:white;stroke:rgb(34,32,77);stroke-width:1.71px;"/></g><g transform="matrix(1.16667,0,0,1.16667,180.665,27.3333)"><circle cx="178" cy="10" r="6" style="fill:rgb(158,162,88);stroke:rgb(34,32,77);stroke-width:1.71px;"/></g><g transform="matrix(1,0,0,0.7,211.333,18.0001)"><path d="M177,40L177,60" style="fill:none;stroke:rgb(34,32,77);stroke-width:2.32px;"/></g><g transform="matrix(1.16665,0,0,1.16665,200.669,-0.666502)"><circle cx="178" cy="10" r="6" style="fill:rgb(255,169,182);stroke:rgb(34,32,77);stroke-width:1.71px;"/></g><g transform="matrix(1,0,0,1,374.332,-27)"><path d="M37,38C37,38 37,40 36,41" style="fill:none;stroke:rgb(255,215,221);stroke-width:2px;"/></g><g transform="matrix(1.16667,0,0,1.16667,200.664,13.3332)"><circle cx="178" cy="10" r="6" style="fill:white;stroke:rgb(34,32,77);stroke-width:1.71px;"/></g><g transform="matrix(1.16667,0,0,1.16667,200.664,27.3333)"><circle cx="178" cy="10" r="6" style="fill:rgb(158,162,88);stroke:rgb(34,32,77);stroke-width:1.71px;"/></g><g transform="matrix(1,0,0,0.7,231.332,18.0001)"><path d="M177,40L177,60" style="fill:none;stroke:rgb(34,32,77);stroke-width:2.32px;"/></g><g transform="matrix(1,0,0,1,334.333,1)"><path d="M37,38C37,38 37,40 36,41" style="fill:none;stroke:rgb(223,225,182);stroke-width:2px;"/></g><g transform="matrix(1,0,0,1,354.333,1)"><path d="M37,38C37,38 37,40 36,41" style="fill:none;stroke:rgb(223,225,182);stroke-width:2px;"/></g><g transform="matrix(1,0,0,1,374.332,1)"><path d="M37,38C37,38 37,40 36,41" style="fill:none;stroke:rgb(223,225,182);stroke-width:2px;"/></g><g transform="matrix(1,0,0,1,334.333,-13)"><path d="M37,38C37,38 37,40 36,41" style="fill:none;stroke:rgb(229,229,229);stroke-width:2px;"/></g><g transform="matrix(1,0,0,1,354.333,-13)"><path d="M37,38C37,38 37,40 36,41" style="fill:none;stroke:rgb(229,229,229);stroke-width:2px;"/></g><g transform="matrix(1,0,0,1,374.332,-13)"><path d="M37,38C37,38 37,40 36,41" style="fill:none;stroke:rgb(229,229,229);stroke-width:2px;"/></g></g></g></svg>