<?xml version="1.0" ?><!DOCTYPE svg  PUBLIC '-//W3C//DTD SVG 1.1//EN'  'http://www.w3.org/Graphics/SVG/1.1/DTD/svg11.dtd'><svg width="64px" height="64px" viewBox="0 0 64 64" style="fill-rule:evenodd;clip-rule:evenodd;stroke-linecap:round;stroke-linejoin:round;stroke-miterlimit:1.5;" version="1.1" xml:space="preserve" xmlns="http://www.w3.org/2000/svg" xmlns:serif="http://www.serif.com/" xmlns:xlink="http://www.w3.org/1999/xlink"><rect height="64" id="Egg" style="fill:none;" width="64" x="0" y="0"/><g id="Egg1"><g transform="matrix(2.35292,0,0,2.43478,-38.5873,-44.6957)"><path d="M34.027,41.8C31.495,43.039 28.505,43.039 25.973,41.8C23.776,40.719 21.5,38.697 21.5,34.963C21.5,29.867 24.965,25.179 27.47,22.455C28.115,21.761 29.035,21.364 30,21.364C30.965,21.364 31.885,21.761 32.53,22.455C35.035,25.179 38.5,29.867 38.5,34.963C38.5,38.697 36.224,40.719 34.027,41.8Z" style="fill:white;stroke:rgb(34,32,77);stroke-width:0.84px;"/></g><g transform="matrix(1,0,0,1,-2,-0.266543)"><circle cx="34" cy="42" r="8" style="fill:rgb(235,147,20);stroke:rgb(34,32,77);stroke-width:2px;"/></g><g transform="matrix(1,0,0,1,-1,2.73346)"><path d="M37,38C37,38 37,41 35,43" style="fill:none;stroke:rgb(255,235,152);stroke-width:2px;"/></g></g></svg>