<?xml version="1.0" ?><!DOCTYPE svg  PUBLIC '-//W3C//DTD SVG 1.1//EN'  'http://www.w3.org/Graphics/SVG/1.1/DTD/svg11.dtd'><svg width="64px" height="64px" viewBox="0 0 64 64" style="fill-rule:evenodd;clip-rule:evenodd;stroke-linecap:round;stroke-linejoin:round;stroke-miterlimit:1.5;" version="1.1" xml:space="preserve" xmlns="http://www.w3.org/2000/svg" xmlns:serif="http://www.serif.com/" xmlns:xlink="http://www.w3.org/1999/xlink"><g transform="matrix(1,0,0,1,-252,0)"><g id="Onigiri" transform="matrix(1,0,0,1,-104.333,0)"><rect height="64" style="fill:none;" width="64" x="356.333" y="0"/><g transform="matrix(0.983965,0,0,0.878727,108.887,0.48509)"><path d="M290.074,11.565C288.54,9.573 286.312,8.421 283.963,8.406C281.614,8.392 279.374,9.515 277.821,11.488C269.451,22.136 255.544,41.84 255.544,55.21C255.544,62.038 255.544,67.729 284,67.729C312.456,67.729 312.456,63.176 312.456,55.21C312.456,42.574 298.432,22.441 290.074,11.565Z" style="fill:white;stroke:rgb(38,34,97);stroke-width:2.14px;"/></g><g transform="matrix(1.03704,0,0,1.60204,96.4074,-36.1022)"><path d="M269.929,59.643L269.929,52.497C269.929,51.835 270.335,51.2 271.058,50.731C271.782,50.263 272.763,50 273.786,50C278.066,50 284.934,50 289.214,50C290.237,50 291.218,50.263 291.942,50.731C292.665,51.2 293.071,51.835 293.071,52.497C293.071,55.354 293.071,59.643 293.071,59.643" style="fill:rgb(111,169,8);stroke:rgb(34,32,77);stroke-width:1.48px;"/></g><g transform="matrix(1.03704,0,0,1.4,96.4074,-24)"><path d="M293.071,59.643L281.5,60L269.929,59.643" style="fill:rgb(113,133,42);stroke:rgb(34,32,77);stroke-width:1.62px;"/></g><g transform="matrix(1.03704,0,0,1.65926,96.4074,-38.963)"><path d="M269.929,59.31L269.929,52.411C269.929,51.771 270.335,51.158 271.058,50.706C271.782,50.254 272.763,50 273.786,50C278.066,50 284.934,50 289.214,50C290.237,50 291.218,50.254 291.942,50.706C292.665,51.158 293.071,51.771 293.071,52.411C293.071,55.169 293.071,59.31 293.071,59.31" style="fill:none;stroke:rgb(34,32,77);stroke-width:1.45px;"/></g><g transform="matrix(1,0,0,1,103.333,0)"><path d="M276,24L277,23" style="fill:none;stroke:rgb(34,32,77);stroke-width:2px;"/></g><g transform="matrix(1,0,0,1,116.333,0)"><path d="M276,24L277,23" style="fill:none;stroke:rgb(34,32,77);stroke-width:2px;"/></g><g transform="matrix(1,0,0,1,104.333,0)"><path d="M282,21L283,20" style="fill:none;stroke:rgb(34,32,77);stroke-width:2px;"/></g><g transform="matrix(1,0,0,1,105.333,0)"><path d="M284,29L285,28" style="fill:none;stroke:rgb(34,32,77);stroke-width:2px;"/></g><g transform="matrix(1,0,0,1,104.333,0)"><path d="M277,29L278,28" style="fill:none;stroke:rgb(34,32,77);stroke-width:2px;"/></g><g transform="matrix(1,0,0,1,104.333,-2)"><path d="M292,30L293,29" style="fill:none;stroke:rgb(34,32,77);stroke-width:2px;"/></g><g transform="matrix(0.983965,0,0,0.878727,108.887,0.48509)"><path d="M290.074,11.565C288.54,9.573 286.312,8.421 283.963,8.406C281.614,8.392 279.374,9.515 277.821,11.488C269.451,22.136 255.544,41.84 255.544,55.21C255.544,62.038 255.544,67.729 284,67.729C312.456,67.729 312.456,63.176 312.456,55.21C312.456,42.574 298.432,22.441 290.074,11.565Z" style="fill:none;stroke:rgb(34,32,77);stroke-width:2.14px;"/></g></g></g></svg>