<?xml version="1.0" ?><!DOCTYPE svg  PUBLIC '-//W3C//DTD SVG 1.1//EN'  'http://www.w3.org/Graphics/SVG/1.1/DTD/svg11.dtd'><svg width="64px" height="64px" viewBox="0 0 64 64" style="fill-rule:evenodd;clip-rule:evenodd;stroke-linecap:round;stroke-linejoin:round;stroke-miterlimit:1.5;" version="1.1" xml:space="preserve" xmlns="http://www.w3.org/2000/svg" xmlns:serif="http://www.serif.com/" xmlns:xlink="http://www.w3.org/1999/xlink"><g transform="matrix(1,0,0,1,0,-84)"><g id="Sushi" transform="matrix(1,0,0,1,-356.333,84)"><rect height="64" style="fill:none;" width="64" x="356.333" y="0"/><g transform="matrix(1.47437,0,0,1,345.563,-92.7087)"><path d="M45.287,123.209L12.731,123.209C10.018,123.209 10.018,121.615 10.018,120.209C10.018,118.193 10.679,116.421 11.469,115.024C12.621,112.945 14.346,111.739 16.167,111.739C21.637,111.709 36.379,111.709 41.85,111.709C43.678,111.709 45.41,112.919 46.567,115.007C47.339,116.423 48,118.194 48,120.209C48,121.615 48,123.209 45.287,123.209Z" style="fill:rgb(205,90,70);stroke:rgb(34,32,77);stroke-width:1.59px;"/></g><g transform="matrix(1,0,0,1,356.333,-91.5)"><path d="M8,122C8,122 7.793,123 7.488,124.474C6.879,127.419 7.627,130.482 9.526,132.814C11.425,135.146 14.273,136.5 17.281,136.5C26.09,136.5 37.91,136.5 46.719,136.5C49.727,136.5 52.575,135.146 54.474,132.814C56.373,130.482 57.121,127.419 56.512,124.474C56.207,123 56,122 56,122L8,122Z" style="fill:rgb(236,239,241);stroke:rgb(34,32,77);stroke-width:2px;"/></g><g transform="matrix(1,0,0,1,100.293,8)"><path d="M277,29L278,28" style="fill:none;stroke:rgb(34,32,77);stroke-width:2px;"/></g><g transform="matrix(1,0,0,1,110.293,10)"><path d="M277,29L278,28" style="fill:none;stroke:rgb(34,32,77);stroke-width:2px;"/></g><g transform="matrix(1,0,0,1,120.293,8)"><path d="M277,29L278,28" style="fill:none;stroke:rgb(34,32,77);stroke-width:2px;"/></g><g transform="matrix(1,0,0,1,360.333,-84)"><path d="M20,103C16.802,106.953 15.729,110.769 16,114.5" style="fill:none;stroke:rgb(248,179,167);stroke-width:2px;"/></g><g transform="matrix(1,0,0,1,370.333,-84)"><path d="M20,103C16.852,106.889 15.813,110.713 16,114.5" style="fill:none;stroke:rgb(248,179,167);stroke-width:2px;"/></g><g transform="matrix(1,0,0,1,380.333,-84)"><path d="M20,103C16.921,106.655 15.823,110.513 16,114.5" style="fill:none;stroke:rgb(248,179,167);stroke-width:2px;"/></g><g transform="matrix(1,0,0,1,390.333,-84)"><path d="M20,104C16.921,107.655 15.823,110.513 16,114.5" style="fill:none;stroke:rgb(248,179,167);stroke-width:2px;"/></g><g transform="matrix(1,0,0,1,350.333,-84)"><path d="M20,103.5C16.921,107.155 15.823,110.513 16,114.5" style="fill:none;stroke:rgb(248,179,167);stroke-width:2px;"/></g><g transform="matrix(1.47437,0,0,1,345.563,-92.7087)"><path d="M45.287,123.209L12.731,123.209C10.018,123.209 10.018,121.615 10.018,120.209C10.018,118.193 10.679,116.421 11.469,115.024C12.621,112.945 14.346,111.739 16.167,111.739C21.637,111.709 36.379,111.709 41.85,111.709C43.678,111.709 45.41,112.919 46.567,115.007C47.339,116.423 48,118.194 48,120.209C48,121.615 48,123.209 45.287,123.209Z" style="fill:none;stroke:rgb(34,32,77);stroke-width:1.59px;"/></g></g></g></svg>