<?xml version="1.0" encoding="iso-8859-1"?>
<!-- Generator: Adobe Illustrator 19.0.0, SVG Export Plug-In . SVG Version: 6.00 Build 0)  -->
<svg version="1.1" id="Layer_1" xmlns="http://www.w3.org/2000/svg" xmlns:xlink="http://www.w3.org/1999/xlink" x="0px" y="0px"
	 viewBox="0 0 511.999 511.999" style="enable-background:new 0 0 511.999 511.999;" xml:space="preserve">
<g>
	<path style="fill:#57565C;" d="M214.476,80.314c-2.642,0-5.223-1.328-6.715-3.74l-39.897-64.54
		c-2.29-3.704-1.143-8.564,2.562-10.854c3.704-2.289,8.563-1.144,10.854,2.561l39.897,64.54c2.29,3.704,1.143,8.564-2.562,10.854
		C217.324,79.933,215.892,80.314,214.476,80.314z"/>
	<path style="fill:#57565C;" d="M297.526,80.314c-1.415,0-2.847-0.381-4.139-1.18c-3.704-2.29-4.851-7.15-2.562-10.854l39.897-64.54
		c2.291-3.704,7.151-4.851,10.854-2.561c3.704,2.29,4.851,7.15,2.562,10.854L304.24,76.574
		C302.749,78.986,300.167,80.314,297.526,80.314z"/>
</g>
<g>
	<circle style="fill:#787680;" cx="256.005" cy="143.989" r="88.012"/>
	<circle style="fill:#787680;" cx="256.005" cy="304.548" r="207.451"/>
</g>
<g>
	<path style="fill:#57565C;" d="M213.422,143.986c0-40.749,27.7-75.016,65.294-85.034c-7.248-1.931-14.858-2.975-22.715-2.975
		c-48.606,0-88.009,39.403-88.009,88.009s39.403,88.009,88.009,88.009c7.857,0,15.467-1.044,22.715-2.975
		C241.122,219.002,213.422,184.735,213.422,143.986z"/>
	<path style="fill:#57565C;" d="M463.451,304.549c0-114.572-92.879-207.451-207.451-207.451S48.549,189.977,48.549,304.549
		c0,101.569,72.997,186.077,169.389,203.954c10.145-9.01,23.396-21.935,36.707-38.241c11.285,14.6,23.848,27.543,37.45,38.602
		C389.46,491.781,463.451,406.809,463.451,304.549z"/>
</g>
<path style="fill:#FF728B;" d="M256,86.585c-119.642,0-216.978,97.336-216.978,216.978c0,41.607,11.865,82.064,34.31,116.996
	c21.833,33.98,52.568,61.176,88.88,78.648c2.63,1.265,5.459,1.887,8.276,1.887c3.967,0,7.91-1.235,11.232-3.653
	c2.336-1.699,45.833-33.779,73.978-84.414c14.224,27.93,38.069,62.274,75.955,85.27c5.521,3.352,12.365,3.683,18.188,0.881
	c36.298-17.477,67.019-44.672,88.842-78.647c22.436-34.927,34.293-75.375,34.293-116.971C472.979,183.921,375.643,86.585,256,86.585
	z"/>
<g>
	<path style="fill:#FF3F62;" d="M130.109,420.559c-22.446-34.933-34.31-75.389-34.31-116.996
		c0-110.021,82.314-201.171,188.59-215.121c-9.293-1.22-18.767-1.858-28.388-1.858c-119.642,0-216.978,97.336-216.978,216.978
		c0,41.607,11.865,82.064,34.31,116.996c21.833,33.98,52.568,61.176,88.88,78.648c2.63,1.265,5.459,1.887,8.276,1.887
		c3.967,0,7.91-1.235,11.232-3.653c0.777-0.565,6.107-4.493,13.907-11.339C169.456,469.267,147.083,446.977,130.109,420.559z"/>
	<path style="fill:#FF3F62;" d="M226.968,138.917c-3.787,0-7.128-2.736-7.77-6.594c-0.714-4.296,2.19-8.358,6.486-9.07
		c9.956-1.654,20.142-2.494,30.274-2.496h0.386c4.356,0,7.885,3.531,7.885,7.885c0,4.355-3.53,7.885-7.885,7.885h-0.384
		c-9.268,0.002-18.587,0.77-27.691,2.283C227.832,138.883,227.397,138.917,226.968,138.917z"/>
	<path style="fill:#FF3F62;" d="M403.505,216.625c-2.549,0-5.049-1.233-6.568-3.513l-0.277-0.414
		c-21.987-33.568-55.109-58.191-93.3-69.385c-4.18-1.225-6.574-5.606-5.35-9.785c1.226-4.179,5.607-6.573,9.785-5.35
		c41.786,12.248,78.018,39.176,102.022,75.825l0.241,0.361c2.416,3.623,1.436,8.519-2.187,10.935
		C406.528,216.195,405.008,216.625,403.505,216.625z"/>
</g>
<g>
	<circle style="fill:#57565C;" cx="166.794" cy="234.893" r="25.619"/>
	<circle style="fill:#57565C;" cx="192.417" cy="330.791" r="25.619"/>
	<circle style="fill:#57565C;" cx="100.977" cy="301.1" r="25.619"/>
	<circle style="fill:#57565C;" cx="133.665" cy="394.138" r="25.619"/>
	<circle style="fill:#57565C;" cx="346.089" cy="234.893" r="25.619"/>
	<circle style="fill:#57565C;" cx="320.467" cy="330.791" r="25.619"/>
	<circle style="fill:#57565C;" cx="411.896" cy="301.1" r="25.619"/>
	<circle style="fill:#57565C;" cx="379.219" cy="394.138" r="25.619"/>
</g>
<g>
</g>
<g>
</g>
<g>
</g>
<g>
</g>
<g>
</g>
<g>
</g>
<g>
</g>
<g>
</g>
<g>
</g>
<g>
</g>
<g>
</g>
<g>
</g>
<g>
</g>
<g>
</g>
<g>
</g>
</svg>
