<?xml version="1.0" encoding="iso-8859-1"?>
<!-- Generator: Adobe Illustrator 19.0.0, SVG Export Plug-In . SVG Version: 6.00 Build 0)  -->
<svg version="1.1" id="Layer_1" xmlns="http://www.w3.org/2000/svg" xmlns:xlink="http://www.w3.org/1999/xlink" x="0px" y="0px"
	 viewBox="0 0 512 512" style="enable-background:new 0 0 512 512;" xml:space="preserve">
<path style="fill:#91DC5A;" d="M339.801,134.544C309.498,66.277,273.333,10.865,271.809,8.539C268.315,3.211,262.372,0,256,0
	s-12.316,3.211-15.809,8.539c-1.524,2.325-37.689,57.74-67.992,126.007c-42.348,95.402-51.453,166.672-27.061,211.83
	c18.926,35.038,56.095,52.841,110.488,52.922c0.124,0.002,0.243,0,0.375,0.004c0.202,0,0.402-0.003,0.602-0.009
	c54.266-0.13,91.362-17.935,110.261-52.923C391.254,301.212,382.148,229.943,339.801,134.544z"/>
<g>
	<path style="fill:#6DC82A;" d="M255.981,0c-6.365,0.006-12.3,3.215-15.79,8.538c-1.524,2.326-37.689,57.74-67.992,126.007
		c-42.348,95.402-51.453,166.672-27.061,211.83c16.317,30.208,46.206,47.594,88.992,51.867c0.435-0.009,0.726-0.031,0.807-0.072
		C72.244,326.216,256,0.003,256,0.003S255.988,0.001,255.981,0z"/>
	<path style="fill:#6DC82A;" d="M278.22,109.574c-2.842,0-5.584-1.551-6.971-4.252c-6.92-13.466-14.342-27.175-22.06-40.744
		c-2.138-3.76-0.825-8.539,2.935-10.678c3.759-2.139,8.539-0.825,10.678,2.935c7.827,13.761,15.356,27.666,22.378,41.328
		c1.976,3.846,0.46,8.568-3.386,10.544C280.647,109.295,279.425,109.574,278.22,109.574z"/>
	<path style="fill:#6DC82A;" d="M301.171,157.457c-3.004,0-5.87-1.738-7.164-4.663c-1.486-3.356-3.033-6.786-4.599-10.198
		c-1.805-3.93-0.082-8.579,3.848-10.383c3.931-1.805,8.58-0.081,10.383,3.848c1.596,3.476,3.174,6.973,4.688,10.394
		c1.751,3.955-0.035,8.579-3.99,10.33C303.307,157.241,302.23,157.457,301.171,157.457z"/>
</g>
<path style="fill:#5EAC24;" d="M301.618,274.741l-37.788,37.788v-49.897l48.862-48.862c3.058-3.058,3.058-8.016,0-11.073
	c-3.058-3.058-8.016-3.058-11.073,0l-37.788,37.788v-83.407c0-4.325-3.506-7.831-7.831-7.831s-7.83,3.506-7.83,7.831v84.455
	l-38.836-38.836c-3.058-3.058-8.016-3.058-11.073,0c-3.058,3.058-3.058,8.016,0,11.073l49.91,49.91v49.897l-38.836-38.836
	c-3.058-3.058-8.016-3.058-11.073,0c-3.058,3.058-3.058,8.016,0,11.073l49.91,49.91v168.448c0,4.325,3.506,7.831,7.83,7.831
	s7.831-3.506,7.831-7.831V334.677l48.862-48.862c3.058-3.058,3.058-8.016,0-11.073C309.635,271.683,304.676,271.683,301.618,274.741
	z"/>
<g>
</g>
<g>
</g>
<g>
</g>
<g>
</g>
<g>
</g>
<g>
</g>
<g>
</g>
<g>
</g>
<g>
</g>
<g>
</g>
<g>
</g>
<g>
</g>
<g>
</g>
<g>
</g>
<g>
</g>
</svg>
