<?xml version="1.0" encoding="iso-8859-1"?>
<!-- Generator: Adobe Illustrator 19.0.0, SVG Export Plug-In . SVG Version: 6.00 Build 0)  -->
<svg version="1.1" id="Layer_1" xmlns="http://www.w3.org/2000/svg" xmlns:xlink="http://www.w3.org/1999/xlink" x="0px" y="0px"
	 viewBox="0 0 512.001 512.001" style="enable-background:new 0 0 512.001 512.001;" xml:space="preserve">
<circle style="fill:#FFFFFF;" cx="312.227" cy="125.992" r="63.722"/>
<path style="fill:#FFDA44;" d="M312.227,62.27c35.192,0,63.722,28.53,63.722,63.722s-28.53,63.722-63.722,63.722
	s-63.722-28.53-63.722-63.722C248.505,90.798,277.035,62.27,312.227,62.27 M312.227,46.601c-43.776,0-79.391,35.615-79.391,79.391
	s35.614,79.391,79.391,79.391s79.391-35.615,79.391-79.391S356.004,46.601,312.227,46.601L312.227,46.601z"/>
<path style="fill:#FFEB99;" d="M293.48,158.463c-16.069,27.833-50.885-32.471-18.748-32.471c-32.139,0,2.678-60.304,18.748-32.471
	c-16.069-27.833,53.564-27.833,37.495,0c16.069-27.833,50.885,32.471,18.748,32.471c32.139,0-2.678,60.304-18.748,32.471
	C347.044,186.295,277.411,186.295,293.48,158.463z"/>
<g>
	
		<rect x="257.47" y="118.169" transform="matrix(-0.5015 -0.8652 0.8652 -0.5015 359.788 459.3195)" style="fill:#FFFFFF;" width="109.511" height="15.669"/>
	
		<rect x="306.378" y="64.664" transform="matrix(-0.8632 -0.5048 0.5048 -0.8632 523.3573 387.7936)" style="fill:#FFFFFF;" width="15.669" height="116.67"/>
	<rect x="258.147" y="118.157" style="fill:#FFFFFF;" width="115.284" height="15.669"/>
</g>
<path style="fill:#FF3F62;" d="M220.93,280.484c-6.546,0-12.191-4.91-12.955-11.568L186.128,78.779L128.92,22.355
	c-5.134-5.064-5.192-13.331-0.127-18.466c5.063-5.135,13.332-5.193,18.466-0.127l60.484,59.656c2.122,2.092,3.463,4.847,3.803,7.806
	l22.372,194.712c0.823,7.164-4.317,13.64-11.481,14.463C221.931,280.456,221.426,280.484,220.93,280.484z"/>
<g>
	<path style="opacity:0.5;fill:#B3D8F4;enable-background:new    ;" d="M309.628,512H128.74c-4.596,0-8.357-3.761-8.357-8.357
		V134.349c0-4.596,3.761-8.357,8.357-8.357h180.887c4.596,0,8.357,3.761,8.357,8.357v369.296
		C317.985,508.24,314.224,512,309.628,512z"/>
	<path style="fill:#B3D8F4;" d="M176.793,503.643V134.349c0-4.596,3.761-8.357,8.357-8.357H128.74c-4.596,0-8.357,3.761-8.357,8.357
		v369.296c0,4.596,3.761,8.357,8.357,8.357h56.409C180.554,512,176.793,508.24,176.793,503.643z"/>
</g>
<path style="fill:#FFEB99;" d="M157.668,239.081v225.693c0,5.469,4.474,9.943,9.943,9.943h103.147c5.469,0,9.943-4.474,9.943-9.943
	V239.081H157.668z"/>
<g>
	<path style="fill:#FFDA44;" d="M194.954,464.773V239.081h-37.285v225.693c0,5.469,4.474,9.943,9.943,9.943h37.285
		C199.428,474.716,194.954,470.242,194.954,464.773z"/>
	<circle style="fill:#FFDA44;" cx="220.426" cy="364.551" r="13.58"/>
	<circle style="fill:#FFDA44;" cx="247.241" cy="433.527" r="13.58"/>
	<circle style="fill:#FFDA44;" cx="254.898" cy="315.862" r="13.58"/>
	<circle style="fill:#FFDA44;" cx="254.898" cy="356.894" r="7.648"/>
	<circle style="fill:#FFDA44;" cx="219.182" cy="404.654" r="7.648"/>
	<circle style="fill:#FFDA44;" cx="219.182" cy="282.214" r="7.648"/>
</g>
<g>
	<circle style="fill:#FFFFFF;" cx="254.898" cy="397.007" r="7.648"/>
	<circle style="fill:#FFFFFF;" cx="219.182" cy="324.406" r="7.648"/>
	<circle style="fill:#FFFFFF;" cx="254.898" cy="268.969" r="7.648"/>
</g>
<g>
</g>
<g>
</g>
<g>
</g>
<g>
</g>
<g>
</g>
<g>
</g>
<g>
</g>
<g>
</g>
<g>
</g>
<g>
</g>
<g>
</g>
<g>
</g>
<g>
</g>
<g>
</g>
<g>
</g>
</svg>
