<?xml version="1.0" encoding="iso-8859-1"?>
<!-- Generator: Adobe Illustrator 19.0.0, SVG Export Plug-In . SVG Version: 6.00 Build 0)  -->
<svg version="1.1" id="Layer_1" xmlns="http://www.w3.org/2000/svg" xmlns:xlink="http://www.w3.org/1999/xlink" x="0px" y="0px"
	 viewBox="0 0 511.673 511.673" style="enable-background:new 0 0 511.673 511.673;" xml:space="preserve">
<g>
	<path style="fill:#FFCE54;" d="M69.979,157.618l-5.426-9.182l-5.379-9.213c-0.625,0.375-15.436,9.15-30.004,28.045
		c-13.304,17.255-29.169,46.751-29.169,89.365c0,42.629,15.646,71.703,28.763,88.599c14.413,18.535,29.083,26.937,29.708,27.279
		l10.517-18.534c-0.125-0.078-12.172-7.121-23.984-22.611c-15.717-20.611-23.68-45.752-23.68-74.732
		c0-29.013,8.127-54.45,24.148-75.593C57.541,165.129,69.854,157.681,69.979,157.618z"/>
	<path style="fill:#FFCE54;" d="M482.91,166.441c-14.414-18.55-29.076-26.952-29.701-27.295l-10.523,18.55
		c0.125,0.062,12.18,7.105,23.984,22.611c15.709,20.596,23.672,45.736,23.672,74.718c0,29.029-8.119,54.465-24.141,75.592
		c-12.07,15.927-24.391,23.36-24.516,23.438l5.434,9.181l5.372,9.197c0.625-0.358,15.428-9.15,30.013-28.044
		c13.304-17.239,29.168-46.752,29.168-89.365C511.672,212.411,496.025,183.321,482.91,166.441z"/>
	<path style="fill:#FFCE54;" d="M180.306,45.003c20.604-15.724,45.744-23.688,74.726-23.688c29.021,0,54.458,8.135,75.6,24.156
		c15.911,12.07,23.36,24.375,23.423,24.5l9.182-5.419l9.213-5.387c-0.375-0.625-9.15-15.428-28.045-29.997
		C327.151,15.864,297.653,0,255.032,0s-71.704,15.646-88.591,28.763c-18.543,14.412-26.944,29.075-27.288,29.699l18.543,10.525
		C157.766,68.863,164.809,56.808,180.306,45.003z"/>
	<path style="fill:#FFCE54;" d="M331.365,466.671c-20.596,15.708-45.736,23.672-74.725,23.672c-29.021,0-54.457-8.12-75.592-24.141
		c-15.919-12.086-23.36-24.391-23.43-24.516l-9.182,5.418l-9.205,5.388c0.367,0.625,9.15,15.443,28.044,30.012
		c17.247,13.305,46.751,29.169,89.365,29.169c42.622,0,71.711-15.646,88.592-28.763c18.535-14.413,26.936-29.091,27.279-29.715
		l-18.535-10.51C353.898,442.811,346.871,454.85,331.365,466.671z"/>
</g>
<path style="fill:#E6E9ED;" d="M406.6,105.901c-83.26-83.259-218.251-83.259-301.511,0c-83.259,83.259-83.259,218.251,0,301.511
	c83.259,83.259,218.251,83.259,301.511,0C489.857,324.152,489.857,189.161,406.6,105.901z M331.225,332.038
	c-41.629,41.63-109.125,41.63-150.754,0s-41.629-109.133,0-150.763c41.63-41.63,109.125-41.63,150.754,0
	C372.856,222.905,372.856,290.408,331.225,332.038z"/>
<path style="opacity:0.2;fill:#FFFFFF;enable-background:new    ;" d="M406.6,105.901c-83.26-83.259-218.251-83.259-301.511,0
	c-83.259,83.259-83.259,218.251,0,301.511c83.259,83.259,218.251,83.259,301.511,0C489.857,324.152,489.857,189.161,406.6,105.901z
	 M255.844,448.526c-24.929,0-49.226-4.716-72.211-14.038c-23.79-9.65-45.143-23.829-63.467-42.161
	c-18.324-18.316-32.502-39.678-42.153-63.459c-9.322-22.985-14.045-47.282-14.045-72.22c0-24.921,4.724-49.218,14.045-72.203
	c9.65-23.798,23.829-45.144,42.153-63.46c18.324-18.332,39.678-32.51,63.467-42.16c22.985-9.322,47.282-14.054,72.211-14.054
	c24.93,0,49.227,4.731,72.212,14.054c23.781,9.65,45.143,23.828,63.475,42.145c18.316,18.332,32.495,39.678,42.146,63.476
	c9.322,22.985,14.037,47.282,14.037,72.203c0,24.938-4.715,49.234-14.037,72.22c-9.65,23.797-23.829,45.143-42.146,63.459
	c-18.332,18.332-39.693,32.511-63.475,42.161C305.07,443.811,280.774,448.526,255.844,448.526z"/>
<g style="opacity:0.1;">
	<path d="M165.394,347.107L165.394,347.107L165.394,347.107z"/>
	<path d="M374.385,304.775c6.215-15.318,9.369-31.512,9.369-48.126c0-16.599-3.154-32.791-9.369-48.125
		c-6.434-15.881-15.88-30.121-28.091-42.316c-12.195-12.211-26.437-21.658-42.333-28.107c-15.318-6.215-31.511-9.369-48.117-9.369
		s-32.792,3.154-48.125,9.369c-15.88,6.449-30.121,15.896-42.324,28.107c-12.203,12.195-21.658,26.436-28.099,42.316
		c-6.215,15.334-9.369,31.526-9.369,48.125c0,16.614,3.154,32.808,9.369,48.126c6.441,15.896,15.896,30.121,28.099,42.332
		s26.444,21.658,42.324,28.092c15.334,6.23,31.519,9.369,48.125,9.369s32.799-3.139,48.117-9.369
		c15.896-6.434,30.138-15.881,42.333-28.092S367.951,320.655,374.385,304.775z M180.47,332.038
		c-41.629-41.63-41.629-109.133,0-150.763c41.63-41.63,109.125-41.63,150.754,0c41.631,41.629,41.631,109.133,0,150.763
		C289.596,373.668,222.1,373.668,180.47,332.038z"/>
</g>
<path style="fill:#ED5564;" d="M169.001,279.368l64.014,64.115l-79.777,112.101c0,0-17.731,9.666-61.757-34.354
	c-44.019-44.019-34.337-61.741-34.337-61.741L169.001,279.368z"/>
<g style="opacity:0.2;">
	<path style="fill:#FFFFFF;" d="M106.557,406.162c-30.933-30.933-35.353-48.891-35.243-56.839l-14.17,10.166
		c0,0-9.681,17.723,34.337,61.741c44.026,44.02,61.757,34.354,61.757,34.354l10.087-14.179
		C155.354,441.483,137.412,437.018,106.557,406.162z"/>
</g>
<polygon style="fill:#DA4453;" points="219.664,362.237 233.015,343.483 169.001,279.368 150.24,292.814 "/>
<path style="fill:#ED5564;" d="M342.78,234.038l-64.006-64.115l79.777-112.1c0,0,17.738-9.666,61.741,34.353
	c44.035,44.019,34.354,61.742,34.354,61.742L342.78,234.038z"/>
<g style="opacity:0.2;">
	<path style="fill:#FFFFFF;" d="M405.225,107.244c30.934,30.934,35.353,48.891,35.243,56.839l14.179-10.165
		c0,0,9.682-17.724-34.354-61.742c-44.003-44.019-61.741-34.353-61.741-34.353l-10.087,14.178
		C356.428,71.923,374.369,76.389,405.225,107.244z"/>
</g>
<polygon style="fill:#DA4453;" points="292.125,151.17 278.774,169.923 342.78,234.038 361.55,220.594 "/>
<path style="fill:#ED5564;" d="M233.163,169.751l-64.115,64.006L56.956,153.981c0,0-9.673-17.724,34.345-61.742
	c44.019-44.034,61.75-34.353,61.75-34.353L233.163,169.751z"/>
<g style="opacity:0.2;">
	<path style="fill:#FFFFFF;" d="M106.377,107.307c30.934-30.933,48.891-35.352,56.831-35.243L153.05,57.886
		c0,0-17.731-9.682-61.75,34.353c-44.018,44.018-34.344,61.742-34.344,61.742l14.17,10.087
		C71.048,156.104,75.514,138.162,106.377,107.307z"/>
</g>
<polygon style="fill:#DA4453;" points="150.294,220.422 169.048,233.757 233.163,169.751 219.727,150.983 "/>
<path style="fill:#ED5564;" d="M278.494,343.53l64.13-64.006l112.085,79.777c0,0,9.682,17.723-34.354,61.742
	c-44.003,44.034-61.741,34.353-61.741,34.353L278.494,343.53z"/>
<g style="opacity:0.2;">
	<path style="fill:#FFFFFF;" d="M405.287,405.975c-30.934,30.934-48.891,35.353-56.822,35.243l10.149,14.179
		c0,0,17.738,9.682,61.741-34.353c44.035-44.02,34.354-61.742,34.354-61.742l-14.179-10.087
		C440.624,357.178,436.143,375.12,405.287,405.975z"/>
</g>
<polygon style="fill:#DA4453;" points="361.362,292.876 342.624,279.525 278.494,343.53 291.938,362.3 "/>
<g>
</g>
<g>
</g>
<g>
</g>
<g>
</g>
<g>
</g>
<g>
</g>
<g>
</g>
<g>
</g>
<g>
</g>
<g>
</g>
<g>
</g>
<g>
</g>
<g>
</g>
<g>
</g>
<g>
</g>
</svg>
