<?xml version="1.0" encoding="iso-8859-1"?>
<!-- Generator: Adobe Illustrator 19.0.0, SVG Export Plug-In . SVG Version: 6.00 Build 0)  -->
<svg version="1.1" id="Layer_1" xmlns="http://www.w3.org/2000/svg" xmlns:xlink="http://www.w3.org/1999/xlink" x="0px" y="0px"
	 viewBox="0 0 512 512" style="enable-background:new 0 0 512 512;" xml:space="preserve">
<path style="fill:#B39A7C;" d="M253.013,53.421c-26.622,24.025-77.039,23.112-77.039,23.112
	c-26.186-0.009-47.619,21.408-47.628,47.594l0,0c-0.009,26.186,21.408,47.619,47.594,47.628l42.962,0.016
	c11.579,0.004,22.224-4.187,30.503-11.121c27.813-19.174,24.6-67.21,19.64-96.766C265.227,42.191,253.013,53.421,253.013,53.421z"/>
<path style="fill:#5EAC24;" d="M244.745,225.839c6.015,2.609,13.161,0.346,16.518-5.468l95.859-166.035l75.064-29.054
	c6.737-2.608,10.084-10.183,7.477-16.92c-2.607-6.738-10.183-10.085-16.92-7.477l-79.364,30.719
	c-2.784,1.077-5.115,3.073-6.606,5.658l-98.166,170.029c-3.612,6.257-1.468,14.255,4.787,17.868
	C243.836,225.414,244.287,225.641,244.745,225.839z"/>
<path style="fill:#4E901E;" d="M303.746,116.657c0.045-6.13-0.239-12.992-1.068-20.342l-64.072,110.977
	c-3.612,6.257-1.468,14.255,4.787,17.868c0.442,0.255,0.894,0.482,1.35,0.68c6.015,2.609,13.16,0.346,16.517-5.468l53.736-93.074
	C311.616,123.385,307.847,119.816,303.746,116.657z"/>
<path style="fill:#A78966;" d="M252.709,158.084h-14.896c-18.022,0-33.689-10.59-41.089-25.854h18.337
	c4.335,0,7.848-3.513,7.848-7.848s-3.513-7.848-7.848-7.848h-22.679c-0.12-1.344-0.193-2.701-0.193-4.075
	c0-12.166,10.296-29.616,20.011-40.008c-19.367,4.388-36.225,4.082-36.225,4.082c-26.186-0.009-47.619,21.408-47.628,47.594l0,0
	c-0.009,26.186,21.408,47.619,47.594,47.628l42.962,0.016c11.579,0.004,22.224-4.187,30.503-11.121
	C250.566,159.849,251.654,158.981,252.709,158.084z"/>
<path style="fill:#C0AB91;" d="M257.339,224.176H142.745c-24.648,0-44.814-20.167-44.814-44.814v-2.318
	c0-24.648,20.167-44.814,44.814-44.814h114.594c24.648,0,44.814,20.167,44.814,44.814v2.318
	C302.154,204.009,281.987,224.176,257.339,224.176z"/>
<path style="fill:#B39A7C;" d="M219.482,166.938h-48.066c4.616-19.82,22.47-34.708,43.643-34.708h-72.316
	c-24.649,0-44.814,20.167-44.814,44.814v2.318c0,24.648,20.167,44.814,44.814,44.814h72.316c-23.547,0-42.989-18.409-44.681-41.542
	h49.104c4.335,0,7.848-3.513,7.848-7.848C227.33,170.45,223.817,166.938,219.482,166.938z"/>
<path style="fill:#D9CCBC;" d="M274.836,273.883H125.304c-25.093,0-45.624-20.531-45.624-45.624l0,0
	c0-25.093,20.531-45.624,45.624-45.624h149.532c25.093,0,45.624,20.531,45.624,45.624l0,0
	C320.46,253.352,299.929,273.883,274.836,273.883z"/>
<path style="fill:#C0AB91;" d="M151.967,228.258L151.967,228.258c0-25.093,20.531-45.624,45.624-45.624h-72.287
	c-25.093,0-45.624,20.531-45.624,45.624l0,0c0,25.093,20.531,45.624,45.624,45.624h72.287
	C172.498,273.883,151.967,253.352,151.967,228.258z"/>
<path style="fill:#C2DFF6;" d="M95.253,290.226l40.698,208.13C137.51,506.283,144.459,512,152.54,512h96.817
	c8.143,0,15.13-5.806,16.621-13.812l38.91-208.774L95.253,290.226z"/>
<path style="fill:#96C8EF;" d="M95.253,290.226l40.698,208.13C137.51,506.283,144.459,512,152.54,512h40.462
	c-8.079,0-15.03-5.717-16.589-13.644l-40.698-208.13H95.253z"/>
<polygon style="opacity:0.5;fill:#5AAAE7;enable-background:new    ;" points="95.253,290.226 106.711,348.826 147.173,348.826 
	135.714,290.226 "/>
<path style="fill:#B39A7C;" d="M117.63,280.883l35.624,195.907c0,0,2.376,14.281,15.824,14.281h63.81
	c12.997,0,15.826-14.312,15.826-14.312l36.954-195.876H117.63z"/>
<path style="fill:#A78966;" d="M202.432,476.79l-35.624-195.907H117.63l35.624,195.907c0,0,2.376,14.281,15.824,14.281h63.81
	c0.004,0,0.007,0,0.012,0h-14.643C204.809,491.071,202.432,476.79,202.432,476.79z"/>
<polygon style="fill:#78B9EB;" points="106.711,348.826 293.814,348.826 304.887,289.414 95.253,290.226 "/>
<path style="fill:#C2DFF6;" d="M325.98,243.877c-2.378-3.004-6-4.757-9.832-4.757H83.992c-3.833,0-7.455,1.753-9.832,4.757
	c-2.379,3.004-3.252,6.933-2.372,10.662l8.844,37.491c1.335,5.661,6.388,9.661,12.206,9.661h214.467
	c5.817,0,10.869-3.999,12.206-9.661l8.843-37.491C329.232,250.81,328.358,246.883,325.98,243.877z"/>
<g>
	<path style="fill:#96C8EF;" d="M121.092,292.031l-8.844-37.491c-0.88-3.729-0.006-7.658,2.372-10.662s6-4.757,9.832-4.757h-40.46
		c-3.833,0-7.455,1.753-9.832,4.757c-2.379,3.004-3.252,6.933-2.372,10.662l8.844,37.491c1.335,5.661,6.388,9.661,12.206,9.661
		H133.3C127.482,301.693,122.427,297.692,121.092,292.031z"/>
	<path style="fill:#96C8EF;" d="M225.409,281.331h-71.782c-4.335,0-7.848-3.513-7.848-7.848s3.513-7.848,7.848-7.848h71.782
		c4.335,0,7.848,3.513,7.848,7.848S229.744,281.331,225.409,281.331z"/>
	<path style="fill:#96C8EF;" d="M277.218,281.331h-23.374c-4.335,0-7.848-3.513-7.848-7.848s3.513-7.848,7.848-7.848h23.374
		c4.335,0,7.848,3.513,7.848,7.848S281.553,281.331,277.218,281.331z"/>
</g>
<g>
	<circle style="fill:#FFFFFF;" cx="279.679" cy="203.373" r="7.325"/>
	<circle style="fill:#FFFFFF;" cx="249.981" cy="154.191" r="7.325"/>
	<circle style="fill:#FFFFFF;" cx="200.349" cy="218.023" r="7.325"/>
	<circle style="fill:#FFFFFF;" cx="247.857" cy="96.01" r="7.325"/>
	<circle style="fill:#FFFFFF;" cx="270.177" cy="219.53" r="4.647"/>
	<circle style="fill:#FFFFFF;" cx="222.732" cy="208.019" r="4.647"/>
	<circle style="fill:#FFFFFF;" cx="179.242" cy="219.53" r="4.647"/>
	<circle style="fill:#FFFFFF;" cx="227.326" cy="151.512" r="4.647"/>
	<circle style="fill:#FFFFFF;" cx="240.532" cy="71.638" r="4.647"/>
	<circle style="fill:#FFFFFF;" cx="213.44" cy="103.335" r="4.647"/>
</g>
<circle style="fill:#5EAC24;" cx="200.066" cy="406.38" r="40.462"/>
<path style="fill:#FFFFFF;" d="M200.069,454.689c-26.639,0-48.31-21.672-48.31-48.309c0-26.639,21.672-48.31,48.31-48.31
	s48.31,21.672,48.31,48.31C248.38,433.017,226.708,454.689,200.069,454.689z M200.069,373.765c-17.984,0-32.614,14.63-32.614,32.614
	c0,17.983,14.63,32.613,32.614,32.613s32.614-14.63,32.614-32.613C232.683,388.397,218.053,373.765,200.069,373.765z"/>
<g>
</g>
<g>
</g>
<g>
</g>
<g>
</g>
<g>
</g>
<g>
</g>
<g>
</g>
<g>
</g>
<g>
</g>
<g>
</g>
<g>
</g>
<g>
</g>
<g>
</g>
<g>
</g>
<g>
</g>
</svg>
