<?xml version="1.0" encoding="iso-8859-1"?>
<!-- Generator: Adobe Illustrator 19.0.0, SVG Export Plug-In . SVG Version: 6.00 Build 0)  -->
<svg version="1.1" id="Layer_1" xmlns="http://www.w3.org/2000/svg" xmlns:xlink="http://www.w3.org/1999/xlink" x="0px" y="0px"
	 viewBox="0 0 512 512" style="enable-background:new 0 0 512 512;" xml:space="preserve">
<path style="fill:#A0815C;" d="M321.171,446.83c0,35.993-29.178,65.17-65.17,65.17s-65.17-29.178-65.17-65.17
	S220.008,227.895,256,227.895S321.171,410.837,321.171,446.83z"/>
<g>
	<path style="fill:#806749;" d="M230.662,446.83c0-29.046,19.003-153.792,45.255-200.861c-6.278-11.256-12.969-18.074-19.916-18.074
		c-35.993,0-65.17,182.942-65.17,218.934S220.008,512,256,512c6.948,0,13.637-1.097,19.916-3.112
		C249.667,500.472,230.662,475.875,230.662,446.83z"/>
	<path style="fill:#806749;" d="M261.352,333.875c14.349,0,28.549-0.508,42.587-1.509c-11.913-53.453-29.019-104.472-48.026-104.472
		c-18.915,0-35.946,50.521-47.851,103.687C224.914,333.018,242.749,333.875,261.352,333.875z"/>
</g>
<path style="fill:#FF3F62;" d="M462.839,236.256c-0.404-2.334-10.221-57.817-38.546-113.912
	c-20.429-40.456-45.401-71.272-74.101-91.858C322.111,10.347,290.46,2.09,256,2.09c-16.294,0-31.959,0.224-46.917,4.791
	c-35.442,10.824-66.906,34.308-93.321,69.674c-10.111,13.537-17.393,30.905-25.965,47.88
	c-13.116,25.973-24.352,49.726-30.435,70.221c-7.053,23.768-9.985,40.347-10.201,41.601c-2.554,14.753,5.682,29.252,19.662,34.613
	c3.371,1.293,83.79,31.659,192.616,31.659c64.293,0,125.348-10.617,181.47-31.557C457.039,265.7,465.412,251.115,462.839,236.256z"
	/>
<path style="fill:#D80027;" d="M289.435,49.045c49.836,0,93.795,21.646,129.579,63.254c-19.407-35.554-42.564-62.981-68.849-81.828
	C322.091,10.341,290.45,2.09,256,2.09c-16.546,0-32.444,0.296-47.611,5.005c-35.078,10.893-66.241,34.218-92.447,69.22
	c-10.179,13.596-17.522,29.999-26.144,47.075c-12.845,25.436-23.973,49.703-30.054,69.988
	c-7.329,24.451-10.362,41.602-10.583,42.877c-2.554,14.753,5.682,29.252,19.662,34.613c0.824,0.316,6.268,2.373,15.597,5.299
	c3.966-18.328,14.801-61.366,36.722-104.777C161.559,91.352,219.754,49.045,289.435,49.045z"/>
<g>
	<circle style="fill:#FFFFFF;" cx="295.832" cy="188.05" r="71.816"/>
	<path style="fill:#FFFFFF;" d="M114.525,219.917c39.664,0,71.819-32.155,71.819-71.819c0-39.187-31.39-71.021-70.395-71.782
		c-10.181,13.597-19.617,28.952-28.24,46.03c-13.025,25.794-22.134,51.454-28.216,71.881
		C72.666,209.927,92.426,219.917,114.525,219.917z"/>
	<path style="fill:#FFFFFF;" d="M278.987,92.833c36.454,0,66.544-27.167,71.178-62.356C322.09,10.348,290.451,0,256,0
		c-16.494,0-32.342,2.374-47.464,7.054c-0.89,4.517-1.368,9.183-1.368,13.961C207.168,60.678,239.323,92.833,278.987,92.833z"/>
</g>
<g>
	<path style="fill:#FFA5B5;" d="M115.949,76.315c-10.181,13.598-19.617,28.952-28.24,46.03
		c-13.025,25.794-22.134,51.454-28.216,71.881c10.416,12.413,24.956,21.232,41.505,24.392c5.314-14.845,11.956-31.009,20.145-47.227
		c14.038-27.801,30.224-51.044,48.288-69.549C156.541,86.568,137.404,76.734,115.949,76.315z"/>
	<path style="fill:#FFA5B5;" d="M256,0c-16.494,0-32.342,2.374-47.464,7.054c-0.89,4.517-1.368,9.183-1.368,13.961
		c0,16.146,5.33,31.046,14.323,43.04c21.1-9.94,43.833-15.009,67.943-15.009c17.949,0,35.132,2.823,51.449,8.36
		c4.767-8.096,8-17.204,9.281-26.93C322.091,10.348,290.451,0,256,0z"/>
</g>
<g>
	<path style="fill:#D80027;" d="M419.014,248.962c-4.328,0-7.837-3.508-7.837-7.837c0-7.897-0.828-16.438-2.461-25.388
		c-0.777-4.258,2.045-8.339,6.303-9.117c4.254-0.772,8.338,2.045,9.117,6.302c1.801,9.875,2.716,19.364,2.716,28.202
		C426.851,245.453,423.342,248.962,419.014,248.962z"/>
	<path style="fill:#D80027;" d="M408.982,193.303c-3.298,0-6.367-2.098-7.447-5.403c-10.6-32.412-26.318-58.183-26.475-58.44
		c-2.264-3.686-1.112-8.513,2.574-10.778c3.687-2.265,8.512-1.116,10.777,2.569c0.681,1.109,16.82,27.53,28.02,61.778
		c1.346,4.114-0.899,8.539-5.012,9.885C410.61,193.178,409.788,193.303,408.982,193.303z"/>
</g>
<path style="fill:#806749;" d="M271.838,484.553c-2.805,0-5.517-1.51-6.926-4.159c-2.032-3.821-0.582-8.566,3.239-10.599
	c8.534-4.539,13.835-13.339,13.835-22.966c0-4.451-0.74-13.152-2.028-23.874c-0.517-4.297,2.547-8.2,6.845-8.717
	c4.305-0.511,8.199,2.547,8.717,6.845c1.38,11.479,2.141,20.623,2.141,25.745c0,15.435-8.488,29.538-22.15,36.804
	C274.338,484.257,273.079,484.553,271.838,484.553z"/>
<g>
</g>
<g>
</g>
<g>
</g>
<g>
</g>
<g>
</g>
<g>
</g>
<g>
</g>
<g>
</g>
<g>
</g>
<g>
</g>
<g>
</g>
<g>
</g>
<g>
</g>
<g>
</g>
<g>
</g>
</svg>
