<?xml version="1.0" encoding="iso-8859-1"?>
<!-- Generator: Adobe Illustrator 19.0.0, SVG Export Plug-In . SVG Version: 6.00 Build 0)  -->
<svg version="1.1" id="Layer_1" xmlns="http://www.w3.org/2000/svg" xmlns:xlink="http://www.w3.org/1999/xlink" x="0px" y="0px"
	 viewBox="0 0 511.999 511.999" style="enable-background:new 0 0 511.999 511.999;" xml:space="preserve">
<ellipse style="fill:#5F4D37;" cx="256" cy="492.426" rx="33.86" ry="19.573"/>
<path style="fill:#B87FD9;" d="M316.625,318.603l0.001-0.001c-0.065-0.032-0.126-0.067-0.191-0.1
	c-15.843-8.323-27.973-20.602-37.062-33.078h-46.541c-9.105,12.466-21.338,24.763-37.462,33.178l0.002,0.002
	c-31.901,17.318-53.094,47.892-53.094,82.727c0,53.998,50.915,97.771,113.721,97.771s113.721-43.774,113.721-97.771
	C369.72,366.495,348.527,335.92,316.625,318.603z"/>
<path style="fill:#5EAC24;" d="M239.325,62.055c-1.447-5.13-5.469-9.132-10.607-10.555c-5.138-1.422-10.644-0.061-14.526,3.594
	c-8.902,8.382-19.616,18.296-22.514,20.738c-1.314,0.865-2.506,1.944-3.524,3.218c-3.924,4.915-4.429,11.737-1.269,17.176
	c28.27,48.671,55.74,188.72,56.014,190.129c1.519,7.804,8.772,13.119,16.648,12.246c0.078-0.008,0.159-0.018,0.237-0.028
	c7.967-1.009,13.787-8.022,13.31-16.038C265.553,156.125,240.393,65.837,239.325,62.055z"/>
<path style="fill:#4E901E;" d="M259.547,298.601c0.078-0.008,0.159-0.018,0.237-0.028c7.967-1.009,13.787-8.022,13.31-16.038
	c-7.542-126.41-32.702-216.698-33.77-220.479c-1.447-5.13-5.469-9.132-10.607-10.555c-3.771-1.044-7.737-0.583-11.117,1.178
	c-3.121,37.445-3.261,80.12-2.161,119.408c15.757,54.608,27.282,113.359,27.458,114.27
	C244.417,294.159,251.671,299.475,259.547,298.601z"/>
<path style="fill:#6DC82A;" d="M291.448,17.857l-26.89-15.939c-3.836-2.274-8.538-2.542-12.607-0.716
	c-4.07,1.825-6.997,5.515-7.85,9.892c-18.554,95.256-0.826,279.844-0.062,287.655c0.71,7.249,6.96,12.68,14.238,12.369
	c0.028-0.001,0.056-0.002,0.085-0.004c7.237-0.354,12.957-6.282,13.043-13.536c1.743-146.994,26.218-263.909,26.464-265.07
	C299.094,26.752,296.509,20.857,291.448,17.857z"/>
<path style="fill:#5EAC24;" d="M238.283,185.471c-0.415,3.322-0.8,6.597-1.157,9.825c2.3,55.519,6.549,99.716,6.913,103.453
	c0.71,7.249,6.96,12.68,14.238,12.369c0.028-0.001,0.056-0.002,0.085-0.004c7.237-0.354,12.957-6.282,13.043-13.536
	c1.743-146.994,26.218-263.909,26.464-265.07c1.223-5.755-1.361-11.65-6.422-14.65l-2.613-1.549
	c-12.198,21.768-22.559,46.575-30.903,74.079C249.173,119.253,242.562,151.245,238.283,185.471z"/>
<path style="fill:#A4E276;" d="M366.044,40.083l-23.589-33.81c-2.602-3.73-6.863-5.952-11.411-5.952c-0.015,0-0.03,0-0.046,0
	c-4.563,0.015-8.829,2.267-11.416,6.026c-16.986,24.687-30.999,55.003-41.649,90.108c-8.415,27.739-14.778,58.562-18.91,91.609
	c-7.015,56.101-5.209,98.826-5.127,100.617c0.318,7.093,5.927,12.809,13.012,13.261c0.301,0.019,0.599,0.028,0.897,0.028
	c6.713,0,12.531-4.829,13.696-11.528c15.861-91.138,37.682-149.635,53.193-182.66c16.402-34.918,29.372-49.437,30.046-50.178
	C369.373,52.825,369.856,45.547,366.044,40.083z"/>
<path style="fill:#933EC5;" d="M276.38,497.534c-53.08-8.257-93.341-48.187-93.341-96.204c0-34.835,21.193-65.409,53.094-82.727
	l-0.002-0.002c16.124-8.416,28.347-20.712,37.451-33.178h-40.748c-9.105,12.466-21.338,24.763-37.462,33.178l0.002,0.002
	c-31.901,17.318-53.094,47.892-53.094,82.727c0,53.998,50.915,97.771,113.721,97.771
	C262.957,499.102,269.768,498.563,276.38,497.534z"/>
<g>
	<path style="fill:#D5B4E8;" d="M317.743,416.727c-3.913,0-7.296-2.926-7.774-6.909c-2.843-23.781-13.689-43.233-19.901-52.711
		c-2.373-3.62-1.362-8.48,2.259-10.852c3.62-2.371,8.48-1.361,10.852,2.26c8.509,12.982,19.295,33.835,22.357,59.444
		c0.513,4.299-2.554,8.199-6.853,8.713C318.367,416.708,318.054,416.727,317.743,416.727z"/>
	<path style="fill:#D5B4E8;" d="M199.769,422.424c-4.029,0-7.455-3.088-7.802-7.176c-1.283-15.117,0.737-29.572,6.002-42.965
		c1.585-4.029,6.135-6.009,10.164-4.426c4.029,1.584,6.01,6.135,4.426,10.164c-4.377,11.129-6.049,23.209-4.972,35.902
		c0.367,4.313-2.833,8.107-7.148,8.473C200.216,422.415,199.992,422.424,199.769,422.424z"/>
	<path style="fill:#D5B4E8;" d="M263.839,351.524c0-4.329-3.509-7.838-7.838-7.838s-7.838,3.509-7.838,7.838v108.698
		c0,4.329,3.509,7.838,7.838,7.838s7.838-3.509,7.838-7.838V351.524z"/>
	<path style="fill:#D5B4E8;" d="M269.062,269.099c0,0-4.583-8.235-13.338-8.235c-7.444,0-12.102,7.373-12.578,8.245
		c-0.276,0.506-0.557,1.015-0.843,1.527c-7.285,13.016-17.895,27.572-32.79,38.948l13.748,26.756l30.761-11.298l31.032,10.417
		l16.882-26.369C286.971,297.39,276.317,282.34,269.062,269.099z"/>
</g>
<path style="fill:#B87FD9;" d="M255.725,260.863c-7.444,0-12.102,7.373-12.578,8.245c-0.276,0.506-0.557,1.015-0.843,1.527
	c-7.285,13.016-17.895,27.572-32.79,38.948l10.199,19.848c5.071-4.017,10.563-7.648,16.42-10.827l-0.002-0.002
	c17.899-9.342,31.003-23.466,40.356-37.296c-2.827-4.185-5.318-8.343-7.501-12.338C268.379,267.952,263.852,260.863,255.725,260.863
	z"/>
<g>
</g>
<g>
</g>
<g>
</g>
<g>
</g>
<g>
</g>
<g>
</g>
<g>
</g>
<g>
</g>
<g>
</g>
<g>
</g>
<g>
</g>
<g>
</g>
<g>
</g>
<g>
</g>
<g>
</g>
</svg>
