<?xml version="1.0" encoding="iso-8859-1"?>
<!-- Generator: Adobe Illustrator 19.0.0, SVG Export Plug-In . SVG Version: 6.00 Build 0)  -->
<svg version="1.1" id="Layer_1" xmlns="http://www.w3.org/2000/svg" xmlns:xlink="http://www.w3.org/1999/xlink" x="0px" y="0px"
	 viewBox="0 0 512 512" style="enable-background:new 0 0 512 512;" xml:space="preserve">
<g>
	<path style="fill:#91DC5A;" d="M228.081,37.426c-0.414,1.163-4,11.726-2.611,23.968c1.246,10.983,7.596,30.156,36.127,35.17
		c3.995,0.701,7.943-1.454,9.514-5.193c0.463-1.103,4.485-11.123,3.114-23.217c0-0.001,0-0.002,0-0.002
		c-0.913-8.04-3.973-15.103-9.097-20.989c-6.132-7.043-15.092-12.166-26.633-15.226C234.124,30.778,229.595,33.165,228.081,37.426z"
		/>
	<path style="fill:#91DC5A;" d="M188.447,111.988c-0.005,1.236,0.102,12.389,5.461,23.484c4.807,9.953,17.14,25.949,45.724,21.247
		c4.002-0.659,7.016-3.998,7.262-8.047c0.072-1.194,0.555-11.98-4.738-22.941c0-0.001-0.001-0.001-0.001-0.002
		c-3.52-7.287-8.743-12.939-15.525-16.8c-8.116-4.62-18.266-6.492-30.169-5.563C191.952,103.716,188.467,107.466,188.447,111.988z"
		/>
	<path style="fill:#91DC5A;" d="M325.314,175.546c-0.928,0.814-9.415,8.053-21.302,11.291c-10.665,2.905-30.827,4.097-46.038-20.556
		c-2.129-3.452-1.588-7.918,1.306-10.76c0.853-0.838,8.675-8.281,20.419-11.481c0.001,0,0.002,0,0.002,0
		c7.808-2.127,15.502-1.895,22.866,0.688c8.812,3.091,16.886,9.522,23.997,19.112C329.256,167.472,328.712,172.564,325.314,175.546z
		"/>
	<path style="fill:#91DC5A;" d="M348.283,107.104c-0.691-1.024-7.057-10.182-17.731-16.337c-9.576-5.521-28.772-11.801-49.752,8.173
		c-2.937,2.797-3.549,7.253-1.474,10.738c0.613,1.028,6.284,10.215,16.828,16.295c0.001,0,0.001,0.001,0.002,0.001
		c7.011,4.042,14.51,5.774,22.289,5.149c9.308-0.748,18.752-4.915,28.068-12.382C350.043,115.914,350.812,110.852,348.283,107.104z"
		/>
</g>
<g>
	<path style="fill:#6DC82A;" d="M248.467,61.395c-1.389-12.243,2.197-22.804,2.611-23.968c0.085-0.237,0.181-0.466,0.283-0.691
		c-3.847-1.938-8.136-3.545-12.867-4.799c-4.37-1.159-8.9,1.228-10.413,5.49c-0.414,1.163-4,11.726-2.611,23.968
		c1.246,10.983,7.596,30.156,36.127,35.17c3.639,0.639,7.232-1.097,9.032-4.236C253.839,84.564,249.476,70.292,248.467,61.395z"/>
	<path style="fill:#6DC82A;" d="M216.905,135.472c-5.358-11.095-5.466-22.248-5.461-23.484c0.014-3.097,1.653-5.831,4.132-7.36
		c-5.729-1.38-12.117-1.81-19.116-1.264c-4.508,0.351-7.993,4.102-8.012,8.624c-0.005,1.236,0.102,12.389,5.461,23.484
		c4.807,9.953,17.14,25.949,45.724,21.247c0.649-0.107,1.269-0.291,1.859-0.531C227.478,152.563,220.305,142.511,216.905,135.472z"
		/>
	<path style="fill:#6DC82A;" d="M280.969,166.28c-2.129-3.452-1.588-7.918,1.306-10.76c0.824-0.809,8.153-7.762,19.225-11.122
		c-7.041-2.244-14.367-2.383-21.8-0.359c0,0-0.002,0-0.002,0.001c-11.744,3.2-19.566,10.642-20.419,11.481
		c-2.893,2.842-3.435,7.309-1.306,10.76c15.211,24.652,35.374,23.461,46.038,20.556c0.264-0.072,0.516-0.156,0.778-0.231
		C296.776,184.027,288.299,178.159,280.969,166.28z"/>
	<path style="fill:#6DC82A;" d="M319.152,125.974c-10.544-6.081-16.217-15.268-16.828-16.295c-2.076-3.485-1.463-7.941,1.474-10.738
		c6.475-6.164,12.779-9.823,18.684-11.779c-10.46-3.411-25.54-3.586-41.68,11.779c-2.937,2.797-3.549,7.254-1.474,10.738
		c0.612,1.028,6.284,10.215,16.828,16.295c0.001,0,0.001,0.001,0.002,0.001c7.011,4.042,14.509,5.774,22.289,5.149
		c2.852-0.229,5.717-0.783,8.586-1.651c-2.684-0.858-5.314-2.02-7.878-3.498C319.153,125.975,319.152,125.974,319.152,125.974z"/>
</g>
<path style="fill:#A78966;" d="M245.536,244.5c-4.009,0-7.426-3.059-7.798-7.128c-6.133-67.209,15.219-119.504,34.209-151.539
	c20.604-34.756,42.531-53.49,43.454-54.271c3.307-2.796,8.254-2.379,11.048,0.926c2.793,3.304,2.381,8.246-0.919,11.043l0,0
	c-0.209,0.178-21.154,18.158-40.409,50.828c-17.654,29.951-37.495,78.827-31.769,141.588c0.394,4.312-2.783,8.126-7.094,8.519
	C246.015,244.49,245.774,244.5,245.536,244.5z"/>
<path style="fill:#91DC5A;" d="M353.198,0.137c-1.23-0.111-12.352-0.956-23.864,3.435c-10.328,3.94-27.318,14.861-25.075,43.742
	c0.315,4.043,3.385,7.332,7.397,7.922c1.183,0.175,11.889,1.576,23.262-2.762c0.001,0,0.001-0.001,0.002-0.001
	c7.561-2.884,13.639-7.606,18.065-14.033c5.297-7.691,8.028-17.645,8.12-29.584C361.142,4.335,357.703,0.543,353.198,0.137z"/>
<path style="fill:#6DC82A;" d="M327.256,47.317c-2.243-28.881,14.747-39.802,25.075-43.742c1.808-0.69,3.602-1.238,5.354-1.692
	c-1.262-0.963-2.799-1.591-4.486-1.743c-1.23-0.111-12.352-0.956-23.864,3.435c-10.328,3.94-27.318,14.861-25.075,43.742
	c0.315,4.043,3.385,7.332,7.397,7.922c1.044,0.154,9.512,1.257,19.306-1.468C328.876,52.32,327.464,49.986,327.256,47.317z"/>
<path style="fill:#FF9478;" d="M134.62,244.5l23.543,251.619c0.82,8.995,8.361,15.881,17.393,15.881h160.888
	c9.031,0,16.573-6.886,17.393-15.881L377.379,244.5H134.62z"/>
<g>
	<path style="fill:#FF6243;" d="M377.38,244.5H134.62l0,0l23.543,251.619c0.82,8.995,8.361,15.881,17.393,15.881h57.936
		c-9.031,0-16.573-6.886-17.393-15.881l-18.181-194.305h174.099L377.38,244.5z"/>
	<path style="fill:#FF6243;" d="M333.853,381.03c-0.245,0-0.491-0.012-0.74-0.034c-4.311-0.403-7.478-4.225-7.076-8.536
		l4.302-45.983c0.405-4.312,4.226-7.482,8.537-7.076c4.311,0.403,7.478,4.225,7.076,8.536l-4.302,45.983
		C341.269,377.983,337.853,381.03,333.853,381.03z"/>
	<path style="fill:#FF6243;" d="M328.764,435.417c-0.245,0-0.491-0.011-0.739-0.034c-4.311-0.403-7.479-4.225-7.077-8.536
		l1.896-20.279c0.406-4.312,4.239-7.476,8.536-7.076c4.311,0.403,7.479,4.225,7.077,8.536l-1.896,20.279
		C336.18,432.37,332.765,435.417,328.764,435.417z"/>
</g>
<path style="fill:#FFEB99;" d="M386.133,280.908H125.867c-10.348,0-18.815-8.467-18.815-18.815v-43.61
	c0-10.348,8.467-18.815,18.815-18.815h260.265c10.348,0,18.815,8.467,18.815,18.815v43.61
	C404.948,272.441,396.481,280.908,386.133,280.908z"/>
<g>
	<path style="fill:#FFDA44;" d="M155.111,262.093v-43.61c0-10.348,8.467-18.815,18.815-18.815h-48.058
		c-10.348,0-18.815,8.467-18.815,18.815v43.61c0,10.348,8.467,18.815,18.815,18.815h48.058
		C163.578,280.908,155.111,272.441,155.111,262.093z"/>
	<path style="fill:#FFDA44;" d="M373.422,238.158h-95.126c-4.331,0-7.84-3.51-7.84-7.84s3.509-7.84,7.84-7.84h95.126
		c4.331,0,7.84,3.51,7.84,7.84S377.753,238.158,373.422,238.158z"/>
</g>
<g>
</g>
<g>
</g>
<g>
</g>
<g>
</g>
<g>
</g>
<g>
</g>
<g>
</g>
<g>
</g>
<g>
</g>
<g>
</g>
<g>
</g>
<g>
</g>
<g>
</g>
<g>
</g>
<g>
</g>
</svg>
