<?xml version="1.0" encoding="iso-8859-1"?>
<!-- Generator: Adobe Illustrator 19.0.0, SVG Export Plug-In . SVG Version: 6.00 Build 0)  -->
<svg version="1.1" id="Layer_1" xmlns="http://www.w3.org/2000/svg" xmlns:xlink="http://www.w3.org/1999/xlink" x="0px" y="0px"
	 viewBox="0 0 512 512" style="enable-background:new 0 0 512 512;" xml:space="preserve">
<path style="fill:#FF9478;" d="M78.316,242.244l53.365,251.394C134.403,506.459,147.22,512,159.942,512h191.978
	c13.211,0,25.539-5.542,28.261-18.363l53.365-251.394H78.316z"/>
<g>
	<path style="fill:#FF6243;" d="M340.177,484.098h-82.985c-4.332,0-7.845-3.512-7.845-7.845s3.512-7.845,7.845-7.845h82.985
		c4.333,0,7.845,3.512,7.845,7.845S344.51,484.098,340.177,484.098z"/>
	<path style="fill:#FF6243;" d="M433.546,242.244H78.316l53.365,251.394C134.403,506.459,147.22,512,159.942,512h76.612
		c-8.965-1.884-16.47-8.867-18.485-18.363l-42.027-197.98h246.166L433.546,242.244z"/>
</g>
<path style="fill:#6DC82A;" d="M203.79,26.267c-43.096-23.224-85.232-26.12-87.003-26.233c-5.113-0.32-10.106,1.641-13.63,5.362
	c-3.523,3.72-5.213,8.812-4.613,13.901c4.463,37.839,15.721,70.701,33.461,97.674c14.684,22.327,33.77,40.627,56.726,54.392
	c44.228,26.519,87.157,26.825,88.964,26.825c2.58,0,8.625,0,13.773-5.152c3.375-3.377,5.203-8.001,5.046-12.773
	C293.661,92.742,244.516,48.211,203.79,26.267z"/>
<g>
	<path style="fill:#5EAC24;" d="M291.468,193.035c2.274-2.275,3.824-5.121,4.559-8.191c-53.61-10.671-141.428-59.492-164.12-182.895
		c-8.879-1.487-14.498-1.875-15.12-1.915c-5.113-0.32-10.106,1.641-13.63,5.361c-3.523,3.72-5.213,8.812-4.613,13.901
		c4.463,37.839,15.721,70.701,33.461,97.674c14.684,22.327,33.77,40.627,56.726,54.392c44.228,26.519,87.157,26.825,88.964,26.825
		C280.275,198.188,286.319,198.188,291.468,193.035z"/>
	<path style="fill:#5EAC24;" d="M233.501,46.003c-4.019,4.634-7.822,9.44-11.385,14.427
		c-21.904,30.652-34.473,67.088-37.442,108.424c1.34,0.851,2.691,1.69,4.058,2.509c44.228,26.519,87.157,26.825,88.964,26.825
		c2.58,0,8.625,0,13.773-5.152c3.375-3.377,5.203-8.001,5.046-12.773C294.339,113.531,265.25,71.794,233.501,46.003z"/>
</g>
<path style="fill:#91DC5A;" d="M408.844,5.395c-3.524-3.719-8.506-5.68-13.63-5.361c-1.773,0.112-43.906,3.009-87.003,26.232
	c-40.726,21.945-89.87,66.476-92.724,153.997c-0.156,4.772,1.67,9.396,5.046,12.773c5.148,5.151,11.192,5.152,13.772,5.152
	c0.001,0,0.001,0,0.001,0c1.826,0,44.742-0.309,88.964-26.825c22.956-13.765,42.042-32.065,56.727-54.392
	c17.741-26.973,28.998-59.835,33.461-97.674C414.057,14.208,412.368,9.115,408.844,5.395z"/>
<path style="fill:#6DC82A;" d="M395.214,0.034c-1.773,0.112-43.906,3.009-87.003,26.232c-40.726,21.945-89.87,66.476-92.724,153.996
	c-0.156,4.772,1.67,9.396,5.046,12.773c5.148,5.151,11.192,5.152,13.772,5.152c0,0,0.001,0,0.002,0c0.483,0,3.846-0.022,9.348-0.545
	C265.143,85.341,362.136,43.63,411.687,31.823c0.67-4.116,1.27-8.285,1.77-12.526c0.6-5.089-1.09-10.18-4.613-13.901
	C405.321,1.675,400.339-0.284,395.214,0.034z"/>
<path style="fill:#96C8EF;" d="M453.737,259.909H58.264c-11.506,0-20.919-9.414-20.919-20.919v-81.254
	c0-11.506,9.414-20.919,20.919-20.919h395.473c11.506,0,20.919,9.414,20.919,20.919v81.254
	C474.656,250.495,465.242,259.909,453.737,259.909z"/>
<g>
	<path style="fill:#5AAAE7;" d="M123.811,238.99v-81.253c0-11.506,9.414-20.919,20.919-20.919H58.264
		c-11.506,0-20.919,9.414-20.919,20.919v81.253c0,11.506,9.414,20.919,20.919,20.919h86.467
		C133.225,259.909,123.811,250.495,123.811,238.99z"/>
	<path style="fill:#5AAAE7;" d="M435.375,232.007h-144.18c-4.332,0-7.845-3.512-7.845-7.845c0-4.332,3.512-7.845,7.845-7.845
		h144.181c4.333,0,7.845,3.512,7.845,7.845C443.221,228.495,439.708,232.007,435.375,232.007z"/>
</g>
<g>
</g>
<g>
</g>
<g>
</g>
<g>
</g>
<g>
</g>
<g>
</g>
<g>
</g>
<g>
</g>
<g>
</g>
<g>
</g>
<g>
</g>
<g>
</g>
<g>
</g>
<g>
</g>
<g>
</g>
</svg>
