<?xml version="1.0" encoding="iso-8859-1"?>
<!-- Generator: Adobe Illustrator 19.0.0, SVG Export Plug-In . SVG Version: 6.00 Build 0)  -->
<svg version="1.1" id="Layer_1" xmlns="http://www.w3.org/2000/svg" xmlns:xlink="http://www.w3.org/1999/xlink" x="0px" y="0px"
	 viewBox="0 0 511.999 511.999" style="enable-background:new 0 0 511.999 511.999;" xml:space="preserve">
<path style="fill:#5EAC24;" d="M237.433,187.665c-0.324-0.756-8.144-18.716-25.93-36.895c-23.681-24.205-54-37.519-87.68-38.507
	c-4.612-0.135-8.769,2.78-10.211,7.165c-1.443,4.385,0.17,9.198,3.964,11.828c0.015,0.01,0.079,0.054,0.094,0.065
	c2.71,1.858,66.328,46.667,62.923,147.435c-0.025,0.739,0.029,1.48,0.161,2.208c0.801,4.429,4.651,8.867,11.448,8.795
	c1.062-0.011,2.327-0.112,3.983-0.315c2.442-0.3,5.731-0.826,10.054-1.608c0.001,0,0,0,0,0c15.12-2.734,37.053-7.555,37.979-7.76
	c5.475-1.204,9.017-6.523,8.02-12.04l-14.127-78.116C237.971,189.146,237.744,188.389,237.433,187.665z"/>
<path style="fill:#6DC82A;" d="M397.398,99.918c-2.205-3.634-6.394-5.562-10.589-4.885c-55.576,9.037-87.191,63.294-88.51,65.598
	c-0.543,0.95-0.933,1.978-1.155,3.049l-19.813,95.025c-0.991,4.752,1.429,9.558,5.835,11.595
	c60.428,27.919,61.964,27.919,64.75,27.919c0.046,0,0.094,0,0.14-0.001c2.928-0.039,5.704-1.305,7.651-3.491
	c1.947-2.187,2.885-5.09,2.585-8.003c-5.734-55.808,5.023-100.412,15.059-128.001c10.915-30.009,23.375-47.008,23.486-47.159
	C399.38,108.161,399.602,103.553,397.398,99.918z"/>
<path style="fill:#5EAC24;" d="M345.852,111.174c-29.98,19.253-46.627,47.829-47.576,49.488c-0.543,0.95-0.933,1.978-1.155,3.049
	l-19.813,95.025c-0.991,4.752,1.429,9.559,5.835,11.595c16.634,7.686,28.798,13.251,37.761,17.288
	C315.921,216.328,329.323,156.144,345.852,111.174z"/>
<path style="fill:#4E901E;" d="M238.111,189.921c-0.14-0.775-0.367-1.532-0.678-2.256c-0.324-0.756-8.144-18.716-25.93-36.895
	c-9.169-9.372-19.338-17.104-30.308-23.128c7.333,41.319,10.834,90.568-0.714,132.963c0.275,5.836,0.324,11.885,0.113,18.15
	c-0.025,0.739,0.029,1.48,0.161,2.208c0.801,4.429,4.651,8.867,11.448,8.795c1.062-0.011,2.327-0.112,3.983-0.315
	c2.442-0.3,5.731-0.826,10.054-1.608c0.001,0,0,0,0,0c15.12-2.734,37.053-7.555,37.979-7.76c5.475-1.204,9.017-6.523,8.02-12.04
	L238.111,189.921z"/>
<path style="fill:#6DC82A;" d="M284.661,175.819c-1.041-4.757-26.232-116.96-92.394-157.213c-3.814-2.319-8.681-1.956-12.108,0.908
	c-3.425,2.864-4.648,7.591-3.04,11.756c0.564,1.461,55.941,147.242,18.876,249.433c-1.232,3.245-0.801,6.957,1.232,9.838
	c3.858,5.469,10.029,4.785,14.987,4.237c3.117-0.344,7.513-0.96,13.066-1.831c8.761-1.372,20.506-3.389,34.907-5.994
	c15.947-2.883,29.569-5.483,29.706-5.509c5.477-1.046,9.163-6.216,8.365-11.735l-13.462-93.156
	C284.759,176.308,284.714,176.063,284.661,175.819z"/>
<path style="fill:#5EAC24;" d="M260.229,287c15.947-2.883,29.569-5.483,29.706-5.509c5.477-1.046,9.163-6.216,8.365-11.735
	l-13.462-93.156c-0.036-0.247-0.08-0.492-0.135-0.736c-0.615-2.815-9.69-43.25-30.703-84.138
	c-11.99,25.987-20.729,54.581-26.007,85.218c-10.342,60.048-3.88,107.688-3.6,109.685c0.302,2.159,0.847,4.249,1.594,6.258
	C234.677,291.52,246.186,289.541,260.229,287z"/>
<path style="fill:#A4E276;" d="M372.939,10.428c0-4.132-3-7.874-7.652-9.541c-4.648-1.669-10.073-0.946-13.828,1.841
	c-30.402,22.563-54.91,51.497-72.845,85.998c-14.201,27.32-24.331,58.178-30.107,91.714c-9.795,56.872-3.761,101.385-3.5,103.251
	c0.416,2.969,2.379,5.649,5.39,7.363c30.928,17.598,33.432,17.598,37.578,17.598c0.057,0,0.123,0,0.18-0.001
	c3.532-0.039,6.888-1.26,9.277-3.373c2.389-2.115,3.6-4.937,3.346-7.801c-13.045-147.471,49.742-251.666,69.297-280.087
	C371.8,14.88,372.939,13.225,372.939,10.428z"/>
<path style="fill:#FF9478;" d="M169.7,322.089l17.726,174.829c0.86,8.563,8.066,15.081,16.673,15.081h127.254
	c8.605,0,15.812-6.519,16.673-15.081l17.726-174.829H169.7z"/>
<path style="fill:#FF6243;" d="M365.749,322.089H169.7l17.726,174.829c0.859,8.563,8.066,15.081,16.673,15.081H261.1
	c-8.605,0-15.812-6.519-16.673-15.081l-12.79-126.142h129.175L365.749,322.089z"/>
<path style="fill:#96C8EF;" d="M367.896,339.492H167.553c-10.324,0-18.771-8.447-18.771-18.771v-65.855
	c0-10.324,8.447-18.771,18.771-18.771h200.342c10.324,0,18.771,8.447,18.771,18.771v65.855
	C386.666,331.045,378.219,339.492,367.896,339.492z"/>
<path style="fill:#5AAAE7;" d="M203.009,320.721v-65.855c0-10.324,8.447-18.771,18.771-18.771h-54.226
	c-10.324,0-18.771,8.447-18.771,18.771v65.855c0,10.324,8.447,18.771,18.771,18.771h54.226
	C211.456,339.492,203.009,331.045,203.009,320.721z"/>
<path style="fill:#FF6243;" d="M322.994,487.515h-49.012c-4.32,0-7.821-3.502-7.821-7.821s3.501-7.821,7.821-7.821h49.012
	c4.32,0,7.821,3.502,7.821,7.821S327.313,487.515,322.994,487.515z"/>
<path style="fill:#5AAAE7;" d="M354.528,274.914h-55.519c-4.319,0-7.821-3.502-7.821-7.821s3.502-7.821,7.821-7.821h55.519
	c4.32,0,7.821,3.502,7.821,7.821S358.848,274.914,354.528,274.914z"/>
<g>
</g>
<g>
</g>
<g>
</g>
<g>
</g>
<g>
</g>
<g>
</g>
<g>
</g>
<g>
</g>
<g>
</g>
<g>
</g>
<g>
</g>
<g>
</g>
<g>
</g>
<g>
</g>
<g>
</g>
</svg>
