<?xml version="1.0" ?><svg width="64px" height="64px" viewBox="0 0 64 64" enable-background="new 0 0 64 64" id="Filled_Outline_00000081607312705973271110000009714898175699931553_" version="1.1" xml:space="preserve" xmlns="http://www.w3.org/2000/svg" xmlns:xlink="http://www.w3.org/1999/xlink"><g><g><path d="M41,17h-0.1c-2.705-1.27-5.714-2-8.9-2s-6.195,0.73-8.9,2H23C10.85,17,1,26.85,1,39v0    c0,12.15,9.85,22,22,22h0.1c2.705,1.27,5.714,2,8.9,2s6.195-0.73,8.9-2H41c12.15,0,22-9.85,22-22v0C63,26.85,53.15,17,41,17z" fill="#FF6D1F"/><path d="M21,4L21,4c0,1.657,1.343,3,3,3h0c2.761,0,5,2.239,5,5v3h6v-3c0-6.075-4.925-11-11-11h0    C22.343,1,21,2.343,21,4z" fill="#A69D24"/><path d="M45,46c0,7.18-5.82,13-13,13h0c-7.18,0-13-5.82-13-13v-1h4l2,2l2-2h10l2,2l2-2h4V46z M17,39h10L17,29V39z     M47,29L37,39h10V29z" fill="#732002"/></g><g><path d="M45,44h-4c-0.266,0-0.52,0.105-0.707,0.293L39,45.586l-1.293-1.293C37.52,44.105,37.266,44,37,44H27    c-0.265,0-0.52,0.105-0.707,0.293L25,45.586l-1.293-1.293C23.52,44.105,23.265,44,23,44h-4c-0.552,0-1,0.448-1,1v1    c0,7.72,6.28,14,14,14s14-6.28,14-14v-1C46,44.448,45.553,44,45,44z M32,58c-6.617,0-12-5.383-12-12h2.586l1.707,1.707    c0.391,0.391,1.023,0.391,1.414,0L27.414,46h9.172l1.707,1.707c0.391,0.391,1.023,0.391,1.414,0L41.414,46H44    C44,52.617,38.617,58,32,58z" fill="#260A04"/><path d="M27.924,39.383c0.155-0.374,0.069-0.804-0.217-1.09l-10-10c-0.287-0.286-0.716-0.372-1.09-0.217    C16.244,28.231,16,28.596,16,29v10c0,0.552,0.448,1,1,1h10C27.404,40,27.769,39.756,27.924,39.383z M18,38v-6.586L24.586,38H18z" fill="#260A04"/><path d="M47.383,28.076c-0.374-0.154-0.804-0.07-1.09,0.217l-10,10c-0.286,0.286-0.372,0.716-0.217,1.09    C36.23,39.756,36.596,40,37,40h10c0.553,0,1-0.448,1-1V29C48,28.596,47.757,28.231,47.383,28.076z M46,38h-6.586L46,31.414V38z" fill="#260A04"/><path d="M64,39c0-12.63-10.233-22.911-22.843-22.996c-1.623-0.746-3.351-1.3-5.157-1.633V12    c0-6.617-5.383-12-12-12c-2.206,0-4,1.794-4,4s1.794,4,4,4s4,1.794,4,4v2.371c-1.805,0.333-3.534,0.887-5.157,1.633    C10.233,16.089,0,26.37,0,39s10.233,22.911,22.843,22.996C25.633,63.279,28.733,64,32,64s6.367-0.721,9.157-2.004    C53.767,61.911,64,51.63,64,39z M24,6c-1.103,0-2-0.897-2-2s0.897-2,2-2c5.514,0,10,4.486,10,10v2.095    C33.341,14.035,32.675,14,32,14s-1.341,0.035-2,0.095V12C30,8.691,27.309,6,24,6z M45.218,59.574C50.547,55.555,54,49.174,54,42    h-2c0,11.028-8.972,20-20,20c-11.028,0-20-8.972-20-20h-2c0,7.174,3.453,13.555,8.782,17.574C9.217,57.616,2,49.135,2,39    s7.217-18.616,16.782-20.574C13.453,22.445,10,28.826,10,36h2c0-11.028,8.972-20,20-20c11.028,0,20,8.972,20,20h2    c0-7.174-3.453-13.555-8.782-17.574C54.782,20.384,62,28.865,62,39S54.782,57.616,45.218,59.574z" fill="#260A04"/></g></g></svg>