<?xml version="1.0" ?><svg width="64px" height="64px" viewBox="0 0 64 64" enable-background="new 0 0 64 64" id="Filled_Outline_00000067219907487444458210000009573402626722376610_" version="1.1" xml:space="preserve" xmlns="http://www.w3.org/2000/svg" xmlns:xlink="http://www.w3.org/1999/xlink"><g><g><path d="M41,17h-0.1c-2.705-1.27-5.714-2-8.9-2s-6.195,0.73-8.9,2H23C10.85,17,1,26.85,1,39v0    c0,12.15,9.85,22,22,22h0.1c2.705,1.27,5.714,2,8.9,2s6.195-0.73,8.9-2H41c12.15,0,22-9.85,22-22v0C63,26.85,53.15,17,41,17z" fill="#FF6D1F"/><path d="M21,4L21,4c0,1.657,1.343,3,3,3h0c2.761,0,5,2.239,5,5v3h6v-3c0-6.075-4.925-11-11-11h0    C22.343,1,21,2.343,21,4z" fill="#A69D24"/><path d="M18,28l3-3l6,6l-6,6l-3-3l3-3L18,28z M46,28l-3-3l-6,6l6,6l3-3l-3-3L46,28z M37,50c0-3.866-2.239-7-5-7    s-5,3.134-5,7s2.239,7,5,7S37,53.866,37,50z" fill="#732002"/></g><g><path d="M27.707,30.293l-6-6c-0.391-0.391-1.023-0.391-1.414,0l-3,3c-0.391,0.391-0.391,1.023,0,1.414L19.586,31    l-2.293,2.293c-0.391,0.391-0.391,1.023,0,1.414l3,3C20.488,37.902,20.744,38,21,38s0.512-0.098,0.707-0.293l6-6    C28.098,31.316,28.098,30.684,27.707,30.293z M21,35.586L19.414,34l2.293-2.293c0.391-0.391,0.391-1.023,0-1.414L19.414,28    L21,26.414L25.586,31L21,35.586z" fill="#260A04"/><path d="M46.707,27.293l-3-3c-0.391-0.391-1.023-0.391-1.414,0l-6,6c-0.391,0.391-0.391,1.023,0,1.414l6,6    C42.488,37.902,42.744,38,43,38s0.512-0.098,0.707-0.293l3-3c0.391-0.391,0.391-1.023,0-1.414L44.414,31l2.293-2.293    C47.098,28.316,47.098,27.684,46.707,27.293z M42.293,30.293c-0.391,0.391-0.391,1.023,0,1.414L44.586,34L43,35.586L38.414,31    L43,26.414L44.586,28L42.293,30.293z" fill="#260A04"/><path d="M32,42c-3.309,0-6,3.589-6,8s2.691,8,6,8s6-3.589,6-8S35.309,42,32,42z M32,56c-2.168,0-4-2.748-4-6    s1.832-6,4-6s4,2.748,4,6S34.168,56,32,56z" fill="#260A04"/><path d="M64,39c0-12.63-10.233-22.911-22.843-22.996c-1.623-0.746-3.351-1.3-5.157-1.633V12    c0-6.617-5.383-12-12-12c-2.206,0-4,1.794-4,4s1.794,4,4,4s4,1.794,4,4v2.371c-1.805,0.333-3.534,0.887-5.157,1.633    C10.233,16.089,0,26.37,0,39s10.233,22.911,22.843,22.996C25.633,63.279,28.733,64,32,64s6.367-0.721,9.157-2.004    C53.767,61.911,64,51.63,64,39z M24,6c-1.103,0-2-0.897-2-2s0.897-2,2-2c5.514,0,10,4.486,10,10v2.095    C33.341,14.035,32.675,14,32,14s-1.341,0.035-2,0.095V12C30,8.691,27.309,6,24,6z M45.218,59.574C50.547,55.555,54,49.174,54,42    h-2c0,11.028-8.972,20-20,20s-20-8.972-20-20h-2c0,7.174,3.453,13.555,8.782,17.574C9.217,57.616,2,49.135,2,39    s7.217-18.616,16.782-20.574C13.453,22.445,10,28.826,10,36h2c0-11.028,8.972-20,20-20s20,8.972,20,20h2    c0-7.174-3.453-13.555-8.782-17.574C54.783,20.384,62,28.865,62,39S54.783,57.616,45.218,59.574z" fill="#260A04"/></g></g></svg>