<?xml version="1.0" ?><svg width="64px" height="64px" viewBox="0 0 64 64" enable-background="new 0 0 64 64" id="Filled_Outline_00000081607312705973271110000009714898175699931553_" version="1.1" xml:space="preserve" xmlns="http://www.w3.org/2000/svg" xmlns:xlink="http://www.w3.org/1999/xlink"><g><g><path d="M41,17h-0.1c-2.705-1.27-5.714-2-8.9-2s-6.195,0.73-8.9,2H23C10.85,17,1,26.85,1,39v0    c0,12.15,9.85,22,22,22h0.1c2.705,1.27,5.714,2,8.9,2s6.195-0.73,8.9-2H41c12.15,0,22-9.85,22-22v0C63,26.85,53.15,17,41,17z" fill="#FF6D1F"/><path d="M21,4L21,4c0,1.657,1.343,3,3,3h0c2.761,0,5,2.239,5,5v3h6v-3c0-6.075-4.925-11-11-11h0    C22.343,1,21,2.343,21,4z" fill="#A69D24"/><path d="M47,41c-1.105,0-2-0.895-2-2c0-2,2-4,2-4s2,2,2,4C49,40.105,48.105,41,47,41z M19,39c0-2-2-4-2-4s-2,2-2,4    c0,1.105,0.895,2,2,2S19,40.105,19,39z" fill="#66EAFF"/><path d="M29,35c0,0-2-2-6-2c-4,0-6,2-6,2s1-6,6-6C28,29,29,35,29,35z M41,29c-5,0-6,6-6,6s2-2,6-2c4,0,6,2,6,2    S46,29,41,29z M41,43L41,43l-2,2l-2-2H27l-2,2l-2-2h0c-2.209,0-4,1.791-4,4v0c0,5.523,4.477,10,10,10h6c5.523,0,10-4.477,10-10v0    C45,44.791,43.209,43,41,43z" fill="#732002"/></g><g><path d="M41,28c-4.625,0-6.592,4.472-6.986,6.836c-0.071,0.426,0.142,0.847,0.524,1.047    c0.383,0.199,0.853,0.13,1.164-0.17C35.774,35.643,37.509,34,41,34c2.22,0,3.724,0.662,4.546,1.163C44.872,36.042,44,37.468,44,39    c0,1.654,1.346,3,3,3s3-1.346,3-3c0-2.001-1.489-3.831-2.075-4.475C47.419,32.102,45.432,28,41,28z M41,32    c-1.717,0-3.106,0.34-4.166,0.759C37.552,31.411,38.823,30,41,30s3.449,1.411,4.166,2.759C44.106,32.34,42.717,32,41,32z M47,40    c-0.551,0-1-0.448-1-1c0-0.829,0.51-1.756,1-2.439c0.49,0.684,1,1.61,1,2.439C48,39.552,47.551,40,47,40z" fill="#260A04"/><path d="M20,39c0-1.531-0.872-2.958-1.546-3.837C19.278,34.662,20.781,34,23,34c3.491,0,5.226,1.643,5.293,1.707    C28.485,35.899,28.741,36,29,36c0.155,0,0.312-0.036,0.457-0.11c0.387-0.199,0.6-0.625,0.529-1.054C29.592,32.472,27.625,28,23,28    c-4.432,0-6.419,4.102-6.925,6.525C15.489,35.169,14,36.999,14,39c0,1.654,1.346,3,3,3S20,40.654,20,39z M23,30    c2.177,0,3.449,1.411,4.166,2.759C26.106,32.34,24.717,32,23,32s-3.106,0.34-4.166,0.759C19.552,31.411,20.823,30,23,30z M17,40    c-0.551,0-1-0.448-1-1c0-0.829,0.51-1.756,1-2.439c0.49,0.684,1,1.61,1,2.439C18,39.552,17.551,40,17,40z" fill="#260A04"/><path d="M41,42c-0.265,0-0.52,0.105-0.707,0.293L39,43.586l-1.293-1.293C37.52,42.105,37.265,42,37,42H27    c-0.265,0-0.52,0.105-0.707,0.293L25,43.586l-1.293-1.293C23.52,42.105,23.265,42,23,42c-2.757,0-5,2.243-5,5    c0,6.065,4.935,11,11,11h6c6.065,0,11-4.935,11-11C46,44.243,43.757,42,41,42z M35,56h-6c-4.962,0-9-4.037-9-9    c0-1.522,1.14-2.783,2.611-2.975l1.682,1.682c0.391,0.391,1.023,0.391,1.414,0L27.414,44h9.172l1.707,1.707    c0.391,0.391,1.023,0.391,1.414,0l1.682-1.682C42.86,44.217,44,45.478,44,47C44,51.963,39.962,56,35,56z" fill="#260A04"/><path d="M64,39c0-12.63-10.233-22.911-22.843-22.996c-1.623-0.746-3.351-1.3-5.157-1.633V12    c0-6.617-5.383-12-12-12c-2.206,0-4,1.794-4,4s1.794,4,4,4s4,1.794,4,4v2.371c-1.805,0.333-3.534,0.887-5.157,1.633    C10.233,16.089,0,26.37,0,39c0,12.63,10.233,22.911,22.843,22.996C25.633,63.279,28.733,64,32,64s6.367-0.721,9.157-2.004    C53.767,61.911,64,51.63,64,39z M24,6c-1.103,0-2-0.897-2-2s0.897-2,2-2c5.514,0,10,4.486,10,10v2.095    C33.341,14.035,32.675,14,32,14s-1.341,0.035-2,0.095V12C30,8.691,27.309,6,24,6z M45.218,59.574C50.547,55.555,54,49.174,54,42    h-2c0,11.028-8.972,20-20,20s-20-8.972-20-20h-2c0,7.174,3.453,13.555,8.782,17.574C9.217,57.616,2,49.135,2,39    s7.217-18.616,16.782-20.574C13.453,22.445,10,28.826,10,36h2c0-11.028,8.972-20,20-20s20,8.972,20,20h2    c0-7.174-3.453-13.555-8.782-17.574C54.783,20.384,62,28.865,62,39S54.783,57.616,45.218,59.574z" fill="#260A04"/></g></g></svg>