<?xml version="1.0" ?><svg width="64px" height="64px" viewBox="0 0 64 64" enable-background="new 0 0 64 64" id="Filled_Outline_00000087397764462717629230000011401247782193659528_" version="1.1" xml:space="preserve" xmlns="http://www.w3.org/2000/svg" xmlns:xlink="http://www.w3.org/1999/xlink"><g><g><path d="M41,17h-0.1c-2.705-1.27-5.714-2-8.9-2s-6.195,0.73-8.9,2H23C10.85,17,1,26.85,1,39v0    c0,12.15,9.85,22,22,22h0.1c2.705,1.27,5.714,2,8.9,2s6.195-0.73,8.9-2H41c12.15,0,22-9.85,22-22v0C63,26.85,53.15,17,41,17z" fill="#FF6D1F"/><path d="M21,4L21,4c0,1.657,1.343,3,3,3h0c2.761,0,5,2.239,5,5v3h6v-3c0-6.075-4.925-11-11-11h0    C22.343,1,21,2.343,21,4z" fill="#A69D24"/><path d="M27,31v4c0,0-2-2-4-2s-4,2-4,2v-4c0-2.209,1.791-4,4-4h0C25.209,27,27,28.791,27,31z M41,27L41,27    c-2.209,0-4,1.791-4,4v4c0,0,2-2,4-2s4,2,4,2v-4C45,28.791,43.209,27,41,27z M17,44c0,8.284,6.716,15,15,15h0    c8.284,0,15-6.716,15-15v-1c0,0-5,4-15,4s-15-4-15-4V44z" fill="#732002"/></g><g><path d="M18.616,35.923c0.371,0.152,0.803,0.071,1.09-0.215C20.185,35.233,21.71,34,23,34s2.815,1.233,3.294,1.708    c0.191,0.19,0.446,0.291,0.706,0.291c0.13,0,0.26-0.025,0.384-0.076C27.757,35.768,28,35.403,28,35v-4c0-2.757-2.243-5-5-5    s-5,2.243-5,5v4C18,35.403,18.243,35.768,18.616,35.923z M20,31c0-1.654,1.346-3,3-3s3,1.346,3,3v1.968    C25.166,32.459,24.107,32,23,32s-2.166,0.459-3,0.968V31z" fill="#260A04"/><path d="M36.616,35.923c0.371,0.152,0.804,0.071,1.09-0.215C38.185,35.233,39.71,34,41,34s2.815,1.233,3.294,1.708    c0.191,0.19,0.446,0.291,0.706,0.291c0.13,0,0.26-0.025,0.384-0.076C45.757,35.768,46,35.403,46,35v-4c0-2.757-2.243-5-5-5    s-5,2.243-5,5v4C36,35.403,36.243,35.768,36.616,35.923z M38,31c0-1.654,1.346-3,3-3s3,1.346,3,3v1.968    C43.166,32.459,42.107,32,41,32s-2.166,0.459-3,0.968V31z" fill="#260A04"/><path d="M47.435,42.101c-0.345-0.166-0.757-0.119-1.057,0.116C46.33,42.255,41.478,46,32,46    c-9.438,0-14.288-3.713-14.377-3.782c-0.301-0.239-0.712-0.286-1.057-0.119C16.221,42.266,16,42.615,16,43v1    c0,8.822,7.178,16,16,16s16-7.178,16-16v-1C48,42.617,47.779,42.269,47.435,42.101z M32,58c-7.44,0-13.544-5.835-13.976-13.169    C20.308,46.082,24.955,48,32,48s11.692-1.918,13.976-3.169C45.544,52.165,39.44,58,32,58z" fill="#260A04"/><path d="M64,39c0-12.63-10.233-22.911-22.843-22.996c-1.623-0.746-3.351-1.3-5.157-1.633V12    c0-6.617-5.383-12-12-12c-2.206,0-4,1.794-4,4s1.794,4,4,4s4,1.794,4,4v2.371c-1.805,0.333-3.534,0.887-5.157,1.633    C10.233,16.089,0,26.37,0,39s10.233,22.911,22.843,22.996C25.633,63.279,28.733,64,32,64s6.367-0.721,9.157-2.004    C53.767,61.911,64,51.63,64,39z M24,6c-1.103,0-2-0.897-2-2s0.897-2,2-2c5.514,0,10,4.486,10,10v2.095    C33.341,14.035,32.675,14,32,14s-1.341,0.035-2,0.095V12C30,8.691,27.309,6,24,6z M45.218,59.574C50.547,55.555,54,49.174,54,42    h-2c0,11.028-8.972,20-20,20s-20-8.972-20-20h-2c0,7.174,3.453,13.555,8.782,17.574C9.218,57.616,2,49.135,2,39    s7.218-18.616,16.782-20.574C13.453,22.445,10,28.826,10,36h2c0-11.028,8.972-20,20-20s20,8.972,20,20h2    c0-7.174-3.453-13.555-8.782-17.574C54.782,20.384,62,28.865,62,39S54.782,57.616,45.218,59.574z" fill="#260A04"/></g></g></svg>