<?xml version="1.0" encoding="iso-8859-1"?>
<!-- Generator: Adobe Illustrator 19.0.0, SVG Export Plug-In . SVG Version: 6.00 Build 0)  -->
<svg version="1.1" id="Layer_1" xmlns="http://www.w3.org/2000/svg" xmlns:xlink="http://www.w3.org/1999/xlink" x="0px" y="0px"
	 viewBox="0 0 512 512" style="enable-background:new 0 0 512 512;" xml:space="preserve">
<path style="fill:#FF728B;" d="M159.602,389.04c-10.483-17.132-16.533-37.259-16.533-58.773
	c0-62.273,50.662-112.935,112.935-112.935s112.935,50.662,112.935,112.935c0,21.514-6.05,41.641-16.533,58.773h134.611
	c4.769-18.801,7.311-38.49,7.311-58.773c0-131.622-106.701-238.322-238.322-238.322S17.681,198.644,17.681,330.267
	c0,20.284,2.542,39.973,7.311,58.773L159.602,389.04L159.602,389.04z"/>
<g>
	<path style="fill:#FF3F62;" d="M368.938,330.267c0-19.172-4.809-37.24-13.272-53.071c14.648-10.835,32.747-17.258,52.324-17.258
		c37.764,0,70.057,23.856,82.602,57.292c0,0,3.734,8.964,3.734,13.037c0,20.284-2.542,39.973-7.311,58.773H352.404
		C362.888,371.908,368.938,351.781,368.938,330.267z"/>
	<path style="fill:#FF3F62;" d="M143.068,330.267c0-19.172,4.809-37.24,13.272-53.071c-14.648-10.835-32.747-17.258-52.324-17.258
		c-37.764,0-70.057,23.856-82.602,57.292c0,0-3.734,8.964-3.734,13.037c0,20.284,2.542,39.973,7.311,58.773h134.611
		C149.118,371.908,143.068,351.781,143.068,330.267z"/>
</g>
<path style="fill:#FFEB99;" d="M159.603,389.04c-10.483-17.132-16.533-37.259-16.533-58.773
	c0-62.273,50.662-112.935,112.935-112.935s112.935,50.662,112.935,112.935c0,21.514-6.05,41.641-16.533,58.773h91.146
	c5.831-18.566,8.98-38.309,8.98-58.773c0-108.365-88.161-196.526-196.526-196.526S59.477,221.901,59.477,330.267
	c0,20.465,3.148,40.208,8.98,58.773L159.603,389.04L159.603,389.04z"/>
<g>
	<path style="fill:#FFDA44;" d="M159.603,389.04c-10.483-17.132-16.533-37.259-16.533-58.773c0-19.172,4.808-37.24,13.272-53.071
		c-14.648-10.835-32.746-17.258-52.324-17.258c-12.05,0-23.537,2.438-34.009,6.833c-6.822,19.928-10.53,41.287-10.53,63.497
		c0,20.465,3.148,40.208,8.98,58.773h91.145V389.04z"/>
	<path style="fill:#FFDA44;" d="M352.404,389.04c10.483-17.132,16.533-37.259,16.533-58.773c0-19.172-4.808-37.24-13.272-53.071
		c14.648-10.835,32.746-17.258,52.324-17.258c12.05,0,23.537,2.438,34.009,6.833c6.822,19.928,10.53,41.287,10.53,63.497
		c0,20.465-3.148,40.208-8.98,58.773h-91.145V389.04z"/>
</g>
<path style="fill:#96C8EF;" d="M159.603,389.04c-10.483-17.132-16.533-37.259-16.533-58.773
	c0-62.273,50.662-112.935,112.935-112.935s112.935,50.662,112.935,112.935c0,21.514-6.05,41.641-16.533,58.773h46.723
	c7.473-18.131,11.607-37.977,11.607-58.773c0-85.318-69.413-154.731-154.731-154.731c-85.319,0-154.731,69.413-154.731,154.731
	c0,20.797,4.134,40.642,11.607,58.773L159.603,389.04L159.603,389.04z"/>
<g>
	<path style="fill:#3D9AE2;" d="M117.672,260.997c-10.484,20.853-16.4,44.382-16.4,69.269c0,20.797,4.134,40.642,11.607,58.773
		h46.723c-10.483-17.132-16.533-37.259-16.533-58.773c0-19.172,4.808-37.24,13.272-53.071
		C145.168,268.93,131.989,263.231,117.672,260.997z"/>
	<path style="fill:#3D9AE2;" d="M394.334,260.997c10.484,20.853,16.4,44.382,16.4,69.269c0,20.797-4.134,40.642-11.607,58.773
		h-46.723c10.483-17.132,16.533-37.259,16.533-58.773c0-19.172-4.808-37.24-13.272-53.071
		C366.839,268.93,380.018,263.231,394.334,260.997z"/>
</g>
<path style="fill:#D1E7F8;" d="M171.441,346.867c-3.684,0-7.238,0.551-10.592,1.563c0.001-0.102,0.007-0.204,0.007-0.306
	c0-31.391-25.447-56.838-56.838-56.838s-56.838,25.447-56.838,56.838c0,0.102,0.007,0.204,0.007,0.306
	c-3.354-1.013-6.908-1.563-10.592-1.563C16.384,346.867,0,363.251,0,383.461s16.384,36.594,36.594,36.594h134.846
	c20.21,0,36.594-16.384,36.594-36.594C208.034,363.251,191.65,346.867,171.441,346.867z"/>
<path style="fill:#96C8EF;" d="M54.611,386.573c3.684,0,7.238,0.55,10.592,1.563c-0.001-0.102-0.007-0.204-0.007-0.306
	c0-31.391,25.447-56.838,56.838-56.838c14.992,0,28.62,5.814,38.775,15.298c-0.971-30.54-26.016-55.004-56.792-55.004
	c-31.391,0-56.838,25.447-56.838,56.838c0,0.102,0.007,0.204,0.007,0.306c-3.354-1.013-6.908-1.563-10.592-1.563
	C16.384,346.867,0,363.251,0,383.461c0,13.765,7.604,25.749,18.837,31.997C22.379,398.951,37.046,386.573,54.611,386.573z"/>
<path style="fill:#97C7ED;" d="M183.684,398.968c-3.887,0-7.259-2.89-7.765-6.846c-1.382-10.84-9.424-11.896-11.855-11.962
	l0.097-7.836l-0.004-7.837c0.003,0,0.007,0,0.01,0c8.316,0,24.712,5.358,27.3,25.651c0.548,4.293-2.489,8.218-6.782,8.766
	C184.348,398.946,184.014,398.968,183.684,398.968z"/>
<path style="fill:#D1E7F8;" d="M475.406,346.867c-3.684,0-7.238,0.551-10.592,1.563c0.001-0.102,0.007-0.204,0.007-0.306
	c0-31.391-25.447-56.838-56.838-56.838s-56.838,25.447-56.838,56.838c0,0.102,0.007,0.204,0.007,0.306
	c-3.354-1.013-6.908-1.563-10.592-1.563c-20.21,0-36.594,16.384-36.594,36.594c0,20.21,16.384,36.594,36.594,36.594h134.846
	c20.21,0,36.594-16.384,36.594-36.594C512,363.251,495.616,346.867,475.406,346.867z"/>
<path style="fill:#96C8EF;" d="M358.577,386.573c3.684,0,7.238,0.55,10.592,1.563c-0.001-0.102-0.007-0.204-0.007-0.306
	c0-31.391,25.447-56.838,56.838-56.838c14.992,0,28.62,5.814,38.775,15.298c-0.971-30.54-26.016-55.004-56.792-55.004
	c-31.391,0-56.838,25.447-56.838,56.838c0,0.102,0.007,0.204,0.007,0.306c-3.354-1.013-6.908-1.563-10.592-1.563
	c-20.21,0-36.594,16.384-36.594,36.594c0,13.765,7.604,25.749,18.837,31.997C326.344,398.951,341.012,386.573,358.577,386.573z"/>
<path style="fill:#97C7ED;" d="M487.649,398.968c-3.886,0-7.259-2.89-7.764-6.846c-1.382-10.84-9.425-11.896-11.856-11.962
	l0.097-7.836l-0.004-7.837c0.003,0,0.007,0,0.01,0c8.316,0,24.712,5.358,27.3,25.651c0.548,4.293-2.489,8.218-6.781,8.766
	C488.314,398.946,487.98,398.968,487.649,398.968z"/>
<g>
	<polygon style="fill:#FFFFFF;" points="156.738,127.593 169.008,150.027 191.442,162.297 169.008,174.567 156.738,197.001 
		144.469,174.567 122.034,162.297 144.469,150.027 	"/>
	<polygon style="fill:#FFFFFF;" points="381.57,184.802 393.839,207.236 416.274,219.506 393.839,231.776 381.57,254.211 
		369.299,231.776 346.864,219.506 369.299,207.236 	"/>
</g>
<g>
</g>
<g>
</g>
<g>
</g>
<g>
</g>
<g>
</g>
<g>
</g>
<g>
</g>
<g>
</g>
<g>
</g>
<g>
</g>
<g>
</g>
<g>
</g>
<g>
</g>
<g>
</g>
<g>
</g>
</svg>
