<?xml version="1.0" encoding="iso-8859-1"?>
<!-- Generator: Adobe Illustrator 19.0.0, SVG Export Plug-In . SVG Version: 6.00 Build 0)  -->
<svg version="1.1" id="Layer_1" xmlns="http://www.w3.org/2000/svg" xmlns:xlink="http://www.w3.org/1999/xlink" x="0px" y="0px"
	 viewBox="0 0 512 512" style="enable-background:new 0 0 512 512;" xml:space="preserve">
<g>
	<path style="fill:#1A6FB0;" d="M184.715,373.253c0,8.655-7.017,15.672-15.672,15.672c-8.655,0-15.672-7.017-15.672-15.672
		c0-8.655,15.672-25.958,15.672-25.958S184.715,364.597,184.715,373.253z"/>
	<path style="fill:#1A6FB0;" d="M360.311,373.253c0,8.655-7.017,15.672-15.672,15.672c-8.655,0-15.672-7.017-15.672-15.672
		c0-8.655,15.672-25.958,15.672-25.958S360.311,364.597,360.311,373.253z"/>
	<path style="fill:#1A6FB0;" d="M272.513,418.98c0,8.655-7.017,15.672-15.672,15.672c-8.655,0-15.672-7.017-15.672-15.672
		c0-8.655,15.672-25.958,15.672-25.958S272.513,410.325,272.513,418.98z"/>
	<path style="fill:#1A6FB0;" d="M452.825,167.228c-5.958,0-11.705,0.89-17.128,2.527c0.001-0.166,0.013-0.329,0.013-0.496
		c0-50.762-41.15-91.912-91.912-91.912s-91.912,41.15-91.912,91.912c0,0.166,0.011,0.33,0.013,0.496
		c-5.423-1.638-11.17-2.527-17.128-2.527c-32.681,0-59.174,26.494-59.174,59.174s26.494,59.174,59.174,59.174h218.054
		c32.681,0,59.174-26.494,59.174-59.174S485.506,167.228,452.825,167.228z"/>
	<path style="fill:#1A6FB0;" d="M277.229,167.228c-5.958,0-11.705,0.89-17.128,2.527c0.001-0.166,0.013-0.329,0.013-0.496
		c0-50.762-41.15-91.912-91.912-91.912s-91.912,41.15-91.912,91.912c0,0.166,0.011,0.33,0.013,0.496
		c-5.423-1.638-11.17-2.527-17.128-2.527C26.494,167.228,0,193.722,0,226.404s26.494,59.174,59.174,59.174h218.054
		c32.681,0,59.174-26.494,59.174-59.174S309.911,167.228,277.229,167.228z"/>
</g>
<path style="fill:#D1E7F8;" d="M364.563,181.978c-5.958,0-11.705,0.89-17.128,2.527c0.001-0.166,0.013-0.329,0.013-0.496
	c0-50.762-41.15-91.912-91.912-91.912s-91.912,41.15-91.912,91.912c0,0.166,0.012,0.33,0.013,0.496
	c-5.423-1.638-11.17-2.527-17.128-2.527c-32.681,0-59.174,26.494-59.174,59.174s26.494,59.174,59.174,59.174h218.054
	c32.681,0,59.174-26.493,59.174-59.174S397.244,181.978,364.563,181.978z"/>
<path style="fill:#96C8EF;" d="M188.912,219.809c5.958,0,11.705,0.889,17.128,2.527c-0.001-0.166-0.013-0.329-0.013-0.496
	c0-50.762,41.15-91.912,91.912-91.912c13.161,0,25.671,2.772,36.99,7.754c-15.944-27.266-45.527-45.585-79.393-45.585
	c-50.762,0-91.912,41.15-91.912,91.912c0,0.166,0.012,0.33,0.013,0.496c-5.423-1.638-11.171-2.527-17.128-2.527
	c-32.681,0-59.174,26.494-59.174,59.176c0,28.084,19.571,51.581,45.812,57.641c-2.201-6.195-3.409-12.861-3.409-19.81
	C129.738,246.302,156.231,219.809,188.912,219.809z"/>
<g>
	<path style="fill:#97C7ED;" d="M292.365,272.346H183.874c-4.328,0-7.836-3.507-7.836-7.836s3.509-7.836,7.836-7.836h108.49
		c4.328,0,7.836,3.507,7.836,7.836S296.693,272.346,292.365,272.346z"/>
	<path style="fill:#97C7ED;" d="M354.009,272.346h-25.883c-4.328,0-7.836-3.507-7.836-7.836s3.509-7.836,7.836-7.836h25.883
		c4.328,0,7.836,3.507,7.836,7.836S358.337,272.346,354.009,272.346z"/>
</g>
<g>
</g>
<g>
</g>
<g>
</g>
<g>
</g>
<g>
</g>
<g>
</g>
<g>
</g>
<g>
</g>
<g>
</g>
<g>
</g>
<g>
</g>
<g>
</g>
<g>
</g>
<g>
</g>
<g>
</g>
</svg>
