<?xml version="1.0" encoding="iso-8859-1"?>
<!-- Generator: Adobe Illustrator 19.0.0, SVG Export Plug-In . SVG Version: 6.00 Build 0)  -->
<svg version="1.1" id="Layer_1" xmlns="http://www.w3.org/2000/svg" xmlns:xlink="http://www.w3.org/1999/xlink" x="0px" y="0px"
	 viewBox="0 0 511.999 511.999" style="enable-background:new 0 0 511.999 511.999;" xml:space="preserve">
<g>
	<path style="fill:#1F544A;" d="M274.638,511.999c-11.805-101.019-33.39-203.835-64.155-303.812
		c-1.265-4.113-5.622-6.419-9.736-5.153c-4.111,1.265-6.419,5.624-5.153,9.735c30.488,99.073,51.771,199.15,63.466,299.23H274.638z"
		/>
	<path style="fill:#1F544A;" d="M160.062,96.241c-3.084,0-6.004-1.843-7.227-4.88c-10.4-25.811-17.24-40.209-17.309-40.351
		c-1.851-3.882-0.204-8.53,3.678-10.382c3.884-1.849,8.529-0.206,10.382,3.677c0.285,0.596,7.094,14.919,17.696,41.235
		c1.608,3.99-0.324,8.527-4.314,10.136C162.016,96.059,161.031,96.241,160.062,96.241z"/>
	<path style="fill:#1F544A;" d="M259.655,511.999c4.949-108.511,20.25-219.043,45.478-327.883c0.972-4.191,5.164-6.796,9.347-5.829
		c4.19,0.972,6.8,5.156,5.829,9.347c-25.017,107.92-40.17,216.797-45.075,324.365H259.655z"/>
	<path style="fill:#1F544A;" d="M349.31,60.376c-0.793,0-1.599-0.122-2.395-0.378c-4.094-1.321-6.341-5.712-5.02-9.805
		c9.307-28.83,15.475-44.594,15.733-45.251c1.572-4.002,6.091-5.974,10.096-4.401c4.002,1.572,5.975,6.092,4.403,10.096
		c-0.062,0.157-6.268,16.028-15.408,44.341C355.656,58.276,352.598,60.376,349.31,60.376z"/>
</g>
<path style="fill:#FFCD00;" d="M221.425,204.16l-40.937,13.18c-8.821,2.84-18.274-2.008-21.114-10.83l-29.35-91.161
	c-2.84-8.821,2.008-18.274,10.83-21.114l40.937-13.18c8.821-2.84,18.274,2.008,21.114,10.83l29.35,91.161
	C235.094,191.867,230.245,201.319,221.425,204.16z"/>
<path style="opacity:0.13;fill:#663A00;enable-background:new    ;" d="M232.254,183.035l-29.35-91.161
	c-2.757-8.564-11.747-13.361-20.34-11.035l28.611,88.864c2.84,8.821-2.008,18.275-10.83,21.114l-40.937,13.18
	c-0.257,0.083-0.515,0.137-0.774,0.207l0.739,2.296c2.84,8.821,12.293,13.67,21.114,10.83l40.937-13.18
	C230.245,201.309,235.094,191.856,232.254,183.035z"/>
<path style="fill:#FFCD00;" d="M290.213,180.351l46.849,11.501c9,2.209,18.087-3.295,20.296-12.295l24.941-101.594
	c2.209-9-3.295-18.087-12.295-20.296l-46.849-11.501c-9-2.209-18.087,3.295-20.296,12.295l-24.941,101.594
	C275.709,169.055,281.213,178.142,290.213,180.351z"/>
<path style="opacity:0.13;fill:#663A00;enable-background:new    ;" d="M370.005,57.276l-2.658-0.652l-24.456,99.62
	c-2.209,9-11.296,14.504-20.296,12.295l-44.192-10.848l-0.485,1.974c-2.209,9,3.295,18.087,12.295,20.296l46.849,11.501
	c9,2.209,18.087-3.295,20.296-12.295L382.3,77.573C384.509,68.572,379.004,59.485,370.005,57.276z"/>
<path style="fill:#3EAC92;" d="M267.435,511.999c0,0,19.113-125.578,102.175-239.691c0,0-31.827,124.982-58.172,239.691
	L267.435,511.999L267.435,511.999z"/>
<path style="opacity:0.19;fill:#266659;enable-background:new    ;" d="M354.001,295.001
	c-10.348,41.191-53.884,131.913-73.425,216.998h30.861c26.344-114.71,58.172-239.691,58.172-239.691
	C364.13,279.836,358.937,287.413,354.001,295.001z"/>
<path style="fill:#3EAC92;" d="M262.233,511.999c0,0-19.113-125.578-102.175-239.691c0,0,31.827,124.982,58.172,239.691
	L262.233,511.999L262.233,511.999z"/>
<path style="opacity:0.19;fill:#266659;enable-background:new    ;" d="M160.399,272.308c0,0,31.827,124.982,58.172,239.691h31.005
	c-18.904-82.313-60.111-169.911-70.875-212.827C172.975,290.191,166.883,281.214,160.399,272.308z"/>
<g>
	<path style="fill:#FFEB99;" d="M173.346,177.301c-3.282,0-6.333-2.089-7.404-5.378l-15.021-46.103
		c-1.332-4.09,0.902-8.486,4.993-9.818c4.089-1.337,8.486,0.902,9.818,4.993l15.021,46.103c1.332,4.09-0.902,8.486-4.993,9.818
		C174.959,177.177,174.146,177.301,173.346,177.301z"/>
	<path style="fill:#FFEB99;" d="M315.683,126.525c-0.664,0-1.338-0.085-2.01-0.265c-4.157-1.106-6.63-5.374-5.522-9.53
		l12.479-46.853c1.106-4.157,5.374-6.632,9.53-5.522c4.157,1.106,6.63,5.374,5.522,9.53l-12.479,46.853
		C322.276,124.223,319.126,126.525,315.683,126.525z"/>
</g>
<g>
</g>
<g>
</g>
<g>
</g>
<g>
</g>
<g>
</g>
<g>
</g>
<g>
</g>
<g>
</g>
<g>
</g>
<g>
</g>
<g>
</g>
<g>
</g>
<g>
</g>
<g>
</g>
<g>
</g>
</svg>
