<?xml version="1.0" encoding="iso-8859-1"?>
<!-- Generator: Adobe Illustrator 19.0.0, SVG Export Plug-In . SVG Version: 6.00 Build 0)  -->
<svg version="1.1" id="Layer_1" xmlns="http://www.w3.org/2000/svg" xmlns:xlink="http://www.w3.org/1999/xlink" x="0px" y="0px"
	 viewBox="0 0 512.001 512.001" style="enable-background:new 0 0 512.001 512.001;" xml:space="preserve">
<path style="fill:#C6C5CA;" d="M146.638,11.059c0.001-5.089,2.892-9.471,7.07-10.715c4.179-1.242,8.617,0.957,10.857,5.378
	l139.03,274.643c1.537,2.966,13.986,27.299,24.685,57.222c16.467,46.055,20.192,81.598,11.071,105.637
	c-1.5,3.957-3.926,7.154-7.016,9.247c-2.269,1.538-4.78,2.418-7.464,2.621c-0.001,0,0,0-0.001,0
	c-4.503,0.338-9.188-1.343-13.189-4.737c-8.843-7.496-12.589-21.76-8.524-32.472c8.006-21.102-14.346-81.024-31.947-114.829
	c-0.308-0.586-31.25-59.439-61.784-123.901c-17.986-37.974-32.335-70.48-42.647-96.613
	C153.036,47.705,146.636,24.992,146.638,11.059z"/>
<path style="fill:#ACABB1;" d="M311.125,351.132c-10.699-29.923-23.149-54.255-24.685-57.222L147.409,19.268
	c-0.069-0.136-0.146-0.263-0.219-0.395c-0.367-2.859-0.553-5.46-0.552-7.806c0.001-5.089,2.892-9.471,7.07-10.715
	c4.179-1.242,8.617,0.957,10.856,5.378l139.03,274.643c1.536,2.966,13.986,27.299,24.685,57.222
	c16.467,46.055,20.191,81.598,11.071,105.637c-1.5,3.957-3.926,7.154-7.016,9.247c-2.269,1.538-4.78,2.418-7.464,2.621
	c-0.001,0,0,0-0.001,0c-0.689,0.052-1.383,0.041-2.078-0.001C331.133,431.095,327.216,396.135,311.125,351.132z"/>
<path style="fill:#EE8700;" d="M288.463,343.9l36.999-16.386c4.745-2.102,6.909-7.703,4.807-12.449l-0.792-1.787
	c-2.102-4.745-7.703-6.909-12.449-4.807l-36.999,16.386c-4.745,2.102-6.909,7.703-4.807,12.449l0.792,1.787
	C278.116,343.838,283.717,346.001,288.463,343.9z"/>
<path style="fill:#FF9811;" d="M280.307,324.956l36.999-16.386c4.745-2.102,6.909-7.703,4.807-12.449l-0.792-1.787
	c-2.102-4.745-7.703-6.909-12.449-4.807l-36.999,16.386c-4.745,2.102-6.909,7.703-4.807,12.449l0.792,1.787
	C269.96,324.894,275.562,327.057,280.307,324.956z"/>
<path style="fill:#CC7400;" d="M296.752,328.977L296.752,328.977c-2.319-5.236,0.068-11.419,5.304-13.738l-21.134,9.222
	c-5.236,2.319-7.624,8.501-5.304,13.738l0,0c2.319,5.236,8.501,7.624,13.738,5.304l19.686-8.719
	C304.161,336.131,298.861,333.738,296.752,328.977z"/>
<path style="fill:#EE8700;" d="M288.596,310.034c-2.319-5.236,0.068-11.419,5.304-13.738l-21.133,9.222
	c-5.236,2.319-7.624,8.501-5.305,13.738l0,0c2.319,5.236,8.501,7.624,13.738,5.304l19.686-8.719
	C296.005,317.188,290.705,314.795,288.596,310.034z"/>
<path style="fill:#CC7400;" d="M286.477,344.678l38.095-16.77c0,0,12.808-7.605,17.101,4.496c3.651,9.677,7.422,20.68,10.761,32.407
	c16.298,57.258,13.771,101.854-7.51,132.556c-3.259,4.699-7.691,8.504-12.82,11.003c-3.346,1.629-6.918,2.683-10.617,3.135
	c-8.14,0.991-16.337-1.036-23.08-5.711c-7.339-5.086-12.258-12.727-13.85-21.513c-1.592-8.787,0.332-17.667,5.42-25.006
	c12.864-18.559,4.317-61.855-9.122-99.055l0.004,0.004C280.86,360.221,276.476,348.968,286.477,344.678z"/>
<path style="fill:#AA6100;" d="M319.542,496.569c-7.338-5.087-12.258-12.727-13.85-21.512c-1.592-8.787,0.332-17.667,5.42-25.006
	c12.864-18.559,4.317-61.855-9.122-99.055l0.004,0.004c0,0-4.384-11.254,5.617-15.544l-21.133,9.222
	c-10.001,4.29-5.617,15.544-5.617,15.544l-0.004-0.004c13.439,37.2,21.987,80.496,9.122,99.055
	c-5.087,7.34-7.011,16.219-5.42,25.006c1.593,8.787,6.512,16.426,13.85,21.512c6.742,4.674,14.94,6.702,23.08,5.711
	c3.699-0.45,7.271-1.504,10.617-3.135c3.114-1.517,5.964-3.521,8.459-5.909C333.11,502.902,325.716,500.85,319.542,496.569z"/>
<path style="fill:#E0E0E2;" d="M365.363,11.059c-0.001-5.089-2.892-9.471-7.07-10.715c-4.179-1.242-8.617,0.957-10.856,5.378
	l-139.03,274.643c-1.536,2.966-13.986,27.299-24.685,57.222c-16.467,46.055-20.192,81.598-11.071,105.637
	c1.5,3.957,3.926,7.154,7.016,9.247c2.269,1.538,4.78,2.418,7.464,2.621c0.001,0,0,0,0.001,0c4.503,0.338,9.188-1.343,13.189-4.737
	c8.843-7.496,12.589-21.76,8.524-32.472c-8.006-21.102,14.346-81.024,31.947-114.829c0.308-0.586,31.25-59.439,61.784-123.901
	c17.986-37.974,32.335-70.48,42.647-96.613C358.965,47.705,365.365,24.992,365.363,11.059z"/>
<path style="fill:#C6C5CA;" d="M200.877,351.132c10.699-29.923,23.149-54.255,24.685-57.222l139.03-274.643
	c0.069-0.136,0.146-0.263,0.219-0.395c0.367-2.859,0.553-5.46,0.552-7.806c-0.001-5.089-2.892-9.471-7.07-10.715
	c-4.179-1.242-8.617,0.957-10.856,5.378l-139.03,274.643c-1.536,2.966-13.986,27.299-24.685,57.222
	c-16.467,46.055-20.191,81.598-11.071,105.637c1.5,3.957,3.926,7.154,7.016,9.247c2.269,1.538,4.78,2.418,7.464,2.621h0.001
	c0.689,0.052,1.383,0.041,2.078-0.001C180.869,431.095,184.786,396.135,200.877,351.132z"/>
<circle style="fill:#CC7400;" cx="257.175" cy="226.945" r="19.693"/>
<path style="fill:#FF9811;" d="M222.303,344.152l-36.999-16.386c-4.745-2.102-6.909-7.703-4.807-12.449l0.792-1.787
	c2.102-4.745,7.703-6.909,12.449-4.807l36.999,16.386c4.745,2.102,6.909,7.703,4.807,12.449l-0.792,1.787
	C232.649,344.091,227.047,346.253,222.303,344.152z"/>
<path style="fill:#FFB655;" d="M230.458,325.209l-36.999-16.386c-4.745-2.102-6.909-7.703-4.807-12.449l0.792-1.787
	c2.102-4.745,7.703-6.909,12.449-4.807l36.999,16.386c4.745,2.102,6.909,7.703,4.807,12.449l-0.792,1.787
	C240.805,325.147,235.203,327.31,230.458,325.209z"/>
<path style="fill:#EE8700;" d="M201.101,323.358c2.279-5.146,8.287-7.53,13.464-5.41l-19.936-8.828
	c-5.236-2.319-11.419,0.068-13.738,5.304c-2.319,5.236,0.068,11.419,5.304,13.738l20.209,8.934
	C201.169,334.777,198.782,328.594,201.101,323.358z"/>
<path style="fill:#FF9811;" d="M209.257,304.414c2.279-5.146,8.288-7.53,13.465-5.409l-19.937-8.829
	c-5.236-2.319-11.419,0.068-13.738,5.304c-2.319,5.236,0.068,11.419,5.304,13.738l20.209,8.934
	C209.325,315.833,206.938,309.651,209.257,304.414z"/>
<path style="fill:#EE8700;" d="M224.288,344.929l-38.095-16.77c0,0-12.808-7.605-17.101,4.496
	c-3.651,9.677-7.422,20.68-10.761,32.407c-16.297,57.258-13.771,101.854,7.51,132.556c3.259,4.699,7.691,8.504,12.82,11.003
	c3.346,1.629,6.918,2.683,10.617,3.135c8.14,0.991,16.338-1.036,23.08-5.711c7.339-5.086,12.258-12.727,13.85-21.513
	c1.592-8.787-0.332-17.667-5.42-25.006c-12.864-18.559-4.317-61.855,9.122-99.055l-0.004,0.004
	C229.905,360.473,234.289,349.22,224.288,344.929z"/>
<path style="fill:#CC7400;" d="M186.051,506.551c-21.281-30.701-23.807-75.298-7.51-132.556c3.337-11.727,7.109-22.73,10.761-32.407
	c2.979-8.398,10.057-7.304,14.112-5.848l-17.219-7.58c0,0-12.808-7.605-17.101,4.496c-3.651,9.677-7.422,20.68-10.761,32.407
	c-16.297,57.258-13.771,101.854,7.51,132.556c3.259,4.699,7.691,8.504,12.82,11.003c3.346,1.629,6.918,2.683,10.617,3.135
	c0.469,0.057,0.937,0.101,1.406,0.139C188.963,510.282,187.401,508.499,186.051,506.551z"/>
<path style="fill:#AA6100;" d="M333.732,463.846c-1.009,0-2.035-0.196-3.024-0.61c-3.99-1.672-5.87-6.262-4.2-10.252
	c11.031-26.335,2.724-53.336,2.64-53.604c-1.301-4.119,0.974-8.522,5.088-9.833c4.115-1.314,8.512,0.946,9.834,5.058
	c0.423,1.318,10.212,32.625-3.111,64.434C339.702,462.038,336.793,463.846,333.732,463.846z"/>
<g>
</g>
<g>
</g>
<g>
</g>
<g>
</g>
<g>
</g>
<g>
</g>
<g>
</g>
<g>
</g>
<g>
</g>
<g>
</g>
<g>
</g>
<g>
</g>
<g>
</g>
<g>
</g>
<g>
</g>
</svg>
