<?xml version="1.0" encoding="iso-8859-1"?>
<!-- Generator: Adobe Illustrator 19.0.0, SVG Export Plug-In . SVG Version: 6.00 Build 0)  -->
<svg version="1.1" id="Layer_1" xmlns="http://www.w3.org/2000/svg" xmlns:xlink="http://www.w3.org/1999/xlink" x="0px" y="0px"
	 viewBox="0 0 512 512" style="enable-background:new 0 0 512 512;" xml:space="preserve">
<rect x="243.807" y="357.376" style="fill:#57565C;" width="24.381" height="43.886"/>
<path style="fill:#E0E0E2;" d="M314.84,79.252c-20.572-47.745-41.495-69.696-45.542-73.669c-2.855-2.91-6.63-4.847-10.783-5.412
	c-5.344-0.728-10.693,0.903-14.705,4.38c-0.286,0.247-0.564,0.504-0.835,0.768c-3.267,3.152-24.727,24.998-45.814,73.934
	c-28.163,65.36-42.743,147.236-43.334,243.348c-0.03,4.957,1.917,9.723,5.413,13.239s8.247,5.494,13.205,5.494h167.111
	c4.958,0,9.71-1.977,13.205-5.494s5.443-8.282,5.413-13.239C357.582,226.488,343.003,144.613,314.84,79.252z"/>
<g>
	<path style="fill:#D8D7DA;" d="M256.001,0c-4.477,0.001-8.811,1.6-12.191,4.531c-0.286,0.247-0.564,0.504-0.835,0.768
		c-3.267,3.152-24.727,24.998-45.814,73.934c-28.163,65.36-42.743,147.236-43.334,243.348c-0.03,4.957,1.917,9.723,5.413,13.239
		c3.495,3.516,8.247,5.494,13.205,5.494h83.555V0z"/>
	<path style="fill:#D8D7DA;" d="M232.688,95.291c21.086-48.936,42.546-70.78,45.814-73.934c0.271-0.264,0.55-0.521,0.835-0.768
		c0.535-0.464,1.097-0.889,1.677-1.286c-5.842-7.724-10.11-12.143-11.716-13.72c-2.855-2.91-6.63-4.847-10.783-5.412
		c-5.344-0.728-10.693,0.903-14.705,4.38c-0.286,0.247-0.564,0.504-0.835,0.768c-3.267,3.152-24.727,24.998-45.814,73.934
		c-28.163,65.36-42.743,147.236-43.334,243.348c-0.03,4.957,1.917,9.723,5.413,13.239c3.495,3.516,8.247,5.494,13.205,5.494h17.111
		c-0.124-0.889-0.208-1.787-0.202-2.695C189.945,242.525,204.525,160.651,232.688,95.291z"/>
</g>
<g>
	<path style="fill:#C6C5CA;" d="M232.688,95.291c8.063-18.714,16.178-33.453,23.313-44.713V0c-4.477,0.001-8.811,1.6-12.191,4.531
		c-0.286,0.247-0.564,0.504-0.835,0.768c-3.267,3.152-24.727,24.998-45.814,73.934c-28.163,65.36-42.743,147.236-43.334,243.348
		c-0.03,4.957,1.917,9.723,5.413,13.239c3.495,3.516,8.247,5.494,13.205,5.494h17.108c-0.122-0.883-0.205-1.773-0.2-2.675
		C189.945,242.525,204.525,160.651,232.688,95.291z"/>
	<path style="fill:#C6C5CA;" d="M311.888,181.915c-3.609,0-6.857-2.508-7.652-6.18c-6.384-29.461-14.924-56.707-25.383-80.978
		c-1.713-3.975,0.121-8.586,4.096-10.297c3.977-1.715,8.586,0.121,10.297,4.096c10.858,25.198,19.709,53.413,26.306,83.861
		c0.916,4.23-1.769,8.402-6,9.318C312.996,181.856,312.438,181.915,311.888,181.915z"/>
	<path style="fill:#C6C5CA;" d="M322.162,246.054c-3.946,0-7.341-2.973-7.78-6.986c-1.202-10.987-2.657-21.856-4.328-32.305
		c-0.683-4.274,2.228-8.292,6.501-8.976c4.273-0.675,8.292,2.228,8.975,6.502c1.712,10.704,3.202,21.832,4.431,33.074
		c0.47,4.303-2.635,8.171-6.938,8.642C322.735,246.038,322.447,246.054,322.162,246.054z"/>
	<path style="fill:#C6C5CA;" d="M256.001,372L256.001,372c-13.601,0-24.73-11.128-24.73-24.73v-50.852
		c0-13.601,11.128-24.73,24.73-24.73l0,0c13.601,0,24.73,11.128,24.73,24.73v50.852C280.73,360.872,269.602,372,256.001,372z"/>
</g>
<path style="fill:#ACABB1;" d="M255.997,271.69c-13.599,0.002-24.725,11.129-24.725,24.73v50.852c0,13.6,11.126,24.728,24.725,24.73
	V271.69z"/>
<path style="fill:#EE8700;" d="M269.403,393.594h-26.806c-6.256,0-11.327,5.071-11.327,11.327v82.35
	c0.001,13.635,11.094,24.729,24.73,24.729c13.636,0,24.73-11.094,24.73-24.73v-82.35
	C280.73,398.665,275.659,393.594,269.403,393.594z"/>
<path style="fill:#CC7400;" d="M280.73,444.96h-24.73v-7.828h24.73v-15.673h-24.73v-16.538c0-6.256,5.071-11.327,11.327-11.327
	h-24.73c-6.256,0-11.327,5.071-11.327,11.327v82.35c0.001,13.635,11.094,24.729,24.73,24.729c4.502,0,8.724-1.215,12.364-3.327
	c-7.383-4.282-12.364-12.269-12.364-21.403v-26.637h24.73V444.96z"/>
<g>
</g>
<g>
</g>
<g>
</g>
<g>
</g>
<g>
</g>
<g>
</g>
<g>
</g>
<g>
</g>
<g>
</g>
<g>
</g>
<g>
</g>
<g>
</g>
<g>
</g>
<g>
</g>
<g>
</g>
</svg>
