<?xml version="1.0" encoding="iso-8859-1"?>
<!-- Generator: Adobe Illustrator 19.0.0, SVG Export Plug-In . SVG Version: 6.00 Build 0)  -->
<svg version="1.1" id="Layer_1" xmlns="http://www.w3.org/2000/svg" xmlns:xlink="http://www.w3.org/1999/xlink" x="0px" y="0px"
	 viewBox="0 0 511.998 511.998" style="enable-background:new 0 0 511.998 511.998;" xml:space="preserve">
<g>
	
		<rect x="344.018" y="115.907" transform="matrix(-0.3353 -0.9421 0.9421 -0.3353 427.7589 549.3062)" style="fill:#FF9811;" width="127.28" height="15.691"/>
	
		<rect x="455.612" y="60.108" transform="matrix(-0.9421 -0.3353 0.3353 -0.9421 858.5919 395.7321)" style="fill:#FF9811;" width="15.691" height="127.28"/>
</g>
<circle style="fill:#FFA733;" cx="386.333" cy="63.792" r="27.601"/>
<path style="fill:#FFFFFF;" d="M386.328,80.931c-9.45,0-17.139-7.689-17.139-17.139c0-9.451,7.689-17.14,17.139-17.14
	c9.451,0,17.14,7.689,17.14,17.14C403.468,73.243,395.779,80.931,386.328,80.931z"/>
<path style="fill:#57565C;" d="M386.328,70.47c-3.682,0-6.677-2.995-6.677-6.677c0-3.683,2.995-6.678,6.677-6.678
	c3.683,0,6.678,2.995,6.678,6.678C393.006,67.475,390.01,70.47,386.328,70.47z"/>
<circle style="fill:#FFA733;" cx="484.397" cy="63.792" r="27.601"/>
<path style="fill:#FFFFFF;" d="M484.399,80.931c-9.45,0-17.139-7.689-17.139-17.139c0-9.451,7.689-17.14,17.139-17.14
	c9.451,0,17.14,7.689,17.14,17.14S493.85,80.931,484.399,80.931z"/>
<path style="fill:#57565C;" d="M484.399,70.47c-3.682,0-6.677-2.995-6.677-6.677c0-3.683,2.995-6.678,6.677-6.678
	c3.683,0,6.678,2.995,6.678,6.678C491.077,67.475,488.081,70.47,484.399,70.47z"/>
<path style="fill:#FFB655;" d="M489.799,258.538c-0.713-41.844-7.546-74.387-20.307-96.728c-0.44-0.77-0.929-1.511-1.462-2.22
	c-1.896-2.512-12.227-15.045-29.604-15.045c-7.532,0-18.828,2.508-29.862,14.452c-8.619,9.331-16.124,22.421-17.225,40.397
	c-5.062,82.636-73.6,77.837-135.638,110.78c-111.469,59.193-244.86,107.81-244.86,107.81c-7.657,4.212-11.89,12.74-10.615,21.384
	c1.275,8.646,7.788,15.588,16.335,17.412c3.643,0.776,90.348,19.024,188.669,19.026c0.008,0,0.007,0,0.017,0
	c72.51,0,132.298-10.011,177.683-29.755c28.931-12.586,52.322-29.319,69.521-49.735c19.468-23.108,31.203-51.059,34.88-83.081
	C487.562,311.29,490.299,287.843,489.799,258.538z"/>
<path style="fill:#FFA733;" d="M487.016,219.582L487.016,219.582c-2.582,31.048-7.763,55.272-8.211,57.328
	c-7.371,34.762-23.161,64.216-46.935,87.549c-21.004,20.615-48.418,36.543-81.482,47.342
	c-51.867,16.941-118.529,21.702-198.109,14.148c-0.01-0.001-0.009-0.001-0.018-0.001c-42.169-4.004-82.076-10.88-115.313-17.846
	c-16.379,6.334-26.109,9.882-26.109,9.882c-7.657,4.212-11.89,12.74-10.615,21.384c1.275,8.646,7.788,15.588,16.335,17.412
	c3.643,0.776,90.348,19.024,188.669,19.026c0.008,0,0.007,0,0.017,0c72.51,0,132.298-10.011,177.683-29.755
	c28.931-12.586,52.322-29.319,69.521-49.735c19.468-23.108,31.203-51.059,34.88-83.081c0.234-1.944,2.97-25.39,2.47-54.697
	C489.559,244.491,488.627,231.498,487.016,219.582z"/>
<path style="fill:#CC7400;" d="M32.555,295.439C13.145,214.209,63.26,132.624,144.49,113.215
	c101.538-24.263,203.518,38.381,227.781,139.919c0,0-36.176,73.895-124.069,66.645c-9.869,31.412-35.514,57-69.866,65.209
	C113.35,400.516,48.083,360.423,32.555,295.439z"/>
<path style="fill:#AA6100;" d="M182.04,140.588c47.872-11.438,95.836-3.554,135.714,18.611
	c-44.793-41.943-109.113-61.314-173.263-45.985C63.26,132.623,13.145,214.208,32.555,295.438
	c8.914,37.307,34.225,66.404,66.462,81.489c-13.698-14.757-23.9-33.135-28.913-54.114C50.695,241.583,100.81,159.998,182.04,140.588
	z"/>
<path style="fill:#663A00;" d="M96.534,288.826c-4.712-19.721-1.464-40.098,9.15-57.376c10.615-17.277,27.318-29.388,47.041-34.1
	c49.837-11.909,100.072,18.948,111.981,68.787c4.266,17.853,4.166,36.402-0.229,54.071c-5.171,0.16-10.545,0.036-16.131-0.419
	c4.659-16.233,5.052-33.461,1.097-50.005c-9.898-41.422-51.65-67.069-93.073-57.171c-15.646,3.738-28.898,13.345-37.316,27.051
	c-8.419,13.706-10.998,29.87-7.259,45.516c5.972,24.995,31.167,40.471,56.162,34.499c4.214-1.007,8.447,1.593,9.455,5.808
	c1.007,4.214-1.594,8.446-5.808,9.455C138.194,342.924,104.517,322.237,96.534,288.826z"/>
<g>
	<path style="fill:#AA6100;" d="M327.872,268.956c-3.835,0-7.188-2.814-7.755-6.721c-3.18-21.95-12.868-41.66-28.791-58.584
		c-2.97-3.156-2.818-8.122,0.337-11.091c3.155-2.971,8.121-2.819,11.091,0.337c18.175,19.316,29.242,41.887,32.894,67.086
		c0.621,4.289-2.352,8.269-6.64,8.891C328.626,268.929,328.246,268.956,327.872,268.956z"/>
	<path style="fill:#AA6100;" d="M274.395,186.676c-1.549,0-3.115-0.458-4.483-1.413c-15.066-10.514-27.521-15.065-27.645-15.11
		c-4.076-1.47-6.189-5.966-4.718-10.043c1.471-4.077,5.97-6.188,10.043-4.718c0.587,0.211,14.548,5.313,31.3,17.003
		c3.553,2.479,4.424,7.371,1.944,10.924C279.311,185.506,276.872,186.676,274.395,186.676z"/>
</g>
<g>
</g>
<g>
</g>
<g>
</g>
<g>
</g>
<g>
</g>
<g>
</g>
<g>
</g>
<g>
</g>
<g>
</g>
<g>
</g>
<g>
</g>
<g>
</g>
<g>
</g>
<g>
</g>
<g>
</g>
</svg>
