<?xml version="1.0" encoding="iso-8859-1"?>
<!-- Generator: Adobe Illustrator 19.0.0, SVG Export Plug-In . SVG Version: 6.00 Build 0)  -->
<svg version="1.1" id="Layer_1" xmlns="http://www.w3.org/2000/svg" xmlns:xlink="http://www.w3.org/1999/xlink" x="0px" y="0px"
	 viewBox="0 0 512.001 512.001" style="enable-background:new 0 0 512.001 512.001;" xml:space="preserve">
<g>
	<path style="fill:#806749;" d="M281.333,104.907c-0.155-4.329-3.768-7.715-8.118-7.557c-4.329,0.155-7.711,3.789-7.557,8.118
		c2.757,76.96-40.678,130.771-67.861,156.718L200.905,277c0.293,0.032,0.587,0.053,0.881,0.053c1.924,0,3.854-0.705,5.367-2.126
		C236.157,247.687,284.359,189.376,281.333,104.907z"/>
	<path style="fill:#806749;" d="M385.63,91.878c-4.253-0.796-8.353,2.009-9.152,6.264c-3.983,21.262-9.401,40.888-15.777,58.97
		c5.309,2.951,10.475,4.301,14.939,4.81c6.568-18.693,12.146-38.96,16.255-60.893C392.692,96.774,389.887,92.676,385.63,91.878z"/>
	<path style="fill:#806749;" d="M338.588,279.306c-18.788,0-31.406-2.206-32.136-2.337c-4.263-0.764-7.1-4.84-6.336-9.103
		c0.763-4.261,4.843-7.092,9.096-6.338l0,0c0.232,0.042,23.547,4.075,53.376,0.792c39.343-4.332,70.866-18.662,93.694-42.59
		c2.989-3.135,7.953-3.252,11.088-0.261c3.134,2.989,3.251,7.953,0.261,11.088c-25.188,26.403-61.084,42.796-103.806,47.407
		C354.666,278.95,346.129,279.306,338.588,279.306z"/>
</g>
<path style="fill:#5F4D37;" d="M419.84,263.522c18.491-8.081,34.609-19.151,47.791-32.967c2.989-3.134,2.872-8.097-0.261-11.088
	s-8.097-2.873-11.088,0.261c-12.249,12.84-27.026,22.889-44.148,30.139C414.042,255.582,416.859,260.067,419.84,263.522z"/>
<path style="fill:#806749;" d="M189.505,243.353c-9.146,0-31.633-0.703-57.579-6.667c-44.702-10.275-78.089-31.479-96.551-61.32
	c-2.279-3.683-1.141-8.517,2.543-10.795s8.517-1.141,10.795,2.543c39.532,63.897,143.458,60.543,144.5,60.502
	c4.379-0.16,7.974,3.199,8.146,7.525c0.171,4.329-3.199,7.975-7.525,8.146C193.581,243.299,192.066,243.353,189.505,243.353z"/>
<path style="fill:#5F4D37;" d="M48.713,167.114c-2.279-3.683-7.112-4.821-10.795-2.543s-4.821,7.112-2.543,10.795
	c10.928,17.663,27.087,32.298,47.724,43.434c3.471-3.027,6.951-7.12,9.66-12.614C75.511,197.309,59.647,184.788,48.713,167.114z"/>
<path style="fill:#A78966;" d="M228.376,511.97c-0.039,0-0.077-0.001-0.116-0.001c-4.331-0.064-7.789-3.625-7.727-7.955
	c0.008-0.581,0.714-59.113-10.213-142.035c-10.063-76.373-32.336-189.671-81.296-295.7c-1.815-3.933-0.099-8.592,3.832-10.408
	c3.936-1.815,8.593-0.099,10.408,3.832c49.832,107.92,72.448,222.996,82.646,300.527c11.045,83.981,10.313,143.423,10.304,144.012
	C236.152,508.534,232.653,511.97,228.376,511.97z"/>
<path style="fill:#806749;" d="M143.265,59.704c-1.815-3.932-6.472-5.647-10.408-3.832c-3.932,1.816-5.647,6.476-3.832,10.408
	c7.328,15.868,14.045,31.9,20.225,47.945c2.467-0.523,4.875-1.273,7.205-2.261c2.274-0.965,4.728-2.255,7.199-3.971
	C157.419,91.837,150.647,75.691,143.265,59.704z"/>
<path style="fill:#A78966;" d="M385.63,91.878c-4.253-0.796-8.353,2.009-9.152,6.264c-17.266,92.167-61.265,153.975-95.134,189.595
	c-28.283,29.744-54.409,46.709-65.151,53.053c0.481,5.357,1.046,11.52,1.557,17.057c0.118-0.052,0.238-0.095,0.355-0.154
	c1.431-0.723,35.497-18.179,74.111-58.63c35.52-37.211,81.646-101.772,99.679-198.034C392.692,96.774,389.887,92.676,385.63,91.878z
	"/>
<path style="fill:#5F4D37;" d="M273.216,97.351c-4.329,0.155-7.711,3.789-7.557,8.118c0.472,13.149-0.408,25.621-2.322,37.395
	c3.318,0.868,6.755,1.312,10.314,1.312c0.524,0,1.054-0.01,1.581-0.031c1.217-0.049,2.502-0.157,3.843-0.341
	c1.892-12.269,2.748-25.238,2.259-38.896C281.179,100.578,277.565,97.192,273.216,97.351z"/>
<path style="fill:#C70024;" d="M146.102,16.863c5.953,14.034,12.139,60.269-1.897,66.221c-14.034,5.953-42.975-30.63-48.928-44.665
	c-5.953-14.034,0.599-30.238,14.633-36.191S140.149,2.829,146.102,16.863z"/>
<path style="fill:#A5001E;" d="M116.19,33.832c-5.17-12.189-0.904-26.01,9.501-33.334c-5.14-0.952-10.606-0.461-15.778,1.733
	C95.877,8.183,89.325,24.386,95.278,38.42c5.953,14.035,34.893,50.617,48.928,44.665c2.91-1.234,4.94-4.217,6.294-8.269
	C136.559,65.567,120.46,43.899,116.19,33.832z"/>
<path style="fill:#C70024;" d="M505.039,217.171c-10.122,11.4-49.226,36.83-60.626,26.708s9.221-51.962,19.343-63.363
	c10.122-11.4,27.569-12.437,38.968-2.315C514.124,188.324,515.16,205.772,505.039,217.171z"/>
<path style="fill:#A5001E;" d="M484.667,175.929c1.443-1.625,3.038-3.031,4.739-4.233c-9.184-1.686-19,1.329-25.651,8.822
	c-10.122,11.4-30.742,53.241-19.343,63.363c4.846,4.303,14.703,2.17,25.208-2.568c-1.675-0.346-3.135-0.991-4.295-2.021
	C453.925,229.168,474.545,187.328,484.667,175.929z"/>
<path style="fill:#C70024;" d="M50.369,130.522c8.624,12.572,23.879,56.653,11.307,65.277s-48.207-21.474-56.832-34.045
	s-5.425-29.753,7.146-38.377S41.744,117.952,50.369,130.522z"/>
<path style="fill:#A5001E;" d="M25.757,157.165c-8.557-12.473-5.469-29.482,6.86-38.17c-6.932-1.28-14.353,0.078-20.627,4.382
	c-12.572,8.624-15.771,25.807-7.146,38.377c8.624,12.572,44.26,42.67,56.832,34.045c1.902-1.305,3.158-3.432,3.905-6.128
	C50.389,182.741,31.687,165.809,25.757,157.165z"/>
<path style="fill:#C70024;" d="M299.116,51.512c0.615,15.233-9.92,60.673-25.152,61.289c-15.233,0.615-29.396-43.829-30.01-59.062
	s11.235-28.079,26.468-28.695C285.655,24.43,298.501,36.28,299.116,51.512z"/>
<path style="fill:#A5001E;" d="M276.541,25.482c-1.978-0.363-4.026-0.523-6.12-0.437c-15.233,0.615-27.083,13.462-26.468,28.694
	c0.615,15.233,14.778,59.677,30.01,59.062c4.28-0.173,8.188-3.884,11.583-9.47c-11.249-11.87-20.195-42.144-20.681-54.181
	C264.475,39.438,269.154,30.703,276.541,25.482z"/>
<path style="fill:#C70024;" d="M410.702,72.257c-0.872,15.22-15.786,59.418-31.005,58.545c-15.22-0.872-24.984-46.485-24.111-61.705
	c0.872-15.22,13.918-26.851,29.138-25.978C399.943,43.991,411.575,57.037,410.702,72.257z"/>
<path style="fill:#A5001E;" d="M376.499,64.508c0.501-8.737,5.018-16.287,11.651-20.971c-1.119-0.205-2.26-0.351-3.425-0.418
	c-15.22-0.872-28.265,10.758-29.138,25.978c-0.872,15.22,8.891,60.833,24.111,61.705c4.509,0.258,8.989-3.438,13.087-9.164
	C382.152,109.557,375.786,76.923,376.499,64.508z"/>
<g>
</g>
<g>
</g>
<g>
</g>
<g>
</g>
<g>
</g>
<g>
</g>
<g>
</g>
<g>
</g>
<g>
</g>
<g>
</g>
<g>
</g>
<g>
</g>
<g>
</g>
<g>
</g>
<g>
</g>
</svg>
