<?xml version="1.0" encoding="iso-8859-1"?>
<!-- Generator: Adobe Illustrator 19.0.0, SVG Export Plug-In . SVG Version: 6.00 Build 0)  -->
<svg version="1.1" id="Layer_1" xmlns="http://www.w3.org/2000/svg" xmlns:xlink="http://www.w3.org/1999/xlink" x="0px" y="0px"
	 viewBox="0 0 512.001 512.001" style="enable-background:new 0 0 512.001 512.001;" xml:space="preserve">
<path style="fill:#6DC82A;" d="M241.684,245.732c-1.23,0.111-12.348,0.956-23.855-3.434c-10.324-3.938-27.307-14.855-25.065-43.725
	c0.315-4.042,3.383-7.329,7.394-7.919c1.183-0.174,11.885-1.576,23.253,2.761c0.001,0,0.002,0.001,0.002,0.001
	c7.558,2.883,13.634,7.603,18.058,14.028c5.295,7.688,8.025,17.638,8.117,29.573C249.624,241.535,246.185,245.326,241.684,245.732z"
	/>
<path style="fill:#5EAC24;" d="M241.472,207.445c-4.425-6.425-10.5-11.145-18.058-14.028c-0.001,0-0.002,0-0.002-0.001
	c-11.368-4.336-22.07-2.935-23.253-2.761c-4.011,0.59-7.08,3.878-7.394,7.919c-0.245,3.15-0.249,6.074-0.069,8.811
	c4.357,0.091,10.292,0.753,16.436,3.097l0.002,0.001c7.558,2.883,13.634,7.603,18.058,14.028c4.013,5.827,6.55,12.958,7.585,21.265
	c3.743,0.205,6.35,0.008,6.908-0.043c4.502-0.405,7.94-4.196,7.906-8.717C249.496,225.083,246.766,215.134,241.472,207.445z"/>
<path style="fill:#91DC5A;" d="M247.638,370.782c-4.328,0-7.837-3.508-7.837-7.837V144.561c0-4.329,3.509-7.837,7.837-7.837
	c4.328,0,7.837,3.508,7.837,7.837v218.384C255.474,367.274,251.966,370.782,247.638,370.782z"/>
<path style="fill:#6DC82A;" d="M296.762,190.437c-1.23-0.111-12.348-0.956-23.855,3.434c-10.324,3.938-27.307,14.855-25.065,43.725
	c0.315,4.042,3.383,7.329,7.394,7.919c1.183,0.175,11.885,1.576,23.253-2.761c0.001,0,0.002-0.001,0.002-0.001
	c7.559-2.884,13.634-7.604,18.059-14.028c5.294-7.688,8.026-17.638,8.117-29.573C304.703,194.634,301.264,190.843,296.762,190.437z"
	/>
<path style="fill:#5EAC24;" d="M288.28,210.59c5.801-2.213,11.5-3.094,15.887-3.412c0.308-2.566,0.48-5.239,0.501-8.024
	c0.034-4.52-3.403-8.311-7.905-8.717c-1.23-0.111-12.348-0.956-23.855,3.434c-10.324,3.938-27.307,14.855-25.065,43.725
	c0.314,4.043,3.383,7.329,7.394,7.919c0.596,0.088,3.602,0.485,7.888,0.306C264.473,223.242,279.039,214.114,288.28,210.59z"/>
<path style="fill:#FFE477;" d="M233.005,123.644c-29.266,70.653-91.347,8.571-20.694-20.694c-70.653,29.266-70.653-58.531,0-29.266
	c-70.653-29.265-8.571-91.347,20.694-20.694c-29.266-70.653,58.531-70.653,29.265,0c29.266-70.653,91.347-8.571,20.694,20.694
	c70.653-29.265,70.653,58.531,0,29.265c70.653,29.266,8.571,91.347-20.694,20.694C291.536,194.296,203.739,194.296,233.005,123.644z
	"/>
<g>
	<path style="fill:#FFCD00;" d="M231.17,48.19c1.132,2.955,1.831,4.791,1.831,4.791l14.633,35.327l14.633-35.327
		c0,0,1.414-3.997,3.499-9.95C282.704-16.015,208.95-14.291,231.17,48.19z"/>
	<path style="fill:#FFCD00;" d="M207.51,104.785c2.955-1.132,4.791-1.831,4.791-1.831l35.327-14.633l-35.327-14.633
		c0,0-3.997-1.414-9.95-3.499C143.304,53.25,145.029,127.005,207.51,104.785z"/>
	<path style="fill:#FFCD00;" d="M264.105,128.444c-1.132-2.955-1.831-4.791-1.831-4.791l-14.633-35.327l-14.633,35.327
		c0,0-1.414,3.997-3.499,9.95C212.57,192.65,286.325,190.926,264.105,128.444z"/>
	<path style="fill:#FFCD00;" d="M287.765,71.849c-2.955,1.132-4.791,1.831-4.791,1.831l-35.327,14.633l35.327,14.633
		c0,0,3.997,1.414,9.95,3.499C351.97,123.384,350.247,49.629,287.765,71.849z"/>
</g>
<circle style="fill:#FFFFFF;" cx="247.641" cy="88.316" r="16.718"/>
<path style="fill:#CC7400;" d="M350.036,358.408c-1.052,0-2.096,0.038-3.138,0.079c-13.892-36.685-49.346-62.77-90.899-62.77
	s-77.007,26.085-90.898,62.77c-1.042-0.042-2.086-0.079-3.138-0.079c-42.413,0-76.796,34.383-76.796,76.796
	s34.382,76.797,76.796,76.797c24.002,0,45.426-11.016,59.508-28.262c10.73,4.08,22.366,6.321,34.528,6.321
	c12.162,0,23.799-2.24,34.528-6.321c14.083,17.246,35.507,28.262,59.509,28.262c42.413,0,76.796-34.383,76.796-76.796
	S392.449,358.408,350.036,358.408z"/>
<g>
	<path style="fill:#AA6100;" d="M256,295.717c-41.552,0-77.007,26.085-90.898,62.77c-1.042-0.042-2.086-0.079-3.138-0.079
		c-42.413,0-76.796,34.383-76.796,76.796c0,42.413,34.382,76.796,76.796,76.796c24.003,0,45.427-11.017,59.51-28.266
		c10.646,4.048,22.185,6.285,34.243,6.32c-10.696-15.611-16.957-34.498-16.957-54.851c0-53.666,43.504-97.17,97.17-97.17
		c0.095,0,0.188,0.003,0.283,0.003C318.707,312.485,289.313,295.717,256,295.717z"/>
	<circle style="fill:#AA6100;" cx="341.681" cy="460.122" r="16.718"/>
	<circle style="fill:#AA6100;" cx="308.245" cy="379.664" r="16.718"/>
	<circle style="fill:#AA6100;" cx="295.706" cy="436.089" r="7.314"/>
	<circle style="fill:#AA6100;" cx="379.298" cy="443.403" r="7.314"/>
	<circle style="fill:#AA6100;" cx="343.531" cy="411.168" r="7.314"/>
	<circle style="fill:#AA6100;" cx="386.612" cy="403.854" r="7.314"/>
</g>
<g>
	<circle style="fill:#CC7400;" cx="386.612" cy="316.971" r="16.718"/>
	<circle style="fill:#CC7400;" cx="350.845" cy="285.624" r="7.314"/>
</g>
<g>
	<circle style="fill:#AA6100;" cx="129.567" cy="322.195" r="16.718"/>
	<circle style="fill:#AA6100;" cx="171.363" cy="292.938" r="7.314"/>
	<circle style="fill:#AA6100;" cx="92.484" cy="346.228" r="7.314"/>
	<circle style="fill:#AA6100;" cx="92.484" cy="305.477" r="7.314"/>
</g>
<g>
</g>
<g>
</g>
<g>
</g>
<g>
</g>
<g>
</g>
<g>
</g>
<g>
</g>
<g>
</g>
<g>
</g>
<g>
</g>
<g>
</g>
<g>
</g>
<g>
</g>
<g>
</g>
<g>
</g>
</svg>
