<?xml version="1.0" encoding="iso-8859-1"?>
<!-- Generator: Adobe Illustrator 19.0.0, SVG Export Plug-In . SVG Version: 6.00 Build 0)  -->
<svg version="1.1" id="Layer_1" xmlns="http://www.w3.org/2000/svg" xmlns:xlink="http://www.w3.org/1999/xlink" x="0px" y="0px"
	 viewBox="0 0 512 512" style="enable-background:new 0 0 512 512;" xml:space="preserve">
<path style="fill:#6DC82A;" d="M232.445,104.132c4.438-35.661,26.14-82.574,104.325-103.548c8.557-2.295,17.444,2.357,20.435,10.697
	c0.946,2.638,22.832,65.207-6.544,115.944c-17.152,29.623-47.464,48.506-90.095,56.126c-0.995,0.178-1.997,0.265-2.996,0.265
	c-2.891,0-5.753-0.737-8.306-2.164c-3.404-1.903-8.549-4.779-14.103-29.253C232.597,140.907,230.047,123.4,232.445,104.132z"/>
<path style="fill:#5EAC24;" d="M232.445,104.132c-2.398,19.268,0.154,36.773,2.716,48.065c5.554,24.475,10.699,27.35,14.103,29.253
	c2.553,1.427,5.415,2.164,8.306,2.164c0.999,0,2.001-0.088,2.996-0.265c16.664-2.978,31.436-7.685,44.285-14.075
	c0.889-3.152,1.74-6.522,2.561-10.141c3.117-13.736,6.211-35.099,3.253-58.874c-2.456-19.728-10.044-47.717-31.738-73.621
	C246.732,49.717,235.499,79.59,232.445,104.132z"/>
<path style="fill:#91DC5A;" d="M279.555,104.132c-4.438-35.661-26.14-82.574-104.325-103.548
	c-8.557-2.295-17.444,2.357-20.435,10.697c-0.946,2.638-22.832,65.207,6.544,115.944c17.152,29.623,47.464,48.506,90.095,56.126
	c0.995,0.178,1.997,0.265,2.996,0.265c2.891,0,5.753-0.737,8.306-2.164c3.404-1.903,8.549-4.779,14.103-29.253
	C279.403,140.907,281.953,123.4,279.555,104.132z"/>
<path style="fill:#6DC82A;" d="M266.486,177.015C164.821,144.262,177.874,39.312,186.402,3.88c-3.59-1.158-7.309-2.259-11.171-3.296
	c-8.557-2.295-17.444,2.357-20.435,10.697c-0.946,2.638-22.832,65.207,6.544,115.944c17.139,29.602,47.422,48.479,90.004,56.109
	c1.62,0.074,3.265,0.131,4.927,0.176c2.255-0.246,4.457-0.934,6.465-2.057c0.843-0.471,1.794-1.004,2.832-1.909
	C265.853,178.791,266.159,177.956,266.486,177.015z"/>
<path style="fill:#FF728B;" d="M441.076,251.778C441.076,335.092,358.215,512,256,512S70.924,335.092,70.924,251.778
	S153.785,100.925,256,100.925S441.076,168.464,441.076,251.778z"/>
<g>
	<path style="fill:#FF3F62;" d="M141.844,251.778c0-73.427,64.368-134.591,149.616-148.076c-11.478-1.816-23.33-2.777-35.46-2.777
		c-102.215,0-185.076,67.539-185.076,150.853C70.924,335.092,153.785,512,256,512c12.128,0,23.982-2.494,35.46-7.024
		C206.21,471.333,141.844,325.207,141.844,251.778z"/>
	<path style="fill:#FF3F62;" d="M388.619,350.532c-0.994,0-2.003-0.19-2.98-0.591c-4.003-1.648-5.912-6.227-4.264-10.23
		c4.132-10.037,7.788-20.174,10.868-30.126c1.279-4.135,5.668-6.447,9.803-5.169c4.135,1.28,6.449,5.669,5.169,9.803
		c-3.219,10.402-7.036,20.986-11.347,31.458C394.625,348.702,391.702,350.532,388.619,350.532z"/>
	<path style="fill:#FF3F62;" d="M297.468,475.153c-2.593,0-5.13-1.285-6.624-3.637c-2.32-3.654-1.239-8.496,2.416-10.817
		c20.928-13.289,42.107-36.818,61.247-68.045c2.554-4.166,5.07-8.466,7.479-12.779c2.11-3.779,6.884-5.13,10.663-3.021
		c3.778,2.111,5.132,6.885,3.021,10.663c-2.512,4.497-5.136,8.981-7.799,13.327c-20.381,33.252-43.277,58.524-66.209,73.085
		C300.358,474.759,298.904,475.153,297.468,475.153z"/>
	<circle style="fill:#FF3F62;" cx="256" cy="393.404" r="20.32"/>
	<circle style="fill:#FF3F62;" cx="174.717" cy="230.87" r="20.32"/>
	<circle style="fill:#FF3F62;" cx="256" cy="230.87" r="20.32"/>
	<circle style="fill:#FF3F62;" cx="337.283" cy="230.87" r="20.32"/>
	<circle style="fill:#FF3F62;" cx="215.364" cy="312.372" r="20.32"/>
	<circle style="fill:#FF3F62;" cx="296.636" cy="312.372" r="20.32"/>
</g>
<g>
</g>
<g>
</g>
<g>
</g>
<g>
</g>
<g>
</g>
<g>
</g>
<g>
</g>
<g>
</g>
<g>
</g>
<g>
</g>
<g>
</g>
<g>
</g>
<g>
</g>
<g>
</g>
<g>
</g>
</svg>
