<?xml version="1.0" encoding="iso-8859-1"?>
<!-- Generator: Adobe Illustrator 19.0.0, SVG Export Plug-In . SVG Version: 6.00 Build 0)  -->
<svg version="1.1" id="Layer_1" xmlns="http://www.w3.org/2000/svg" xmlns:xlink="http://www.w3.org/1999/xlink" x="0px" y="0px"
	 viewBox="0 0 512 512" style="enable-background:new 0 0 512 512;" xml:space="preserve">
<g>
	<path style="fill:#FFDA44;" d="M255.652,135.885c-4.33,0-7.84-3.51-7.84-7.84V7.84c0-4.33,3.51-7.84,7.84-7.84
		c4.329,0,7.84,3.51,7.84,7.84v120.206C263.491,132.375,259.981,135.885,255.652,135.885z"/>
	<path style="fill:#FFDA44;" d="M170.82,171.312c-3.062,3.062-8.026,3.062-11.087,0L74.735,86.314
		c-3.062-3.062-3.062-8.026,0-11.087c3.062-3.062,8.026-3.062,11.087,0l84.998,84.998
		C173.881,163.287,173.881,168.251,170.82,171.312z"/>
	<path style="fill:#FFDA44;" d="M135.885,256.348c0,4.329-3.51,7.84-7.84,7.84H7.84c-4.33,0-7.84-3.51-7.84-7.84
		c0-4.33,3.51-7.84,7.84-7.84h120.206C132.375,248.509,135.885,252.019,135.885,256.348z"/>
	<path style="fill:#FFDA44;" d="M171.312,341.181c3.062,3.062,3.062,8.026,0,11.087l-84.998,84.998
		c-3.062,3.062-8.026,3.062-11.087,0c-3.062-3.062-3.062-8.026,0-11.087l84.998-84.998
		C163.287,338.119,168.251,338.119,171.312,341.181z"/>
	<path style="fill:#FFDA44;" d="M256.348,376.115c4.329,0,7.84,3.51,7.84,7.84V504.16c0,4.329-3.51,7.84-7.84,7.84
		c-4.33,0-7.84-3.51-7.84-7.84V383.955C248.509,379.625,252.019,376.115,256.348,376.115z"/>
	<path style="fill:#FFDA44;" d="M341.181,340.688c3.062-3.062,8.026-3.062,11.087,0l84.998,84.998c3.062,3.062,3.062,8.026,0,11.087
		c-3.062,3.062-8.026,3.062-11.087,0l-84.998-84.998C338.119,348.713,338.119,343.749,341.181,340.688z"/>
	<path style="fill:#FFDA44;" d="M376.115,255.652c0-4.33,3.51-7.84,7.84-7.84H504.16c4.329,0,7.84,3.51,7.84,7.84
		c0,4.329-3.51,7.84-7.84,7.84H383.955C379.625,263.491,376.115,259.981,376.115,255.652z"/>
	<path style="fill:#FFDA44;" d="M340.688,170.82c-3.062-3.062-3.062-8.026,0-11.087l84.998-84.998c3.062-3.062,8.026-3.062,11.087,0
		c3.062,3.062,3.062,8.026,0,11.087l-84.998,84.998C348.713,173.881,343.749,173.881,340.688,170.82z"/>
</g>
<g>
	<path style="fill:#FFEB99;" d="M192.356,111.371c-3.076,0-5.995-1.822-7.246-4.842l-7.439-17.958
		c-1.657-4,0.242-8.586,4.243-10.243c4-1.655,8.586,0.243,10.243,4.243l7.439,17.958c1.657,4-0.242,8.586-4.243,10.243
		C194.371,111.179,193.355,111.371,192.356,111.371z"/>
	<path style="fill:#FFEB99;" d="M171.101,60.059c-3.076,0-5.996-1.823-7.246-4.842l-10.613-25.622
		c-1.657-4,0.243-8.586,4.243-10.243c3.999-1.657,8.587,0.243,10.243,4.243l10.613,25.622c1.657,4-0.242,8.586-4.243,10.243
		C173.116,59.866,172.1,60.059,171.101,60.059z"/>
	<path style="fill:#FFEB99;" d="M102.829,200.89c-1,0-2.015-0.192-2.997-0.599l-76.935-31.867c-4-1.657-5.899-6.243-4.243-10.243
		c1.657-4,6.24-5.899,10.243-4.243l76.935,31.867c4,1.657,5.899,6.243,4.243,10.243C108.825,199.067,105.906,200.89,102.829,200.89z
		"/>
	<path style="fill:#FFEB99;" d="M56.239,346.79c-3.076,0-5.996-1.823-7.246-4.842c-1.657-4,0.243-8.586,4.243-10.243l46.597-19.301
		c4.001-1.655,8.586,0.244,10.243,4.243c1.657,4-0.243,8.586-4.243,10.243l-46.597,19.301
		C58.255,346.598,57.239,346.79,56.239,346.79z"/>
	<path style="fill:#FFEB99;" d="M25.901,359.357c-3.076,0-5.996-1.823-7.246-4.842c-1.657-4,0.243-8.586,4.243-10.243l6.655-2.756
		c4-1.657,8.586,0.243,10.243,4.243c1.657,4-0.243,8.586-4.243,10.243l-6.655,2.756C27.917,359.165,26.901,359.357,25.901,359.357z"
		/>
	<path style="fill:#FFEB99;" d="M189.847,423.051c-1,0-2.016-0.192-2.997-0.599c-4-1.657-5.9-6.243-4.243-10.243l2.502-6.041
		c1.657-4,6.242-5.901,10.243-4.243c4,1.658,5.9,6.243,4.243,10.243l-2.502,6.041C195.842,421.228,192.923,423.051,189.847,423.051z
		"/>
	<path style="fill:#FFEB99;" d="M160.481,493.943c-1,0-2.015-0.192-2.997-0.599c-4-1.657-5.9-6.243-4.243-10.243l17.703-42.738
		c1.657-4,6.244-5.898,10.243-4.243c4,1.657,5.899,6.243,4.243,10.243l-17.703,42.738
		C166.477,492.121,163.557,493.943,160.481,493.943z"/>
	<path style="fill:#FFEB99;" d="M350.822,493.943c-3.076,0-5.996-1.823-7.246-4.842l-31.867-76.934
		c-1.657-4,0.242-8.586,4.243-10.243c4-1.655,8.586,0.244,10.243,4.243l31.867,76.934c1.657,4-0.242,8.586-4.243,10.243
		C352.838,493.751,351.822,493.943,350.822,493.943z"/>
	<path style="fill:#FFEB99;" d="M432.705,337.529c-1,0-2.016-0.192-2.997-0.599l-24.237-10.039c-4-1.657-5.9-6.243-4.243-10.243
		c1.657-4,6.244-5.9,10.243-4.243l24.237,10.039c4,1.657,5.9,6.243,4.243,10.243C438.699,335.706,435.78,337.529,432.705,337.529z"
		/>
	<path style="fill:#FFEB99;" d="M485.402,359.357c-1,0-2.015-0.192-2.997-0.599l-23.536-9.749c-4-1.657-5.9-6.243-4.243-10.243
		c1.656-4,6.241-5.898,10.243-4.243l23.536,9.749c4,1.657,5.9,6.243,4.243,10.243C491.398,357.534,488.478,359.357,485.402,359.357z
		"/>
	<path style="fill:#FFEB99;" d="M408.473,200.89c-3.076,0-5.996-1.823-7.246-4.842c-1.657-4,0.243-8.586,4.243-10.243l42.692-17.683
		c4-1.657,8.586,0.243,10.243,4.243c1.657,4-0.242,8.586-4.243,10.243l-42.692,17.683C410.49,200.698,409.474,200.89,408.473,200.89
		z"/>
	<path style="fill:#FFEB99;" d="M478.653,171.821c-3.076,0-5.996-1.823-7.246-4.842c-1.657-4,0.242-8.586,4.243-10.243l6.756-2.798
		c4-1.658,8.586,0.243,10.243,4.243c1.657,4-0.242,8.586-4.243,10.243l-6.756,2.798
		C480.669,171.629,479.652,171.821,478.653,171.821z"/>
	<path style="fill:#FFEB99;" d="M318.948,111.371c-1,0-2.016-0.192-2.997-0.599c-4-1.657-5.9-6.243-4.243-10.243l31.867-76.935
		c1.657-4.001,6.242-5.899,10.243-4.243c4,1.657,5.9,6.243,4.243,10.243l-31.867,76.935
		C324.944,109.548,322.024,111.371,318.948,111.371z"/>
	<circle style="fill:#FFEB99;" cx="262.352" cy="256.091" r="148.94"/>
</g>
<g>
	<path style="fill:#FFDA44;" d="M166.905,256.091c0-73.127,52.701-133.942,122.194-146.544c-8.678-1.574-17.617-2.4-26.748-2.4
		c-82.26,0-148.944,66.684-148.944,148.944s66.684,148.944,148.944,148.944c9.131,0,18.071-0.826,26.748-2.4
		C219.607,390.033,166.905,329.218,166.905,256.091z"/>
	<path style="fill:#FFDA44;" d="M367.456,300.387c-0.807,0-1.629-0.125-2.438-0.39c-4.115-1.345-6.36-5.772-5.016-9.887
		c3.58-10.952,5.395-22.398,5.395-34.019c0-4.329,3.51-7.84,7.84-7.84s7.84,3.51,7.84,7.84c0,13.279-2.076,26.364-6.17,38.89
		C373.825,298.287,370.755,300.387,367.456,300.387z"/>
	<path style="fill:#FFDA44;" d="M281.708,378.606c-3.579,0-6.811-2.467-7.638-6.104c-0.96-4.223,1.686-8.423,5.908-9.381
		c24.888-5.654,47.207-20.014,62.847-40.436c2.634-3.437,7.555-4.09,10.991-1.458c3.438,2.633,4.09,7.553,1.458,10.991
		c-17.863,23.324-43.369,39.729-71.822,46.193C282.869,378.542,282.284,378.606,281.708,378.606z"/>
</g>
<g>
</g>
<g>
</g>
<g>
</g>
<g>
</g>
<g>
</g>
<g>
</g>
<g>
</g>
<g>
</g>
<g>
</g>
<g>
</g>
<g>
</g>
<g>
</g>
<g>
</g>
<g>
</g>
<g>
</g>
</svg>
