<?xml version="1.0" encoding="iso-8859-1"?>
<!-- Generator: Adobe Illustrator 19.0.0, SVG Export Plug-In . SVG Version: 6.00 Build 0)  -->
<svg version="1.1" id="Layer_1" xmlns="http://www.w3.org/2000/svg" xmlns:xlink="http://www.w3.org/1999/xlink" x="0px" y="0px"
	 viewBox="0 0 512 512" style="enable-background:new 0 0 512 512;" xml:space="preserve">
<path style="fill:#CCA400;" d="M257.098,378.446c1.657,184.744-116.11,162.415-46.942-8.9
	c-69.168,171.315-169.425,105.618-39.962-26.187c-129.462,131.806-196.947,32.743-26.9-39.487
	c-170.048,72.23-194.485-45.118-9.741-46.775c-184.744,1.657-162.415-116.11,8.9-46.942
	C-28.861,140.987,36.836,40.73,168.641,170.193c-131.806-129.462-32.743-196.947,39.487-26.9
	c-72.23-170.048,45.118-194.485,46.775-9.741c-1.657-184.744,116.109-162.415,46.942,8.9
	C371.013-28.862,471.27,36.835,341.808,168.64c129.462-131.806,196.947-32.743,26.9,39.487
	c170.048-72.23,194.485,45.118,9.741,46.775c184.744-1.657,162.415,116.109-8.9,46.942
	c171.315,69.168,105.618,169.425-26.187,39.963c131.806,129.462,32.743,196.947-39.487,26.9
	C376.103,538.753,258.755,563.191,257.098,378.446z"/>
<path style="fill:#FFE477;" d="M232.111,376.098C196.067,557.3,85.326,511.429,187.969,357.815
	C85.327,511.431,0.57,426.673,154.185,324.03C0.57,426.673-45.3,315.932,135.902,279.888c-181.202,36.044-181.202-83.822,0-47.778
	C-45.3,196.068,0.57,85.327,154.185,187.97C0.57,85.327,85.327,0.569,187.97,154.185C85.327,0.569,196.068-45.301,232.112,135.902
	c-36.044-181.202,83.822-181.202,47.778,0C315.932-45.3,426.673,0.569,324.03,154.185C426.673,0.569,511.43,85.327,357.815,187.97
	c153.616-102.642,199.486,8.098,18.284,44.142c181.202-36.044,181.202,83.822,0,47.778
	c181.202,36.044,135.331,146.784-18.284,44.142c153.616,102.642,68.858,187.399-33.785,33.785
	c102.642,153.616-8.098,199.486-44.142,18.284C315.932,557.3,196.068,557.3,232.111,376.098z"/>
<path style="fill:#FFDA44;" d="M256,394.894c-76.587,0-138.894-62.307-138.894-138.894S179.413,117.105,256,117.105
	S394.895,179.413,394.895,256S332.587,394.894,256,394.894z"/>
<circle style="fill:#EE8700;" cx="256" cy="256" r="118"/>
<path style="fill:#CC7400;" d="M256,342.649c-47.779,0-86.649-38.87-86.649-86.649s38.871-86.65,86.649-86.65
	s86.65,38.871,86.65,86.65S303.779,342.649,256,342.649z"/>
<path style="fill:#AA6100;" d="M256,311.302c-30.494,0-55.302-24.808-55.302-55.302s24.809-55.303,55.302-55.303
	c30.493,0,55.303,24.809,55.303,55.303S286.494,311.302,256,311.302z"/>
<g>
</g>
<g>
</g>
<g>
</g>
<g>
</g>
<g>
</g>
<g>
</g>
<g>
</g>
<g>
</g>
<g>
</g>
<g>
</g>
<g>
</g>
<g>
</g>
<g>
</g>
<g>
</g>
<g>
</g>
</svg>
