<?xml version="1.0" encoding="iso-8859-1"?>
<!-- Generator: Adobe Illustrator 19.0.0, SVG Export Plug-In . SVG Version: 6.00 Build 0)  -->
<svg version="1.1" id="Layer_1" xmlns="http://www.w3.org/2000/svg" xmlns:xlink="http://www.w3.org/1999/xlink" x="0px" y="0px"
	 viewBox="0 0 512 512" style="enable-background:new 0 0 512 512;" xml:space="preserve">
<path style="fill:#C70024;" d="M204.754,227.428c10.037-16.387,28.107-27.344,48.691-27.344c23.385,0,43.52,14.146,52.322,34.326
	l16.847-10.424c-12.391-25.744-38.738-43.557-69.169-43.557c-26.746,0-50.325,13.767-64.06,34.577L204.754,227.428z"/>
<path style="fill:#D80027;" d="M494.842,255.48h-27.597c-9.437,0-17.158-7.721-17.158-17.158v-1.717
	c0-9.437,7.721-17.158,17.158-17.158h27.597c9.437,0,17.158,7.721,17.158,17.158v1.717C512,247.759,504.279,255.48,494.842,255.48z"
	/>
<path style="fill:#830018;" d="M450.088,238.321v-1.717c0-9.437,7.721-17.158,17.158-17.158h27.597c1.073,0,2.121,0.113,3.141,0.304
	c3.773,10.722,5.68,21.943,5.652,33.264c-2.578,1.553-5.581,2.464-8.794,2.464h-27.595
	C457.809,255.48,450.088,247.759,450.088,238.321z"/>
<path style="fill:#D80027;" d="M44.754,251.498H17.158C7.721,251.498,0,243.777,0,234.341v-1.717
	c0-9.437,7.721-17.158,17.158-17.158h27.597c9.437,0,17.158,7.721,17.158,17.158v1.717
	C61.912,243.777,54.191,251.498,44.754,251.498z"/>
<path style="fill:#830018;" d="M61.912,234.341v-1.717c0-9.437-7.721-17.158-17.158-17.158H17.158c-1.073,0-2.121,0.113-3.141,0.304
	c-3.773,10.721-5.68,21.943-5.653,33.264c2.578,1.553,5.581,2.464,8.794,2.464h27.597C54.191,251.498,61.912,243.777,61.912,234.341
	z"/>
<g>
	<path style="fill:#C2DFF6;" d="M378.434,343.754c55.586,14.011,93.299-30.623,104.415-74.72s-15.623-88.857-59.72-99.973
		c-44.097-11.116-132.535,4.613-143.65,48.711S319.663,328.941,378.434,343.754z"/>
	<path style="fill:#C2DFF6;" d="M133.566,343.754c-55.586,14.011-93.299-30.623-104.415-74.72s15.623-88.857,59.72-99.973
		c44.097-11.116,132.535,4.613,143.65,48.711C243.637,261.871,192.337,328.941,133.566,343.754z"/>
</g>
<g>
	<path style="fill:#96C8EF;" d="M83.821,196.212c44.097-11.116,132.535,4.613,143.65,48.711c0.971,3.851,1.456,7.881,1.51,12.032
		c4.995-13.747,6.538-27.299,3.542-39.181c-11.116-44.097-99.552-59.827-143.65-48.711c-36.937,9.31-61.679,42.228-62.213,78.588
		C35.745,223.006,56.429,203.117,83.821,196.212z"/>
	<path style="fill:#96C8EF;" d="M428.179,196.212c-44.097-11.116-132.535,4.613-143.65,48.711c-0.971,3.851-1.456,7.881-1.51,12.032
		c-4.994-13.747-6.538-27.299-3.542-39.181c11.116-44.097,99.552-59.827,143.65-48.711c36.937,9.31,61.679,42.228,62.213,78.588
		C476.255,223.006,455.571,203.117,428.179,196.212z"/>
</g>
<path style="fill:#FF0C1B;" d="M113.167,354.196c-48.779,0-81.153-41.813-91.597-83.251C9.419,222.737,38.753,173.632,86.962,161.48
	c9.54-2.405,21.199-3.677,33.716-3.677c42.124,0,108.69,15.463,119.426,58.059c12.325,48.896-42.433,119.798-104.627,135.474
	C127.951,353.234,120.446,354.196,113.167,354.196z M120.677,173.443c-11.247,0-21.585,1.107-29.894,3.201
	c-19.302,4.865-35.555,16.956-45.764,34.046c-10.208,17.09-13.151,37.131-8.286,56.434c8.963,35.557,36.072,71.434,76.434,71.434
	c5.99,0,12.21-0.803,18.488-2.384c25.792-6.501,52.493-24.906,71.426-49.231c18.358-23.586,26.529-48.73,21.86-67.258
	C217.645,190.74,166.198,173.443,120.677,173.443z"/>
<path style="fill:#C70024;" d="M33.864,274.942c8.963,35.557,36.072,71.434,76.434,71.434c5.99,0,12.21-0.803,18.488-2.384
	c25.792-6.501,52.493-24.906,71.426-49.231c9.578-12.305,16.375-25.032,20.03-37.025c-3.919,9.622-9.726,19.544-17.246,29.205
	c-18.933,24.325-45.633,42.73-71.426,49.231c-6.278,1.582-12.498,2.384-18.488,2.384c-40.361,0-67.471-35.877-76.434-71.434
	c-3.3-13.092-2.997-26.521,0.717-39.141C31.146,242.775,29.873,259.106,33.864,274.942z"/>
<path style="fill:#FF0C1B;" d="M398.841,354.196c-0.005,0-0.003,0-0.009,0c-7.28-0.001-14.786-0.963-22.309-2.859
	c-62.194-15.677-116.952-86.578-104.627-135.474c10.737-42.596,77.303-58.059,119.426-58.059c12.517,0,24.176,1.272,33.716,3.677
	c48.209,12.152,77.543,61.257,65.391,109.465C479.986,312.383,447.61,354.196,398.841,354.196z M391.324,173.443
	c-45.522,0-96.967,17.296-104.263,46.241c-4.67,18.529,3.501,43.672,21.86,67.258c18.933,24.325,45.633,42.729,71.426,49.231
	c6.275,1.582,12.495,2.383,18.489,2.384c40.359,0.004,67.469-35.874,76.433-71.434c4.865-19.302,1.922-39.344-8.286-56.434
	c-10.208-17.089-26.462-29.18-45.764-34.046C412.909,174.55,402.571,173.443,391.324,173.443z"/>
<path style="fill:#C70024;" d="M478.061,274.942c-8.963,35.557-36.072,71.434-76.434,71.434c-5.99,0-12.21-0.803-18.488-2.384
	c-25.792-6.501-52.493-24.906-71.426-49.231c-9.578-12.305-16.375-25.032-20.03-37.025c3.919,9.622,9.726,19.544,17.246,29.205
	c18.933,24.325,45.633,42.73,71.426,49.231c6.278,1.582,12.498,2.384,18.488,2.384c40.361,0,67.471-35.877,76.434-71.434
	c3.3-13.092,2.997-26.521-0.717-39.141C480.779,242.775,482.053,259.106,478.061,274.942z"/>
<g>
	<path style="fill:#96C8EF;" d="M431.977,307.426c-1.954,0-3.911-0.727-5.43-2.189c-3.116-2.999-3.212-7.957-0.213-11.073
		c8.435-8.766,15.193-21.414,18.542-34.699c1.057-4.195,5.314-6.736,9.508-5.68s6.737,5.314,5.68,9.508
		c-3.995,15.851-12.176,31.061-22.444,41.732C436.084,306.622,434.032,307.426,431.977,307.426z"/>
	<path style="fill:#96C8EF;" d="M113.167,322.881c-4.325,0-7.832-3.505-7.832-7.832c0-4.326,3.506-7.832,7.832-7.832
		c3.408,0,7.052-0.482,10.83-1.434c4.195-1.057,8.451,1.487,9.508,5.681c1.057,4.195-1.487,8.451-5.682,9.507
		C122.795,322.239,117.864,322.881,113.167,322.881z"/>
	<path style="fill:#96C8EF;" d="M86.887,313.566c-1.651,0-3.314-0.519-4.73-1.595c-13.903-10.556-25.201-28.755-30.223-48.678
		c-1.058-4.195,1.486-8.451,5.68-9.508c4.194-1.063,8.451,1.486,9.508,5.68c4.181,16.59,13.343,31.555,24.507,40.033
		c3.445,2.616,4.116,7.529,1.502,10.974C91.59,312.499,89.253,313.566,86.887,313.566z"/>
</g>
<g>
</g>
<g>
</g>
<g>
</g>
<g>
</g>
<g>
</g>
<g>
</g>
<g>
</g>
<g>
</g>
<g>
</g>
<g>
</g>
<g>
</g>
<g>
</g>
<g>
</g>
<g>
</g>
<g>
</g>
</svg>
