<?xml version="1.0" encoding="iso-8859-1"?>
<!-- Generator: Adobe Illustrator 19.0.0, SVG Export Plug-In . SVG Version: 6.00 Build 0)  -->
<svg version="1.1" id="Layer_1" xmlns="http://www.w3.org/2000/svg" xmlns:xlink="http://www.w3.org/1999/xlink" x="0px" y="0px"
	 viewBox="0 0 512.001 512.001" style="enable-background:new 0 0 512.001 512.001;" xml:space="preserve">
<path style="fill:#BF6100;" d="M297.701,417.091c-7.142,0-11.724-0.611-12.33-0.696l5.866-41.486l-0.133-0.018
	c0.329,0.04,33.146,3.957,56.932-17.228c18.963-16.89,28.339-45.83,27.868-86.016c-0.135-11.569,9.134-21.058,20.703-21.192
	c0.084-0.001,0.168-0.001,0.25-0.001c11.456,0,20.808,9.219,20.943,20.704c0.622,53.184-13.65,92.97-42.418,118.255
	C348.056,413.428,315.2,417.091,297.701,417.091z"/>
<path style="fill:#9E4D00;" d="M297.701,417.091c10.696,0,27.13-1.378,44.532-7.927c-1.263-15.151-2.9-29.768-4.901-43.845
	c-21.853,12.468-45.946,9.606-46.228,9.572l0.133,0.018l-5.866,41.486C285.977,416.482,290.56,417.091,297.701,417.091z"/>
<path style="fill:#4E901E;" d="M493.412,157.105c0-27.026-20.223-49.313-46.359-52.593c0.001-0.145,0.01-0.287,0.01-0.432
	c0-39.481-32.005-71.486-71.486-71.486s-71.486,32.005-71.486,71.486c0,0.014,0.001,0.026,0.001,0.04
	c-27.906,0.832-50.277,23.7-50.277,51.808c0,24.59,17.125,45.167,40.095,50.493c0.58,3.963,1.457,7.829,2.624,11.568
	c-17.229,11.515-28.579,31.138-28.579,53.417c0,35.462,28.748,64.21,64.21,64.21c28.664,0,52.933-18.786,61.187-44.715
	c8.649,4.339,18.406,6.795,28.74,6.795c35.462,0,64.21-28.748,64.21-64.21c0-13.467-4.153-25.959-11.238-36.283
	C486.296,187.477,493.412,173.126,493.412,157.105z"/>
<g>
	<path style="fill:#47821C;" d="M454.501,181.296c-2.201,0-4.389-0.92-5.943-2.714c-2.84-3.281-2.481-8.243,0.799-11.082
		c2.178-1.885,4.775-5.22,4.775-10.396c0-6.907-5.146-12.762-11.971-13.619c-4.304-0.54-7.356-4.468-6.816-8.774
		c0.542-4.306,4.478-7.361,8.774-6.816c14.666,1.841,25.726,14.398,25.726,29.209c0,11.697-6.394,18.977-10.204,22.276
		C458.154,180.667,456.323,181.296,454.501,181.296z"/>
	<path style="fill:#47821C;" d="M422.093,274.125c-6.38,0-12.495-1.444-18.176-4.294c-3.879-1.945-5.446-6.666-3.501-10.544
		c1.945-3.879,6.664-5.447,10.544-3.501c3.474,1.743,7.22,2.626,11.131,2.626c13.746,0,24.93-11.184,24.93-24.93
		c0-4.339,3.516-7.856,7.856-7.856s7.856,3.517,7.856,7.856C462.735,255.893,444.503,274.125,422.093,274.125z"/>
	<path style="fill:#47821C;" d="M323.348,285.657c0-22.279,11.35-41.901,28.579-53.417c-1.167-3.739-2.044-7.606-2.624-11.568
		c-22.971-5.326-40.095-25.903-40.095-50.493c0-28.108,22.371-50.975,50.277-51.808c0-0.014-0.001-0.026-0.001-0.04
		c0-35.602,26.03-65.116,60.094-70.572c-12.134-9.493-27.4-15.167-44.001-15.167c-39.481,0-71.486,32.005-71.486,71.486
		c0,0.014,0.001,0.026,0.001,0.04c-27.906,0.832-50.277,23.7-50.277,51.808c0,24.59,17.125,45.167,40.095,50.493
		c0.58,3.963,1.457,7.829,2.624,11.568c-17.229,11.515-28.579,31.138-28.579,53.417c0,35.462,28.748,64.21,64.21,64.21
		c4.595,0,9.075-0.488,13.397-1.406C331.964,322.433,323.348,305.056,323.348,285.657z"/>
	<path style="fill:#47821C;" d="M371.668,218.808c0-52.969-35.844-97.719-84.55-111.283c-19.485,7.453-33.327,26.31-33.327,48.417
		c0,24.59,17.125,45.167,40.095,50.493c0.58,3.963,1.457,7.829,2.624,11.568c-17.229,11.515-28.579,31.138-28.579,53.417
		c0,23.191,12.297,43.505,30.724,54.791C341.38,309.251,371.668,267.501,371.668,218.808z"/>
</g>
<path style="fill:#E47500;" d="M293.094,512c-11.57,0-20.949-9.379-20.949-20.949c0-93.161-12.497-153.46-22.979-187.64
	c-11.29-36.809-22.691-51.914-22.804-52.063l0.159,0.201l32.596-26.326c1.539,1.905,15.421,19.824,28.797,61.718
	c17.339,54.303,26.13,122.976,26.13,204.109C314.044,502.622,304.665,512,293.094,512z"/>
<path style="fill:#BF6100;" d="M292.396,482.695c0-93.161-12.497-153.46-22.979-187.64c-11.29-36.809-22.691-51.914-22.804-52.063
	l0.159,0.201l15.957-12.887c-1.914-2.922-3.202-4.575-3.612-5.082l-32.596,26.326l-0.159-0.201
	c0.113,0.149,11.515,15.254,22.804,52.063c10.483,34.18,22.979,94.478,22.979,187.64c0,11.57,9.379,20.949,20.949,20.949
	c6.967,0,13.121-3.414,16.929-8.645C300.036,501.761,292.396,493.132,292.396,482.695z"/>
<path style="fill:#6DC82A;" d="M239.73,339.54c-20.484,0-38.398,10.982-48.195,27.373c-2.018-0.344-4.089-0.532-6.205-0.532
	c-20.301,0-36.759,16.458-36.759,36.759s16.458,36.759,36.759,36.759c5.651,0,11.002-1.278,15.784-3.556
	c10.061,9.551,23.648,15.422,38.615,15.422c30.99,0,56.113-25.122,56.113-56.113S270.721,339.54,239.73,339.54z"/>
<g>
	<path style="fill:#5EAC24;" d="M203.531,395.455c2.116,0,4.187,0.189,6.205,0.532c9.796-16.393,27.71-27.373,48.195-27.373
		c13.799,0,26.427,4.99,36.199,13.251c-6.147-24.322-28.168-42.324-54.4-42.324c-20.484,0-38.398,10.982-48.195,27.373
		c-2.018-0.344-4.089-0.532-6.205-0.532c-20.301,0-36.759,16.458-36.759,36.759c0,13.575,7.365,25.424,18.312,31.79
		c-0.066-0.899-0.111-1.803-0.111-2.718C166.772,411.912,183.23,395.455,203.531,395.455z"/>
	<path style="fill:#5EAC24;" d="M256.193,134.717c-30.003,0-56.318,15.728-71.196,39.376c-8.91-3.335-18.552-5.17-28.625-5.17
		c-16.103,0-31.103,4.68-43.754,12.726c-8.024-7.868-19.01-12.726-31.135-12.726c-24.566,0-44.482,19.915-44.482,44.482
		c0,22.369,16.513,40.874,38.013,44.008c3.471,41.905,38.557,74.838,81.358,74.838c28.099,0,52.879-14.194,67.572-35.801
		c9.932,4.129,20.823,6.419,32.249,6.419c46.434,0,84.076-37.642,84.076-84.076S302.627,134.717,256.193,134.717z"/>
</g>
<g>
	<path style="fill:#4E901E;" d="M120.055,236.876c-21.499-3.133-38.013-21.64-38.013-44.008c0-8.569,2.429-16.569,6.627-23.357
		c-2.34-0.381-4.739-0.588-7.187-0.588c-24.566,0-44.482,19.915-44.482,44.482c0,22.369,16.513,40.874,38.013,44.008
		c3.471,41.905,38.557,74.838,81.358,74.838c21.089,0,40.308-7.996,54.797-21.12c-3.2,0.381-6.453,0.585-9.756,0.585
		C158.612,311.714,123.527,278.781,120.055,236.876z"/>
	<path style="fill:#4E901E;" d="M309.208,153.549c-14.466-11.769-32.912-18.833-53.014-18.833
		c-30.003,0-56.318,15.728-71.196,39.376c-8.91-3.335-18.551-5.17-28.625-5.17c-16.103,0-31.103,4.68-43.754,12.726
		c-8.024-7.868-19.01-12.726-31.136-12.726c-24.566,0-44.482,19.915-44.482,44.482c0,2.799,0.259,5.537,0.753,8.192
		c11.519,5.492,24.399,8.576,37.987,8.576c3.251,0,6.482-0.175,9.683-0.525c24.387,25.464,58.233,40.165,94.148,40.165
		C246.7,269.812,302.136,218.827,309.208,153.549z"/>
</g>
<path style="fill:#6DC82A;" d="M222.73,50.309C213.301,21.119,185.918,0,153.59,0c-40.128,0-72.658,32.53-72.658,72.658
	c0,4.133,0.363,8.18,1.027,12.124c-2.042-0.221-4.113-0.343-6.215-0.343c-31.565,0-57.154,25.589-57.154,57.154
	s25.589,57.154,57.154,57.154c7.645,0,14.934-1.513,21.599-4.236c17.767,26.461,47.964,43.876,82.232,43.876
	c54.665,0,98.98-44.315,98.98-98.98C278.553,100.214,255.772,66.343,222.73,50.309z"/>
<g>
	<path style="fill:#5EAC24;" d="M115.807,108.218c2.101,0,4.173,0.122,6.215,0.343c-0.663-3.945-1.027-7.991-1.027-12.124
		c0-40.128,32.53-72.658,72.658-72.658c5.163,0,10.198,0.545,15.056,1.568C195.389,9.833,175.642,0,153.59,0
		c-40.128,0-72.658,32.53-72.658,72.658c0,4.133,0.363,8.18,1.027,12.124c-2.042-0.221-4.113-0.343-6.215-0.343
		c-31.565,0-57.154,25.589-57.154,57.154c0,29.333,22.102,53.491,50.558,56.763c-6.601-9.32-10.494-20.695-10.494-32.985
		C58.653,133.806,84.241,108.218,115.807,108.218z"/>
	<path style="fill:#5EAC24;" d="M228.388,193.916c-1.951,0-3.906-0.723-5.429-2.178c-3.135-2.999-3.247-7.971-0.248-11.107
		c10.68-11.17,16.563-25.811,16.563-41.224c0-16.094-6.208-31.117-17.48-42.3c-3.08-3.055-3.099-8.03-0.044-11.109
		c3.055-3.082,8.03-3.099,11.109-0.044c14.268,14.156,22.126,33.14,22.126,53.454c0,19.479-7.429,37.975-20.918,52.082
		C232.525,193.104,230.458,193.916,228.388,193.916z"/>
	<path style="fill:#5EAC24;" d="M179.573,214.82c-9.163,0-18.142-1.639-26.688-4.873c-4.059-1.535-6.104-6.069-4.568-10.127
		c1.535-4.058,6.072-6.103,10.127-4.568c6.763,2.558,13.873,3.856,21.129,3.856c7.05,0,13.952-1.222,20.515-3.632
		c4.07-1.495,8.586,0.594,10.082,4.666c1.496,4.074-0.593,8.587-4.666,10.083C197.201,213.274,188.478,214.82,179.573,214.82z"/>
</g>
<g>
	<circle style="fill:#FFE470;" cx="124.083" cy="150.646" r="14.957"/>
	<circle style="fill:#FFE470;" cx="188.638" cy="76.57" r="14.957"/>
	<circle style="fill:#FFE470;" cx="188.638" cy="151.38" r="14.957"/>
	<circle style="fill:#FFE470;" cx="278.552" cy="256.629" r="14.957"/>
	<circle style="fill:#FFE470;" cx="237.23" cy="410.606" r="14.957"/>
	<circle style="fill:#FFE470;" cx="392.59" cy="150.646" r="14.957"/>
	<circle style="fill:#FFE470;" cx="417.823" cy="216.867" r="14.957"/>
</g>
<g>
</g>
<g>
</g>
<g>
</g>
<g>
</g>
<g>
</g>
<g>
</g>
<g>
</g>
<g>
</g>
<g>
</g>
<g>
</g>
<g>
</g>
<g>
</g>
<g>
</g>
<g>
</g>
<g>
</g>
</svg>
