<?xml version="1.0" encoding="iso-8859-1"?>
<!-- Generator: Adobe Illustrator 19.0.0, SVG Export Plug-In . SVG Version: 6.00 Build 0)  -->
<svg version="1.1" id="Layer_1" xmlns="http://www.w3.org/2000/svg" xmlns:xlink="http://www.w3.org/1999/xlink" x="0px" y="0px"
	 viewBox="0 0 512 512" style="enable-background:new 0 0 512 512;" xml:space="preserve">
<circle style="fill:#4E901E;" cx="341.911" cy="324.963" r="59.559"/>
<path style="fill:#47821C;" d="M341.916,265.404c-32.893,0-59.559,26.666-59.559,59.559c0,8.334,1.718,16.265,4.809,23.466
	c17.464,8.397,37.023,13.105,57.662,13.105c17.792,0,34.777-3.507,50.314-9.851c4.044-8.038,6.334-17.109,6.334-26.72
	C401.475,292.07,374.809,265.404,341.916,265.404z"/>
<circle style="fill:#4E901E;" cx="211.299" cy="317.649" r="74.188"/>
<g>
	<path style="fill:#47821C;" d="M174.172,317.649c0-34.576,23.652-63.626,55.66-71.854c-5.922-1.522-12.131-2.333-18.528-2.333
		c-40.973,0-74.188,33.215-74.188,74.188s33.215,74.188,74.188,74.188c6.398,0,12.606-0.81,18.528-2.333
		C197.824,381.275,174.172,352.225,174.172,317.649z"/>
	<path style="fill:#47821C;" d="M284.648,306.448c-5.4-35.657-36.181-62.986-73.346-62.986c-40.973,0-74.188,33.215-74.188,74.188
		c0,18.966,7.126,36.26,18.834,49.377c4.796,0.511,9.663,0.778,14.592,0.778C218.126,367.804,260.109,343.396,284.648,306.448z"/>
</g>
<circle style="fill:#5EAC24;" cx="344.827" cy="228.007" r="102.181"/>
<path style="fill:#4E901E;" d="M408.899,148.426c-17.526-14.128-39.81-22.591-64.073-22.591
	c-56.431,0-102.176,45.746-102.176,102.176c0,15.527,3.47,30.242,9.666,43.422c2.568,0.131,5.152,0.196,7.752,0.196
	C333.936,271.63,395.613,218.485,408.899,148.426z"/>
<path style="fill:#E47500;" d="M275.354,188.435h9.853c11.494,0,20.898,9.404,20.898,20.898v281.769
	c0,11.494-9.404,20.898-20.898,20.898h-9.853c-11.494,0-20.898-9.404-20.898-20.898V209.333
	C254.456,197.839,263.86,188.435,275.354,188.435z"/>
<g>
	<path style="fill:#BF6100;" d="M280.28,491.102V209.333c0-8.668,5.352-16.143,12.913-19.296c-2.464-1.028-5.161-1.602-7.986-1.602
		h-9.853c-11.494,0-20.898,9.404-20.898,20.898v281.769c0,11.494,9.404,20.898,20.898,20.898h9.853c2.825,0,5.521-0.574,7.986-1.602
		C285.632,507.245,280.28,499.77,280.28,491.102z"/>
	<path style="fill:#BF6100;" d="M254.456,271.515c1.864,0.068,3.733,0.115,5.614,0.115c16.044,0,31.511-2.516,46.035-7.16v-53.381
		h-51.649V271.515z"/>
</g>
<circle style="fill:#5EAC24;" cx="170.538" cy="230.912" r="105.545"/>
<g>
	<path style="fill:#4E901E;" d="M92.175,230.912c0-53.686,40.084-98.008,91.956-104.676c-4.449-0.572-8.984-0.868-13.589-0.868
		c-58.291,0-105.545,47.254-105.545,105.545s47.254,105.544,105.545,105.544c4.605,0,9.14-0.297,13.589-0.868
		C132.259,328.921,92.175,284.599,92.175,230.912z"/>
	<path style="fill:#4E901E;" d="M170.542,125.368c-22.315,0-43.008,6.932-60.057,18.75
		c11.526,72.177,74.211,127.512,149.583,127.512c2.67,0,5.322-0.071,7.958-0.209c5.19-12.474,8.059-26.156,8.059-40.509
		C276.087,172.621,228.833,125.368,170.542,125.368z"/>
</g>
<circle style="fill:#6DC82A;" cx="260.075" cy="120.142" r="120.142"/>
<g>
	<path style="fill:#5EAC24;" d="M167.44,120.141c0-61.699,46.513-112.527,106.385-119.352C269.31,0.274,264.723,0,260.07,0
		c-66.352,0-120.141,53.789-120.141,120.141s53.789,120.141,120.141,120.141c4.653,0,9.241-0.274,13.755-0.789
		C213.952,232.668,167.44,181.84,167.44,120.141z"/>
	<path style="fill:#5EAC24;" d="M333.993,177.111c-1.494,0-3.004-0.426-4.341-1.318c-3.601-2.401-4.574-7.267-2.172-10.868
		c8.863-13.292,13.548-28.779,13.548-44.784c0-4.328,3.508-7.837,7.837-7.837c4.329,0,7.837,3.509,7.837,7.837
		c0,19.111-5.594,37.604-16.18,53.48C339.01,175.886,336.525,177.111,333.993,177.111z"/>
	<path style="fill:#5EAC24;" d="M332.598,76.795c-2.458,0-4.877-1.151-6.403-3.309c-15.204-21.479-39.923-34.302-66.125-34.302
		c-4.329,0-7.837-3.509-7.837-7.837s3.508-7.837,7.837-7.837c31.279,0,60.781,15.297,78.917,40.919
		c2.501,3.533,1.664,8.424-1.868,10.924C335.743,76.327,334.164,76.795,332.598,76.795z"/>
</g>
<g>
	<circle style="fill:#FF3F62;" cx="351.681" cy="285.936" r="18.131"/>
	<circle style="fill:#FF3F62;" cx="398.702" cy="240.692" r="18.131"/>
	<circle style="fill:#FF3F62;" cx="189.356" cy="126.433" r="18.131"/>
	<circle style="fill:#FF3F62;" cx="121.438" cy="248.686" r="18.131"/>
	<circle style="fill:#FF3F62;" cx="179.587" cy="290.116" r="18.131"/>
	<circle style="fill:#FF3F62;" cx="236.011" cy="187.402" r="18.131"/>
	<circle style="fill:#FF3F62;" cx="260.075" cy="120.142" r="18.131"/>
</g>
<g>
</g>
<g>
</g>
<g>
</g>
<g>
</g>
<g>
</g>
<g>
</g>
<g>
</g>
<g>
</g>
<g>
</g>
<g>
</g>
<g>
</g>
<g>
</g>
<g>
</g>
<g>
</g>
<g>
</g>
</svg>
