<?xml version="1.0" encoding="iso-8859-1"?>
<!-- Generator: Adobe Illustrator 19.0.0, SVG Export Plug-In . SVG Version: 6.00 Build 0)  -->
<svg version="1.1" id="Layer_1" xmlns="http://www.w3.org/2000/svg" xmlns:xlink="http://www.w3.org/1999/xlink" x="0px" y="0px"
	 viewBox="0 0 512.002 512.002" style="enable-background:new 0 0 512.002 512.002;" xml:space="preserve">
<path style="fill:#47821C;" d="M204.238,280.912c-10.934-14.73-28.457-24.278-48.211-24.278c-33.142,0-60.01,26.867-60.01,60.01
	s26.867,60.01,60.01,60.01c6.732,0,13.197-1.125,19.239-3.17c7.221,4.1,15.562,6.453,24.458,6.453
	c27.404,0,49.618-22.215,49.618-49.618C249.342,304.436,229.524,283.193,204.238,280.912z"/>
<path style="fill:#CC7400;" d="M248.985,512.001c-11.814,0-21.392-9.578-21.392-21.392V224.011c0-11.814,9.578-21.392,21.392-21.392
	c11.814,0,21.392,9.578,21.392,21.392v266.598C270.377,502.424,260.799,512.001,248.985,512.001z"/>
<path style="fill:#AA6100;" d="M248.985,490.609V224.011c0-7.913,4.308-14.806,10.696-18.507c-3.149-1.825-6.795-2.885-10.696-2.885
	c-11.814,0-21.392,9.578-21.392,21.392v266.598c0,11.814,9.578,21.392,21.392,21.392c3.901,0,7.547-1.061,10.696-2.885
	C253.293,505.415,248.985,498.523,248.985,490.609z"/>
<path style="fill:#4E901E;" d="M432.464,178.436c2.705-7.55,4.189-15.681,4.189-24.161c0-39.561-32.07-71.631-71.631-71.631
	s-71.631,32.07-71.631,71.631c0,4.549,0.443,8.991,1.253,13.304c-40.745,7.042-71.746,42.535-71.746,85.291
	c0,47.819,38.765,86.584,86.584,86.584c42.617,0,78.018-30.8,85.221-71.349c7.697,4.954,16.85,7.84,26.684,7.84
	c27.274,0,49.386-22.111,49.386-49.386C470.776,203.094,454.405,183.465,432.464,178.436z"/>
<g>
	<path style="fill:#47821C;" d="M399.965,158.283c0-27.919-9.67-54.277-26.63-75.144c-2.728-0.316-5.5-0.496-8.313-0.496
		c-39.561,0-71.631,32.07-71.631,71.631c0,4.549,0.443,8.991,1.253,13.304c-40.745,7.042-71.746,42.535-71.746,85.291
		c0,36.69,22.832,68.027,55.053,80.637c14.276-15.826,23.793-36.026,26.224-58.332C358.732,264.263,399.965,216,399.965,158.283z"/>
	<path style="fill:#47821C;" d="M324.535,313.844c-3.424,0-6.572-2.26-7.548-5.718c-1.176-4.17,1.251-8.505,5.422-9.681
		c17.307-4.881,30.522-19.483,33.669-37.199c0.758-4.267,4.832-7.117,9.097-6.353c4.266,0.757,7.111,4.831,6.353,9.097
		c-4.193,23.602-21.801,43.056-44.859,49.559C325.958,313.747,325.241,313.844,324.535,313.844z"/>
</g>
<path style="fill:#5EAC24;" d="M200.627,191.729c-12.403,0-24.074,3.135-34.266,8.653c-10.556-7.863-23.642-12.519-37.818-12.519
	c-0.536,0-1.064,0.027-1.596,0.041c-7.086-15.474-22.695-26.23-40.827-26.23c-24.794,0-44.893,20.099-44.893,44.893
	c0,17.308,9.8,32.318,24.15,39.811c-0.121,1.605-0.204,3.221-0.204,4.857c0,34.999,28.372,63.371,63.371,63.371
	c6.395,0,12.564-0.956,18.384-2.718c13.198,14.733,32.363,24.011,53.699,24.011c39.811,0,72.084-32.273,72.084-72.084
	S240.438,191.729,200.627,191.729z"/>
<g>
	<path style="fill:#4E901E;" d="M119.301,272.699c-14.349-7.492-24.15-22.502-24.15-39.811c0-23.215,17.623-42.313,40.221-44.651
		c-2.244-0.241-4.519-0.377-6.828-0.377c-0.536,0-1.064,0.027-1.596,0.041c-7.085-15.474-22.695-26.23-40.827-26.23
		c-24.794,0-44.893,20.099-44.893,44.893c0,17.308,9.8,32.318,24.151,39.811c-0.122,1.605-0.204,3.221-0.204,4.857
		c0,34.999,28.372,63.371,63.371,63.371c0.834,0,1.663-0.018,2.49-0.05c-7.502-10.412-11.936-23.183-11.936-36.996
		C119.097,275.92,119.18,274.304,119.301,272.699z"/>
	<path style="fill:#4E901E;" d="M200.627,191.729c-12.403,0-24.074,3.135-34.266,8.653c-10.557-7.863-23.642-12.519-37.818-12.519
		c-0.536,0-1.064,0.027-1.596,0.041c-7.085-15.474-22.695-26.23-40.827-26.23c-4.694,0-9.219,0.723-13.471,2.06
		c9.398,50.151,53.503,88.225,106.34,88.225c8.383,0,16.602-0.938,24.597-2.802c19.031,16.236,42.647,26.019,67.88,27.959
		c0.805-4.312,1.245-8.754,1.245-13.3C272.712,224.002,240.438,191.729,200.627,191.729z"/>
</g>
<path style="fill:#6DC82A;" d="M321.327,81.187c0.429-3.168,0.671-6.396,0.671-9.682C321.997,32.015,289.984,0,250.492,0
	c-38.199,0-69.398,29.955-71.398,67.655c-0.036,0-0.07-0.003-0.106-0.003c-42.033,0-76.107,34.074-76.107,76.107
	s34.074,76.107,76.107,76.107c11.964,0,23.278-2.768,33.351-7.687c15.954,20.224,40.661,33.222,68.419,33.222
	c48.115,0,87.12-39.005,87.12-87.12C367.878,124.82,349.002,95.781,321.327,81.187z"/>
<g>
	<path style="fill:#5EAC24;" d="M216.32,111.237c0.036,0,0.07,0.003,0.106,0.003c2-37.7,33.2-67.655,71.398-67.655
		c11.14,0,21.683,2.549,31.081,7.093c-8.917-29.33-36.168-50.677-68.413-50.677c-38.199,0-69.398,29.955-71.398,67.655
		c-0.036,0-0.07-0.003-0.106-0.003c-42.033,0-76.107,34.074-76.107,76.107c0,29.461,16.75,54.992,41.236,67.642
		c-2.519-7.565-3.904-15.647-3.904-24.059C140.213,145.312,174.287,111.237,216.32,111.237z"/>
	<path style="fill:#5EAC24;" d="M280.758,221.864c-4.334,0-7.846-3.513-7.846-7.846c0-4.333,3.512-7.846,7.846-7.846
		c26.406,0,47.889-21.483,47.889-47.889c0-4.333,3.512-7.846,7.846-7.846c4.334,0,7.846,3.513,7.846,7.846
		C344.339,193.342,315.816,221.864,280.758,221.864z"/>
	<circle style="fill:#5EAC24;" cx="172.68" cy="184.512" r="19.929"/>
</g>
<circle style="fill:#4E901E;" cx="202.674" cy="294.61" r="19.929"/>
<g>
	<circle style="fill:#5EAC24;" cx="272.714" cy="108.028" r="19.929"/>
	<circle style="fill:#5EAC24;" cx="292.633" cy="151.098" r="7.6"/>
	<circle style="fill:#5EAC24;" cx="222.592" cy="155.011" r="7.6"/>
	<circle style="fill:#5EAC24;" cx="245.189" cy="193.928" r="7.6"/>
</g>
<circle style="fill:#4E901E;" cx="149.372" cy="270.109" r="7.6"/>
<path style="fill:#6DC82A;" d="M464.299,512.001c3.443-5.529,5.437-12.053,5.437-19.046c0-17.822-12.921-32.618-29.906-35.554
	c-3.349-27.418-26.695-48.659-55.017-48.659c-30.621,0-55.444,24.823-55.444,55.444c0,0.989,0.028,1.97,0.079,2.945
	c-12.26,5.396-20.823,17.643-20.823,31.898c0,4.586,0.894,8.96,2.506,12.971L464.299,512.001L464.299,512.001z"/>
<g>
	<path style="fill:#5EAC24;" d="M365.162,483.871c-0.051-0.975-0.079-1.957-0.079-2.945c0-30.621,24.823-55.444,55.444-55.444
		c1.386,0,2.756,0.066,4.116,0.165c-10.076-10.419-24.189-16.904-39.83-16.904c-30.621,0-55.444,24.823-55.444,55.444
		c0,0.989,0.028,1.97,0.079,2.945c-12.26,5.396-20.823,17.643-20.823,31.898c0,4.586,0.894,8.96,2.506,12.971h33.434
		C345.924,499.384,354,488.784,365.162,483.871z"/>
	<circle style="fill:#5EAC24;" cx="404.718" cy="472.551" r="19.929"/>
	<circle style="fill:#5EAC24;" cx="445.435" cy="480.157" r="7.6"/>
</g>
<path style="fill:#6DC82A;" d="M187.441,511.682c1.484-3.818,2.309-7.968,2.309-12.312c0-18.773-15.22-33.993-33.993-33.993
	c-1.674,0-3.318,0.127-4.927,0.36c-6.92-20.572-26.35-35.395-49.253-35.395c-28.701,0-51.968,23.267-51.968,51.968
	c0,10.902,3.363,21.014,9.099,29.371h128.733V511.682z"/>
<g>
	<path style="fill:#5EAC24;" d="M133.339,447.087c2.317,0,4.597,0.159,6.834,0.453c-9.508-10.555-23.271-17.198-38.596-17.198
		c-28.701,0-51.968,23.267-51.968,51.968c0,10.902,3.363,21.014,9.099,29.371h24.22c-1.011-4.043-1.557-8.27-1.557-12.627
		C81.371,470.354,104.638,447.087,133.339,447.087z"/>
	<circle style="fill:#5EAC24;" cx="112.076" cy="480.157" r="7.6"/>
	<circle style="fill:#5EAC24;" cx="148.88" cy="492.481" r="7.6"/>
</g>
<g>
</g>
<g>
</g>
<g>
</g>
<g>
</g>
<g>
</g>
<g>
</g>
<g>
</g>
<g>
</g>
<g>
</g>
<g>
</g>
<g>
</g>
<g>
</g>
<g>
</g>
<g>
</g>
<g>
</g>
</svg>
