<?xml version="1.0" encoding="iso-8859-1"?>
<!-- Generator: Adobe Illustrator 19.0.0, SVG Export Plug-In . SVG Version: 6.00 Build 0)  -->
<svg version="1.1" id="Layer_1" xmlns="http://www.w3.org/2000/svg" xmlns:xlink="http://www.w3.org/1999/xlink" x="0px" y="0px"
	 viewBox="0 0 511.998 511.998" style="enable-background:new 0 0 511.998 511.998;" xml:space="preserve">
<path style="fill:#CEC73C;" d="M109.874,289.615v-42.992h42.992c56.959,0,103.133,46.174,103.133,103.133v42.992h-42.992
	C156.048,392.749,109.874,346.575,109.874,289.615z"/>
<g>
	<polygon style="fill:#C4BA39;" points="249.387,399.361 109.874,246.625 262.61,386.137 	"/>
	<rect x="246.644" y="167.508" style="fill:#C4BA39;" width="18.701" height="344.489"/>
</g>
<path style="fill:#FC675B;" d="M266.91,210.771c45.663,0,88.347-24.014,110.841-63.753c3.354-5.926,6.143-12.016,8.077-18.155
	c17.682-56.126,4.715-110.226-28.961-120.834c-18.44-5.809-39.26,2.65-57.232,20.686C288.21,10.915,272.874,0,255.999,0
	c-16.874,0-32.212,10.915-43.637,28.716C194.389,10.678,173.57,2.22,155.131,8.028c-33.676,10.609-46.642,64.708-28.961,120.834
	c1.933,6.139,4.723,12.229,8.077,18.155c22.493,39.738,65.178,63.753,110.841,63.753h21.823V210.771z"/>
<path style="fill:#E8564F;" d="M175.389,147.017c-3.354-5.926-6.143-12.016-8.077-18.155
	c-16.267-51.635-6.579-101.526,21.295-117.445c-11.279-5.319-22.778-6.759-33.477-3.389
	c-33.676,10.609-46.642,64.708-28.961,120.834c1.933,6.139,4.723,12.229,8.077,18.155c22.493,39.738,65.178,63.753,110.841,63.753
	h21.823c3.238,0,6.458-0.135,9.659-0.373C234.618,207.273,196.287,183.939,175.389,147.017z"/>
<path style="fill:#CEC73C;" d="M276.537,210.393c0.013,0.001,0.026,0.002,0.039,0.004c-0.798,0.063-1.608,0.112-2.406,0.162
	c-0.81,0.038-1.608,0.088-2.418,0.112c-0.798,0.038-1.608,0.063-2.418,0.074c-0.81,0.013-1.608,0.025-2.418,0.025h-21.83
	c-41.865,0-81.237-20.197-104.825-54.195h231.48C349.971,187.955,314.749,207.56,276.537,210.393z"/>
<path style="fill:#C4BA39;" d="M276.576,210.396c-0.798,0.063-1.608,0.112-2.406,0.162c-0.81,0.038-1.608,0.088-2.418,0.112
	c-0.798,0.038-1.608,0.063-2.418,0.074c-0.81,0.013-1.608,0.025-2.418,0.025h-21.83c-41.865,0-81.237-20.197-104.825-54.195h41.142
	C203.168,187.942,238.376,207.54,276.576,210.396z"/>
<path style="fill:#CEC73C;" d="M402.123,340.83v-42.992h-42.992c-56.959,0-103.133,46.174-103.133,103.133v42.992h42.992
	C355.949,443.964,402.123,397.789,402.123,340.83z"/>
<polygon style="fill:#C4BA39;" points="249.387,437.353 402.123,297.839 262.61,450.576 "/>
<g>
</g>
<g>
</g>
<g>
</g>
<g>
</g>
<g>
</g>
<g>
</g>
<g>
</g>
<g>
</g>
<g>
</g>
<g>
</g>
<g>
</g>
<g>
</g>
<g>
</g>
<g>
</g>
<g>
</g>
</svg>
