<?xml version="1.0" encoding="iso-8859-1"?>
<!-- Generator: Adobe Illustrator 19.0.0, SVG Export Plug-In . SVG Version: 6.00 Build 0)  -->
<svg version="1.1" id="Layer_1" xmlns="http://www.w3.org/2000/svg" xmlns:xlink="http://www.w3.org/1999/xlink" x="0px" y="0px"
	 viewBox="0 0 512 512" style="enable-background:new 0 0 512 512;" xml:space="preserve">
<path style="fill:#A78966;" d="M216.297,512c-29.933,0-54.285-24.352-54.285-54.285c0-8.651,7.013-15.664,15.664-15.664
	c8.651,0,15.664,7.013,15.664,15.664c0,12.659,10.298,22.958,22.958,22.958s22.958-10.298,22.958-22.958V162.401
	c0-8.651,7.013-15.664,15.664-15.664s15.664,7.013,15.664,15.664v295.314C270.581,487.648,246.229,512,216.297,512z"/>
<path style="fill:#806749;" d="M254.917,146.738c-8.651,0-15.664,7.013-15.664,15.664v109.028c5.13-2.466,10.816-3.791,16.746-3.791
	c5.112,0,10.035,0.989,14.582,2.836V162.401C270.581,153.751,263.569,146.738,254.917,146.738z"/>
<path style="fill:#46F8FF;" d="M257.631,0h-3.263C139.824,0,46.106,93.718,46.106,208.263v64.134c4.977,0,9.423-2.267,12.366-5.824
	c0,0,25.79-30.395,57.599-30.261c23.189,0.097,43.733,11.289,56.464,28.664c0,0,4.318,7.421,13.513,7.421
	c8.905,0,13.651-7.649,13.651-7.649c12.743-17.246,33.212-28.436,56.301-28.436c23.19,0,43.733,11.289,56.464,28.664
	c0,0,5.276,7.421,13.513,7.421c7.948,0,13.651-7.649,13.651-7.649c12.743-17.246,33.212-28.436,56.301-28.436
	c32.065,0,57.599,30.261,57.599,30.261c2.943,3.557,7.389,5.824,12.366,5.824v-64.134C465.894,93.718,372.176,0,257.631,0z"/>
<g>
	<path style="fill:#00E7F0;" d="M257.631,0h-3.263C139.824,0,46.106,93.718,46.106,208.263v64.134c4.977,0,9.423-2.267,12.366-5.824
		c0,0,25.791-30.395,57.599-30.261c23.189,0.097,43.733,11.289,56.464,28.664c0,0,4.318,7.421,13.513,7.421
		C150.563,100.828,257.631,0,257.631,0z"/>
	<path style="fill:#00E7F0;" d="M254.368,0h3.263c114.545,0,208.263,93.718,208.263,208.263v64.134
		c-4.977,0-9.423-2.267-12.366-5.824c0,0-25.791-30.395-57.599-30.261c-23.189,0.097-43.733,11.289-56.464,28.664
		c0,0-4.318,7.421-13.513,7.421C361.437,100.828,254.368,0,254.368,0z"/>
</g>
<path style="fill:#00D7DF;" d="M254.368,0C139.824,0,46.106,93.718,46.106,208.263v64.134c4.977,0,9.423-2.267,12.366-5.824
	c0,0,23.748-27.966,53.77-30.114v-37.355C112.242,56.706,254.368,0,254.368,0z"/>
<g>
	<path style="fill:#DDFFFB;" d="M112.242,206.936c-4.325,0-7.832-3.507-7.832-7.832c0-36.569,9.101-70.878,27.048-101.979
		c2.163-3.746,6.951-5.029,10.698-2.869c3.746,2.163,5.03,6.952,2.869,10.698c-16.557,28.689-24.952,60.366-24.952,94.149
		C120.073,203.429,116.567,206.936,112.242,206.936z"/>
	<path style="fill:#DDFFFB;" d="M378.649,120.721c-2.895,0-5.678-1.611-7.038-4.386c-9.053-18.469-21.417-35.94-36.746-51.929
		c-2.993-3.122-2.888-8.08,0.234-11.073c3.122-2.993,8.08-2.888,11.073,0.234c16.448,17.157,29.739,35.956,39.504,55.876
		c1.904,3.884,0.299,8.575-3.585,10.48C380.982,120.463,379.806,120.721,378.649,120.721z"/>
	<path style="fill:#DDFFFB;" d="M398.327,206.936c-4.325,0-7.832-3.507-7.832-7.832c0-14.314-1.517-28.389-4.508-41.837
		c-0.94-4.222,1.722-8.406,5.944-9.346c4.226-0.941,8.406,1.722,9.346,5.944c3.24,14.563,4.883,29.783,4.883,45.239
		C406.159,203.429,402.652,206.936,398.327,206.936z"/>
	<path style="fill:#DDFFFB;" d="M256,171.59c-4.325,0-7.832-3.507-7.832-7.832V68.384c0-4.325,3.507-7.832,7.832-7.832
		s7.832,3.507,7.832,7.832v95.374C263.832,168.083,260.325,171.59,256,171.59z"/>
</g>
<g>
</g>
<g>
</g>
<g>
</g>
<g>
</g>
<g>
</g>
<g>
</g>
<g>
</g>
<g>
</g>
<g>
</g>
<g>
</g>
<g>
</g>
<g>
</g>
<g>
</g>
<g>
</g>
<g>
</g>
</svg>
