<?xml version="1.0" encoding="iso-8859-1"?>
<!-- Generator: Adobe Illustrator 19.0.0, SVG Export Plug-In . SVG Version: 6.00 Build 0)  -->
<svg version="1.1" id="Layer_1" xmlns="http://www.w3.org/2000/svg" xmlns:xlink="http://www.w3.org/1999/xlink" x="0px" y="0px"
	 viewBox="0 0 512 512" style="enable-background:new 0 0 512 512;" xml:space="preserve">
<path style="fill:#BCE380;" d="M512,127.999c0,141.388-114.614,256.001-256.002,256.001C114.617,384.001,0,269.387,0,127.999H512z"
	/>
<path style="fill:#428249;" d="M502.717,127.999c-4.259,132.603-113.081,238.795-246.719,238.795S13.545,260.602,9.283,127.999H0
	c0,141.388,114.617,256.001,255.998,256.001C397.386,384.001,512,269.387,512,127.999L502.717,127.999L502.717,127.999z"/>
<path style="fill:#E64546;" d="M479.455,128.404c0,123.41-100.043,223.454-223.457,223.454
	c-123.41,0-223.454-100.043-223.454-223.454L479.455,128.404L479.455,128.404z"/>
<g>
	
		<ellipse transform="matrix(0.6648 -0.747 0.747 0.6648 -107.3543 117.1317)" style="fill:#4F1818;" cx="76.844" cy="178.192" rx="6.175" ry="10.896"/>
	
		<ellipse transform="matrix(0.2192 -0.9757 0.9757 0.2192 -54.2816 246.5573)" style="fill:#4F1818;" cx="126.906" cy="157.193" rx="6.176" ry="10.897"/>
	
		<ellipse transform="matrix(-0.5957 -0.8032 0.8032 -0.5957 -16.1254 450.9738)" style="fill:#4F1818;" cx="105.437" cy="229.545" rx="6.172" ry="10.896"/>
	
		<ellipse transform="matrix(0.761 0.6488 -0.6488 0.761 173.8624 -92.2174)" style="fill:#4F1818;" cx="212.084" cy="189.848" rx="6.173" ry="10.897"/>
	
		<ellipse transform="matrix(0.9801 0.1984 -0.1984 0.9801 52.1637 -41.6961)" style="fill:#4F1818;" cx="234.151" cy="239.455" rx="6.175" ry="10.896"/>
	
		<ellipse transform="matrix(0.7903 -0.6127 0.6127 0.7903 -100.6848 144.8854)" style="fill:#4F1818;" cx="161.333" cy="219.541" rx="6.172" ry="10.896"/>
	
		<ellipse transform="matrix(-0.9656 -0.26 0.26 -0.9656 582.4513 508.007)" style="fill:#4F1818;" cx="324.824" cy="215.481" rx="6.175" ry="10.896"/>
	
		<ellipse transform="matrix(-0.9656 -0.26 0.26 -0.9656 244.4194 591.517)" style="fill:#4F1818;" cx="161.331" cy="279.593" rx="6.175" ry="10.896"/>
	
		<ellipse transform="matrix(-0.9706 0.2408 -0.2408 -0.9706 602.356 286.5951)" style="fill:#4F1818;" cx="283.668" cy="180.1" rx="6.173" ry="10.897"/>
	
		<ellipse transform="matrix(-0.9813 -0.1925 0.1925 -0.9813 417.6469 653.801)" style="fill:#4F1818;" cx="240.585" cy="306.612" rx="6.172" ry="10.896"/>
	
		<ellipse transform="matrix(-0.4515 0.8923 -0.8923 -0.4515 668.4276 -77.1544)" style="fill:#4F1818;" cx="357.928" cy="166.875" rx="6.173" ry="10.897"/>
	
		<ellipse transform="matrix(-0.9656 -0.26 0.26 -0.9656 721.7255 561.0457)" style="fill:#4F1818;" cx="397.969" cy="232.789" rx="6.175" ry="10.896"/>
	
		<ellipse transform="matrix(-0.9706 0.2408 -0.2408 -0.9706 696.9818 495.3969)" style="fill:#4F1818;" cx="318.223" cy="290.282" rx="6.173" ry="10.897"/>
	
		<ellipse transform="matrix(-0.4515 0.8923 -0.8923 -0.4515 790.1151 -117.2156)" style="fill:#4F1818;" cx="431.086" cy="184.247" rx="6.173" ry="10.897"/>
</g>
<g>
</g>
<g>
</g>
<g>
</g>
<g>
</g>
<g>
</g>
<g>
</g>
<g>
</g>
<g>
</g>
<g>
</g>
<g>
</g>
<g>
</g>
<g>
</g>
<g>
</g>
<g>
</g>
<g>
</g>
</svg>
