<?xml version="1.0" encoding="UTF-8" standalone="no"?>


<svg
   xmlns:i="http://ns.adobe.com/AdobeIllustrator/10.0/"
   xmlns:dc="http://purl.org/dc/elements/1.1/"
   xmlns:cc="http://creativecommons.org/ns#"
   xmlns:rdf="http://www.w3.org/1999/02/22-rdf-syntax-ns#"
   xmlns:svg="http://www.w3.org/2000/svg"
   xmlns="http://www.w3.org/2000/svg"
   xmlns:sodipodi="http://sodipodi.sourceforge.net/DTD/sodipodi-0.dtd"
   xmlns:inkscape="http://www.inkscape.org/namespaces/inkscape"
   enable-background="new 0 0 392.194 311.398"
   height="256"
   i:pageBounds="0 792 612 0"
   i:rulerOrigin="0 0"
   i:viewOrigin="109 551"
   overflow="visible"
   space="preserve"
   viewBox="0 0 255.99997 256"
   width="256"
   version="1.1"
   id="svg47"
   sodipodi:docname="watermelon_slice.svg"
   inkscape:version="0.92.4 (5da689c313, 2019-01-14)"
   style="overflow:visible">
  <title
     id="title830">Watermelon Slice</title>
  <defs
     id="defs51" />
  <sodipodi:namedview
     pagecolor="#ffffff"
     bordercolor="#666666"
     borderopacity="1"
     objecttolerance="10"
     gridtolerance="10"
     guidetolerance="10"
     inkscape:pageopacity="0"
     inkscape:pageshadow="2"
     inkscape:window-width="1920"
     inkscape:window-height="1025"
     id="namedview49"
     showgrid="false"
     inkscape:zoom="0.75787254"
     inkscape:cx="3.1791942"
     inkscape:cy="-16.483111"
     inkscape:window-x="-8"
     inkscape:window-y="-8"
     inkscape:window-maximized="1"
     inkscape:current-layer="svg47"
     fit-margin-top="0"
     fit-margin-left="0"
     fit-margin-right="0"
     fit-margin-bottom="0" />
  <metadata
     id="metadata2">
    <rdf:RDF>
      <cc:Work
         rdf:about="">
        <dc:title>Watermelon Slice</dc:title>
        <dc:description />
        <dc:subject>
          <rdf:Bag>
            <rdf:li>food</rdf:li>
            <rdf:li>fruit</rdf:li>
          </rdf:Bag>
        </dc:subject>
        <dc:publisher>
          <cc:Agent
             rdf:about="http://www.openclipart.org/">
            <dc:title>Open Clip Art Library</dc:title>
          </cc:Agent>
        </dc:publisher>
        <dc:creator>
          <cc:Agent>
            <dc:title>Gerald G.</dc:title>
          </cc:Agent>
        </dc:creator>
        <dc:rights>
          <cc:Agent>
            <dc:title>Gerald G.</dc:title>
          </cc:Agent>
        </dc:rights>
        <dc:date />
        <dc:format>image/svg+xml</dc:format>
        <dc:type
           rdf:resource="http://purl.org/dc/dcmitype/StillImage" />
        <cc:license
           rdf:resource="http://creativecommons.org/publicdomain/zero/1.0/" />
        <dc:language>en</dc:language>
        <dc:source>https://openclipart.org/detail/8533</dc:source>
      </cc:Work>
      <cc:License
         rdf:about="http://creativecommons.org/publicdomain/zero/1.0/">
        <cc:permits
           rdf:resource="http://creativecommons.org/ns#Reproduction" />
        <cc:permits
           rdf:resource="http://creativecommons.org/ns#Distribution" />
        <cc:permits
           rdf:resource="http://creativecommons.org/ns#DerivativeWorks" />
      </cc:License>
    </rdf:RDF>
  </metadata>
  <g
     id="g954"
     transform="matrix(0.65273817,0,0,0.65273817,3.4057466e-4,26.368883)">
    <path
       style="clip-rule:evenodd;fill-rule:evenodd;stroke:#000000;stroke-width:0.036;stroke-miterlimit:10"
       inkscape:connector-curvature="0"
       id="path4"
       stroke-miterlimit="10"
       i:knockout="Off"
       d="m 204.54,0.02 c -10.764,7.776 -20.735,16.308 -30.492,26.28 -9.792,9.828 -15.228,18.504 -27.684,32.832 -12.744,14.364 -32.688,37.008 -46.908,52.524 -14.112,15.264 -25.632,26.64 -37.044,39.42 -11.52,12.708 -21.024,24.409 -31.428,37.043 -10.548,12.709 -20.592,25.309 -30.96,38.484 17.496,15.877 35.784,29.592 55.836,41.725 19.98,12.131 35.424,23.219 63.288,30.492 27.864,7.127 69.876,14.256 102.276,12.203 32.22,-2.268 65.951,-15.119 90.071,-25.344 23.868,-10.367 39.456,-25.129 52.992,-36.107 13.536,-11.016 22.536,-20.736 27.685,-29.557 C 377.699,200.214 363.588,180.56 349.008,160.472 334.428,140.239 318.588,117.847 305.375,99.955 292.02,82.063 281.436,68.959 269.735,53.983 257.964,38.863 246.731,24.643 235.499,10.351 225.204,6.932 214.872,3.476 204.54,0.02 Z" />
    <path
       style="clip-rule:evenodd;fill:#ff6666;fill-rule:evenodd;stroke:#000000;stroke-width:0.036;stroke-miterlimit:10"
       inkscape:connector-curvature="0"
       id="path6"
       stroke-miterlimit="10"
       i:knockout="Off"
       d="m 204.54,5.204 c -6.048,3.852 -12.563,8.964 -19.691,15.48 -7.2,6.552 -16.164,15.156 -23.004,23.436 -6.876,8.1 -9.9,15.624 -17.82,25.344 -8.136,9.756 -18.648,20.268 -30.024,32.364 -11.592,12.132 -26.1,26.136 -37.98,39.384 -11.88,13.068 -22.716,27.144 -32.364,38.483 -9.649,11.305 -17.749,20.557 -24.877,28.584 10.224,8.713 22.932,17.641 38.952,27.217 16.02,9.467 35.424,23.076 56.268,29.555 20.808,6.48 44.964,9.324 67.068,8.93 21.888,-0.648 45.396,-6.336 63.324,-12.205 17.784,-6.012 27.252,-12.707 42.696,-23.004 15.371,-10.367 31.355,-23.004 48.779,-38.447 -16.775,-25.596 -35.64,-53.964 -57.708,-86.76 C 256.021,80.66 231.937,45.236 204.54,5.204 Z" />
    <path
       style="clip-rule:evenodd;fill:#ff6666;fill-rule:evenodd;stroke:#000000;stroke-width:0.036;stroke-miterlimit:10"
       inkscape:connector-curvature="0"
       id="path8"
       stroke-miterlimit="10"
       i:knockout="Off"
       d="m 208.284,3.8 24.408,10.296 c 22.068,26.712 44.208,54.576 67.536,85.392 23.364,30.816 46.62,62.639 71.28,97.559 l -29.557,2.342 C 317.723,164.073 295.008,130.952 272.543,98.084 250.08,65.216 228.984,34.292 208.284,3.8 Z" />
    <path
       style="clip-rule:evenodd;fill:#c2ff80;fill-rule:evenodd;stroke:#000000;stroke-width:0.036;stroke-miterlimit:10"
       inkscape:connector-curvature="0"
       id="path10"
       stroke-miterlimit="10"
       i:knockout="Off"
       d="m 373.381,200.324 -29.521,2.34 7.488,15.947 34.235,0.936 z" />
    <path
       style="clip-rule:evenodd;fill:#408000;fill-rule:evenodd;stroke:#000000;stroke-width:0.036;stroke-miterlimit:10"
       inkscape:connector-curvature="0"
       id="path12"
       stroke-miterlimit="10"
       i:knockout="Off"
       d="m 350.881,222.355 c -0.9,3.852 -7.524,10.225 -20.16,19.26 -12.816,9.109 -33.084,25.344 -55.368,34.705 -22.464,9.143 -51.408,17.207 -77.4,20.16 -25.992,2.879 -51.12,1.943 -76.896,-2.809 8.028,4.283 19.404,7.561 34.704,9.828 15.228,2.305 35.424,5.688 56.268,3.779 20.809,-2.16 45.72,-7.848 67.536,-15.947 21.744,-8.281 44.784,-21.205 61.92,-32.365 16.956,-11.158 29.916,-22.139 39.42,-33.768 -10.009,-0.934 -20.016,-1.87 -30.024,-2.843 z" />
    <path
       style="clip-rule:evenodd;fill:#c2ff80;fill-rule:evenodd;stroke:#000000;stroke-width:0.036;stroke-miterlimit:10"
       inkscape:connector-curvature="0"
       id="path14"
       stroke-miterlimit="10"
       i:knockout="Off"
       d="m 338.677,204.535 7.523,15.48 c -17.748,16.957 -36.611,30.889 -57.708,42.229 -21.168,11.268 -43.416,20.16 -68.004,25.307 -24.732,4.969 -54.432,6.912 -78.804,4.717 -24.552,-2.34 -43.704,-7.236 -66.6,-18.287 C 52.224,262.749 29.4,247.124 5.64,226.135 l 9.864,-12.672 c 15.048,12.42 30.672,23.221 47.844,32.832 17.028,9.504 33.84,19.152 53.928,24.373 20.088,5.148 44.244,7.344 65.664,6.588 21.313,-0.793 41.328,-4.031 61.452,-11.268 20.088,-7.453 41.688,-22.033 57.708,-32.365 15.84,-10.367 27.756,-19.836 36.577,-29.088 z" />
    <path
       style="clip-rule:evenodd;fill-rule:evenodd;stroke:#000000;stroke-width:0.036;stroke-miterlimit:10"
       inkscape:connector-curvature="0"
       id="path16"
       stroke-miterlimit="10"
       i:knockout="Off"
       d="m 165.588,121.052 c -2.304,0.504 -6.732,10.008 -8.424,14.076 -1.872,3.96 -3.744,7.74 -1.872,9.396 1.908,1.476 10.98,1.44 13.608,-0.504 2.448,-2.196 1.944,-7.812 1.404,-11.7 -0.612,-3.888 -2.555,-11.808 -4.716,-11.268 z" />
    <path
       style="clip-rule:evenodd;fill-rule:evenodd;stroke:#000000;stroke-width:0.036;stroke-miterlimit:10"
       inkscape:connector-curvature="0"
       id="path18"
       stroke-miterlimit="10"
       i:knockout="Off"
       d="m 253.32,59.132 c 1.116,2.664 2.772,6.948 4.68,9.396 1.801,2.304 6.013,5.76 6.12,4.68 -0.107,-1.188 -3.996,-7.812 -6.12,-11.268 -2.195,-3.564 -5.724,-8.856 -6.552,-9.36 -0.792,-0.432 0.756,3.744 1.872,6.552 z" />
    <path
       style="clip-rule:evenodd;fill-rule:evenodd;stroke:#000000;stroke-width:0.036;stroke-miterlimit:10"
       inkscape:connector-curvature="0"
       id="path20"
       stroke-miterlimit="10"
       i:knockout="Off"
       d="m 279.564,85.412 c 1.08,2.556 2.844,7.02 4.716,9.36 1.836,2.304 5.94,6.048 6.084,4.716 -0.144,-1.584 -3.924,-9.576 -6.084,-13.14 -2.268,-3.456 -5.76,-7.452 -6.588,-7.524 -0.755,-0.144 0.649,3.816 1.872,6.588 z" />
    <path
       style="clip-rule:evenodd;fill-rule:evenodd;stroke:#000000;stroke-width:0.036;stroke-miterlimit:10"
       inkscape:connector-curvature="0"
       id="path22"
       stroke-miterlimit="10"
       i:knockout="Off"
       d="m 300.696,124.796 c 1.116,2.664 2.772,6.948 4.68,9.396 1.729,2.412 5.652,5.364 6.084,4.68 0.288,-0.972 -1.655,-6.372 -3.743,-9.828 -2.232,-3.564 -7.74,-10.08 -8.893,-10.8 -1.187,-0.684 0.685,3.816 1.872,6.552 z" />
    <path
       style="clip-rule:evenodd;fill-rule:evenodd;stroke:#000000;stroke-width:0.036;stroke-miterlimit:10"
       inkscape:connector-curvature="0"
       id="path24"
       stroke-miterlimit="10"
       i:knockout="Off"
       d="m 242.521,131.384 c -2.304,0.504 -6.732,10.008 -8.424,14.076 -1.836,3.852 -3.816,7.848 -1.908,9.36 1.908,1.44 10.979,1.512 13.608,-0.468 2.447,-2.16 1.943,-7.884 1.403,-11.736 -0.647,-3.924 -2.483,-11.736 -4.679,-11.232 z" />
    <path
       style="clip-rule:evenodd;fill-rule:evenodd;stroke:#000000;stroke-width:0.036;stroke-miterlimit:10"
       inkscape:connector-curvature="0"
       id="path26"
       stroke-miterlimit="10"
       i:knockout="Off"
       d="m 214.368,174.512 c -2.304,0.504 -6.731,10.008 -8.424,14.076 -1.872,3.959 -3.744,7.74 -1.872,9.396 1.908,1.439 10.98,1.512 13.608,-0.469 2.448,-2.16 1.943,-7.885 1.403,-11.736 -0.61,-3.886 -2.555,-11.806 -4.715,-11.267 z" />
    <path
       style="clip-rule:evenodd;fill-rule:evenodd;stroke:#000000;stroke-width:0.036;stroke-miterlimit:10"
       inkscape:connector-curvature="0"
       id="path28"
       stroke-miterlimit="10"
       i:knockout="Off"
       d="m 114.468,162.813 c -2.304,0.504 -6.732,10.008 -8.424,14.076 -1.836,3.852 -3.816,7.848 -1.908,9.359 1.908,1.439 10.98,1.512 13.608,-0.469 2.448,-2.16 1.944,-7.883 1.404,-11.736 -0.648,-3.924 -2.483,-11.734 -4.68,-11.23 z" />
    <path
       style="clip-rule:evenodd;fill-rule:evenodd;stroke:#000000;stroke-width:0.036;stroke-miterlimit:10"
       inkscape:connector-curvature="0"
       id="path30"
       stroke-miterlimit="10"
       i:knockout="Off"
       d="m 126.168,105.104 c -2.016,0.396 -5.544,8.352 -7.092,11.772 -1.404,3.24 -3.312,6.516 -1.548,7.884 1.62,1.26 9.252,1.224 11.376,-0.396 1.944,-1.836 1.692,-6.588 1.188,-9.828 -0.612,-3.312 -2.051,-9.828 -3.924,-9.432 z" />
    <path
       style="clip-rule:evenodd;fill-rule:evenodd;stroke:#000000;stroke-width:0.036;stroke-miterlimit:10"
       inkscape:connector-curvature="0"
       id="path32"
       stroke-miterlimit="10"
       i:knockout="Off"
       d="m 170.88,75.08 c -1.692,0.36 -4.896,7.272 -6.12,10.188 -1.26,2.844 -2.808,5.58 -1.332,6.804 1.404,1.152 7.92,0.936 9.828,-0.36 1.8,-1.548 1.368,-5.724 1.044,-8.496 -0.467,-2.88 -1.8,-8.46 -3.42,-8.136 z" />
    <path
       style="clip-rule:evenodd;fill-rule:evenodd;stroke:#000000;stroke-width:0.036;stroke-miterlimit:10"
       inkscape:connector-curvature="0"
       id="path34"
       stroke-miterlimit="10"
       i:knockout="Off"
       d="m 203.713,43.184 c -1.692,0.36 -4.896,7.272 -6.12,10.188 -1.26,2.844 -2.808,5.58 -1.333,6.804 1.404,1.152 7.92,0.936 9.829,-0.36 1.8,-1.548 1.367,-5.724 1.044,-8.496 -0.469,-2.88 -1.801,-8.46 -3.42,-8.136 z" />
    <path
       style="clip-rule:evenodd;fill-rule:evenodd;stroke:#000000;stroke-width:0.036;stroke-miterlimit:10"
       inkscape:connector-curvature="0"
       id="path36"
       stroke-miterlimit="10"
       i:knockout="Off"
       d="m 212.173,97.112 c -1.584,0.36 -4.969,7.272 -6.12,10.188 -1.225,2.844 -2.88,5.58 -1.368,6.804 1.368,1.152 8.028,0.936 9.864,-0.36 1.836,-1.476 1.296,-5.724 1.008,-8.46 -0.433,-2.844 -1.836,-8.532 -3.384,-8.172 z" />
    <path
       style="clip-rule:evenodd;fill-rule:evenodd;stroke:#000000;stroke-width:0.036;stroke-miterlimit:10"
       inkscape:connector-curvature="0"
       id="path38"
       stroke-miterlimit="10"
       i:knockout="Off"
       d="m 159.504,189.057 c -2.232,0.504 -6.804,10.008 -8.46,14.074 -1.872,3.961 -3.744,7.74 -1.872,9.396 1.908,1.439 10.98,1.512 13.608,-0.467 2.448,-2.16 1.944,-7.885 1.404,-11.736 -0.647,-3.888 -2.484,-11.808 -4.68,-11.267 z" />
  </g>
</svg>
