<?xml version="1.0" encoding="iso-8859-1"?>
<!-- Generator: Adobe Illustrator 19.0.0, SVG Export Plug-In . SVG Version: 6.00 Build 0)  -->
<svg version="1.1" id="Layer_1" xmlns="http://www.w3.org/2000/svg" xmlns:xlink="http://www.w3.org/1999/xlink" x="0px" y="0px"
	 viewBox="0 0 512 512" style="enable-background:new 0 0 512 512;" xml:space="preserve">
<path style="fill:#C6C5CA;" d="M455.238,146.63c-52.442-22.186-117.825,13.889-146.036,80.574s-8.569,138.73,43.873,160.916
	c52.442,22.186,117.825-13.889,146.036-80.574C527.323,240.861,507.68,168.816,455.238,146.63z M471.663,295.934
	c-17.167,40.582-52.529,68.925-85.991,68.925c-7.359,0-14.42-1.408-20.986-4.186c-16.765-7.093-29.21-22.777-35.04-44.163
	c-6.537-23.976-4.05-51.568,7.003-77.695c17.168-40.582,52.529-68.925,85.991-68.925c7.359,0,14.42,1.408,20.986,4.186
	c16.765,7.093,29.21,22.777,35.041,44.163C485.204,242.216,482.716,269.809,471.663,295.934z"/>
<path style="fill:#ACABB1;" d="M427.552,385.021l-2.687-32.384c-12.541,7.81-26.011,12.223-39.192,12.223
	c-7.359,0-14.42-1.408-20.986-4.186c-16.765-7.093-29.21-22.777-35.04-44.163c-6.537-23.976-4.05-51.568,7.003-77.695
	c14.983-35.417,43.823-61.507,73.163-67.575l-1.792-21.603c-0.231-2.781-0.707-5.491-1.382-8.123
	c-39.247,6.931-77.564,38.713-97.437,85.689c-28.211,66.685-8.569,138.73,43.873,160.916
	C376.799,398.158,403.17,396.27,427.552,385.021z"/>
<polygon style="fill:#C6C5CA;" points="47.695,205.831 194.937,414.453 218.78,327.031 74.732,177.874 "/>
<polygon style="fill:#ACABB1;" points="132.98,326.668 194.937,414.453 218.78,327.031 139.741,245.189 "/>
<g>
	<path style="fill:#E0E0E2;" d="M79.775,134.426c-5.678-5.678-14.885-5.679-20.564,0L4.259,189.377
		c-5.678,5.678-5.678,14.885,0,20.564c10.085,10.086,23.495,15.64,37.758,15.64s27.673-5.555,37.758-15.64
		C100.595,189.122,100.595,155.245,79.775,134.426z"/>
	<path style="fill:#E0E0E2;" d="M398.204,410.639l-21.441-258.407c-0.788-9.494-8.725-16.8-18.252-16.8H197.18
		c-9.528,0-17.464,7.305-18.252,16.8l-21.441,258.407c-0.423,5.103,1.309,10.15,4.777,13.918c3.468,3.767,8.355,5.911,13.475,5.911
		h204.214c5.121,0,10.008-2.143,13.475-5.911C396.895,420.79,398.627,415.742,398.204,410.639z"/>
</g>
<path style="fill:#C7C5CA;" d="M198.786,410.639l21.441-258.407c0.788-9.494,8.725-16.8,18.252-16.8H197.18
	c-9.528,0-17.464,7.305-18.252,16.8l-21.441,258.407c-0.423,5.103,1.309,10.15,4.777,13.918c3.468,3.768,8.355,5.911,13.475,5.911
	h41.3c-5.121,0-10.008-2.143-13.475-5.911C200.095,420.79,198.362,415.742,198.786,410.639z"/>
<path style="fill:#FFEB99;" d="M285.352,162.12h-15.014c-10.351,0-18.819-8.469-18.819-18.819V66.695
	c0-10.351,8.469-18.819,18.819-18.819h15.014c10.351,0,18.819,8.469,18.819,18.819v76.606
	C304.171,153.652,295.702,162.12,285.352,162.12z"/>
<path style="fill:#FFDA44;" d="M284.521,143.301V66.695c0-7.098,3.984-13.309,9.825-16.513c-2.677-1.468-5.742-2.306-8.995-2.306
	h-15.014c-10.351,0-18.819,8.469-18.819,18.819v76.606c0,10.351,8.469,18.819,18.819,18.819h15.014c3.253,0,6.318-0.839,8.995-2.306
	C288.505,156.611,284.521,150.399,284.521,143.301z"/>
<path style="fill:#FF728B;" d="M268.726,305.076c-23.214,40.208-55.547-15.796-9.12-15.796c-46.428,0-14.095-56.003,9.12-15.796
	c-23.214-40.208,41.454-40.208,18.239,0c23.214-40.208,55.547,15.796,9.12,15.796c46.428,0,14.095,56.003-9.12,15.796
	C310.179,345.284,245.511,345.284,268.726,305.076z"/>
<g>
	<circle style="fill:#FFEB99;" cx="277.847" cy="289.285" r="11.543"/>
	<path style="fill:#FFEB99;" d="M390.261,464.125H167.66c-10.351,0-18.819-8.469-18.819-18.819v-21.967
		c0-10.351,8.469-18.819,18.819-18.819h222.601c10.351,0,18.819,8.469,18.819,18.819v21.967
		C409.08,455.656,400.612,464.125,390.261,464.125z"/>
</g>
<g>
	<path style="fill:#FFDA44;" d="M197.951,445.305v-21.967c0-10.351,8.469-18.819,18.819-18.819H167.66
		c-10.351,0-18.819,8.469-18.819,18.819v21.967c0,10.351,8.469,18.819,18.819,18.819h49.111
		C206.42,464.125,197.951,455.656,197.951,445.305z"/>
	<path style="fill:#FFDA44;" d="M376.064,442.163h-93.051c-4.331,0-7.841-3.511-7.841-7.841s3.511-7.841,7.841-7.841h93.051
		c4.331,0,7.841,3.511,7.841,7.841C383.905,438.653,380.396,442.163,376.064,442.163z"/>
</g>
<g>
</g>
<g>
</g>
<g>
</g>
<g>
</g>
<g>
</g>
<g>
</g>
<g>
</g>
<g>
</g>
<g>
</g>
<g>
</g>
<g>
</g>
<g>
</g>
<g>
</g>
<g>
</g>
<g>
</g>
</svg>
