<?xml version="1.0" encoding="iso-8859-1"?>
<!-- Generator: Adobe Illustrator 19.0.0, SVG Export Plug-In . SVG Version: 6.00 Build 0)  -->
<svg version="1.1" id="Capa_1" xmlns="http://www.w3.org/2000/svg" xmlns:xlink="http://www.w3.org/1999/xlink" x="0px" y="0px"
	 viewBox="0 0 431.026 431.026" style="enable-background:new 0 0 431.026 431.026;" xml:space="preserve">
<g>
	<path style="fill:#7D868C;" d="M66.076,178.002L66.076,178.002c0,85.04,68.938,153.979,153.978,153.979h56.993
		c85.04,0,153.978-68.939,153.978-153.979l0,0H66.076z"/>
	<path style="fill:#C3C6C8;" d="M400.283,178.002c-17.173,66.295-77.4,115.255-149.066,115.255h-56.993
		c-45.067,0-85.61-19.364-113.769-50.223c24.515,52.535,77.801,88.946,139.599,88.946h56.993
		c85.04,0,153.978-68.939,153.978-153.979l0,0H400.283z"/>
	<g>
		<circle style="fill:#FFFFFF;" cx="321.534" cy="235.854" r="19.587"/>
		<circle style="fill:#375D9D;" cx="321.533" cy="235.854" r="9.793"/>
	</g>
	<path style="fill:#5C6670;" d="M298.104,178.002c0,4.863,3.942,8.806,8.806,8.806c4.863,0,8.806-3.942,8.806-8.806H298.104z"/>
	<path style="fill:#5C6670;" d="M15,99.045H0v31.263c0,26.34,21.353,47.693,47.693,47.693h18.383v-27.881
		C66.076,121.913,43.208,99.045,15,99.045z"/>
	<path style="fill:#5C6670;" d="M47.693,178.002C21.353,178.002,0,199.355,0,225.695v31.264h15
		c28.208,0,51.076-22.868,51.076-51.076v-27.881H47.693z"/>
	<path style="fill:#5C6670;" d="M228.133,245.647c-28.209,0-51.076,22.867-51.076,51.076v15h12.881
		c36.492,0,66.076-29.583,66.076-66.076l0,0H228.133z"/>
	<g>
		<path style="fill:#00B3E3;" d="M305.595,181.502c-1.933,0-3.5-1.567-3.5-3.5v-18.473c0-9.354-7.61-16.963-16.964-16.963
			c-4.531,0-8.791,1.764-11.996,4.968c-1.367,1.366-3.583,1.366-4.95-0.001c-1.366-1.367-1.366-3.583,0.001-4.95
			c4.527-4.525,10.545-7.017,16.945-7.017c13.214,0,23.964,10.75,23.964,23.963v18.473
			C309.095,179.934,307.528,181.502,305.595,181.502z"/>
		<path style="fill:#0082CA;" d="M305.595,181.502c-1.933,0-3.5-1.567-3.5-3.5V134.35c0-13.213,10.751-23.963,23.965-23.963
			c6.4,0,12.418,2.492,16.945,7.017c1.367,1.367,1.367,3.583,0.001,4.95c-1.367,1.368-3.583,1.366-4.95,0.002
			c-3.205-3.204-7.466-4.969-11.996-4.969c-9.354,0-16.965,7.61-16.965,16.963v43.651
			C309.095,179.934,307.528,181.502,305.595,181.502z"/>
		<path style="fill:#00B3E3;" d="M305.595,181.502c-1.933,0-3.5-1.567-3.5-3.5v-19.326c0-13.213,10.751-23.963,23.965-23.963
			c1.933,0,3.5,1.567,3.5,3.5c0,1.933-1.567,3.5-3.5,3.5c-9.354,0-16.965,7.61-16.965,16.963v19.326
			C309.095,179.934,307.528,181.502,305.595,181.502z"/>
	</g>
</g>
<g>
</g>
<g>
</g>
<g>
</g>
<g>
</g>
<g>
</g>
<g>
</g>
<g>
</g>
<g>
</g>
<g>
</g>
<g>
</g>
<g>
</g>
<g>
</g>
<g>
</g>
<g>
</g>
<g>
</g>
</svg>
