<?xml version="1.0" encoding="iso-8859-1"?>
<!-- Generator: Adobe Illustrator 19.0.0, SVG Export Plug-In . SVG Version: 6.00 Build 0)  -->
<svg version="1.1" id="Layer_1" xmlns="http://www.w3.org/2000/svg" xmlns:xlink="http://www.w3.org/1999/xlink" x="0px" y="0px"
	 viewBox="0 0 512.001 512.001" style="enable-background:new 0 0 512.001 512.001;" xml:space="preserve">
<circle style="fill:#5F4D37;" cx="41.862" cy="342.581" r="41.862"/>
<path style="fill:#B39A7C;" d="M41.863,368.791c-14.451,0-26.207-11.757-26.207-26.207c0-14.452,11.757-26.208,26.207-26.208
	c14.452,0,26.208,11.757,26.208,26.208C68.071,357.035,56.314,368.791,41.863,368.791z"/>
<polygon style="fill:#E0E0E2;" points="51.026,180.11 412.284,152.123 398.721,263.715 101.841,328.538 "/>
<polygon style="fill:#C6C5CA;" points="51.026,180.11 101.841,328.538 178.581,311.782 131.371,173.886 "/>
<path style="fill:#FF728B;" d="M51.018,187.937c-4.05,0-7.478-3.117-7.796-7.223c-0.334-4.31,2.89-8.074,7.199-8.409l361.259-27.986
	c4.294-0.332,8.074,2.891,8.409,7.199c0.334,4.31-2.89,8.074-7.199,8.409L51.63,187.914
	C51.426,187.929,51.22,187.937,51.018,187.937z"/>
<path style="fill:#FF3F62;" d="M128.473,166.258l-78.051,6.047c-4.31,0.334-7.534,4.099-7.199,8.409
	c0.318,4.106,3.747,7.223,7.796,7.223c0.202,0,0.408-0.007,0.613-0.023l82.246-6.372L128.473,166.258z"/>
<path style="fill:#C6C5CA;" d="M245.819,270.688c-3.692,0-6.979-2.624-7.684-6.384c-0.798-4.249,2-8.34,6.249-9.137l79.571-14.936
	c4.25-0.797,8.341,2,9.138,6.249c0.798,4.249-2,8.34-6.249,9.137l-79.571,14.936C246.784,270.644,246.298,270.688,245.819,270.688z"
	/>
<path style="fill:#ACABB1;" d="M504.687,124.331c-3.909-1.838-8.574-0.157-10.414,3.756l-55.968,119.097L40.179,334.939
	c-4.222,0.931-6.89,5.108-5.959,9.328c0.805,3.655,4.043,6.145,7.637,6.145c0.557,0,1.124-0.061,1.692-0.186l193.781-42.713
	l130.567,83.525c1.277,0.817,2.744,1.235,4.219,1.235c0.967,0,1.937-0.18,2.862-0.543c2.334-0.916,4.088-2.896,4.716-5.326
	l30.245-116.938l35.5-7.825c2.371-0.523,4.367-2.117,5.4-4.316l57.606-122.584C510.282,130.833,508.601,126.17,504.687,124.331z
	 M367.239,372.036l-108.305-69.283l133.855-29.504L367.239,372.036z"/>
<path style="fill:#FF728B;" d="M475.752,154.302l11.173-26.581c2.792-6.643,10.442-9.764,17.082-6.972
	c6.643,2.792,9.764,10.44,6.972,17.082l-11.446,27.085L475.752,154.302z"/>
<g>
</g>
<g>
</g>
<g>
</g>
<g>
</g>
<g>
</g>
<g>
</g>
<g>
</g>
<g>
</g>
<g>
</g>
<g>
</g>
<g>
</g>
<g>
</g>
<g>
</g>
<g>
</g>
<g>
</g>
</svg>
