{
  "header": {
    "keySignatures": [
      {
        "key": "C",
        "scale": "major",
        "ticks": 0
      },
      {
        "key": "C",
        "scale": "major",
        "ticks": 0
      }
    ],
    "meta": [],
    "name": "Piano\u0000",
    "ppq": 480,
    "tempos": [
      {
        "bpm": 143.99988480009216,
        "ticks": 0
      },
      {
        "bpm": 115.99986080016704,
        "ticks": 97920
      },
      {
        "bpm": 113.99995440001824,
        "ticks": 99960
      }
    ],
    "timeSignatures": [
      {
        "ticks": 0,
        "timeSignature": [
          4,
          4
        ],
        "measures": 0
      }
    ]
  },
  "tracks": [
    {
      "channel": 0,
      "controlChanges": {
        "7": [
          {
            "number": 7,
            "ticks": 0,
            "time": 0,
            "value": 0.7874015748031497
          }
        ],
        "10": [
          {
            "number": 10,
            "ticks": 0,
            "time": 0,
            "value": 0.5039370078740157
          }
        ],
        "91": [
          {
            "number": 91,
            "ticks": 0,
            "time": 0,
            "value": 0
          }
        ],
        "93": [
          {
            "number": 93,
            "ticks": 0,
            "time": 0,
            "value": 0
          }
        ],
        "121": [
          {
            "number": 121,
            "ticks": 0,
            "time": 0,
            "value": 0
          }
        ]
      },
      "pitchBends": [],
      "instrument": {
        "family": "piano",
        "number": 0,
        "name": "acoustic grand piano"
      },
      "name": "Piano\u0000",
      "notes": [
        {
          "duration": 0.416667,
          "durationTicks": 480,
          "midi": 64,
          "name": "E4",
          "ticks": 0,
          "time": 0,
          "velocity": 0.9448818897637795
        },
        {
          "duration": 0.19704876875000002,
          "durationTicks": 227,
          "midi": 53,
          "name": "F3",
          "ticks": 120,
          "time": 0.10416675,
          "velocity": 0.6299212598425197
        },
        {
          "duration": 0.09809035625000001,
          "durationTicks": 113,
          "midi": 57,
          "name": "A3",
          "ticks": 240,
          "time": 0.2083335,
          "velocity": 0.6299212598425197
        },
        {
          "duration": 0.09809035625000001,
          "durationTicks": 113,
          "midi": 60,
          "name": "C4",
          "ticks": 360,
          "time": 0.31250025000000003,
          "velocity": 0.6299212598425197
        },
        {
          "duration": 1.2491329437500003,
          "durationTicks": 1439,
          "midi": 64,
          "name": "E4",
          "ticks": 480,
          "time": 0.416667,
          "velocity": 0.9448818897637795
        },
        {
          "duration": 0.09809035624999995,
          "durationTicks": 113,
          "midi": 65,
          "name": "F4",
          "ticks": 600,
          "time": 0.52083375,
          "velocity": 0.6299212598425197
        },
        {
          "duration": 0.09809035624999995,
          "durationTicks": 113,
          "midi": 69,
          "name": "A4",
          "ticks": 720,
          "time": 0.6250005000000001,
          "velocity": 0.6299212598425197
        },
        {
          "duration": 0.09809035624999995,
          "durationTicks": 113,
          "midi": 72,
          "name": "C5",
          "ticks": 840,
          "time": 0.72916725,
          "velocity": 0.6299212598425197
        },
        {
          "duration": 0.10329869375,
          "durationTicks": 119,
          "midi": 76,
          "name": "E5",
          "ticks": 960,
          "time": 0.833334,
          "velocity": 0.9448818897637795
        },
        {
          "duration": 0.09809035625000007,
          "durationTicks": 113,
          "midi": 77,
          "name": "F5",
          "ticks": 1080,
          "time": 0.93750075,
          "velocity": 0.6299212598425197
        },
        {
          "duration": 0.09809035624999995,
          "durationTicks": 113,
          "midi": 81,
          "name": "A5",
          "ticks": 1200,
          "time": 1.0416675,
          "velocity": 0.6299212598425197
        },
        {
          "duration": 0.09809035624999995,
          "durationTicks": 113,
          "midi": 84,
          "name": "C6",
          "ticks": 1320,
          "time": 1.14583425,
          "velocity": 0.6299212598425197
        },
        {
          "duration": 0.10329869375,
          "durationTicks": 119,
          "midi": 88,
          "name": "E6",
          "ticks": 1440,
          "time": 1.2500010000000001,
          "velocity": 0.9448818897637795
        },
        {
          "duration": 0.09809035624999995,
          "durationTicks": 113,
          "midi": 89,
          "name": "F6",
          "ticks": 1560,
          "time": 1.35416775,
          "velocity": 0.6299212598425197
        },
        {
          "duration": 0.09809035624999995,
          "durationTicks": 113,
          "midi": 93,
          "name": "A6",
          "ticks": 1680,
          "time": 1.4583345,
          "velocity": 0.6299212598425197
        },
        {
          "duration": 0.09809035624999995,
          "durationTicks": 113,
          "midi": 96,
          "name": "C7",
          "ticks": 1800,
          "time": 1.56250125,
          "velocity": 0.6299212598425197
        },
        {
          "duration": 0.10329869375,
          "durationTicks": 119,
          "midi": 100,
          "name": "E7",
          "ticks": 1920,
          "time": 1.666668,
          "velocity": 0.9448818897637795
        },
        {
          "duration": 0.09809035624999995,
          "durationTicks": 113,
          "midi": 96,
          "name": "C7",
          "ticks": 2040,
          "time": 1.7708347500000001,
          "velocity": 0.6299212598425197
        },
        {
          "duration": 0.09809035624999995,
          "durationTicks": 113,
          "midi": 93,
          "name": "A6",
          "ticks": 2160,
          "time": 1.8750015,
          "velocity": 0.6299212598425197
        },
        {
          "duration": 0.09809035624999995,
          "durationTicks": 113,
          "midi": 89,
          "name": "F6",
          "ticks": 2280,
          "time": 1.97916825,
          "velocity": 0.6299212598425197
        },
        {
          "duration": 0.10329869375000023,
          "durationTicks": 119,
          "midi": 88,
          "name": "E6",
          "ticks": 2400,
          "time": 2.083335,
          "velocity": 0.9448818897637795
        },
        {
          "duration": 0.09809035625000018,
          "durationTicks": 113,
          "midi": 84,
          "name": "C6",
          "ticks": 2520,
          "time": 2.18750175,
          "velocity": 0.6299212598425197
        },
        {
          "duration": 0.09809035624999973,
          "durationTicks": 113,
          "midi": 81,
          "name": "A5",
          "ticks": 2640,
          "time": 2.2916685,
          "velocity": 0.6299212598425197
        },
        {
          "duration": 0.09809035624999973,
          "durationTicks": 113,
          "midi": 77,
          "name": "F5",
          "ticks": 2760,
          "time": 2.39583525,
          "velocity": 0.6299212598425197
        },
        {
          "duration": 0.10329869374999978,
          "durationTicks": 119,
          "midi": 76,
          "name": "E5",
          "ticks": 2880,
          "time": 2.5000020000000003,
          "velocity": 0.9448818897637795
        },
        {
          "duration": 0.09809035625000018,
          "durationTicks": 113,
          "midi": 72,
          "name": "C5",
          "ticks": 3000,
          "time": 2.60416875,
          "velocity": 0.6299212598425197
        },
        {
          "duration": 0.09809035625000018,
          "durationTicks": 113,
          "midi": 69,
          "name": "A4",
          "ticks": 3120,
          "time": 2.7083355,
          "velocity": 0.6299212598425197
        },
        {
          "duration": 0.09809035624999973,
          "durationTicks": 113,
          "midi": 65,
          "name": "F4",
          "ticks": 3240,
          "time": 2.81250225,
          "velocity": 0.6299212598425197
        },
        {
          "duration": 0.10329869374999978,
          "durationTicks": 119,
          "midi": 64,
          "name": "E4",
          "ticks": 3360,
          "time": 2.916669,
          "velocity": 0.9448818897637795
        },
        {
          "duration": 0.09809035624999973,
          "durationTicks": 113,
          "midi": 60,
          "name": "C4",
          "ticks": 3480,
          "time": 3.0208357500000003,
          "velocity": 0.6299212598425197
        },
        {
          "duration": 0.09809035625000018,
          "durationTicks": 113,
          "midi": 57,
          "name": "A3",
          "ticks": 3600,
          "time": 3.1250025,
          "velocity": 0.6299212598425197
        },
        {
          "duration": 0.4166669999999999,
          "durationTicks": 480,
          "midi": 64,
          "name": "E4",
          "ticks": 3840,
          "time": 3.333336,
          "velocity": 0.9448818897637795
        },
        {
          "duration": 0.19704876874999977,
          "durationTicks": 227,
          "midi": 53,
          "name": "F3",
          "ticks": 3960,
          "time": 3.43750275,
          "velocity": 0.6299212598425197
        },
        {
          "duration": 0.09809035625000018,
          "durationTicks": 113,
          "midi": 57,
          "name": "A3",
          "ticks": 4080,
          "time": 3.5416695000000002,
          "velocity": 0.6299212598425197
        },
        {
          "duration": 0.09809035625000062,
          "durationTicks": 113,
          "midi": 59,
          "name": "B3",
          "ticks": 4200,
          "time": 3.64583625,
          "velocity": 0.6299212598425197
        },
        {
          "duration": 1.2491329437499998,
          "durationTicks": 1439,
          "midi": 64,
          "name": "E4",
          "ticks": 4320,
          "time": 3.750003,
          "velocity": 0.9448818897637795
        },
        {
          "duration": 0.09809035625000018,
          "durationTicks": 113,
          "midi": 65,
          "name": "F4",
          "ticks": 4440,
          "time": 3.85416975,
          "velocity": 0.6299212598425197
        },
        {
          "duration": 0.09809035625000062,
          "durationTicks": 113,
          "midi": 69,
          "name": "A4",
          "ticks": 4560,
          "time": 3.9583365,
          "velocity": 0.6299212598425197
        },
        {
          "duration": 0.09809035625000107,
          "durationTicks": 113,
          "midi": 71,
          "name": "B4",
          "ticks": 4680,
          "time": 4.06250325,
          "velocity": 0.6299212598425197
        },
        {
          "duration": 0.10329869375000023,
          "durationTicks": 119,
          "midi": 76,
          "name": "E5",
          "ticks": 4800,
          "time": 4.16667,
          "velocity": 0.9448818897637795
        },
        {
          "duration": 0.09809035625000018,
          "durationTicks": 113,
          "midi": 77,
          "name": "F5",
          "ticks": 4920,
          "time": 4.27083675,
          "velocity": 0.6299212598425197
        },
        {
          "duration": 0.09809035625000018,
          "durationTicks": 113,
          "midi": 81,
          "name": "A5",
          "ticks": 5040,
          "time": 4.3750035,
          "velocity": 0.6299212598425197
        },
        {
          "duration": 0.09809035625000018,
          "durationTicks": 113,
          "midi": 83,
          "name": "B5",
          "ticks": 5160,
          "time": 4.47917025,
          "velocity": 0.6299212598425197
        },
        {
          "duration": 0.10329869375000023,
          "durationTicks": 119,
          "midi": 88,
          "name": "E6",
          "ticks": 5280,
          "time": 4.583337,
          "velocity": 0.9448818897637795
        },
        {
          "duration": 0.09809035625000018,
          "durationTicks": 113,
          "midi": 89,
          "name": "F6",
          "ticks": 5400,
          "time": 4.68750375,
          "velocity": 0.6299212598425197
        },
        {
          "duration": 0.09809035625000018,
          "durationTicks": 113,
          "midi": 93,
          "name": "A6",
          "ticks": 5520,
          "time": 4.7916705,
          "velocity": 0.6299212598425197
        },
        {
          "duration": 0.09809035625000018,
          "durationTicks": 113,
          "midi": 95,
          "name": "B6",
          "ticks": 5640,
          "time": 4.8958372500000005,
          "velocity": 0.6299212598425197
        },
        {
          "duration": 0.10329869374999934,
          "durationTicks": 119,
          "midi": 100,
          "name": "E7",
          "ticks": 5760,
          "time": 5.000004000000001,
          "velocity": 0.9448818897637795
        },
        {
          "duration": 0.09809035625000107,
          "durationTicks": 113,
          "midi": 95,
          "name": "B6",
          "ticks": 5880,
          "time": 5.10417075,
          "velocity": 0.6299212598425197
        },
        {
          "duration": 0.09809035625000107,
          "durationTicks": 113,
          "midi": 93,
          "name": "A6",
          "ticks": 6000,
          "time": 5.2083375,
          "velocity": 0.6299212598425197
        },
        {
          "duration": 0.09809035625000018,
          "durationTicks": 113,
          "midi": 89,
          "name": "F6",
          "ticks": 6120,
          "time": 5.31250425,
          "velocity": 0.6299212598425197
        },
        {
          "duration": 0.10329869375000023,
          "durationTicks": 119,
          "midi": 88,
          "name": "E6",
          "ticks": 6240,
          "time": 5.416671,
          "velocity": 0.9448818897637795
        },
        {
          "duration": 0.09809035625000018,
          "durationTicks": 113,
          "midi": 83,
          "name": "B5",
          "ticks": 6360,
          "time": 5.52083775,
          "velocity": 0.6299212598425197
        },
        {
          "duration": 0.09809035625000018,
          "durationTicks": 113,
          "midi": 81,
          "name": "A5",
          "ticks": 6480,
          "time": 5.6250045,
          "velocity": 0.6299212598425197
        },
        {
          "duration": 0.09809035625000018,
          "durationTicks": 113,
          "midi": 77,
          "name": "F5",
          "ticks": 6600,
          "time": 5.72917125,
          "velocity": 0.6299212598425197
        },
        {
          "duration": 0.10329869375000023,
          "durationTicks": 119,
          "midi": 76,
          "name": "E5",
          "ticks": 6720,
          "time": 5.833338,
          "velocity": 0.9448818897637795
        },
        {
          "duration": 0.09809035625000018,
          "durationTicks": 113,
          "midi": 71,
          "name": "B4",
          "ticks": 6840,
          "time": 5.93750475,
          "velocity": 0.6299212598425197
        },
        {
          "duration": 0.09809035625000018,
          "durationTicks": 113,
          "midi": 69,
          "name": "A4",
          "ticks": 6960,
          "time": 6.0416715000000005,
          "velocity": 0.6299212598425197
        },
        {
          "duration": 0.09809035625000107,
          "durationTicks": 113,
          "midi": 65,
          "name": "F4",
          "ticks": 7080,
          "time": 6.14583825,
          "velocity": 0.6299212598425197
        },
        {
          "duration": 0.10329869375000023,
          "durationTicks": 119,
          "midi": 64,
          "name": "E4",
          "ticks": 7200,
          "time": 6.250005,
          "velocity": 0.9448818897637795
        },
        {
          "duration": 0.09809035625000018,
          "durationTicks": 113,
          "midi": 59,
          "name": "B3",
          "ticks": 7320,
          "time": 6.35417175,
          "velocity": 0.6299212598425197
        },
        {
          "duration": 0.09809035625000018,
          "durationTicks": 113,
          "midi": 57,
          "name": "A3",
          "ticks": 7440,
          "time": 6.4583385,
          "velocity": 0.6299212598425197
        },
        {
          "duration": 0.41666700000000034,
          "durationTicks": 480,
          "midi": 62,
          "name": "D4",
          "ticks": 7680,
          "time": 6.666672,
          "velocity": 0.9448818897637795
        },
        {
          "duration": 0.1970487687500002,
          "durationTicks": 227,
          "midi": 52,
          "name": "E3",
          "ticks": 7800,
          "time": 6.77083875,
          "velocity": 0.6299212598425197
        },
        {
          "duration": 0.09809035624999929,
          "durationTicks": 113,
          "midi": 55,
          "name": "G3",
          "ticks": 7920,
          "time": 6.8750055,
          "velocity": 0.6299212598425197
        },
        {
          "duration": 0.09809035624999929,
          "durationTicks": 113,
          "midi": 59,
          "name": "B3",
          "ticks": 8040,
          "time": 6.97917225,
          "velocity": 0.6299212598425197
        },
        {
          "duration": 1.2491329437499985,
          "durationTicks": 1439,
          "midi": 62,
          "name": "D4",
          "ticks": 8160,
          "time": 7.0833390000000005,
          "velocity": 0.9448818897637795
        },
        {
          "duration": 0.09809035624999929,
          "durationTicks": 113,
          "midi": 64,
          "name": "E4",
          "ticks": 8280,
          "time": 7.187505750000001,
          "velocity": 0.6299212598425197
        },
        {
          "duration": 0.09809035625000018,
          "durationTicks": 113,
          "midi": 67,
          "name": "G4",
          "ticks": 8400,
          "time": 7.2916725,
          "velocity": 0.6299212598425197
        },
        {
          "duration": 0.09809035625000018,
          "durationTicks": 113,
          "midi": 71,
          "name": "B4",
          "ticks": 8520,
          "time": 7.39583925,
          "velocity": 0.6299212598425197
        },
        {
          "duration": 0.10329869374999934,
          "durationTicks": 119,
          "midi": 74,
          "name": "D5",
          "ticks": 8640,
          "time": 7.500006,
          "velocity": 0.9448818897637795
        },
        {
          "duration": 0.09809035625000018,
          "durationTicks": 113,
          "midi": 76,
          "name": "E5",
          "ticks": 8760,
          "time": 7.60417275,
          "velocity": 0.6299212598425197
        },
        {
          "duration": 0.09809035624999929,
          "durationTicks": 113,
          "midi": 79,
          "name": "G5",
          "ticks": 8880,
          "time": 7.7083395,
          "velocity": 0.6299212598425197
        },
        {
          "duration": 0.09809035624999929,
          "durationTicks": 113,
          "midi": 83,
          "name": "B5",
          "ticks": 9000,
          "time": 7.81250625,
          "velocity": 0.6299212598425197
        },
        {
          "duration": 0.10329869374999934,
          "durationTicks": 119,
          "midi": 86,
          "name": "D6",
          "ticks": 9120,
          "time": 7.916673,
          "velocity": 0.9448818897637795
        },
        {
          "duration": 0.09809035624999929,
          "durationTicks": 113,
          "midi": 88,
          "name": "E6",
          "ticks": 9240,
          "time": 8.02083975,
          "velocity": 0.6299212598425197
        },
        {
          "duration": 0.09809035625000107,
          "durationTicks": 113,
          "midi": 91,
          "name": "G6",
          "ticks": 9360,
          "time": 8.1250065,
          "velocity": 0.6299212598425197
        },
        {
          "duration": 0.09809035624999929,
          "durationTicks": 113,
          "midi": 95,
          "name": "B6",
          "ticks": 9480,
          "time": 8.22917325,
          "velocity": 0.6299212598425197
        },
        {
          "duration": 0.10329869375000023,
          "durationTicks": 119,
          "midi": 98,
          "name": "D7",
          "ticks": 9600,
          "time": 8.33334,
          "velocity": 0.9448818897637795
        },
        {
          "duration": 0.09809035624999929,
          "durationTicks": 113,
          "midi": 95,
          "name": "B6",
          "ticks": 9720,
          "time": 8.43750675,
          "velocity": 0.6299212598425197
        },
        {
          "duration": 0.09809035624999929,
          "durationTicks": 113,
          "midi": 91,
          "name": "G6",
          "ticks": 9840,
          "time": 8.5416735,
          "velocity": 0.6299212598425197
        },
        {
          "duration": 0.09809035624999929,
          "durationTicks": 113,
          "midi": 88,
          "name": "E6",
          "ticks": 9960,
          "time": 8.645840250000001,
          "velocity": 0.6299212598425197
        },
        {
          "duration": 0.10329869375000023,
          "durationTicks": 119,
          "midi": 86,
          "name": "D6",
          "ticks": 10080,
          "time": 8.750007,
          "velocity": 0.9448818897637795
        },
        {
          "duration": 0.09809035624999929,
          "durationTicks": 113,
          "midi": 83,
          "name": "B5",
          "ticks": 10200,
          "time": 8.854173750000001,
          "velocity": 0.6299212598425197
        },
        {
          "duration": 0.09809035624999929,
          "durationTicks": 113,
          "midi": 79,
          "name": "G5",
          "ticks": 10320,
          "time": 8.9583405,
          "velocity": 0.6299212598425197
        },
        {
          "duration": 0.09809035625000107,
          "durationTicks": 113,
          "midi": 76,
          "name": "E5",
          "ticks": 10440,
          "time": 9.06250725,
          "velocity": 0.6299212598425197
        },
        {
          "duration": 0.10329869374999845,
          "durationTicks": 119,
          "midi": 74,
          "name": "D5",
          "ticks": 10560,
          "time": 9.166674,
          "velocity": 0.9448818897637795
        },
        {
          "duration": 0.09809035625000107,
          "durationTicks": 113,
          "midi": 71,
          "name": "B4",
          "ticks": 10680,
          "time": 9.27084075,
          "velocity": 0.6299212598425197
        },
        {
          "duration": 0.09809035624999929,
          "durationTicks": 113,
          "midi": 67,
          "name": "G4",
          "ticks": 10800,
          "time": 9.3750075,
          "velocity": 0.6299212598425197
        },
        {
          "duration": 0.09809035624999929,
          "durationTicks": 113,
          "midi": 64,
          "name": "E4",
          "ticks": 10920,
          "time": 9.47917425,
          "velocity": 0.6299212598425197
        },
        {
          "duration": 0.10329869374999845,
          "durationTicks": 119,
          "midi": 62,
          "name": "D4",
          "ticks": 11040,
          "time": 9.583341,
          "velocity": 0.9448818897637795
        },
        {
          "duration": 0.09809035624999929,
          "durationTicks": 113,
          "midi": 59,
          "name": "B3",
          "ticks": 11160,
          "time": 9.68750775,
          "velocity": 0.6299212598425197
        },
        {
          "duration": 0.09809035624999929,
          "durationTicks": 113,
          "midi": 55,
          "name": "G3",
          "ticks": 11280,
          "time": 9.791674500000001,
          "velocity": 0.6299212598425197
        },
        {
          "duration": 0.41666699999999857,
          "durationTicks": 480,
          "midi": 62,
          "name": "D4",
          "ticks": 11520,
          "time": 10.000008000000001,
          "velocity": 0.9448818897637795
        },
        {
          "duration": 0.19704876874999933,
          "durationTicks": 227,
          "midi": 52,
          "name": "E3",
          "ticks": 11640,
          "time": 10.10417475,
          "velocity": 0.6299212598425197
        },
        {
          "duration": 0.09809035625000107,
          "durationTicks": 113,
          "midi": 55,
          "name": "G3",
          "ticks": 11760,
          "time": 10.2083415,
          "velocity": 0.6299212598425197
        },
        {
          "duration": 0.09809035624999929,
          "durationTicks": 113,
          "midi": 59,
          "name": "B3",
          "ticks": 11880,
          "time": 10.31250825,
          "velocity": 0.6299212598425197
        },
        {
          "duration": 1.2491329437500003,
          "durationTicks": 1439,
          "midi": 62,
          "name": "D4",
          "ticks": 12000,
          "time": 10.416675,
          "velocity": 0.9448818897637795
        },
        {
          "duration": 0.09809035624999929,
          "durationTicks": 113,
          "midi": 64,
          "name": "E4",
          "ticks": 12120,
          "time": 10.52084175,
          "velocity": 0.6299212598425197
        },
        {
          "duration": 0.09809035624999929,
          "durationTicks": 113,
          "midi": 67,
          "name": "G4",
          "ticks": 12240,
          "time": 10.6250085,
          "velocity": 0.6299212598425197
        },
        {
          "duration": 0.09809035624999929,
          "durationTicks": 113,
          "midi": 71,
          "name": "B4",
          "ticks": 12360,
          "time": 10.72917525,
          "velocity": 0.6299212598425197
        },
        {
          "duration": 0.10329869375000023,
          "durationTicks": 119,
          "midi": 74,
          "name": "D5",
          "ticks": 12480,
          "time": 10.833342,
          "velocity": 0.9448818897637795
        },
        {
          "duration": 0.09809035624999929,
          "durationTicks": 113,
          "midi": 76,
          "name": "E5",
          "ticks": 12600,
          "time": 10.937508750000001,
          "velocity": 0.6299212598425197
        },
        {
          "duration": 0.09809035624999929,
          "durationTicks": 113,
          "midi": 79,
          "name": "G5",
          "ticks": 12720,
          "time": 11.0416755,
          "velocity": 0.6299212598425197
        },
        {
          "duration": 0.09809035625000107,
          "durationTicks": 113,
          "midi": 83,
          "name": "B5",
          "ticks": 12840,
          "time": 11.14584225,
          "velocity": 0.6299212598425197
        },
        {
          "duration": 0.10329869374999845,
          "durationTicks": 119,
          "midi": 86,
          "name": "D6",
          "ticks": 12960,
          "time": 11.250009,
          "velocity": 0.9448818897637795
        },
        {
          "duration": 0.09809035625000107,
          "durationTicks": 113,
          "midi": 88,
          "name": "E6",
          "ticks": 13080,
          "time": 11.35417575,
          "velocity": 0.6299212598425197
        },
        {
          "duration": 0.09809035624999929,
          "durationTicks": 113,
          "midi": 91,
          "name": "G6",
          "ticks": 13200,
          "time": 11.4583425,
          "velocity": 0.6299212598425197
        },
        {
          "duration": 0.09809035624999929,
          "durationTicks": 113,
          "midi": 95,
          "name": "B6",
          "ticks": 13320,
          "time": 11.56250925,
          "velocity": 0.6299212598425197
        },
        {
          "duration": 0.10329869374999845,
          "durationTicks": 119,
          "midi": 98,
          "name": "D7",
          "ticks": 13440,
          "time": 11.666676,
          "velocity": 0.9448818897637795
        },
        {
          "duration": 0.09809035624999929,
          "durationTicks": 113,
          "midi": 95,
          "name": "B6",
          "ticks": 13560,
          "time": 11.77084275,
          "velocity": 0.6299212598425197
        },
        {
          "duration": 0.09809035624999929,
          "durationTicks": 113,
          "midi": 91,
          "name": "G6",
          "ticks": 13680,
          "time": 11.8750095,
          "velocity": 0.6299212598425197
        },
        {
          "duration": 0.09809035624999929,
          "durationTicks": 113,
          "midi": 88,
          "name": "E6",
          "ticks": 13800,
          "time": 11.97917625,
          "velocity": 0.6299212598425197
        },
        {
          "duration": 0.10329869374999845,
          "durationTicks": 119,
          "midi": 86,
          "name": "D6",
          "ticks": 13920,
          "time": 12.083343000000001,
          "velocity": 0.9448818897637795
        },
        {
          "duration": 0.09809035624999929,
          "durationTicks": 113,
          "midi": 83,
          "name": "B5",
          "ticks": 14040,
          "time": 12.18750975,
          "velocity": 0.6299212598425197
        },
        {
          "duration": 0.09809035625000107,
          "durationTicks": 113,
          "midi": 79,
          "name": "G5",
          "ticks": 14160,
          "time": 12.2916765,
          "velocity": 0.6299212598425197
        },
        {
          "duration": 0.09809035624999929,
          "durationTicks": 113,
          "midi": 76,
          "name": "E5",
          "ticks": 14280,
          "time": 12.39584325,
          "velocity": 0.6299212598425197
        },
        {
          "duration": 0.10329869375000023,
          "durationTicks": 119,
          "midi": 74,
          "name": "D5",
          "ticks": 14400,
          "time": 12.50001,
          "velocity": 0.9448818897637795
        },
        {
          "duration": 0.09809035624999929,
          "durationTicks": 113,
          "midi": 71,
          "name": "B4",
          "ticks": 14520,
          "time": 12.60417675,
          "velocity": 0.6299212598425197
        },
        {
          "duration": 0.09809035624999929,
          "durationTicks": 113,
          "midi": 67,
          "name": "G4",
          "ticks": 14640,
          "time": 12.7083435,
          "velocity": 0.6299212598425197
        },
        {
          "duration": 0.09809035624999929,
          "durationTicks": 113,
          "midi": 64,
          "name": "E4",
          "ticks": 14760,
          "time": 12.81251025,
          "velocity": 0.6299212598425197
        },
        {
          "duration": 0.10329869375000023,
          "durationTicks": 119,
          "midi": 62,
          "name": "D4",
          "ticks": 14880,
          "time": 12.916677,
          "velocity": 0.9448818897637795
        },
        {
          "duration": 0.09809035624999929,
          "durationTicks": 113,
          "midi": 59,
          "name": "B3",
          "ticks": 15000,
          "time": 13.020843750000001,
          "velocity": 0.6299212598425197
        },
        {
          "duration": 0.09809035624999929,
          "durationTicks": 113,
          "midi": 55,
          "name": "G3",
          "ticks": 15120,
          "time": 13.1250105,
          "velocity": 0.6299212598425197
        },
        {
          "duration": 0.41666700000000034,
          "durationTicks": 480,
          "midi": 62,
          "name": "D4",
          "ticks": 15360,
          "time": 13.333344,
          "velocity": 0.9448818897637795
        },
        {
          "duration": 0.19704876875000288,
          "durationTicks": 227,
          "midi": 51,
          "name": "D#3",
          "ticks": 15480,
          "time": 13.43751075,
          "velocity": 0.6299212598425197
        },
        {
          "duration": 0.09809035624999929,
          "durationTicks": 113,
          "midi": 55,
          "name": "G3",
          "ticks": 15600,
          "time": 13.5416775,
          "velocity": 0.6299212598425197
        },
        {
          "duration": 0.09809035625000107,
          "durationTicks": 113,
          "midi": 58,
          "name": "A#3",
          "ticks": 15720,
          "time": 13.64584425,
          "velocity": 0.6299212598425197
        },
        {
          "duration": 1.2491329437500003,
          "durationTicks": 1439,
          "midi": 62,
          "name": "D4",
          "ticks": 15840,
          "time": 13.750011,
          "velocity": 0.9448818897637795
        },
        {
          "duration": 0.09809035624999929,
          "durationTicks": 113,
          "midi": 63,
          "name": "D#4",
          "ticks": 15960,
          "time": 13.85417775,
          "velocity": 0.6299212598425197
        },
        {
          "duration": 0.09809035624999929,
          "durationTicks": 113,
          "midi": 67,
          "name": "G4",
          "ticks": 16080,
          "time": 13.9583445,
          "velocity": 0.6299212598425197
        },
        {
          "duration": 0.09809035624999929,
          "durationTicks": 113,
          "midi": 70,
          "name": "A#4",
          "ticks": 16200,
          "time": 14.06251125,
          "velocity": 0.6299212598425197
        },
        {
          "duration": 0.10329869375000023,
          "durationTicks": 119,
          "midi": 74,
          "name": "D5",
          "ticks": 16320,
          "time": 14.166678000000001,
          "velocity": 0.9448818897637795
        },
        {
          "duration": 0.09809035624999929,
          "durationTicks": 113,
          "midi": 75,
          "name": "D#5",
          "ticks": 16440,
          "time": 14.27084475,
          "velocity": 0.6299212598425197
        },
        {
          "duration": 0.09809035624999929,
          "durationTicks": 113,
          "midi": 79,
          "name": "G5",
          "ticks": 16560,
          "time": 14.375011500000001,
          "velocity": 0.6299212598425197
        },
        {
          "duration": 0.09809035624999929,
          "durationTicks": 113,
          "midi": 82,
          "name": "A#5",
          "ticks": 16680,
          "time": 14.47917825,
          "velocity": 0.6299212598425197
        },
        {
          "duration": 0.103298693750002,
          "durationTicks": 119,
          "midi": 86,
          "name": "D6",
          "ticks": 16800,
          "time": 14.583345,
          "velocity": 0.9448818897637795
        },
        {
          "duration": 0.09809035624999929,
          "durationTicks": 113,
          "midi": 87,
          "name": "D#6",
          "ticks": 16920,
          "time": 14.68751175,
          "velocity": 0.6299212598425197
        },
        {
          "duration": 0.09809035625000107,
          "durationTicks": 113,
          "midi": 91,
          "name": "G6",
          "ticks": 17040,
          "time": 14.7916785,
          "velocity": 0.6299212598425197
        },
        {
          "duration": 0.09809035624999929,
          "durationTicks": 113,
          "midi": 94,
          "name": "A#6",
          "ticks": 17160,
          "time": 14.89584525,
          "velocity": 0.6299212598425197
        },
        {
          "duration": 0.103298693750002,
          "durationTicks": 119,
          "midi": 98,
          "name": "D7",
          "ticks": 17280,
          "time": 15.000012,
          "velocity": 0.9448818897637795
        },
        {
          "duration": 0.09809035624999929,
          "durationTicks": 113,
          "midi": 94,
          "name": "A#6",
          "ticks": 17400,
          "time": 15.10417875,
          "velocity": 0.6299212598425197
        },
        {
          "duration": 0.09809035624999929,
          "durationTicks": 113,
          "midi": 91,
          "name": "G6",
          "ticks": 17520,
          "time": 15.2083455,
          "velocity": 0.6299212598425197
        },
        {
          "duration": 0.09809035624999929,
          "durationTicks": 113,
          "midi": 87,
          "name": "D#6",
          "ticks": 17640,
          "time": 15.312512250000001,
          "velocity": 0.6299212598425197
        },
        {
          "duration": 0.10329869375000023,
          "durationTicks": 119,
          "midi": 86,
          "name": "D6",
          "ticks": 17760,
          "time": 15.416679,
          "velocity": 0.9448818897637795
        },
        {
          "duration": 0.09809035624999929,
          "durationTicks": 113,
          "midi": 82,
          "name": "A#5",
          "ticks": 17880,
          "time": 15.520845750000001,
          "velocity": 0.6299212598425197
        },
        {
          "duration": 0.09809035624999929,
          "durationTicks": 113,
          "midi": 79,
          "name": "G5",
          "ticks": 18000,
          "time": 15.6250125,
          "velocity": 0.6299212598425197
        },
        {
          "duration": 0.09809035625000107,
          "durationTicks": 113,
          "midi": 75,
          "name": "D#5",
          "ticks": 18120,
          "time": 15.72917925,
          "velocity": 0.6299212598425197
        },
        {
          "duration": 0.10329869375000023,
          "durationTicks": 119,
          "midi": 74,
          "name": "D5",
          "ticks": 18240,
          "time": 15.833346,
          "velocity": 0.9448818897637795
        },
        {
          "duration": 0.09809035625000107,
          "durationTicks": 113,
          "midi": 70,
          "name": "A#4",
          "ticks": 18360,
          "time": 15.93751275,
          "velocity": 0.6299212598425197
        },
        {
          "duration": 0.09809035624999751,
          "durationTicks": 113,
          "midi": 67,
          "name": "G4",
          "ticks": 18480,
          "time": 16.0416795,
          "velocity": 0.6299212598425197
        },
        {
          "duration": 0.09809035624999751,
          "durationTicks": 113,
          "midi": 63,
          "name": "D#4",
          "ticks": 18600,
          "time": 16.14584625,
          "velocity": 0.6299212598425197
        },
        {
          "duration": 0.103298693750002,
          "durationTicks": 119,
          "midi": 62,
          "name": "D4",
          "ticks": 18720,
          "time": 16.250013,
          "velocity": 0.9448818897637795
        },
        {
          "duration": 0.09809035625000107,
          "durationTicks": 113,
          "midi": 58,
          "name": "A#3",
          "ticks": 18840,
          "time": 16.35417975,
          "velocity": 0.6299212598425197
        },
        {
          "duration": 0.09809035624999751,
          "durationTicks": 113,
          "midi": 55,
          "name": "G3",
          "ticks": 18960,
          "time": 16.4583465,
          "velocity": 0.6299212598425197
        },
        {
          "duration": 0.41666700000000034,
          "durationTicks": 480,
          "midi": 62,
          "name": "D4",
          "ticks": 19200,
          "time": 16.66668,
          "velocity": 0.9448818897637795
        },
        {
          "duration": 0.1970487687500011,
          "durationTicks": 227,
          "midi": 51,
          "name": "D#3",
          "ticks": 19320,
          "time": 16.77084675,
          "velocity": 0.6299212598425197
        },
        {
          "duration": 0.09809035624999751,
          "durationTicks": 113,
          "midi": 55,
          "name": "G3",
          "ticks": 19440,
          "time": 16.8750135,
          "velocity": 0.6299212598425197
        },
        {
          "duration": 0.09809035625000107,
          "durationTicks": 113,
          "midi": 57,
          "name": "A3",
          "ticks": 19560,
          "time": 16.97918025,
          "velocity": 0.6299212598425197
        },
        {
          "duration": 1.249132943750002,
          "durationTicks": 1439,
          "midi": 62,
          "name": "D4",
          "ticks": 19680,
          "time": 17.083347,
          "velocity": 0.9448818897637795
        },
        {
          "duration": 0.09809035624999751,
          "durationTicks": 113,
          "midi": 63,
          "name": "D#4",
          "ticks": 19800,
          "time": 17.18751375,
          "velocity": 0.6299212598425197
        },
        {
          "duration": 0.09809035624999751,
          "durationTicks": 113,
          "midi": 67,
          "name": "G4",
          "ticks": 19920,
          "time": 17.291680500000002,
          "velocity": 0.6299212598425197
        },
        {
          "duration": 0.09809035625000107,
          "durationTicks": 113,
          "midi": 69,
          "name": "A4",
          "ticks": 20040,
          "time": 17.39584725,
          "velocity": 0.6299212598425197
        },
        {
          "duration": 0.103298693750002,
          "durationTicks": 119,
          "midi": 74,
          "name": "D5",
          "ticks": 20160,
          "time": 17.500014,
          "velocity": 0.9448818897637795
        },
        {
          "duration": 0.09809035624999751,
          "durationTicks": 113,
          "midi": 75,
          "name": "D#5",
          "ticks": 20280,
          "time": 17.60418075,
          "velocity": 0.6299212598425197
        },
        {
          "duration": 0.09809035624999751,
          "durationTicks": 113,
          "midi": 79,
          "name": "G5",
          "ticks": 20400,
          "time": 17.708347500000002,
          "velocity": 0.6299212598425197
        },
        {
          "duration": 0.09809035625000107,
          "durationTicks": 113,
          "midi": 81,
          "name": "A5",
          "ticks": 20520,
          "time": 17.81251425,
          "velocity": 0.6299212598425197
        },
        {
          "duration": 0.103298693750002,
          "durationTicks": 119,
          "midi": 86,
          "name": "D6",
          "ticks": 20640,
          "time": 17.916681,
          "velocity": 0.9448818897637795
        },
        {
          "duration": 0.09809035624999751,
          "durationTicks": 113,
          "midi": 87,
          "name": "D#6",
          "ticks": 20760,
          "time": 18.02084775,
          "velocity": 0.6299212598425197
        },
        {
          "duration": 0.09809035625000107,
          "durationTicks": 113,
          "midi": 91,
          "name": "G6",
          "ticks": 20880,
          "time": 18.1250145,
          "velocity": 0.6299212598425197
        },
        {
          "duration": 0.09809035625000107,
          "durationTicks": 113,
          "midi": 93,
          "name": "A6",
          "ticks": 21000,
          "time": 18.22918125,
          "velocity": 0.6299212598425197
        },
        {
          "duration": 0.103298693750002,
          "durationTicks": 119,
          "midi": 98,
          "name": "D7",
          "ticks": 21120,
          "time": 18.333348,
          "velocity": 0.9448818897637795
        },
        {
          "duration": 0.09809035624999751,
          "durationTicks": 113,
          "midi": 93,
          "name": "A6",
          "ticks": 21240,
          "time": 18.437514750000002,
          "velocity": 0.6299212598425197
        },
        {
          "duration": 0.09809035625000107,
          "durationTicks": 113,
          "midi": 91,
          "name": "G6",
          "ticks": 21360,
          "time": 18.5416815,
          "velocity": 0.6299212598425197
        },
        {
          "duration": 0.09809035625000107,
          "durationTicks": 113,
          "midi": 87,
          "name": "D#6",
          "ticks": 21480,
          "time": 18.64584825,
          "velocity": 0.6299212598425197
        },
        {
          "duration": 0.10329869374999845,
          "durationTicks": 119,
          "midi": 86,
          "name": "D6",
          "ticks": 21600,
          "time": 18.750015,
          "velocity": 0.9448818897637795
        },
        {
          "duration": 0.09809035624999751,
          "durationTicks": 113,
          "midi": 81,
          "name": "A5",
          "ticks": 21720,
          "time": 18.854181750000002,
          "velocity": 0.6299212598425197
        },
        {
          "duration": 0.09809035625000107,
          "durationTicks": 113,
          "midi": 79,
          "name": "G5",
          "ticks": 21840,
          "time": 18.9583485,
          "velocity": 0.6299212598425197
        },
        {
          "duration": 0.09809035625000107,
          "durationTicks": 113,
          "midi": 75,
          "name": "D#5",
          "ticks": 21960,
          "time": 19.06251525,
          "velocity": 0.6299212598425197
        },
        {
          "duration": 0.10329869374999845,
          "durationTicks": 119,
          "midi": 74,
          "name": "D5",
          "ticks": 22080,
          "time": 19.166682,
          "velocity": 0.9448818897637795
        },
        {
          "duration": 0.09809035625000107,
          "durationTicks": 113,
          "midi": 69,
          "name": "A4",
          "ticks": 22200,
          "time": 19.27084875,
          "velocity": 0.6299212598425197
        },
        {
          "duration": 0.09809035625000107,
          "durationTicks": 113,
          "midi": 67,
          "name": "G4",
          "ticks": 22320,
          "time": 19.3750155,
          "velocity": 0.6299212598425197
        },
        {
          "duration": 0.09809035624999751,
          "durationTicks": 113,
          "midi": 63,
          "name": "D#4",
          "ticks": 22440,
          "time": 19.47918225,
          "velocity": 0.6299212598425197
        },
        {
          "duration": 0.10329869374999845,
          "durationTicks": 119,
          "midi": 62,
          "name": "D4",
          "ticks": 22560,
          "time": 19.583349000000002,
          "velocity": 0.9448818897637795
        },
        {
          "duration": 0.09809035625000107,
          "durationTicks": 113,
          "midi": 57,
          "name": "A3",
          "ticks": 22680,
          "time": 19.68751575,
          "velocity": 0.6299212598425197
        },
        {
          "duration": 0.09809035625000107,
          "durationTicks": 113,
          "midi": 55,
          "name": "G3",
          "ticks": 22800,
          "time": 19.7916825,
          "velocity": 0.6299212598425197
        },
        {
          "duration": 0.4166669999999968,
          "durationTicks": 480,
          "midi": 60,
          "name": "C4",
          "ticks": 23040,
          "time": 20.000016000000002,
          "velocity": 0.9448818897637795
        },
        {
          "duration": 0.1970487687500011,
          "durationTicks": 227,
          "midi": 50,
          "name": "D3",
          "ticks": 23160,
          "time": 20.10418275,
          "velocity": 0.6299212598425197
        },
        {
          "duration": 0.09809035625000107,
          "durationTicks": 113,
          "midi": 53,
          "name": "F3",
          "ticks": 23280,
          "time": 20.2083495,
          "velocity": 0.6299212598425197
        },
        {
          "duration": 0.09809035624999751,
          "durationTicks": 113,
          "midi": 57,
          "name": "A3",
          "ticks": 23400,
          "time": 20.31251625,
          "velocity": 0.6299212598425197
        },
        {
          "duration": 1.249132943750002,
          "durationTicks": 1439,
          "midi": 60,
          "name": "C4",
          "ticks": 23520,
          "time": 20.416683,
          "velocity": 0.9448818897637795
        },
        {
          "duration": 0.09809035625000107,
          "durationTicks": 113,
          "midi": 62,
          "name": "D4",
          "ticks": 23640,
          "time": 20.52084975,
          "velocity": 0.6299212598425197
        },
        {
          "duration": 0.09809035624999751,
          "durationTicks": 113,
          "midi": 65,
          "name": "F4",
          "ticks": 23760,
          "time": 20.6250165,
          "velocity": 0.6299212598425197
        },
        {
          "duration": 0.09809035624999751,
          "durationTicks": 113,
          "midi": 69,
          "name": "A4",
          "ticks": 23880,
          "time": 20.729183250000002,
          "velocity": 0.6299212598425197
        },
        {
          "duration": 0.103298693750002,
          "durationTicks": 119,
          "midi": 72,
          "name": "C5",
          "ticks": 24000,
          "time": 20.83335,
          "velocity": 0.9448818897637795
        },
        {
          "duration": 0.09809035625000107,
          "durationTicks": 113,
          "midi": 74,
          "name": "D5",
          "ticks": 24120,
          "time": 20.93751675,
          "velocity": 0.6299212598425197
        },
        {
          "duration": 0.09809035624999751,
          "durationTicks": 113,
          "midi": 77,
          "name": "F5",
          "ticks": 24240,
          "time": 21.0416835,
          "velocity": 0.6299212598425197
        },
        {
          "duration": 0.09809035625000107,
          "durationTicks": 113,
          "midi": 81,
          "name": "A5",
          "ticks": 24360,
          "time": 21.14585025,
          "velocity": 0.6299212598425197
        },
        {
          "duration": 0.103298693750002,
          "durationTicks": 119,
          "midi": 84,
          "name": "C6",
          "ticks": 24480,
          "time": 21.250017,
          "velocity": 0.9448818897637795
        },
        {
          "duration": 0.09809035625000107,
          "durationTicks": 113,
          "midi": 86,
          "name": "D6",
          "ticks": 24600,
          "time": 21.35418375,
          "velocity": 0.6299212598425197
        },
        {
          "duration": 0.09809035624999751,
          "durationTicks": 113,
          "midi": 89,
          "name": "F6",
          "ticks": 24720,
          "time": 21.4583505,
          "velocity": 0.6299212598425197
        },
        {
          "duration": 0.09809035625000107,
          "durationTicks": 113,
          "midi": 93,
          "name": "A6",
          "ticks": 24840,
          "time": 21.56251725,
          "velocity": 0.6299212598425197
        },
        {
          "duration": 0.103298693750002,
          "durationTicks": 119,
          "midi": 96,
          "name": "C7",
          "ticks": 24960,
          "time": 21.666684,
          "velocity": 0.9448818897637795
        },
        {
          "duration": 0.09809035624999751,
          "durationTicks": 113,
          "midi": 93,
          "name": "A6",
          "ticks": 25080,
          "time": 21.77085075,
          "velocity": 0.6299212598425197
        },
        {
          "duration": 0.09809035624999751,
          "durationTicks": 113,
          "midi": 89,
          "name": "F6",
          "ticks": 25200,
          "time": 21.875017500000002,
          "velocity": 0.6299212598425197
        },
        {
          "duration": 0.09809035625000107,
          "durationTicks": 113,
          "midi": 86,
          "name": "D6",
          "ticks": 25320,
          "time": 21.97918425,
          "velocity": 0.6299212598425197
        },
        {
          "duration": 0.103298693750002,
          "durationTicks": 119,
          "midi": 84,
          "name": "C6",
          "ticks": 25440,
          "time": 22.083351,
          "velocity": 0.9448818897637795
        },
        {
          "duration": 0.09809035624999751,
          "durationTicks": 113,
          "midi": 81,
          "name": "A5",
          "ticks": 25560,
          "time": 22.18751775,
          "velocity": 0.6299212598425197
        },
        {
          "duration": 0.09809035625000107,
          "durationTicks": 113,
          "midi": 77,
          "name": "F5",
          "ticks": 25680,
          "time": 22.2916845,
          "velocity": 0.6299212598425197
        },
        {
          "duration": 0.09809035625000107,
          "durationTicks": 113,
          "midi": 74,
          "name": "D5",
          "ticks": 25800,
          "time": 22.39585125,
          "velocity": 0.6299212598425197
        },
        {
          "duration": 0.103298693750002,
          "durationTicks": 119,
          "midi": 72,
          "name": "C5",
          "ticks": 25920,
          "time": 22.500018,
          "velocity": 0.9448818897637795
        },
        {
          "duration": 0.09809035624999751,
          "durationTicks": 113,
          "midi": 69,
          "name": "A4",
          "ticks": 26040,
          "time": 22.60418475,
          "velocity": 0.6299212598425197
        },
        {
          "duration": 0.09809035625000107,
          "durationTicks": 113,
          "midi": 65,
          "name": "F4",
          "ticks": 26160,
          "time": 22.7083515,
          "velocity": 0.6299212598425197
        },
        {
          "duration": 0.09809035625000107,
          "durationTicks": 113,
          "midi": 62,
          "name": "D4",
          "ticks": 26280,
          "time": 22.81251825,
          "velocity": 0.6299212598425197
        },
        {
          "duration": 0.103298693750002,
          "durationTicks": 119,
          "midi": 60,
          "name": "C4",
          "ticks": 26400,
          "time": 22.916685,
          "velocity": 0.9448818897637795
        },
        {
          "duration": 0.09809035624999751,
          "durationTicks": 113,
          "midi": 57,
          "name": "A3",
          "ticks": 26520,
          "time": 23.020851750000002,
          "velocity": 0.6299212598425197
        },
        {
          "duration": 0.09809035625000107,
          "durationTicks": 113,
          "midi": 53,
          "name": "F3",
          "ticks": 26640,
          "time": 23.1250185,
          "velocity": 0.6299212598425197
        },
        {
          "duration": 0.41666700000000034,
          "durationTicks": 480,
          "midi": 60,
          "name": "C4",
          "ticks": 26880,
          "time": 23.333352,
          "velocity": 0.9448818897637795
        },
        {
          "duration": 0.19704876875000465,
          "durationTicks": 227,
          "midi": 50,
          "name": "D3",
          "ticks": 27000,
          "time": 23.43751875,
          "velocity": 0.6299212598425197
        },
        {
          "duration": 0.09809035625000107,
          "durationTicks": 113,
          "midi": 53,
          "name": "F3",
          "ticks": 27120,
          "time": 23.5416855,
          "velocity": 0.6299212598425197
        },
        {
          "duration": 0.09809035625000107,
          "durationTicks": 113,
          "midi": 57,
          "name": "A3",
          "ticks": 27240,
          "time": 23.64585225,
          "velocity": 0.6299212598425197
        },
        {
          "duration": 1.2491329437499985,
          "durationTicks": 1439,
          "midi": 60,
          "name": "C4",
          "ticks": 27360,
          "time": 23.750019,
          "velocity": 0.9448818897637795
        },
        {
          "duration": 0.09809035625000107,
          "durationTicks": 113,
          "midi": 62,
          "name": "D4",
          "ticks": 27480,
          "time": 23.85418575,
          "velocity": 0.6299212598425197
        },
        {
          "duration": 0.09809035625000107,
          "durationTicks": 113,
          "midi": 65,
          "name": "F4",
          "ticks": 27600,
          "time": 23.9583525,
          "velocity": 0.6299212598425197
        },
        {
          "duration": 0.09809035624999751,
          "durationTicks": 113,
          "midi": 69,
          "name": "A4",
          "ticks": 27720,
          "time": 24.06251925,
          "velocity": 0.6299212598425197
        },
        {
          "duration": 0.10329869374999845,
          "durationTicks": 119,
          "midi": 72,
          "name": "C5",
          "ticks": 27840,
          "time": 24.166686000000002,
          "velocity": 0.9448818897637795
        },
        {
          "duration": 0.09809035625000107,
          "durationTicks": 113,
          "midi": 74,
          "name": "D5",
          "ticks": 27960,
          "time": 24.27085275,
          "velocity": 0.6299212598425197
        },
        {
          "duration": 0.09809035625000107,
          "durationTicks": 113,
          "midi": 77,
          "name": "F5",
          "ticks": 28080,
          "time": 24.3750195,
          "velocity": 0.6299212598425197
        },
        {
          "duration": 0.09809035624999751,
          "durationTicks": 113,
          "midi": 81,
          "name": "A5",
          "ticks": 28200,
          "time": 24.47918625,
          "velocity": 0.6299212598425197
        },
        {
          "duration": 0.103298693750002,
          "durationTicks": 119,
          "midi": 84,
          "name": "C6",
          "ticks": 28320,
          "time": 24.583353,
          "velocity": 0.9448818897637795
        },
        {
          "duration": 0.09809035625000107,
          "durationTicks": 113,
          "midi": 86,
          "name": "D6",
          "ticks": 28440,
          "time": 24.68751975,
          "velocity": 0.6299212598425197
        },
        {
          "duration": 0.09809035625000107,
          "durationTicks": 113,
          "midi": 89,
          "name": "F6",
          "ticks": 28560,
          "time": 24.7916865,
          "velocity": 0.6299212598425197
        },
        {
          "duration": 0.09809035624999751,
          "durationTicks": 113,
          "midi": 93,
          "name": "A6",
          "ticks": 28680,
          "time": 24.895853250000002,
          "velocity": 0.6299212598425197
        },
        {
          "duration": 0.103298693750002,
          "durationTicks": 119,
          "midi": 96,
          "name": "C7",
          "ticks": 28800,
          "time": 25.00002,
          "velocity": 0.9448818897637795
        },
        {
          "duration": 0.09809035625000107,
          "durationTicks": 113,
          "midi": 93,
          "name": "A6",
          "ticks": 28920,
          "time": 25.10418675,
          "velocity": 0.6299212598425197
        },
        {
          "duration": 0.09809035624999751,
          "durationTicks": 113,
          "midi": 89,
          "name": "F6",
          "ticks": 29040,
          "time": 25.2083535,
          "velocity": 0.6299212598425197
        },
        {
          "duration": 0.09809035624999751,
          "durationTicks": 113,
          "midi": 86,
          "name": "D6",
          "ticks": 29160,
          "time": 25.312520250000002,
          "velocity": 0.6299212598425197
        },
        {
          "duration": 0.103298693750002,
          "durationTicks": 119,
          "midi": 84,
          "name": "C6",
          "ticks": 29280,
          "time": 25.416687,
          "velocity": 0.9448818897637795
        },
        {
          "duration": 0.09809035625000107,
          "durationTicks": 113,
          "midi": 81,
          "name": "A5",
          "ticks": 29400,
          "time": 25.52085375,
          "velocity": 0.6299212598425197
        },
        {
          "duration": 0.09809035624999751,
          "durationTicks": 113,
          "midi": 77,
          "name": "F5",
          "ticks": 29520,
          "time": 25.6250205,
          "velocity": 0.6299212598425197
        },
        {
          "duration": 0.09809035625000107,
          "durationTicks": 113,
          "midi": 74,
          "name": "D5",
          "ticks": 29640,
          "time": 25.72918725,
          "velocity": 0.6299212598425197
        },
        {
          "duration": 0.103298693750002,
          "durationTicks": 119,
          "midi": 72,
          "name": "C5",
          "ticks": 29760,
          "time": 25.833354,
          "velocity": 0.9448818897637795
        },
        {
          "duration": 0.09809035625000107,
          "durationTicks": 113,
          "midi": 69,
          "name": "A4",
          "ticks": 29880,
          "time": 25.93752075,
          "velocity": 0.6299212598425197
        },
        {
          "duration": 0.09809035624999751,
          "durationTicks": 113,
          "midi": 65,
          "name": "F4",
          "ticks": 30000,
          "time": 26.041687500000002,
          "velocity": 0.6299212598425197
        },
        {
          "duration": 0.09809035625000107,
          "durationTicks": 113,
          "midi": 62,
          "name": "D4",
          "ticks": 30120,
          "time": 26.14585425,
          "velocity": 0.6299212598425197
        },
        {
          "duration": 0.103298693750002,
          "durationTicks": 119,
          "midi": 60,
          "name": "C4",
          "ticks": 30240,
          "time": 26.250021,
          "velocity": 0.9448818897637795
        },
        {
          "duration": 0.09809035624999751,
          "durationTicks": 113,
          "midi": 57,
          "name": "A3",
          "ticks": 30360,
          "time": 26.35418775,
          "velocity": 0.6299212598425197
        },
        {
          "duration": 0.09809035624999751,
          "durationTicks": 113,
          "midi": 53,
          "name": "F3",
          "ticks": 30480,
          "time": 26.458354500000002,
          "velocity": 0.6299212598425197
        },
        {
          "duration": 0.41666700000000034,
          "durationTicks": 480,
          "midi": 60,
          "name": "C4",
          "ticks": 30720,
          "time": 26.666688,
          "velocity": 0.9448818897637795
        },
        {
          "duration": 0.19704876874999755,
          "durationTicks": 227,
          "midi": 49,
          "name": "C#3",
          "ticks": 30840,
          "time": 26.77085475,
          "velocity": 0.6299212598425197
        },
        {
          "duration": 0.09809035625000107,
          "durationTicks": 113,
          "midi": 53,
          "name": "F3",
          "ticks": 30960,
          "time": 26.8750215,
          "velocity": 0.6299212598425197
        },
        {
          "duration": 0.09809035625000107,
          "durationTicks": 113,
          "midi": 56,
          "name": "G#3",
          "ticks": 31080,
          "time": 26.97918825,
          "velocity": 0.6299212598425197
        },
        {
          "duration": 1.249132943750002,
          "durationTicks": 1439,
          "midi": 60,
          "name": "C4",
          "ticks": 31200,
          "time": 27.083355,
          "velocity": 0.9448818897637795
        },
        {
          "duration": 0.09809035624999751,
          "durationTicks": 113,
          "midi": 61,
          "name": "C#4",
          "ticks": 31320,
          "time": 27.187521750000002,
          "velocity": 0.6299212598425197
        },
        {
          "duration": 0.09809035625000107,
          "durationTicks": 113,
          "midi": 65,
          "name": "F4",
          "ticks": 31440,
          "time": 27.2916885,
          "velocity": 0.6299212598425197
        },
        {
          "duration": 0.09809035625000107,
          "durationTicks": 113,
          "midi": 68,
          "name": "G#4",
          "ticks": 31560,
          "time": 27.39585525,
          "velocity": 0.6299212598425197
        },
        {
          "duration": 0.10329869374999845,
          "durationTicks": 119,
          "midi": 72,
          "name": "C5",
          "ticks": 31680,
          "time": 27.500022,
          "velocity": 0.9448818897637795
        },
        {
          "duration": 0.09809035624999751,
          "durationTicks": 113,
          "midi": 73,
          "name": "C#5",
          "ticks": 31800,
          "time": 27.604188750000002,
          "velocity": 0.6299212598425197
        },
        {
          "duration": 0.09809035625000107,
          "durationTicks": 113,
          "midi": 77,
          "name": "F5",
          "ticks": 31920,
          "time": 27.7083555,
          "velocity": 0.6299212598425197
        },
        {
          "duration": 0.09809035625000107,
          "durationTicks": 113,
          "midi": 80,
          "name": "G#5",
          "ticks": 32040,
          "time": 27.81252225,
          "velocity": 0.6299212598425197
        },
        {
          "duration": 0.10329869374999845,
          "durationTicks": 119,
          "midi": 84,
          "name": "C6",
          "ticks": 32160,
          "time": 27.916689,
          "velocity": 0.9448818897637795
        },
        {
          "duration": 0.09809035625000107,
          "durationTicks": 113,
          "midi": 85,
          "name": "C#6",
          "ticks": 32280,
          "time": 28.02085575,
          "velocity": 0.6299212598425197
        },
        {
          "duration": 0.09809035625000107,
          "durationTicks": 113,
          "midi": 89,
          "name": "F6",
          "ticks": 32400,
          "time": 28.1250225,
          "velocity": 0.6299212598425197
        },
        {
          "duration": 0.09809035624999751,
          "durationTicks": 113,
          "midi": 92,
          "name": "G#6",
          "ticks": 32520,
          "time": 28.22918925,
          "velocity": 0.6299212598425197
        },
        {
          "duration": 0.10329869374999845,
          "durationTicks": 119,
          "midi": 96,
          "name": "C7",
          "ticks": 32640,
          "time": 28.333356000000002,
          "velocity": 0.9448818897637795
        },
        {
          "duration": 0.09809035625000107,
          "durationTicks": 113,
          "midi": 92,
          "name": "G#6",
          "ticks": 32760,
          "time": 28.43752275,
          "velocity": 0.6299212598425197
        },
        {
          "duration": 0.09809035625000107,
          "durationTicks": 113,
          "midi": 89,
          "name": "F6",
          "ticks": 32880,
          "time": 28.5416895,
          "velocity": 0.6299212598425197
        },
        {
          "duration": 0.09809035624999751,
          "durationTicks": 113,
          "midi": 85,
          "name": "C#6",
          "ticks": 33000,
          "time": 28.64585625,
          "velocity": 0.6299212598425197
        },
        {
          "duration": 0.10329869374999845,
          "durationTicks": 119,
          "midi": 84,
          "name": "C6",
          "ticks": 33120,
          "time": 28.750023000000002,
          "velocity": 0.9448818897637795
        },
        {
          "duration": 0.09809035625000107,
          "durationTicks": 113,
          "midi": 80,
          "name": "G#5",
          "ticks": 33240,
          "time": 28.85418975,
          "velocity": 0.6299212598425197
        },
        {
          "duration": 0.09809035625000107,
          "durationTicks": 113,
          "midi": 77,
          "name": "F5",
          "ticks": 33360,
          "time": 28.9583565,
          "velocity": 0.6299212598425197
        },
        {
          "duration": 0.09809035624999751,
          "durationTicks": 113,
          "midi": 73,
          "name": "C#5",
          "ticks": 33480,
          "time": 29.06252325,
          "velocity": 0.6299212598425197
        },
        {
          "duration": 0.103298693750002,
          "durationTicks": 119,
          "midi": 72,
          "name": "C5",
          "ticks": 33600,
          "time": 29.16669,
          "velocity": 0.9448818897637795
        },
        {
          "duration": 0.09809035625000107,
          "durationTicks": 113,
          "midi": 68,
          "name": "G#4",
          "ticks": 33720,
          "time": 29.27085675,
          "velocity": 0.6299212598425197
        },
        {
          "duration": 0.09809035624999751,
          "durationTicks": 113,
          "midi": 65,
          "name": "F4",
          "ticks": 33840,
          "time": 29.3750235,
          "velocity": 0.6299212598425197
        },
        {
          "duration": 0.09809035624999751,
          "durationTicks": 113,
          "midi": 61,
          "name": "C#4",
          "ticks": 33960,
          "time": 29.479190250000002,
          "velocity": 0.6299212598425197
        },
        {
          "duration": 0.103298693750002,
          "durationTicks": 119,
          "midi": 60,
          "name": "C4",
          "ticks": 34080,
          "time": 29.583357,
          "velocity": 0.9448818897637795
        },
        {
          "duration": 0.09809035625000107,
          "durationTicks": 113,
          "midi": 56,
          "name": "G#3",
          "ticks": 34200,
          "time": 29.68752375,
          "velocity": 0.6299212598425197
        },
        {
          "duration": 0.09809035624999751,
          "durationTicks": 113,
          "midi": 53,
          "name": "F3",
          "ticks": 34320,
          "time": 29.7916905,
          "velocity": 0.6299212598425197
        },
        {
          "duration": 0.41666700000000034,
          "durationTicks": 480,
          "midi": 60,
          "name": "C4",
          "ticks": 34560,
          "time": 30.000024,
          "velocity": 0.9448818897637795
        },
        {
          "duration": 0.19704876874999755,
          "durationTicks": 227,
          "midi": 49,
          "name": "C#3",
          "ticks": 34680,
          "time": 30.10419075,
          "velocity": 0.6299212598425197
        },
        {
          "duration": 0.09809035624999751,
          "durationTicks": 113,
          "midi": 53,
          "name": "F3",
          "ticks": 34800,
          "time": 30.2083575,
          "velocity": 0.6299212598425197
        },
        {
          "duration": 0.09809035625000107,
          "durationTicks": 113,
          "midi": 55,
          "name": "G3",
          "ticks": 34920,
          "time": 30.31252425,
          "velocity": 0.6299212598425197
        },
        {
          "duration": 1.249132943750002,
          "durationTicks": 1439,
          "midi": 60,
          "name": "C4",
          "ticks": 35040,
          "time": 30.416691,
          "velocity": 0.9448818897637795
        },
        {
          "duration": 0.09809035624999751,
          "durationTicks": 113,
          "midi": 61,
          "name": "C#4",
          "ticks": 35160,
          "time": 30.52085775,
          "velocity": 0.6299212598425197
        },
        {
          "duration": 0.09809035624999751,
          "durationTicks": 113,
          "midi": 65,
          "name": "F4",
          "ticks": 35280,
          "time": 30.625024500000002,
          "velocity": 0.6299212598425197
        },
        {
          "duration": 0.09809035625000107,
          "durationTicks": 113,
          "midi": 67,
          "name": "G4",
          "ticks": 35400,
          "time": 30.72919125,
          "velocity": 0.6299212598425197
        },
        {
          "duration": 0.103298693750002,
          "durationTicks": 119,
          "midi": 72,
          "name": "C5",
          "ticks": 35520,
          "time": 30.833358,
          "velocity": 0.9448818897637795
        },
        {
          "duration": 0.09809035624999751,
          "durationTicks": 113,
          "midi": 73,
          "name": "C#5",
          "ticks": 35640,
          "time": 30.93752475,
          "velocity": 0.6299212598425197
        },
        {
          "duration": 0.09809035624999751,
          "durationTicks": 113,
          "midi": 77,
          "name": "F5",
          "ticks": 35760,
          "time": 31.041691500000002,
          "velocity": 0.6299212598425197
        },
        {
          "duration": 0.09809035625000107,
          "durationTicks": 113,
          "midi": 79,
          "name": "G5",
          "ticks": 35880,
          "time": 31.14585825,
          "velocity": 0.6299212598425197
        },
        {
          "duration": 0.103298693750002,
          "durationTicks": 119,
          "midi": 84,
          "name": "C6",
          "ticks": 36000,
          "time": 31.250025,
          "velocity": 0.9448818897637795
        },
        {
          "duration": 0.09809035624999751,
          "durationTicks": 113,
          "midi": 85,
          "name": "C#6",
          "ticks": 36120,
          "time": 31.354191750000002,
          "velocity": 0.6299212598425197
        },
        {
          "duration": 0.09809035625000107,
          "durationTicks": 113,
          "midi": 89,
          "name": "F6",
          "ticks": 36240,
          "time": 31.4583585,
          "velocity": 0.6299212598425197
        },
        {
          "duration": 0.09809035625000107,
          "durationTicks": 113,
          "midi": 91,
          "name": "G6",
          "ticks": 36360,
          "time": 31.56252525,
          "velocity": 0.6299212598425197
        },
        {
          "duration": 0.103298693750002,
          "durationTicks": 119,
          "midi": 96,
          "name": "C7",
          "ticks": 36480,
          "time": 31.666692,
          "velocity": 0.9448818897637795
        },
        {
          "duration": 0.09809035624999751,
          "durationTicks": 113,
          "midi": 91,
          "name": "G6",
          "ticks": 36600,
          "time": 31.770858750000002,
          "velocity": 0.6299212598425197
        },
        {
          "duration": 0.09809035625000107,
          "durationTicks": 113,
          "midi": 89,
          "name": "F6",
          "ticks": 36720,
          "time": 31.8750255,
          "velocity": 0.6299212598425197
        },
        {
          "duration": 0.09809035625000107,
          "durationTicks": 113,
          "midi": 85,
          "name": "C#6",
          "ticks": 36840,
          "time": 31.97919225,
          "velocity": 0.6299212598425197
        },
        {
          "duration": 0.10329869374999845,
          "durationTicks": 119,
          "midi": 84,
          "name": "C6",
          "ticks": 36960,
          "time": 32.083359,
          "velocity": 0.9448818897637795
        },
        {
          "duration": 0.09809035625000462,
          "durationTicks": 113,
          "midi": 79,
          "name": "G5",
          "ticks": 37080,
          "time": 32.18752575,
          "velocity": 0.6299212598425197
        },
        {
          "duration": 0.09809035624999751,
          "durationTicks": 113,
          "midi": 77,
          "name": "F5",
          "ticks": 37200,
          "time": 32.2916925,
          "velocity": 0.6299212598425197
        },
        {
          "duration": 0.09809035624999751,
          "durationTicks": 113,
          "midi": 73,
          "name": "C#5",
          "ticks": 37320,
          "time": 32.39585925,
          "velocity": 0.6299212598425197
        },
        {
          "duration": 0.10329869375000555,
          "durationTicks": 119,
          "midi": 72,
          "name": "C5",
          "ticks": 37440,
          "time": 32.500026,
          "velocity": 0.9448818897637795
        },
        {
          "duration": 0.09809035624999751,
          "durationTicks": 113,
          "midi": 67,
          "name": "G4",
          "ticks": 37560,
          "time": 32.60419275,
          "velocity": 0.6299212598425197
        },
        {
          "duration": 0.09809035624999751,
          "durationTicks": 113,
          "midi": 65,
          "name": "F4",
          "ticks": 37680,
          "time": 32.7083595,
          "velocity": 0.6299212598425197
        },
        {
          "duration": 0.09809035625000462,
          "durationTicks": 113,
          "midi": 61,
          "name": "C#4",
          "ticks": 37800,
          "time": 32.81252625,
          "velocity": 0.6299212598425197
        },
        {
          "duration": 0.10329869374999845,
          "durationTicks": 119,
          "midi": 60,
          "name": "C4",
          "ticks": 37920,
          "time": 32.916693,
          "velocity": 0.9448818897637795
        },
        {
          "duration": 0.09809035624999751,
          "durationTicks": 113,
          "midi": 55,
          "name": "G3",
          "ticks": 38040,
          "time": 33.02085975,
          "velocity": 0.6299212598425197
        },
        {
          "duration": 0.09809035624999751,
          "durationTicks": 113,
          "midi": 53,
          "name": "F3",
          "ticks": 38160,
          "time": 33.125026500000004,
          "velocity": 0.6299212598425197
        },
        {
          "duration": 0.4166670000000039,
          "durationTicks": 480,
          "midi": 58,
          "name": "A#3",
          "ticks": 38400,
          "time": 33.33336,
          "velocity": 0.9448818897637795
        },
        {
          "duration": 0.197048768749994,
          "durationTicks": 227,
          "midi": 48,
          "name": "C3",
          "ticks": 38520,
          "time": 33.43752675,
          "velocity": 0.6299212598425197
        },
        {
          "duration": 0.09809035624999751,
          "durationTicks": 113,
          "midi": 51,
          "name": "D#3",
          "ticks": 38640,
          "time": 33.5416935,
          "velocity": 0.6299212598425197
        },
        {
          "duration": 0.09809035625000462,
          "durationTicks": 113,
          "midi": 55,
          "name": "G3",
          "ticks": 38760,
          "time": 33.64586025,
          "velocity": 0.6299212598425197
        },
        {
          "duration": 1.2491329437499985,
          "durationTicks": 1439,
          "midi": 58,
          "name": "A#3",
          "ticks": 38880,
          "time": 33.750027,
          "velocity": 0.9448818897637795
        },
        {
          "duration": 0.09809035624999751,
          "durationTicks": 113,
          "midi": 60,
          "name": "C4",
          "ticks": 39000,
          "time": 33.85419375,
          "velocity": 0.6299212598425197
        },
        {
          "duration": 0.09809035625000462,
          "durationTicks": 113,
          "midi": 63,
          "name": "D#4",
          "ticks": 39120,
          "time": 33.9583605,
          "velocity": 0.6299212598425197
        },
        {
          "duration": 0.09809035624999751,
          "durationTicks": 113,
          "midi": 67,
          "name": "G4",
          "ticks": 39240,
          "time": 34.06252725,
          "velocity": 0.6299212598425197
        },
        {
          "duration": 0.10329869374999845,
          "durationTicks": 119,
          "midi": 70,
          "name": "A#4",
          "ticks": 39360,
          "time": 34.166694,
          "velocity": 0.9448818897637795
        },
        {
          "duration": 0.09809035624999751,
          "durationTicks": 113,
          "midi": 72,
          "name": "C5",
          "ticks": 39480,
          "time": 34.270860750000004,
          "velocity": 0.6299212598425197
        },
        {
          "duration": 0.09809035624999751,
          "durationTicks": 113,
          "midi": 75,
          "name": "D#5",
          "ticks": 39600,
          "time": 34.3750275,
          "velocity": 0.6299212598425197
        },
        {
          "duration": 0.09809035625000462,
          "durationTicks": 113,
          "midi": 79,
          "name": "G5",
          "ticks": 39720,
          "time": 34.47919425,
          "velocity": 0.6299212598425197
        },
        {
          "duration": 0.10329869374999845,
          "durationTicks": 119,
          "midi": 82,
          "name": "A#5",
          "ticks": 39840,
          "time": 34.583361000000004,
          "velocity": 0.9448818897637795
        },
        {
          "duration": 0.09809035624999751,
          "durationTicks": 113,
          "midi": 84,
          "name": "C6",
          "ticks": 39960,
          "time": 34.68752775,
          "velocity": 0.6299212598425197
        },
        {
          "duration": 0.09809035625000462,
          "durationTicks": 113,
          "midi": 87,
          "name": "D#6",
          "ticks": 40080,
          "time": 34.7916945,
          "velocity": 0.6299212598425197
        },
        {
          "duration": 0.09809035624999751,
          "durationTicks": 113,
          "midi": 91,
          "name": "G6",
          "ticks": 40200,
          "time": 34.89586125,
          "velocity": 0.6299212598425197
        },
        {
          "duration": 0.10329869374999845,
          "durationTicks": 119,
          "midi": 94,
          "name": "A#6",
          "ticks": 40320,
          "time": 35.000028,
          "velocity": 0.9448818897637795
        },
        {
          "duration": 0.09809035625000462,
          "durationTicks": 113,
          "midi": 91,
          "name": "G6",
          "ticks": 40440,
          "time": 35.10419475,
          "velocity": 0.6299212598425197
        },
        {
          "duration": 0.09809035624999751,
          "durationTicks": 113,
          "midi": 87,
          "name": "D#6",
          "ticks": 40560,
          "time": 35.2083615,
          "velocity": 0.6299212598425197
        },
        {
          "duration": 0.09809035624999751,
          "durationTicks": 113,
          "midi": 84,
          "name": "C6",
          "ticks": 40680,
          "time": 35.31252825,
          "velocity": 0.6299212598425197
        },
        {
          "duration": 0.10329869374999845,
          "durationTicks": 119,
          "midi": 82,
          "name": "A#5",
          "ticks": 40800,
          "time": 35.416695000000004,
          "velocity": 0.9448818897637795
        },
        {
          "duration": 0.09809035624999751,
          "durationTicks": 113,
          "midi": 79,
          "name": "G5",
          "ticks": 40920,
          "time": 35.52086175,
          "velocity": 0.6299212598425197
        },
        {
          "duration": 0.09809035625000462,
          "durationTicks": 113,
          "midi": 75,
          "name": "D#5",
          "ticks": 41040,
          "time": 35.6250285,
          "velocity": 0.6299212598425197
        },
        {
          "duration": 0.09809035624999751,
          "durationTicks": 113,
          "midi": 72,
          "name": "C5",
          "ticks": 41160,
          "time": 35.729195250000004,
          "velocity": 0.6299212598425197
        },
        {
          "duration": 0.10329869374999845,
          "durationTicks": 119,
          "midi": 70,
          "name": "A#4",
          "ticks": 41280,
          "time": 35.833362,
          "velocity": 0.9448818897637795
        },
        {
          "duration": 0.09809035625000462,
          "durationTicks": 113,
          "midi": 67,
          "name": "G4",
          "ticks": 41400,
          "time": 35.93752875,
          "velocity": 0.6299212598425197
        },
        {
          "duration": 0.09809035624999751,
          "durationTicks": 113,
          "midi": 63,
          "name": "D#4",
          "ticks": 41520,
          "time": 36.0416955,
          "velocity": 0.6299212598425197
        },
        {
          "duration": 0.09809035624999751,
          "durationTicks": 113,
          "midi": 60,
          "name": "C4",
          "ticks": 41640,
          "time": 36.14586225,
          "velocity": 0.6299212598425197
        },
        {
          "duration": 0.10329869375000555,
          "durationTicks": 119,
          "midi": 58,
          "name": "A#3",
          "ticks": 41760,
          "time": 36.250029,
          "velocity": 0.9448818897637795
        },
        {
          "duration": 0.09809035624999751,
          "durationTicks": 113,
          "midi": 55,
          "name": "G3",
          "ticks": 41880,
          "time": 36.35419575,
          "velocity": 0.6299212598425197
        },
        {
          "duration": 0.09809035624999751,
          "durationTicks": 113,
          "midi": 51,
          "name": "D#3",
          "ticks": 42000,
          "time": 36.4583625,
          "velocity": 0.6299212598425197
        },
        {
          "duration": 0.4166669999999968,
          "durationTicks": 480,
          "midi": 58,
          "name": "A#3",
          "ticks": 42240,
          "time": 36.666696,
          "velocity": 0.9448818897637795
        },
        {
          "duration": 0.1970487687500011,
          "durationTicks": 227,
          "midi": 48,
          "name": "C3",
          "ticks": 42360,
          "time": 36.77086275,
          "velocity": 0.6299212598425197
        },
        {
          "duration": 0.09809035624999751,
          "durationTicks": 113,
          "midi": 51,
          "name": "D#3",
          "ticks": 42480,
          "time": 36.875029500000004,
          "velocity": 0.6299212598425197
        },
        {
          "duration": 0.09809035624999751,
          "durationTicks": 113,
          "midi": 55,
          "name": "G3",
          "ticks": 42600,
          "time": 36.97919625,
          "velocity": 0.6299212598425197
        },
        {
          "duration": 1.2491329437500056,
          "durationTicks": 1439,
          "midi": 58,
          "name": "A#3",
          "ticks": 42720,
          "time": 37.083363,
          "velocity": 0.9448818897637795
        },
        {
          "duration": 0.09809035624999751,
          "durationTicks": 113,
          "midi": 60,
          "name": "C4",
          "ticks": 42840,
          "time": 37.18752975,
          "velocity": 0.6299212598425197
        },
        {
          "duration": 0.09809035624999751,
          "durationTicks": 113,
          "midi": 63,
          "name": "D#4",
          "ticks": 42960,
          "time": 37.2916965,
          "velocity": 0.6299212598425197
        },
        {
          "duration": 0.09809035625000462,
          "durationTicks": 113,
          "midi": 67,
          "name": "G4",
          "ticks": 43080,
          "time": 37.39586325,
          "velocity": 0.6299212598425197
        },
        {
          "duration": 0.10329869374999845,
          "durationTicks": 119,
          "midi": 70,
          "name": "A#4",
          "ticks": 43200,
          "time": 37.50003,
          "velocity": 0.9448818897637795
        },
        {
          "duration": 0.09809035624999751,
          "durationTicks": 113,
          "midi": 72,
          "name": "C5",
          "ticks": 43320,
          "time": 37.60419675,
          "velocity": 0.6299212598425197
        },
        {
          "duration": 0.09809035624999751,
          "durationTicks": 113,
          "midi": 75,
          "name": "D#5",
          "ticks": 43440,
          "time": 37.708363500000004,
          "velocity": 0.6299212598425197
        },
        {
          "duration": 0.09809035624999751,
          "durationTicks": 113,
          "midi": 79,
          "name": "G5",
          "ticks": 43560,
          "time": 37.81253025,
          "velocity": 0.6299212598425197
        },
        {
          "duration": 0.10329869375000555,
          "durationTicks": 119,
          "midi": 82,
          "name": "A#5",
          "ticks": 43680,
          "time": 37.916697,
          "velocity": 0.9448818897637795
        },
        {
          "duration": 0.09809035624999751,
          "durationTicks": 113,
          "midi": 84,
          "name": "C6",
          "ticks": 43800,
          "time": 38.020863750000004,
          "velocity": 0.6299212598425197
        },
        {
          "duration": 0.09809035624999751,
          "durationTicks": 113,
          "midi": 87,
          "name": "D#6",
          "ticks": 43920,
          "time": 38.1250305,
          "velocity": 0.6299212598425197
        },
        {
          "duration": 0.09809035625000462,
          "durationTicks": 113,
          "midi": 91,
          "name": "G6",
          "ticks": 44040,
          "time": 38.22919725,
          "velocity": 0.6299212598425197
        },
        {
          "duration": 0.10329869374999845,
          "durationTicks": 119,
          "midi": 94,
          "name": "A#6",
          "ticks": 44160,
          "time": 38.333364,
          "velocity": 0.9448818897637795
        },
        {
          "duration": 0.09809035624999751,
          "durationTicks": 113,
          "midi": 91,
          "name": "G6",
          "ticks": 44280,
          "time": 38.43753075,
          "velocity": 0.6299212598425197
        },
        {
          "duration": 0.09809035625000462,
          "durationTicks": 113,
          "midi": 87,
          "name": "D#6",
          "ticks": 44400,
          "time": 38.5416975,
          "velocity": 0.6299212598425197
        },
        {
          "duration": 0.09809035624999751,
          "durationTicks": 113,
          "midi": 84,
          "name": "C6",
          "ticks": 44520,
          "time": 38.64586425,
          "velocity": 0.6299212598425197
        },
        {
          "duration": 0.10329869374999845,
          "durationTicks": 119,
          "midi": 82,
          "name": "A#5",
          "ticks": 44640,
          "time": 38.750031,
          "velocity": 0.9448818897637795
        },
        {
          "duration": 0.09809035624999751,
          "durationTicks": 113,
          "midi": 79,
          "name": "G5",
          "ticks": 44760,
          "time": 38.854197750000004,
          "velocity": 0.6299212598425197
        },
        {
          "duration": 0.09809035624999751,
          "durationTicks": 113,
          "midi": 75,
          "name": "D#5",
          "ticks": 44880,
          "time": 38.9583645,
          "velocity": 0.6299212598425197
        },
        {
          "duration": 0.09809035625000462,
          "durationTicks": 113,
          "midi": 72,
          "name": "C5",
          "ticks": 45000,
          "time": 39.06253125,
          "velocity": 0.6299212598425197
        },
        {
          "duration": 0.10329869374999845,
          "durationTicks": 119,
          "midi": 70,
          "name": "A#4",
          "ticks": 45120,
          "time": 39.166698000000004,
          "velocity": 0.9448818897637795
        },
        {
          "duration": 0.09809035624999751,
          "durationTicks": 113,
          "midi": 67,
          "name": "G4",
          "ticks": 45240,
          "time": 39.27086475,
          "velocity": 0.6299212598425197
        },
        {
          "duration": 0.09809035625000462,
          "durationTicks": 113,
          "midi": 63,
          "name": "D#4",
          "ticks": 45360,
          "time": 39.3750315,
          "velocity": 0.6299212598425197
        },
        {
          "duration": 0.09809035624999751,
          "durationTicks": 113,
          "midi": 60,
          "name": "C4",
          "ticks": 45480,
          "time": 39.47919825,
          "velocity": 0.6299212598425197
        },
        {
          "duration": 0.10329869374999845,
          "durationTicks": 119,
          "midi": 58,
          "name": "A#3",
          "ticks": 45600,
          "time": 39.583365,
          "velocity": 0.9448818897637795
        },
        {
          "duration": 0.09809035625000462,
          "durationTicks": 113,
          "midi": 55,
          "name": "G3",
          "ticks": 45720,
          "time": 39.68753175,
          "velocity": 0.6299212598425197
        },
        {
          "duration": 0.09809035624999751,
          "durationTicks": 113,
          "midi": 51,
          "name": "D#3",
          "ticks": 45840,
          "time": 39.7916985,
          "velocity": 0.6299212598425197
        },
        {
          "duration": 0.4166669999999968,
          "durationTicks": 480,
          "midi": 58,
          "name": "A#3",
          "ticks": 46080,
          "time": 40.000032000000004,
          "velocity": 0.9448818897637795
        },
        {
          "duration": 0.197048768749994,
          "durationTicks": 227,
          "midi": 47,
          "name": "B2",
          "ticks": 46200,
          "time": 40.10419875,
          "velocity": 0.6299212598425197
        },
        {
          "duration": 0.09809035625000462,
          "durationTicks": 113,
          "midi": 51,
          "name": "D#3",
          "ticks": 46320,
          "time": 40.2083655,
          "velocity": 0.6299212598425197
        },
        {
          "duration": 0.09809035624999751,
          "durationTicks": 113,
          "midi": 54,
          "name": "F#3",
          "ticks": 46440,
          "time": 40.312532250000004,
          "velocity": 0.6299212598425197
        },
        {
          "duration": 1.2491329437499985,
          "durationTicks": 1439,
          "midi": 58,
          "name": "A#3",
          "ticks": 46560,
          "time": 40.416699,
          "velocity": 0.9448818897637795
        },
        {
          "duration": 0.09809035625000462,
          "durationTicks": 113,
          "midi": 59,
          "name": "B3",
          "ticks": 46680,
          "time": 40.52086575,
          "velocity": 0.6299212598425197
        },
        {
          "duration": 0.09809035624999751,
          "durationTicks": 113,
          "midi": 63,
          "name": "D#4",
          "ticks": 46800,
          "time": 40.6250325,
          "velocity": 0.6299212598425197
        },
        {
          "duration": 0.09809035624999751,
          "durationTicks": 113,
          "midi": 66,
          "name": "F#4",
          "ticks": 46920,
          "time": 40.72919925,
          "velocity": 0.6299212598425197
        },
        {
          "duration": 0.10329869375000555,
          "durationTicks": 119,
          "midi": 70,
          "name": "A#4",
          "ticks": 47040,
          "time": 40.833366,
          "velocity": 0.9448818897637795
        },
        {
          "duration": 0.09809035624999751,
          "durationTicks": 113,
          "midi": 71,
          "name": "B4",
          "ticks": 47160,
          "time": 40.93753275,
          "velocity": 0.6299212598425197
        },
        {
          "duration": 0.09809035624999751,
          "durationTicks": 113,
          "midi": 75,
          "name": "D#5",
          "ticks": 47280,
          "time": 41.0416995,
          "velocity": 0.6299212598425197
        },
        {
          "duration": 0.09809035625000462,
          "durationTicks": 113,
          "midi": 78,
          "name": "F#5",
          "ticks": 47400,
          "time": 41.14586625,
          "velocity": 0.6299212598425197
        },
        {
          "duration": 0.10329869374999845,
          "durationTicks": 119,
          "midi": 82,
          "name": "A#5",
          "ticks": 47520,
          "time": 41.250033,
          "velocity": 0.9448818897637795
        },
        {
          "duration": 0.09809035625000462,
          "durationTicks": 113,
          "midi": 83,
          "name": "B5",
          "ticks": 47640,
          "time": 41.35419975,
          "velocity": 0.6299212598425197
        },
        {
          "duration": 0.09809035624999751,
          "durationTicks": 113,
          "midi": 87,
          "name": "D#6",
          "ticks": 47760,
          "time": 41.458366500000004,
          "velocity": 0.6299212598425197
        },
        {
          "duration": 0.09809035624999751,
          "durationTicks": 113,
          "midi": 90,
          "name": "F#6",
          "ticks": 47880,
          "time": 41.56253325,
          "velocity": 0.6299212598425197
        },
        {
          "duration": 0.10329869375000555,
          "durationTicks": 119,
          "midi": 94,
          "name": "A#6",
          "ticks": 48000,
          "time": 41.6667,
          "velocity": 0.9448818897637795
        },
        {
          "duration": 0.09809035624999751,
          "durationTicks": 113,
          "midi": 90,
          "name": "F#6",
          "ticks": 48120,
          "time": 41.77086675,
          "velocity": 0.6299212598425197
        },
        {
          "duration": 0.09809035624999751,
          "durationTicks": 113,
          "midi": 87,
          "name": "D#6",
          "ticks": 48240,
          "time": 41.8750335,
          "velocity": 0.6299212598425197
        },
        {
          "duration": 0.09809035625000462,
          "durationTicks": 113,
          "midi": 83,
          "name": "B5",
          "ticks": 48360,
          "time": 41.97920025,
          "velocity": 0.6299212598425197
        },
        {
          "duration": 0.10329869374999845,
          "durationTicks": 119,
          "midi": 82,
          "name": "A#5",
          "ticks": 48480,
          "time": 42.083367,
          "velocity": 0.9448818897637795
        },
        {
          "duration": 0.09809035624999751,
          "durationTicks": 113,
          "midi": 78,
          "name": "F#5",
          "ticks": 48600,
          "time": 42.18753375,
          "velocity": 0.6299212598425197
        },
        {
          "duration": 0.09809035625000462,
          "durationTicks": 113,
          "midi": 75,
          "name": "D#5",
          "ticks": 48720,
          "time": 42.2917005,
          "velocity": 0.6299212598425197
        },
        {
          "duration": 0.09809035624999751,
          "durationTicks": 113,
          "midi": 71,
          "name": "B4",
          "ticks": 48840,
          "time": 42.39586725,
          "velocity": 0.6299212598425197
        },
        {
          "duration": 0.10329869375000555,
          "durationTicks": 119,
          "midi": 70,
          "name": "A#4",
          "ticks": 48960,
          "time": 42.500034,
          "velocity": 0.9448818897637795
        },
        {
          "duration": 0.09809035624999751,
          "durationTicks": 113,
          "midi": 66,
          "name": "F#4",
          "ticks": 49080,
          "time": 42.604200750000004,
          "velocity": 0.6299212598425197
        },
        {
          "duration": 0.09809035624999751,
          "durationTicks": 113,
          "midi": 63,
          "name": "D#4",
          "ticks": 49200,
          "time": 42.7083675,
          "velocity": 0.6299212598425197
        },
        {
          "duration": 0.09809035625000462,
          "durationTicks": 113,
          "midi": 59,
          "name": "B3",
          "ticks": 49320,
          "time": 42.81253425,
          "velocity": 0.6299212598425197
        },
        {
          "duration": 0.10329869374999845,
          "durationTicks": 119,
          "midi": 58,
          "name": "A#3",
          "ticks": 49440,
          "time": 42.916701,
          "velocity": 0.9448818897637795
        },
        {
          "duration": 0.09809035624999751,
          "durationTicks": 113,
          "midi": 54,
          "name": "F#3",
          "ticks": 49560,
          "time": 43.02086775,
          "velocity": 0.6299212598425197
        },
        {
          "duration": 0.09809035625000462,
          "durationTicks": 113,
          "midi": 51,
          "name": "D#3",
          "ticks": 49680,
          "time": 43.1250345,
          "velocity": 0.6299212598425197
        },
        {
          "duration": 0.4166670000000039,
          "durationTicks": 480,
          "midi": 58,
          "name": "A#3",
          "ticks": 49920,
          "time": 43.333368,
          "velocity": 0.9448818897637795
        },
        {
          "duration": 0.1970487687500011,
          "durationTicks": 227,
          "midi": 47,
          "name": "B2",
          "ticks": 50040,
          "time": 43.43753475,
          "velocity": 0.6299212598425197
        },
        {
          "duration": 0.09809035624999751,
          "durationTicks": 113,
          "midi": 51,
          "name": "D#3",
          "ticks": 50160,
          "time": 43.5417015,
          "velocity": 0.6299212598425197
        },
        {
          "duration": 0.09809035625000462,
          "durationTicks": 113,
          "midi": 53,
          "name": "F3",
          "ticks": 50280,
          "time": 43.64586825,
          "velocity": 0.6299212598425197
        },
        {
          "duration": 1.2491329437499985,
          "durationTicks": 1439,
          "midi": 58,
          "name": "A#3",
          "ticks": 50400,
          "time": 43.750035000000004,
          "velocity": 0.9448818897637795
        },
        {
          "duration": 0.09809035624999751,
          "durationTicks": 113,
          "midi": 59,
          "name": "B3",
          "ticks": 50520,
          "time": 43.85420175,
          "velocity": 0.6299212598425197
        },
        {
          "duration": 0.09809035625000462,
          "durationTicks": 113,
          "midi": 63,
          "name": "D#4",
          "ticks": 50640,
          "time": 43.9583685,
          "velocity": 0.6299212598425197
        },
        {
          "duration": 0.09809035624999751,
          "durationTicks": 113,
          "midi": 65,
          "name": "F4",
          "ticks": 50760,
          "time": 44.06253525,
          "velocity": 0.6299212598425197
        },
        {
          "duration": 0.10329869374999845,
          "durationTicks": 119,
          "midi": 70,
          "name": "A#4",
          "ticks": 50880,
          "time": 44.166702,
          "velocity": 0.9448818897637795
        },
        {
          "duration": 0.09809035625000462,
          "durationTicks": 113,
          "midi": 71,
          "name": "B4",
          "ticks": 51000,
          "time": 44.27086875,
          "velocity": 0.6299212598425197
        },
        {
          "duration": 0.09809035624999751,
          "durationTicks": 113,
          "midi": 75,
          "name": "D#5",
          "ticks": 51120,
          "time": 44.3750355,
          "velocity": 0.6299212598425197
        },
        {
          "duration": 0.09809035624999751,
          "durationTicks": 113,
          "midi": 77,
          "name": "F5",
          "ticks": 51240,
          "time": 44.47920225,
          "velocity": 0.6299212598425197
        },
        {
          "duration": 0.10329869375000555,
          "durationTicks": 119,
          "midi": 82,
          "name": "A#5",
          "ticks": 51360,
          "time": 44.583369,
          "velocity": 0.9448818897637795
        },
        {
          "duration": 0.09809035624999751,
          "durationTicks": 113,
          "midi": 83,
          "name": "B5",
          "ticks": 51480,
          "time": 44.68753575,
          "velocity": 0.6299212598425197
        },
        {
          "duration": 0.09809035625000462,
          "durationTicks": 113,
          "midi": 87,
          "name": "D#6",
          "ticks": 51600,
          "time": 44.7917025,
          "velocity": 0.6299212598425197
        },
        {
          "duration": 0.09809035624999751,
          "durationTicks": 113,
          "midi": 89,
          "name": "F6",
          "ticks": 51720,
          "time": 44.895869250000004,
          "velocity": 0.6299212598425197
        },
        {
          "duration": 0.10329869374999845,
          "durationTicks": 119,
          "midi": 94,
          "name": "A#6",
          "ticks": 51840,
          "time": 45.000036,
          "velocity": 0.9448818897637795
        },
        {
          "duration": 0.09809035625000462,
          "durationTicks": 113,
          "midi": 89,
          "name": "F6",
          "ticks": 51960,
          "time": 45.10420275,
          "velocity": 0.6299212598425197
        },
        {
          "duration": 0.09809035624999751,
          "durationTicks": 113,
          "midi": 87,
          "name": "D#6",
          "ticks": 52080,
          "time": 45.2083695,
          "velocity": 0.6299212598425197
        },
        {
          "duration": 0.09809035624999751,
          "durationTicks": 113,
          "midi": 83,
          "name": "B5",
          "ticks": 52200,
          "time": 45.31253625,
          "velocity": 0.6299212598425197
        },
        {
          "duration": 0.10329869375000555,
          "durationTicks": 119,
          "midi": 82,
          "name": "A#5",
          "ticks": 52320,
          "time": 45.416703,
          "velocity": 0.9448818897637795
        },
        {
          "duration": 0.09809035624999751,
          "durationTicks": 113,
          "midi": 77,
          "name": "F5",
          "ticks": 52440,
          "time": 45.52086975,
          "velocity": 0.6299212598425197
        },
        {
          "duration": 0.09809035624999751,
          "durationTicks": 113,
          "midi": 75,
          "name": "D#5",
          "ticks": 52560,
          "time": 45.6250365,
          "velocity": 0.6299212598425197
        },
        {
          "duration": 0.09809035625000462,
          "durationTicks": 113,
          "midi": 71,
          "name": "B4",
          "ticks": 52680,
          "time": 45.72920325,
          "velocity": 0.6299212598425197
        },
        {
          "duration": 0.10329869374999845,
          "durationTicks": 119,
          "midi": 70,
          "name": "A#4",
          "ticks": 52800,
          "time": 45.83337,
          "velocity": 0.9448818897637795
        },
        {
          "duration": 0.09809035625000462,
          "durationTicks": 113,
          "midi": 65,
          "name": "F4",
          "ticks": 52920,
          "time": 45.93753675,
          "velocity": 0.6299212598425197
        },
        {
          "duration": 0.09809035624999751,
          "durationTicks": 113,
          "midi": 63,
          "name": "D#4",
          "ticks": 53040,
          "time": 46.041703500000004,
          "velocity": 0.6299212598425197
        },
        {
          "duration": 0.09809035624999751,
          "durationTicks": 113,
          "midi": 59,
          "name": "B3",
          "ticks": 53160,
          "time": 46.14587025,
          "velocity": 0.6299212598425197
        },
        {
          "duration": 0.10329869375000555,
          "durationTicks": 119,
          "midi": 58,
          "name": "A#3",
          "ticks": 53280,
          "time": 46.250037,
          "velocity": 0.9448818897637795
        },
        {
          "duration": 0.09809035624999751,
          "durationTicks": 113,
          "midi": 53,
          "name": "F3",
          "ticks": 53400,
          "time": 46.35420375,
          "velocity": 0.6299212598425197
        },
        {
          "duration": 0.09809035624999751,
          "durationTicks": 113,
          "midi": 51,
          "name": "D#3",
          "ticks": 53520,
          "time": 46.4583705,
          "velocity": 0.6299212598425197
        },
        {
          "duration": 0.4166669999999968,
          "durationTicks": 480,
          "midi": 56,
          "name": "G#3",
          "ticks": 53760,
          "time": 46.666704,
          "velocity": 0.9448818897637795
        },
        {
          "duration": 0.1970487687500011,
          "durationTicks": 227,
          "midi": 46,
          "name": "A#2",
          "ticks": 53880,
          "time": 46.77087075,
          "velocity": 0.6299212598425197
        },
        {
          "duration": 0.09809035625000462,
          "durationTicks": 113,
          "midi": 49,
          "name": "C#3",
          "ticks": 54000,
          "time": 46.8750375,
          "velocity": 0.6299212598425197
        },
        {
          "duration": 0.09809035624999751,
          "durationTicks": 113,
          "midi": 53,
          "name": "F3",
          "ticks": 54120,
          "time": 46.97920425,
          "velocity": 0.6299212598425197
        },
        {
          "duration": 1.2491329437500056,
          "durationTicks": 1439,
          "midi": 56,
          "name": "G#3",
          "ticks": 54240,
          "time": 47.083371,
          "velocity": 0.9448818897637795
        },
        {
          "duration": 0.09809035624999751,
          "durationTicks": 113,
          "midi": 58,
          "name": "A#3",
          "ticks": 54360,
          "time": 47.187537750000004,
          "velocity": 0.6299212598425197
        },
        {
          "duration": 0.09809035624999751,
          "durationTicks": 113,
          "midi": 61,
          "name": "C#4",
          "ticks": 54480,
          "time": 47.2917045,
          "velocity": 0.6299212598425197
        },
        {
          "duration": 0.09809035625000462,
          "durationTicks": 113,
          "midi": 65,
          "name": "F4",
          "ticks": 54600,
          "time": 47.39587125,
          "velocity": 0.6299212598425197
        },
        {
          "duration": 0.10329869374999845,
          "durationTicks": 119,
          "midi": 68,
          "name": "G#4",
          "ticks": 54720,
          "time": 47.500038,
          "velocity": 0.9448818897637795
        },
        {
          "duration": 0.09809035624999751,
          "durationTicks": 113,
          "midi": 70,
          "name": "A#4",
          "ticks": 54840,
          "time": 47.60420475,
          "velocity": 0.6299212598425197
        },
        {
          "duration": 0.09809035625000462,
          "durationTicks": 113,
          "midi": 73,
          "name": "C#5",
          "ticks": 54960,
          "time": 47.7083715,
          "velocity": 0.6299212598425197
        },
        {
          "duration": 0.09809035624999751,
          "durationTicks": 113,
          "midi": 77,
          "name": "F5",
          "ticks": 55080,
          "time": 47.81253825,
          "velocity": 0.6299212598425197
        },
        {
          "duration": 0.10329869374999845,
          "durationTicks": 119,
          "midi": 80,
          "name": "G#5",
          "ticks": 55200,
          "time": 47.916705,
          "velocity": 0.9448818897637795
        },
        {
          "duration": 0.09809035625000462,
          "durationTicks": 113,
          "midi": 82,
          "name": "A#5",
          "ticks": 55320,
          "time": 48.02087175,
          "velocity": 0.6299212598425197
        },
        {
          "duration": 0.09809035624999751,
          "durationTicks": 113,
          "midi": 85,
          "name": "C#6",
          "ticks": 55440,
          "time": 48.1250385,
          "velocity": 0.6299212598425197
        },
        {
          "duration": 0.09809035624999751,
          "durationTicks": 113,
          "midi": 89,
          "name": "F6",
          "ticks": 55560,
          "time": 48.22920525,
          "velocity": 0.6299212598425197
        },
        {
          "duration": 0.10329869374999845,
          "durationTicks": 119,
          "midi": 92,
          "name": "G#6",
          "ticks": 55680,
          "time": 48.333372000000004,
          "velocity": 0.9448818897637795
        },
        {
          "duration": 0.09809035624999751,
          "durationTicks": 113,
          "midi": 89,
          "name": "F6",
          "ticks": 55800,
          "time": 48.43753875,
          "velocity": 0.6299212598425197
        },
        {
          "duration": 0.09809035625000462,
          "durationTicks": 113,
          "midi": 85,
          "name": "C#6",
          "ticks": 55920,
          "time": 48.5417055,
          "velocity": 0.6299212598425197
        },
        {
          "duration": 0.09809035624999751,
          "durationTicks": 113,
          "midi": 82,
          "name": "A#5",
          "ticks": 56040,
          "time": 48.645872250000004,
          "velocity": 0.6299212598425197
        },
        {
          "duration": 0.10329869374999845,
          "durationTicks": 119,
          "midi": 80,
          "name": "G#5",
          "ticks": 56160,
          "time": 48.750039,
          "velocity": 0.9448818897637795
        },
        {
          "duration": 0.09809035625000462,
          "durationTicks": 113,
          "midi": 77,
          "name": "F5",
          "ticks": 56280,
          "time": 48.85420575,
          "velocity": 0.6299212598425197
        },
        {
          "duration": 0.09809035624999751,
          "durationTicks": 113,
          "midi": 73,
          "name": "C#5",
          "ticks": 56400,
          "time": 48.9583725,
          "velocity": 0.6299212598425197
        },
        {
          "duration": 0.09809035624999751,
          "durationTicks": 113,
          "midi": 70,
          "name": "A#4",
          "ticks": 56520,
          "time": 49.06253925,
          "velocity": 0.6299212598425197
        },
        {
          "duration": 0.10329869375000555,
          "durationTicks": 119,
          "midi": 68,
          "name": "G#4",
          "ticks": 56640,
          "time": 49.166706,
          "velocity": 0.9448818897637795
        },
        {
          "duration": 0.09809035624999751,
          "durationTicks": 113,
          "midi": 65,
          "name": "F4",
          "ticks": 56760,
          "time": 49.27087275,
          "velocity": 0.6299212598425197
        },
        {
          "duration": 0.09809035624999751,
          "durationTicks": 113,
          "midi": 61,
          "name": "C#4",
          "ticks": 56880,
          "time": 49.3750395,
          "velocity": 0.6299212598425197
        },
        {
          "duration": 0.09809035624999751,
          "durationTicks": 113,
          "midi": 58,
          "name": "A#3",
          "ticks": 57000,
          "time": 49.479206250000004,
          "velocity": 0.6299212598425197
        },
        {
          "duration": 0.10329869374999845,
          "durationTicks": 119,
          "midi": 56,
          "name": "G#3",
          "ticks": 57120,
          "time": 49.583373,
          "velocity": 0.9448818897637795
        },
        {
          "duration": 0.09809035625000462,
          "durationTicks": 113,
          "midi": 53,
          "name": "F3",
          "ticks": 57240,
          "time": 49.68753975,
          "velocity": 0.6299212598425197
        },
        {
          "duration": 0.09809035624999751,
          "durationTicks": 113,
          "midi": 49,
          "name": "C#3",
          "ticks": 57360,
          "time": 49.791706500000004,
          "velocity": 0.6299212598425197
        },
        {
          "duration": 0.4166670000000039,
          "durationTicks": 480,
          "midi": 56,
          "name": "G#3",
          "ticks": 57600,
          "time": 50.00004,
          "velocity": 0.9448818897637795
        },
        {
          "duration": 0.10329869374999845,
          "durationTicks": 119,
          "midi": 46,
          "name": "A#2",
          "ticks": 57720,
          "time": 50.10420675,
          "velocity": 0.6299212598425197
        },
        {
          "duration": 0.10329869374999845,
          "durationTicks": 119,
          "midi": 49,
          "name": "C#3",
          "ticks": 57840,
          "time": 50.2083735,
          "velocity": 0.6299212598425197
        },
        {
          "duration": 0.10329869375000555,
          "durationTicks": 119,
          "midi": 53,
          "name": "F3",
          "ticks": 57960,
          "time": 50.31254025,
          "velocity": 0.6299212598425197
        },
        {
          "duration": 1.2491329437499985,
          "durationTicks": 1439,
          "midi": 56,
          "name": "G#3",
          "ticks": 58080,
          "time": 50.416707,
          "velocity": 0.9448818897637795
        },
        {
          "duration": 0.10329869375000555,
          "durationTicks": 119,
          "midi": 58,
          "name": "A#3",
          "ticks": 58200,
          "time": 50.52087375,
          "velocity": 0.6299212598425197
        },
        {
          "duration": 0.10329869374999845,
          "durationTicks": 119,
          "midi": 61,
          "name": "C#4",
          "ticks": 58320,
          "time": 50.625040500000004,
          "velocity": 0.6299212598425197
        },
        {
          "duration": 0.10329869374999845,
          "durationTicks": 119,
          "midi": 65,
          "name": "F4",
          "ticks": 58440,
          "time": 50.72920725,
          "velocity": 0.6299212598425197
        },
        {
          "duration": 0.10329869375000555,
          "durationTicks": 119,
          "midi": 68,
          "name": "G#4",
          "ticks": 58560,
          "time": 50.833374,
          "velocity": 0.9448818897637795
        },
        {
          "duration": 0.10329869374999845,
          "durationTicks": 119,
          "midi": 70,
          "name": "A#4",
          "ticks": 58680,
          "time": 50.937540750000004,
          "velocity": 0.6299212598425197
        },
        {
          "duration": 0.10329869374999845,
          "durationTicks": 119,
          "midi": 73,
          "name": "C#5",
          "ticks": 58800,
          "time": 51.0417075,
          "velocity": 0.6299212598425197
        },
        {
          "duration": 0.10329869375000555,
          "durationTicks": 119,
          "midi": 77,
          "name": "F5",
          "ticks": 58920,
          "time": 51.14587425,
          "velocity": 0.6299212598425197
        },
        {
          "duration": 0.10329869374999845,
          "durationTicks": 119,
          "midi": 80,
          "name": "G#5",
          "ticks": 59040,
          "time": 51.250041,
          "velocity": 0.9448818897637795
        },
        {
          "duration": 0.10329869374999845,
          "durationTicks": 119,
          "midi": 82,
          "name": "A#5",
          "ticks": 59160,
          "time": 51.35420775,
          "velocity": 0.6299212598425197
        },
        {
          "duration": 0.10329869375000555,
          "durationTicks": 119,
          "midi": 85,
          "name": "C#6",
          "ticks": 59280,
          "time": 51.4583745,
          "velocity": 0.6299212598425197
        },
        {
          "duration": 0.10329869374999845,
          "durationTicks": 119,
          "midi": 89,
          "name": "F6",
          "ticks": 59400,
          "time": 51.56254125,
          "velocity": 0.6299212598425197
        },
        {
          "duration": 0.10329869375000555,
          "durationTicks": 119,
          "midi": 92,
          "name": "G#6",
          "ticks": 59520,
          "time": 51.666708,
          "velocity": 0.9448818897637795
        },
        {
          "duration": 0.10329869374999845,
          "durationTicks": 119,
          "midi": 89,
          "name": "F6",
          "ticks": 59640,
          "time": 51.770874750000004,
          "velocity": 0.6299212598425197
        },
        {
          "duration": 0.10329869374999845,
          "durationTicks": 119,
          "midi": 85,
          "name": "C#6",
          "ticks": 59760,
          "time": 51.8750415,
          "velocity": 0.6299212598425197
        },
        {
          "duration": 0.10329869375000555,
          "durationTicks": 119,
          "midi": 82,
          "name": "A#5",
          "ticks": 59880,
          "time": 51.97920825,
          "velocity": 0.6299212598425197
        },
        {
          "duration": 0.10329869374999845,
          "durationTicks": 119,
          "midi": 80,
          "name": "G#5",
          "ticks": 60000,
          "time": 52.083375000000004,
          "velocity": 0.9448818897637795
        },
        {
          "duration": 0.10329869374999845,
          "durationTicks": 119,
          "midi": 77,
          "name": "F5",
          "ticks": 60120,
          "time": 52.18754175,
          "velocity": 0.6299212598425197
        },
        {
          "duration": 0.10329869375000555,
          "durationTicks": 119,
          "midi": 73,
          "name": "C#5",
          "ticks": 60240,
          "time": 52.2917085,
          "velocity": 0.6299212598425197
        },
        {
          "duration": 0.10329869374999845,
          "durationTicks": 119,
          "midi": 70,
          "name": "A#4",
          "ticks": 60360,
          "time": 52.39587525,
          "velocity": 0.6299212598425197
        },
        {
          "duration": 0.10329869374999845,
          "durationTicks": 119,
          "midi": 68,
          "name": "G#4",
          "ticks": 60480,
          "time": 52.500042,
          "velocity": 0.9448818897637795
        },
        {
          "duration": 0.10329869375000555,
          "durationTicks": 119,
          "midi": 65,
          "name": "F4",
          "ticks": 60600,
          "time": 52.60420875,
          "velocity": 0.6299212598425197
        },
        {
          "duration": 0.10329869374999845,
          "durationTicks": 119,
          "midi": 61,
          "name": "C#4",
          "ticks": 60720,
          "time": 52.7083755,
          "velocity": 0.6299212598425197
        },
        {
          "duration": 0.10329869375000555,
          "durationTicks": 119,
          "midi": 58,
          "name": "A#3",
          "ticks": 60840,
          "time": 52.81254225,
          "velocity": 0.6299212598425197
        },
        {
          "duration": 0.10329869374999845,
          "durationTicks": 119,
          "midi": 56,
          "name": "G#3",
          "ticks": 60960,
          "time": 52.916709000000004,
          "velocity": 0.9448818897637795
        },
        {
          "duration": 0.10329869374999845,
          "durationTicks": 119,
          "midi": 53,
          "name": "F3",
          "ticks": 61080,
          "time": 53.02087575,
          "velocity": 0.6299212598425197
        },
        {
          "duration": 0.10329869375000555,
          "durationTicks": 119,
          "midi": 49,
          "name": "C#3",
          "ticks": 61200,
          "time": 53.1250425,
          "velocity": 0.6299212598425197
        },
        {
          "duration": 0.09809035624999751,
          "durationTicks": 113,
          "midi": 46,
          "name": "A#2",
          "ticks": 61320,
          "time": 53.229209250000004,
          "velocity": 0.6299212598425197
        },
        {
          "duration": 0.4166669999999968,
          "durationTicks": 480,
          "midi": 56,
          "name": "G#3",
          "ticks": 61440,
          "time": 53.333376,
          "velocity": 0.9448818897637795
        },
        {
          "duration": 0.1970487687500011,
          "durationTicks": 227,
          "midi": 45,
          "name": "A2",
          "ticks": 61560,
          "time": 53.43754275,
          "velocity": 0.6299212598425197
        },
        {
          "duration": 0.09809035625000462,
          "durationTicks": 113,
          "midi": 49,
          "name": "C#3",
          "ticks": 61680,
          "time": 53.5417095,
          "velocity": 0.6299212598425197
        },
        {
          "duration": 0.09809035625000462,
          "durationTicks": 113,
          "midi": 52,
          "name": "E3",
          "ticks": 61800,
          "time": 53.64587625,
          "velocity": 0.6299212598425197
        },
        {
          "duration": 1.2491329437500056,
          "durationTicks": 1439,
          "midi": 56,
          "name": "G#3",
          "ticks": 61920,
          "time": 53.750043,
          "velocity": 0.9448818897637795
        },
        {
          "duration": 0.09809035625000462,
          "durationTicks": 113,
          "midi": 57,
          "name": "A3",
          "ticks": 62040,
          "time": 53.85420975,
          "velocity": 0.6299212598425197
        },
        {
          "duration": 0.09809035625000462,
          "durationTicks": 113,
          "midi": 61,
          "name": "C#4",
          "ticks": 62160,
          "time": 53.9583765,
          "velocity": 0.6299212598425197
        },
        {
          "duration": 0.09809035625000462,
          "durationTicks": 113,
          "midi": 64,
          "name": "E4",
          "ticks": 62280,
          "time": 54.062543250000004,
          "velocity": 0.6299212598425197
        },
        {
          "duration": 0.10329869374999845,
          "durationTicks": 119,
          "midi": 68,
          "name": "G#4",
          "ticks": 62400,
          "time": 54.16671,
          "velocity": 0.9448818897637795
        },
        {
          "duration": 0.09809035625000462,
          "durationTicks": 113,
          "midi": 69,
          "name": "A4",
          "ticks": 62520,
          "time": 54.27087675,
          "velocity": 0.6299212598425197
        },
        {
          "duration": 0.09809035625000462,
          "durationTicks": 113,
          "midi": 73,
          "name": "C#5",
          "ticks": 62640,
          "time": 54.375043500000004,
          "velocity": 0.6299212598425197
        },
        {
          "duration": 0.09809035625000462,
          "durationTicks": 113,
          "midi": 76,
          "name": "E5",
          "ticks": 62760,
          "time": 54.47921025,
          "velocity": 0.6299212598425197
        },
        {
          "duration": 0.10329869375000555,
          "durationTicks": 119,
          "midi": 80,
          "name": "G#5",
          "ticks": 62880,
          "time": 54.583377,
          "velocity": 0.9448818897637795
        },
        {
          "duration": 0.09809035625000462,
          "durationTicks": 113,
          "midi": 81,
          "name": "A5",
          "ticks": 63000,
          "time": 54.68754375,
          "velocity": 0.6299212598425197
        },
        {
          "duration": 0.09809035625000462,
          "durationTicks": 113,
          "midi": 85,
          "name": "C#6",
          "ticks": 63120,
          "time": 54.7917105,
          "velocity": 0.6299212598425197
        },
        {
          "duration": 0.09809035625001172,
          "durationTicks": 113,
          "midi": 88,
          "name": "E6",
          "ticks": 63240,
          "time": 54.89587725,
          "velocity": 0.6299212598425197
        },
        {
          "duration": 0.10329869374999845,
          "durationTicks": 119,
          "midi": 92,
          "name": "G#6",
          "ticks": 63360,
          "time": 55.000044,
          "velocity": 0.9448818897637795
        },
        {
          "duration": 0.09809035625000462,
          "durationTicks": 113,
          "midi": 88,
          "name": "E6",
          "ticks": 63480,
          "time": 55.10421075,
          "velocity": 0.6299212598425197
        },
        {
          "duration": 0.09809035625000462,
          "durationTicks": 113,
          "midi": 85,
          "name": "C#6",
          "ticks": 63600,
          "time": 55.208377500000005,
          "velocity": 0.6299212598425197
        },
        {
          "duration": 0.09809035625000462,
          "durationTicks": 113,
          "midi": 81,
          "name": "A5",
          "ticks": 63720,
          "time": 55.31254425,
          "velocity": 0.6299212598425197
        },
        {
          "duration": 0.10329869375000555,
          "durationTicks": 119,
          "midi": 80,
          "name": "G#5",
          "ticks": 63840,
          "time": 55.416711,
          "velocity": 0.9448818897637795
        },
        {
          "duration": 0.09809035625000462,
          "durationTicks": 113,
          "midi": 76,
          "name": "E5",
          "ticks": 63960,
          "time": 55.520877750000004,
          "velocity": 0.6299212598425197
        },
        {
          "duration": 0.09809035625000462,
          "durationTicks": 113,
          "midi": 73,
          "name": "C#5",
          "ticks": 64080,
          "time": 55.6250445,
          "velocity": 0.6299212598425197
        },
        {
          "duration": 0.09809035625000462,
          "durationTicks": 113,
          "midi": 69,
          "name": "A4",
          "ticks": 64200,
          "time": 55.72921125,
          "velocity": 0.6299212598425197
        },
        {
          "duration": 0.10329869374999845,
          "durationTicks": 119,
          "midi": 68,
          "name": "G#4",
          "ticks": 64320,
          "time": 55.833378,
          "velocity": 0.9448818897637795
        },
        {
          "duration": 0.09809035625000462,
          "durationTicks": 113,
          "midi": 64,
          "name": "E4",
          "ticks": 64440,
          "time": 55.93754475,
          "velocity": 0.6299212598425197
        },
        {
          "duration": 0.09809035625001172,
          "durationTicks": 113,
          "midi": 61,
          "name": "C#4",
          "ticks": 64560,
          "time": 56.0417115,
          "velocity": 0.6299212598425197
        },
        {
          "duration": 0.09809035625000462,
          "durationTicks": 113,
          "midi": 57,
          "name": "A3",
          "ticks": 64680,
          "time": 56.14587825,
          "velocity": 0.6299212598425197
        },
        {
          "duration": 0.10329869375000555,
          "durationTicks": 119,
          "midi": 56,
          "name": "G#3",
          "ticks": 64800,
          "time": 56.250045,
          "velocity": 0.9448818897637795
        },
        {
          "duration": 0.09809035625000462,
          "durationTicks": 113,
          "midi": 52,
          "name": "E3",
          "ticks": 64920,
          "time": 56.354211750000005,
          "velocity": 0.6299212598425197
        },
        {
          "duration": 0.09809035625000462,
          "durationTicks": 113,
          "midi": 49,
          "name": "C#3",
          "ticks": 65040,
          "time": 56.4583785,
          "velocity": 0.6299212598425197
        },
        {
          "duration": 0.4166669999999968,
          "durationTicks": 480,
          "midi": 56,
          "name": "G#3",
          "ticks": 65280,
          "time": 56.666712000000004,
          "velocity": 0.9448818897637795
        },
        {
          "duration": 0.1970487687500011,
          "durationTicks": 227,
          "midi": 45,
          "name": "A2",
          "ticks": 65400,
          "time": 56.77087875,
          "velocity": 0.6299212598425197
        },
        {
          "duration": 0.09809035625000462,
          "durationTicks": 113,
          "midi": 49,
          "name": "C#3",
          "ticks": 65520,
          "time": 56.8750455,
          "velocity": 0.6299212598425197
        },
        {
          "duration": 0.09809035625000462,
          "durationTicks": 113,
          "midi": 51,
          "name": "D#3",
          "ticks": 65640,
          "time": 56.97921225,
          "velocity": 0.6299212598425197
        },
        {
          "duration": 1.2491329437499985,
          "durationTicks": 1439,
          "midi": 56,
          "name": "G#3",
          "ticks": 65760,
          "time": 57.083379,
          "velocity": 0.9448818897637795
        },
        {
          "duration": 0.09809035625001172,
          "durationTicks": 113,
          "midi": 57,
          "name": "A3",
          "ticks": 65880,
          "time": 57.18754575,
          "velocity": 0.6299212598425197
        },
        {
          "duration": 0.09809035625000462,
          "durationTicks": 113,
          "midi": 61,
          "name": "C#4",
          "ticks": 66000,
          "time": 57.2917125,
          "velocity": 0.6299212598425197
        },
        {
          "duration": 0.09809035625000462,
          "durationTicks": 113,
          "midi": 63,
          "name": "D#4",
          "ticks": 66120,
          "time": 57.39587925,
          "velocity": 0.6299212598425197
        },
        {
          "duration": 0.10329869374999845,
          "durationTicks": 119,
          "midi": 68,
          "name": "G#4",
          "ticks": 66240,
          "time": 57.500046000000005,
          "velocity": 0.9448818897637795
        },
        {
          "duration": 0.09809035625000462,
          "durationTicks": 113,
          "midi": 69,
          "name": "A4",
          "ticks": 66360,
          "time": 57.60421275,
          "velocity": 0.6299212598425197
        },
        {
          "duration": 0.09809035625000462,
          "durationTicks": 113,
          "midi": 73,
          "name": "C#5",
          "ticks": 66480,
          "time": 57.7083795,
          "velocity": 0.6299212598425197
        },
        {
          "duration": 0.09809035625000462,
          "durationTicks": 113,
          "midi": 75,
          "name": "D#5",
          "ticks": 66600,
          "time": 57.812546250000004,
          "velocity": 0.6299212598425197
        },
        {
          "duration": 0.10329869374999845,
          "durationTicks": 119,
          "midi": 80,
          "name": "G#5",
          "ticks": 66720,
          "time": 57.916713,
          "velocity": 0.9448818897637795
        },
        {
          "duration": 0.09809035625000462,
          "durationTicks": 113,
          "midi": 81,
          "name": "A5",
          "ticks": 66840,
          "time": 58.02087975,
          "velocity": 0.6299212598425197
        },
        {
          "duration": 0.09809035625000462,
          "durationTicks": 113,
          "midi": 85,
          "name": "C#6",
          "ticks": 66960,
          "time": 58.1250465,
          "velocity": 0.6299212598425197
        },
        {
          "duration": 0.09809035625000462,
          "durationTicks": 113,
          "midi": 87,
          "name": "D#6",
          "ticks": 67080,
          "time": 58.22921325,
          "velocity": 0.6299212598425197
        },
        {
          "duration": 0.10329869375000555,
          "durationTicks": 119,
          "midi": 92,
          "name": "G#6",
          "ticks": 67200,
          "time": 58.33338,
          "velocity": 0.9448818897637795
        },
        {
          "duration": 0.09809035625000462,
          "durationTicks": 113,
          "midi": 87,
          "name": "D#6",
          "ticks": 67320,
          "time": 58.43754675,
          "velocity": 0.6299212598425197
        },
        {
          "duration": 0.09809035625000462,
          "durationTicks": 113,
          "midi": 85,
          "name": "C#6",
          "ticks": 67440,
          "time": 58.5417135,
          "velocity": 0.6299212598425197
        },
        {
          "duration": 0.09809035625000462,
          "durationTicks": 113,
          "midi": 81,
          "name": "A5",
          "ticks": 67560,
          "time": 58.645880250000005,
          "velocity": 0.6299212598425197
        },
        {
          "duration": 0.10329869374999845,
          "durationTicks": 119,
          "midi": 80,
          "name": "G#5",
          "ticks": 67680,
          "time": 58.750047,
          "velocity": 0.9448818897637795
        },
        {
          "duration": 0.09809035625000462,
          "durationTicks": 113,
          "midi": 75,
          "name": "D#5",
          "ticks": 67800,
          "time": 58.85421375,
          "velocity": 0.6299212598425197
        },
        {
          "duration": 0.09809035625000462,
          "durationTicks": 113,
          "midi": 73,
          "name": "C#5",
          "ticks": 67920,
          "time": 58.958380500000004,
          "velocity": 0.6299212598425197
        },
        {
          "duration": 0.09809035625000462,
          "durationTicks": 113,
          "midi": 69,
          "name": "A4",
          "ticks": 68040,
          "time": 59.06254725,
          "velocity": 0.6299212598425197
        },
        {
          "duration": 0.10329869375000555,
          "durationTicks": 119,
          "midi": 68,
          "name": "G#4",
          "ticks": 68160,
          "time": 59.166714,
          "velocity": 0.9448818897637795
        },
        {
          "duration": 0.09809035625000462,
          "durationTicks": 113,
          "midi": 63,
          "name": "D#4",
          "ticks": 68280,
          "time": 59.27088075,
          "velocity": 0.6299212598425197
        },
        {
          "duration": 0.09809035625000462,
          "durationTicks": 113,
          "midi": 61,
          "name": "C#4",
          "ticks": 68400,
          "time": 59.3750475,
          "velocity": 0.6299212598425197
        },
        {
          "duration": 0.09809035625001172,
          "durationTicks": 113,
          "midi": 57,
          "name": "A3",
          "ticks": 68520,
          "time": 59.47921425,
          "velocity": 0.6299212598425197
        },
        {
          "duration": 0.10329869374999845,
          "durationTicks": 119,
          "midi": 56,
          "name": "G#3",
          "ticks": 68640,
          "time": 59.583381,
          "velocity": 0.9448818897637795
        },
        {
          "duration": 0.09809035625000462,
          "durationTicks": 113,
          "midi": 51,
          "name": "D#3",
          "ticks": 68760,
          "time": 59.68754775,
          "velocity": 0.6299212598425197
        },
        {
          "duration": 0.09809035625000462,
          "durationTicks": 113,
          "midi": 49,
          "name": "C#3",
          "ticks": 68880,
          "time": 59.791714500000005,
          "velocity": 0.6299212598425197
        },
        {
          "duration": 0.4166670000000039,
          "durationTicks": 480,
          "midi": 54,
          "name": "F#3",
          "ticks": 69120,
          "time": 60.000048,
          "velocity": 0.9448818897637795
        },
        {
          "duration": 0.197048768749994,
          "durationTicks": 227,
          "midi": 44,
          "name": "G#2",
          "ticks": 69240,
          "time": 60.104214750000004,
          "velocity": 0.6299212598425197
        },
        {
          "duration": 0.09809035625000462,
          "durationTicks": 113,
          "midi": 47,
          "name": "B2",
          "ticks": 69360,
          "time": 60.2083815,
          "velocity": 0.6299212598425197
        },
        {
          "duration": 0.09809035625000462,
          "durationTicks": 113,
          "midi": 51,
          "name": "D#3",
          "ticks": 69480,
          "time": 60.31254825,
          "velocity": 0.6299212598425197
        },
        {
          "duration": 1.2491329437499985,
          "durationTicks": 1439,
          "midi": 54,
          "name": "F#3",
          "ticks": 69600,
          "time": 60.416715,
          "velocity": 0.9448818897637795
        },
        {
          "duration": 0.09809035625000462,
          "durationTicks": 113,
          "midi": 56,
          "name": "G#3",
          "ticks": 69720,
          "time": 60.52088175,
          "velocity": 0.6299212598425197
        },
        {
          "duration": 0.09809035625001172,
          "durationTicks": 113,
          "midi": 59,
          "name": "B3",
          "ticks": 69840,
          "time": 60.6250485,
          "velocity": 0.6299212598425197
        },
        {
          "duration": 0.09809035625000462,
          "durationTicks": 113,
          "midi": 63,
          "name": "D#4",
          "ticks": 69960,
          "time": 60.72921525,
          "velocity": 0.6299212598425197
        },
        {
          "duration": 0.10329869374999845,
          "durationTicks": 119,
          "midi": 66,
          "name": "F#4",
          "ticks": 70080,
          "time": 60.833382,
          "velocity": 0.9448818897637795
        },
        {
          "duration": 0.09809035625000462,
          "durationTicks": 113,
          "midi": 68,
          "name": "G#4",
          "ticks": 70200,
          "time": 60.937548750000005,
          "velocity": 0.6299212598425197
        },
        {
          "duration": 0.09809035625000462,
          "durationTicks": 113,
          "midi": 71,
          "name": "B4",
          "ticks": 70320,
          "time": 61.0417155,
          "velocity": 0.6299212598425197
        },
        {
          "duration": 0.09809035625000462,
          "durationTicks": 113,
          "midi": 75,
          "name": "D#5",
          "ticks": 70440,
          "time": 61.14588225,
          "velocity": 0.6299212598425197
        },
        {
          "duration": 0.10329869374999845,
          "durationTicks": 119,
          "midi": 78,
          "name": "F#5",
          "ticks": 70560,
          "time": 61.250049000000004,
          "velocity": 0.9448818897637795
        },
        {
          "duration": 0.09809035625000462,
          "durationTicks": 113,
          "midi": 80,
          "name": "G#5",
          "ticks": 70680,
          "time": 61.35421575,
          "velocity": 0.6299212598425197
        },
        {
          "duration": 0.09809035625000462,
          "durationTicks": 113,
          "midi": 83,
          "name": "B5",
          "ticks": 70800,
          "time": 61.4583825,
          "velocity": 0.6299212598425197
        },
        {
          "duration": 0.09809035625000462,
          "durationTicks": 113,
          "midi": 87,
          "name": "D#6",
          "ticks": 70920,
          "time": 61.562549250000004,
          "velocity": 0.6299212598425197
        },
        {
          "duration": 0.10329869374999845,
          "durationTicks": 119,
          "midi": 90,
          "name": "F#6",
          "ticks": 71040,
          "time": 61.666716,
          "velocity": 0.9448818897637795
        },
        {
          "duration": 0.09809035625001172,
          "durationTicks": 113,
          "midi": 87,
          "name": "D#6",
          "ticks": 71160,
          "time": 61.77088275,
          "velocity": 0.6299212598425197
        },
        {
          "duration": 0.09809035625000462,
          "durationTicks": 113,
          "midi": 83,
          "name": "B5",
          "ticks": 71280,
          "time": 61.8750495,
          "velocity": 0.6299212598425197
        },
        {
          "duration": 0.09809035625000462,
          "durationTicks": 113,
          "midi": 80,
          "name": "G#5",
          "ticks": 71400,
          "time": 61.97921625,
          "velocity": 0.6299212598425197
        },
        {
          "duration": 0.10329869374999845,
          "durationTicks": 119,
          "midi": 78,
          "name": "F#5",
          "ticks": 71520,
          "time": 62.083383000000005,
          "velocity": 0.9448818897637795
        },
        {
          "duration": 0.09809035625000462,
          "durationTicks": 113,
          "midi": 75,
          "name": "D#5",
          "ticks": 71640,
          "time": 62.18754975,
          "velocity": 0.6299212598425197
        },
        {
          "duration": 0.09809035625000462,
          "durationTicks": 113,
          "midi": 71,
          "name": "B4",
          "ticks": 71760,
          "time": 62.2917165,
          "velocity": 0.6299212598425197
        },
        {
          "duration": 0.09809035625000462,
          "durationTicks": 113,
          "midi": 68,
          "name": "G#4",
          "ticks": 71880,
          "time": 62.395883250000004,
          "velocity": 0.6299212598425197
        },
        {
          "duration": 0.10329869374999845,
          "durationTicks": 119,
          "midi": 66,
          "name": "F#4",
          "ticks": 72000,
          "time": 62.50005,
          "velocity": 0.9448818897637795
        },
        {
          "duration": 0.09809035625000462,
          "durationTicks": 113,
          "midi": 63,
          "name": "D#4",
          "ticks": 72120,
          "time": 62.60421675,
          "velocity": 0.6299212598425197
        },
        {
          "duration": 0.09809035625000462,
          "durationTicks": 113,
          "midi": 59,
          "name": "B3",
          "ticks": 72240,
          "time": 62.708383500000004,
          "velocity": 0.6299212598425197
        },
        {
          "duration": 0.09809035625000462,
          "durationTicks": 113,
          "midi": 56,
          "name": "G#3",
          "ticks": 72360,
          "time": 62.81255025,
          "velocity": 0.6299212598425197
        },
        {
          "duration": 0.10329869375000555,
          "durationTicks": 119,
          "midi": 54,
          "name": "F#3",
          "ticks": 72480,
          "time": 62.916717,
          "velocity": 0.9448818897637795
        },
        {
          "duration": 0.09809035625000462,
          "durationTicks": 113,
          "midi": 51,
          "name": "D#3",
          "ticks": 72600,
          "time": 63.02088375,
          "velocity": 0.6299212598425197
        },
        {
          "duration": 0.09809035625000462,
          "durationTicks": 113,
          "midi": 47,
          "name": "B2",
          "ticks": 72720,
          "time": 63.1250505,
          "velocity": 0.6299212598425197
        },
        {
          "duration": 0.4166669999999968,
          "durationTicks": 480,
          "midi": 54,
          "name": "F#3",
          "ticks": 72960,
          "time": 63.333384,
          "velocity": 0.9448818897637795
        },
        {
          "duration": 0.1970487687500011,
          "durationTicks": 227,
          "midi": 44,
          "name": "G#2",
          "ticks": 73080,
          "time": 63.43755075,
          "velocity": 0.6299212598425197
        },
        {
          "duration": 0.09809035625000462,
          "durationTicks": 113,
          "midi": 47,
          "name": "B2",
          "ticks": 73200,
          "time": 63.541717500000004,
          "velocity": 0.6299212598425197
        },
        {
          "duration": 0.09809035625000462,
          "durationTicks": 113,
          "midi": 51,
          "name": "D#3",
          "ticks": 73320,
          "time": 63.64588425,
          "velocity": 0.6299212598425197
        },
        {
          "duration": 1.2491329437499985,
          "durationTicks": 1439,
          "midi": 54,
          "name": "F#3",
          "ticks": 73440,
          "time": 63.750051,
          "velocity": 0.9448818897637795
        },
        {
          "duration": 0.09809035625000462,
          "durationTicks": 113,
          "midi": 56,
          "name": "G#3",
          "ticks": 73560,
          "time": 63.854217750000004,
          "velocity": 0.6299212598425197
        },
        {
          "duration": 0.09809035625000462,
          "durationTicks": 113,
          "midi": 59,
          "name": "B3",
          "ticks": 73680,
          "time": 63.9583845,
          "velocity": 0.6299212598425197
        },
        {
          "duration": 0.09809035625001172,
          "durationTicks": 113,
          "midi": 63,
          "name": "D#4",
          "ticks": 73800,
          "time": 64.06255125,
          "velocity": 0.6299212598425197
        },
        {
          "duration": 0.10329869375000555,
          "durationTicks": 119,
          "midi": 66,
          "name": "F#4",
          "ticks": 73920,
          "time": 64.166718,
          "velocity": 0.9448818897637795
        },
        {
          "duration": 0.09809035624999751,
          "durationTicks": 113,
          "midi": 68,
          "name": "G#4",
          "ticks": 74040,
          "time": 64.27088475000001,
          "velocity": 0.6299212598425197
        },
        {
          "duration": 0.09809035625001172,
          "durationTicks": 113,
          "midi": 71,
          "name": "B4",
          "ticks": 74160,
          "time": 64.3750515,
          "velocity": 0.6299212598425197
        },
        {
          "duration": 0.09809035624999751,
          "durationTicks": 113,
          "midi": 75,
          "name": "D#5",
          "ticks": 74280,
          "time": 64.47921825,
          "velocity": 0.6299212598425197
        },
        {
          "duration": 0.10329869374999134,
          "durationTicks": 119,
          "midi": 78,
          "name": "F#5",
          "ticks": 74400,
          "time": 64.583385,
          "velocity": 0.9448818897637795
        },
        {
          "duration": 0.09809035625001172,
          "durationTicks": 113,
          "midi": 80,
          "name": "G#5",
          "ticks": 74520,
          "time": 64.68755175,
          "velocity": 0.6299212598425197
        },
        {
          "duration": 0.09809035625001172,
          "durationTicks": 113,
          "midi": 83,
          "name": "B5",
          "ticks": 74640,
          "time": 64.7917185,
          "velocity": 0.6299212598425197
        },
        {
          "duration": 0.09809035624999751,
          "durationTicks": 113,
          "midi": 87,
          "name": "D#6",
          "ticks": 74760,
          "time": 64.89588525,
          "velocity": 0.6299212598425197
        },
        {
          "duration": 0.10329869375000555,
          "durationTicks": 119,
          "midi": 90,
          "name": "F#6",
          "ticks": 74880,
          "time": 65.000052,
          "velocity": 0.9448818897637795
        },
        {
          "duration": 0.09809035625001172,
          "durationTicks": 113,
          "midi": 87,
          "name": "D#6",
          "ticks": 75000,
          "time": 65.10421875,
          "velocity": 0.6299212598425197
        },
        {
          "duration": 0.09809035624999751,
          "durationTicks": 113,
          "midi": 83,
          "name": "B5",
          "ticks": 75120,
          "time": 65.2083855,
          "velocity": 0.6299212598425197
        },
        {
          "duration": 0.09809035625001172,
          "durationTicks": 113,
          "midi": 80,
          "name": "G#5",
          "ticks": 75240,
          "time": 65.31255225,
          "velocity": 0.6299212598425197
        },
        {
          "duration": 0.10329869375000555,
          "durationTicks": 119,
          "midi": 78,
          "name": "F#5",
          "ticks": 75360,
          "time": 65.416719,
          "velocity": 0.9448818897637795
        },
        {
          "duration": 0.09809035624999751,
          "durationTicks": 113,
          "midi": 75,
          "name": "D#5",
          "ticks": 75480,
          "time": 65.52088575,
          "velocity": 0.6299212598425197
        },
        {
          "duration": 0.09809035625001172,
          "durationTicks": 113,
          "midi": 71,
          "name": "B4",
          "ticks": 75600,
          "time": 65.6250525,
          "velocity": 0.6299212598425197
        },
        {
          "duration": 0.09809035625001172,
          "durationTicks": 113,
          "midi": 68,
          "name": "G#4",
          "ticks": 75720,
          "time": 65.72921925,
          "velocity": 0.6299212598425197
        },
        {
          "duration": 0.10329869374999134,
          "durationTicks": 119,
          "midi": 66,
          "name": "F#4",
          "ticks": 75840,
          "time": 65.833386,
          "velocity": 0.9448818897637795
        },
        {
          "duration": 0.09809035625001172,
          "durationTicks": 113,
          "midi": 63,
          "name": "D#4",
          "ticks": 75960,
          "time": 65.93755275,
          "velocity": 0.6299212598425197
        },
        {
          "duration": 0.09809035625001172,
          "durationTicks": 113,
          "midi": 59,
          "name": "B3",
          "ticks": 76080,
          "time": 66.0417195,
          "velocity": 0.6299212598425197
        },
        {
          "duration": 0.09809035624999751,
          "durationTicks": 113,
          "midi": 56,
          "name": "G#3",
          "ticks": 76200,
          "time": 66.14588625,
          "velocity": 0.6299212598425197
        },
        {
          "duration": 0.10329869374999134,
          "durationTicks": 119,
          "midi": 54,
          "name": "F#3",
          "ticks": 76320,
          "time": 66.25005300000001,
          "velocity": 0.9448818897637795
        },
        {
          "duration": 0.09809035625001172,
          "durationTicks": 113,
          "midi": 51,
          "name": "D#3",
          "ticks": 76440,
          "time": 66.35421975,
          "velocity": 0.6299212598425197
        },
        {
          "duration": 0.09809035624999751,
          "durationTicks": 113,
          "midi": 47,
          "name": "B2",
          "ticks": 76560,
          "time": 66.4583865,
          "velocity": 0.6299212598425197
        },
        {
          "duration": 0.4166670000000039,
          "durationTicks": 480,
          "midi": 54,
          "name": "F#3",
          "ticks": 76800,
          "time": 66.66672,
          "velocity": 0.9448818897637795
        },
        {
          "duration": 0.197048768749994,
          "durationTicks": 227,
          "midi": 43,
          "name": "G2",
          "ticks": 76920,
          "time": 66.77088675,
          "velocity": 0.6299212598425197
        },
        {
          "duration": 0.09809035624999751,
          "durationTicks": 113,
          "midi": 47,
          "name": "B2",
          "ticks": 77040,
          "time": 66.8750535,
          "velocity": 0.6299212598425197
        },
        {
          "duration": 0.09809035625001172,
          "durationTicks": 113,
          "midi": 50,
          "name": "D3",
          "ticks": 77160,
          "time": 66.97922025,
          "velocity": 0.6299212598425197
        },
        {
          "duration": 1.2491329437499985,
          "durationTicks": 1439,
          "midi": 54,
          "name": "F#3",
          "ticks": 77280,
          "time": 67.083387,
          "velocity": 0.9448818897637795
        },
        {
          "duration": 0.09809035624999751,
          "durationTicks": 113,
          "midi": 55,
          "name": "G3",
          "ticks": 77400,
          "time": 67.18755375,
          "velocity": 0.6299212598425197
        },
        {
          "duration": 0.09809035625001172,
          "durationTicks": 113,
          "midi": 59,
          "name": "B3",
          "ticks": 77520,
          "time": 67.2917205,
          "velocity": 0.6299212598425197
        },
        {
          "duration": 0.09809035625001172,
          "durationTicks": 113,
          "midi": 62,
          "name": "D4",
          "ticks": 77640,
          "time": 67.39588725,
          "velocity": 0.6299212598425197
        },
        {
          "duration": 0.10329869374999134,
          "durationTicks": 119,
          "midi": 66,
          "name": "F#4",
          "ticks": 77760,
          "time": 67.500054,
          "velocity": 0.9448818897637795
        },
        {
          "duration": 0.09809035625001172,
          "durationTicks": 113,
          "midi": 67,
          "name": "G4",
          "ticks": 77880,
          "time": 67.60422075,
          "velocity": 0.6299212598425197
        },
        {
          "duration": 0.09809035625001172,
          "durationTicks": 113,
          "midi": 71,
          "name": "B4",
          "ticks": 78000,
          "time": 67.7083875,
          "velocity": 0.6299212598425197
        },
        {
          "duration": 0.09809035624999751,
          "durationTicks": 113,
          "midi": 74,
          "name": "D5",
          "ticks": 78120,
          "time": 67.81255425,
          "velocity": 0.6299212598425197
        },
        {
          "duration": 0.10329869375000555,
          "durationTicks": 119,
          "midi": 78,
          "name": "F#5",
          "ticks": 78240,
          "time": 67.916721,
          "velocity": 0.9448818897637795
        },
        {
          "duration": 0.09809035625001172,
          "durationTicks": 113,
          "midi": 79,
          "name": "G5",
          "ticks": 78360,
          "time": 68.02088775,
          "velocity": 0.6299212598425197
        },
        {
          "duration": 0.09809035624999751,
          "durationTicks": 113,
          "midi": 83,
          "name": "B5",
          "ticks": 78480,
          "time": 68.1250545,
          "velocity": 0.6299212598425197
        },
        {
          "duration": 0.09809035625001172,
          "durationTicks": 113,
          "midi": 86,
          "name": "D6",
          "ticks": 78600,
          "time": 68.22922125,
          "velocity": 0.6299212598425197
        },
        {
          "duration": 0.10329869375000555,
          "durationTicks": 119,
          "midi": 90,
          "name": "F#6",
          "ticks": 78720,
          "time": 68.333388,
          "velocity": 0.9448818897637795
        },
        {
          "duration": 0.09809035624999751,
          "durationTicks": 113,
          "midi": 86,
          "name": "D6",
          "ticks": 78840,
          "time": 68.43755475,
          "velocity": 0.6299212598425197
        },
        {
          "duration": 0.09809035624999751,
          "durationTicks": 113,
          "midi": 83,
          "name": "B5",
          "ticks": 78960,
          "time": 68.54172150000001,
          "velocity": 0.6299212598425197
        },
        {
          "duration": 0.09809035625001172,
          "durationTicks": 113,
          "midi": 79,
          "name": "G5",
          "ticks": 79080,
          "time": 68.64588825,
          "velocity": 0.6299212598425197
        },
        {
          "duration": 0.10329869375000555,
          "durationTicks": 119,
          "midi": 78,
          "name": "F#5",
          "ticks": 79200,
          "time": 68.750055,
          "velocity": 0.9448818897637795
        },
        {
          "duration": 0.09809035624999751,
          "durationTicks": 113,
          "midi": 74,
          "name": "D5",
          "ticks": 79320,
          "time": 68.85422175000001,
          "velocity": 0.6299212598425197
        },
        {
          "duration": 0.09809035625001172,
          "durationTicks": 113,
          "midi": 71,
          "name": "B4",
          "ticks": 79440,
          "time": 68.9583885,
          "velocity": 0.6299212598425197
        },
        {
          "duration": 0.09809035624999751,
          "durationTicks": 113,
          "midi": 67,
          "name": "G4",
          "ticks": 79560,
          "time": 69.06255525,
          "velocity": 0.6299212598425197
        },
        {
          "duration": 0.10329869374999134,
          "durationTicks": 119,
          "midi": 66,
          "name": "F#4",
          "ticks": 79680,
          "time": 69.16672200000001,
          "velocity": 0.9448818897637795
        },
        {
          "duration": 0.09809035625001172,
          "durationTicks": 113,
          "midi": 62,
          "name": "D4",
          "ticks": 79800,
          "time": 69.27088875,
          "velocity": 0.6299212598425197
        },
        {
          "duration": 0.09809035625001172,
          "durationTicks": 113,
          "midi": 59,
          "name": "B3",
          "ticks": 79920,
          "time": 69.3750555,
          "velocity": 0.6299212598425197
        },
        {
          "duration": 0.09809035624999751,
          "durationTicks": 113,
          "midi": 55,
          "name": "G3",
          "ticks": 80040,
          "time": 69.47922225,
          "velocity": 0.6299212598425197
        },
        {
          "duration": 0.10329869375000555,
          "durationTicks": 119,
          "midi": 54,
          "name": "F#3",
          "ticks": 80160,
          "time": 69.583389,
          "velocity": 0.9448818897637795
        },
        {
          "duration": 0.09809035625001172,
          "durationTicks": 113,
          "midi": 50,
          "name": "D3",
          "ticks": 80280,
          "time": 69.68755575,
          "velocity": 0.6299212598425197
        },
        {
          "duration": 0.09809035624999751,
          "durationTicks": 113,
          "midi": 47,
          "name": "B2",
          "ticks": 80400,
          "time": 69.7917225,
          "velocity": 0.6299212598425197
        },
        {
          "duration": 0.4166670000000039,
          "durationTicks": 480,
          "midi": 54,
          "name": "F#3",
          "ticks": 80640,
          "time": 70.000056,
          "velocity": 0.9448818897637795
        },
        {
          "duration": 0.197048768749994,
          "durationTicks": 227,
          "midi": 43,
          "name": "G2",
          "ticks": 80760,
          "time": 70.10422275,
          "velocity": 0.6299212598425197
        },
        {
          "duration": 0.09809035625001172,
          "durationTicks": 113,
          "midi": 47,
          "name": "B2",
          "ticks": 80880,
          "time": 70.2083895,
          "velocity": 0.6299212598425197
        },
        {
          "duration": 0.09809035625001172,
          "durationTicks": 113,
          "midi": 49,
          "name": "C#3",
          "ticks": 81000,
          "time": 70.31255625,
          "velocity": 0.6299212598425197
        },
        {
          "duration": 1.2491329437499985,
          "durationTicks": 1439,
          "midi": 54,
          "name": "F#3",
          "ticks": 81120,
          "time": 70.416723,
          "velocity": 0.9448818897637795
        },
        {
          "duration": 0.09809035625001172,
          "durationTicks": 113,
          "midi": 55,
          "name": "G3",
          "ticks": 81240,
          "time": 70.52088975,
          "velocity": 0.6299212598425197
        },
        {
          "duration": 0.09809035625001172,
          "durationTicks": 113,
          "midi": 59,
          "name": "B3",
          "ticks": 81360,
          "time": 70.6250565,
          "velocity": 0.6299212598425197
        },
        {
          "duration": 0.09809035624999751,
          "durationTicks": 113,
          "midi": 61,
          "name": "C#4",
          "ticks": 81480,
          "time": 70.72922325,
          "velocity": 0.6299212598425197
        },
        {
          "duration": 0.10329869374999134,
          "durationTicks": 119,
          "midi": 66,
          "name": "F#4",
          "ticks": 81600,
          "time": 70.83339000000001,
          "velocity": 0.9448818897637795
        },
        {
          "duration": 0.09809035625001172,
          "durationTicks": 113,
          "midi": 67,
          "name": "G4",
          "ticks": 81720,
          "time": 70.93755675,
          "velocity": 0.6299212598425197
        },
        {
          "duration": 0.09809035624999751,
          "durationTicks": 113,
          "midi": 71,
          "name": "B4",
          "ticks": 81840,
          "time": 71.0417235,
          "velocity": 0.6299212598425197
        },
        {
          "duration": 0.09809035624999751,
          "durationTicks": 113,
          "midi": 73,
          "name": "C#5",
          "ticks": 81960,
          "time": 71.14589025000001,
          "velocity": 0.6299212598425197
        },
        {
          "duration": 0.10329869375000555,
          "durationTicks": 119,
          "midi": 78,
          "name": "F#5",
          "ticks": 82080,
          "time": 71.250057,
          "velocity": 0.9448818897637795
        },
        {
          "duration": 0.09809035624999751,
          "durationTicks": 113,
          "midi": 79,
          "name": "G5",
          "ticks": 82200,
          "time": 71.35422375,
          "velocity": 0.6299212598425197
        },
        {
          "duration": 0.09809035624999751,
          "durationTicks": 113,
          "midi": 83,
          "name": "B5",
          "ticks": 82320,
          "time": 71.45839050000001,
          "velocity": 0.6299212598425197
        },
        {
          "duration": 0.09809035625001172,
          "durationTicks": 113,
          "midi": 85,
          "name": "C#6",
          "ticks": 82440,
          "time": 71.56255725,
          "velocity": 0.6299212598425197
        },
        {
          "duration": 0.10329869375000555,
          "durationTicks": 119,
          "midi": 90,
          "name": "F#6",
          "ticks": 82560,
          "time": 71.666724,
          "velocity": 0.9448818897637795
        },
        {
          "duration": 0.09809035624999751,
          "durationTicks": 113,
          "midi": 85,
          "name": "C#6",
          "ticks": 82680,
          "time": 71.77089075,
          "velocity": 0.6299212598425197
        },
        {
          "duration": 0.09809035625001172,
          "durationTicks": 113,
          "midi": 83,
          "name": "B5",
          "ticks": 82800,
          "time": 71.8750575,
          "velocity": 0.6299212598425197
        },
        {
          "duration": 0.09809035625001172,
          "durationTicks": 113,
          "midi": 79,
          "name": "G5",
          "ticks": 82920,
          "time": 71.97922425,
          "velocity": 0.6299212598425197
        },
        {
          "duration": 0.10329869374999134,
          "durationTicks": 119,
          "midi": 78,
          "name": "F#5",
          "ticks": 83040,
          "time": 72.083391,
          "velocity": 0.9448818897637795
        },
        {
          "duration": 0.09809035625001172,
          "durationTicks": 113,
          "midi": 73,
          "name": "C#5",
          "ticks": 83160,
          "time": 72.18755775,
          "velocity": 0.6299212598425197
        },
        {
          "duration": 0.09809035625001172,
          "durationTicks": 113,
          "midi": 71,
          "name": "B4",
          "ticks": 83280,
          "time": 72.2917245,
          "velocity": 0.6299212598425197
        },
        {
          "duration": 0.09809035624999751,
          "durationTicks": 113,
          "midi": 67,
          "name": "G4",
          "ticks": 83400,
          "time": 72.39589125,
          "velocity": 0.6299212598425197
        },
        {
          "duration": 0.10329869375000555,
          "durationTicks": 119,
          "midi": 66,
          "name": "F#4",
          "ticks": 83520,
          "time": 72.500058,
          "velocity": 0.9448818897637795
        },
        {
          "duration": 0.09809035625001172,
          "durationTicks": 113,
          "midi": 61,
          "name": "C#4",
          "ticks": 83640,
          "time": 72.60422475,
          "velocity": 0.6299212598425197
        },
        {
          "duration": 0.09809035624999751,
          "durationTicks": 113,
          "midi": 59,
          "name": "B3",
          "ticks": 83760,
          "time": 72.7083915,
          "velocity": 0.6299212598425197
        },
        {
          "duration": 0.09809035625001172,
          "durationTicks": 113,
          "midi": 55,
          "name": "G3",
          "ticks": 83880,
          "time": 72.81255825,
          "velocity": 0.6299212598425197
        },
        {
          "duration": 0.10329869375000555,
          "durationTicks": 119,
          "midi": 54,
          "name": "F#3",
          "ticks": 84000,
          "time": 72.916725,
          "velocity": 0.9448818897637795
        },
        {
          "duration": 0.09809035624999751,
          "durationTicks": 113,
          "midi": 49,
          "name": "C#3",
          "ticks": 84120,
          "time": 73.02089175,
          "velocity": 0.6299212598425197
        },
        {
          "duration": 0.09809035624999751,
          "durationTicks": 113,
          "midi": 47,
          "name": "B2",
          "ticks": 84240,
          "time": 73.12505850000001,
          "velocity": 0.6299212598425197
        },
        {
          "duration": 0.4166670000000039,
          "durationTicks": 480,
          "midi": 52,
          "name": "E3",
          "ticks": 84480,
          "time": 73.333392,
          "velocity": 0.9448818897637795
        },
        {
          "duration": 0.197048768749994,
          "durationTicks": 227,
          "midi": 42,
          "name": "F#2",
          "ticks": 84600,
          "time": 73.43755875000001,
          "velocity": 0.6299212598425197
        },
        {
          "duration": 0.09809035625001172,
          "durationTicks": 113,
          "midi": 45,
          "name": "A2",
          "ticks": 84720,
          "time": 73.5417255,
          "velocity": 0.6299212598425197
        },
        {
          "duration": 0.09809035624999751,
          "durationTicks": 113,
          "midi": 49,
          "name": "C#3",
          "ticks": 84840,
          "time": 73.64589225,
          "velocity": 0.6299212598425197
        },
        {
          "duration": 1.2491329437499985,
          "durationTicks": 1439,
          "midi": 52,
          "name": "E3",
          "ticks": 84960,
          "time": 73.75005900000001,
          "velocity": 0.9448818897637795
        },
        {
          "duration": 0.09809035625001172,
          "durationTicks": 113,
          "midi": 54,
          "name": "F#3",
          "ticks": 85080,
          "time": 73.85422575,
          "velocity": 0.6299212598425197
        },
        {
          "duration": 0.09809035625001172,
          "durationTicks": 113,
          "midi": 57,
          "name": "A3",
          "ticks": 85200,
          "time": 73.9583925,
          "velocity": 0.6299212598425197
        },
        {
          "duration": 0.09809035624999751,
          "durationTicks": 113,
          "midi": 61,
          "name": "C#4",
          "ticks": 85320,
          "time": 74.06255925,
          "velocity": 0.6299212598425197
        },
        {
          "duration": 0.10329869375000555,
          "durationTicks": 119,
          "midi": 64,
          "name": "E4",
          "ticks": 85440,
          "time": 74.166726,
          "velocity": 0.9448818897637795
        },
        {
          "duration": 0.09809035625001172,
          "durationTicks": 113,
          "midi": 66,
          "name": "F#4",
          "ticks": 85560,
          "time": 74.27089275,
          "velocity": 0.6299212598425197
        },
        {
          "duration": 0.09809035624999751,
          "durationTicks": 113,
          "midi": 69,
          "name": "A4",
          "ticks": 85680,
          "time": 74.3750595,
          "velocity": 0.6299212598425197
        },
        {
          "duration": 0.09809035625001172,
          "durationTicks": 113,
          "midi": 73,
          "name": "C#5",
          "ticks": 85800,
          "time": 74.47922625,
          "velocity": 0.6299212598425197
        },
        {
          "duration": 0.10329869375000555,
          "durationTicks": 119,
          "midi": 76,
          "name": "E5",
          "ticks": 85920,
          "time": 74.583393,
          "velocity": 0.9448818897637795
        },
        {
          "duration": 0.09809035624999751,
          "durationTicks": 113,
          "midi": 78,
          "name": "F#5",
          "ticks": 86040,
          "time": 74.68755975,
          "velocity": 0.6299212598425197
        },
        {
          "duration": 0.09809035625001172,
          "durationTicks": 113,
          "midi": 81,
          "name": "A5",
          "ticks": 86160,
          "time": 74.7917265,
          "velocity": 0.6299212598425197
        },
        {
          "duration": 0.09809035625001172,
          "durationTicks": 113,
          "midi": 85,
          "name": "C#6",
          "ticks": 86280,
          "time": 74.89589325,
          "velocity": 0.6299212598425197
        },
        {
          "duration": 0.10329869374999134,
          "durationTicks": 119,
          "midi": 88,
          "name": "E6",
          "ticks": 86400,
          "time": 75.00006,
          "velocity": 0.9448818897637795
        },
        {
          "duration": 0.09809035625001172,
          "durationTicks": 113,
          "midi": 85,
          "name": "C#6",
          "ticks": 86520,
          "time": 75.10422675,
          "velocity": 0.6299212598425197
        },
        {
          "duration": 0.09809035625001172,
          "durationTicks": 113,
          "midi": 81,
          "name": "A5",
          "ticks": 86640,
          "time": 75.2083935,
          "velocity": 0.6299212598425197
        },
        {
          "duration": 0.09809035624999751,
          "durationTicks": 113,
          "midi": 78,
          "name": "F#5",
          "ticks": 86760,
          "time": 75.31256025,
          "velocity": 0.6299212598425197
        },
        {
          "duration": 0.10329869374999134,
          "durationTicks": 119,
          "midi": 76,
          "name": "E5",
          "ticks": 86880,
          "time": 75.41672700000001,
          "velocity": 0.9448818897637795
        },
        {
          "duration": 0.09809035625001172,
          "durationTicks": 113,
          "midi": 73,
          "name": "C#5",
          "ticks": 87000,
          "time": 75.52089375,
          "velocity": 0.6299212598425197
        },
        {
          "duration": 0.09809035624999751,
          "durationTicks": 113,
          "midi": 69,
          "name": "A4",
          "ticks": 87120,
          "time": 75.6250605,
          "velocity": 0.6299212598425197
        },
        {
          "duration": 0.09809035624999751,
          "durationTicks": 113,
          "midi": 66,
          "name": "F#4",
          "ticks": 87240,
          "time": 75.72922725000001,
          "velocity": 0.6299212598425197
        },
        {
          "duration": 0.10329869375000555,
          "durationTicks": 119,
          "midi": 64,
          "name": "E4",
          "ticks": 87360,
          "time": 75.833394,
          "velocity": 0.9448818897637795
        },
        {
          "duration": 0.09809035624999751,
          "durationTicks": 113,
          "midi": 61,
          "name": "C#4",
          "ticks": 87480,
          "time": 75.93756075,
          "velocity": 0.6299212598425197
        },
        {
          "duration": 0.09809035624999751,
          "durationTicks": 113,
          "midi": 57,
          "name": "A3",
          "ticks": 87600,
          "time": 76.04172750000001,
          "velocity": 0.6299212598425197
        },
        {
          "duration": 0.09809035625001172,
          "durationTicks": 113,
          "midi": 54,
          "name": "F#3",
          "ticks": 87720,
          "time": 76.14589425,
          "velocity": 0.6299212598425197
        },
        {
          "duration": 0.10329869375000555,
          "durationTicks": 119,
          "midi": 52,
          "name": "E3",
          "ticks": 87840,
          "time": 76.250061,
          "velocity": 0.9448818897637795
        },
        {
          "duration": 0.09809035624999751,
          "durationTicks": 113,
          "midi": 49,
          "name": "C#3",
          "ticks": 87960,
          "time": 76.35422775,
          "velocity": 0.6299212598425197
        },
        {
          "duration": 0.09809035625001172,
          "durationTicks": 113,
          "midi": 45,
          "name": "A2",
          "ticks": 88080,
          "time": 76.4583945,
          "velocity": 0.6299212598425197
        },
        {
          "duration": 0.4166669999999897,
          "durationTicks": 480,
          "midi": 52,
          "name": "E3",
          "ticks": 88320,
          "time": 76.666728,
          "velocity": 0.9448818897637795
        },
        {
          "duration": 0.1970487687500082,
          "durationTicks": 227,
          "midi": 42,
          "name": "F#2",
          "ticks": 88440,
          "time": 76.77089475,
          "velocity": 0.6299212598425197
        },
        {
          "duration": 0.09809035625001172,
          "durationTicks": 113,
          "midi": 45,
          "name": "A2",
          "ticks": 88560,
          "time": 76.8750615,
          "velocity": 0.6299212598425197
        },
        {
          "duration": 0.09809035624999751,
          "durationTicks": 113,
          "midi": 49,
          "name": "C#3",
          "ticks": 88680,
          "time": 76.97922825,
          "velocity": 0.6299212598425197
        },
        {
          "duration": 1.2491329437500127,
          "durationTicks": 1439,
          "midi": 52,
          "name": "E3",
          "ticks": 88800,
          "time": 77.083395,
          "velocity": 0.9448818897637795
        },
        {
          "duration": 0.09809035625001172,
          "durationTicks": 113,
          "midi": 54,
          "name": "F#3",
          "ticks": 88920,
          "time": 77.18756175,
          "velocity": 0.6299212598425197
        },
        {
          "duration": 0.09809035624999751,
          "durationTicks": 113,
          "midi": 57,
          "name": "A3",
          "ticks": 89040,
          "time": 77.2917285,
          "velocity": 0.6299212598425197
        },
        {
          "duration": 0.09809035625001172,
          "durationTicks": 113,
          "midi": 61,
          "name": "C#4",
          "ticks": 89160,
          "time": 77.39589525,
          "velocity": 0.6299212598425197
        },
        {
          "duration": 0.10329869375000555,
          "durationTicks": 119,
          "midi": 64,
          "name": "E4",
          "ticks": 89280,
          "time": 77.500062,
          "velocity": 0.9448818897637795
        },
        {
          "duration": 0.09809035624999751,
          "durationTicks": 113,
          "midi": 66,
          "name": "F#4",
          "ticks": 89400,
          "time": 77.60422875,
          "velocity": 0.6299212598425197
        },
        {
          "duration": 0.09809035624999751,
          "durationTicks": 113,
          "midi": 69,
          "name": "A4",
          "ticks": 89520,
          "time": 77.70839550000001,
          "velocity": 0.6299212598425197
        },
        {
          "duration": 0.09809035625001172,
          "durationTicks": 113,
          "midi": 73,
          "name": "C#5",
          "ticks": 89640,
          "time": 77.81256225,
          "velocity": 0.6299212598425197
        },
        {
          "duration": 0.10329869375000555,
          "durationTicks": 119,
          "midi": 76,
          "name": "E5",
          "ticks": 89760,
          "time": 77.916729,
          "velocity": 0.9448818897637795
        },
        {
          "duration": 0.09809035624999751,
          "durationTicks": 113,
          "midi": 78,
          "name": "F#5",
          "ticks": 89880,
          "time": 78.02089575000001,
          "velocity": 0.6299212598425197
        },
        {
          "duration": 0.09809035625001172,
          "durationTicks": 113,
          "midi": 81,
          "name": "A5",
          "ticks": 90000,
          "time": 78.1250625,
          "velocity": 0.6299212598425197
        },
        {
          "duration": 0.09809035624999751,
          "durationTicks": 113,
          "midi": 85,
          "name": "C#6",
          "ticks": 90120,
          "time": 78.22922925,
          "velocity": 0.6299212598425197
        },
        {
          "duration": 0.10329869374999134,
          "durationTicks": 119,
          "midi": 88,
          "name": "E6",
          "ticks": 90240,
          "time": 78.33339600000001,
          "velocity": 0.9448818897637795
        },
        {
          "duration": 0.09809035625001172,
          "durationTicks": 113,
          "midi": 85,
          "name": "C#6",
          "ticks": 90360,
          "time": 78.43756275,
          "velocity": 0.6299212598425197
        },
        {
          "duration": 0.09809035625001172,
          "durationTicks": 113,
          "midi": 81,
          "name": "A5",
          "ticks": 90480,
          "time": 78.5417295,
          "velocity": 0.6299212598425197
        },
        {
          "duration": 0.09809035624999751,
          "durationTicks": 113,
          "midi": 78,
          "name": "F#5",
          "ticks": 90600,
          "time": 78.64589625,
          "velocity": 0.6299212598425197
        },
        {
          "duration": 0.10329869375000555,
          "durationTicks": 119,
          "midi": 76,
          "name": "E5",
          "ticks": 90720,
          "time": 78.750063,
          "velocity": 0.9448818897637795
        },
        {
          "duration": 0.09809035625001172,
          "durationTicks": 113,
          "midi": 73,
          "name": "C#5",
          "ticks": 90840,
          "time": 78.85422975,
          "velocity": 0.6299212598425197
        },
        {
          "duration": 0.09809035624999751,
          "durationTicks": 113,
          "midi": 69,
          "name": "A4",
          "ticks": 90960,
          "time": 78.9583965,
          "velocity": 0.6299212598425197
        },
        {
          "duration": 0.09809035625001172,
          "durationTicks": 113,
          "midi": 66,
          "name": "F#4",
          "ticks": 91080,
          "time": 79.06256325,
          "velocity": 0.6299212598425197
        },
        {
          "duration": 0.10329869375000555,
          "durationTicks": 119,
          "midi": 64,
          "name": "E4",
          "ticks": 91200,
          "time": 79.16673,
          "velocity": 0.9448818897637795
        },
        {
          "duration": 0.09809035624999751,
          "durationTicks": 113,
          "midi": 61,
          "name": "C#4",
          "ticks": 91320,
          "time": 79.27089675,
          "velocity": 0.6299212598425197
        },
        {
          "duration": 0.09809035625001172,
          "durationTicks": 113,
          "midi": 57,
          "name": "A3",
          "ticks": 91440,
          "time": 79.3750635,
          "velocity": 0.6299212598425197
        },
        {
          "duration": 0.09809035625001172,
          "durationTicks": 113,
          "midi": 54,
          "name": "F#3",
          "ticks": 91560,
          "time": 79.47923025,
          "velocity": 0.6299212598425197
        },
        {
          "duration": 0.10329869374999134,
          "durationTicks": 119,
          "midi": 52,
          "name": "E3",
          "ticks": 91680,
          "time": 79.583397,
          "velocity": 0.9448818897637795
        },
        {
          "duration": 0.09809035625001172,
          "durationTicks": 113,
          "midi": 49,
          "name": "C#3",
          "ticks": 91800,
          "time": 79.68756375,
          "velocity": 0.6299212598425197
        },
        {
          "duration": 0.09809035625001172,
          "durationTicks": 113,
          "midi": 45,
          "name": "A2",
          "ticks": 91920,
          "time": 79.7917305,
          "velocity": 0.6299212598425197
        },
        {
          "duration": 0.4166669999999897,
          "durationTicks": 480,
          "midi": 52,
          "name": "E3",
          "ticks": 92160,
          "time": 80.00006400000001,
          "velocity": 0.9448818897637795
        },
        {
          "duration": 0.197048768749994,
          "durationTicks": 227,
          "midi": 41,
          "name": "F2",
          "ticks": 92280,
          "time": 80.10423075,
          "velocity": 0.6299212598425197
        },
        {
          "duration": 0.09809035624999751,
          "durationTicks": 113,
          "midi": 45,
          "name": "A2",
          "ticks": 92400,
          "time": 80.2083975,
          "velocity": 0.6299212598425197
        },
        {
          "duration": 0.09809035624999751,
          "durationTicks": 113,
          "midi": 48,
          "name": "C3",
          "ticks": 92520,
          "time": 80.31256425000001,
          "velocity": 0.6299212598425197
        },
        {
          "duration": 1.2491329437499985,
          "durationTicks": 1439,
          "midi": 52,
          "name": "E3",
          "ticks": 92640,
          "time": 80.416731,
          "velocity": 0.9448818897637795
        },
        {
          "duration": 0.09809035624999751,
          "durationTicks": 113,
          "midi": 53,
          "name": "F3",
          "ticks": 92760,
          "time": 80.52089775,
          "velocity": 0.6299212598425197
        },
        {
          "duration": 0.09809035624999751,
          "durationTicks": 113,
          "midi": 57,
          "name": "A3",
          "ticks": 92880,
          "time": 80.62506450000001,
          "velocity": 0.6299212598425197
        },
        {
          "duration": 0.09809035625001172,
          "durationTicks": 113,
          "midi": 60,
          "name": "C4",
          "ticks": 93000,
          "time": 80.72923125,
          "velocity": 0.6299212598425197
        },
        {
          "duration": 0.10329869375000555,
          "durationTicks": 119,
          "midi": 64,
          "name": "E4",
          "ticks": 93120,
          "time": 80.833398,
          "velocity": 0.9448818897637795
        },
        {
          "duration": 0.09809035624999751,
          "durationTicks": 113,
          "midi": 65,
          "name": "F4",
          "ticks": 93240,
          "time": 80.93756475,
          "velocity": 0.6299212598425197
        },
        {
          "duration": 0.09809035625001172,
          "durationTicks": 113,
          "midi": 69,
          "name": "A4",
          "ticks": 93360,
          "time": 81.0417315,
          "velocity": 0.6299212598425197
        },
        {
          "duration": 0.09809035625001172,
          "durationTicks": 113,
          "midi": 72,
          "name": "C5",
          "ticks": 93480,
          "time": 81.14589825,
          "velocity": 0.6299212598425197
        },
        {
          "duration": 0.10329869374999134,
          "durationTicks": 119,
          "midi": 76,
          "name": "E5",
          "ticks": 93600,
          "time": 81.250065,
          "velocity": 0.9448818897637795
        },
        {
          "duration": 0.09809035625001172,
          "durationTicks": 113,
          "midi": 77,
          "name": "F5",
          "ticks": 93720,
          "time": 81.35423175,
          "velocity": 0.6299212598425197
        },
        {
          "duration": 0.09809035625001172,
          "durationTicks": 113,
          "midi": 81,
          "name": "A5",
          "ticks": 93840,
          "time": 81.4583985,
          "velocity": 0.6299212598425197
        },
        {
          "duration": 0.09809035624999751,
          "durationTicks": 113,
          "midi": 84,
          "name": "C6",
          "ticks": 93960,
          "time": 81.56256525,
          "velocity": 0.6299212598425197
        },
        {
          "duration": 0.10329869375000555,
          "durationTicks": 119,
          "midi": 88,
          "name": "E6",
          "ticks": 94080,
          "time": 81.666732,
          "velocity": 0.9448818897637795
        },
        {
          "duration": 0.09809035625001172,
          "durationTicks": 113,
          "midi": 84,
          "name": "C6",
          "ticks": 94200,
          "time": 81.77089875,
          "velocity": 0.6299212598425197
        },
        {
          "duration": 0.09809035624999751,
          "durationTicks": 113,
          "midi": 81,
          "name": "A5",
          "ticks": 94320,
          "time": 81.8750655,
          "velocity": 0.6299212598425197
        },
        {
          "duration": 0.09809035625001172,
          "durationTicks": 113,
          "midi": 77,
          "name": "F5",
          "ticks": 94440,
          "time": 81.97923225,
          "velocity": 0.6299212598425197
        },
        {
          "duration": 0.10329869375000555,
          "durationTicks": 119,
          "midi": 76,
          "name": "E5",
          "ticks": 94560,
          "time": 82.083399,
          "velocity": 0.9448818897637795
        },
        {
          "duration": 0.09809035624999751,
          "durationTicks": 113,
          "midi": 72,
          "name": "C5",
          "ticks": 94680,
          "time": 82.18756575,
          "velocity": 0.6299212598425197
        },
        {
          "duration": 0.09809035625001172,
          "durationTicks": 113,
          "midi": 69,
          "name": "A4",
          "ticks": 94800,
          "time": 82.2917325,
          "velocity": 0.6299212598425197
        },
        {
          "duration": 0.09809035625001172,
          "durationTicks": 113,
          "midi": 65,
          "name": "F4",
          "ticks": 94920,
          "time": 82.39589925,
          "velocity": 0.6299212598425197
        },
        {
          "duration": 0.10329869375000555,
          "durationTicks": 119,
          "midi": 64,
          "name": "E4",
          "ticks": 95040,
          "time": 82.500066,
          "velocity": 0.9448818897637795
        },
        {
          "duration": 0.09809035624999751,
          "durationTicks": 113,
          "midi": 60,
          "name": "C4",
          "ticks": 95160,
          "time": 82.60423275000001,
          "velocity": 0.6299212598425197
        },
        {
          "duration": 0.09809035625001172,
          "durationTicks": 113,
          "midi": 57,
          "name": "A3",
          "ticks": 95280,
          "time": 82.7083995,
          "velocity": 0.6299212598425197
        },
        {
          "duration": 0.09809035624999751,
          "durationTicks": 113,
          "midi": 53,
          "name": "F3",
          "ticks": 95400,
          "time": 82.81256625,
          "velocity": 0.6299212598425197
        },
        {
          "duration": 0.10329869374999134,
          "durationTicks": 119,
          "midi": 52,
          "name": "E3",
          "ticks": 95520,
          "time": 82.91673300000001,
          "velocity": 0.9448818897637795
        },
        {
          "duration": 0.09809035625001172,
          "durationTicks": 113,
          "midi": 48,
          "name": "C3",
          "ticks": 95640,
          "time": 83.02089975,
          "velocity": 0.6299212598425197
        },
        {
          "duration": 0.09809035625001172,
          "durationTicks": 113,
          "midi": 45,
          "name": "A2",
          "ticks": 95760,
          "time": 83.1250665,
          "velocity": 0.6299212598425197
        },
        {
          "duration": 0.4166670000000039,
          "durationTicks": 480,
          "midi": 52,
          "name": "E3",
          "ticks": 96000,
          "time": 83.3334,
          "velocity": 0.9448818897637795
        },
        {
          "duration": 0.10329869375000555,
          "durationTicks": 119,
          "midi": 41,
          "name": "F2",
          "ticks": 96120,
          "time": 83.43756675,
          "velocity": 0.6299212598425197
        },
        {
          "duration": 0.10329869374999134,
          "durationTicks": 119,
          "midi": 45,
          "name": "A2",
          "ticks": 96240,
          "time": 83.5417335,
          "velocity": 0.6299212598425197
        },
        {
          "duration": 0.10329869375000555,
          "durationTicks": 119,
          "midi": 47,
          "name": "B2",
          "ticks": 96360,
          "time": 83.64590025,
          "velocity": 0.6299212598425197
        },
        {
          "duration": 1.2491329437499985,
          "durationTicks": 1439,
          "midi": 52,
          "name": "E3",
          "ticks": 96480,
          "time": 83.750067,
          "velocity": 0.9448818897637795
        },
        {
          "duration": 0.10329869374999134,
          "durationTicks": 119,
          "midi": 53,
          "name": "F3",
          "ticks": 96600,
          "time": 83.85423375,
          "velocity": 0.6299212598425197
        },
        {
          "duration": 0.10329869375000555,
          "durationTicks": 119,
          "midi": 57,
          "name": "A3",
          "ticks": 96720,
          "time": 83.9584005,
          "velocity": 0.6299212598425197
        },
        {
          "duration": 0.10329869375000555,
          "durationTicks": 119,
          "midi": 59,
          "name": "B3",
          "ticks": 96840,
          "time": 84.06256725,
          "velocity": 0.6299212598425197
        },
        {
          "duration": 0.10329869374999134,
          "durationTicks": 119,
          "midi": 64,
          "name": "E4",
          "ticks": 96960,
          "time": 84.166734,
          "velocity": 0.9448818897637795
        },
        {
          "duration": 0.10329869375000555,
          "durationTicks": 119,
          "midi": 65,
          "name": "F4",
          "ticks": 97080,
          "time": 84.27090075,
          "velocity": 0.6299212598425197
        },
        {
          "duration": 0.10329869375000555,
          "durationTicks": 119,
          "midi": 69,
          "name": "A4",
          "ticks": 97200,
          "time": 84.3750675,
          "velocity": 0.6299212598425197
        },
        {
          "duration": 0.10329869374999134,
          "durationTicks": 119,
          "midi": 71,
          "name": "B4",
          "ticks": 97320,
          "time": 84.47923425,
          "velocity": 0.6299212598425197
        },
        {
          "duration": 0.10329869375000555,
          "durationTicks": 119,
          "midi": 76,
          "name": "E5",
          "ticks": 97440,
          "time": 84.583401,
          "velocity": 0.9448818897637795
        },
        {
          "duration": 0.10329869375000555,
          "durationTicks": 119,
          "midi": 77,
          "name": "F5",
          "ticks": 97560,
          "time": 84.68756775,
          "velocity": 0.6299212598425197
        },
        {
          "duration": 0.10329869375000555,
          "durationTicks": 119,
          "midi": 81,
          "name": "A5",
          "ticks": 97680,
          "time": 84.7917345,
          "velocity": 0.6299212598425197
        },
        {
          "duration": 0.10329869374999134,
          "durationTicks": 119,
          "midi": 83,
          "name": "B5",
          "ticks": 97800,
          "time": 84.89590125000001,
          "velocity": 0.6299212598425197
        },
        {
          "duration": 0.12823291249999613,
          "durationTicks": 119,
          "midi": 88,
          "name": "E6",
          "ticks": 97920,
          "time": 85.000068,
          "velocity": 0.9448818897637795
        },
        {
          "duration": 0.12823291249999613,
          "durationTicks": 119,
          "midi": 83,
          "name": "B5",
          "ticks": 98040,
          "time": 85.1293785,
          "velocity": 0.6299212598425197
        },
        {
          "duration": 0.12823291249999613,
          "durationTicks": 119,
          "midi": 81,
          "name": "A5",
          "ticks": 98160,
          "time": 85.258689,
          "velocity": 0.6299212598425197
        },
        {
          "duration": 0.12823291250001034,
          "durationTicks": 119,
          "midi": 77,
          "name": "F5",
          "ticks": 98280,
          "time": 85.38799949999999,
          "velocity": 0.6299212598425197
        },
        {
          "duration": 0.12823291250001034,
          "durationTicks": 119,
          "midi": 76,
          "name": "E5",
          "ticks": 98400,
          "time": 85.51731,
          "velocity": 0.9448818897637795
        },
        {
          "duration": 0.12823291249999613,
          "durationTicks": 119,
          "midi": 71,
          "name": "B4",
          "ticks": 98520,
          "time": 85.6466205,
          "velocity": 0.6299212598425197
        },
        {
          "duration": 0.12823291249999613,
          "durationTicks": 119,
          "midi": 69,
          "name": "A4",
          "ticks": 98640,
          "time": 85.775931,
          "velocity": 0.6299212598425197
        },
        {
          "duration": 0.12823291249999613,
          "durationTicks": 119,
          "midi": 65,
          "name": "F4",
          "ticks": 98760,
          "time": 85.9052415,
          "velocity": 0.6299212598425197
        },
        {
          "duration": 0.12823291249999613,
          "durationTicks": 119,
          "midi": 64,
          "name": "E4",
          "ticks": 98880,
          "time": 86.034552,
          "velocity": 0.9448818897637795
        },
        {
          "duration": 0.12823291250001034,
          "durationTicks": 119,
          "midi": 59,
          "name": "B3",
          "ticks": 99000,
          "time": 86.1638625,
          "velocity": 0.6299212598425197
        },
        {
          "duration": 0.12823291249999613,
          "durationTicks": 119,
          "midi": 57,
          "name": "A3",
          "ticks": 99120,
          "time": 86.293173,
          "velocity": 0.6299212598425197
        },
        {
          "duration": 0.12823291249999613,
          "durationTicks": 119,
          "midi": 53,
          "name": "F3",
          "ticks": 99240,
          "time": 86.4224835,
          "velocity": 0.6299212598425197
        },
        {
          "duration": 0.12823291249999613,
          "durationTicks": 119,
          "midi": 52,
          "name": "E3",
          "ticks": 99360,
          "time": 86.551794,
          "velocity": 0.9448818897637795
        },
        {
          "duration": 0.12823291249999613,
          "durationTicks": 119,
          "midi": 47,
          "name": "B2",
          "ticks": 99480,
          "time": 86.6811045,
          "velocity": 0.6299212598425197
        },
        {
          "duration": 0.12823291250001034,
          "durationTicks": 119,
          "midi": 45,
          "name": "A2",
          "ticks": 99600,
          "time": 86.81041499999999,
          "velocity": 0.6299212598425197
        },
        {
          "duration": 0.12176738750000027,
          "durationTicks": 113,
          "midi": 41,
          "name": "F2",
          "ticks": 99720,
          "time": 86.9397255,
          "velocity": 0.6299212598425197
        },
        {
          "duration": 0.5240475000000089,
          "durationTicks": 480,
          "midi": 50,
          "name": "D3",
          "ticks": 99840,
          "time": 87.069036,
          "velocity": 0.9448818897637795
        },
        {
          "duration": 0.13048250833332986,
          "durationTicks": 119,
          "midi": 40,
          "name": "E2",
          "ticks": 99960,
          "time": 87.1983465,
          "velocity": 0.6299212598425197
        },
        {
          "duration": 0.13048250833332986,
          "durationTicks": 119,
          "midi": 43,
          "name": "G2",
          "ticks": 100080,
          "time": 87.3299255,
          "velocity": 0.6299212598425197
        },
        {
          "duration": 0.13048250833332986,
          "durationTicks": 119,
          "midi": 47,
          "name": "B2",
          "ticks": 100200,
          "time": 87.4615045,
          "velocity": 0.6299212598425197
        },
        {
          "duration": 1.3157899999999927,
          "durationTicks": 1200,
          "midi": 50,
          "name": "D3",
          "ticks": 100320,
          "time": 87.5930835,
          "velocity": 0.9448818897637795
        },
        {
          "duration": 0.13048250833334407,
          "durationTicks": 119,
          "midi": 52,
          "name": "E3",
          "ticks": 100440,
          "time": 87.7246625,
          "velocity": 0.6299212598425197
        },
        {
          "duration": 0.13048250833334407,
          "durationTicks": 119,
          "midi": 55,
          "name": "G3",
          "ticks": 100560,
          "time": 87.8562415,
          "velocity": 0.6299212598425197
        },
        {
          "duration": 0.13048250833332986,
          "durationTicks": 119,
          "midi": 59,
          "name": "B3",
          "ticks": 100680,
          "time": 87.9878205,
          "velocity": 0.6299212598425197
        },
        {
          "duration": 0.13048250833332986,
          "durationTicks": 119,
          "midi": 62,
          "name": "D4",
          "ticks": 100800,
          "time": 88.1193995,
          "velocity": 0.9448818897637795
        },
        {
          "duration": 0.06469300833333591,
          "durationTicks": 59,
          "midi": 62,
          "name": "D4",
          "ticks": 100920,
          "time": 88.2509785,
          "velocity": 0.6299212598425197
        },
        {
          "duration": 0.13048250833332986,
          "durationTicks": 119,
          "midi": 59,
          "name": "B3",
          "ticks": 101040,
          "time": 88.3825575,
          "velocity": 0.6299212598425197
        },
        {
          "duration": 0.13048250833332986,
          "durationTicks": 119,
          "midi": 55,
          "name": "G3",
          "ticks": 101160,
          "time": 88.5141365,
          "velocity": 0.6299212598425197
        },
        {
          "duration": 0.13048250833334407,
          "durationTicks": 119,
          "midi": 52,
          "name": "E3",
          "ticks": 101280,
          "time": 88.6457155,
          "velocity": 0.6299212598425197
        },
        {
          "duration": 0.13048250833332986,
          "durationTicks": 119,
          "midi": 47,
          "name": "B2",
          "ticks": 101400,
          "time": 88.7772945,
          "velocity": 0.6299212598425197
        },
        {
          "duration": 0.26206150833333197,
          "durationTicks": 239,
          "midi": 50,
          "name": "D3",
          "ticks": 101520,
          "time": 88.9088735,
          "velocity": 0.6299212598425197
        },
        {
          "duration": 0.13048250833332986,
          "durationTicks": 119,
          "midi": 54,
          "name": "F#3",
          "ticks": 101640,
          "time": 89.0404525,
          "velocity": 0.6299212598425197
        },
        {
          "duration": 0.13048250833332986,
          "durationTicks": 119,
          "midi": 57,
          "name": "A3",
          "ticks": 101760,
          "time": 89.1720315,
          "velocity": 0.6299212598425197
        },
        {
          "duration": 0.13048250833332986,
          "durationTicks": 119,
          "midi": 59,
          "name": "B3",
          "ticks": 101880,
          "time": 89.3036105,
          "velocity": 0.6299212598425197
        },
        {
          "duration": 0.13048250833334407,
          "durationTicks": 119,
          "midi": 62,
          "name": "D4",
          "ticks": 102000,
          "time": 89.43518949999999,
          "velocity": 0.6299212598425197
        },
        {
          "duration": 0.13048250833334407,
          "durationTicks": 119,
          "midi": 66,
          "name": "F#4",
          "ticks": 102120,
          "time": 89.5667685,
          "velocity": 0.6299212598425197
        },
        {
          "duration": 0.13048250833332986,
          "durationTicks": 119,
          "midi": 69,
          "name": "A4",
          "ticks": 102240,
          "time": 89.6983475,
          "velocity": 0.6299212598425197
        },
        {
          "duration": 0.13048250833332986,
          "durationTicks": 119,
          "midi": 71,
          "name": "B4",
          "ticks": 102360,
          "time": 89.8299265,
          "velocity": 0.6299212598425197
        },
        {
          "duration": 0.13048250833332986,
          "durationTicks": 119,
          "midi": 74,
          "name": "D5",
          "ticks": 102480,
          "time": 89.9615055,
          "velocity": 0.6299212598425197
        },
        {
          "duration": 0.13048250833332986,
          "durationTicks": 119,
          "midi": 78,
          "name": "F#5",
          "ticks": 102600,
          "time": 90.0930845,
          "velocity": 0.6299212598425197
        },
        {
          "duration": 0.13048250833332986,
          "durationTicks": 119,
          "midi": 81,
          "name": "A5",
          "ticks": 102720,
          "time": 90.2246635,
          "velocity": 0.6299212598425197
        },
        {
          "duration": 0.13048250833334407,
          "durationTicks": 119,
          "midi": 83,
          "name": "B5",
          "ticks": 102840,
          "time": 90.3562425,
          "velocity": 0.6299212598425197
        },
        {
          "duration": 0.13048250833334407,
          "durationTicks": 119,
          "midi": 86,
          "name": "D6",
          "ticks": 102960,
          "time": 90.4878215,
          "velocity": 0.6299212598425197
        },
        {
          "duration": 0.13048250833332986,
          "durationTicks": 119,
          "midi": 90,
          "name": "F#6",
          "ticks": 103080,
          "time": 90.6194005,
          "velocity": 0.6299212598425197
        },
        {
          "duration": 0.12390355833333899,
          "durationTicks": 113,
          "midi": 93,
          "name": "A6",
          "ticks": 103200,
          "time": 90.7509795,
          "velocity": 0.6299212598425197
        },
        {
          "duration": 0.19956148333334056,
          "durationTicks": 182,
          "midi": 59,
          "name": "B3",
          "ticks": 103680,
          "time": 91.2772955,
          "velocity": 0.6299212598425197
        },
        {
          "duration": 2.038378008333339,
          "durationTicks": 1859,
          "midi": 62,
          "name": "D4",
          "ticks": 103739,
          "time": 91.34198850833333,
          "velocity": 0.6299212598425197
        },
        {
          "duration": 1.972588508333331,
          "durationTicks": 1799,
          "midi": 66,
          "name": "F#4",
          "ticks": 103799,
          "time": 91.40777800833334,
          "velocity": 0.6299212598425197
        },
        {
          "duration": 1.9035095333333345,
          "durationTicks": 1736,
          "midi": 69,
          "name": "A4",
          "ticks": 103862,
          "time": 91.47685698333333,
          "velocity": 0.6299212598425197
        }
      ],
      "endOfTrackTicks": 105599
    },
    {
      "channel": 0,
      "controlChanges": {
        "64": [
          {
            "number": 64,
            "ticks": 2,
            "time": 0.0017361125000000001,
            "value": 1
          },
          {
            "number": 64,
            "ticks": 1921,
            "time": 1.66753605625,
            "value": 0
          },
          {
            "number": 64,
            "ticks": 1922,
            "time": 1.6684041125,
            "value": 1
          },
          {
            "number": 64,
            "ticks": 3841,
            "time": 3.33420405625,
            "value": 0
          },
          {
            "number": 64,
            "ticks": 3842,
            "time": 3.3350721125,
            "value": 1
          },
          {
            "number": 64,
            "ticks": 5761,
            "time": 5.00087205625,
            "value": 0
          },
          {
            "number": 64,
            "ticks": 5762,
            "time": 5.0017401125,
            "value": 1
          },
          {
            "number": 64,
            "ticks": 7681,
            "time": 6.667540056250001,
            "value": 0
          },
          {
            "number": 64,
            "ticks": 7682,
            "time": 6.6684081125,
            "value": 1
          },
          {
            "number": 64,
            "ticks": 9601,
            "time": 8.33420805625,
            "value": 0
          },
          {
            "number": 64,
            "ticks": 9602,
            "time": 8.3350761125,
            "value": 1
          },
          {
            "number": 64,
            "ticks": 11521,
            "time": 10.00087605625,
            "value": 0
          },
          {
            "number": 64,
            "ticks": 11522,
            "time": 10.0017441125,
            "value": 1
          },
          {
            "number": 64,
            "ticks": 13441,
            "time": 11.667544056250001,
            "value": 0
          },
          {
            "number": 64,
            "ticks": 13442,
            "time": 11.6684121125,
            "value": 1
          },
          {
            "number": 64,
            "ticks": 15361,
            "time": 13.33421205625,
            "value": 0
          },
          {
            "number": 64,
            "ticks": 15362,
            "time": 13.335080112500002,
            "value": 1
          },
          {
            "number": 64,
            "ticks": 17281,
            "time": 15.000880056249999,
            "value": 0
          },
          {
            "number": 64,
            "ticks": 17402,
            "time": 15.105914862500002,
            "value": 1
          },
          {
            "number": 64,
            "ticks": 19201,
            "time": 16.66754805625,
            "value": 0
          },
          {
            "number": 64,
            "ticks": 19202,
            "time": 16.6684161125,
            "value": 1
          },
          {
            "number": 64,
            "ticks": 21121,
            "time": 18.33421605625,
            "value": 0
          },
          {
            "number": 64,
            "ticks": 21122,
            "time": 18.335084112500002,
            "value": 1
          },
          {
            "number": 64,
            "ticks": 23041,
            "time": 20.00088405625,
            "value": 0
          },
          {
            "number": 64,
            "ticks": 23042,
            "time": 20.0017521125,
            "value": 1
          },
          {
            "number": 64,
            "ticks": 24961,
            "time": 21.66755205625,
            "value": 0
          },
          {
            "number": 64,
            "ticks": 24962,
            "time": 21.6684201125,
            "value": 1
          },
          {
            "number": 64,
            "ticks": 26881,
            "time": 23.33422005625,
            "value": 0
          },
          {
            "number": 64,
            "ticks": 26882,
            "time": 23.335088112500003,
            "value": 1
          },
          {
            "number": 64,
            "ticks": 28801,
            "time": 25.000888056249998,
            "value": 0
          },
          {
            "number": 64,
            "ticks": 28802,
            "time": 25.0017561125,
            "value": 1
          },
          {
            "number": 64,
            "ticks": 30721,
            "time": 26.66755605625,
            "value": 0
          },
          {
            "number": 64,
            "ticks": 30722,
            "time": 26.6684241125,
            "value": 1
          },
          {
            "number": 64,
            "ticks": 32641,
            "time": 28.33422405625,
            "value": 0
          },
          {
            "number": 64,
            "ticks": 32642,
            "time": 28.3350921125,
            "value": 1
          },
          {
            "number": 64,
            "ticks": 34561,
            "time": 30.00089205625,
            "value": 0
          },
          {
            "number": 64,
            "ticks": 34562,
            "time": 30.001760112499998,
            "value": 1
          },
          {
            "number": 64,
            "ticks": 36481,
            "time": 31.66756005625,
            "value": 0
          },
          {
            "number": 64,
            "ticks": 36482,
            "time": 31.6684281125,
            "value": 1
          },
          {
            "number": 64,
            "ticks": 38401,
            "time": 33.33422805625,
            "value": 0
          },
          {
            "number": 64,
            "ticks": 38402,
            "time": 33.3350961125,
            "value": 1
          },
          {
            "number": 64,
            "ticks": 40321,
            "time": 35.00089605625,
            "value": 0
          },
          {
            "number": 64,
            "ticks": 40322,
            "time": 35.0017641125,
            "value": 1
          },
          {
            "number": 64,
            "ticks": 42241,
            "time": 36.66756405625,
            "value": 0
          },
          {
            "number": 64,
            "ticks": 42242,
            "time": 36.6684321125,
            "value": 1
          },
          {
            "number": 64,
            "ticks": 44161,
            "time": 38.33423205625,
            "value": 0
          },
          {
            "number": 64,
            "ticks": 44162,
            "time": 38.3351001125,
            "value": 1
          },
          {
            "number": 64,
            "ticks": 46081,
            "time": 40.00090005625,
            "value": 0
          },
          {
            "number": 64,
            "ticks": 46082,
            "time": 40.0017681125,
            "value": 1
          },
          {
            "number": 64,
            "ticks": 48001,
            "time": 41.66756805625,
            "value": 0
          },
          {
            "number": 64,
            "ticks": 48002,
            "time": 41.6684361125,
            "value": 1
          },
          {
            "number": 64,
            "ticks": 49921,
            "time": 43.33423605625,
            "value": 0
          },
          {
            "number": 64,
            "ticks": 49922,
            "time": 43.3351041125,
            "value": 1
          },
          {
            "number": 64,
            "ticks": 51841,
            "time": 45.00090405625,
            "value": 0
          },
          {
            "number": 64,
            "ticks": 51842,
            "time": 45.0017721125,
            "value": 1
          },
          {
            "number": 64,
            "ticks": 53761,
            "time": 46.66757205625,
            "value": 0
          },
          {
            "number": 64,
            "ticks": 53762,
            "time": 46.6684401125,
            "value": 1
          },
          {
            "number": 64,
            "ticks": 55681,
            "time": 48.33424005625,
            "value": 0
          },
          {
            "number": 64,
            "ticks": 55682,
            "time": 48.3351081125,
            "value": 1
          },
          {
            "number": 64,
            "ticks": 57601,
            "time": 50.00090805625,
            "value": 0
          },
          {
            "number": 64,
            "ticks": 57602,
            "time": 50.001776112499996,
            "value": 1
          },
          {
            "number": 64,
            "ticks": 59521,
            "time": 51.66757605625,
            "value": 0
          },
          {
            "number": 64,
            "ticks": 59522,
            "time": 51.6684441125,
            "value": 1
          },
          {
            "number": 64,
            "ticks": 61441,
            "time": 53.33424405625,
            "value": 0
          },
          {
            "number": 64,
            "ticks": 61442,
            "time": 53.3351121125,
            "value": 1
          },
          {
            "number": 64,
            "ticks": 63361,
            "time": 55.00091205625,
            "value": 0
          },
          {
            "number": 64,
            "ticks": 63362,
            "time": 55.0017801125,
            "value": 1
          },
          {
            "number": 64,
            "ticks": 65281,
            "time": 56.66758005625,
            "value": 0
          },
          {
            "number": 64,
            "ticks": 65282,
            "time": 56.6684481125,
            "value": 1
          },
          {
            "number": 64,
            "ticks": 67201,
            "time": 58.33424805625,
            "value": 0
          },
          {
            "number": 64,
            "ticks": 67202,
            "time": 58.3351161125,
            "value": 1
          },
          {
            "number": 64,
            "ticks": 69121,
            "time": 60.00091605625,
            "value": 0
          },
          {
            "number": 64,
            "ticks": 69122,
            "time": 60.0017841125,
            "value": 1
          },
          {
            "number": 64,
            "ticks": 71041,
            "time": 61.66758405625,
            "value": 0
          },
          {
            "number": 64,
            "ticks": 71042,
            "time": 61.6684521125,
            "value": 1
          },
          {
            "number": 64,
            "ticks": 72961,
            "time": 63.33425205625,
            "value": 0
          },
          {
            "number": 64,
            "ticks": 72962,
            "time": 63.3351201125,
            "value": 1
          },
          {
            "number": 64,
            "ticks": 74881,
            "time": 65.00092005625,
            "value": 0
          },
          {
            "number": 64,
            "ticks": 74882,
            "time": 65.0017881125,
            "value": 1
          },
          {
            "number": 64,
            "ticks": 76801,
            "time": 66.66758805625,
            "value": 0
          },
          {
            "number": 64,
            "ticks": 76802,
            "time": 66.6684561125,
            "value": 1
          },
          {
            "number": 64,
            "ticks": 78721,
            "time": 68.33425605625,
            "value": 0
          },
          {
            "number": 64,
            "ticks": 78722,
            "time": 68.3351241125,
            "value": 1
          },
          {
            "number": 64,
            "ticks": 80641,
            "time": 70.00092405625,
            "value": 0
          },
          {
            "number": 64,
            "ticks": 80642,
            "time": 70.0017921125,
            "value": 1
          },
          {
            "number": 64,
            "ticks": 82561,
            "time": 71.66759205625,
            "value": 0
          },
          {
            "number": 64,
            "ticks": 82562,
            "time": 71.6684601125,
            "value": 1
          },
          {
            "number": 64,
            "ticks": 84481,
            "time": 73.33426005625,
            "value": 0
          },
          {
            "number": 64,
            "ticks": 84482,
            "time": 73.3351281125,
            "value": 1
          },
          {
            "number": 64,
            "ticks": 86401,
            "time": 75.00092805625,
            "value": 0
          },
          {
            "number": 64,
            "ticks": 86402,
            "time": 75.0017961125,
            "value": 1
          },
          {
            "number": 64,
            "ticks": 88321,
            "time": 76.66759605625,
            "value": 0
          },
          {
            "number": 64,
            "ticks": 88322,
            "time": 76.6684641125,
            "value": 1
          },
          {
            "number": 64,
            "ticks": 90241,
            "time": 78.33426405625,
            "value": 0
          },
          {
            "number": 64,
            "ticks": 90242,
            "time": 78.3351321125,
            "value": 1
          },
          {
            "number": 64,
            "ticks": 92161,
            "time": 80.00093205625001,
            "value": 0
          },
          {
            "number": 64,
            "ticks": 92162,
            "time": 80.0018001125,
            "value": 1
          },
          {
            "number": 64,
            "ticks": 94081,
            "time": 81.66760005625,
            "value": 0
          },
          {
            "number": 64,
            "ticks": 94082,
            "time": 81.6684681125,
            "value": 1
          },
          {
            "number": 64,
            "ticks": 96001,
            "time": 83.33426805625,
            "value": 0
          },
          {
            "number": 64,
            "ticks": 96002,
            "time": 83.3351361125,
            "value": 1
          },
          {
            "number": 64,
            "ticks": 97921,
            "time": 85.0011455875,
            "value": 0
          },
          {
            "number": 64,
            "ticks": 97922,
            "time": 85.002223175,
            "value": 1
          },
          {
            "number": 64,
            "ticks": 99841,
            "time": 87.0701135875,
            "value": 0
          },
          {
            "number": 64,
            "ticks": 99842,
            "time": 87.071191175,
            "value": 1
          },
          {
            "number": 64,
            "ticks": 101761,
            "time": 89.17312799166666,
            "value": 0
          }
        ]
      },
      "pitchBends": [],
      "instrument": {
        "family": "piano",
        "number": 0,
        "name": "acoustic grand piano"
      },
      "name": "Piano\u0000",
      "notes": [
        {
          "duration": 3.16580114375,
          "durationTicks": 3647,
          "midi": 38,
          "name": "D2",
          "ticks": 0,
          "time": 0,
          "velocity": 0.6299212598425197
        },
        {
          "duration": 3.16580114375,
          "durationTicks": 3647,
          "midi": 50,
          "name": "D3",
          "ticks": 0,
          "time": 0,
          "velocity": 0.6299212598425197
        },
        {
          "duration": 1.5824665437500007,
          "durationTicks": 1823,
          "midi": 31,
          "name": "G1",
          "ticks": 3840,
          "time": 3.333336,
          "velocity": 0.6299212598425197
        },
        {
          "duration": 3.1658011437499995,
          "durationTicks": 3647,
          "midi": 43,
          "name": "G2",
          "ticks": 3840,
          "time": 3.333336,
          "velocity": 0.6299212598425197
        },
        {
          "duration": 1.5824665437499998,
          "durationTicks": 1823,
          "midi": 31,
          "name": "G1",
          "ticks": 5760,
          "time": 5.000004000000001,
          "velocity": 0.6299212598425197
        },
        {
          "duration": 3.1658011437500004,
          "durationTicks": 3647,
          "midi": 36,
          "name": "C2",
          "ticks": 7680,
          "time": 6.666672,
          "velocity": 0.6299212598425197
        },
        {
          "duration": 3.1658011437500004,
          "durationTicks": 3647,
          "midi": 48,
          "name": "C3",
          "ticks": 7680,
          "time": 6.666672,
          "velocity": 0.6299212598425197
        },
        {
          "duration": 1.582466543749998,
          "durationTicks": 1823,
          "midi": 36,
          "name": "C2",
          "ticks": 11520,
          "time": 10.000008000000001,
          "velocity": 0.6299212598425197
        },
        {
          "duration": 1.582466543749998,
          "durationTicks": 1823,
          "midi": 48,
          "name": "C3",
          "ticks": 11520,
          "time": 10.000008000000001,
          "velocity": 0.6299212598425197
        },
        {
          "duration": 1.5824665437499998,
          "durationTicks": 1823,
          "midi": 48,
          "name": "C3",
          "ticks": 13440,
          "time": 11.666676,
          "velocity": 0.6299212598425197
        },
        {
          "duration": 1.5824665437499998,
          "durationTicks": 1823,
          "midi": 60,
          "name": "C4",
          "ticks": 13440,
          "time": 11.666676,
          "velocity": 0.6299212598425197
        },
        {
          "duration": 1.5824665437499998,
          "durationTicks": 1823,
          "midi": 36,
          "name": "C2",
          "ticks": 15360,
          "time": 13.333344,
          "velocity": 0.6299212598425197
        },
        {
          "duration": 1.5824665437499998,
          "durationTicks": 1823,
          "midi": 48,
          "name": "C3",
          "ticks": 15360,
          "time": 13.333344,
          "velocity": 0.6299212598425197
        },
        {
          "duration": 0.09809035624999929,
          "durationTicks": 113,
          "midi": 36,
          "name": "C2",
          "ticks": 17280,
          "time": 15.000012,
          "velocity": 0.6299212598425197
        },
        {
          "duration": 0.09809035624999929,
          "durationTicks": 113,
          "midi": 48,
          "name": "C3",
          "ticks": 17280,
          "time": 15.000012,
          "velocity": 0.6299212598425197
        },
        {
          "duration": 1.4835081312499998,
          "durationTicks": 1709,
          "midi": 36,
          "name": "C2",
          "ticks": 17400,
          "time": 15.10417875,
          "velocity": 0.6299212598425197
        },
        {
          "duration": 1.4835081312499998,
          "durationTicks": 1709,
          "midi": 48,
          "name": "C3",
          "ticks": 17400,
          "time": 15.10417875,
          "velocity": 0.6299212598425197
        },
        {
          "duration": 3.165801143750002,
          "durationTicks": 3647,
          "midi": 29,
          "name": "F1",
          "ticks": 19200,
          "time": 16.66668,
          "velocity": 0.6299212598425197
        },
        {
          "duration": 3.165801143750002,
          "durationTicks": 3647,
          "midi": 41,
          "name": "F2",
          "ticks": 19200,
          "time": 16.66668,
          "velocity": 0.6299212598425197
        },
        {
          "duration": 1.582466543749998,
          "durationTicks": 1823,
          "midi": 53,
          "name": "F3",
          "ticks": 21120,
          "time": 18.333348,
          "velocity": 0.6299212598425197
        },
        {
          "duration": 3.1658011437499987,
          "durationTicks": 3647,
          "midi": 34,
          "name": "A#1",
          "ticks": 23040,
          "time": 20.000016000000002,
          "velocity": 0.6299212598425197
        },
        {
          "duration": 3.1658011437499987,
          "durationTicks": 3647,
          "midi": 46,
          "name": "A#2",
          "ticks": 23040,
          "time": 20.000016000000002,
          "velocity": 0.6299212598425197
        },
        {
          "duration": 1.582466543749998,
          "durationTicks": 1823,
          "midi": 46,
          "name": "A#2",
          "ticks": 26880,
          "time": 23.333352,
          "velocity": 0.6299212598425197
        },
        {
          "duration": 1.582466543749998,
          "durationTicks": 1823,
          "midi": 58,
          "name": "A#3",
          "ticks": 26880,
          "time": 23.333352,
          "velocity": 0.6299212598425197
        },
        {
          "duration": 1.5824665437500016,
          "durationTicks": 1823,
          "midi": 46,
          "name": "A#2",
          "ticks": 28800,
          "time": 25.00002,
          "velocity": 0.6299212598425197
        },
        {
          "duration": 1.5824665437500016,
          "durationTicks": 1823,
          "midi": 58,
          "name": "A#3",
          "ticks": 28800,
          "time": 25.00002,
          "velocity": 0.6299212598425197
        },
        {
          "duration": 3.1658011437499987,
          "durationTicks": 3647,
          "midi": 34,
          "name": "A#1",
          "ticks": 30720,
          "time": 26.666688,
          "velocity": 0.6299212598425197
        },
        {
          "duration": 3.1658011437499987,
          "durationTicks": 3647,
          "midi": 46,
          "name": "A#2",
          "ticks": 30720,
          "time": 26.666688,
          "velocity": 0.6299212598425197
        },
        {
          "duration": 3.1658011437499987,
          "durationTicks": 3647,
          "midi": 39,
          "name": "D#2",
          "ticks": 34560,
          "time": 30.000024,
          "velocity": 0.6299212598425197
        },
        {
          "duration": 3.1658011437499987,
          "durationTicks": 3647,
          "midi": 51,
          "name": "D#3",
          "ticks": 34560,
          "time": 30.000024,
          "velocity": 0.6299212598425197
        },
        {
          "duration": 3.3324679437500038,
          "durationTicks": 3839,
          "midi": 32,
          "name": "G#1",
          "ticks": 38400,
          "time": 33.33336,
          "velocity": 0.6299212598425197
        },
        {
          "duration": 1.6657999437500024,
          "durationTicks": 1919,
          "midi": 44,
          "name": "G#2",
          "ticks": 38400,
          "time": 33.33336,
          "velocity": 0.6299212598425197
        },
        {
          "duration": 1.6657999437500024,
          "durationTicks": 1919,
          "midi": 44,
          "name": "G#2",
          "ticks": 40320,
          "time": 35.000028,
          "velocity": 0.6299212598425197
        },
        {
          "duration": 3.165801143749995,
          "durationTicks": 3647,
          "midi": 32,
          "name": "G#1",
          "ticks": 42240,
          "time": 36.666696,
          "velocity": 0.6299212598425197
        },
        {
          "duration": 3.165801143749995,
          "durationTicks": 3647,
          "midi": 44,
          "name": "G#2",
          "ticks": 42240,
          "time": 36.666696,
          "velocity": 0.6299212598425197
        },
        {
          "duration": 1.5824665437499945,
          "durationTicks": 1823,
          "midi": 56,
          "name": "G#3",
          "ticks": 44160,
          "time": 38.333364,
          "velocity": 0.6299212598425197
        },
        {
          "duration": 3.165801143749995,
          "durationTicks": 3647,
          "midi": 44,
          "name": "G#2",
          "ticks": 46080,
          "time": 40.000032000000004,
          "velocity": 0.6299212598425197
        },
        {
          "duration": 3.165801143750002,
          "durationTicks": 3647,
          "midi": 49,
          "name": "C#3",
          "ticks": 49920,
          "time": 43.333368,
          "velocity": 0.6299212598425197
        },
        {
          "duration": 1.5824665437500016,
          "durationTicks": 1823,
          "midi": 61,
          "name": "C#4",
          "ticks": 51840,
          "time": 45.000036,
          "velocity": 0.6299212598425197
        },
        {
          "duration": 3.165801143749995,
          "durationTicks": 3647,
          "midi": 42,
          "name": "F#2",
          "ticks": 53760,
          "time": 46.666704,
          "velocity": 0.6299212598425197
        },
        {
          "duration": 3.165801143750002,
          "durationTicks": 3647,
          "midi": 42,
          "name": "F#2",
          "ticks": 57600,
          "time": 50.00004,
          "velocity": 0.6299212598425197
        },
        {
          "duration": 1.5824665437500087,
          "durationTicks": 1823,
          "midi": 30,
          "name": "F#1",
          "ticks": 61440,
          "time": 53.333376,
          "velocity": 0.6299212598425197
        },
        {
          "duration": 3.165801143749995,
          "durationTicks": 3647,
          "midi": 42,
          "name": "F#2",
          "ticks": 61440,
          "time": 53.333376,
          "velocity": 0.6299212598425197
        },
        {
          "duration": 1.5824665437500016,
          "durationTicks": 1823,
          "midi": 54,
          "name": "F#3",
          "ticks": 63360,
          "time": 55.000044,
          "velocity": 0.6299212598425197
        },
        {
          "duration": 3.165801143749995,
          "durationTicks": 3647,
          "midi": 35,
          "name": "B1",
          "ticks": 65280,
          "time": 56.666712000000004,
          "velocity": 0.6299212598425197
        },
        {
          "duration": 1.5824665437500087,
          "durationTicks": 1823,
          "midi": 23,
          "name": "B0",
          "ticks": 67200,
          "time": 58.33338,
          "velocity": 0.6299212598425197
        },
        {
          "duration": 3.165801143750002,
          "durationTicks": 3647,
          "midi": 40,
          "name": "E2",
          "ticks": 69120,
          "time": 60.000048,
          "velocity": 0.6299212598425197
        },
        {
          "duration": 1.5824665437500087,
          "durationTicks": 1823,
          "midi": 52,
          "name": "E3",
          "ticks": 71040,
          "time": 61.666716,
          "velocity": 0.6299212598425197
        },
        {
          "duration": 3.165801143749995,
          "durationTicks": 3647,
          "midi": 28,
          "name": "E1",
          "ticks": 72960,
          "time": 63.333384,
          "velocity": 0.6299212598425197
        },
        {
          "duration": 3.165801143749995,
          "durationTicks": 3647,
          "midi": 40,
          "name": "E2",
          "ticks": 72960,
          "time": 63.333384,
          "velocity": 0.6299212598425197
        },
        {
          "duration": 3.165801143750002,
          "durationTicks": 3647,
          "midi": 40,
          "name": "E2",
          "ticks": 76800,
          "time": 66.66672,
          "velocity": 0.6299212598425197
        },
        {
          "duration": 3.165801143750002,
          "durationTicks": 3647,
          "midi": 45,
          "name": "A2",
          "ticks": 80640,
          "time": 70.000056,
          "velocity": 0.6299212598425197
        },
        {
          "duration": 3.165801143750002,
          "durationTicks": 3647,
          "midi": 38,
          "name": "D2",
          "ticks": 84480,
          "time": 73.333392,
          "velocity": 0.6299212598425197
        },
        {
          "duration": 1.5824665437500016,
          "durationTicks": 1823,
          "midi": 26,
          "name": "D1",
          "ticks": 86400,
          "time": 75.00006,
          "velocity": 0.6299212598425197
        },
        {
          "duration": 3.165801143749988,
          "durationTicks": 3647,
          "midi": 38,
          "name": "D2",
          "ticks": 88320,
          "time": 76.666728,
          "velocity": 0.6299212598425197
        },
        {
          "duration": 1.5824665437500016,
          "durationTicks": 1823,
          "midi": 26,
          "name": "D1",
          "ticks": 90240,
          "time": 78.33339600000001,
          "velocity": 0.6299212598425197
        },
        {
          "duration": 3.165801143749988,
          "durationTicks": 3647,
          "midi": 26,
          "name": "D1",
          "ticks": 92160,
          "time": 80.00006400000001,
          "velocity": 0.6299212598425197
        },
        {
          "duration": 3.165801143749988,
          "durationTicks": 3647,
          "midi": 38,
          "name": "D2",
          "ticks": 92160,
          "time": 80.00006400000001,
          "velocity": 0.6299212598425197
        },
        {
          "duration": 3.5276616124999975,
          "durationTicks": 3647,
          "midi": 31,
          "name": "G1",
          "ticks": 96000,
          "time": 83.3334,
          "velocity": 0.6299212598425197
        },
        {
          "duration": 3.9966366083333327,
          "durationTicks": 3647,
          "midi": 36,
          "name": "C2",
          "ticks": 99840,
          "time": 87.069036,
          "velocity": 0.6299212598425197
        },
        {
          "duration": 1.9989043083333229,
          "durationTicks": 1823,
          "midi": 24,
          "name": "C1",
          "ticks": 101760,
          "time": 89.1720315,
          "velocity": 0.6299212598425197
        },
        {
          "duration": 2.104167508333333,
          "durationTicks": 1919,
          "midi": 48,
          "name": "C3",
          "ticks": 103680,
          "time": 91.2772955,
          "velocity": 0.6299212598425197
        },
        {
          "duration": 2.038378008333339,
          "durationTicks": 1859,
          "midi": 52,
          "name": "E3",
          "ticks": 103739,
          "time": 91.34198850833333,
          "velocity": 0.6299212598425197
        },
        {
          "duration": 1.972588508333331,
          "durationTicks": 1799,
          "midi": 55,
          "name": "G3",
          "ticks": 103799,
          "time": 91.40777800833334,
          "velocity": 0.6299212598425197
        },
        {
          "duration": 1.9046060249999925,
          "durationTicks": 1737,
          "midi": 59,
          "name": "B3",
          "ticks": 103862,
          "time": 91.47685698333333,
          "velocity": 0.6299212598425197
        }
      ],
      "endOfTrackTicks": 105600
    }
  ]
}
