<svg xmlns="http://www.w3.org/2000/svg" viewBox="0 0 881.82 40.89"><defs><style>.cls-1{fill:#222221;}</style></defs><g id="Layer_2" data-name="Layer 2"><g id="Graphic_Elements" data-name="Graphic Elements"><path class="cls-1" d="M878,20.08a39.27,39.27,0,0,1-33.79,4.71c1.16-5.36-1.82-11.52-8.42-10.58-3.13.45-6.31,3.59-4.24,6.8,1.31,2,3.87,3.69,6.64,5a12.81,12.81,0,0,1-5,2.61c-6.88,2-15.23,1.18-22.27.39a97.92,97.92,0,0,1-22.82-5.43c-.81-.3-1.65-.62-2.49-1,2.56-2.71,3.44-6.19.51-10.57-2-2.91-5.61-5.48-9.15-3.83s-3.31,5.26-1.89,8.28A17.82,17.82,0,0,0,779.14,22c-4,2.49-9.66,3.59-13.4,4.43a85.77,85.77,0,0,1-23.59,1.92c-7.66-.44-16-1.53-23.06-4.74a15.51,15.51,0,0,1-2-1.09,44.59,44.59,0,0,0,8-6.84c.44-.48.21-1.19,0-1.7-1.61-3.45-5.45-7.86-9.66-8-3.61-.13-5.83,3.79-6.22,6.91A10.87,10.87,0,0,0,711,20.49c-16.78,9.53-38.86,8-57.24,3.69-3.22-.75-7.48-1.88-10.39-4A41.94,41.94,0,0,0,650.54,15c1.7-1.64,1.52-3.29.55-5.49-1.57-3.58-5.81-7-9.9-5.65s-5.5,6.25-5,10A12.1,12.1,0,0,0,637.46,18l-.61.33a63.75,63.75,0,0,1-36.5,7.25c-5.53-.56-12.3-1.68-17.29-4.74a37.73,37.73,0,0,0,5.49-9.45c1.36-3.43-1.14-6.69-4.72-7.5s-7.25,1.32-8.94,4.3c-2.47,4.33-.7,8.32,2.56,11.56a39.9,39.9,0,0,1-3.07,3,49.24,49.24,0,0,1-16.06,9.41c-14.55,5.21-30.62,3.74-45.41.35-3-.69-7.29-1.61-10.49-3.43,4.28-2.64,6.79-6.54,4.07-12.33-1.57-3.34-5.09-6.18-8.69-4-3.31,2-4.29,6.6-3.48,10.18a12.86,12.86,0,0,0,1.81,4.23c-6.56,2.93-15,3.61-21.76,4.06a97.65,97.65,0,0,1-25.82-1.57c-4.65-.95-10.47-2.61-14.3-6C440,18.7,445,11,440.85,4.07c-5.57-9.4-14-.6-14.64,7.1A16.18,16.18,0,0,0,429,21.61a42,42,0,0,1-4,2.5,74.31,74.31,0,0,1-29.76,9c-9.86.83-21.82.35-30.85-4.14l-.12-.06c4.53-2.7,7-6.58,2.56-12.09-2.41-3-6.55-4.13-9.26-.85s-1.85,7.9.35,11.09c-2,.69-4,1.15-5.3,1.49-12.33,3.21-42.83,8.9-52-4.69,6-4,10.5-9.66,7.43-17.18C307,4.11,303.58-.56,300.28.18c-4,.9-6,7.69-6.23,11.06a19.62,19.62,0,0,0,2,10c-6.93,4.45-15.73,7.1-23.31,8.86a88.41,88.41,0,0,1-32.86,1.32A50.39,50.39,0,0,1,232.4,30a7.81,7.81,0,0,0,2.77-7.37C234.69,19.1,231.8,15,228,14.7c-4.2-.35-6.19,4.2-5.85,7.79a10.72,10.72,0,0,0,2.63,6.19c-3.54,1.36-7.61,1.83-11.24,2.36a124.75,124.75,0,0,1-19.11,1.31c-11.15-.09-22.8-1.37-33.44-4.81a22.82,22.82,0,0,1-6.17-3l.62-.4c2-1.33,6.6-3.42,7.14-5.81,1.58-7-10.05-7.92-13.27-3.61-1.66,2.21-1.1,5.12.13,7.51-7.25,4.76-14.92,9-23.35,11.16C116.4,35.81,106.23,34.84,98,29a24.07,24.07,0,0,1-5.52-5.42c3.9-2.83,7.61-6.45,8-11.23C101,4.73,88.9-4,85.52,5.94,83.81,11,85,16.29,87.5,21a72.59,72.59,0,0,1-16.21,8.48c-10.38,3.9-23.16,6.48-34.2,4.18a20.73,20.73,0,0,1-3.52-1c2.73-2.52,6.18-6.39,5.8-9.27C39,20.17,34.75,18.2,32,18.73c-3.54.7-6.67,4.29-6.28,8a9.11,9.11,0,0,0,1.82,4.43A27.34,27.34,0,0,1,1.22,35.06c-2.61-1-.46,3.25,1.11,3.87A29.78,29.78,0,0,0,31.2,34.57,17.36,17.36,0,0,0,33.76,36c10.58,4.89,25.57,2.1,36.21-1.2a77,77,0,0,0,18.34-8.5l1.9-1.22a33.53,33.53,0,0,0,6.38,6.29,37.3,37.3,0,0,0,30.87,6.25,68,68,0,0,0,19.41-8.13c1.87-1.09,3.69-2.24,5.5-3.42a26.51,26.51,0,0,0,10.78,5.65,123.91,123.91,0,0,0,45.5,4.15c4.65-.41,14.23-.8,20.54-3.82,5.49,2.86,12.95,3.62,18,4.06a90.63,90.63,0,0,0,42.14-6.43,71.55,71.55,0,0,0,9.17-4.43,26.81,26.81,0,0,0,11.06,8.21c12,4.85,26.58,3.08,38.94.65a65.49,65.49,0,0,0,12.82-3.66A30.42,30.42,0,0,0,371.84,35a75.55,75.55,0,0,0,19.74,2.47,76.62,76.62,0,0,0,37.76-10.21,30.45,30.45,0,0,0,2.88-1.91A32.24,32.24,0,0,0,444,32.1c13.14,4.31,28.18,4.3,41.71,2.17a58.88,58.88,0,0,0,13.65-3.57c6,4.74,15.82,6.15,22.37,7.29,14.23,2.49,29.53,2.69,43-3.26a49.06,49.06,0,0,0,16.6-11.84,36.72,36.72,0,0,0,8.81,4.27,64.81,64.81,0,0,0,36.54.35,63.87,63.87,0,0,0,13.83-5.67c5.21,4.57,13.87,6.23,19.93,7.4,11.63,2.23,23.69,3.19,35.44,1.28a54.4,54.4,0,0,0,18.57-6.44c4.31,3.26,10.37,5.1,14.94,6.15A89,89,0,0,0,771,29.76a40.81,40.81,0,0,0,12-4.94c6.24,3.8,14.38,5.47,20.83,6.78a102.16,102.16,0,0,0,20.33,2.08c5.41,0,11.86.07,16.45-3.23a8.62,8.62,0,0,0,2.32-2.5c1.09.37,2.11.7,3,1a41.92,41.92,0,0,0,35.55-5.27C882.89,22.68,879.59,19,878,20.08ZM33.72,23a9.57,9.57,0,0,1,1.18-.39c-.72.42-1.23,2-1.75,2.76a25.92,25.92,0,0,1-3.31,3.79A3.69,3.69,0,0,1,29.69,28C29.77,25.84,31.85,23.74,33.72,23ZM93.06,5.62c5.68-.19,3,7.12,1.1,9.52A22.68,22.68,0,0,1,90,19.09c-.05-.14-.11-.27-.16-.41C88.68,15.27,87.42,5.81,93.06,5.62Zm59.84,12.5a5.42,5.42,0,0,1,3.14-2c.25-.07,2.41-.47,2.44-.22s-3.28,2.36-3.46,2.48c-1,.67-1.91,1.33-2.88,2A4.17,4.17,0,0,1,152.9,18.12Zm78.25,2.36c1.55,2.44-1.54,5.45-3.63,6.83a5.25,5.25,0,0,1-1.47-3.68C226,21.86,228.35,16.07,231.15,20.48Zm66.87-5c-.15-3,.72-8.89,3.92-10.42l.81-.64,1.87,2.1a8.37,8.37,0,0,1,.27,4.41,13,13,0,0,1-4.4,7c-.59.54-1.21,1-1.85,1.54A18.54,18.54,0,0,1,298,15.48Zm62.2,6c.72-2.45,4.39-5.17,4.64-.74.14,2.35-1.71,4-4.09,5.21A5.25,5.25,0,0,1,360.22,21.47Zm70.34-3.58c-1.46-5.54.89-12.2,6.49-14,2.48,2.75.62,7.4-1,10.28a22.61,22.61,0,0,1-4.72,5.7A10.84,10.84,0,0,1,430.56,17.89Zm67.79,2.63c.57-2.08,4-6.9,5-2.57.78,3.32-2,6.29-4.57,7.86A6.64,6.64,0,0,1,498.35,20.52Zm81-10.17c.55-.64,4.74-3.79,5.49-2.46s-3.49,6.91-4.23,7.94c-.42.6-.87,1.18-1.33,1.76C577.77,15.39,577.4,12.68,579.4,10.35Zm61.23,1.17a6,6,0,0,1,2.18-3.08c1.65-.95,1.07-.86,2.73,1.16,2.23,2.71,1.67,1.19.46,2.67a20.32,20.32,0,0,1-5.64,4.19A7.26,7.26,0,0,1,640.63,11.52Zm72.67,2.89c1.09-4.53,5.2-5.53,7.69-1.74a43.38,43.38,0,0,1-7.32,6.13A6.64,6.64,0,0,1,713.3,14.41Zm65.44,2.71c-.9-1.87-1-3.88,1.09-4.94,3-1.53,4.54,2.7,3.64,5a8.62,8.62,0,0,1-2.13,3.09A8.71,8.71,0,0,1,778.74,17.12Zm61.88,4.26a6.46,6.46,0,0,1-.45,1.83,36.11,36.11,0,0,1-5-2.81C836.23,17.68,841,16.81,840.62,21.38Z"/></g></g></svg>