<?xml version="1.0" encoding="iso-8859-1"?>
<!-- Generator: Adobe Illustrator 19.0.0, SVG Export Plug-In . SVG Version: 6.00 Build 0)  -->
<svg version="1.1" id="Layer_1" xmlns="http://www.w3.org/2000/svg" xmlns:xlink="http://www.w3.org/1999/xlink" x="0px" y="0px"
	 viewBox="0 0 512.002 512.002" style="enable-background:new 0 0 512.002 512.002;" xml:space="preserve">
<path style="fill:#FFB14D;" d="M312.207,223.304l-55.823,71.634l-26.896-58.518c51.632-51.632,118.941-118.941,118.941-118.941
	c9.613-9.613,30.73-13.106,40.337-3.501c9.613,9.613,4.079,28.688-5.535,38.301L312.207,223.304z"/>
<path style="fill:#FF9E24;" d="M322.445,282.669l-31.259,47.07l-42.707-42.707l63.728-63.728
	c9.613-9.613,29.259-15.695,38.864-6.089c9.613,9.613,5.55,31.277-4.064,40.89L322.445,282.669z"/>
<path style="fill:#FF8C00;" d="M342.05,332.664l-16.064,31.876l-42.707-42.707l39.165-39.165
	c9.613-9.613,29.668-14.077,39.273-4.472c9.613,9.613,5.141,29.659-4.472,39.273L342.05,332.664z"/>
<path style="fill:#FF9E24;" d="M376.852,367.465c0,0-3.107,3.107-8.158,8.158l-50.612-18.99l23.97-23.97
	c9.613-9.613,29.338-19.675,42.627-4.472C393.626,338.427,386.465,357.852,376.852,367.465z"/>
<path style="fill:#FFB14D;" d="M229.489,236.42l-55.372,55.372c-23.369,23.369-32.959,55.19-28.2,85.517L16.849,506.377h163.775
	l47.181-47.181c30.335,4.767,62.147-4.83,85.516-28.2l55.372-55.372L229.489,236.42z"/>
<g>
	<path style="fill:#11113F;" d="M377.249,310.853c6.894-13.456,4.716-30.397-6.536-41.65c-3.356-3.355-7.219-5.904-11.344-7.646
		l1.107-1.107c6.76-6.76,10.482-15.748,10.482-25.307c0-9.56-3.722-18.548-10.482-25.308c-3.308-3.307-7.149-5.889-11.329-7.661
		l47.55-47.55c6.76-6.76,10.483-15.748,10.483-25.308c0-9.559-3.723-18.547-10.483-25.307c-13.953-13.953-36.659-13.953-50.614,0
		L171.77,278.323c-24.026,24.026-35.547,56.333-32.09,89.412L14.503,492.913c-4.366,4.366-4.366,11.445,0,15.812
		c4.367,4.365,11.444,4.365,15.812,0l129.069-129.069c2.527-2.527,3.693-6.109,3.139-9.639
		c-4.379-27.919,4.755-55.577,25.061-75.881l174.313-174.313c2.537-2.537,5.908-3.933,9.494-3.933s6.959,1.396,9.494,3.933
		c5.237,5.236,5.237,13.755,0,18.99L274.174,245.526c-4.366,4.366-4.366,11.445,0,15.812c4.367,4.365,11.444,4.365,15.812,0
		l35.662-35.662c0.009-0.01,0.019-0.019,0.027-0.027c5.235-5.237,13.755-5.237,18.989,0c2.537,2.537,3.933,5.908,3.933,9.495
		c0,3.587-1.396,6.959-3.933,9.494l-24.392,24.393c-0.058,0.057-0.116,0.114-0.173,0.171c-0.032,0.032-0.065,0.066-0.096,0.098
		l-17.141,17.139c-4.366,4.366-4.366,11.445,0,15.812c4.367,4.365,11.444,4.365,15.812,0l17.342-17.342
		c2.525-2.471,5.852-3.829,9.39-3.829c3.587,0,6.959,1.396,9.494,3.933c2.536,2.537,3.934,5.908,3.934,9.495
		c0,3.587-1.398,6.959-3.934,9.494l-15.095,15.095c-0.034,0.034-0.067,0.067-0.101,0.099c-0.019,0.019-0.037,0.037-0.056,0.056
		l-8.1,8.1c-4.366,4.366-4.366,11.445,0,15.812c4.366,4.365,11.443,4.366,15.812,0l8.218-8.219c2.53-2.497,5.876-3.872,9.434-3.872
		c3.588,0,6.96,1.398,9.496,3.934c2.536,2.537,3.933,5.908,3.933,9.494s-1.396,6.959-3.933,9.494l-63.529,63.529
		c-20.306,20.305-47.965,29.437-75.882,25.062c-3.535-0.552-7.112,0.614-9.639,3.139l-47.182,47.182
		c-4.366,4.366-4.366,11.445,0,15.812c2.184,2.182,5.045,3.275,7.906,3.275s5.722-1.092,7.906-3.275l43.292-43.293
		c33.083,3.455,65.386-8.065,89.413-32.091l63.529-63.529c6.76-6.76,10.482-15.748,10.482-25.307s-3.722-18.547-10.482-25.307
		C386.557,315.437,382.105,312.616,377.249,310.853z"/>
	<path style="fill:#11113F;" d="M462.878,37.833c-50.443-50.443-132.522-50.445-182.971,0
		c-30.439,30.439-43.72,73.872-35.526,116.187c1.174,6.062,7.036,10.032,13.101,8.85c6.063-1.174,10.025-7.039,8.852-13.101
		c-6.779-35.011,4.207-70.945,29.385-96.124c41.727-41.727,109.623-41.725,151.348,0c20.213,20.213,31.345,47.087,31.345,75.673
		s-11.132,55.46-31.345,75.674c-14.033,14.034-31.597,23.865-50.794,28.431c-6.007,1.429-9.718,7.457-8.289,13.465
		c1.222,5.137,5.807,8.595,10.867,8.595c0.858,0,1.727-0.098,2.597-0.305c23.226-5.524,44.468-17.41,61.43-34.372
		c24.436-24.436,37.895-56.927,37.895-91.486C500.772,94.76,487.314,62.269,462.878,37.833z"/>
	<path style="fill:#11113F;" d="M410.363,184.1c2.184,2.182,5.045,3.275,7.906,3.275s5.722-1.092,7.906-3.275
		c30.206-30.207,30.206-79.357,0-109.564c-14.633-14.633-34.089-22.692-54.783-22.692c-20.694,0-40.149,8.059-54.782,22.692
		c-4.366,4.366-4.366,11.445,0,15.812c4.367,4.365,11.444,4.365,15.812,0c10.409-10.41,24.248-16.142,38.969-16.142
		c14.721,0,28.561,5.733,38.97,16.142c21.489,21.489,21.489,56.453,0,77.941C405.997,172.655,405.997,179.734,410.363,184.1z"/>
</g>
<g>
</g>
<g>
</g>
<g>
</g>
<g>
</g>
<g>
</g>
<g>
</g>
<g>
</g>
<g>
</g>
<g>
</g>
<g>
</g>
<g>
</g>
<g>
</g>
<g>
</g>
<g>
</g>
<g>
</g>
</svg>
