<?xml version="1.0" encoding="iso-8859-1"?>
<!-- Generator: Adobe Illustrator 16.0.0, SVG Export Plug-In . SVG Version: 6.00 Build 0)  -->
<!DOCTYPE svg PUBLIC "-//W3C//DTD SVG 1.1//EN" "http://www.w3.org/Graphics/SVG/1.1/DTD/svg11.dtd">
<svg version="1.1" id="Capa_1" xmlns="http://www.w3.org/2000/svg" xmlns:xlink="http://www.w3.org/1999/xlink" x="0px" y="0px"
	 width="895.401px" height="895.4px" viewBox="0 0 895.401 895.4" style="enable-background:new 0 0 895.401 895.4;"
	 xml:space="preserve">
<g>
	<g>
		<path d="M328.177,875.4c0,11,9,20,20,20h295.599c11,0,20-9,20-20V829.6H328.177V875.4z"/>
		<path d="M321.477,322.9l0.101-146.3c0-16.9,6.399-32.7,18.1-44.5c13-13,31.6-20.4,51.2-20.4c15.3,0,30,4.7,41.399,13.1
			c13.801,10.2,22.4,25.6,24.2,43.2c0,0.4,7.9,76.7,15,145c49.7-29.2,83.2-83.2,83.2-145c0-92.8-75.2-168-168-168
			c-92.8,0-168,75.2-168,168C218.577,237.6,260.977,297.4,321.477,322.9z"/>
		<path d="M716.176,513.801c0-19.5-12.5-36.801-31.1-42.801c-55.5-18.1-167.5-54.2-184.601-57.6c-5.3-1-10.5-1.5-15.5-1.5
			c-13.5,0-25.3,3.7-32.399,10h-0.101c0,0,0,0,0-0.1c-0.1-0.801-25.899-250.3-25.899-250.7c-2.101-20-18.7-29.5-35.801-29.5
			c-19.399,0-39.399,12.2-39.3,34.9l-0.2,404.301c0,4.799-3.5,8.799-8.3,9.5c-0.1,0-0.1,0-0.2,0c-0.399,0.1-0.899,0.1-1.3,0.1
			c-0.1,0-0.2,0-0.3,0c-13.6-0.4-44.3-0.801-74.2-44.1c-4-5.701-7.6-10.9-10.9-15.701c-10.4-14.9-24.3-21.299-37.4-21.299
			c-23,0-43.7,19.898-38.7,49.6c7.2,43.299,54.6,144.199,148,238.799h335.6l33.899-57.299c12.101-20.301,18.5-43.5,18.5-67.201
			L716.176,513.801z"/>
	</g>
</g>
<g>
</g>
<g>
</g>
<g>
</g>
<g>
</g>
<g>
</g>
<g>
</g>
<g>
</g>
<g>
</g>
<g>
</g>
<g>
</g>
<g>
</g>
<g>
</g>
<g>
</g>
<g>
</g>
<g>
</g>
</svg>
