<?xml version="1.0" encoding="iso-8859-1"?>
<!-- Generator: Adobe Illustrator 19.0.0, SVG Export Plug-In . SVG Version: 6.00 Build 0)  -->
<svg version="1.1" id="Layer_1" xmlns="http://www.w3.org/2000/svg" xmlns:xlink="http://www.w3.org/1999/xlink" x="0px" y="0px"
	 viewBox="0 0 512 512" style="enable-background:new 0 0 512 512;" xml:space="preserve">
<polygon style="fill: var(--fill, #FFDB77);" points="243.268,487.671 218.658,241.647 49.391,217.472 49.391,192.128 219.315,167.851
	243.379,23.492 268.621,23.492 292.685,167.851 462.609,192.128 462.609,217.472 293.342,241.647 268.732,487.671 "/>
<g>
	<path style="fill: var(--stroke, #22313F);" d="M464.418,179.456L303.77,156.51L281.25,21.393C279.194,9.045,268.518,0,256,0
		c-12.518,0-23.194,9.045-25.25,21.393L208.23,156.51L47.582,179.456C34.97,181.257,25.6,192.06,25.6,204.8
		c0,12.74,9.37,23.543,21.982,25.344l159.343,22.767l23.603,236.041C231.834,502.033,242.85,512,256,512
		c13.15,0,24.166-9.967,25.472-23.057l23.603-236.041l159.343-22.767C477.03,228.343,486.4,217.54,486.4,204.8
		C486.4,192.06,477.03,181.257,464.418,179.456z M281.6,230.4l-25.6,256l-25.6-256L51.2,204.8l179.2-25.6L256,25.6l25.6,153.6
		l179.2,25.6L281.6,230.4z"/>
	<path style="fill: var(--stroke, #22313F);" d="M170.146,137.054c2.5,2.5,5.777,3.746,9.054,3.746s6.554-1.246,9.054-3.746
		c5.001-5.001,5.001-13.099,0-18.099l-51.2-51.2c-5.001-5.001-13.099-5.001-18.099,0c-5.001,5.001-5.001,13.099,0,18.099
		L170.146,137.054z"/>
	<path style="fill: var(--stroke, #22313F);" d="M341.854,272.546c-5.001-5.001-13.099-5.001-18.099,0s-5.001,13.099,0,18.099l51.2,51.2
		c2.492,2.509,5.769,3.755,9.045,3.755s6.554-1.246,9.054-3.746c5.001-5.001,5.001-13.099,0-18.099L341.854,272.546z"/>
	<path style="fill: var(--stroke, #22313F);" d="M332.8,140.8c3.277,0,6.554-1.246,9.054-3.746l51.2-51.2c5.001-5.001,5.001-13.099,0-18.099
		s-13.099-5.001-18.099,0l-51.2,51.2c-5.001,5.001-5.001,13.099,0,18.099C326.246,139.554,329.523,140.8,332.8,140.8z"/>
	<path style="fill: var(--stroke, #22313F);" d="M170.146,272.546l-51.2,51.2c-5.001,5.001-5.001,13.099,0,18.099c2.5,2.509,5.777,3.755,9.054,3.755
		c3.277,0,6.554-1.246,9.054-3.746l51.2-51.2c5.001-5.001,5.001-13.099,0-18.099C183.253,267.554,175.147,267.554,170.146,272.546z"
		/>
</g>
<g>
</g>
<g>
</g>
<g>
</g>
<g>
</g>
<g>
</g>
<g>
</g>
<g>
</g>
<g>
</g>
<g>
</g>
<g>
</g>
<g>
</g>
<g>
</g>
<g>
</g>
<g>
</g>
<g>
</g>
</svg>
