<?xml version="1.0" encoding="iso-8859-1"?>
<svg version="1.1" id="Layer_1" xmlns="http://www.w3.org/2000/svg" xmlns:xlink="http://www.w3.org/1999/xlink" x="0px" y="0px"
	 viewBox="0 0 382.925 382.925" style="enable-background:new 0 0 382.925 382.925;" xml:space="preserve">
<g>
	<circle style="fill:var(--fill, #FFDB77);" cx="108.631" cy="191.464" r="67.823"/>
	<path style="fill:var(--fill-2, #13829B);" d="M40.808,191.463c0-4.338,0.424-8.575,1.202-12.687H17.386c-5.46,0-9.887,4.426-9.887,9.887v5.6
		c0,5.46,4.426,9.887,9.887,9.887h24.625C41.233,200.038,40.808,195.801,40.808,191.463z"/>
	<circle style="fill:var(--fill, #FFDB77);" cx="274.293" cy="191.464" r="67.823"/>
	<path style="fill:var(--fill-2, #13829B);" d="M340.914,178.776h24.625c5.46,0,9.887,4.426,9.887,9.887v5.6c0,5.46-4.426,9.887-9.887,9.887
		h-24.625C342.516,195.684,342.517,187.246,340.914,178.776z"/>
	<g>
		<path style="fill: var(--stroke, #22313F);" d="M84.79,149.319c-10.674,6.049-18.594,15.8-22.302,27.457c-1.256,3.947,0.926,8.165,4.874,9.42
			c3.946,1.256,8.165-0.926,9.42-4.874c2.558-8.043,8.029-14.774,15.403-18.954c3.604-2.042,4.87-6.619,2.827-10.223
			C92.971,148.542,88.394,147.277,84.79,149.319z"/>
		<path style="fill: var(--stroke, #22313F);" d="M365.539,171.276h-18.691c-8.848-31.758-38.013-55.136-72.554-55.136
			c-35.007,0-64.51,24.005-72.919,56.418c-6.243-3.076-13.578-3.078-19.825,0c-8.409-32.413-37.912-56.419-72.918-56.419
			c-34.54,0-63.705,23.378-72.553,55.136H17.386C7.799,171.276,0,179.075,0,188.662v5.601c0,9.587,7.799,17.386,17.386,17.386
			h18.692c8.848,31.758,38.013,55.136,72.553,55.136c40.805,0,74.111-32.621,75.268-73.151c0.033-0.287,0.055-0.578,0.055-0.874
			c0-4.14,3.368-7.508,7.508-7.508s7.508,3.368,7.508,7.508c0,0.296,0.022,0.587,0.055,0.874
			c1.156,40.53,34.463,73.151,75.268,73.151c34.54,0,63.706-23.378,72.554-55.136h18.691c9.587,0,17.387-7.799,17.387-17.386v-5.601
			C382.925,179.075,375.126,171.276,365.539,171.276z M33.491,196.649H17.386c-1.316,0-2.386-1.07-2.386-2.386v-5.601
			c0-1.316,1.07-2.386,2.386-2.386H33.49C33.258,189.601,33.253,193.241,33.491,196.649z M108.631,251.785
			c-33.383,0-60.323-27.224-60.323-60.323c0-32.905,26.754-60.323,60.323-60.323c33.262,0,60.323,27.061,60.323,60.323
			S141.894,251.785,108.631,251.785z M274.294,251.785c-33.263,0-60.323-27.061-60.323-60.323s27.061-60.323,60.323-60.323
			c33.244,0,60.323,27.077,60.323,60.323C334.617,224.55,307.689,251.785,274.294,251.785z M367.925,194.263
			c0,1.316-1.07,2.386-2.387,2.386h-16.104c0.259-3.715,0.219-7.235,0-10.373h16.104c1.316,0,2.387,1.07,2.387,2.386V194.263z"/>
		<path style="fill: var(--stroke, #22313F);" d="M250.452,149.319c-10.674,6.05-18.594,15.801-22.302,27.457c-1.255,3.947,0.927,8.165,4.874,9.42
			c3.949,1.256,8.165-0.928,9.421-4.874c2.558-8.042,8.028-14.774,15.403-18.954c3.604-2.042,4.869-6.619,2.827-10.223
			C258.633,148.543,254.056,147.277,250.452,149.319z"/>
	</g>
</g>
</svg>
