<?xml version="1.0" encoding="iso-8859-1"?>
<!-- Generator: Adobe Illustrator 19.0.0, SVG Export Plug-In . SVG Version: 6.00 Build 0)  -->
<svg version="1.1" id="Layer_1" xmlns="http://www.w3.org/2000/svg" xmlns:xlink="http://www.w3.org/1999/xlink" x="0px" y="0px"
	 viewBox="0 0 512 512" style="enable-background:new 0 0 512 512;" xml:space="preserve">
<g>
	<g>
		<path d="M511.86,318.439c-1.452-30.058-14.59-52.758-39.12-67.517c-21.296-12.814-48.221-17.542-71.749-20.478
			c-20.85-2.601-36.575-20.409-36.575-41.424c0-97.653-79.446-177.1-177.101-177.1H177.1C79.446,11.92,0,91.366,0,189.02
			l1.135,311.06H512V318.439H511.86z M432.532,466.022H80.603v-68.115h34.058v39.734h34.058v-39.734H177.1v39.734h34.058v-39.734
			h28.381v39.734h34.058v-39.734h28.381v39.734h34.058v-39.734h28.381v39.734h34.058v-39.734h34.058V466.022z"/>
	</g>
</g>
<g>
</g>
<g>
</g>
<g>
</g>
<g>
</g>
<g>
</g>
<g>
</g>
<g>
</g>
<g>
</g>
<g>
</g>
<g>
</g>
<g>
</g>
<g>
</g>
<g>
</g>
<g>
</g>
<g>
</g>
</svg>
