<?xml version="1.0" encoding="iso-8859-1"?>
<!-- Generator: Adobe Illustrator 19.0.0, SVG Export Plug-In . SVG Version: 6.00 Build 0)  -->
<svg version="1.1" id="Layer_1" xmlns="http://www.w3.org/2000/svg" xmlns:xlink="http://www.w3.org/1999/xlink" x="0px" y="0px"
	 viewBox="0 0 322.323 322.323" style="enable-background:new 0 0 322.323 322.323;" xml:space="preserve">
<g>
	<path style="fill: var(--fill, #FFDB77);" d="M55.71,107.969c0,13.321-10.804,24.105-24.105,24.105c-13.291,0-24.105-10.778-24.105-24.105
		s10.814-24.105,24.105-24.105C44.909,83.864,55.71,94.65,55.71,107.969z"/>
	<g>
		<path style="fill: var(--fill, #FFDB77);" d="M285.968,123.062c-15.443,23.122-36.444,48.621-61.476,73.652
			c-25.039,25.039-50.537,46.04-73.659,61.469c-26.102-10.699-47.786-32.324-57.947-60.337
			c-13.335-36.58-5.321-79.263,24.077-108.661C169.163,36.984,257.965,54.741,285.968,123.062z"/>
		<path style="fill: var(--fill, #FFDB77);" d="M285.968,123.062c34.91,85.191-50.595,169.795-135.135,135.121
			c23.122-15.429,48.621-36.43,73.659-61.469C249.524,171.683,270.525,146.184,285.968,123.062z"/>
		<g>
			<path style="fill: var(--stroke, #22313F)" d="M31.605,76.365C14.408,76.365,0,90.285,0,107.969c0,17.708,14.432,31.605,31.605,31.605
				c17.198,0,31.605-13.921,31.605-31.605C63.211,90.529,49.063,76.365,31.605,76.365z M31.605,124.575
				c-9.337,0-16.605-7.587-16.605-16.605c0-9.006,7.256-16.604,16.605-16.604c9.375,0,16.605,7.621,16.605,16.604
				C48.211,116.955,40.975,124.575,31.605,124.575z"/>
			<path style="fill: var(--stroke, #22313F)" d="M314.96,35.154c-20.206-20.201-66.495,5.889-90.409,21.659
				C138.43,28.774,56.533,110.602,84.591,196.772c-15.741,23.879-41.864,70.202-21.658,90.41
				c19.913,19.909,65.273-5.272,88.809-20.615c88.185,32.503,175.484-53.336,142.608-142.598
				C309.657,100.465,334.907,55.102,314.96,35.154z M122.267,94.488c47.281-47.281,127.372-32.835,155.169,27.79
				c-31.367,45.815-81.132,95.709-127.384,127.373C89.13,221.649,75.201,141.55,122.267,94.488z M120.95,267.283
				c-27.562,14.248-42.562,14.143-47.41,9.292c-4.85-4.85-4.956-19.852,9.295-47.416c2.563-4.966,5.506-10.159,8.798-15.525
				c9.832,18.929,25.367,34.987,43.878,45.438C130.501,262.117,125.631,264.864,120.95,267.283z M167.484,255.719
				c41.721-30.268,85.549-74.055,116.016-116.009C300.442,209.724,237.18,272.574,167.484,255.719z M295.074,93.158
				c-2.421,4.682-5.17,9.557-8.222,14.576c-10.396-18.408-26.534-34.102-45.443-43.88c5.366-3.292,10.565-6.24,15.546-8.813
				c27.551-14.236,42.55-14.129,47.398-9.279C309.202,50.61,309.31,65.608,295.074,93.158z"/>
		</g>
	</g>
</g>
</svg>
