<svg id="Layer_1" data-name="Layer 1" xmlns="http://www.w3.org/2000/svg" viewBox="0 0 512 512"><path d="M256,473.75A129,129,0,0,1,185.45,453a128.6,128.6,0,0,1-64.18,20.55,255.44,255.44,0,0,0,269.46,0A128.68,128.68,0,0,1,326.56,453,129,129,0,0,1,256,473.75Z"/><path d="M397.1,401.28a128.92,128.92,0,0,1-70.54-20.71,130.51,130.51,0,0,1-141.11,0,130.5,130.5,0,0,1-141.12,0c-2.9,1.88-5.87,3.62-8.89,5.26A258,258,0,0,0,71,432.73,99.64,99.64,0,0,0,176,422a15.43,15.43,0,0,1,19,0,99.53,99.53,0,0,0,122.16,0A15.42,15.42,0,0,1,336,422a99.65,99.65,0,0,0,105,10.75,257.88,257.88,0,0,0,35.52-46.9c-3-1.63-6-3.38-8.9-5.26A129,129,0,0,1,397.1,401.28Z"/><path d="M397.1,328.81a128.92,128.92,0,0,1-70.54-20.71,130.51,130.51,0,0,1-141.11,0,130.5,130.5,0,0,1-141.12,0A128.45,128.45,0,0,1,9.18,324a254.41,254.41,0,0,0,12.2,34.38,100.85,100.85,0,0,0,13.47-8.86,15.42,15.42,0,0,1,18.95,0,99.51,99.51,0,0,0,122.16,0,15.43,15.43,0,0,1,19,0,99.53,99.53,0,0,0,122.16,0,15.42,15.42,0,0,1,18.95,0,99.5,99.5,0,0,0,122.14,0,15.43,15.43,0,0,1,19,0,99.86,99.86,0,0,0,13.49,8.87A254.54,254.54,0,0,0,502.82,324a128.7,128.7,0,0,1-35.17-15.88A128.91,128.91,0,0,1,397.1,328.81Z"/><path d="M256,0C114.84,0,0,114.84,0,256a257.56,257.56,0,0,0,2.78,37.7A98.71,98.71,0,0,0,34.85,277a15.43,15.43,0,0,1,19,0A99.51,99.51,0,0,0,176,277a15.42,15.42,0,0,1,18.95,0,99.53,99.53,0,0,0,122.16,0A15.42,15.42,0,0,1,336,277a99.5,99.5,0,0,0,122.14,0,15.43,15.43,0,0,1,19,0,98.81,98.81,0,0,0,32.09,16.68A257.56,257.56,0,0,0,512,256C512,114.84,397.16,0,256,0Zm72.73,184.59a51.43,51.43,0,1,1,51.42-51.42A51.42,51.42,0,0,1,328.73,184.59Z"/></svg>