<svg id="Capa_1" data-name="Capa 1" xmlns="http://www.w3.org/2000/svg" viewBox="0 0 295.67 295.67"><path d="M270.29,201.41a15,15,0,0,0-14.65-.19l-11.16-6.44,23.11-11.26A7.5,7.5,0,0,0,261,170l-32.21,15.69-11.18-6.45L240.74,168a7.5,7.5,0,1,0-6.57-13.48L202,170.23l-23.67-13.66V138.72l23.05-13.31,31.92,16.31a7.5,7.5,0,0,0,10.09-3.27,7.49,7.49,0,0,0-3.27-10.09l-23.26-11.88,11.36-6.57,31.93,16.3a7.5,7.5,0,0,0,6.82-13.36L243.66,101l11.48-6.62a15,15,0,1,0,.32-25.78,14.91,14.91,0,0,0-7,9.11,15.39,15.39,0,0,0-.5,3.49l-11.16,6.44L238.62,62a7.5,7.5,0,0,0-15-1.06l-2.51,35.75L210,103.11l1.8-25.64a7.5,7.5,0,0,0-15-1.06l-2.51,35.74-23.37,13.5-15.43-9.58v-26l29.75-19.28a7.5,7.5,0,0,0-8.16-12.59l-21.59,14V59.08l29.75-19.29a7.5,7.5,0,0,0-8.16-12.58l-21.59,14V28c4-2.6,7.5-7.43,7.5-13a15,15,0,0,0-30,0c0,5.54,2.5,10.37,7.5,13V40.89L118.86,26.28a7.5,7.5,0,0,0-8.39,12.44L140.5,59v12.9L118.86,57.28a7.5,7.5,0,0,0-8.39,12.44L140.5,90v26l-16.11,9.48-22.74-13.13L99.82,76.91a7.5,7.5,0,1,0-15,.78l1.33,25.69L74.8,96.82,73,61.41a7.5,7.5,0,0,0-15,.78l1.33,25.69L47.86,81.26a15,15,0,1,0-7.49,13l11.18,6.45L28.08,112.15a7.5,7.5,0,0,0,3.29,14.24,7.36,7.36,0,0,0,3.28-.76l32.57-15.87,11.17,6.45L54.93,127.65a7.5,7.5,0,0,0,3.29,14.24,7.42,7.42,0,0,0,3.28-.76l32.57-15.87,22.81,13.17,0,18.41L94,170.07,62.41,154a7.5,7.5,0,1,0-6.82,13.36L78.5,179l-11.37,6.57L35.56,169.46a7.5,7.5,0,1,0-6.82,13.36l22.91,11.69-11.44,6.61a15,15,0,1,0,0,26,14.91,14.91,0,0,0,7-9.11,15.08,15.08,0,0,0,.5-3.88l11.18-6.45-1.83,26a7.51,7.51,0,0,0,7,8l.53,0a7.52,7.52,0,0,0,7.48-7l2.54-36.14,11.17-6.45-1.83,26a7.5,7.5,0,0,0,6.95,8h.54a7.5,7.5,0,0,0,7.47-7l2.54-36.14,22.93-13.24L140.5,179v26.42l-30.08,19.49a7.5,7.5,0,1,0,8.16,12.59l21.92-14.21v13.13l-30.08,19.5a7.5,7.5,0,1,0,8.16,12.58l21.92-14.21v13.24a14.42,14.42,0,0,0-7.84,13.18,15,15,0,1,0,30,0,14.9,14.9,0,0,0-7.16-12.78V255l21.3,14.38A7.5,7.5,0,1,0,185.19,257l-29.69-20V224l21.3,14.38A7.5,7.5,0,1,0,185.19,226l-29.69-20V178.77L171,169.66,194,183l1.84,35.79a7.51,7.51,0,0,0,7.49,7.12h.39a7.5,7.5,0,0,0,7.1-7.88l-1.34-26.09,11.36,6.56,1.85,35.81a7.51,7.51,0,0,0,7.49,7.11h.39a7.5,7.5,0,0,0,7.1-7.88l-1.34-26.09L247.8,214a15,15,0,1,0,22.49-12.6Z"/></svg>