<?xml version="1.0" encoding="iso-8859-1"?>
<!-- Generator: Adobe Illustrator 19.0.0, SVG Export Plug-In . SVG Version: 6.00 Build 0)  -->
<svg version="1.1" id="Layer_1" xmlns="http://www.w3.org/2000/svg" xmlns:xlink="http://www.w3.org/1999/xlink" x="0px" y="0px"
	 viewBox="0 0 291.275 291.275" style="enable-background:new 0 0 291.275 291.275;" xml:space="preserve">
<g>
	<path style="fill: var(--fill, #FFDB77); transition: all 0.4s;" d="M152.242,193.305l-32.13,16.892c-7.299,3.838-15.831-2.361-14.437-10.489l6.136-35.777
		c0.554-3.228-0.517-6.521-2.862-8.807l-25.993-25.337c-5.905-5.756-2.647-15.786,5.514-16.971l35.922-5.22
		c3.241-0.471,6.042-2.506,7.492-5.443l16.065-32.551c3.65-7.395,14.195-7.395,17.845,0l16.065,32.551
		c1.449,2.937,4.251,4.972,7.492,5.443l35.922,5.22c8.161,1.186,11.42,11.215,5.514,16.971l-25.993,25.337
		c-2.345,2.286-3.415,5.579-2.862,8.807l6.136,35.777c1.394,8.128-7.137,14.327-14.437,10.489l-32.13-16.892
		C158.604,191.781,155.141,191.781,152.242,193.305z"/>
	<circle style="fill: var(--fill, #FFDB77); transition: 0.4s;" cx="28.406" cy="187.185" r="20.906"/>
	<circle style="fill: var(--fill, #FFDB77); transition: 0.4s;" cx="256.578" cy="36.858" r="27.197"/>
	<g>
		<path style="fill: var(--stroke, #22313F);" d="M226.352,105.393c-38.849-5.645-36.974-4.953-37.767-6.561l-16.065-32.55
			c-2.961-5.999-8.956-9.727-15.647-9.727c1.234,0-10.367-0.973-15.648,9.727l-16.065,32.55c-0.804,1.631,0.978,0.931-37.766,6.561
			c-14.308,2.079-20.022,19.675-9.671,29.765l25.993,25.336c1.302,1.27,1.187-0.641-5.431,37.946
			c-2.444,14.249,12.522,25.12,25.319,18.396l32.13-16.892l0.001-0.001c0.713-0.375,1.565-0.376,2.279,0.001l32.129,16.892
			c12.796,6.729,27.762-4.15,25.319-18.396c-6.636-38.692-6.714-36.696-5.432-37.945l25.994-25.338
			C246.376,125.063,240.655,107.471,226.352,105.393z M225.553,124.415l-25.995,25.338c-4.113,4.01-5.989,9.784-5.018,15.445
			l6.136,35.776c0.345,2.011-1.747,3.532-3.555,2.583l-32.129-16.891c-5.086-2.676-11.157-2.674-16.242,0l-32.129,16.891
			c-1.804,0.951-3.899-0.57-3.554-2.583l6.136-35.777c0.97-5.662-0.906-11.435-5.019-15.445l-25.993-25.336
			c-1.462-1.426-0.664-3.886,1.357-4.18l35.921-5.22c5.685-0.825,10.597-4.395,13.139-9.546l16.065-32.551
			c0.895-1.813,3.489-1.833,4.394,0l16.065,32.551c2.543,5.151,7.455,8.721,13.139,9.546l35.922,5.22
			C226.215,120.53,227.015,122.991,225.553,124.415z"/>
		<path style="fill: var(--stroke, #22313F);" d="M28.406,158.78C12.743,158.78,0,171.522,0,187.185s12.743,28.406,28.406,28.406
			s28.406-12.743,28.406-28.406S44.069,158.78,28.406,158.78z M28.406,200.591c-7.392,0-13.406-6.014-13.406-13.406
			s6.014-13.405,13.406-13.405s13.406,6.014,13.406,13.405C41.812,194.578,35.798,200.591,28.406,200.591z"/>
		<path style="fill: var(--stroke, #22313F);" d="M256.578,2.162c-19.132,0-34.697,15.565-34.697,34.696s15.565,34.697,34.697,34.697
			s34.697-15.565,34.697-34.697S275.71,2.162,256.578,2.162z M256.578,56.555c-10.861,0-19.697-8.836-19.697-19.697
			c0-10.86,8.836-19.696,19.697-19.696c10.861,0,19.697,8.836,19.697,19.696C276.274,47.719,267.439,56.555,256.578,56.555z"/>
		<path style="fill: var(--stroke, #22313F);" d="M156.09,237.113c-4.142,0-7.5,3.357-7.5,7.5v37c0,4.143,3.358,7.5,7.5,7.5s7.5-3.357,7.5-7.5v-37
			C163.59,240.47,160.232,237.113,156.09,237.113z"/>
		<path style="fill: var(--stroke, #22313F);" d="M106.09,237.113c-4.142,0-7.5,3.357-7.5,7.5v37c0,4.143,3.358,7.5,7.5,7.5s7.5-3.357,7.5-7.5v-37
			C113.59,240.47,110.232,237.113,106.09,237.113z"/>
		<path style="fill: var(--stroke, #22313F);" d="M206.09,237.113c-4.142,0-7.5,3.357-7.5,7.5v37c0,4.143,3.358,7.5,7.5,7.5s7.5-3.357,7.5-7.5v-37
			C213.59,240.47,210.232,237.113,206.09,237.113z"/>
	</g>
</g>
</svg>
