<svg id="Layer_1" data-name="Layer 1" xmlns="http://www.w3.org/2000/svg" viewBox="0 0 24 24"><path d="M3.76,4.25l4-1.72a2.92,2.92,0,0,1,2.45.07l3.58,1.8a2.92,2.92,0,0,0,2.45.07L21.3,2.3a.5.5,0,0,1,.66.26.45.45,0,0,1,0,.2V17.08a2.89,2.89,0,0,1-1.76,2.67l-4,1.72a2.92,2.92,0,0,1-2.45-.07l-3.58-1.8a2.92,2.92,0,0,0-2.45-.07L2.7,21.7A.5.5,0,0,1,2,21.44a.45.45,0,0,1,0-.2V6.92A2.89,2.89,0,0,1,3.76,4.25ZM6,11v2H8V11Zm4,0v2h2V11Zm6-.06L14.76,9.7,13.7,10.76,14.94,12,13.7,13.24l1.06,1.06L16,13.06l1.24,1.24,1.06-1.06L17.06,12l1.24-1.24L17.24,9.7,16,10.94Z"/></svg>